<svg xmlns="http://www.w3.org/2000/svg" xmlns:xlink="http://www.w3.org/1999/xlink" xmlns:lucid="lucid" width="977" height="315"><g transform="translate(-46 -785)" lucid:page-tab-id="0_0"><path d="M170 860h70.07v120.12H170V860z" fill="#189eff"/><path d="M196.74 943.4h35.63c1.12 0 1.12 0 1.12 1.2 0 1.08 0 1.08-1.13 1.08h-35.63c-1.2 0-1.2 0-1.2-1.08 0-1.2 0-1.2 1.2-1.2zM196.8 949.52h35.5c1.54 0 1.54 0 1.54 1.56v.36c0 1.56 0 1.56-1.54 1.56h-35.5c-1.6 0-1.6 0-1.6-1.56v-.36c0-1.56 0-1.56 1.6-1.56zM196.95 957.08h35.56c1.55 0 1.55 0 1.55 1.56v.36c0 1.56 0 1.56-1.54 1.56h-35.55c-1.54 0-1.54 0-1.54-1.56v-.36c0-1.56 0-1.56 1.55-1.56zM229.36 918.32c0 3.12-2.52 5.64-5.74 5.64s-5.8-2.52-5.8-5.64c0-3.12 2.58-5.64 5.8-5.64 3.22 0 5.74 2.52 5.74 5.64z" fill="#fff"/><path d="M227.05 918.32c0 1.92-1.54 3.48-3.5 3.48s-3.57-1.56-3.57-3.48 1.6-3.48 3.57-3.48c1.96 0 3.5 1.56 3.5 3.48z" fill="#46b1ff"/><use xlink:href="#a" transform="matrix(1,0,0,1,140,980) translate(22.604938271604404 18.5555555555556)"/><path d="M810 860h70.07v120.12H810V860z" fill="#189eff"/><path d="M836.74 943.4h35.63c1.12 0 1.12 0 1.12 1.2 0 1.08 0 1.08-1.13 1.08h-35.63c-1.2 0-1.2 0-1.2-1.08 0-1.2 0-1.2 1.2-1.2zM836.8 949.52h35.5c1.54 0 1.54 0 1.54 1.56v.36c0 1.56 0 1.56-1.54 1.56h-35.5c-1.6 0-1.6 0-1.6-1.56v-.36c0-1.56 0-1.56 1.6-1.56zM836.95 957.08h35.56c1.55 0 1.55 0 1.55 1.56v.36c0 1.56 0 1.56-1.54 1.56h-35.55c-1.54 0-1.54 0-1.54-1.56v-.36c0-1.56 0-1.56 1.55-1.56zM869.36 918.32c0 3.12-2.52 5.64-5.74 5.64s-5.8-2.52-5.8-5.64c0-3.12 2.58-5.64 5.8-5.64 3.22 0 5.74 2.52 5.74 5.64z" fill="#fff"/><path d="M867.05 918.32c0 1.92-1.54 3.48-3.5 3.48s-3.57-1.56-3.57-3.48 1.6-3.48 3.57-3.48c1.96 0 3.5 1.56 3.5 3.48z" fill="#46b1ff"/><use xlink:href="#b" transform="matrix(1,0,0,1,780,980) translate(9.34567901234498 14.3888888888888)"/><use xlink:href="#c" transform="matrix(1,0,0,1,780,980) translate(48.7037037037035 14.3888888888888)"/><use xlink:href="#d" transform="matrix(1,0,0,1,780,980) translate(37.345679012345336 35.7222222222224)"/><path d="M433.43 881H241.07v-2h192.36zm358.07 0H616.64v-2H791.5z" fill="#333"/><path d="M241.1 881h-1.03v-2h1.03zM806.76 880l-14.26 4.64v-9.28z" fill="#333"/><path d="M810 880l-18.5 6v-12zm-16.5 3.26l10.03-3.26-10.03-3.26z" fill="#333"/><use xlink:href="#e" transform="matrix(1,0,0,1,433.430061728394,869.333333333333) translate(0.0049999999999954525 14.222222222222399)"/><use xlink:href="#f" transform="matrix(1,0,0,1,433.430061728394,869.333333333333) translate(4.943271604938329 14.222222222222399)"/><use xlink:href="#g" transform="matrix(1,0,0,1,433.430061728394,869.333333333333) translate(113.28895061728538 14.222222222222399)"/><path d="M268.77 921h-10.2v-2h10.2zm30.57 0h-20.38v-2h20.38zm30.58 0h-20.38v-2h20.38zm30.58 0h-20.38v-2h20.38zm30.58 0H370.7v-2h20.38zm30.58 0h-20.38v-2h20.38zm244.64 0h-20.4v-2h20.4zm30.58 0h-20.4v-2h20.4zm30.58 0h-20.4v-2h20.4zm30.57 0h-20.38v-2h20.38zm30.58 0h-20.37v-2h20.38zm20.4 0h-10.2v-2H809zm-173.28 0h-11.67v-2h11.67zM257.57 924.64L243.3 920l14.27-4.64z" fill="#333"/><path d="M258.57 926l-18.5-6 18.5-6zm-12.03-6l10.03 3.26v-6.52zM810 921h-1.03v-2H810z" fill="#333"/><use xlink:href="#e" transform="matrix(1,0,0,1,426.0226543209865,909.333333333333) translate(0.0049999999999954525 14.222222222222399)"/><use xlink:href="#f" transform="matrix(1,0,0,1,426.0226543209865,909.333333333333) translate(4.943271604938329 14.222222222222399)"/><use xlink:href="#h" transform="matrix(1,0,0,1,426.0226543209865,909.333333333333) translate(113.28895061728538 14.222222222222399)"/><path d="M430 961H241.07v-2H430zm361.5 0H620.07v-2H791.5z" fill="#333"/><path d="M241.1 961h-1.03v-2h1.03zM806.76 960l-14.26 4.64v-9.28z" fill="#333"/><path d="M810 960l-18.5 6v-12zm-16.5 3.26l10.03-3.26-10.03-3.26z" fill="#333"/><g><use xlink:href="#e" transform="matrix(1,0,0,1,429.9979629629619,949.3333333333333) translate(0.0049999999999954525 14.222222222222399)"/><use xlink:href="#i" transform="matrix(1,0,0,1,429.9979629629619,949.3333333333333) translate(4.943271604938329 14.222222222222399)"/><use xlink:href="#g" transform="matrix(1,0,0,1,429.9979629629619,949.3333333333333) translate(120.15314814814967 14.222222222222399)"/></g><defs><path fill="#333" d="M169-182c-1-43-94-46-97-3 18 66 151 10 154 114 3 95-165 93-204 36-6-8-10-19-12-30l50-8c3 46 112 56 116 5-17-69-150-10-154-114-4-87 153-88 188-35 5 8 8 18 10 28" id="j"/><path fill="#333" d="M114-157C55-157 80-60 75 0H25v-261h50l-1 109c12-26 28-41 61-42 86-1 58 113 63 194h-50c-7-57 23-157-34-157" id="k"/><path fill="#333" d="M110-194c64 0 96 36 96 99 0 64-35 99-97 99-61 0-95-36-95-99 0-62 34-99 96-99zm-1 164c35 0 45-28 45-65 0-40-10-65-43-65-34 0-45 26-45 65 0 36 10 65 43 65" id="l"/><path fill="#333" d="M135-194c53 0 70 44 70 98 0 56-19 98-73 100-31 1-45-17-59-34 3 33 2 69 2 105H25l-1-265h48c2 10 0 23 3 31 11-24 29-35 60-35zM114-30c33 0 39-31 40-66 0-38-9-64-40-64-56 0-55 130 0 130" id="m"/><path fill="#333" d="M231 0h-52l-39-155L100 0H48L-1-190h46L77-45c9-52 24-97 36-145h53l37 145 32-145h46" id="n"/><path fill="#333" d="M133-34C117-15 103 5 69 4 32 3 11-16 11-54c-1-60 55-63 116-61 1-26-3-47-28-47-18 1-26 9-28 27l-52-2c7-38 36-58 82-57s74 22 75 68l1 82c-1 14 12 18 25 15v27c-30 8-71 5-69-32zm-48 3c29 0 43-24 42-57-32 0-66-3-65 30 0 17 8 27 23 27" id="o"/><path fill="#333" d="M135-150c-39-12-60 13-60 57V0H25l-1-190h47c2 13-1 29 3 40 6-28 27-53 61-41v41" id="p"/><path fill="#333" d="M185-48c-13 30-37 53-82 52C43 2 14-33 14-96s30-98 90-98c62 0 83 45 84 108H66c0 31 8 55 39 56 18 0 30-7 34-22zm-45-69c5-46-57-63-70-21-2 6-4 13-4 21h74" id="q"/><g id="a"><use transform="matrix(0.04938271604938333,0,0,0.04938271604938333,0,0)" xlink:href="#j"/><use transform="matrix(0.04938271604938333,0,0,0.04938271604938333,11.851851851851999,0)" xlink:href="#k"/><use transform="matrix(0.04938271604938333,0,0,0.04938271604938333,22.66666666666695,0)" xlink:href="#l"/><use transform="matrix(0.04938271604938333,0,0,0.04938271604938333,33.4814814814819,0)" xlink:href="#m"/><use transform="matrix(0.04938271604938333,0,0,0.04938271604938333,44.29629629629685,0)" xlink:href="#n"/><use transform="matrix(0.04938271604938333,0,0,0.04938271604938333,58.12345679012418,0)" xlink:href="#o"/><use transform="matrix(0.04938271604938333,0,0,0.04938271604938333,68.00000000000085,0)" xlink:href="#p"/><use transform="matrix(0.04938271604938333,0,0,0.04938271604938333,74.91358024691452,0)" xlink:href="#q"/></g><path fill="#333" d="M199 0l-22-63H83L61 0H9l90-248h61L250 0h-51zm-33-102l-36-108c-10 38-24 72-36 108h72" id="r"/><g id="b"><use transform="matrix(0.04938271604938333,0,0,0.04938271604938333,0,0)" xlink:href="#r"/><use transform="matrix(0.04938271604938333,0,0,0.04938271604938333,12.790123456790283,0)" xlink:href="#m"/><use transform="matrix(0.04938271604938333,0,0,0.04938271604938333,23.604938271605235,0)" xlink:href="#m"/></g><path fill="#333" d="M135-194c52 0 70 43 70 98 0 56-19 99-73 100-30 1-46-15-58-35L72 0H24l1-261h50v104c11-23 29-37 60-37zM114-30c31 0 40-27 40-66 0-37-7-63-39-63s-41 28-41 65c0 36 8 64 40 64" id="s"/><path fill="#333" d="M190-63c-7 42-38 67-86 67-59 0-84-38-90-98-12-110 154-137 174-36l-49 2c-2-19-15-32-35-32-30 0-35 28-38 64-6 74 65 87 74 30" id="t"/><path fill="#333" d="M147 0L96-86 75-71V0H25v-261h50v150l67-79h53l-66 74L201 0h-54" id="u"/><path fill="#333" d="M135-194c87-1 58 113 63 194h-50c-7-57 23-157-34-157-59 0-34 97-39 157H25l-1-190h47c2 12-1 28 3 38 12-26 28-41 61-42" id="v"/><path fill="#333" d="M88-194c31-1 46 15 58 34l-1-101h50l1 261h-48c-2-10 0-23-3-31C134-8 116 4 84 4 32 4 16-41 15-95c0-56 19-97 73-99zm17 164c33 0 40-30 41-66 1-37-9-64-41-64s-38 30-39 65c0 43 13 65 39 65" id="w"/><g id="c"><use transform="matrix(0.04938271604938333,0,0,0.04938271604938333,0,0)" xlink:href="#s"/><use transform="matrix(0.04938271604938333,0,0,0.04938271604938333,10.81481481481495,0)" xlink:href="#o"/><use transform="matrix(0.04938271604938333,0,0,0.04938271604938333,20.691358024691617,0)" xlink:href="#t"/><use transform="matrix(0.04938271604938333,0,0,0.04938271604938333,30.567901234568282,0)" xlink:href="#u"/><use transform="matrix(0.04938271604938333,0,0,0.04938271604938333,40.44444444444495,0)" xlink:href="#q"/><use transform="matrix(0.04938271604938333,0,0,0.04938271604938333,50.32098765432161,0)" xlink:href="#v"/><use transform="matrix(0.04938271604938333,0,0,0.04938271604938333,61.135802469136564,0)" xlink:href="#w"/></g><path fill="#333" d="M128 0H69L1-190h53L99-40l48-150h52" id="x"/><g id="d"><use transform="matrix(0.04938271604938333,0,0,0.04938271604938333,0,0)" xlink:href="#j"/><use transform="matrix(0.04938271604938333,0,0,0.04938271604938333,11.851851851851999,0)" xlink:href="#q"/><use transform="matrix(0.04938271604938333,0,0,0.04938271604938333,21.728395061728666,0)" xlink:href="#p"/><use transform="matrix(0.04938271604938333,0,0,0.04938271604938333,28.641975308642333,0)" xlink:href="#x"/><use transform="matrix(0.04938271604938333,0,0,0.04938271604938333,38.518518518518995,0)" xlink:href="#q"/><use transform="matrix(0.04938271604938333,0,0,0.04938271604938333,48.39506172839566,0)" xlink:href="#p"/></g><path fill="#333" d="M240-174c0 40-23 61-54 70L253 0h-59l-57-94H76V0H24v-248c93 4 217-23 216 74zM76-134c48-2 112 12 112-38 0-48-66-32-112-35v73" id="y"/><path fill="#333" d="M195-6C206 82 75 100 31 46c-4-6-6-13-8-21l49-6c3 16 16 24 34 25 40 0 42-37 40-79-11 22-30 35-61 35-53 0-70-43-70-97 0-56 18-96 73-97 30 0 46 14 59 34l2-30h47zm-90-29c32 0 41-27 41-63 0-35-9-62-40-62-32 0-39 29-40 63 0 36 9 62 39 62" id="z"/><path fill="#333" d="M25-224v-37h50v37H25zM25 0v-190h50V0H25" id="A"/><path fill="#333" d="M137-138c1-29-70-34-71-4 15 46 118 7 119 86 1 83-164 76-172 9l43-7c4 19 20 25 44 25 33 8 57-30 24-41C81-84 22-81 20-136c-2-80 154-74 161-7" id="B"/><path fill="#333" d="M115-3C79 11 28 4 28-45v-112H4v-33h27l15-45h31v45h36v33H77v99c-1 23 16 31 38 25v30" id="C"/><g id="f"><use transform="matrix(0.04938271604938333,0,0,0.04938271604938333,0,0)" xlink:href="#y"/><use transform="matrix(0.04938271604938333,0,0,0.04938271604938333,12.790123456790283,0)" xlink:href="#q"/><use transform="matrix(0.04938271604938333,0,0,0.04938271604938333,22.66666666666695,0)" xlink:href="#z"/><use transform="matrix(0.04938271604938333,0,0,0.04938271604938333,33.4814814814819,0)" xlink:href="#A"/><use transform="matrix(0.04938271604938333,0,0,0.04938271604938333,38.419753086420236,0)" xlink:href="#B"/><use transform="matrix(0.04938271604938333,0,0,0.04938271604938333,48.2962962962969,0)" xlink:href="#C"/><use transform="matrix(0.04938271604938333,0,0,0.04938271604938333,54.17283950617352,0)" xlink:href="#p"/><use transform="matrix(0.04938271604938333,0,0,0.04938271604938333,61.08641975308718,0)" xlink:href="#o"/><use transform="matrix(0.04938271604938333,0,0,0.04938271604938333,70.96296296296386,0)" xlink:href="#C"/><use transform="matrix(0.04938271604938333,0,0,0.04938271604938333,76.83950617284047,0)" xlink:href="#A"/><use transform="matrix(0.04938271604938333,0,0,0.04938271604938333,81.77777777777881,0)" xlink:href="#l"/><use transform="matrix(0.04938271604938333,0,0,0.04938271604938333,92.59259259259376,0)" xlink:href="#v"/></g><path fill="#333" d="M84 4C32 4 15-41 15-95c0-55 18-99 73-99 29 0 47 12 58 34l2-30h48l-1 265h-49V-32C136-9 114 4 84 4zm21-34c32 0 41-29 41-66 0-36-9-64-40-64-33 0-39 30-40 65 0 43 13 65 39 65" id="D"/><path fill="#333" d="M85 4C-2 5 27-109 22-190h50c7 57-23 150 33 157 60-5 35-97 40-157h50l1 190h-47c-2-12 1-28-3-38-12 25-28 42-61 42" id="E"/><g id="g"><use transform="matrix(0.04938271604938333,0,0,0.04938271604938333,0,0)" xlink:href="#y"/><use transform="matrix(0.04938271604938333,0,0,0.04938271604938333,12.790123456790283,0)" xlink:href="#q"/><use transform="matrix(0.04938271604938333,0,0,0.04938271604938333,22.66666666666695,0)" xlink:href="#D"/><use transform="matrix(0.04938271604938333,0,0,0.04938271604938333,33.4814814814819,0)" xlink:href="#E"/><use transform="matrix(0.04938271604938333,0,0,0.04938271604938333,44.29629629629685,0)" xlink:href="#q"/><use transform="matrix(0.04938271604938333,0,0,0.04938271604938333,54.17283950617352,0)" xlink:href="#B"/><use transform="matrix(0.04938271604938333,0,0,0.04938271604938333,64.04938271605019,0)" xlink:href="#C"/></g><g id="h"><use transform="matrix(0.04938271604938333,0,0,0.04938271604938333,0,0)" xlink:href="#y"/><use transform="matrix(0.04938271604938333,0,0,0.04938271604938333,12.790123456790283,0)" xlink:href="#q"/><use transform="matrix(0.04938271604938333,0,0,0.04938271604938333,22.66666666666695,0)" xlink:href="#B"/><use transform="matrix(0.04938271604938333,0,0,0.04938271604938333,32.543209876543614,0)" xlink:href="#m"/><use transform="matrix(0.04938271604938333,0,0,0.04938271604938333,43.358024691358565,0)" xlink:href="#l"/><use transform="matrix(0.04938271604938333,0,0,0.04938271604938333,54.17283950617352,0)" xlink:href="#v"/><use transform="matrix(0.04938271604938333,0,0,0.04938271604938333,64.98765432098847,0)" xlink:href="#B"/><use transform="matrix(0.04938271604938333,0,0,0.04938271604938333,74.86419753086514,0)" xlink:href="#q"/></g><path fill="#333" d="M67-125c0 53 21 87 73 88 37 1 54-22 65-47l45 17C233-25 199 4 140 4 58 4 20-42 15-125 8-235 124-281 211-232c18 10 29 29 36 50l-46 12c-8-25-30-41-62-41-52 0-71 34-72 86" id="F"/><path fill="#333" d="M121-226c-27-7-43 5-38 36h38v33H83V0H34v-157H6v-33h28c-9-59 32-81 87-68v32" id="G"/><path fill="#333" d="M220-157c-53 9-28 100-34 157h-49v-107c1-27-5-49-29-50C55-147 81-57 75 0H25l-1-190h47c2 12-1 28 3 38 10-53 101-56 108 0 13-22 24-43 59-42 82 1 51 116 57 194h-49v-107c-1-25-5-48-29-50" id="H"/><g id="i"><use transform="matrix(0.04938271604938333,0,0,0.04938271604938333,0,0)" xlink:href="#F"/><use transform="matrix(0.04938271604938333,0,0,0.04938271604938333,12.790123456790283,0)" xlink:href="#l"/><use transform="matrix(0.04938271604938333,0,0,0.04938271604938333,23.604938271605235,0)" xlink:href="#v"/><use transform="matrix(0.04938271604938333,0,0,0.04938271604938333,34.41975308642019,0)" xlink:href="#G"/><use transform="matrix(0.04938271604938333,0,0,0.04938271604938333,40.2962962962968,0)" xlink:href="#A"/><use transform="matrix(0.04938271604938333,0,0,0.04938271604938333,45.23456790123514,0)" xlink:href="#p"/><use transform="matrix(0.04938271604938333,0,0,0.04938271604938333,52.148148148148806,0)" xlink:href="#H"/><use transform="matrix(0.04938271604938333,0,0,0.04938271604938333,67.95061728395147,0)" xlink:href="#o"/><use transform="matrix(0.04938271604938333,0,0,0.04938271604938333,77.82716049382815,0)" xlink:href="#C"/><use transform="matrix(0.04938271604938333,0,0,0.04938271604938333,83.70370370370476,0)" xlink:href="#A"/><use transform="matrix(0.04938271604938333,0,0,0.04938271604938333,88.6419753086431,0)" xlink:href="#l"/><use transform="matrix(0.04938271604938333,0,0,0.04938271604938333,99.45679012345805,0)" xlink:href="#v"/></g></defs></g></svg>