<svg xmlns="http://www.w3.org/2000/svg" xmlns:xlink="http://www.w3.org/1999/xlink" xmlns:lucid="lucid" width="1038" height="283"><g transform="translate(-29 -282)" lucid:page-tab-id="0_0"><path d="M180 360h70.07v120.12H180V360z" fill="#189eff"/><path d="M206.74 443.4h35.63c1.12 0 1.12 0 1.12 1.2 0 1.08 0 1.08-1.13 1.08h-35.63c-1.2 0-1.2 0-1.2-1.08 0-1.2 0-1.2 1.2-1.2zM206.8 449.52h35.5c1.54 0 1.54 0 1.54 1.56v.36c0 1.56 0 1.56-1.54 1.56h-35.5c-1.6 0-1.6 0-1.6-1.56v-.36c0-1.56 0-1.56 1.6-1.56zM206.95 457.08h35.56c1.55 0 1.55 0 1.55 1.56v.36c0 1.56 0 1.56-1.54 1.56h-35.55c-1.54 0-1.54 0-1.54-1.56v-.36c0-1.56 0-1.56 1.55-1.56zM239.36 418.32c0 3.12-2.52 5.64-5.74 5.64s-5.8-2.52-5.8-5.64c0-3.12 2.58-5.64 5.8-5.64 3.22 0 5.74 2.52 5.74 5.64z" fill="#fff"/><path d="M237.05 418.32c0 1.92-1.54 3.48-3.5 3.48s-3.57-1.56-3.57-3.48 1.6-3.48 3.57-3.48c1.96 0 3.5 1.56 3.5 3.48z" fill="#46b1ff"/><use xlink:href="#a" transform="matrix(1,0,0,1,150,480) translate(22.604938271604404 18.5555555555556)"/><path d="M820 360h70.07v120.12H820V360z" fill="#189eff"/><path d="M846.74 443.4h35.63c1.12 0 1.12 0 1.12 1.2 0 1.08 0 1.08-1.13 1.08h-35.63c-1.2 0-1.2 0-1.2-1.08 0-1.2 0-1.2 1.2-1.2zM846.8 449.52h35.5c1.54 0 1.54 0 1.54 1.56v.36c0 1.56 0 1.56-1.54 1.56h-35.5c-1.6 0-1.6 0-1.6-1.56v-.36c0-1.56 0-1.56 1.6-1.56zM846.95 457.08h35.56c1.55 0 1.55 0 1.55 1.56v.36c0 1.56 0 1.56-1.54 1.56h-35.55c-1.54 0-1.54 0-1.54-1.56v-.36c0-1.56 0-1.56 1.55-1.56zM879.36 418.32c0 3.12-2.52 5.64-5.74 5.64s-5.8-2.52-5.8-5.64c0-3.12 2.58-5.64 5.8-5.64 3.22 0 5.74 2.52 5.74 5.64z" fill="#fff"/><path d="M877.05 418.32c0 1.92-1.54 3.48-3.5 3.48s-3.57-1.56-3.57-3.48 1.6-3.48 3.57-3.48c1.96 0 3.5 1.56 3.5 3.48z" fill="#46b1ff"/><use xlink:href="#b" transform="matrix(1,0,0,1,790,480) translate(9.34567901234498 14.3888888888888)"/><use xlink:href="#c" transform="matrix(1,0,0,1,790,480) translate(48.7037037037035 14.3888888888888)"/><use xlink:href="#d" transform="matrix(1,0,0,1,790,480) translate(37.345679012345336 35.7222222222224)"/><path d="M653.56 422.46c14.54 6.4 23.94 21.16 23.94 38.05 0 19.37-12.54 35.94-29.92 40.2l-5.7 1.3H435.8c-23.94 0-43.32-20.82-43.32-45.9 0-25.1 19.38-45.94 43.32-45.94 2 0 3.13 0 5.13.5 7.13-12.15 19.38-19.04 33.06-19.04 3.72 0 7.13.5 10.84 1.64v-1.64c0-29.85 22.52-53.63 50.73-53.63 19.38 0 37.33 12.45 45.6 31.15 7.13-4.43 15.4-6.9 23.94-6.9 27.08 0 49.03 23.3 49.03 51.85.28 2.62 0 5.24-.57 8.36z" stroke="#000" stroke-opacity="0" fill="#189eff"/><path d="M495.33 382.33H251.07v-2h244.26zm306.17 0H574.74v-2H801.5z" fill="#333"/><path d="M251.1 382.33h-1.03v-2h1.03zM816.76 381.33l-14.26 4.64v-9.27z" fill="#333"/><path d="M820 381.33l-18.5 6.02v-12.03zm-16.5 3.26l10.03-3.27-10.03-3.26z" fill="#333"/><use xlink:href="#e" transform="matrix(1,0,0,1,495.3312962962959,370.6666666666665) translate(0.005000000000002558 14.222222222222399)"/><path d="M445.33 463.67H268.57v-2h176.76zm373.67 0H624.74v-2H819z"/><path d="M820 463.67h-1.03v-2H820zM267.57 467.3l-14.26-4.63 14.27-4.64z"/><path d="M268.57 468.68l-18.5-6 18.5-6.03zm-12.03-6l10.03 3.25v-6.52z"/><g><use xlink:href="#f" transform="matrix(1,0,0,1,445.33129629629514,451.9999999999999) translate(0.0049999999999954525 14.222222222222399)"/><use xlink:href="#g" transform="matrix(1,0,0,1,445.33129629629514,451.9999999999999) translate(60.10376543209952 14.222222222222399)"/><use xlink:href="#h" transform="matrix(1,0,0,1,445.33129629629514,451.9999999999999) translate(99.5605555555568 14.222222222222399)"/><use xlink:href="#i" transform="matrix(1,0,0,1,445.33129629629514,451.9999999999999) translate(149.83216049382904 14.222222222222399)"/></g><defs><path fill="#333" d="M169-182c-1-43-94-46-97-3 18 66 151 10 154 114 3 95-165 93-204 36-6-8-10-19-12-30l50-8c3 46 112 56 116 5-17-69-150-10-154-114-4-87 153-88 188-35 5 8 8 18 10 28" id="j"/><path fill="#333" d="M114-157C55-157 80-60 75 0H25v-261h50l-1 109c12-26 28-41 61-42 86-1 58 113 63 194h-50c-7-57 23-157-34-157" id="k"/><path fill="#333" d="M110-194c64 0 96 36 96 99 0 64-35 99-97 99-61 0-95-36-95-99 0-62 34-99 96-99zm-1 164c35 0 45-28 45-65 0-40-10-65-43-65-34 0-45 26-45 65 0 36 10 65 43 65" id="l"/><path fill="#333" d="M135-194c53 0 70 44 70 98 0 56-19 98-73 100-31 1-45-17-59-34 3 33 2 69 2 105H25l-1-265h48c2 10 0 23 3 31 11-24 29-35 60-35zM114-30c33 0 39-31 40-66 0-38-9-64-40-64-56 0-55 130 0 130" id="m"/><path fill="#333" d="M231 0h-52l-39-155L100 0H48L-1-190h46L77-45c9-52 24-97 36-145h53l37 145 32-145h46" id="n"/><path fill="#333" d="M133-34C117-15 103 5 69 4 32 3 11-16 11-54c-1-60 55-63 116-61 1-26-3-47-28-47-18 1-26 9-28 27l-52-2c7-38 36-58 82-57s74 22 75 68l1 82c-1 14 12 18 25 15v27c-30 8-71 5-69-32zm-48 3c29 0 43-24 42-57-32 0-66-3-65 30 0 17 8 27 23 27" id="o"/><path fill="#333" d="M135-150c-39-12-60 13-60 57V0H25l-1-190h47c2 13-1 29 3 40 6-28 27-53 61-41v41" id="p"/><path fill="#333" d="M185-48c-13 30-37 53-82 52C43 2 14-33 14-96s30-98 90-98c62 0 83 45 84 108H66c0 31 8 55 39 56 18 0 30-7 34-22zm-45-69c5-46-57-63-70-21-2 6-4 13-4 21h74" id="q"/><g id="a"><use transform="matrix(0.04938271604938333,0,0,0.04938271604938333,0,0)" xlink:href="#j"/><use transform="matrix(0.04938271604938333,0,0,0.04938271604938333,11.851851851851999,0)" xlink:href="#k"/><use transform="matrix(0.04938271604938333,0,0,0.04938271604938333,22.66666666666695,0)" xlink:href="#l"/><use transform="matrix(0.04938271604938333,0,0,0.04938271604938333,33.4814814814819,0)" xlink:href="#m"/><use transform="matrix(0.04938271604938333,0,0,0.04938271604938333,44.29629629629685,0)" xlink:href="#n"/><use transform="matrix(0.04938271604938333,0,0,0.04938271604938333,58.12345679012418,0)" xlink:href="#o"/><use transform="matrix(0.04938271604938333,0,0,0.04938271604938333,68.00000000000085,0)" xlink:href="#p"/><use transform="matrix(0.04938271604938333,0,0,0.04938271604938333,74.91358024691452,0)" xlink:href="#q"/></g><path fill="#333" d="M199 0l-22-63H83L61 0H9l90-248h61L250 0h-51zm-33-102l-36-108c-10 38-24 72-36 108h72" id="r"/><g id="b"><use transform="matrix(0.04938271604938333,0,0,0.04938271604938333,0,0)" xlink:href="#r"/><use transform="matrix(0.04938271604938333,0,0,0.04938271604938333,12.790123456790283,0)" xlink:href="#m"/><use transform="matrix(0.04938271604938333,0,0,0.04938271604938333,23.604938271605235,0)" xlink:href="#m"/></g><path fill="#333" d="M135-194c52 0 70 43 70 98 0 56-19 99-73 100-30 1-46-15-58-35L72 0H24l1-261h50v104c11-23 29-37 60-37zM114-30c31 0 40-27 40-66 0-37-7-63-39-63s-41 28-41 65c0 36 8 64 40 64" id="s"/><path fill="#333" d="M190-63c-7 42-38 67-86 67-59 0-84-38-90-98-12-110 154-137 174-36l-49 2c-2-19-15-32-35-32-30 0-35 28-38 64-6 74 65 87 74 30" id="t"/><path fill="#333" d="M147 0L96-86 75-71V0H25v-261h50v150l67-79h53l-66 74L201 0h-54" id="u"/><path fill="#333" d="M135-194c87-1 58 113 63 194h-50c-7-57 23-157-34-157-59 0-34 97-39 157H25l-1-190h47c2 12-1 28 3 38 12-26 28-41 61-42" id="v"/><path fill="#333" d="M88-194c31-1 46 15 58 34l-1-101h50l1 261h-48c-2-10 0-23-3-31C134-8 116 4 84 4 32 4 16-41 15-95c0-56 19-97 73-99zm17 164c33 0 40-30 41-66 1-37-9-64-41-64s-38 30-39 65c0 43 13 65 39 65" id="w"/><g id="c"><use transform="matrix(0.04938271604938333,0,0,0.04938271604938333,0,0)" xlink:href="#s"/><use transform="matrix(0.04938271604938333,0,0,0.04938271604938333,10.81481481481495,0)" xlink:href="#o"/><use transform="matrix(0.04938271604938333,0,0,0.04938271604938333,20.691358024691617,0)" xlink:href="#t"/><use transform="matrix(0.04938271604938333,0,0,0.04938271604938333,30.567901234568282,0)" xlink:href="#u"/><use transform="matrix(0.04938271604938333,0,0,0.04938271604938333,40.44444444444495,0)" xlink:href="#q"/><use transform="matrix(0.04938271604938333,0,0,0.04938271604938333,50.32098765432161,0)" xlink:href="#v"/><use transform="matrix(0.04938271604938333,0,0,0.04938271604938333,61.135802469136564,0)" xlink:href="#w"/></g><path fill="#333" d="M128 0H69L1-190h53L99-40l48-150h52" id="x"/><g id="d"><use transform="matrix(0.04938271604938333,0,0,0.04938271604938333,0,0)" xlink:href="#j"/><use transform="matrix(0.04938271604938333,0,0,0.04938271604938333,11.851851851851999,0)" xlink:href="#q"/><use transform="matrix(0.04938271604938333,0,0,0.04938271604938333,21.728395061728666,0)" xlink:href="#p"/><use transform="matrix(0.04938271604938333,0,0,0.04938271604938333,28.641975308642333,0)" xlink:href="#x"/><use transform="matrix(0.04938271604938333,0,0,0.04938271604938333,38.518518518518995,0)" xlink:href="#q"/><use transform="matrix(0.04938271604938333,0,0,0.04938271604938333,48.39506172839566,0)" xlink:href="#p"/></g><path fill="#333" d="M275 0h-61l-44-196L126 0H64L0-248h53L97-49l45-199h58l43 199 44-199h52" id="y"/><g id="e"><use transform="matrix(0.04938271604938333,0,0,0.04938271604938333,0,0)" xlink:href="#y"/><use transform="matrix(0.04938271604938333,0,0,0.04938271604938333,16.395061728395266,0)" xlink:href="#q"/><use transform="matrix(0.04938271604938333,0,0,0.04938271604938333,26.27160493827193,0)" xlink:href="#s"/><use transform="matrix(0.04938271604938333,0,0,0.04938271604938333,37.086419753086886,0)" xlink:href="#k"/><use transform="matrix(0.04938271604938333,0,0,0.04938271604938333,47.90123456790184,0)" xlink:href="#l"/><use transform="matrix(0.04938271604938333,0,0,0.04938271604938333,58.71604938271679,0)" xlink:href="#l"/><use transform="matrix(0.04938271604938333,0,0,0.04938271604938333,69.53086419753174,0)" xlink:href="#u"/></g><path fill="#333" d="M220-157c-53 9-28 100-34 157h-49v-107c1-27-5-49-29-50C55-147 81-57 75 0H25l-1-190h47c2 12-1 28 3 38 10-53 101-56 108 0 13-22 24-43 59-42 82 1 51 116 57 194h-49v-107c-1-25-5-48-29-50" id="z"/><path fill="#333" d="M25-224v-37h50v37H25zM25 0v-190h50V0H25" id="A"/><g id="f"><use transform="matrix(0.04938271604938333,0,0,0.04938271604938333,0,0)" xlink:href="#r"/><use transform="matrix(0.04938271604938333,0,0,0.04938271604938333,12.790123456790283,0)" xlink:href="#w"/><use transform="matrix(0.04938271604938333,0,0,0.04938271604938333,23.604938271605235,0)" xlink:href="#z"/><use transform="matrix(0.04938271604938333,0,0,0.04938271604938333,39.4074074074079,0)" xlink:href="#A"/><use transform="matrix(0.04938271604938333,0,0,0.04938271604938333,44.34567901234624,0)" xlink:href="#v"/></g><path fill="#333" d="M24-248c93 1 206-16 204 79-1 75-69 88-152 82V0H24v-248zm52 121c47 0 100 7 100-41 0-47-54-39-100-39v80" id="B"/><path fill="#333" d="M24 0v-248h52V0H24" id="C"/><path fill="#333" d="M76-54c-1 42 2 86-19 110H24C36 42 46 24 48 0H25v-54h51" id="D"/><g id="g"><use transform="matrix(0.04938271604938333,0,0,0.04938271604938333,0,0)" xlink:href="#r"/><use transform="matrix(0.04938271604938333,0,0,0.04938271604938333,12.790123456790283,0)" xlink:href="#B"/><use transform="matrix(0.04938271604938333,0,0,0.04938271604938333,24.64197530864228,0)" xlink:href="#C"/><use transform="matrix(0.04938271604938333,0,0,0.04938271604938333,29.580246913580616,0)" xlink:href="#D"/></g><path fill="#333" d="M115-3C79 11 28 4 28-45v-112H4v-33h27l15-45h31v45h36v33H77v99c-1 23 16 31 38 25v30" id="E"/><g id="h"><use transform="matrix(0.04938271604938333,0,0,0.04938271604938333,0,0)" xlink:href="#j"/><use transform="matrix(0.04938271604938333,0,0,0.04938271604938333,11.851851851851999,0)" xlink:href="#E"/><use transform="matrix(0.04938271604938333,0,0,0.04938271604938333,17.728395061728616,0)" xlink:href="#l"/><use transform="matrix(0.04938271604938333,0,0,0.04938271604938333,28.543209876543564,0)" xlink:href="#p"/><use transform="matrix(0.04938271604938333,0,0,0.04938271604938333,35.45679012345723,0)" xlink:href="#q"/></g><g id="i"><use transform="matrix(0.04938271604938333,0,0,0.04938271604938333,0,0)" xlink:href="#r"/><use transform="matrix(0.04938271604938333,0,0,0.04938271604938333,12.790123456790283,0)" xlink:href="#B"/><use transform="matrix(0.04938271604938333,0,0,0.04938271604938333,24.64197530864228,0)" xlink:href="#C"/></g></defs></g></svg>