<svg width="1249" height="378" viewBox="0 0 1249 378" fill="none" xmlns="http://www.w3.org/2000/svg">
<g clip-path="url(#clip0_398_1480)">
<path d="M1009.71 25.7055C1010.1 25.314 1010.1 24.6808 1009.71 24.2912L1003.33 17.9423C1002.94 17.5527 1002.3 17.5542 1001.91 17.9456C1001.52 18.337 1001.52 18.9702 1001.92 19.3598L1007.59 25.0033L1001.94 30.6735C1001.55 31.0649 1001.55 31.6981 1001.95 32.0877C1002.34 32.4773 1002.97 32.4758 1003.36 32.0844L1009.71 25.7055ZM584.002 27L1009 26L1009 24L583.998 25L584.002 27Z" fill="#B6B9C9"/>
<rect x="1" y="156" width="238" height="50" rx="3" fill="white"/>
<rect x="1" y="156" width="238" height="50" rx="3" stroke="#B6B9C9" stroke-width="2"/>
<path d="M38.8369 186.15C37.611 186.15 36.6312 185.87 35.8975 185.31C35.1683 184.744 34.79 183.922 34.7627 182.842H36.793C36.8294 183.357 37.0345 183.744 37.4082 184.004C37.7865 184.259 38.2559 184.387 38.8164 184.387C39.3724 184.387 39.819 184.268 40.1562 184.031C40.498 183.79 40.6689 183.475 40.6689 183.088C40.6689 182.737 40.514 182.468 40.2041 182.281C39.8988 182.094 39.4681 181.933 38.9121 181.796L37.791 181.516C36.9297 181.306 36.2552 180.978 35.7676 180.531C35.2799 180.08 35.0361 179.485 35.0361 178.747C35.0361 178.132 35.2002 177.594 35.5283 177.134C35.861 176.674 36.3145 176.316 36.8887 176.061C37.4674 175.805 38.126 175.678 38.8643 175.678C39.6162 175.678 40.2725 175.808 40.833 176.067C41.3936 176.323 41.8311 176.68 42.1455 177.141C42.46 177.596 42.6217 178.123 42.6309 178.72H40.6143C40.5778 178.31 40.4023 177.993 40.0879 177.77C39.778 177.546 39.3633 177.435 38.8438 177.435C38.3105 177.435 37.8981 177.546 37.6064 177.77C37.3193 177.988 37.1758 178.269 37.1758 178.61C37.1758 178.989 37.3376 179.271 37.6611 179.458C37.9893 179.645 38.3698 179.791 38.8027 179.896L39.7256 180.121C40.2952 180.253 40.8102 180.445 41.2705 180.695C41.7308 180.941 42.0954 181.263 42.3643 181.659C42.6331 182.051 42.7676 182.532 42.7676 183.102C42.7676 184.027 42.4212 184.767 41.7285 185.323C41.0404 185.875 40.0765 186.15 38.8369 186.15ZM48.0244 178.357V179.923H46.5957V183.765C46.5957 184.239 46.8281 184.476 47.293 184.476C47.3704 184.476 47.4775 184.466 47.6143 184.448C47.7555 184.425 47.8649 184.405 47.9424 184.387L48.2363 185.925C48.0085 185.993 47.7806 186.041 47.5527 186.068C47.3294 186.096 47.1152 186.109 46.9102 186.109C46.1445 186.109 45.5589 185.925 45.1533 185.556C44.7477 185.182 44.5449 184.644 44.5449 183.942V179.923H43.4922V178.357H44.5449V176.539H46.5957V178.357H48.0244ZM52.6387 186.15C51.873 186.15 51.21 185.986 50.6494 185.658C50.0889 185.326 49.6559 184.865 49.3506 184.277C49.0498 183.685 48.8994 182.997 48.8994 182.213C48.8994 181.424 49.0498 180.734 49.3506 180.142C49.6559 179.549 50.0889 179.089 50.6494 178.761C51.21 178.428 51.873 178.262 52.6387 178.262C53.4043 178.262 54.0674 178.428 54.6279 178.761C55.1885 179.089 55.6191 179.549 55.9199 180.142C56.2253 180.734 56.3779 181.424 56.3779 182.213C56.3779 182.997 56.2253 183.685 55.9199 184.277C55.6191 184.865 55.1885 185.326 54.6279 185.658C54.0674 185.986 53.4043 186.15 52.6387 186.15ZM52.6387 184.537C53.1855 184.537 53.598 184.316 53.876 183.874C54.154 183.432 54.293 182.876 54.293 182.206C54.293 181.532 54.154 180.976 53.876 180.538C53.598 180.096 53.1855 179.875 52.6387 179.875C52.0918 179.875 51.6794 180.096 51.4014 180.538C51.1279 180.976 50.9912 181.532 50.9912 182.206C50.9912 182.876 51.1279 183.432 51.4014 183.874C51.6794 184.316 52.0918 184.537 52.6387 184.537ZM57.8066 186V178.357H59.7891V179.69H59.8711C60.0124 179.221 60.2471 178.866 60.5752 178.624C60.9079 178.378 61.2884 178.255 61.7168 178.255C61.9492 178.255 62.1702 178.278 62.3799 178.323V180.155C62.2887 180.128 62.1543 180.105 61.9766 180.087C61.8034 180.064 61.6416 180.053 61.4912 180.053C61.0173 180.053 60.6253 180.201 60.3154 180.497C60.0101 180.793 59.8574 181.178 59.8574 181.652V186H57.8066ZM66.6182 186.15C65.8389 186.15 65.1667 185.991 64.6016 185.672C64.0365 185.353 63.6012 184.899 63.2959 184.312C62.9951 183.724 62.8447 183.026 62.8447 182.22C62.8447 181.431 62.9951 180.741 63.2959 180.148C63.6012 179.556 64.0273 179.093 64.5742 178.761C65.1257 178.428 65.7728 178.262 66.5156 178.262C67.181 178.262 67.7848 178.403 68.3271 178.686C68.8695 178.968 69.3001 179.396 69.6191 179.971C69.9427 180.545 70.1045 181.267 70.1045 182.138V182.712H64.875C64.8978 183.336 65.071 183.808 65.3945 184.127C65.7181 184.446 66.1374 184.605 66.6523 184.605C67.0124 184.605 67.32 184.53 67.5752 184.38C67.835 184.225 68.0195 183.999 68.1289 183.703L69.9883 184.052C69.8014 184.685 69.4141 185.193 68.8262 185.576C68.2428 185.959 67.5068 186.15 66.6182 186.15ZM64.8887 181.427H68.1289C68.0788 180.93 67.9193 180.536 67.6504 180.244C67.3815 179.952 67.0101 179.807 66.5361 179.807C66.0439 179.807 65.6566 179.959 65.374 180.265C65.0915 180.565 64.9297 180.953 64.8887 181.427ZM75.7578 178.357V179.923H74.1582V186H72.1143V179.923H70.7676V178.357H72.1143V177.77C72.1143 176.958 72.3512 176.35 72.8252 175.944C73.2992 175.539 73.8893 175.336 74.5957 175.336C74.9193 175.336 75.2132 175.361 75.4775 175.411C75.7419 175.461 75.9378 175.507 76.0654 175.548L75.6963 177.093C75.6143 177.07 75.5117 177.047 75.3887 177.024C75.2702 177.002 75.1449 176.99 75.0127 176.99C74.6982 176.99 74.4772 177.065 74.3496 177.216C74.222 177.362 74.1582 177.569 74.1582 177.838V178.357H75.7578ZM77.084 186V178.357H79.0664V179.69H79.1484C79.2897 179.221 79.5244 178.866 79.8525 178.624C80.1852 178.378 80.5658 178.255 80.9941 178.255C81.2266 178.255 81.4476 178.278 81.6572 178.323V180.155C81.5661 180.128 81.4316 180.105 81.2539 180.087C81.0807 180.064 80.9189 180.053 80.7686 180.053C80.2946 180.053 79.9027 180.201 79.5928 180.497C79.2874 180.793 79.1348 181.178 79.1348 181.652V186H77.084ZM85.8613 186.15C85.0957 186.15 84.4326 185.986 83.8721 185.658C83.3115 185.326 82.8786 184.865 82.5732 184.277C82.2725 183.685 82.1221 182.997 82.1221 182.213C82.1221 181.424 82.2725 180.734 82.5732 180.142C82.8786 179.549 83.3115 179.089 83.8721 178.761C84.4326 178.428 85.0957 178.262 85.8613 178.262C86.627 178.262 87.29 178.428 87.8506 178.761C88.4111 179.089 88.8418 179.549 89.1426 180.142C89.4479 180.734 89.6006 181.424 89.6006 182.213C89.6006 182.997 89.4479 183.685 89.1426 184.277C88.8418 184.865 88.4111 185.326 87.8506 185.658C87.29 185.986 86.627 186.15 85.8613 186.15ZM85.8613 184.537C86.4082 184.537 86.8206 184.316 87.0986 183.874C87.3766 183.432 87.5156 182.876 87.5156 182.206C87.5156 181.532 87.3766 180.976 87.0986 180.538C86.8206 180.096 86.4082 179.875 85.8613 179.875C85.3145 179.875 84.902 180.096 84.624 180.538C84.3506 180.976 84.2139 181.532 84.2139 182.206C84.2139 182.876 84.3506 183.432 84.624 183.874C84.902 184.316 85.3145 184.537 85.8613 184.537ZM93.0801 181.577V186H91.0293V178.357H92.9639L92.9912 179.937C93.2054 179.403 93.5085 178.991 93.9004 178.699C94.2923 178.408 94.7822 178.262 95.3701 178.262C96.1631 178.262 96.7988 178.517 97.2773 179.027C97.7559 179.538 97.9951 180.242 97.9951 181.14V186H95.9443V181.495C95.9443 181.021 95.8213 180.65 95.5752 180.381C95.3337 180.112 94.9964 179.978 94.5635 179.978C94.126 179.978 93.7682 180.119 93.4902 180.401C93.2168 180.679 93.0801 181.071 93.0801 181.577ZM103.546 178.357V179.923H102.117V183.765C102.117 184.239 102.35 184.476 102.814 184.476C102.892 184.476 102.999 184.466 103.136 184.448C103.277 184.425 103.386 184.405 103.464 184.387L103.758 185.925C103.53 185.993 103.302 186.041 103.074 186.068C102.851 186.096 102.637 186.109 102.432 186.109C101.666 186.109 101.08 185.925 100.675 185.556C100.269 185.182 100.066 184.644 100.066 183.942V179.923H99.0137V178.357H100.066V176.539H102.117V178.357H103.546ZM104.339 186L107.818 175.814H110.553L114.121 186H111.804L111.018 183.635H107.401L106.643 186H104.339ZM107.921 182.001H110.478L110.17 181.085C110.006 180.565 109.842 180.003 109.678 179.396C109.514 178.79 109.343 178.141 109.165 177.448C108.996 178.15 108.835 178.804 108.68 179.41C108.525 180.016 108.37 180.575 108.215 181.085L107.921 182.001ZM117.97 186.096C117.177 186.096 116.539 185.84 116.056 185.33C115.577 184.82 115.338 184.116 115.338 183.218V178.357H117.389V182.862C117.389 183.336 117.512 183.708 117.758 183.977C118.004 184.245 118.341 184.38 118.77 184.38C119.207 184.38 119.562 184.241 119.836 183.963C120.114 183.68 120.253 183.286 120.253 182.78V178.357H122.311V186H120.369L120.342 184.414C120.128 184.956 119.822 185.373 119.426 185.665C119.034 185.952 118.549 186.096 117.97 186.096ZM127.854 178.357V179.923H126.426V183.765C126.426 184.239 126.658 184.476 127.123 184.476C127.201 184.476 127.308 184.466 127.444 184.448C127.586 184.425 127.695 184.405 127.772 184.387L128.066 185.925C127.839 185.993 127.611 186.041 127.383 186.068C127.16 186.096 126.945 186.109 126.74 186.109C125.975 186.109 125.389 185.925 124.983 185.556C124.578 185.182 124.375 184.644 124.375 183.942V179.923H123.322V178.357H124.375V176.539H126.426V178.357H127.854ZM131.279 181.577V186H129.229V175.814H131.238V179.82C131.462 179.324 131.765 178.941 132.147 178.672C132.53 178.398 133.004 178.262 133.569 178.262C134.362 178.262 134.998 178.517 135.477 179.027C135.96 179.538 136.201 180.242 136.201 181.14V186H134.144V181.495C134.144 181.021 134.021 180.65 133.774 180.381C133.533 180.112 133.196 179.978 132.763 179.978C132.325 179.978 131.967 180.119 131.689 180.401C131.416 180.679 131.279 181.071 131.279 181.577ZM141.403 186.15C140.624 186.15 139.952 185.991 139.387 185.672C138.822 185.353 138.386 184.899 138.081 184.312C137.78 183.724 137.63 183.026 137.63 182.22C137.63 181.431 137.78 180.741 138.081 180.148C138.386 179.556 138.812 179.093 139.359 178.761C139.911 178.428 140.558 178.262 141.301 178.262C141.966 178.262 142.57 178.403 143.112 178.686C143.655 178.968 144.085 179.396 144.404 179.971C144.728 180.545 144.89 181.267 144.89 182.138V182.712H139.66C139.683 183.336 139.856 183.808 140.18 184.127C140.503 184.446 140.923 184.605 141.438 184.605C141.798 184.605 142.105 184.53 142.36 184.38C142.62 184.225 142.805 183.999 142.914 183.703L144.773 184.052C144.587 184.685 144.199 185.193 143.611 185.576C143.028 185.959 142.292 186.15 141.403 186.15ZM139.674 181.427H142.914C142.864 180.93 142.704 180.536 142.436 180.244C142.167 179.952 141.795 179.807 141.321 179.807C140.829 179.807 140.442 179.959 140.159 180.265C139.877 180.565 139.715 180.953 139.674 181.427ZM148.342 181.577V186H146.291V178.357H148.226L148.253 179.937C148.467 179.403 148.77 178.991 149.162 178.699C149.554 178.408 150.044 178.262 150.632 178.262C151.425 178.262 152.061 178.517 152.539 179.027C153.018 179.538 153.257 180.242 153.257 181.14V186H151.206V181.495C151.206 181.021 151.083 180.65 150.837 180.381C150.595 180.112 150.258 179.978 149.825 179.978C149.388 179.978 149.03 180.119 148.752 180.401C148.479 180.679 148.342 181.071 148.342 181.577ZM158.808 178.357V179.923H157.379V183.765C157.379 184.239 157.611 184.476 158.076 184.476C158.154 184.476 158.261 184.466 158.397 184.448C158.539 184.425 158.648 184.405 158.726 184.387L159.02 185.925C158.792 185.993 158.564 186.041 158.336 186.068C158.113 186.096 157.898 186.109 157.693 186.109C156.928 186.109 156.342 185.925 155.937 185.556C155.531 185.182 155.328 184.644 155.328 183.942V179.923H154.275V178.357H155.328V176.539H157.379V178.357H158.808ZM160.141 186V178.357H162.191V186H160.141ZM161.166 177.359C160.856 177.359 160.592 177.257 160.373 177.052C160.154 176.847 160.045 176.598 160.045 176.307C160.045 176.015 160.154 175.767 160.373 175.562C160.592 175.356 160.856 175.254 161.166 175.254C161.476 175.254 161.74 175.356 161.959 175.562C162.182 175.767 162.294 176.015 162.294 176.307C162.294 176.598 162.182 176.847 161.959 177.052C161.74 177.257 161.476 177.359 161.166 177.359ZM167.359 186.15C166.589 186.15 165.924 185.986 165.363 185.658C164.807 185.326 164.377 184.865 164.071 184.277C163.771 183.685 163.62 182.997 163.62 182.213C163.62 181.424 163.771 180.734 164.071 180.142C164.377 179.549 164.807 179.089 165.363 178.761C165.924 178.428 166.589 178.262 167.359 178.262C168.266 178.262 169.023 178.49 169.629 178.945C170.235 179.396 170.611 180.016 170.757 180.805L168.85 181.16C168.763 180.764 168.594 180.451 168.344 180.224C168.098 179.991 167.776 179.875 167.38 179.875C166.833 179.875 166.418 180.091 166.136 180.524C165.853 180.953 165.712 181.513 165.712 182.206C165.712 182.89 165.853 183.45 166.136 183.888C166.418 184.321 166.833 184.537 167.38 184.537C167.776 184.537 168.102 184.419 168.357 184.182C168.613 183.94 168.781 183.614 168.863 183.204L170.771 183.553C170.625 184.359 170.249 184.995 169.643 185.46C169.036 185.92 168.275 186.15 167.359 186.15ZM174.455 186.15C173.726 186.15 173.12 185.959 172.637 185.576C172.154 185.189 171.912 184.617 171.912 183.86C171.912 183.291 172.049 182.844 172.322 182.521C172.596 182.197 172.951 181.96 173.389 181.81C173.826 181.659 174.296 181.561 174.797 181.516C175.453 181.452 175.925 181.386 176.212 181.317C176.504 181.244 176.649 181.083 176.649 180.832V180.798C176.649 180.474 176.545 180.224 176.335 180.046C176.13 179.868 175.836 179.779 175.453 179.779C175.057 179.779 174.738 179.866 174.496 180.039C174.255 180.208 174.093 180.415 174.011 180.661L172.131 180.347C172.327 179.686 172.716 179.173 173.3 178.809C173.888 178.444 174.608 178.262 175.46 178.262C176.007 178.262 176.526 178.348 177.019 178.521C177.515 178.695 177.919 178.973 178.229 179.355C178.543 179.734 178.7 180.233 178.7 180.853V186H176.759V184.94H176.69C176.504 185.296 176.226 185.588 175.856 185.815C175.487 186.039 175.02 186.15 174.455 186.15ZM175.036 184.708C175.515 184.708 175.904 184.569 176.205 184.291C176.51 184.013 176.663 183.671 176.663 183.266V182.438C176.581 182.498 176.447 182.55 176.26 182.596C176.077 182.637 175.884 182.675 175.679 182.712C175.474 182.744 175.296 182.769 175.146 182.787C174.767 182.842 174.462 182.949 174.229 183.108C173.997 183.268 173.881 183.5 173.881 183.806C173.881 184.102 173.988 184.327 174.202 184.482C174.421 184.633 174.699 184.708 175.036 184.708ZM184.251 178.357V179.923H182.822V183.765C182.822 184.239 183.055 184.476 183.52 184.476C183.597 184.476 183.704 184.466 183.841 184.448C183.982 184.425 184.091 184.405 184.169 184.387L184.463 185.925C184.235 185.993 184.007 186.041 183.779 186.068C183.556 186.096 183.342 186.109 183.137 186.109C182.371 186.109 181.785 185.925 181.38 185.556C180.974 185.182 180.771 184.644 180.771 183.942V179.923H179.719V178.357H180.771V176.539H182.822V178.357H184.251ZM185.584 186V178.357H187.635V186H185.584ZM186.609 177.359C186.299 177.359 186.035 177.257 185.816 177.052C185.598 176.847 185.488 176.598 185.488 176.307C185.488 176.015 185.598 175.767 185.816 175.562C186.035 175.356 186.299 175.254 186.609 175.254C186.919 175.254 187.184 175.356 187.402 175.562C187.626 175.767 187.737 176.015 187.737 176.307C187.737 176.598 187.626 176.847 187.402 177.052C187.184 177.257 186.919 177.359 186.609 177.359ZM192.803 186.15C192.037 186.15 191.374 185.986 190.813 185.658C190.253 185.326 189.82 184.865 189.515 184.277C189.214 183.685 189.063 182.997 189.063 182.213C189.063 181.424 189.214 180.734 189.515 180.142C189.82 179.549 190.253 179.089 190.813 178.761C191.374 178.428 192.037 178.262 192.803 178.262C193.568 178.262 194.231 178.428 194.792 178.761C195.353 179.089 195.783 179.549 196.084 180.142C196.389 180.734 196.542 181.424 196.542 182.213C196.542 182.997 196.389 183.685 196.084 184.277C195.783 184.865 195.353 185.326 194.792 185.658C194.231 185.986 193.568 186.15 192.803 186.15ZM192.803 184.537C193.35 184.537 193.762 184.316 194.04 183.874C194.318 183.432 194.457 182.876 194.457 182.206C194.457 181.532 194.318 180.976 194.04 180.538C193.762 180.096 193.35 179.875 192.803 179.875C192.256 179.875 191.843 180.096 191.565 180.538C191.292 180.976 191.155 181.532 191.155 182.206C191.155 182.876 191.292 183.432 191.565 183.874C191.843 184.316 192.256 184.537 192.803 184.537ZM200.021 181.577V186H197.971V178.357H199.905L199.933 179.937C200.147 179.403 200.45 178.991 200.842 178.699C201.234 178.408 201.724 178.262 202.312 178.262C203.104 178.262 203.74 178.517 204.219 179.027C204.697 179.538 204.937 180.242 204.937 181.14V186H202.886V181.495C202.886 181.021 202.763 180.65 202.517 180.381C202.275 180.112 201.938 179.978 201.505 179.978C201.067 179.978 200.71 180.119 200.432 180.401C200.158 180.679 200.021 181.071 200.021 181.577Z" fill="#12141E"/>
<rect x="345" y="1" width="238" height="50" rx="3" fill="white"/>
<rect x="345" y="1" width="238" height="50" rx="3" stroke="#B6B9C9" stroke-width="2"/>
<path d="M450.048 31V20.8145H454.02C455.177 20.8145 456.073 21.1175 456.706 21.7236C457.344 22.3252 457.663 23.1273 457.663 24.1299C457.663 24.8271 457.508 25.4242 457.198 25.9209C456.888 26.4131 456.442 26.7822 455.858 27.0283L458.025 31H455.715L453.773 27.3633H452.133V31H450.048ZM452.133 25.6748H453.637C454.885 25.6748 455.51 25.1598 455.51 24.1299C455.51 23.6149 455.355 23.2207 455.045 22.9473C454.74 22.6738 454.268 22.5371 453.63 22.5371H452.133V25.6748ZM462.441 31.1504C461.676 31.1504 461.013 30.9863 460.452 30.6582C459.892 30.3255 459.459 29.8652 459.153 29.2773C458.853 28.6849 458.702 27.9967 458.702 27.2129C458.702 26.4245 458.853 25.734 459.153 25.1416C459.459 24.5492 459.892 24.0889 460.452 23.7607C461.013 23.4281 461.676 23.2617 462.441 23.2617C463.207 23.2617 463.87 23.4281 464.431 23.7607C464.991 24.0889 465.422 24.5492 465.723 25.1416C466.028 25.734 466.181 26.4245 466.181 27.2129C466.181 27.9967 466.028 28.6849 465.723 29.2773C465.422 29.8652 464.991 30.3255 464.431 30.6582C463.87 30.9863 463.207 31.1504 462.441 31.1504ZM462.441 29.5371C462.988 29.5371 463.401 29.3161 463.679 28.874C463.957 28.432 464.096 27.876 464.096 27.2061C464.096 26.5316 463.957 25.9756 463.679 25.5381C463.401 25.096 462.988 24.875 462.441 24.875C461.895 24.875 461.482 25.096 461.204 25.5381C460.931 25.9756 460.794 26.5316 460.794 27.2061C460.794 27.876 460.931 28.432 461.204 28.874C461.482 29.3161 461.895 29.5371 462.441 29.5371ZM469.66 20.8145V31H467.609V20.8145H469.66ZM474.862 31.1504C474.083 31.1504 473.411 30.9909 472.846 30.6719C472.281 30.3529 471.845 29.8994 471.54 29.3115C471.239 28.7236 471.089 28.0264 471.089 27.2197C471.089 26.4313 471.239 25.7409 471.54 25.1484C471.845 24.556 472.271 24.0934 472.818 23.7607C473.37 23.4281 474.017 23.2617 474.76 23.2617C475.425 23.2617 476.029 23.403 476.571 23.6855C477.114 23.9681 477.544 24.3965 477.863 24.9707C478.187 25.5449 478.349 26.2673 478.349 27.1377V27.7119H473.119C473.142 28.3363 473.315 28.8079 473.639 29.127C473.962 29.446 474.382 29.6055 474.896 29.6055C475.257 29.6055 475.564 29.5303 475.819 29.3799C476.079 29.2249 476.264 28.9993 476.373 28.7031L478.232 29.0518C478.046 29.6852 477.658 30.1934 477.07 30.5762C476.487 30.959 475.751 31.1504 474.862 31.1504ZM473.133 26.4268H476.373C476.323 25.93 476.163 25.5358 475.895 25.2441C475.626 24.9525 475.254 24.8066 474.78 24.8066C474.288 24.8066 473.901 24.9593 473.618 25.2646C473.336 25.5654 473.174 25.9528 473.133 26.4268Z" fill="#12141E"/>
<rect x="345" y="156" width="238" height="50" rx="3" fill="white"/>
<rect x="345" y="156" width="238" height="50" rx="3" stroke="#B6B9C9" stroke-width="2"/>
<path d="M445.222 186H441.64V175.814H445.256C446.277 175.814 447.154 176.02 447.888 176.43C448.626 176.835 449.193 177.419 449.59 178.18C449.986 178.936 450.185 179.843 450.185 180.9C450.185 181.962 449.986 182.874 449.59 183.635C449.193 184.396 448.624 184.981 447.881 185.392C447.138 185.797 446.252 186 445.222 186ZM443.725 184.202H445.119C446.099 184.202 446.842 183.938 447.348 183.409C447.854 182.881 448.106 182.044 448.106 180.9C448.106 179.761 447.854 178.929 447.348 178.405C446.846 177.877 446.108 177.612 445.133 177.612H443.725V184.202ZM455.161 186.15C454.382 186.15 453.71 185.991 453.145 185.672C452.579 185.353 452.144 184.899 451.839 184.312C451.538 183.724 451.388 183.026 451.388 182.22C451.388 181.431 451.538 180.741 451.839 180.148C452.144 179.556 452.57 179.093 453.117 178.761C453.669 178.428 454.316 178.262 455.059 178.262C455.724 178.262 456.328 178.403 456.87 178.686C457.412 178.968 457.843 179.396 458.162 179.971C458.486 180.545 458.647 181.267 458.647 182.138V182.712H453.418C453.441 183.336 453.614 183.808 453.938 184.127C454.261 184.446 454.68 184.605 455.195 184.605C455.555 184.605 455.863 184.53 456.118 184.38C456.378 184.225 456.562 183.999 456.672 183.703L458.531 184.052C458.344 184.685 457.957 185.193 457.369 185.576C456.786 185.959 456.05 186.15 455.161 186.15ZM453.432 181.427H456.672C456.622 180.93 456.462 180.536 456.193 180.244C455.924 179.952 455.553 179.807 455.079 179.807C454.587 179.807 454.2 179.959 453.917 180.265C453.634 180.565 453.473 180.953 453.432 181.427ZM464.328 186.13C463.913 186.13 463.562 186.059 463.275 185.918C462.988 185.777 462.754 185.604 462.571 185.398C462.394 185.189 462.257 184.981 462.161 184.776H462.065V186H460.049V175.814H462.1V179.643H462.161C462.252 179.442 462.384 179.235 462.558 179.021C462.735 178.806 462.968 178.626 463.255 178.48C463.547 178.335 463.909 178.262 464.342 178.262C464.907 178.262 465.424 178.408 465.894 178.699C466.363 178.991 466.737 179.428 467.015 180.012C467.297 180.595 467.438 181.322 467.438 182.192C467.438 183.04 467.302 183.758 467.028 184.346C466.755 184.929 466.383 185.373 465.914 185.679C465.445 185.979 464.916 186.13 464.328 186.13ZM463.699 184.482C464.232 184.482 464.638 184.268 464.916 183.84C465.199 183.411 465.34 182.86 465.34 182.186C465.34 181.516 465.201 180.969 464.923 180.545C464.645 180.117 464.237 179.902 463.699 179.902C463.171 179.902 462.763 180.11 462.476 180.524C462.193 180.939 462.052 181.493 462.052 182.186C462.052 182.878 462.195 183.434 462.482 183.854C462.77 184.273 463.175 184.482 463.699 184.482ZM472.675 178.357V179.923H471.246V183.765C471.246 184.239 471.479 184.476 471.943 184.476C472.021 184.476 472.128 184.466 472.265 184.448C472.406 184.425 472.515 184.405 472.593 184.387L472.887 185.925C472.659 185.993 472.431 186.041 472.203 186.068C471.98 186.096 471.766 186.109 471.561 186.109C470.795 186.109 470.209 185.925 469.804 185.556C469.398 185.182 469.195 184.644 469.195 183.942V179.923H468.143V178.357H469.195V176.539H471.246V178.357H472.675ZM477.289 186.15C476.523 186.15 475.86 185.986 475.3 185.658C474.739 185.326 474.306 184.865 474.001 184.277C473.7 183.685 473.55 182.997 473.55 182.213C473.55 181.424 473.7 180.734 474.001 180.142C474.306 179.549 474.739 179.089 475.3 178.761C475.86 178.428 476.523 178.262 477.289 178.262C478.055 178.262 478.718 178.428 479.278 178.761C479.839 179.089 480.27 179.549 480.57 180.142C480.876 180.734 481.028 181.424 481.028 182.213C481.028 182.997 480.876 183.685 480.57 184.277C480.27 184.865 479.839 185.326 479.278 185.658C478.718 185.986 478.055 186.15 477.289 186.15ZM477.289 184.537C477.836 184.537 478.248 184.316 478.526 183.874C478.804 183.432 478.943 182.876 478.943 182.206C478.943 181.532 478.804 180.976 478.526 180.538C478.248 180.096 477.836 179.875 477.289 179.875C476.742 179.875 476.33 180.096 476.052 180.538C475.778 180.976 475.642 181.532 475.642 182.206C475.642 182.876 475.778 183.432 476.052 183.874C476.33 184.316 476.742 184.537 477.289 184.537ZM482.457 186V178.357H484.439V179.69H484.521C484.663 179.221 484.897 178.866 485.226 178.624C485.558 178.378 485.939 178.255 486.367 178.255C486.6 178.255 486.821 178.278 487.03 178.323V180.155C486.939 180.128 486.805 180.105 486.627 180.087C486.454 180.064 486.292 180.053 486.142 180.053C485.668 180.053 485.276 180.201 484.966 180.497C484.66 180.793 484.508 181.178 484.508 181.652V186H482.457Z" fill="#12141E"/>
<rect x="689" y="157" width="238" height="50" rx="3" fill="white"/>
<rect x="689" y="157" width="238" height="50" rx="3" stroke="#B6B9C9" stroke-width="2"/>
<path d="M786.187 187.137C785.28 187.137 784.471 186.932 783.76 186.521C783.049 186.111 782.486 185.517 782.071 184.737C781.661 183.958 781.456 183.017 781.456 181.914C781.456 180.807 781.663 179.863 782.078 179.084C782.493 178.3 783.058 177.703 783.773 177.293C784.489 176.883 785.293 176.678 786.187 176.678C786.957 176.678 787.654 176.821 788.278 177.108C788.903 177.391 789.415 177.803 789.816 178.346C790.217 178.883 790.468 179.533 790.568 180.294H788.456C788.36 179.743 788.11 179.312 787.704 179.002C787.303 178.688 786.811 178.53 786.228 178.53C785.435 178.53 784.794 178.824 784.307 179.412C783.819 180 783.575 180.834 783.575 181.914C783.575 183.017 783.819 183.855 784.307 184.43C784.799 184.999 785.437 185.284 786.221 185.284C786.799 185.284 787.292 185.129 787.697 184.819C788.107 184.505 788.363 184.07 788.463 183.514H790.575C790.498 184.147 790.274 184.74 789.905 185.291C789.536 185.838 789.037 186.282 788.408 186.624C787.784 186.966 787.043 187.137 786.187 187.137ZM795.47 187.15C794.704 187.15 794.041 186.986 793.48 186.658C792.92 186.326 792.487 185.865 792.182 185.277C791.881 184.685 791.73 183.997 791.73 183.213C791.73 182.424 791.881 181.734 792.182 181.142C792.487 180.549 792.92 180.089 793.48 179.761C794.041 179.428 794.704 179.262 795.47 179.262C796.235 179.262 796.898 179.428 797.459 179.761C798.02 180.089 798.45 180.549 798.751 181.142C799.056 181.734 799.209 182.424 799.209 183.213C799.209 183.997 799.056 184.685 798.751 185.277C798.45 185.865 798.02 186.326 797.459 186.658C796.898 186.986 796.235 187.15 795.47 187.15ZM795.47 185.537C796.017 185.537 796.429 185.316 796.707 184.874C796.985 184.432 797.124 183.876 797.124 183.206C797.124 182.532 796.985 181.976 796.707 181.538C796.429 181.096 796.017 180.875 795.47 180.875C794.923 180.875 794.51 181.096 794.232 181.538C793.959 181.976 793.822 182.532 793.822 183.206C793.822 183.876 793.959 184.432 794.232 184.874C794.51 185.316 794.923 185.537 795.47 185.537ZM802.688 182.577V187H800.638V179.357H802.572L802.6 180.937C802.814 180.403 803.117 179.991 803.509 179.699C803.901 179.408 804.391 179.262 804.979 179.262C805.771 179.262 806.407 179.517 806.886 180.027C807.364 180.538 807.604 181.242 807.604 182.14V187H805.553V182.495C805.553 182.021 805.43 181.65 805.184 181.381C804.942 181.112 804.605 180.978 804.172 180.978C803.734 180.978 803.377 181.119 803.099 181.401C802.825 181.679 802.688 182.071 802.688 182.577ZM813.154 179.357V180.923H811.726V184.765C811.726 185.239 811.958 185.476 812.423 185.476C812.5 185.476 812.607 185.466 812.744 185.448C812.885 185.425 812.995 185.405 813.072 185.387L813.366 186.925C813.138 186.993 812.91 187.041 812.683 187.068C812.459 187.096 812.245 187.109 812.04 187.109C811.274 187.109 810.689 186.925 810.283 186.556C809.878 186.182 809.675 185.644 809.675 184.942V180.923H808.622V179.357H809.675V177.539H811.726V179.357H813.154ZM816.688 187.15C815.959 187.15 815.353 186.959 814.87 186.576C814.387 186.189 814.146 185.617 814.146 184.86C814.146 184.291 814.282 183.844 814.556 183.521C814.829 183.197 815.185 182.96 815.622 182.81C816.06 182.659 816.529 182.561 817.03 182.516C817.687 182.452 818.158 182.386 818.445 182.317C818.737 182.244 818.883 182.083 818.883 181.832V181.798C818.883 181.474 818.778 181.224 818.568 181.046C818.363 180.868 818.069 180.779 817.687 180.779C817.29 180.779 816.971 180.866 816.729 181.039C816.488 181.208 816.326 181.415 816.244 181.661L814.364 181.347C814.56 180.686 814.95 180.173 815.533 179.809C816.121 179.444 816.841 179.262 817.693 179.262C818.24 179.262 818.76 179.348 819.252 179.521C819.749 179.695 820.152 179.973 820.462 180.355C820.776 180.734 820.934 181.233 820.934 181.853V187H818.992V185.94H818.924C818.737 186.296 818.459 186.588 818.09 186.815C817.721 187.039 817.254 187.15 816.688 187.15ZM817.27 185.708C817.748 185.708 818.138 185.569 818.438 185.291C818.744 185.013 818.896 184.671 818.896 184.266V183.438C818.814 183.498 818.68 183.55 818.493 183.596C818.311 183.637 818.117 183.675 817.912 183.712C817.707 183.744 817.529 183.769 817.379 183.787C817.001 183.842 816.695 183.949 816.463 184.108C816.23 184.268 816.114 184.5 816.114 184.806C816.114 185.102 816.221 185.327 816.436 185.482C816.654 185.633 816.932 185.708 817.27 185.708ZM826.108 187.15C825.338 187.15 824.673 186.986 824.112 186.658C823.556 186.326 823.126 185.865 822.82 185.277C822.52 184.685 822.369 183.997 822.369 183.213C822.369 182.424 822.52 181.734 822.82 181.142C823.126 180.549 823.556 180.089 824.112 179.761C824.673 179.428 825.338 179.262 826.108 179.262C827.015 179.262 827.772 179.49 828.378 179.945C828.984 180.396 829.36 181.016 829.506 181.805L827.599 182.16C827.512 181.764 827.343 181.451 827.093 181.224C826.847 180.991 826.525 180.875 826.129 180.875C825.582 180.875 825.167 181.091 824.885 181.524C824.602 181.953 824.461 182.513 824.461 183.206C824.461 183.89 824.602 184.45 824.885 184.888C825.167 185.321 825.582 185.537 826.129 185.537C826.525 185.537 826.851 185.419 827.106 185.182C827.362 184.94 827.53 184.614 827.612 184.204L829.52 184.553C829.374 185.359 828.998 185.995 828.392 186.46C827.785 186.92 827.024 187.15 826.108 187.15ZM834.729 179.357V180.923H833.3V184.765C833.3 185.239 833.532 185.476 833.997 185.476C834.075 185.476 834.182 185.466 834.318 185.448C834.46 185.425 834.569 185.405 834.646 185.387L834.94 186.925C834.713 186.993 834.485 187.041 834.257 187.068C834.034 187.096 833.819 187.109 833.614 187.109C832.849 187.109 832.263 186.925 831.857 186.556C831.452 186.182 831.249 185.644 831.249 184.942V180.923H830.196V179.357H831.249V177.539H833.3V179.357H834.729Z" fill="#12141E"/>
<rect x="689" y="327" width="238" height="50" rx="3" fill="white"/>
<rect x="689" y="327" width="238" height="50" rx="3" stroke="#B6B9C9" stroke-width="2"/>
<path d="M779.74 357L783.22 346.814H785.954L789.522 357H787.205L786.419 354.635H782.803L782.044 357H779.74ZM783.322 353.001H785.879L785.571 352.085C785.407 351.565 785.243 351.003 785.079 350.396C784.915 349.79 784.744 349.141 784.566 348.448C784.398 349.15 784.236 349.804 784.081 350.41C783.926 351.016 783.771 351.575 783.616 352.085L783.322 353.001ZM793.207 357.13C792.619 357.13 792.09 356.979 791.621 356.679C791.152 356.373 790.778 355.929 790.5 355.346C790.227 354.758 790.09 354.04 790.09 353.192C790.09 352.322 790.231 351.595 790.514 351.012C790.796 350.428 791.172 349.991 791.642 349.699C792.111 349.408 792.628 349.262 793.193 349.262C793.626 349.262 793.986 349.335 794.273 349.48C794.561 349.626 794.791 349.806 794.964 350.021C795.142 350.235 795.276 350.442 795.367 350.643H795.436V346.814H797.486V357H795.47V355.776H795.367C795.271 355.981 795.135 356.189 794.957 356.398C794.779 356.604 794.547 356.777 794.26 356.918C793.973 357.059 793.622 357.13 793.207 357.13ZM793.836 355.482C794.355 355.482 794.759 355.273 795.046 354.854C795.333 354.434 795.477 353.878 795.477 353.186C795.477 352.493 795.333 351.939 795.046 351.524C794.763 351.11 794.36 350.902 793.836 350.902C793.298 350.902 792.89 351.117 792.612 351.545C792.334 351.969 792.195 352.516 792.195 353.186C792.195 353.86 792.334 354.411 792.612 354.84C792.895 355.268 793.303 355.482 793.836 355.482ZM802.039 357.13C801.451 357.13 800.923 356.979 800.453 356.679C799.984 356.373 799.61 355.929 799.332 355.346C799.059 354.758 798.922 354.04 798.922 353.192C798.922 352.322 799.063 351.595 799.346 351.012C799.628 350.428 800.004 349.991 800.474 349.699C800.943 349.408 801.46 349.262 802.025 349.262C802.458 349.262 802.818 349.335 803.105 349.48C803.393 349.626 803.623 349.806 803.796 350.021C803.974 350.235 804.108 350.442 804.199 350.643H804.268V346.814H806.318V357H804.302V355.776H804.199C804.104 355.981 803.967 356.189 803.789 356.398C803.611 356.604 803.379 356.777 803.092 356.918C802.805 357.059 802.454 357.13 802.039 357.13ZM802.668 355.482C803.188 355.482 803.591 355.273 803.878 354.854C804.165 354.434 804.309 353.878 804.309 353.186C804.309 352.493 804.165 351.939 803.878 351.524C803.595 351.11 803.192 350.902 802.668 350.902C802.13 350.902 801.722 351.117 801.444 351.545C801.166 351.969 801.027 352.516 801.027 353.186C801.027 353.86 801.166 354.411 801.444 354.84C801.727 355.268 802.135 355.482 802.668 355.482ZM808.075 357V349.357H810.058V350.69H810.14C810.281 350.221 810.516 349.866 810.844 349.624C811.176 349.378 811.557 349.255 811.985 349.255C812.218 349.255 812.439 349.278 812.648 349.323V351.155C812.557 351.128 812.423 351.105 812.245 351.087C812.072 351.064 811.91 351.053 811.76 351.053C811.286 351.053 810.894 351.201 810.584 351.497C810.279 351.793 810.126 352.178 810.126 352.652V357H808.075ZM816.887 357.15C816.107 357.15 815.435 356.991 814.87 356.672C814.305 356.353 813.87 355.899 813.564 355.312C813.264 354.724 813.113 354.026 813.113 353.22C813.113 352.431 813.264 351.741 813.564 351.148C813.87 350.556 814.296 350.093 814.843 349.761C815.394 349.428 816.041 349.262 816.784 349.262C817.45 349.262 818.053 349.403 818.596 349.686C819.138 349.968 819.569 350.396 819.888 350.971C820.211 351.545 820.373 352.267 820.373 353.138V353.712H815.144C815.166 354.336 815.34 354.808 815.663 355.127C815.987 355.446 816.406 355.605 816.921 355.605C817.281 355.605 817.589 355.53 817.844 355.38C818.104 355.225 818.288 354.999 818.397 354.703L820.257 355.052C820.07 355.685 819.683 356.193 819.095 356.576C818.511 356.959 817.775 357.15 816.887 357.15ZM815.157 352.427H818.397C818.347 351.93 818.188 351.536 817.919 351.244C817.65 350.952 817.279 350.807 816.805 350.807C816.312 350.807 815.925 350.959 815.643 351.265C815.36 351.565 815.198 351.953 815.157 352.427ZM824.81 357.15C823.889 357.15 823.128 356.954 822.526 356.562C821.929 356.171 821.565 355.619 821.433 354.908L823.34 354.58C823.536 355.291 824.046 355.646 824.871 355.646C825.263 355.646 825.571 355.574 825.794 355.428C826.022 355.277 826.136 355.088 826.136 354.86C826.136 354.473 825.808 354.211 825.151 354.074L823.832 353.801C822.365 353.5 821.631 352.778 821.631 351.634C821.631 350.9 821.925 350.321 822.513 349.897C823.101 349.474 823.878 349.262 824.844 349.262C825.751 349.262 826.473 349.446 827.011 349.815C827.549 350.185 827.888 350.679 828.029 351.299L826.211 351.62C826.129 351.36 825.979 351.148 825.76 350.984C825.541 350.816 825.245 350.731 824.871 350.731C824.534 350.731 824.251 350.804 824.023 350.95C823.796 351.091 823.682 351.276 823.682 351.504C823.682 351.695 823.755 351.859 823.9 351.996C824.051 352.128 824.306 352.231 824.666 352.304L826.04 352.577C827.498 352.873 828.228 353.562 828.228 354.642C828.228 355.143 828.082 355.583 827.79 355.961C827.498 356.335 827.095 356.626 826.58 356.836C826.065 357.046 825.475 357.15 824.81 357.15ZM832.657 357.15C831.737 357.15 830.976 356.954 830.374 356.562C829.777 356.171 829.412 355.619 829.28 354.908L831.188 354.58C831.383 355.291 831.894 355.646 832.719 355.646C833.111 355.646 833.418 355.574 833.642 355.428C833.869 355.277 833.983 355.088 833.983 354.86C833.983 354.473 833.655 354.211 832.999 354.074L831.68 353.801C830.212 353.5 829.479 352.778 829.479 351.634C829.479 350.9 829.772 350.321 830.36 349.897C830.948 349.474 831.725 349.262 832.691 349.262C833.598 349.262 834.321 349.446 834.858 349.815C835.396 350.185 835.736 350.679 835.877 351.299L834.059 351.62C833.977 351.36 833.826 351.148 833.607 350.984C833.389 350.816 833.092 350.731 832.719 350.731C832.382 350.731 832.099 350.804 831.871 350.95C831.643 351.091 831.529 351.276 831.529 351.504C831.529 351.695 831.602 351.859 831.748 351.996C831.898 352.128 832.154 352.231 832.514 352.304L833.888 352.577C835.346 352.873 836.075 353.562 836.075 354.642C836.075 355.143 835.929 355.583 835.638 355.961C835.346 356.335 834.943 356.626 834.428 356.836C833.913 357.046 833.323 357.15 832.657 357.15Z" fill="#12141E"/>
<rect x="1010" y="1" width="238" height="50" rx="3" fill="white"/>
<rect x="1010" y="1" width="238" height="50" rx="3" stroke="#B6B9C9" stroke-width="2"/>
<path d="M1087.86 31V20.8145H1091.83C1092.99 20.8145 1093.89 21.1175 1094.52 21.7236C1095.16 22.3252 1095.48 23.1273 1095.48 24.1299C1095.48 24.8271 1095.32 25.4242 1095.01 25.9209C1094.7 26.4131 1094.26 26.7822 1093.67 27.0283L1095.84 31H1093.53L1091.59 27.3633H1089.95V31H1087.86ZM1089.95 25.6748H1091.45C1092.7 25.6748 1093.32 25.1598 1093.32 24.1299C1093.32 23.6149 1093.17 23.2207 1092.86 22.9473C1092.55 22.6738 1092.08 22.5371 1091.44 22.5371H1089.95V25.6748ZM1100.25 31.1504C1099.49 31.1504 1098.83 30.9863 1098.27 30.6582C1097.71 30.3255 1097.27 29.8652 1096.97 29.2773C1096.67 28.6849 1096.52 27.9967 1096.52 27.2129C1096.52 26.4245 1096.67 25.734 1096.97 25.1416C1097.27 24.5492 1097.71 24.0889 1098.27 23.7607C1098.83 23.4281 1099.49 23.2617 1100.25 23.2617C1101.02 23.2617 1101.68 23.4281 1102.24 23.7607C1102.8 24.0889 1103.24 24.5492 1103.54 25.1416C1103.84 25.734 1103.99 26.4245 1103.99 27.2129C1103.99 27.9967 1103.84 28.6849 1103.54 29.2773C1103.24 29.8652 1102.8 30.3255 1102.24 30.6582C1101.68 30.9863 1101.02 31.1504 1100.25 31.1504ZM1100.25 29.5371C1100.8 29.5371 1101.21 29.3161 1101.49 28.874C1101.77 28.432 1101.91 27.876 1101.91 27.2061C1101.91 26.5316 1101.77 25.9756 1101.49 25.5381C1101.21 25.096 1100.8 24.875 1100.25 24.875C1099.71 24.875 1099.3 25.096 1099.02 25.5381C1098.74 25.9756 1098.61 26.5316 1098.61 27.2061C1098.61 27.876 1098.74 28.432 1099.02 28.874C1099.3 29.3161 1099.71 29.5371 1100.25 29.5371ZM1107.47 20.8145V31H1105.42V20.8145H1107.47ZM1112.68 31.1504C1111.9 31.1504 1111.22 30.9909 1110.66 30.6719C1110.09 30.3529 1109.66 29.8994 1109.35 29.3115C1109.05 28.7236 1108.9 28.0264 1108.9 27.2197C1108.9 26.4313 1109.05 25.7409 1109.35 25.1484C1109.66 24.556 1110.08 24.0934 1110.63 23.7607C1111.18 23.4281 1111.83 23.2617 1112.57 23.2617C1113.24 23.2617 1113.84 23.403 1114.38 23.6855C1114.93 23.9681 1115.36 24.3965 1115.68 24.9707C1116 25.5449 1116.16 26.2673 1116.16 27.1377V27.7119H1110.93C1110.96 28.3363 1111.13 28.8079 1111.45 29.127C1111.78 29.446 1112.19 29.6055 1112.71 29.6055C1113.07 29.6055 1113.38 29.5303 1113.63 29.3799C1113.89 29.2249 1114.08 28.9993 1114.19 28.7031L1116.05 29.0518C1115.86 29.6852 1115.47 30.1934 1114.88 30.5762C1114.3 30.959 1113.56 31.1504 1112.68 31.1504ZM1110.95 26.4268H1114.19C1114.14 25.93 1113.98 25.5358 1113.71 25.2441C1113.44 24.9525 1113.07 24.8066 1112.59 24.8066C1112.1 24.8066 1111.71 24.9593 1111.43 25.2646C1111.15 25.5654 1110.99 25.9528 1110.95 26.4268ZM1122.06 31.1367C1121.15 31.1367 1120.35 30.9316 1119.63 30.5215C1118.92 30.1113 1118.36 29.5166 1117.95 28.7373C1117.54 27.958 1117.33 27.0169 1117.33 25.9141C1117.33 24.8066 1117.54 23.8633 1117.95 23.084C1118.37 22.3001 1118.93 21.7031 1119.65 21.293C1120.36 20.8828 1121.17 20.6777 1122.06 20.6777C1122.83 20.6777 1123.53 20.8213 1124.15 21.1084C1124.78 21.391 1125.29 21.8034 1125.69 22.3457C1126.09 22.8835 1126.34 23.5329 1126.44 24.2939H1124.33C1124.24 23.7425 1123.98 23.3118 1123.58 23.002C1123.18 22.6875 1122.69 22.5303 1122.1 22.5303C1121.31 22.5303 1120.67 22.8242 1120.18 23.4121C1119.69 24 1119.45 24.834 1119.45 25.9141C1119.45 27.0169 1119.69 27.8555 1120.18 28.4297C1120.67 28.9993 1121.31 29.2842 1122.1 29.2842C1122.67 29.2842 1123.17 29.1292 1123.57 28.8193C1123.98 28.5049 1124.24 28.0697 1124.34 27.5137H1126.45C1126.37 28.1471 1126.15 28.7396 1125.78 29.291C1125.41 29.8379 1124.91 30.2822 1124.28 30.624C1123.66 30.9658 1122.92 31.1367 1122.06 31.1367ZM1131.34 31.1504C1130.58 31.1504 1129.92 30.9863 1129.36 30.6582C1128.79 30.3255 1128.36 29.8652 1128.06 29.2773C1127.76 28.6849 1127.61 27.9967 1127.61 27.2129C1127.61 26.4245 1127.76 25.734 1128.06 25.1416C1128.36 24.5492 1128.79 24.0889 1129.36 23.7607C1129.92 23.4281 1130.58 23.2617 1131.34 23.2617C1132.11 23.2617 1132.77 23.4281 1133.33 23.7607C1133.89 24.0889 1134.33 24.5492 1134.63 25.1416C1134.93 25.734 1135.08 26.4245 1135.08 27.2129C1135.08 27.9967 1134.93 28.6849 1134.63 29.2773C1134.33 29.8652 1133.89 30.3255 1133.33 30.6582C1132.77 30.9863 1132.11 31.1504 1131.34 31.1504ZM1131.34 29.5371C1131.89 29.5371 1132.3 29.3161 1132.58 28.874C1132.86 28.432 1133 27.876 1133 27.2061C1133 26.5316 1132.86 25.9756 1132.58 25.5381C1132.3 25.096 1131.89 24.875 1131.34 24.875C1130.8 24.875 1130.39 25.096 1130.11 25.5381C1129.83 25.9756 1129.7 26.5316 1129.7 27.2061C1129.7 27.876 1129.83 28.432 1130.11 28.874C1130.39 29.3161 1130.8 29.5371 1131.34 29.5371ZM1138.56 26.5771V31H1136.51V23.3574H1138.45L1138.47 24.9365C1138.69 24.4033 1138.99 23.9909 1139.38 23.6992C1139.78 23.4076 1140.27 23.2617 1140.85 23.2617C1141.65 23.2617 1142.28 23.5169 1142.76 24.0273C1143.24 24.5378 1143.48 25.2419 1143.48 26.1396V31H1141.43V26.4951C1141.43 26.0212 1141.3 25.6497 1141.06 25.3809C1140.82 25.112 1140.48 24.9775 1140.05 24.9775C1139.61 24.9775 1139.25 25.1188 1138.97 25.4014C1138.7 25.6794 1138.56 26.0713 1138.56 26.5771ZM1149.03 23.3574V24.9229H1147.6V28.7646C1147.6 29.2386 1147.83 29.4756 1148.3 29.4756C1148.38 29.4756 1148.48 29.4665 1148.62 29.4482C1148.76 29.4255 1148.87 29.4049 1148.95 29.3867L1149.24 30.9248C1149.01 30.9932 1148.79 31.041 1148.56 31.0684C1148.33 31.0957 1148.12 31.1094 1147.92 31.1094C1147.15 31.1094 1146.56 30.9248 1146.16 30.5557C1145.75 30.182 1145.55 29.6442 1145.55 28.9424V24.9229H1144.5V23.3574H1145.55V21.5391H1147.6V23.3574H1149.03ZM1152.56 31.1504C1151.83 31.1504 1151.23 30.959 1150.75 30.5762C1150.26 30.1888 1150.02 29.6169 1150.02 28.8604C1150.02 28.2907 1150.16 27.8441 1150.43 27.5205C1150.7 27.1969 1151.06 26.96 1151.5 26.8096C1151.93 26.6592 1152.4 26.5612 1152.91 26.5156C1153.56 26.4518 1154.03 26.3857 1154.32 26.3174C1154.61 26.2445 1154.76 26.0827 1154.76 25.832V25.7979C1154.76 25.4743 1154.65 25.2236 1154.44 25.0459C1154.24 24.8682 1153.94 24.7793 1153.56 24.7793C1153.17 24.7793 1152.85 24.8659 1152.6 25.0391C1152.36 25.2077 1152.2 25.415 1152.12 25.6611L1150.24 25.3467C1150.44 24.6859 1150.82 24.1732 1151.41 23.8086C1152 23.444 1152.72 23.2617 1153.57 23.2617C1154.12 23.2617 1154.63 23.3483 1155.13 23.5215C1155.62 23.6947 1156.03 23.9727 1156.34 24.3555C1156.65 24.7337 1156.81 25.2327 1156.81 25.8525V31H1154.87V29.9404H1154.8C1154.61 30.2959 1154.33 30.5876 1153.96 30.8154C1153.6 31.0387 1153.13 31.1504 1152.56 31.1504ZM1153.14 29.708C1153.62 29.708 1154.01 29.569 1154.31 29.291C1154.62 29.013 1154.77 28.6712 1154.77 28.2656V27.4385C1154.69 27.4977 1154.56 27.5501 1154.37 27.5957C1154.19 27.6367 1153.99 27.6755 1153.79 27.7119C1153.58 27.7438 1153.4 27.7689 1153.25 27.7871C1152.88 27.8418 1152.57 27.9489 1152.34 28.1084C1152.11 28.2679 1151.99 28.5003 1151.99 28.8057C1151.99 29.1019 1152.1 29.3275 1152.31 29.4824C1152.53 29.6328 1152.81 29.708 1153.14 29.708ZM1161.98 31.1504C1161.21 31.1504 1160.55 30.9863 1159.99 30.6582C1159.43 30.3255 1159 29.8652 1158.7 29.2773C1158.39 28.6849 1158.24 27.9967 1158.24 27.2129C1158.24 26.4245 1158.39 25.734 1158.7 25.1416C1159 24.5492 1159.43 24.0889 1159.99 23.7607C1160.55 23.4281 1161.21 23.2617 1161.98 23.2617C1162.89 23.2617 1163.65 23.4896 1164.25 23.9453C1164.86 24.3965 1165.24 25.0163 1165.38 25.8047L1163.47 26.1602C1163.39 25.7637 1163.22 25.4515 1162.97 25.2236C1162.72 24.9912 1162.4 24.875 1162 24.875C1161.46 24.875 1161.04 25.0915 1160.76 25.5244C1160.48 25.9528 1160.34 26.5133 1160.34 27.2061C1160.34 27.8896 1160.48 28.4502 1160.76 28.8877C1161.04 29.3206 1161.46 29.5371 1162 29.5371C1162.4 29.5371 1162.73 29.4186 1162.98 29.1816C1163.24 28.9401 1163.41 28.6143 1163.49 28.2041L1165.39 28.5527C1165.25 29.3594 1164.87 29.9951 1164.27 30.46C1163.66 30.9202 1162.9 31.1504 1161.98 31.1504ZM1170.6 23.3574V24.9229H1169.17V28.7646C1169.17 29.2386 1169.41 29.4756 1169.87 29.4756C1169.95 29.4756 1170.06 29.4665 1170.19 29.4482C1170.33 29.4255 1170.44 29.4049 1170.52 29.3867L1170.82 30.9248C1170.59 30.9932 1170.36 31.041 1170.13 31.0684C1169.91 31.0957 1169.69 31.1094 1169.49 31.1094C1168.72 31.1094 1168.14 30.9248 1167.73 30.5557C1167.33 30.182 1167.12 29.6442 1167.12 28.9424V24.9229H1166.07V23.3574H1167.12V21.5391H1169.17V23.3574H1170.6Z" fill="#12141E"/>
<path d="M688.707 181.707C689.098 181.317 689.098 180.683 688.707 180.293L682.343 173.929C681.953 173.538 681.319 173.538 680.929 173.929C680.538 174.319 680.538 174.953 680.929 175.343L686.586 181L680.929 186.657C680.538 187.047 680.538 187.681 680.929 188.071C681.319 188.462 681.953 188.462 682.343 188.071L688.707 181.707ZM584 182L688 182L688 180L584 180L584 182Z" fill="#B6B9C9"/>
<path d="M464.707 52.2929C464.317 51.9024 463.683 51.9024 463.293 52.2929L456.929 58.6569C456.538 59.0474 456.538 59.6805 456.929 60.0711C457.319 60.4616 457.953 60.4616 458.343 60.0711L464 54.4142L469.657 60.0711C470.047 60.4616 470.681 60.4616 471.071 60.0711C471.462 59.6805 471.462 59.0474 471.071 58.6569L464.707 52.2929ZM465 155L465 53L463 53L463 155L465 155Z" fill="#B6B9C9"/>
<path d="M688.707 356.293C689.098 356.683 689.098 357.317 688.707 357.707L682.343 364.071C681.953 364.462 681.319 364.462 680.929 364.071C680.538 363.681 680.538 363.047 680.929 362.657L686.586 357L680.929 351.343C680.538 350.953 680.538 350.319 680.929 349.929C681.319 349.538 681.953 349.538 682.343 349.929L688.707 356.293ZM465 207L465 349H463L463 207H465ZM472 356L688 356V358L472 358V356ZM465 349C465 352.866 468.134 356 472 356V358C467.029 358 463 353.971 463 349H465Z" fill="#B6B9C9"/>
<path d="M344.707 181.707C345.098 181.317 345.098 180.683 344.707 180.293L338.343 173.929C337.953 173.538 337.319 173.538 336.929 173.929C336.538 174.319 336.538 174.953 336.929 175.343L342.586 181L336.929 186.657C336.538 187.047 336.538 187.681 336.929 188.071C337.319 188.462 337.953 188.462 338.343 188.071L344.707 181.707ZM240 182L344 182L344 180L240 180L240 182Z" fill="#B6B9C9"/>
<path d="M1128.29 51.2929C1128.68 50.9024 1129.32 50.9024 1129.71 51.2929L1136.07 57.6569C1136.46 58.0474 1136.46 58.6805 1136.07 59.0711C1135.68 59.4616 1135.05 59.4616 1134.66 59.0711L1129 53.4142L1123.34 59.0711C1122.95 59.4616 1122.32 59.4616 1121.93 59.0711C1121.54 58.6805 1121.54 58.0474 1121.93 57.6569L1128.29 51.2929ZM928 182H1121V184H928V182ZM1128 175V52H1130V175H1128ZM1121 182C1124.87 182 1128 178.866 1128 175H1130C1130 179.971 1125.97 184 1121 184V182Z" fill="#B6B9C9"/>
</g>
<defs>
<clipPath id="clip0_398_1480">
<rect width="1249" height="378" fill="white"/>
</clipPath>
</defs>
</svg>
