<svg width="570" height="271" viewBox="0 0 570 271" fill="none" xmlns="http://www.w3.org/2000/svg">
<g clip-path="url(#clip0_398_1495)">
<rect x="1" y="1" width="298" height="269" rx="3" fill="#FAFBFE"/>
<rect x="1" y="1" width="298" height="269" rx="3" stroke="#B6B9C9" stroke-width="2" stroke-linecap="round" stroke-linejoin="round"/>
<rect x="31" y="41" width="238" height="50" rx="3" fill="white"/>
<rect x="31" y="41" width="238" height="50" rx="3" stroke="#B6B9C9" stroke-width="2"/>
<path d="M113.742 71V60.8145H117.714C118.871 60.8145 119.767 61.1175 120.4 61.7236C121.038 62.3252 121.357 63.1273 121.357 64.1299C121.357 64.8271 121.202 65.4242 120.893 65.9209C120.583 66.4131 120.136 66.7822 119.553 67.0283L121.72 71H119.409L117.468 67.3633H115.827V71H113.742ZM115.827 65.6748H117.331C118.58 65.6748 119.204 65.1598 119.204 64.1299C119.204 63.6149 119.049 63.2207 118.739 62.9473C118.434 62.6738 117.962 62.5371 117.324 62.5371H115.827V65.6748ZM126.17 71.1504C125.391 71.1504 124.718 70.9909 124.153 70.6719C123.588 70.3529 123.153 69.8994 122.848 69.3115C122.547 68.7236 122.396 68.0264 122.396 67.2197C122.396 66.4313 122.547 65.7409 122.848 65.1484C123.153 64.556 123.579 64.0934 124.126 63.7607C124.677 63.4281 125.325 63.2617 126.067 63.2617C126.733 63.2617 127.337 63.403 127.879 63.6855C128.421 63.9681 128.852 64.3965 129.171 64.9707C129.494 65.5449 129.656 66.2673 129.656 67.1377V67.7119H124.427C124.45 68.3363 124.623 68.8079 124.946 69.127C125.27 69.446 125.689 69.6055 126.204 69.6055C126.564 69.6055 126.872 69.5303 127.127 69.3799C127.387 69.2249 127.571 68.9993 127.681 68.7031L129.54 69.0518C129.353 69.6852 128.966 70.1934 128.378 70.5762C127.795 70.959 127.059 71.1504 126.17 71.1504ZM124.44 66.4268H127.681C127.631 65.93 127.471 65.5358 127.202 65.2441C126.933 64.9525 126.562 64.8066 126.088 64.8066C125.596 64.8066 125.208 64.9593 124.926 65.2646C124.643 65.5654 124.481 65.9528 124.44 66.4268ZM131.058 73.8574V63.3574H133.074V64.6426H133.17C133.261 64.4421 133.393 64.2347 133.566 64.0205C133.744 63.8063 133.977 63.6263 134.264 63.4805C134.555 63.3346 134.918 63.2617 135.351 63.2617C135.916 63.2617 136.433 63.4076 136.902 63.6992C137.372 63.9909 137.745 64.4284 138.023 65.0117C138.306 65.5951 138.447 66.3219 138.447 67.1924C138.447 68.04 138.311 68.7578 138.037 69.3457C137.764 69.929 137.392 70.3734 136.923 70.6787C136.453 70.9795 135.925 71.1299 135.337 71.1299C134.922 71.1299 134.571 71.0592 134.284 70.918C133.997 70.7767 133.762 70.6035 133.58 70.3984C133.402 70.1888 133.266 69.9814 133.17 69.7764H133.108V73.8574H131.058ZM134.708 69.4824C135.241 69.4824 135.647 69.2682 135.925 68.8398C136.207 68.4115 136.349 67.86 136.349 67.1855C136.349 66.5156 136.21 65.9688 135.932 65.5449C135.654 65.1165 135.246 64.9023 134.708 64.9023C134.179 64.9023 133.771 65.1097 133.484 65.5244C133.202 65.9391 133.061 66.4928 133.061 67.1855C133.061 67.8783 133.204 68.4342 133.491 68.8535C133.778 69.2728 134.184 69.4824 134.708 69.4824ZM143.308 71.1504C142.542 71.1504 141.879 70.9863 141.318 70.6582C140.758 70.3255 140.325 69.8652 140.02 69.2773C139.719 68.6849 139.568 67.9967 139.568 67.2129C139.568 66.4245 139.719 65.734 140.02 65.1416C140.325 64.5492 140.758 64.0889 141.318 63.7607C141.879 63.4281 142.542 63.2617 143.308 63.2617C144.073 63.2617 144.736 63.4281 145.297 63.7607C145.857 64.0889 146.288 64.5492 146.589 65.1416C146.894 65.734 147.047 66.4245 147.047 67.2129C147.047 67.9967 146.894 68.6849 146.589 69.2773C146.288 69.8652 145.857 70.3255 145.297 70.6582C144.736 70.9863 144.073 71.1504 143.308 71.1504ZM143.308 69.5371C143.854 69.5371 144.267 69.3161 144.545 68.874C144.823 68.432 144.962 67.876 144.962 67.2061C144.962 66.5316 144.823 65.9756 144.545 65.5381C144.267 65.096 143.854 64.875 143.308 64.875C142.761 64.875 142.348 65.096 142.07 65.5381C141.797 65.9756 141.66 66.5316 141.66 67.2061C141.66 67.876 141.797 68.432 142.07 68.874C142.348 69.3161 142.761 69.5371 143.308 69.5371ZM151.511 71.1504C150.59 71.1504 149.829 70.9544 149.228 70.5625C148.631 70.1706 148.266 69.6191 148.134 68.9082L150.041 68.5801C150.237 69.291 150.747 69.6465 151.572 69.6465C151.964 69.6465 152.272 69.5736 152.495 69.4277C152.723 69.2773 152.837 69.0882 152.837 68.8604C152.837 68.473 152.509 68.2109 151.853 68.0742L150.533 67.8008C149.066 67.5 148.332 66.7777 148.332 65.6338C148.332 64.9001 148.626 64.3213 149.214 63.8975C149.802 63.4736 150.579 63.2617 151.545 63.2617C152.452 63.2617 153.174 63.4463 153.712 63.8154C154.25 64.1846 154.589 64.679 154.73 65.2988L152.912 65.6201C152.83 65.3604 152.68 65.1484 152.461 64.9844C152.242 64.8158 151.946 64.7314 151.572 64.7314C151.235 64.7314 150.952 64.8044 150.725 64.9502C150.497 65.0915 150.383 65.276 150.383 65.5039C150.383 65.6953 150.456 65.8594 150.602 65.9961C150.752 66.1283 151.007 66.2308 151.367 66.3037L152.741 66.5771C154.2 66.8734 154.929 67.5615 154.929 68.6416C154.929 69.1429 154.783 69.5827 154.491 69.9609C154.2 70.3346 153.796 70.6263 153.281 70.8359C152.766 71.0456 152.176 71.1504 151.511 71.1504ZM156.323 71V63.3574H158.374V71H156.323ZM157.349 62.3594C157.039 62.3594 156.774 62.2568 156.556 62.0518C156.337 61.8467 156.228 61.5983 156.228 61.3066C156.228 61.015 156.337 60.7666 156.556 60.5615C156.774 60.3564 157.039 60.2539 157.349 60.2539C157.659 60.2539 157.923 60.3564 158.142 60.5615C158.365 60.7666 158.477 61.015 158.477 61.3066C158.477 61.5983 158.365 61.8467 158.142 62.0518C157.923 62.2568 157.659 62.3594 157.349 62.3594ZM163.918 63.3574V64.9229H162.489V68.7646C162.489 69.2386 162.722 69.4756 163.187 69.4756C163.264 69.4756 163.371 69.4665 163.508 69.4482C163.649 69.4255 163.758 69.4049 163.836 69.3867L164.13 70.9248C163.902 70.9932 163.674 71.041 163.446 71.0684C163.223 71.0957 163.009 71.1094 162.804 71.1094C162.038 71.1094 161.452 70.9248 161.047 70.5557C160.641 70.182 160.438 69.6442 160.438 68.9424V64.9229H159.386V63.3574H160.438V61.5391H162.489V63.3574H163.918ZM168.532 71.1504C167.767 71.1504 167.104 70.9863 166.543 70.6582C165.982 70.3255 165.549 69.8652 165.244 69.2773C164.943 68.6849 164.793 67.9967 164.793 67.2129C164.793 66.4245 164.943 65.734 165.244 65.1416C165.549 64.5492 165.982 64.0889 166.543 63.7607C167.104 63.4281 167.767 63.2617 168.532 63.2617C169.298 63.2617 169.961 63.4281 170.521 63.7607C171.082 64.0889 171.513 64.5492 171.813 65.1416C172.119 65.734 172.271 66.4245 172.271 67.2129C172.271 67.9967 172.119 68.6849 171.813 69.2773C171.513 69.8652 171.082 70.3255 170.521 70.6582C169.961 70.9863 169.298 71.1504 168.532 71.1504ZM168.532 69.5371C169.079 69.5371 169.492 69.3161 169.77 68.874C170.048 68.432 170.187 67.876 170.187 67.2061C170.187 66.5316 170.048 65.9756 169.77 65.5381C169.492 65.096 169.079 64.875 168.532 64.875C167.985 64.875 167.573 65.096 167.295 65.5381C167.021 65.9756 166.885 66.5316 166.885 67.2061C166.885 67.876 167.021 68.432 167.295 68.874C167.573 69.3161 167.985 69.5371 168.532 69.5371ZM173.7 71V63.3574H175.683V64.6904H175.765C175.906 64.221 176.141 63.8656 176.469 63.624C176.801 63.3779 177.182 63.2549 177.61 63.2549C177.843 63.2549 178.064 63.2777 178.273 63.3232V65.1553C178.182 65.1279 178.048 65.1051 177.87 65.0869C177.697 65.0641 177.535 65.0527 177.385 65.0527C176.911 65.0527 176.519 65.2008 176.209 65.4971C175.904 65.7933 175.751 66.1784 175.751 66.6523V71H173.7ZM179.565 73.707L180.037 72.1621L180.29 72.2236C180.705 72.3376 181.044 72.3285 181.309 72.1963C181.573 72.0687 181.728 71.8135 181.773 71.4307L181.828 71.0205L178.957 63.3574H181.138L182.423 67.3223C182.528 67.6549 182.617 67.9876 182.689 68.3203C182.762 68.6484 182.835 68.9811 182.908 69.3184C182.99 68.9766 183.075 68.6416 183.161 68.3135C183.252 67.9808 183.353 67.6504 183.462 67.3223L184.802 63.3574H186.955L183.708 71.9023C183.476 72.5176 183.141 73.0052 182.703 73.3652C182.27 73.7298 181.671 73.9121 180.905 73.9121C180.632 73.9121 180.377 73.8916 180.14 73.8506C179.903 73.8141 179.711 73.7663 179.565 73.707Z" fill="#12141E"/>
<rect x="31" y="180" width="238" height="50" rx="3" fill="white"/>
<rect x="31" y="180" width="238" height="50" rx="3" stroke="#B6B9C9" stroke-width="2"/>
<path d="M83.0625 210L86.542 199.814H89.2764L92.8447 210H90.5273L89.7412 207.635H86.125L85.3662 210H83.0625ZM86.6445 206.001H89.2012L88.8936 205.085C88.7295 204.565 88.5654 204.003 88.4014 203.396C88.2373 202.79 88.0664 202.141 87.8887 201.448C87.7201 202.15 87.5583 202.804 87.4033 203.41C87.2484 204.016 87.0934 204.575 86.9385 205.085L86.6445 206.001ZM96.9326 210.15C96.012 210.15 95.251 209.954 94.6494 209.562C94.0524 209.171 93.6878 208.619 93.5557 207.908L95.4629 207.58C95.6589 208.291 96.1693 208.646 96.9941 208.646C97.3861 208.646 97.6937 208.574 97.917 208.428C98.1449 208.277 98.2588 208.088 98.2588 207.86C98.2588 207.473 97.9307 207.211 97.2744 207.074L95.9551 206.801C94.4876 206.5 93.7539 205.778 93.7539 204.634C93.7539 203.9 94.0479 203.321 94.6357 202.897C95.2236 202.474 96.0007 202.262 96.9668 202.262C97.8737 202.262 98.596 202.446 99.1338 202.815C99.6715 203.185 100.011 203.679 100.152 204.299L98.334 204.62C98.252 204.36 98.1016 204.148 97.8828 203.984C97.6641 203.816 97.3678 203.731 96.9941 203.731C96.6569 203.731 96.3743 203.804 96.1465 203.95C95.9186 204.091 95.8047 204.276 95.8047 204.504C95.8047 204.695 95.8776 204.859 96.0234 204.996C96.1738 205.128 96.429 205.231 96.7891 205.304L98.1631 205.577C99.6214 205.873 100.351 206.562 100.351 207.642C100.351 208.143 100.205 208.583 99.9131 208.961C99.6214 209.335 99.2181 209.626 98.7031 209.836C98.1882 210.046 97.598 210.15 96.9326 210.15ZM104.78 210.15C103.86 210.15 103.099 209.954 102.497 209.562C101.9 209.171 101.535 208.619 101.403 207.908L103.311 207.58C103.507 208.291 104.017 208.646 104.842 208.646C105.234 208.646 105.541 208.574 105.765 208.428C105.993 208.277 106.106 208.088 106.106 207.86C106.106 207.473 105.778 207.211 105.122 207.074L103.803 206.801C102.335 206.5 101.602 205.778 101.602 204.634C101.602 203.9 101.896 203.321 102.483 202.897C103.071 202.474 103.848 202.262 104.814 202.262C105.721 202.262 106.444 202.446 106.981 202.815C107.519 203.185 107.859 203.679 108 204.299L106.182 204.62C106.1 204.36 105.949 204.148 105.73 203.984C105.512 203.816 105.215 203.731 104.842 203.731C104.505 203.731 104.222 203.804 103.994 203.95C103.766 204.091 103.652 204.276 103.652 204.504C103.652 204.695 103.725 204.859 103.871 204.996C104.021 205.128 104.277 205.231 104.637 205.304L106.011 205.577C107.469 205.873 108.198 206.562 108.198 207.642C108.198 208.143 108.052 208.583 107.761 208.961C107.469 209.335 107.066 209.626 106.551 209.836C106.036 210.046 105.446 210.15 104.78 210.15ZM109.593 210V202.357H111.644V210H109.593ZM110.618 201.359C110.308 201.359 110.044 201.257 109.825 201.052C109.606 200.847 109.497 200.598 109.497 200.307C109.497 200.015 109.606 199.767 109.825 199.562C110.044 199.356 110.308 199.254 110.618 199.254C110.928 199.254 111.192 199.356 111.411 199.562C111.634 199.767 111.746 200.015 111.746 200.307C111.746 200.598 111.634 200.847 111.411 201.052C111.192 201.257 110.928 201.359 110.618 201.359ZM116.791 213.021C115.834 213.021 115.064 212.846 114.48 212.495C113.897 212.144 113.521 211.695 113.353 211.148L115.116 210.656C115.212 210.87 115.387 211.069 115.643 211.251C115.902 211.438 116.281 211.531 116.777 211.531C117.297 211.531 117.707 211.41 118.008 211.169C118.309 210.932 118.459 210.561 118.459 210.055V208.646H118.302C118.16 208.956 117.926 209.241 117.598 209.501C117.274 209.761 116.802 209.891 116.183 209.891C115.608 209.891 115.087 209.756 114.617 209.487C114.148 209.218 113.772 208.808 113.489 208.257C113.211 207.705 113.072 207.008 113.072 206.165C113.072 205.304 113.214 204.584 113.496 204.005C113.783 203.426 114.161 202.991 114.631 202.699C115.105 202.408 115.624 202.262 116.189 202.262C116.618 202.262 116.978 202.335 117.27 202.48C117.561 202.626 117.796 202.806 117.974 203.021C118.156 203.235 118.293 203.442 118.384 203.643H118.473V202.357H120.489V209.938C120.489 210.627 120.33 211.199 120.011 211.654C119.696 212.115 119.259 212.456 118.698 212.68C118.142 212.908 117.507 213.021 116.791 213.021ZM116.825 208.332C117.349 208.332 117.753 208.141 118.035 207.758C118.322 207.37 118.466 206.835 118.466 206.151C118.466 205.472 118.325 204.928 118.042 204.518C117.759 204.107 117.354 203.902 116.825 203.902C116.287 203.902 115.877 204.114 115.595 204.538C115.317 204.957 115.178 205.495 115.178 206.151C115.178 206.821 115.319 207.352 115.602 207.744C115.884 208.136 116.292 208.332 116.825 208.332ZM124.29 205.577V210H122.239V202.357H124.174L124.201 203.937C124.415 203.403 124.718 202.991 125.11 202.699C125.502 202.408 125.992 202.262 126.58 202.262C127.373 202.262 128.009 202.517 128.487 203.027C128.966 203.538 129.205 204.242 129.205 205.14V210H127.154V205.495C127.154 205.021 127.031 204.65 126.785 204.381C126.544 204.112 126.206 203.978 125.773 203.978C125.336 203.978 124.978 204.119 124.7 204.401C124.427 204.679 124.29 205.071 124.29 205.577ZM130.962 210V202.357H132.862L132.944 203.841C133.149 203.285 133.45 202.879 133.847 202.624C134.243 202.369 134.669 202.241 135.125 202.241C136.091 202.241 136.747 202.813 137.094 203.957C137.308 203.369 137.638 202.936 138.085 202.658C138.536 202.38 139.024 202.241 139.548 202.241C140.25 202.241 140.831 202.469 141.291 202.925C141.756 203.376 141.988 204.016 141.988 204.846V210H139.931V205.235C139.931 204.807 139.814 204.488 139.582 204.278C139.35 204.064 139.062 203.957 138.721 203.957C138.333 203.957 138.026 204.08 137.798 204.326C137.575 204.572 137.463 204.896 137.463 205.297V210H135.48V205.181C135.48 204.807 135.369 204.511 135.146 204.292C134.927 204.069 134.642 203.957 134.291 203.957C133.931 203.957 133.628 204.08 133.382 204.326C133.136 204.568 133.013 204.919 133.013 205.379V210H130.962ZM147.197 210.15C146.418 210.15 145.746 209.991 145.181 209.672C144.616 209.353 144.18 208.899 143.875 208.312C143.574 207.724 143.424 207.026 143.424 206.22C143.424 205.431 143.574 204.741 143.875 204.148C144.18 203.556 144.606 203.093 145.153 202.761C145.705 202.428 146.352 202.262 147.095 202.262C147.76 202.262 148.364 202.403 148.906 202.686C149.449 202.968 149.879 203.396 150.198 203.971C150.522 204.545 150.684 205.267 150.684 206.138V206.712H145.454C145.477 207.336 145.65 207.808 145.974 208.127C146.297 208.446 146.716 208.605 147.231 208.605C147.591 208.605 147.899 208.53 148.154 208.38C148.414 208.225 148.599 207.999 148.708 207.703L150.567 208.052C150.381 208.685 149.993 209.193 149.405 209.576C148.822 209.959 148.086 210.15 147.197 210.15ZM145.468 205.427H148.708C148.658 204.93 148.498 204.536 148.229 204.244C147.961 203.952 147.589 203.807 147.115 203.807C146.623 203.807 146.236 203.959 145.953 204.265C145.671 204.565 145.509 204.953 145.468 205.427ZM154.136 205.577V210H152.085V202.357H154.02L154.047 203.937C154.261 203.403 154.564 202.991 154.956 202.699C155.348 202.408 155.838 202.262 156.426 202.262C157.219 202.262 157.854 202.517 158.333 203.027C158.812 203.538 159.051 204.242 159.051 205.14V210H157V205.495C157 205.021 156.877 204.65 156.631 204.381C156.389 204.112 156.052 203.978 155.619 203.978C155.182 203.978 154.824 204.119 154.546 204.401C154.272 204.679 154.136 205.071 154.136 205.577ZM164.602 202.357V203.923H163.173V207.765C163.173 208.239 163.405 208.476 163.87 208.476C163.948 208.476 164.055 208.466 164.191 208.448C164.333 208.425 164.442 208.405 164.52 208.387L164.813 209.925C164.586 209.993 164.358 210.041 164.13 210.068C163.907 210.096 163.692 210.109 163.487 210.109C162.722 210.109 162.136 209.925 161.73 209.556C161.325 209.182 161.122 208.644 161.122 207.942V203.923H160.069V202.357H161.122V200.539H163.173V202.357H164.602ZM169.715 210.15C168.489 210.15 167.509 209.87 166.775 209.31C166.046 208.744 165.668 207.922 165.641 206.842H167.671C167.707 207.357 167.912 207.744 168.286 208.004C168.664 208.259 169.134 208.387 169.694 208.387C170.25 208.387 170.697 208.268 171.034 208.031C171.376 207.79 171.547 207.475 171.547 207.088C171.547 206.737 171.392 206.468 171.082 206.281C170.777 206.094 170.346 205.933 169.79 205.796L168.669 205.516C167.808 205.306 167.133 204.978 166.646 204.531C166.158 204.08 165.914 203.485 165.914 202.747C165.914 202.132 166.078 201.594 166.406 201.134C166.739 200.674 167.192 200.316 167.767 200.061C168.345 199.805 169.004 199.678 169.742 199.678C170.494 199.678 171.15 199.808 171.711 200.067C172.271 200.323 172.709 200.68 173.023 201.141C173.338 201.596 173.5 202.123 173.509 202.72H171.492C171.456 202.31 171.28 201.993 170.966 201.77C170.656 201.546 170.241 201.435 169.722 201.435C169.188 201.435 168.776 201.546 168.484 201.77C168.197 201.988 168.054 202.269 168.054 202.61C168.054 202.989 168.215 203.271 168.539 203.458C168.867 203.645 169.248 203.791 169.681 203.896L170.604 204.121C171.173 204.253 171.688 204.445 172.148 204.695C172.609 204.941 172.973 205.263 173.242 205.659C173.511 206.051 173.646 206.532 173.646 207.102C173.646 208.027 173.299 208.767 172.606 209.323C171.918 209.875 170.954 210.15 169.715 210.15ZM178.561 210.15C177.781 210.15 177.109 209.991 176.544 209.672C175.979 209.353 175.544 208.899 175.238 208.312C174.938 207.724 174.787 207.026 174.787 206.22C174.787 205.431 174.938 204.741 175.238 204.148C175.544 203.556 175.97 203.093 176.517 202.761C177.068 202.428 177.715 202.262 178.458 202.262C179.123 202.262 179.727 202.403 180.27 202.686C180.812 202.968 181.243 203.396 181.562 203.971C181.885 204.545 182.047 205.267 182.047 206.138V206.712H176.817C176.84 207.336 177.013 207.808 177.337 208.127C177.66 208.446 178.08 208.605 178.595 208.605C178.955 208.605 179.262 208.53 179.518 208.38C179.777 208.225 179.962 207.999 180.071 207.703L181.931 208.052C181.744 208.685 181.356 209.193 180.769 209.576C180.185 209.959 179.449 210.15 178.561 210.15ZM176.831 205.427H180.071C180.021 204.93 179.862 204.536 179.593 204.244C179.324 203.952 178.952 203.807 178.479 203.807C177.986 203.807 177.599 203.959 177.316 204.265C177.034 204.565 176.872 204.953 176.831 205.427ZM183.448 210V202.357H185.431V203.69H185.513C185.654 203.221 185.889 202.866 186.217 202.624C186.549 202.378 186.93 202.255 187.358 202.255C187.591 202.255 187.812 202.278 188.021 202.323V204.155C187.93 204.128 187.796 204.105 187.618 204.087C187.445 204.064 187.283 204.053 187.133 204.053C186.659 204.053 186.267 204.201 185.957 204.497C185.652 204.793 185.499 205.178 185.499 205.652V210H183.448ZM191.521 210L188.705 202.357H190.886L192.171 206.322C192.276 206.664 192.371 207.008 192.458 207.354C192.549 207.701 192.636 208.052 192.718 208.407C192.795 208.052 192.875 207.703 192.957 207.361C193.044 207.015 193.142 206.669 193.251 206.322L194.522 202.357H196.676L193.853 210H191.521ZM197.763 210V202.357H199.813V210H197.763ZM198.788 201.359C198.478 201.359 198.214 201.257 197.995 201.052C197.776 200.847 197.667 200.598 197.667 200.307C197.667 200.015 197.776 199.767 197.995 199.562C198.214 199.356 198.478 199.254 198.788 199.254C199.098 199.254 199.362 199.356 199.581 199.562C199.804 199.767 199.916 200.015 199.916 200.307C199.916 200.598 199.804 200.847 199.581 201.052C199.362 201.257 199.098 201.359 198.788 201.359ZM204.981 210.15C204.211 210.15 203.546 209.986 202.985 209.658C202.429 209.326 201.999 208.865 201.693 208.277C201.393 207.685 201.242 206.997 201.242 206.213C201.242 205.424 201.393 204.734 201.693 204.142C201.999 203.549 202.429 203.089 202.985 202.761C203.546 202.428 204.211 202.262 204.981 202.262C205.888 202.262 206.645 202.49 207.251 202.945C207.857 203.396 208.233 204.016 208.379 204.805L206.472 205.16C206.385 204.764 206.216 204.451 205.966 204.224C205.72 203.991 205.398 203.875 205.002 203.875C204.455 203.875 204.04 204.091 203.758 204.524C203.475 204.953 203.334 205.513 203.334 206.206C203.334 206.89 203.475 207.45 203.758 207.888C204.04 208.321 204.455 208.537 205.002 208.537C205.398 208.537 205.724 208.419 205.979 208.182C206.235 207.94 206.403 207.614 206.485 207.204L208.393 207.553C208.247 208.359 207.871 208.995 207.265 209.46C206.659 209.92 205.897 210.15 204.981 210.15ZM213.26 210.15C212.48 210.15 211.808 209.991 211.243 209.672C210.678 209.353 210.243 208.899 209.938 208.312C209.637 207.724 209.486 207.026 209.486 206.22C209.486 205.431 209.637 204.741 209.938 204.148C210.243 203.556 210.669 203.093 211.216 202.761C211.767 202.428 212.414 202.262 213.157 202.262C213.823 202.262 214.426 202.403 214.969 202.686C215.511 202.968 215.942 203.396 216.261 203.971C216.584 204.545 216.746 205.267 216.746 206.138V206.712H211.517C211.539 207.336 211.713 207.808 212.036 208.127C212.36 208.446 212.779 208.605 213.294 208.605C213.654 208.605 213.962 208.53 214.217 208.38C214.477 208.225 214.661 207.999 214.771 207.703L216.63 208.052C216.443 208.685 216.056 209.193 215.468 209.576C214.884 209.959 214.148 210.15 213.26 210.15ZM211.53 205.427H214.771C214.72 204.93 214.561 204.536 214.292 204.244C214.023 203.952 213.652 203.807 213.178 203.807C212.686 203.807 212.298 203.959 212.016 204.265C211.733 204.565 211.571 204.953 211.53 205.427Z" fill="#12141E"/>
<path d="M149.293 179.707C149.683 180.098 150.317 180.098 150.707 179.707L157.071 173.343C157.462 172.953 157.462 172.319 157.071 171.929C156.681 171.538 156.047 171.538 155.657 171.929L150 177.586L144.343 171.929C143.953 171.538 143.319 171.538 142.929 171.929C142.538 172.319 142.538 172.953 142.929 173.343L149.293 179.707ZM149 92.5118C149 93.064 149.448 93.5118 150 93.5118C150.552 93.5118 151 93.064 151 92.5118L149 92.5118ZM151 96.6059C151 96.0536 150.552 95.6059 150 95.6059C149.448 95.6059 149 96.0536 149 96.6059L151 96.6059ZM149 97.6294C149 98.1817 149.448 98.6294 150 98.6294C150.552 98.6294 151 98.1817 151 97.6294L149 97.6294ZM151 101.724C151 101.171 150.552 100.724 150 100.724C149.448 100.724 149 101.171 149 101.724L151 101.724ZM149 102.747C149 103.299 149.448 103.747 150 103.747C150.552 103.747 151 103.299 151 102.747L149 102.747ZM151 106.841C151 106.289 150.552 105.841 150 105.841C149.448 105.841 149 106.289 149 106.841L151 106.841ZM149 107.865C149 108.417 149.448 108.865 150 108.865C150.552 108.865 151 108.417 151 107.865L149 107.865ZM151 111.959C151 111.407 150.552 110.959 150 110.959C149.448 110.959 149 111.407 149 111.959L151 111.959ZM149 112.982C149 113.535 149.448 113.982 150 113.982C150.552 113.982 151 113.535 151 112.982L149 112.982ZM151 117.076C151 116.524 150.552 116.076 150 116.076C149.448 116.076 149 116.524 149 117.076L151 117.076ZM149 118.1C149 118.652 149.448 119.1 150 119.1C150.552 119.1 151 118.652 151 118.1L149 118.1ZM151 122.194C151 121.642 150.552 121.194 150 121.194C149.448 121.194 149 121.642 149 122.194L151 122.194ZM149 123.218C149 123.77 149.448 124.218 150 124.218C150.552 124.218 151 123.77 151 123.218L149 123.218ZM151 127.312C151 126.759 150.552 126.312 150 126.312C149.448 126.312 149 126.759 149 127.312L151 127.312ZM149 128.335C149 128.888 149.448 129.335 150 129.335C150.552 129.335 151 128.888 151 128.335L149 128.335ZM151 132.429C151 131.877 150.552 131.429 150 131.429C149.448 131.429 149 131.877 149 132.429L151 132.429ZM149 133.453C149 134.005 149.448 134.453 150 134.453C150.552 134.453 151 134.005 151 133.453L149 133.453ZM151 137.547C151 136.995 150.552 136.547 150 136.547C149.448 136.547 149 136.995 149 137.547L151 137.547ZM149 138.571C149 139.123 149.448 139.571 150 139.571C150.552 139.571 151 139.123 151 138.571L149 138.571ZM151 142.665C151 142.112 150.552 141.665 150 141.665C149.448 141.665 149 142.112 149 142.665L151 142.665ZM149 143.688C149 144.241 149.448 144.688 150 144.688C150.552 144.688 151 144.241 151 143.688L149 143.688ZM151 147.782C151 147.23 150.552 146.782 150 146.782C149.448 146.782 149 147.23 149 147.782L151 147.782ZM149 148.806C149 149.358 149.448 149.806 150 149.806C150.552 149.806 151 149.358 151 148.806L149 148.806ZM151 152.9C151 152.348 150.552 151.9 150 151.9C149.448 151.9 149 152.348 149 152.9L151 152.9ZM149 153.924C149 154.476 149.448 154.924 150 154.924C150.552 154.924 151 154.476 151 153.924L149 153.924ZM151 158.018C151 157.465 150.552 157.018 150 157.018C149.448 157.018 149 157.465 149 158.018L151 158.018ZM149 159.041C149 159.593 149.448 160.041 150 160.041C150.552 160.041 151 159.593 151 159.041L149 159.041ZM151 163.135C151 162.583 150.552 162.135 150 162.135C149.448 162.135 149 162.583 149 163.135L151 163.135ZM149 164.159C149 164.711 149.448 165.159 150 165.159C150.552 165.159 151 164.711 151 164.159L149 164.159ZM151 168.253C151 167.701 150.552 167.253 150 167.253C149.448 167.253 149 167.701 149 168.253L151 168.253ZM149 169.276C149 169.829 149.448 170.276 150 170.276C150.552 170.276 151 169.829 151 169.276L149 169.276ZM151 173.371C151 172.818 150.552 172.371 150 172.371C149.448 172.371 149 172.818 149 173.371L151 173.371ZM149 174.394C149 174.946 149.448 175.394 150 175.394C150.552 175.394 151 174.946 151 174.394L149 174.394ZM151 178.488C151 177.936 150.552 177.488 150 177.488C149.448 177.488 149 177.936 149 178.488L151 178.488ZM149 92L149 92.5118L151 92.5118L151 92L149 92ZM149 96.6059L149 97.6294L151 97.6294L151 96.6059L149 96.6059ZM149 101.724L149 102.747L151 102.747L151 101.724L149 101.724ZM149 106.841L149 107.865L151 107.865L151 106.841L149 106.841ZM149 111.959L149 112.982L151 112.982L151 111.959L149 111.959ZM149 117.076L149 118.1L151 118.1L151 117.076L149 117.076ZM149 122.194L149 123.218L151 123.218L151 122.194L149 122.194ZM149 127.312L149 128.335L151 128.335L151 127.312L149 127.312ZM149 132.429L149 133.453L151 133.453L151 132.429L149 132.429ZM149 137.547L149 138.571L151 138.571L151 137.547L149 137.547ZM149 142.665L149 143.688L151 143.688L151 142.665L149 142.665ZM149 147.782L149 148.806L151 148.806L151 147.782L149 147.782ZM149 152.9L149 153.924L151 153.924L151 152.9L149 152.9ZM149 158.018L149 159.041L151 159.041L151 158.018L149 158.018ZM149 163.135L149 164.159L151 164.159L151 163.135L149 163.135ZM149 168.253L149 169.276L151 169.276L151 168.253L149 168.253ZM149 173.371L149 174.394L151 174.394L151 173.371L149 173.371ZM149 178.488L149 179L151 179L151 178.488L149 178.488ZM149.293 179.707C149.683 180.098 150.317 180.098 150.707 179.707L157.071 173.343C157.462 172.953 157.462 172.319 157.071 171.929C156.681 171.538 156.047 171.538 155.657 171.929L150 177.586L144.343 171.929C143.953 171.538 143.319 171.538 142.929 171.929C142.538 172.319 142.538 172.953 142.929 173.343L149.293 179.707ZM149 92.5118C149 93.064 149.448 93.5118 150 93.5118C150.552 93.5118 151 93.064 151 92.5118L149 92.5118ZM151 96.6059C151 96.0536 150.552 95.6059 150 95.6059C149.448 95.6059 149 96.0536 149 96.6059L151 96.6059ZM149 97.6294C149 98.1817 149.448 98.6294 150 98.6294C150.552 98.6294 151 98.1817 151 97.6294L149 97.6294ZM151 101.724C151 101.171 150.552 100.724 150 100.724C149.448 100.724 149 101.171 149 101.724L151 101.724ZM149 102.747C149 103.299 149.448 103.747 150 103.747C150.552 103.747 151 103.299 151 102.747L149 102.747ZM151 106.841C151 106.289 150.552 105.841 150 105.841C149.448 105.841 149 106.289 149 106.841L151 106.841ZM149 107.865C149 108.417 149.448 108.865 150 108.865C150.552 108.865 151 108.417 151 107.865L149 107.865ZM151 111.959C151 111.407 150.552 110.959 150 110.959C149.448 110.959 149 111.407 149 111.959L151 111.959ZM149 112.982C149 113.535 149.448 113.982 150 113.982C150.552 113.982 151 113.535 151 112.982L149 112.982ZM151 117.076C151 116.524 150.552 116.076 150 116.076C149.448 116.076 149 116.524 149 117.076L151 117.076ZM149 118.1C149 118.652 149.448 119.1 150 119.1C150.552 119.1 151 118.652 151 118.1L149 118.1ZM151 122.194C151 121.642 150.552 121.194 150 121.194C149.448 121.194 149 121.642 149 122.194L151 122.194ZM149 123.218C149 123.77 149.448 124.218 150 124.218C150.552 124.218 151 123.77 151 123.218L149 123.218ZM151 127.312C151 126.759 150.552 126.312 150 126.312C149.448 126.312 149 126.759 149 127.312L151 127.312ZM149 128.335C149 128.888 149.448 129.335 150 129.335C150.552 129.335 151 128.888 151 128.335L149 128.335ZM151 132.429C151 131.877 150.552 131.429 150 131.429C149.448 131.429 149 131.877 149 132.429L151 132.429ZM149 133.453C149 134.005 149.448 134.453 150 134.453C150.552 134.453 151 134.005 151 133.453L149 133.453ZM151 137.547C151 136.995 150.552 136.547 150 136.547C149.448 136.547 149 136.995 149 137.547L151 137.547ZM149 138.571C149 139.123 149.448 139.571 150 139.571C150.552 139.571 151 139.123 151 138.571L149 138.571ZM151 142.665C151 142.112 150.552 141.665 150 141.665C149.448 141.665 149 142.112 149 142.665L151 142.665ZM149 143.688C149 144.241 149.448 144.688 150 144.688C150.552 144.688 151 144.241 151 143.688L149 143.688ZM151 147.782C151 147.23 150.552 146.782 150 146.782C149.448 146.782 149 147.23 149 147.782L151 147.782ZM149 148.806C149 149.358 149.448 149.806 150 149.806C150.552 149.806 151 149.358 151 148.806L149 148.806ZM151 152.9C151 152.348 150.552 151.9 150 151.9C149.448 151.9 149 152.348 149 152.9L151 152.9ZM149 153.924C149 154.476 149.448 154.924 150 154.924C150.552 154.924 151 154.476 151 153.924L149 153.924ZM151 158.018C151 157.465 150.552 157.018 150 157.018C149.448 157.018 149 157.465 149 158.018L151 158.018ZM149 159.041C149 159.593 149.448 160.041 150 160.041C150.552 160.041 151 159.593 151 159.041L149 159.041ZM151 163.135C151 162.583 150.552 162.135 150 162.135C149.448 162.135 149 162.583 149 163.135L151 163.135ZM149 164.159C149 164.711 149.448 165.159 150 165.159C150.552 165.159 151 164.711 151 164.159L149 164.159ZM151 168.253C151 167.701 150.552 167.253 150 167.253C149.448 167.253 149 167.701 149 168.253L151 168.253ZM149 169.276C149 169.829 149.448 170.276 150 170.276C150.552 170.276 151 169.829 151 169.276L149 169.276ZM151 173.371C151 172.818 150.552 172.371 150 172.371C149.448 172.371 149 172.818 149 173.371L151 173.371ZM149 174.394C149 174.946 149.448 175.394 150 175.394C150.552 175.394 151 174.946 151 174.394L149 174.394ZM151 178.488C151 177.936 150.552 177.488 150 177.488C149.448 177.488 149 177.936 149 178.488L151 178.488ZM149 92L149 92.5118L151 92.5118L151 92L149 92ZM149 96.6059L149 97.6294L151 97.6294L151 96.6059L149 96.6059ZM149 101.724L149 102.747L151 102.747L151 101.724L149 101.724ZM149 106.841L149 107.865L151 107.865L151 106.841L149 106.841ZM149 111.959L149 112.982L151 112.982L151 111.959L149 111.959ZM149 117.076L149 118.1L151 118.1L151 117.076L149 117.076ZM149 122.194L149 123.218L151 123.218L151 122.194L149 122.194ZM149 127.312L149 128.335L151 128.335L151 127.312L149 127.312ZM149 132.429L149 133.453L151 133.453L151 132.429L149 132.429ZM149 137.547L149 138.571L151 138.571L151 137.547L149 137.547ZM149 142.665L149 143.688L151 143.688L151 142.665L149 142.665ZM149 147.782L149 148.806L151 148.806L151 147.782L149 147.782ZM149 152.9L149 153.924L151 153.924L151 152.9L149 152.9ZM149 158.018L149 159.041L151 159.041L151 158.018L149 158.018ZM149 163.135L149 164.159L151 164.159L151 163.135L149 163.135ZM149 168.253L149 169.276L151 169.276L151 168.253L149 168.253ZM149 173.371L149 174.394L151 174.394L151 173.371L149 173.371ZM149 178.488L149 179L151 179L151 178.488L149 178.488Z" fill="#B6B9C9"/>
<rect x="331" y="41" width="238" height="50" rx="3" fill="white"/>
<rect x="331" y="41" width="238" height="50" rx="3" stroke="#B6B9C9" stroke-width="2"/>
<path d="M362.466 71H358.884V60.8145H362.5C363.521 60.8145 364.398 61.0195 365.132 61.4297C365.87 61.8353 366.438 62.4186 366.834 63.1797C367.23 63.9362 367.429 64.8431 367.429 65.9004C367.429 66.9622 367.23 67.8737 366.834 68.6348C366.438 69.3958 365.868 69.9814 365.125 70.3916C364.382 70.7972 363.496 71 362.466 71ZM360.969 69.2021H362.363C363.343 69.2021 364.086 68.9378 364.592 68.4092C365.098 67.8805 365.351 67.0443 365.351 65.9004C365.351 64.7611 365.098 63.9294 364.592 63.4053C364.09 62.8766 363.352 62.6123 362.377 62.6123H360.969V69.2021ZM372.371 71.1504C371.605 71.1504 370.942 70.9863 370.382 70.6582C369.821 70.3255 369.388 69.8652 369.083 69.2773C368.782 68.6849 368.632 67.9967 368.632 67.2129C368.632 66.4245 368.782 65.734 369.083 65.1416C369.388 64.5492 369.821 64.0889 370.382 63.7607C370.942 63.4281 371.605 63.2617 372.371 63.2617C373.137 63.2617 373.8 63.4281 374.36 63.7607C374.921 64.0889 375.352 64.5492 375.652 65.1416C375.958 65.734 376.11 66.4245 376.11 67.2129C376.11 67.9967 375.958 68.6849 375.652 69.2773C375.352 69.8652 374.921 70.3255 374.36 70.6582C373.8 70.9863 373.137 71.1504 372.371 71.1504ZM372.371 69.5371C372.918 69.5371 373.33 69.3161 373.608 68.874C373.886 68.432 374.025 67.876 374.025 67.2061C374.025 66.5316 373.886 65.9756 373.608 65.5381C373.33 65.096 372.918 64.875 372.371 64.875C371.824 64.875 371.412 65.096 371.134 65.5381C370.86 65.9756 370.724 66.5316 370.724 67.2061C370.724 67.876 370.86 68.432 371.134 68.874C371.412 69.3161 371.824 69.5371 372.371 69.5371ZM380.957 71.1504C380.187 71.1504 379.521 70.9863 378.961 70.6582C378.405 70.3255 377.974 69.8652 377.669 69.2773C377.368 68.6849 377.218 67.9967 377.218 67.2129C377.218 66.4245 377.368 65.734 377.669 65.1416C377.974 64.5492 378.405 64.0889 378.961 63.7607C379.521 63.4281 380.187 63.2617 380.957 63.2617C381.864 63.2617 382.62 63.4896 383.227 63.9453C383.833 64.3965 384.209 65.0163 384.354 65.8047L382.447 66.1602C382.361 65.7637 382.192 65.4515 381.941 65.2236C381.695 64.9912 381.374 64.875 380.978 64.875C380.431 64.875 380.016 65.0915 379.733 65.5244C379.451 65.9528 379.31 66.5133 379.31 67.2061C379.31 67.8896 379.451 68.4502 379.733 68.8877C380.016 69.3206 380.431 69.5371 380.978 69.5371C381.374 69.5371 381.7 69.4186 381.955 69.1816C382.21 68.9401 382.379 68.6143 382.461 68.2041L384.368 68.5527C384.222 69.3594 383.846 69.9951 383.24 70.46C382.634 70.9202 381.873 71.1504 380.957 71.1504ZM389.577 63.3574V64.9229H388.148V68.7646C388.148 69.2386 388.381 69.4756 388.846 69.4756C388.923 69.4756 389.03 69.4665 389.167 69.4482C389.308 69.4255 389.418 69.4049 389.495 69.3867L389.789 70.9248C389.561 70.9932 389.333 71.041 389.105 71.0684C388.882 71.0957 388.668 71.1094 388.463 71.1094C387.697 71.1094 387.112 70.9248 386.706 70.5557C386.3 70.182 386.098 69.6442 386.098 68.9424V64.9229H385.045V63.3574H386.098V61.5391H388.148V63.3574H389.577ZM390.91 71V63.3574H392.893V64.6904H392.975C393.116 64.221 393.351 63.8656 393.679 63.624C394.011 63.3779 394.392 63.2549 394.82 63.2549C395.053 63.2549 395.274 63.2777 395.483 63.3232V65.1553C395.392 65.1279 395.258 65.1051 395.08 65.0869C394.907 65.0641 394.745 65.0527 394.595 65.0527C394.121 65.0527 393.729 65.2008 393.419 65.4971C393.114 65.7933 392.961 66.1784 392.961 66.6523V71H390.91ZM396.721 71V63.3574H398.771V71H396.721ZM397.746 62.3594C397.436 62.3594 397.172 62.2568 396.953 62.0518C396.734 61.8467 396.625 61.5983 396.625 61.3066C396.625 61.015 396.734 60.7666 396.953 60.5615C397.172 60.3564 397.436 60.2539 397.746 60.2539C398.056 60.2539 398.32 60.3564 398.539 60.5615C398.762 60.7666 398.874 61.015 398.874 61.3066C398.874 61.5983 398.762 61.8467 398.539 62.0518C398.32 62.2568 398.056 62.3594 397.746 62.3594ZM402.572 66.5771V71H400.521V63.3574H402.456L402.483 64.9365C402.698 64.4033 403.001 63.9909 403.393 63.6992C403.785 63.4076 404.274 63.2617 404.862 63.2617C405.655 63.2617 406.291 63.5169 406.77 64.0273C407.248 64.5378 407.487 65.2419 407.487 66.1396V71H405.437V66.4951C405.437 66.0212 405.313 65.6497 405.067 65.3809C404.826 65.112 404.489 64.9775 404.056 64.9775C403.618 64.9775 403.26 65.1188 402.982 65.4014C402.709 65.6794 402.572 66.0713 402.572 66.5771ZM412.696 71.1504C411.917 71.1504 411.245 70.9909 410.68 70.6719C410.115 70.3529 409.679 69.8994 409.374 69.3115C409.073 68.7236 408.923 68.0264 408.923 67.2197C408.923 66.4313 409.073 65.7409 409.374 65.1484C409.679 64.556 410.105 64.0934 410.652 63.7607C411.204 63.4281 411.851 63.2617 412.594 63.2617C413.259 63.2617 413.863 63.403 414.405 63.6855C414.948 63.9681 415.378 64.3965 415.697 64.9707C416.021 65.5449 416.183 66.2673 416.183 67.1377V67.7119H410.953C410.976 68.3363 411.149 68.8079 411.473 69.127C411.796 69.446 412.215 69.6055 412.73 69.6055C413.09 69.6055 413.398 69.5303 413.653 69.3799C413.913 69.2249 414.098 68.9993 414.207 68.7031L416.066 69.0518C415.88 69.6852 415.492 70.1934 414.904 70.5762C414.321 70.959 413.585 71.1504 412.696 71.1504ZM410.967 66.4268H414.207C414.157 65.93 413.997 65.5358 413.729 65.2441C413.46 64.9525 413.088 64.8066 412.614 64.8066C412.122 64.8066 411.735 64.9593 411.452 65.2646C411.17 65.5654 411.008 65.9528 410.967 66.4268ZM419.32 72.5312L416.039 60.3359H417.816L421.098 72.5312H419.32ZM425.794 71H422.212V60.8145H425.828C426.849 60.8145 427.726 61.0195 428.46 61.4297C429.198 61.8353 429.766 62.4186 430.162 63.1797C430.559 63.9362 430.757 64.8431 430.757 65.9004C430.757 66.9622 430.559 67.8737 430.162 68.6348C429.766 69.3958 429.196 69.9814 428.453 70.3916C427.71 70.7972 426.824 71 425.794 71ZM424.297 69.2021H425.691C426.671 69.2021 427.414 68.9378 427.92 68.4092C428.426 67.8805 428.679 67.0443 428.679 65.9004C428.679 64.7611 428.426 63.9294 427.92 63.4053C427.419 62.8766 426.68 62.6123 425.705 62.6123H424.297V69.2021ZM432.329 71V60.8145H436.369C437.486 60.8145 438.324 61.0605 438.885 61.5527C439.45 62.0449 439.732 62.6715 439.732 63.4326C439.732 64.0342 439.557 64.5195 439.206 64.8887C438.86 65.2578 438.424 65.5016 437.9 65.6201V65.7227C438.283 65.7409 438.643 65.8503 438.98 66.0508C439.322 66.2513 439.598 66.5339 439.808 66.8984C440.022 67.2585 440.129 67.6891 440.129 68.1904C440.129 68.7282 439.997 69.209 439.732 69.6328C439.468 70.0566 439.076 70.3916 438.557 70.6377C438.037 70.8792 437.395 71 436.629 71H432.329ZM434.414 69.2842H436.219C436.834 69.2842 437.281 69.1657 437.559 68.9287C437.841 68.6917 437.982 68.3796 437.982 67.9922C437.982 67.5684 437.827 67.2174 437.518 66.9395C437.212 66.6615 436.798 66.5225 436.273 66.5225H434.414V69.2842ZM434.414 65.0938H436.062C436.508 65.0938 436.88 64.9753 437.176 64.7383C437.472 64.5013 437.62 64.1777 437.62 63.7676C437.62 63.3984 437.488 63.0977 437.224 62.8652C436.964 62.6328 436.59 62.5166 436.103 62.5166H434.414V65.0938ZM441.011 71L444.49 60.8145H447.225L450.793 71H448.476L447.689 68.6348H444.073L443.314 71H441.011ZM444.593 67.001H447.149L446.842 66.085C446.678 65.5654 446.514 65.0026 446.35 64.3965C446.186 63.7904 446.015 63.141 445.837 62.4482C445.668 63.1501 445.507 63.804 445.352 64.4102C445.197 65.0163 445.042 65.5745 444.887 66.085L444.593 67.001ZM452.058 71V60.8145H454.143V69.2705H458.538V71H452.058ZM461.443 72.5312L458.162 60.3359H459.939L463.221 72.5312H461.443ZM468.197 71.1367C467.29 71.1367 466.481 70.9316 465.771 70.5215C465.06 70.1113 464.497 69.5166 464.082 68.7373C463.672 67.958 463.467 67.0169 463.467 65.9141C463.467 64.8066 463.674 63.8633 464.089 63.084C464.504 62.3001 465.069 61.7031 465.784 61.293C466.5 60.8828 467.304 60.6777 468.197 60.6777C468.967 60.6777 469.665 60.8213 470.289 61.1084C470.913 61.391 471.426 61.8034 471.827 62.3457C472.228 62.8835 472.479 63.5329 472.579 64.2939H470.467C470.371 63.7425 470.12 63.3118 469.715 63.002C469.314 62.6875 468.822 62.5303 468.238 62.5303C467.445 62.5303 466.805 62.8242 466.317 63.4121C465.83 64 465.586 64.834 465.586 65.9141C465.586 67.0169 465.83 67.8555 466.317 68.4297C466.81 68.9993 467.448 69.2842 468.231 69.2842C468.81 69.2842 469.302 69.1292 469.708 68.8193C470.118 68.5049 470.373 68.0697 470.474 67.5137H472.586C472.508 68.1471 472.285 68.7396 471.916 69.291C471.547 69.8379 471.048 70.2822 470.419 70.624C469.795 70.9658 469.054 71.1367 468.197 71.1367ZM477.48 71.1504C476.715 71.1504 476.052 70.9863 475.491 70.6582C474.931 70.3255 474.498 69.8652 474.192 69.2773C473.892 68.6849 473.741 67.9967 473.741 67.2129C473.741 66.4245 473.892 65.734 474.192 65.1416C474.498 64.5492 474.931 64.0889 475.491 63.7607C476.052 63.4281 476.715 63.2617 477.48 63.2617C478.246 63.2617 478.909 63.4281 479.47 63.7607C480.03 64.0889 480.461 64.5492 480.762 65.1416C481.067 65.734 481.22 66.4245 481.22 67.2129C481.22 67.9967 481.067 68.6849 480.762 69.2773C480.461 69.8652 480.03 70.3255 479.47 70.6582C478.909 70.9863 478.246 71.1504 477.48 71.1504ZM477.48 69.5371C478.027 69.5371 478.44 69.3161 478.718 68.874C478.996 68.432 479.135 67.876 479.135 67.2061C479.135 66.5316 478.996 65.9756 478.718 65.5381C478.44 65.096 478.027 64.875 477.48 64.875C476.934 64.875 476.521 65.096 476.243 65.5381C475.97 65.9756 475.833 66.5316 475.833 67.2061C475.833 67.876 475.97 68.432 476.243 68.874C476.521 69.3161 476.934 69.5371 477.48 69.5371ZM484.699 66.5771V71H482.648V63.3574H484.583L484.61 64.9365C484.825 64.4033 485.128 63.9909 485.52 63.6992C485.911 63.4076 486.401 63.2617 486.989 63.2617C487.782 63.2617 488.418 63.5169 488.896 64.0273C489.375 64.5378 489.614 65.2419 489.614 66.1396V71H487.563V66.4951C487.563 66.0212 487.44 65.6497 487.194 65.3809C486.953 65.112 486.616 64.9775 486.183 64.9775C485.745 64.9775 485.387 65.1188 485.109 65.4014C484.836 65.6794 484.699 66.0713 484.699 66.5771ZM493.422 66.5771V71H491.371V63.3574H493.306L493.333 64.9365C493.547 64.4033 493.85 63.9909 494.242 63.6992C494.634 63.4076 495.124 63.2617 495.712 63.2617C496.505 63.2617 497.141 63.5169 497.619 64.0273C498.098 64.5378 498.337 65.2419 498.337 66.1396V71H496.286V66.4951C496.286 66.0212 496.163 65.6497 495.917 65.3809C495.675 65.112 495.338 64.9775 494.905 64.9775C494.468 64.9775 494.11 65.1188 493.832 65.4014C493.559 65.6794 493.422 66.0713 493.422 66.5771ZM503.546 71.1504C502.767 71.1504 502.094 70.9909 501.529 70.6719C500.964 70.3529 500.529 69.8994 500.224 69.3115C499.923 68.7236 499.772 68.0264 499.772 67.2197C499.772 66.4313 499.923 65.7409 500.224 65.1484C500.529 64.556 500.955 64.0934 501.502 63.7607C502.053 63.4281 502.701 63.2617 503.443 63.2617C504.109 63.2617 504.713 63.403 505.255 63.6855C505.797 63.9681 506.228 64.3965 506.547 64.9707C506.87 65.5449 507.032 66.2673 507.032 67.1377V67.7119H501.803C501.826 68.3363 501.999 68.8079 502.322 69.127C502.646 69.446 503.065 69.6055 503.58 69.6055C503.94 69.6055 504.248 69.5303 504.503 69.3799C504.763 69.2249 504.947 68.9993 505.057 68.7031L506.916 69.0518C506.729 69.6852 506.342 70.1934 505.754 70.5762C505.171 70.959 504.435 71.1504 503.546 71.1504ZM501.816 66.4268H505.057C505.007 65.93 504.847 65.5358 504.578 65.2441C504.309 64.9525 503.938 64.8066 503.464 64.8066C502.972 64.8066 502.584 64.9593 502.302 65.2646C502.019 65.5654 501.857 65.9528 501.816 66.4268ZM511.852 71.1504C511.081 71.1504 510.416 70.9863 509.855 70.6582C509.299 70.3255 508.869 69.8652 508.563 69.2773C508.263 68.6849 508.112 67.9967 508.112 67.2129C508.112 66.4245 508.263 65.734 508.563 65.1416C508.869 64.5492 509.299 64.0889 509.855 63.7607C510.416 63.4281 511.081 63.2617 511.852 63.2617C512.758 63.2617 513.515 63.4896 514.121 63.9453C514.727 64.3965 515.103 65.0163 515.249 65.8047L513.342 66.1602C513.255 65.7637 513.087 65.4515 512.836 65.2236C512.59 64.9912 512.269 64.875 511.872 64.875C511.325 64.875 510.91 65.0915 510.628 65.5244C510.345 65.9528 510.204 66.5133 510.204 67.2061C510.204 67.8896 510.345 68.4502 510.628 68.8877C510.91 69.3206 511.325 69.5371 511.872 69.5371C512.269 69.5371 512.594 69.4186 512.85 69.1816C513.105 68.9401 513.273 68.6143 513.355 68.2041L515.263 68.5527C515.117 69.3594 514.741 69.9951 514.135 70.46C513.529 70.9202 512.768 71.1504 511.852 71.1504ZM520.472 63.3574V64.9229H519.043V68.7646C519.043 69.2386 519.275 69.4756 519.74 69.4756C519.818 69.4756 519.925 69.4665 520.062 69.4482C520.203 69.4255 520.312 69.4049 520.39 69.3867L520.684 70.9248C520.456 70.9932 520.228 71.041 520 71.0684C519.777 71.0957 519.562 71.1094 519.357 71.1094C518.592 71.1094 518.006 70.9248 517.601 70.5557C517.195 70.182 516.992 69.6442 516.992 68.9424V64.9229H515.939V63.3574H516.992V61.5391H519.043V63.3574H520.472ZM521.805 71V63.3574H523.855V71H521.805ZM522.83 62.3594C522.52 62.3594 522.256 62.2568 522.037 62.0518C521.818 61.8467 521.709 61.5983 521.709 61.3066C521.709 61.015 521.818 60.7666 522.037 60.5615C522.256 60.3564 522.52 60.2539 522.83 60.2539C523.14 60.2539 523.404 60.3564 523.623 60.5615C523.846 60.7666 523.958 61.015 523.958 61.3066C523.958 61.5983 523.846 61.8467 523.623 62.0518C523.404 62.2568 523.14 62.3594 522.83 62.3594ZM529.023 71.1504C528.258 71.1504 527.595 70.9863 527.034 70.6582C526.474 70.3255 526.041 69.8652 525.735 69.2773C525.435 68.6849 525.284 67.9967 525.284 67.2129C525.284 66.4245 525.435 65.734 525.735 65.1416C526.041 64.5492 526.474 64.0889 527.034 63.7607C527.595 63.4281 528.258 63.2617 529.023 63.2617C529.789 63.2617 530.452 63.4281 531.013 63.7607C531.573 64.0889 532.004 64.5492 532.305 65.1416C532.61 65.734 532.763 66.4245 532.763 67.2129C532.763 67.9967 532.61 68.6849 532.305 69.2773C532.004 69.8652 531.573 70.3255 531.013 70.6582C530.452 70.9863 529.789 71.1504 529.023 71.1504ZM529.023 69.5371C529.57 69.5371 529.983 69.3161 530.261 68.874C530.539 68.432 530.678 67.876 530.678 67.2061C530.678 66.5316 530.539 65.9756 530.261 65.5381C529.983 65.096 529.57 64.875 529.023 64.875C528.477 64.875 528.064 65.096 527.786 65.5381C527.513 65.9756 527.376 66.5316 527.376 67.2061C527.376 67.876 527.513 68.432 527.786 68.874C528.064 69.3161 528.477 69.5371 529.023 69.5371ZM536.242 66.5771V71H534.191V63.3574H536.126L536.153 64.9365C536.368 64.4033 536.671 63.9909 537.062 63.6992C537.454 63.4076 537.944 63.2617 538.532 63.2617C539.325 63.2617 539.961 63.5169 540.439 64.0273C540.918 64.5378 541.157 65.2419 541.157 66.1396V71H539.106V66.4951C539.106 66.0212 538.983 65.6497 538.737 65.3809C538.496 65.112 538.159 64.9775 537.726 64.9775C537.288 64.9775 536.93 65.1188 536.652 65.4014C536.379 65.6794 536.242 66.0713 536.242 66.5771Z" fill="#12141E"/>
<path d="M269.293 65.2929C268.902 65.6834 268.902 66.3166 269.293 66.7071L275.657 73.0711C276.047 73.4616 276.681 73.4616 277.071 73.0711C277.462 72.6805 277.462 72.0474 277.071 71.6569L271.414 66L277.071 60.3431C277.462 59.9526 277.462 59.3195 277.071 58.9289C276.681 58.5384 276.047 58.5384 275.657 58.9289L269.293 65.2929ZM328.508 65C327.956 65 327.508 65.4477 327.508 66C327.508 66.5523 327.956 67 328.508 67L328.508 65ZM324.575 67C325.127 67 325.575 66.5523 325.575 66C325.575 65.4477 325.127 65 324.575 65L324.575 67ZM323.592 65C323.039 65 322.592 65.4477 322.592 66C322.592 66.5523 323.039 67 323.592 67L323.592 65ZM319.658 67C320.211 67 320.658 66.5523 320.658 66C320.658 65.4477 320.211 65 319.658 65L319.658 67ZM318.675 65C318.123 65 317.675 65.4477 317.675 66C317.675 66.5523 318.123 67 318.675 67L318.675 65ZM314.742 67C315.294 67 315.742 66.5523 315.742 66C315.742 65.4477 315.294 65 314.742 65L314.742 67ZM313.758 65C313.206 65 312.758 65.4477 312.758 66C312.758 66.5523 313.206 67 313.758 67L313.758 65ZM309.825 67C310.377 67 310.825 66.5523 310.825 66C310.825 65.4477 310.377 65 309.825 65L309.825 67ZM308.842 65C308.289 65 307.842 65.4477 307.842 66C307.842 66.5523 308.289 67 308.842 67L308.842 65ZM304.908 67C305.461 67 305.908 66.5523 305.908 66C305.908 65.4477 305.461 65 304.908 65L304.908 67ZM303.925 65C303.373 65 302.925 65.4477 302.925 66C302.925 66.5523 303.373 67 303.925 67L303.925 65ZM299.992 67C300.544 67 300.992 66.5523 300.992 66C300.992 65.4477 300.544 65 299.992 65L299.992 67ZM299.008 65C298.456 65 298.008 65.4477 298.008 66C298.008 66.5523 298.456 67 299.008 67L299.008 65ZM295.075 67C295.627 67 296.075 66.5523 296.075 66C296.075 65.4477 295.627 65 295.075 65L295.075 67ZM294.092 65C293.539 65 293.092 65.4477 293.092 66C293.092 66.5523 293.539 67 294.092 67L294.092 65ZM290.158 67C290.711 67 291.158 66.5523 291.158 66C291.158 65.4477 290.711 65 290.158 65L290.158 67ZM289.175 65C288.623 65 288.175 65.4477 288.175 66C288.175 66.5523 288.623 67 289.175 67L289.175 65ZM285.242 67C285.794 67 286.242 66.5523 286.242 66C286.242 65.4477 285.794 65 285.242 65L285.242 67ZM284.258 65C283.706 65 283.258 65.4477 283.258 66C283.258 66.5523 283.706 67 284.258 67L284.258 65ZM280.325 67C280.877 67 281.325 66.5523 281.325 66C281.325 65.4477 280.877 65 280.325 65L280.325 67ZM279.342 65C278.789 65 278.342 65.4477 278.342 66C278.342 66.5523 278.789 67 279.342 67L279.342 65ZM275.408 67C275.961 67 276.408 66.5523 276.408 66C276.408 65.4477 275.961 65 275.408 65L275.408 67ZM274.425 65C273.873 65 273.425 65.4477 273.425 66C273.425 66.5523 273.873 67 274.425 67L274.425 65ZM270.492 67C271.044 67 271.492 66.5523 271.492 66C271.492 65.4477 271.044 65 270.492 65L270.492 67ZM329 65L328.508 65L328.508 67L329 67L329 65ZM324.575 65L323.592 65L323.592 67L324.575 67L324.575 65ZM319.658 65L318.675 65L318.675 67L319.658 67L319.658 65ZM314.742 65L313.758 65L313.758 67L314.742 67L314.742 65ZM309.825 65L308.842 65L308.842 67L309.825 67L309.825 65ZM304.908 65L303.925 65L303.925 67L304.908 67L304.908 65ZM299.992 65L299.008 65L299.008 67L299.992 67L299.992 65ZM295.075 65L294.092 65L294.092 67L295.075 67L295.075 65ZM290.158 65L289.175 65L289.175 67L290.158 67L290.158 65ZM285.242 65L284.258 65L284.258 67L285.242 67L285.242 65ZM280.325 65L279.342 65L279.342 67L280.325 67L280.325 65ZM275.408 65L274.425 65L274.425 67L275.408 67L275.408 65ZM270.492 65L270 65L270 67L270.492 67L270.492 65ZM269.293 65.2929C268.902 65.6834 268.902 66.3166 269.293 66.7071L275.657 73.0711C276.047 73.4616 276.681 73.4616 277.071 73.0711C277.462 72.6805 277.462 72.0474 277.071 71.6569L271.414 66L277.071 60.3431C277.462 59.9526 277.462 59.3195 277.071 58.9289C276.681 58.5384 276.047 58.5384 275.657 58.9289L269.293 65.2929ZM328.508 65C327.956 65 327.508 65.4477 327.508 66C327.508 66.5523 327.956 67 328.508 67L328.508 65ZM324.575 67C325.127 67 325.575 66.5523 325.575 66C325.575 65.4477 325.127 65 324.575 65L324.575 67ZM323.592 65C323.039 65 322.592 65.4477 322.592 66C322.592 66.5523 323.039 67 323.592 67L323.592 65ZM319.658 67C320.211 67 320.658 66.5523 320.658 66C320.658 65.4477 320.211 65 319.658 65L319.658 67ZM318.675 65C318.123 65 317.675 65.4477 317.675 66C317.675 66.5523 318.123 67 318.675 67L318.675 65ZM314.742 67C315.294 67 315.742 66.5523 315.742 66C315.742 65.4477 315.294 65 314.742 65L314.742 67ZM313.758 65C313.206 65 312.758 65.4477 312.758 66C312.758 66.5523 313.206 67 313.758 67L313.758 65ZM309.825 67C310.377 67 310.825 66.5523 310.825 66C310.825 65.4477 310.377 65 309.825 65L309.825 67ZM308.842 65C308.289 65 307.842 65.4477 307.842 66C307.842 66.5523 308.289 67 308.842 67L308.842 65ZM304.908 67C305.461 67 305.908 66.5523 305.908 66C305.908 65.4477 305.461 65 304.908 65L304.908 67ZM303.925 65C303.373 65 302.925 65.4477 302.925 66C302.925 66.5523 303.373 67 303.925 67L303.925 65ZM299.992 67C300.544 67 300.992 66.5523 300.992 66C300.992 65.4477 300.544 65 299.992 65L299.992 67ZM299.008 65C298.456 65 298.008 65.4477 298.008 66C298.008 66.5523 298.456 67 299.008 67L299.008 65ZM295.075 67C295.627 67 296.075 66.5523 296.075 66C296.075 65.4477 295.627 65 295.075 65L295.075 67ZM294.092 65C293.539 65 293.092 65.4477 293.092 66C293.092 66.5523 293.539 67 294.092 67L294.092 65ZM290.158 67C290.711 67 291.158 66.5523 291.158 66C291.158 65.4477 290.711 65 290.158 65L290.158 67ZM289.175 65C288.623 65 288.175 65.4477 288.175 66C288.175 66.5523 288.623 67 289.175 67L289.175 65ZM285.242 67C285.794 67 286.242 66.5523 286.242 66C286.242 65.4477 285.794 65 285.242 65L285.242 67ZM284.258 65C283.706 65 283.258 65.4477 283.258 66C283.258 66.5523 283.706 67 284.258 67L284.258 65ZM280.325 67C280.877 67 281.325 66.5523 281.325 66C281.325 65.4477 280.877 65 280.325 65L280.325 67ZM279.342 65C278.789 65 278.342 65.4477 278.342 66C278.342 66.5523 278.789 67 279.342 67L279.342 65ZM275.408 67C275.961 67 276.408 66.5523 276.408 66C276.408 65.4477 275.961 65 275.408 65L275.408 67ZM274.425 65C273.873 65 273.425 65.4477 273.425 66C273.425 66.5523 273.873 67 274.425 67L274.425 65ZM270.492 67C271.044 67 271.492 66.5523 271.492 66C271.492 65.4477 271.044 65 270.492 65L270.492 67ZM329 65L328.508 65L328.508 67L329 67L329 65ZM324.575 65L323.592 65L323.592 67L324.575 67L324.575 65ZM319.658 65L318.675 65L318.675 67L319.658 67L319.658 65ZM314.742 65L313.758 65L313.758 67L314.742 67L314.742 65ZM309.825 65L308.842 65L308.842 67L309.825 67L309.825 65ZM304.908 65L303.925 65L303.925 67L304.908 67L304.908 65ZM299.992 65L299.008 65L299.008 67L299.992 67L299.992 65ZM295.075 65L294.092 65L294.092 67L295.075 67L295.075 65ZM290.158 65L289.175 65L289.175 67L290.158 67L290.158 65ZM285.242 65L284.258 65L284.258 67L285.242 67L285.242 65ZM280.325 65L279.342 65L279.342 67L280.325 67L280.325 65ZM275.408 65L274.425 65L274.425 67L275.408 67L275.408 65ZM270.492 65L270 65L270 67L270.492 67L270.492 65Z" fill="#B6B9C9"/>
</g>
<defs>
<clipPath id="clip0_398_1495">
<rect width="570" height="271" fill="white"/>
</clipPath>
</defs>
</svg>
