<svg width="1044" height="604" viewBox="0 0 1044 604" fill="none" xmlns="http://www.w3.org/2000/svg">
<rect x="1" y="390" width="986" height="116" rx="3" fill="#FAFBFE"/>
<rect x="1" y="390" width="986" height="116" rx="3" stroke="#B6B9C9" stroke-width="2" stroke-linecap="round" stroke-linejoin="round"/>
<rect x="1" y="261" width="986" height="116" rx="3" fill="#FAFBFE"/>
<rect x="1" y="261" width="986" height="116" rx="3" stroke="#B6B9C9" stroke-width="2" stroke-linecap="round" stroke-linejoin="round"/>
<rect x="1" y="1" width="986" height="247" rx="3" fill="#FAFBFE"/>
<rect x="1" y="1" width="986" height="247" rx="3" stroke="#B6B9C9" stroke-width="2" stroke-linecap="round" stroke-linejoin="round"/>
<rect x="932" y="125" width="112" height="30" rx="4" fill="#666977"/>
<path d="M948.835 145L952.314 134.814H955.049L958.617 145H956.3L955.514 142.635H951.897L951.139 145H948.835ZM952.417 141.001H954.974L954.666 140.085C954.502 139.565 954.338 139.003 954.174 138.396C954.01 137.79 953.839 137.141 953.661 136.448C953.493 137.15 953.331 137.804 953.176 138.41C953.021 139.016 952.866 139.575 952.711 140.085L952.417 141.001ZM959.834 147.857V137.357H961.851V138.643H961.946C962.037 138.442 962.17 138.235 962.343 138.021C962.521 137.806 962.753 137.626 963.04 137.48C963.332 137.335 963.694 137.262 964.127 137.262C964.692 137.262 965.209 137.408 965.679 137.699C966.148 137.991 966.522 138.428 966.8 139.012C967.082 139.595 967.224 140.322 967.224 141.192C967.224 142.04 967.087 142.758 966.813 143.346C966.54 143.929 966.169 144.373 965.699 144.679C965.23 144.979 964.701 145.13 964.113 145.13C963.699 145.13 963.348 145.059 963.061 144.918C962.773 144.777 962.539 144.604 962.356 144.398C962.179 144.189 962.042 143.981 961.946 143.776H961.885V147.857H959.834ZM963.484 143.482C964.018 143.482 964.423 143.268 964.701 142.84C964.984 142.411 965.125 141.86 965.125 141.186C965.125 140.516 964.986 139.969 964.708 139.545C964.43 139.117 964.022 138.902 963.484 138.902C962.956 138.902 962.548 139.11 962.261 139.524C961.978 139.939 961.837 140.493 961.837 141.186C961.837 141.878 961.98 142.434 962.268 142.854C962.555 143.273 962.96 143.482 963.484 143.482ZM968.666 147.857V137.357H970.683V138.643H970.778C970.869 138.442 971.002 138.235 971.175 138.021C971.353 137.806 971.585 137.626 971.872 137.48C972.164 137.335 972.526 137.262 972.959 137.262C973.524 137.262 974.041 137.408 974.511 137.699C974.98 137.991 975.354 138.428 975.632 139.012C975.914 139.595 976.056 140.322 976.056 141.192C976.056 142.04 975.919 142.758 975.646 143.346C975.372 143.929 975.001 144.373 974.531 144.679C974.062 144.979 973.533 145.13 972.945 145.13C972.531 145.13 972.18 145.059 971.893 144.918C971.605 144.777 971.371 144.604 971.188 144.398C971.011 144.189 970.874 143.981 970.778 143.776H970.717V147.857H968.666ZM972.316 143.482C972.85 143.482 973.255 143.268 973.533 142.84C973.816 142.411 973.957 141.86 973.957 141.186C973.957 140.516 973.818 139.969 973.54 139.545C973.262 139.117 972.854 138.902 972.316 138.902C971.788 138.902 971.38 139.11 971.093 139.524C970.81 139.939 970.669 140.493 970.669 141.186C970.669 141.878 970.812 142.434 971.1 142.854C971.387 143.273 971.792 143.482 972.316 143.482ZM979.549 134.814V145H977.498V134.814H979.549ZM981.299 145V137.357H983.35V145H981.299ZM982.324 136.359C982.014 136.359 981.75 136.257 981.531 136.052C981.312 135.847 981.203 135.598 981.203 135.307C981.203 135.015 981.312 134.767 981.531 134.562C981.75 134.356 982.014 134.254 982.324 134.254C982.634 134.254 982.898 134.356 983.117 134.562C983.34 134.767 983.452 135.015 983.452 135.307C983.452 135.598 983.34 135.847 983.117 136.052C982.898 136.257 982.634 136.359 982.324 136.359ZM988.518 145.15C987.747 145.15 987.082 144.986 986.521 144.658C985.965 144.326 985.535 143.865 985.229 143.277C984.929 142.685 984.778 141.997 984.778 141.213C984.778 140.424 984.929 139.734 985.229 139.142C985.535 138.549 985.965 138.089 986.521 137.761C987.082 137.428 987.747 137.262 988.518 137.262C989.424 137.262 990.181 137.49 990.787 137.945C991.393 138.396 991.769 139.016 991.915 139.805L990.008 140.16C989.921 139.764 989.753 139.451 989.502 139.224C989.256 138.991 988.935 138.875 988.538 138.875C987.991 138.875 987.576 139.091 987.294 139.524C987.011 139.953 986.87 140.513 986.87 141.206C986.87 141.89 987.011 142.45 987.294 142.888C987.576 143.321 987.991 143.537 988.538 143.537C988.935 143.537 989.26 143.419 989.516 143.182C989.771 142.94 989.939 142.614 990.021 142.204L991.929 142.553C991.783 143.359 991.407 143.995 990.801 144.46C990.195 144.92 989.434 145.15 988.518 145.15ZM995.613 145.15C994.884 145.15 994.278 144.959 993.795 144.576C993.312 144.189 993.07 143.617 993.07 142.86C993.07 142.291 993.207 141.844 993.48 141.521C993.754 141.197 994.109 140.96 994.547 140.81C994.984 140.659 995.454 140.561 995.955 140.516C996.611 140.452 997.083 140.386 997.37 140.317C997.662 140.244 997.808 140.083 997.808 139.832V139.798C997.808 139.474 997.703 139.224 997.493 139.046C997.288 138.868 996.994 138.779 996.611 138.779C996.215 138.779 995.896 138.866 995.654 139.039C995.413 139.208 995.251 139.415 995.169 139.661L993.289 139.347C993.485 138.686 993.875 138.173 994.458 137.809C995.046 137.444 995.766 137.262 996.618 137.262C997.165 137.262 997.685 137.348 998.177 137.521C998.674 137.695 999.077 137.973 999.387 138.355C999.701 138.734 999.858 139.233 999.858 139.853V145H997.917V143.94H997.849C997.662 144.296 997.384 144.588 997.015 144.815C996.646 145.039 996.178 145.15 995.613 145.15ZM996.194 143.708C996.673 143.708 997.062 143.569 997.363 143.291C997.669 143.013 997.821 142.671 997.821 142.266V141.438C997.739 141.498 997.605 141.55 997.418 141.596C997.236 141.637 997.042 141.675 996.837 141.712C996.632 141.744 996.454 141.769 996.304 141.787C995.925 141.842 995.62 141.949 995.388 142.108C995.155 142.268 995.039 142.5 995.039 142.806C995.039 143.102 995.146 143.327 995.36 143.482C995.579 143.633 995.857 143.708 996.194 143.708ZM1005.41 137.357V138.923H1003.98V142.765C1003.98 143.239 1004.21 143.476 1004.68 143.476C1004.76 143.476 1004.86 143.466 1005 143.448C1005.14 143.425 1005.25 143.405 1005.33 143.387L1005.62 144.925C1005.39 144.993 1005.17 145.041 1004.94 145.068C1004.71 145.096 1004.5 145.109 1004.29 145.109C1003.53 145.109 1002.94 144.925 1002.54 144.556C1002.13 144.182 1001.93 143.644 1001.93 142.942V138.923H1000.88V137.357H1001.93V135.539H1003.98V137.357H1005.41ZM1006.74 145V137.357H1008.79V145H1006.74ZM1007.77 136.359C1007.46 136.359 1007.19 136.257 1006.97 136.052C1006.76 135.847 1006.65 135.598 1006.65 135.307C1006.65 135.015 1006.76 134.767 1006.97 134.562C1007.19 134.356 1007.46 134.254 1007.77 134.254C1008.08 134.254 1008.34 134.356 1008.56 134.562C1008.78 134.767 1008.9 135.015 1008.9 135.307C1008.9 135.598 1008.78 135.847 1008.56 136.052C1008.34 136.257 1008.08 136.359 1007.77 136.359ZM1013.96 145.15C1013.2 145.15 1012.53 144.986 1011.97 144.658C1011.41 144.326 1010.98 143.865 1010.67 143.277C1010.37 142.685 1010.22 141.997 1010.22 141.213C1010.22 140.424 1010.37 139.734 1010.67 139.142C1010.98 138.549 1011.41 138.089 1011.97 137.761C1012.53 137.428 1013.2 137.262 1013.96 137.262C1014.73 137.262 1015.39 137.428 1015.95 137.761C1016.51 138.089 1016.94 138.549 1017.24 139.142C1017.55 139.734 1017.7 140.424 1017.7 141.213C1017.7 141.997 1017.55 142.685 1017.24 143.277C1016.94 143.865 1016.51 144.326 1015.95 144.658C1015.39 144.986 1014.73 145.15 1013.96 145.15ZM1013.96 143.537C1014.51 143.537 1014.92 143.316 1015.2 142.874C1015.48 142.432 1015.62 141.876 1015.62 141.206C1015.62 140.532 1015.48 139.976 1015.2 139.538C1014.92 139.096 1014.51 138.875 1013.96 138.875C1013.41 138.875 1013 139.096 1012.72 139.538C1012.45 139.976 1012.31 140.532 1012.31 141.206C1012.31 141.876 1012.45 142.432 1012.72 142.874C1013 143.316 1013.41 143.537 1013.96 143.537ZM1021.18 140.577V145H1019.13V137.357H1021.06L1021.09 138.937C1021.31 138.403 1021.61 137.991 1022 137.699C1022.39 137.408 1022.88 137.262 1023.47 137.262C1024.26 137.262 1024.9 137.517 1025.38 138.027C1025.86 138.538 1026.09 139.242 1026.09 140.14V145H1024.04V140.495C1024.04 140.021 1023.92 139.65 1023.67 139.381C1023.43 139.112 1023.1 138.978 1022.66 138.978C1022.23 138.978 1021.87 139.119 1021.59 139.401C1021.32 139.679 1021.18 140.071 1021.18 140.577Z" fill="white"/>
<rect x="932" y="433" width="112" height="30" rx="4" fill="#666977"/>
<path d="M943.008 442.814V453H940.923V442.814H943.008ZM946.863 448.577V453H944.812V445.357H946.747L946.774 446.937C946.989 446.403 947.292 445.991 947.684 445.699C948.076 445.408 948.565 445.262 949.153 445.262C949.946 445.262 950.582 445.517 951.061 446.027C951.539 446.538 951.778 447.242 951.778 448.14V453H949.728V448.495C949.728 448.021 949.604 447.65 949.358 447.381C949.117 447.112 948.78 446.978 948.347 446.978C947.909 446.978 947.551 447.119 947.273 447.401C947 447.679 946.863 448.071 946.863 448.577ZM957.787 445.357V446.923H956.188V453H954.144V446.923H952.797V445.357H954.144V444.77C954.144 443.958 954.381 443.35 954.854 442.944C955.328 442.539 955.919 442.336 956.625 442.336C956.949 442.336 957.243 442.361 957.507 442.411C957.771 442.461 957.967 442.507 958.095 442.548L957.726 444.093C957.644 444.07 957.541 444.047 957.418 444.024C957.299 444.002 957.174 443.99 957.042 443.99C956.728 443.99 956.507 444.065 956.379 444.216C956.251 444.362 956.188 444.569 956.188 444.838V445.357H957.787ZM959.113 453V445.357H961.096V446.69H961.178C961.319 446.221 961.554 445.866 961.882 445.624C962.215 445.378 962.595 445.255 963.023 445.255C963.256 445.255 963.477 445.278 963.687 445.323V447.155C963.595 447.128 963.461 447.105 963.283 447.087C963.11 447.064 962.948 447.053 962.798 447.053C962.324 447.053 961.932 447.201 961.622 447.497C961.317 447.793 961.164 448.178 961.164 448.652V453H959.113ZM966.756 453.15C966.027 453.15 965.421 452.959 964.938 452.576C964.454 452.189 964.213 451.617 964.213 450.86C964.213 450.291 964.35 449.844 964.623 449.521C964.896 449.197 965.252 448.96 965.689 448.81C966.127 448.659 966.596 448.561 967.098 448.516C967.754 448.452 968.226 448.386 968.513 448.317C968.804 448.244 968.95 448.083 968.95 447.832V447.798C968.95 447.474 968.845 447.224 968.636 447.046C968.431 446.868 968.137 446.779 967.754 446.779C967.357 446.779 967.038 446.866 966.797 447.039C966.555 447.208 966.394 447.415 966.312 447.661L964.432 447.347C964.628 446.686 965.017 446.173 965.601 445.809C966.188 445.444 966.909 445.262 967.761 445.262C968.308 445.262 968.827 445.348 969.319 445.521C969.816 445.695 970.219 445.973 970.529 446.355C970.844 446.734 971.001 447.233 971.001 447.853V453H969.06V451.94H968.991C968.804 452.296 968.526 452.588 968.157 452.815C967.788 453.039 967.321 453.15 966.756 453.15ZM967.337 451.708C967.815 451.708 968.205 451.569 968.506 451.291C968.811 451.013 968.964 450.671 968.964 450.266V449.438C968.882 449.498 968.747 449.55 968.561 449.596C968.378 449.637 968.185 449.675 967.979 449.712C967.774 449.744 967.597 449.769 967.446 449.787C967.068 449.842 966.763 449.949 966.53 450.108C966.298 450.268 966.182 450.5 966.182 450.806C966.182 451.102 966.289 451.327 966.503 451.482C966.722 451.633 967 451.708 967.337 451.708ZM975.793 453.15C974.872 453.15 974.111 452.954 973.51 452.562C972.913 452.171 972.548 451.619 972.416 450.908L974.323 450.58C974.519 451.291 975.03 451.646 975.854 451.646C976.246 451.646 976.554 451.574 976.777 451.428C977.005 451.277 977.119 451.088 977.119 450.86C977.119 450.473 976.791 450.211 976.135 450.074L974.815 449.801C973.348 449.5 972.614 448.778 972.614 447.634C972.614 446.9 972.908 446.321 973.496 445.897C974.084 445.474 974.861 445.262 975.827 445.262C976.734 445.262 977.456 445.446 977.994 445.815C978.532 446.185 978.871 446.679 979.013 447.299L977.194 447.62C977.112 447.36 976.962 447.148 976.743 446.984C976.524 446.816 976.228 446.731 975.854 446.731C975.517 446.731 975.235 446.804 975.007 446.95C974.779 447.091 974.665 447.276 974.665 447.504C974.665 447.695 974.738 447.859 974.884 447.996C975.034 448.128 975.289 448.231 975.649 448.304L977.023 448.577C978.482 448.873 979.211 449.562 979.211 450.642C979.211 451.143 979.065 451.583 978.773 451.961C978.482 452.335 978.078 452.626 977.563 452.836C977.049 453.046 976.458 453.15 975.793 453.15ZM984.399 445.357V446.923H982.971V450.765C982.971 451.239 983.203 451.476 983.668 451.476C983.745 451.476 983.853 451.466 983.989 451.448C984.131 451.425 984.24 451.405 984.317 451.387L984.611 452.925C984.383 452.993 984.156 453.041 983.928 453.068C983.704 453.096 983.49 453.109 983.285 453.109C982.52 453.109 981.934 452.925 981.528 452.556C981.123 452.182 980.92 451.644 980.92 450.942V446.923H979.867V445.357H980.92V443.539H982.971V445.357H984.399ZM985.732 453V445.357H987.715V446.69H987.797C987.938 446.221 988.173 445.866 988.501 445.624C988.834 445.378 989.214 445.255 989.643 445.255C989.875 445.255 990.096 445.278 990.306 445.323V447.155C990.215 447.128 990.08 447.105 989.902 447.087C989.729 447.064 989.567 447.053 989.417 447.053C988.943 447.053 988.551 447.201 988.241 447.497C987.936 447.793 987.783 448.178 987.783 448.652V453H985.732ZM994.065 453.096C993.272 453.096 992.634 452.84 992.151 452.33C991.673 451.82 991.434 451.116 991.434 450.218V445.357H993.484V449.862C993.484 450.336 993.607 450.708 993.854 450.977C994.1 451.245 994.437 451.38 994.865 451.38C995.303 451.38 995.658 451.241 995.932 450.963C996.21 450.68 996.349 450.286 996.349 449.78V445.357H998.406V453H996.465L996.438 451.414C996.223 451.956 995.918 452.373 995.521 452.665C995.13 452.952 994.644 453.096 994.065 453.096ZM1003.57 453.15C1002.8 453.15 1002.14 452.986 1001.58 452.658C1001.02 452.326 1000.59 451.865 1000.29 451.277C999.985 450.685 999.835 449.997 999.835 449.213C999.835 448.424 999.985 447.734 1000.29 447.142C1000.59 446.549 1001.02 446.089 1001.58 445.761C1002.14 445.428 1002.8 445.262 1003.57 445.262C1004.48 445.262 1005.24 445.49 1005.84 445.945C1006.45 446.396 1006.83 447.016 1006.97 447.805L1005.06 448.16C1004.98 447.764 1004.81 447.451 1004.56 447.224C1004.31 446.991 1003.99 446.875 1003.59 446.875C1003.05 446.875 1002.63 447.091 1002.35 447.524C1002.07 447.953 1001.93 448.513 1001.93 449.206C1001.93 449.89 1002.07 450.45 1002.35 450.888C1002.63 451.321 1003.05 451.537 1003.59 451.537C1003.99 451.537 1004.32 451.419 1004.57 451.182C1004.83 450.94 1005 450.614 1005.08 450.204L1006.99 450.553C1006.84 451.359 1006.46 451.995 1005.86 452.46C1005.25 452.92 1004.49 453.15 1003.57 453.15ZM1012.19 445.357V446.923H1010.77V450.765C1010.77 451.239 1011 451.476 1011.46 451.476C1011.54 451.476 1011.65 451.466 1011.78 451.448C1011.93 451.425 1012.03 451.405 1012.11 451.387L1012.41 452.925C1012.18 452.993 1011.95 453.041 1011.72 453.068C1011.5 453.096 1011.29 453.109 1011.08 453.109C1010.31 453.109 1009.73 452.925 1009.32 452.556C1008.92 452.182 1008.71 451.644 1008.71 450.942V446.923H1007.66V445.357H1008.71V443.539H1010.77V445.357H1012.19ZM1016.16 453.096C1015.37 453.096 1014.73 452.84 1014.25 452.33C1013.77 451.82 1013.53 451.116 1013.53 450.218V445.357H1015.58V449.862C1015.58 450.336 1015.7 450.708 1015.95 450.977C1016.19 451.245 1016.53 451.38 1016.96 451.38C1017.4 451.38 1017.75 451.241 1018.03 450.963C1018.3 450.68 1018.44 450.286 1018.44 449.78V445.357H1020.5V453H1018.56L1018.53 451.414C1018.32 451.956 1018.01 452.373 1017.62 452.665C1017.22 452.952 1016.74 453.096 1016.16 453.096ZM1022.25 453V445.357H1024.23V446.69H1024.31C1024.46 446.221 1024.69 445.866 1025.02 445.624C1025.35 445.378 1025.73 445.255 1026.16 445.255C1026.39 445.255 1026.61 445.278 1026.82 445.323V447.155C1026.73 447.128 1026.6 447.105 1026.42 447.087C1026.25 447.064 1026.08 447.053 1025.93 447.053C1025.46 447.053 1025.07 447.201 1024.76 447.497C1024.45 447.793 1024.3 448.178 1024.3 448.652V453H1022.25ZM1031.06 453.15C1030.28 453.15 1029.61 452.991 1029.04 452.672C1028.48 452.353 1028.04 451.899 1027.74 451.312C1027.44 450.724 1027.29 450.026 1027.29 449.22C1027.29 448.431 1027.44 447.741 1027.74 447.148C1028.04 446.556 1028.47 446.093 1029.02 445.761C1029.57 445.428 1030.22 445.262 1030.96 445.262C1031.62 445.262 1032.23 445.403 1032.77 445.686C1033.31 445.968 1033.74 446.396 1034.06 446.971C1034.39 447.545 1034.55 448.267 1034.55 449.138V449.712H1029.32C1029.34 450.336 1029.51 450.808 1029.84 451.127C1030.16 451.446 1030.58 451.605 1031.1 451.605C1031.46 451.605 1031.76 451.53 1032.02 451.38C1032.28 451.225 1032.46 450.999 1032.57 450.703L1034.43 451.052C1034.24 451.685 1033.86 452.193 1033.27 452.576C1032.69 452.959 1031.95 453.15 1031.06 453.15ZM1029.33 448.427H1032.57C1032.52 447.93 1032.36 447.536 1032.09 447.244C1031.82 446.952 1031.45 446.807 1030.98 446.807C1030.49 446.807 1030.1 446.959 1029.82 447.265C1029.53 447.565 1029.37 447.953 1029.33 448.427Z" fill="white"/>
<rect x="932" y="304" width="112" height="30" rx="4" fill="#666977"/>
<path d="M966.005 324H962.423V313.814H966.039C967.06 313.814 967.937 314.02 968.671 314.43C969.409 314.835 969.977 315.419 970.373 316.18C970.77 316.936 970.968 317.843 970.968 318.9C970.968 319.962 970.77 320.874 970.373 321.635C969.977 322.396 969.407 322.981 968.664 323.392C967.921 323.797 967.035 324 966.005 324ZM964.508 322.202H965.902C966.882 322.202 967.625 321.938 968.131 321.409C968.637 320.881 968.89 320.044 968.89 318.9C968.89 317.761 968.637 316.929 968.131 316.405C967.63 315.877 966.891 315.612 965.916 315.612H964.508V322.202ZM975.91 324.15C975.145 324.15 974.481 323.986 973.921 323.658C973.36 323.326 972.927 322.865 972.622 322.277C972.321 321.685 972.171 320.997 972.171 320.213C972.171 319.424 972.321 318.734 972.622 318.142C972.927 317.549 973.36 317.089 973.921 316.761C974.481 316.428 975.145 316.262 975.91 316.262C976.676 316.262 977.339 316.428 977.899 316.761C978.46 317.089 978.891 317.549 979.191 318.142C979.497 318.734 979.649 319.424 979.649 320.213C979.649 320.997 979.497 321.685 979.191 322.277C978.891 322.865 978.46 323.326 977.899 323.658C977.339 323.986 976.676 324.15 975.91 324.15ZM975.91 322.537C976.457 322.537 976.869 322.316 977.147 321.874C977.425 321.432 977.564 320.876 977.564 320.206C977.564 319.532 977.425 318.976 977.147 318.538C976.869 318.096 976.457 317.875 975.91 317.875C975.363 317.875 974.951 318.096 974.673 318.538C974.399 318.976 974.263 319.532 974.263 320.206C974.263 320.876 974.399 321.432 974.673 321.874C974.951 322.316 975.363 322.537 975.91 322.537ZM981.078 324V316.357H982.979L983.061 317.841C983.266 317.285 983.566 316.879 983.963 316.624C984.359 316.369 984.785 316.241 985.241 316.241C986.207 316.241 986.864 316.813 987.21 317.957C987.424 317.369 987.755 316.936 988.201 316.658C988.652 316.38 989.14 316.241 989.664 316.241C990.366 316.241 990.947 316.469 991.407 316.925C991.872 317.376 992.104 318.016 992.104 318.846V324H990.047V319.235C990.047 318.807 989.931 318.488 989.698 318.278C989.466 318.064 989.179 317.957 988.837 317.957C988.45 317.957 988.142 318.08 987.914 318.326C987.691 318.572 987.579 318.896 987.579 319.297V324H985.597V319.181C985.597 318.807 985.485 318.511 985.262 318.292C985.043 318.069 984.758 317.957 984.407 317.957C984.047 317.957 983.744 318.08 983.498 318.326C983.252 318.568 983.129 318.919 983.129 319.379V324H981.078ZM995.994 324.15C995.265 324.15 994.659 323.959 994.176 323.576C993.693 323.189 993.451 322.617 993.451 321.86C993.451 321.291 993.588 320.844 993.861 320.521C994.135 320.197 994.49 319.96 994.928 319.81C995.365 319.659 995.835 319.561 996.336 319.516C996.992 319.452 997.464 319.386 997.751 319.317C998.043 319.244 998.188 319.083 998.188 318.832V318.798C998.188 318.474 998.084 318.224 997.874 318.046C997.669 317.868 997.375 317.779 996.992 317.779C996.596 317.779 996.277 317.866 996.035 318.039C995.794 318.208 995.632 318.415 995.55 318.661L993.67 318.347C993.866 317.686 994.256 317.173 994.839 316.809C995.427 316.444 996.147 316.262 996.999 316.262C997.546 316.262 998.065 316.348 998.558 316.521C999.054 316.695 999.458 316.973 999.768 317.355C1000.08 317.734 1000.24 318.233 1000.24 318.853V324H998.298V322.94H998.229C998.043 323.296 997.765 323.588 997.396 323.815C997.026 324.039 996.559 324.15 995.994 324.15ZM996.575 322.708C997.054 322.708 997.443 322.569 997.744 322.291C998.049 322.013 998.202 321.671 998.202 321.266V320.438C998.12 320.498 997.986 320.55 997.799 320.596C997.617 320.637 997.423 320.675 997.218 320.712C997.013 320.744 996.835 320.769 996.685 320.787C996.306 320.842 996.001 320.949 995.769 321.108C995.536 321.268 995.42 321.5 995.42 321.806C995.42 322.102 995.527 322.327 995.741 322.482C995.96 322.633 996.238 322.708 996.575 322.708ZM1002 324V316.357H1004.05V324H1002ZM1003.02 315.359C1002.71 315.359 1002.45 315.257 1002.23 315.052C1002.01 314.847 1001.9 314.598 1001.9 314.307C1001.9 314.015 1002.01 313.767 1002.23 313.562C1002.45 313.356 1002.71 313.254 1003.02 313.254C1003.33 313.254 1003.6 313.356 1003.81 313.562C1004.04 313.767 1004.15 314.015 1004.15 314.307C1004.15 314.598 1004.04 314.847 1003.81 315.052C1003.6 315.257 1003.33 315.359 1003.02 315.359ZM1007.85 319.577V324H1005.8V316.357H1007.73L1007.76 317.937C1007.97 317.403 1008.28 316.991 1008.67 316.699C1009.06 316.408 1009.55 316.262 1010.14 316.262C1010.93 316.262 1011.57 316.517 1012.04 317.027C1012.52 317.538 1012.76 318.242 1012.76 319.14V324H1010.71V319.495C1010.71 319.021 1010.59 318.65 1010.34 318.381C1010.1 318.112 1009.76 317.978 1009.33 317.978C1008.89 317.978 1008.54 318.119 1008.26 318.401C1007.98 318.679 1007.85 319.071 1007.85 319.577Z" fill="white"/>
<rect x="287" y="30" width="238" height="50" rx="3" fill="white"/>
<rect x="287" y="30" width="238" height="50" rx="3" stroke="#B6B9C9" stroke-width="2"/>
<path d="M368.484 60V49.8145H372.524C373.641 49.8145 374.479 50.0605 375.04 50.5527C375.605 51.0449 375.888 51.6715 375.888 52.4326C375.888 53.0342 375.712 53.5195 375.361 53.8887C375.015 54.2578 374.58 54.5016 374.056 54.6201V54.7227C374.438 54.7409 374.799 54.8503 375.136 55.0508C375.478 55.2513 375.753 55.5339 375.963 55.8984C376.177 56.2585 376.284 56.6891 376.284 57.1904C376.284 57.7282 376.152 58.209 375.888 58.6328C375.623 59.0566 375.231 59.3916 374.712 59.6377C374.192 59.8792 373.55 60 372.784 60H368.484ZM370.569 58.2842H372.374C372.989 58.2842 373.436 58.1657 373.714 57.9287C373.996 57.6917 374.138 57.3796 374.138 56.9922C374.138 56.5684 373.983 56.2174 373.673 55.9395C373.368 55.6615 372.953 55.5225 372.429 55.5225H370.569V58.2842ZM370.569 54.0938H372.217C372.663 54.0938 373.035 53.9753 373.331 53.7383C373.627 53.5013 373.775 53.1777 373.775 52.7676C373.775 52.3984 373.643 52.0977 373.379 51.8652C373.119 51.6328 372.745 51.5166 372.258 51.5166H370.569V54.0938ZM377.679 60V58.4961L381.288 55.1123C381.748 54.6611 382.102 54.2692 382.348 53.9365C382.598 53.5993 382.724 53.2256 382.724 52.8154C382.724 52.3597 382.573 52.002 382.272 51.7422C381.976 51.4779 381.6 51.3457 381.145 51.3457C380.671 51.3457 380.29 51.487 380.003 51.7695C379.72 52.0521 379.579 52.4417 379.579 52.9385H377.583C377.583 52.2777 377.733 51.7035 378.034 51.2158C378.34 50.7236 378.761 50.3454 379.299 50.0811C379.837 49.8122 380.456 49.6777 381.158 49.6777C381.878 49.6777 382.507 49.8076 383.045 50.0674C383.583 50.3226 384 50.6758 384.296 51.127C384.597 51.5781 384.747 52.0977 384.747 52.6855C384.747 53.0638 384.672 53.4375 384.521 53.8066C384.376 54.1758 384.111 54.5905 383.729 55.0508C383.35 55.5065 382.812 56.0534 382.115 56.6914L380.577 58.209V58.2842H384.884V60H377.679ZM386.572 60V49.8145H390.612C391.729 49.8145 392.567 50.0605 393.128 50.5527C393.693 51.0449 393.976 51.6715 393.976 52.4326C393.976 53.0342 393.8 53.5195 393.449 53.8887C393.103 54.2578 392.668 54.5016 392.144 54.6201V54.7227C392.526 54.7409 392.886 54.8503 393.224 55.0508C393.565 55.2513 393.841 55.5339 394.051 55.8984C394.265 56.2585 394.372 56.6891 394.372 57.1904C394.372 57.7282 394.24 58.209 393.976 58.6328C393.711 59.0566 393.319 59.3916 392.8 59.6377C392.28 59.8792 391.638 60 390.872 60H386.572ZM388.657 58.2842H390.462C391.077 58.2842 391.524 58.1657 391.802 57.9287C392.084 57.6917 392.226 57.3796 392.226 56.9922C392.226 56.5684 392.071 56.2174 391.761 55.9395C391.455 55.6615 391.041 55.5225 390.517 55.5225H388.657V58.2842ZM388.657 54.0938H390.305C390.751 54.0938 391.123 53.9753 391.419 53.7383C391.715 53.5013 391.863 53.1777 391.863 52.7676C391.863 52.3984 391.731 52.0977 391.467 51.8652C391.207 51.6328 390.833 51.5166 390.346 51.5166H388.657V54.0938ZM400.511 54.0938V55.7344H395.876V54.0938H400.511ZM402.391 60V49.8145H406.362C407.137 49.8145 407.796 49.9626 408.338 50.2588C408.88 50.5505 409.293 50.9561 409.575 51.4756C409.862 51.9906 410.006 52.583 410.006 53.2529C410.006 53.9274 409.86 54.5221 409.568 55.0371C409.281 55.5475 408.862 55.9486 408.311 56.2402C407.759 56.5273 407.094 56.6709 406.314 56.6709H404.476V60H402.391ZM404.476 54.9893H405.979C406.618 54.9893 407.089 54.8275 407.395 54.5039C407.7 54.1803 407.853 53.7633 407.853 53.2529C407.853 52.738 407.7 52.3232 407.395 52.0088C407.089 51.6943 406.615 51.5371 405.973 51.5371H404.476V54.9893ZM413.472 49.8145V60H411.421V49.8145H413.472ZM417.854 60.0957C417.061 60.0957 416.423 59.8405 415.939 59.3301C415.461 58.8197 415.222 58.1156 415.222 57.2178V52.3574H417.272V56.8623C417.272 57.3363 417.396 57.7077 417.642 57.9766C417.888 58.2454 418.225 58.3799 418.653 58.3799C419.091 58.3799 419.446 58.2409 419.72 57.9629C419.998 57.6803 420.137 57.2861 420.137 56.7803V52.3574H422.194V60H420.253L420.226 58.4141C420.011 58.9564 419.706 59.3734 419.31 59.665C418.918 59.9521 418.432 60.0957 417.854 60.0957ZM427.342 63.0215C426.385 63.0215 425.615 62.846 425.031 62.4951C424.448 62.1442 424.072 61.6953 423.903 61.1484L425.667 60.6562C425.763 60.8704 425.938 61.0687 426.193 61.251C426.453 61.4378 426.831 61.5312 427.328 61.5312C427.848 61.5312 428.258 61.4105 428.559 61.1689C428.859 60.932 429.01 60.5605 429.01 60.0547V58.6465H428.853C428.711 58.9564 428.477 59.2412 428.148 59.501C427.825 59.7607 427.353 59.8906 426.733 59.8906C426.159 59.8906 425.637 59.7562 425.168 59.4873C424.699 59.2184 424.323 58.8083 424.04 58.2568C423.762 57.7054 423.623 57.0081 423.623 56.165C423.623 55.3037 423.764 54.5837 424.047 54.0049C424.334 53.4261 424.712 52.9909 425.182 52.6992C425.656 52.4076 426.175 52.2617 426.74 52.2617C427.169 52.2617 427.529 52.3346 427.82 52.4805C428.112 52.6263 428.347 52.8063 428.524 53.0205C428.707 53.2347 428.843 53.4421 428.935 53.6426H429.023V52.3574H431.04V59.9385C431.04 60.6266 430.881 61.1986 430.562 61.6543C430.247 62.1146 429.81 62.4564 429.249 62.6797C428.693 62.9076 428.057 63.0215 427.342 63.0215ZM427.376 58.332C427.9 58.332 428.303 58.1406 428.586 57.7578C428.873 57.3704 429.017 56.835 429.017 56.1514C429.017 55.4723 428.875 54.9277 428.593 54.5176C428.31 54.1074 427.905 53.9023 427.376 53.9023C426.838 53.9023 426.428 54.1143 426.146 54.5381C425.868 54.9574 425.729 55.4951 425.729 56.1514C425.729 56.8213 425.87 57.3522 426.152 57.7441C426.435 58.1361 426.843 58.332 427.376 58.332ZM432.79 60V52.3574H434.841V60H432.79ZM433.815 51.3594C433.506 51.3594 433.241 51.2568 433.022 51.0518C432.804 50.8467 432.694 50.5983 432.694 50.3066C432.694 50.015 432.804 49.7666 433.022 49.5615C433.241 49.3564 433.506 49.2539 433.815 49.2539C434.125 49.2539 434.39 49.3564 434.608 49.5615C434.832 49.7666 434.943 50.015 434.943 50.3066C434.943 50.5983 434.832 50.8467 434.608 51.0518C434.39 51.2568 434.125 51.3594 433.815 51.3594ZM438.642 55.5771V60H436.591V52.3574H438.525L438.553 53.9365C438.767 53.4033 439.07 52.9909 439.462 52.6992C439.854 52.4076 440.344 52.2617 440.932 52.2617C441.725 52.2617 442.36 52.5169 442.839 53.0273C443.317 53.5378 443.557 54.2419 443.557 55.1396V60H441.506V55.4951C441.506 55.0212 441.383 54.6497 441.137 54.3809C440.895 54.112 440.558 53.9775 440.125 53.9775C439.688 53.9775 439.33 54.1188 439.052 54.4014C438.778 54.6794 438.642 55.0713 438.642 55.5771Z" fill="#12141E"/>
<rect x="99" y="161" width="238" height="50" rx="3" fill="white"/>
<rect x="99" y="161" width="238" height="50" rx="3" stroke="#B6B9C9" stroke-width="2"/>
<path d="M188.175 191V180.814H194.874V182.544H190.26V185.388H194.423V187.09H190.26V191H188.175ZM196.07 191V183.357H198.053V184.69H198.135C198.276 184.221 198.511 183.866 198.839 183.624C199.172 183.378 199.552 183.255 199.98 183.255C200.213 183.255 200.434 183.278 200.644 183.323V185.155C200.552 185.128 200.418 185.105 200.24 185.087C200.067 185.064 199.905 185.053 199.755 185.053C199.281 185.053 198.889 185.201 198.579 185.497C198.274 185.793 198.121 186.178 198.121 186.652V191H196.07ZM204.848 191.15C204.082 191.15 203.419 190.986 202.858 190.658C202.298 190.326 201.865 189.865 201.56 189.277C201.259 188.685 201.108 187.997 201.108 187.213C201.108 186.424 201.259 185.734 201.56 185.142C201.865 184.549 202.298 184.089 202.858 183.761C203.419 183.428 204.082 183.262 204.848 183.262C205.613 183.262 206.276 183.428 206.837 183.761C207.397 184.089 207.828 184.549 208.129 185.142C208.434 185.734 208.587 186.424 208.587 187.213C208.587 187.997 208.434 188.685 208.129 189.277C207.828 189.865 207.397 190.326 206.837 190.658C206.276 190.986 205.613 191.15 204.848 191.15ZM204.848 189.537C205.395 189.537 205.807 189.316 206.085 188.874C206.363 188.432 206.502 187.876 206.502 187.206C206.502 186.532 206.363 185.976 206.085 185.538C205.807 185.096 205.395 184.875 204.848 184.875C204.301 184.875 203.888 185.096 203.61 185.538C203.337 185.976 203.2 186.532 203.2 187.206C203.2 187.876 203.337 188.432 203.61 188.874C203.888 189.316 204.301 189.537 204.848 189.537ZM212.066 186.577V191H210.016V183.357H211.95L211.978 184.937C212.192 184.403 212.495 183.991 212.887 183.699C213.279 183.408 213.769 183.262 214.356 183.262C215.149 183.262 215.785 183.517 216.264 184.027C216.742 184.538 216.981 185.242 216.981 186.14V191H214.931V186.495C214.931 186.021 214.808 185.65 214.562 185.381C214.32 185.112 213.983 184.978 213.55 184.978C213.112 184.978 212.755 185.119 212.477 185.401C212.203 185.679 212.066 186.071 212.066 186.577ZM222.532 183.357V184.923H221.104V188.765C221.104 189.239 221.336 189.476 221.801 189.476C221.878 189.476 221.985 189.466 222.122 189.448C222.263 189.425 222.373 189.405 222.45 189.387L222.744 190.925C222.516 190.993 222.288 191.041 222.061 191.068C221.837 191.096 221.623 191.109 221.418 191.109C220.652 191.109 220.067 190.925 219.661 190.556C219.256 190.182 219.053 189.644 219.053 188.942V184.923H218V183.357H219.053V181.539H221.104V183.357H222.532ZM227.181 191.15C226.401 191.15 225.729 190.991 225.164 190.672C224.599 190.353 224.164 189.899 223.858 189.312C223.558 188.724 223.407 188.026 223.407 187.22C223.407 186.431 223.558 185.741 223.858 185.148C224.164 184.556 224.59 184.093 225.137 183.761C225.688 183.428 226.335 183.262 227.078 183.262C227.743 183.262 228.347 183.403 228.89 183.686C229.432 183.968 229.863 184.396 230.182 184.971C230.505 185.545 230.667 186.267 230.667 187.138V187.712H225.438C225.46 188.336 225.633 188.808 225.957 189.127C226.281 189.446 226.7 189.605 227.215 189.605C227.575 189.605 227.882 189.53 228.138 189.38C228.397 189.225 228.582 188.999 228.691 188.703L230.551 189.052C230.364 189.685 229.977 190.193 229.389 190.576C228.805 190.959 228.069 191.15 227.181 191.15ZM225.451 186.427H228.691C228.641 185.93 228.482 185.536 228.213 185.244C227.944 184.952 227.573 184.807 227.099 184.807C226.606 184.807 226.219 184.959 225.937 185.265C225.654 185.565 225.492 185.953 225.451 186.427ZM234.119 186.577V191H232.068V183.357H234.003L234.03 184.937C234.244 184.403 234.548 183.991 234.939 183.699C235.331 183.408 235.821 183.262 236.409 183.262C237.202 183.262 237.838 183.517 238.316 184.027C238.795 184.538 239.034 185.242 239.034 186.14V191H236.983V186.495C236.983 186.021 236.86 185.65 236.614 185.381C236.373 185.112 236.035 184.978 235.603 184.978C235.165 184.978 234.807 185.119 234.529 185.401C234.256 185.679 234.119 186.071 234.119 186.577ZM243.587 191.13C242.999 191.13 242.47 190.979 242.001 190.679C241.532 190.373 241.158 189.929 240.88 189.346C240.606 188.758 240.47 188.04 240.47 187.192C240.47 186.322 240.611 185.595 240.894 185.012C241.176 184.428 241.552 183.991 242.021 183.699C242.491 183.408 243.008 183.262 243.573 183.262C244.006 183.262 244.366 183.335 244.653 183.48C244.94 183.626 245.171 183.806 245.344 184.021C245.521 184.235 245.656 184.442 245.747 184.643H245.815V180.814H247.866V191H245.85V189.776H245.747C245.651 189.981 245.515 190.189 245.337 190.398C245.159 190.604 244.927 190.777 244.64 190.918C244.353 191.059 244.002 191.13 243.587 191.13ZM244.216 189.482C244.735 189.482 245.139 189.273 245.426 188.854C245.713 188.434 245.856 187.878 245.856 187.186C245.856 186.493 245.713 185.939 245.426 185.524C245.143 185.11 244.74 184.902 244.216 184.902C243.678 184.902 243.27 185.117 242.992 185.545C242.714 185.969 242.575 186.516 242.575 187.186C242.575 187.86 242.714 188.411 242.992 188.84C243.275 189.268 243.683 189.482 244.216 189.482Z" fill="#12141E"/>
<rect x="475" y="161" width="238" height="50" rx="3" fill="white"/>
<rect x="475" y="161" width="238" height="50" rx="3" stroke="#B6B9C9" stroke-width="2"/>
<path d="M562.404 191V180.814H566.376C567.534 180.814 568.429 181.118 569.062 181.724C569.701 182.325 570.02 183.127 570.02 184.13C570.02 184.827 569.865 185.424 569.555 185.921C569.245 186.413 568.798 186.782 568.215 187.028L570.382 191H568.071L566.13 187.363H564.489V191H562.404ZM564.489 185.675H565.993C567.242 185.675 567.866 185.16 567.866 184.13C567.866 183.615 567.711 183.221 567.401 182.947C567.096 182.674 566.624 182.537 565.986 182.537H564.489V185.675ZM571.605 191V180.814H578.421V182.544H573.69V185.005H578.065V186.707H573.69V189.271H578.435V191H571.605ZM583.842 191.15C582.616 191.15 581.636 190.87 580.902 190.31C580.173 189.744 579.795 188.922 579.768 187.842H581.798C581.834 188.357 582.039 188.744 582.413 189.004C582.791 189.259 583.261 189.387 583.821 189.387C584.377 189.387 584.824 189.268 585.161 189.031C585.503 188.79 585.674 188.475 585.674 188.088C585.674 187.737 585.519 187.468 585.209 187.281C584.904 187.094 584.473 186.933 583.917 186.796L582.796 186.516C581.935 186.306 581.26 185.978 580.772 185.531C580.285 185.08 580.041 184.485 580.041 183.747C580.041 183.132 580.205 182.594 580.533 182.134C580.866 181.674 581.319 181.316 581.894 181.061C582.472 180.805 583.131 180.678 583.869 180.678C584.621 180.678 585.277 180.808 585.838 181.067C586.398 181.323 586.836 181.68 587.15 182.141C587.465 182.596 587.627 183.123 587.636 183.72H585.619C585.583 183.31 585.407 182.993 585.093 182.77C584.783 182.546 584.368 182.435 583.849 182.435C583.315 182.435 582.903 182.546 582.611 182.77C582.324 182.988 582.181 183.269 582.181 183.61C582.181 183.989 582.342 184.271 582.666 184.458C582.994 184.645 583.375 184.791 583.808 184.896L584.73 185.121C585.3 185.253 585.815 185.445 586.275 185.695C586.736 185.941 587.1 186.263 587.369 186.659C587.638 187.051 587.772 187.532 587.772 188.102C587.772 189.027 587.426 189.767 586.733 190.323C586.045 190.875 585.081 191.15 583.842 191.15ZM588.873 182.544V180.814H597.192V182.544H594.082V191H591.99V182.544H588.873ZM602.565 185.094V186.734H597.931V185.094H602.565ZM603.379 191L606.858 180.814H609.593L613.161 191H610.844L610.058 188.635H606.441L605.683 191H603.379ZM606.961 187.001H609.518L609.21 186.085C609.046 185.565 608.882 185.003 608.718 184.396C608.554 183.79 608.383 183.141 608.205 182.448C608.036 183.15 607.875 183.804 607.72 184.41C607.565 185.016 607.41 185.575 607.255 186.085L606.961 187.001ZM614.426 191V180.814H618.397C619.172 180.814 619.831 180.963 620.373 181.259C620.915 181.55 621.328 181.956 621.61 182.476C621.897 182.991 622.041 183.583 622.041 184.253C622.041 184.927 621.895 185.522 621.604 186.037C621.316 186.548 620.897 186.949 620.346 187.24C619.794 187.527 619.129 187.671 618.35 187.671H616.511V191H614.426ZM616.511 185.989H618.015C618.653 185.989 619.124 185.827 619.43 185.504C619.735 185.18 619.888 184.763 619.888 184.253C619.888 183.738 619.735 183.323 619.43 183.009C619.124 182.694 618.65 182.537 618.008 182.537H616.511V185.989ZM625.589 180.814V191H623.504V180.814H625.589Z" fill="#12141E"/>
<rect x="287" y="294" width="238" height="50" rx="3" fill="white"/>
<rect x="287" y="294" width="238" height="50" rx="3" stroke="#B6B9C9" stroke-width="2"/>
<path d="M368.491 324V313.814H375.19V315.544H370.576V318.388H374.739V320.09H370.576V324H368.491ZM376.387 324V316.357H378.369V317.69H378.451C378.592 317.221 378.827 316.866 379.155 316.624C379.488 316.378 379.868 316.255 380.297 316.255C380.529 316.255 380.75 316.278 380.96 316.323V318.155C380.869 318.128 380.734 318.105 380.557 318.087C380.383 318.064 380.222 318.053 380.071 318.053C379.597 318.053 379.205 318.201 378.896 318.497C378.59 318.793 378.438 319.178 378.438 319.652V324H376.387ZM384.029 324.15C383.3 324.15 382.694 323.959 382.211 323.576C381.728 323.189 381.486 322.617 381.486 321.86C381.486 321.291 381.623 320.844 381.896 320.521C382.17 320.197 382.525 319.96 382.963 319.81C383.4 319.659 383.87 319.561 384.371 319.516C385.027 319.452 385.499 319.386 385.786 319.317C386.078 319.244 386.224 319.083 386.224 318.832V318.798C386.224 318.474 386.119 318.224 385.909 318.046C385.704 317.868 385.41 317.779 385.027 317.779C384.631 317.779 384.312 317.866 384.07 318.039C383.829 318.208 383.667 318.415 383.585 318.661L381.705 318.347C381.901 317.686 382.291 317.173 382.874 316.809C383.462 316.444 384.182 316.262 385.034 316.262C385.581 316.262 386.101 316.348 386.593 316.521C387.09 316.695 387.493 316.973 387.803 317.355C388.117 317.734 388.274 318.233 388.274 318.853V324H386.333V322.94H386.265C386.078 323.296 385.8 323.588 385.431 323.815C385.062 324.039 384.594 324.15 384.029 324.15ZM384.61 322.708C385.089 322.708 385.479 322.569 385.779 322.291C386.085 322.013 386.237 321.671 386.237 321.266V320.438C386.155 320.498 386.021 320.55 385.834 320.596C385.652 320.637 385.458 320.675 385.253 320.712C385.048 320.744 384.87 320.769 384.72 320.787C384.341 320.842 384.036 320.949 383.804 321.108C383.571 321.268 383.455 321.5 383.455 321.806C383.455 322.102 383.562 322.327 383.776 322.482C383.995 322.633 384.273 322.708 384.61 322.708ZM390.031 324V316.357H391.932L392.014 317.841C392.219 317.285 392.52 316.879 392.916 316.624C393.312 316.369 393.739 316.241 394.194 316.241C395.16 316.241 395.817 316.813 396.163 317.957C396.377 317.369 396.708 316.936 397.154 316.658C397.605 316.38 398.093 316.241 398.617 316.241C399.319 316.241 399.9 316.469 400.36 316.925C400.825 317.376 401.058 318.016 401.058 318.846V324H399V319.235C399 318.807 398.884 318.488 398.651 318.278C398.419 318.064 398.132 317.957 397.79 317.957C397.403 317.957 397.095 318.08 396.867 318.326C396.644 318.572 396.532 318.896 396.532 319.297V324H394.55V319.181C394.55 318.807 394.438 318.511 394.215 318.292C393.996 318.069 393.711 317.957 393.36 317.957C393 317.957 392.697 318.08 392.451 318.326C392.205 318.568 392.082 318.919 392.082 319.379V324H390.031ZM406.267 324.15C405.487 324.15 404.815 323.991 404.25 323.672C403.685 323.353 403.25 322.899 402.944 322.312C402.644 321.724 402.493 321.026 402.493 320.22C402.493 319.431 402.644 318.741 402.944 318.148C403.25 317.556 403.676 317.093 404.223 316.761C404.774 316.428 405.421 316.262 406.164 316.262C406.829 316.262 407.433 316.403 407.976 316.686C408.518 316.968 408.949 317.396 409.268 317.971C409.591 318.545 409.753 319.267 409.753 320.138V320.712H404.523C404.546 321.336 404.719 321.808 405.043 322.127C405.367 322.446 405.786 322.605 406.301 322.605C406.661 322.605 406.968 322.53 407.224 322.38C407.483 322.225 407.668 321.999 407.777 321.703L409.637 322.052C409.45 322.685 409.062 323.193 408.475 323.576C407.891 323.959 407.155 324.15 406.267 324.15ZM404.537 319.427H407.777C407.727 318.93 407.568 318.536 407.299 318.244C407.03 317.952 406.659 317.807 406.185 317.807C405.692 317.807 405.305 317.959 405.022 318.265C404.74 318.565 404.578 318.953 404.537 319.427ZM412.556 324L410.3 316.357H412.453L413.116 319.181C413.207 319.604 413.308 320.06 413.417 320.548C413.526 321.035 413.633 321.564 413.738 322.134C413.843 321.578 413.952 321.056 414.066 320.568C414.185 320.076 414.297 319.614 414.401 319.181L415.099 316.357H416.985L417.669 319.181C417.765 319.614 417.869 320.074 417.983 320.562C418.102 321.049 418.216 321.576 418.325 322.141C418.421 321.576 418.521 321.049 418.626 320.562C418.731 320.074 418.833 319.614 418.934 319.181L419.597 316.357H421.777L419.508 324H417.423L416.575 321.054C416.479 320.726 416.386 320.356 416.295 319.946C416.208 319.536 416.119 319.131 416.028 318.729C415.942 319.131 415.853 319.538 415.762 319.953C415.671 320.363 415.579 320.73 415.488 321.054L414.641 324H412.556ZM426.098 324.15C425.332 324.15 424.669 323.986 424.108 323.658C423.548 323.326 423.115 322.865 422.81 322.277C422.509 321.685 422.358 320.997 422.358 320.213C422.358 319.424 422.509 318.734 422.81 318.142C423.115 317.549 423.548 317.089 424.108 316.761C424.669 316.428 425.332 316.262 426.098 316.262C426.863 316.262 427.526 316.428 428.087 316.761C428.647 317.089 429.078 317.549 429.379 318.142C429.684 318.734 429.837 319.424 429.837 320.213C429.837 320.997 429.684 321.685 429.379 322.277C429.078 322.865 428.647 323.326 428.087 323.658C427.526 323.986 426.863 324.15 426.098 324.15ZM426.098 322.537C426.645 322.537 427.057 322.316 427.335 321.874C427.613 321.432 427.752 320.876 427.752 320.206C427.752 319.532 427.613 318.976 427.335 318.538C427.057 318.096 426.645 317.875 426.098 317.875C425.551 317.875 425.138 318.096 424.86 318.538C424.587 318.976 424.45 319.532 424.45 320.206C424.45 320.876 424.587 321.432 424.86 321.874C425.138 322.316 425.551 322.537 426.098 322.537ZM431.266 324V316.357H433.248V317.69H433.33C433.471 317.221 433.706 316.866 434.034 316.624C434.367 316.378 434.747 316.255 435.176 316.255C435.408 316.255 435.629 316.278 435.839 316.323V318.155C435.748 318.128 435.613 318.105 435.436 318.087C435.262 318.064 435.101 318.053 434.95 318.053C434.476 318.053 434.084 318.201 433.774 318.497C433.469 318.793 433.316 319.178 433.316 319.652V324H431.266ZM437.186 324V313.814H439.236V319.297H439.353L441.854 316.357H444.227L441.369 319.673L444.37 324H441.957L439.824 320.883L439.236 321.546V324H437.186Z" fill="#12141E"/>
<rect x="287" y="423" width="238" height="50" rx="3" fill="white"/>
<rect x="287" y="423" width="238" height="50" rx="3" stroke="#B6B9C9" stroke-width="2"/>
<path d="M367.274 453.15C366.049 453.15 365.069 452.87 364.335 452.31C363.606 451.744 363.228 450.922 363.2 449.842H365.23C365.267 450.357 365.472 450.744 365.846 451.004C366.224 451.259 366.693 451.387 367.254 451.387C367.81 451.387 368.257 451.268 368.594 451.031C368.936 450.79 369.106 450.475 369.106 450.088C369.106 449.737 368.951 449.468 368.642 449.281C368.336 449.094 367.906 448.933 367.35 448.796L366.229 448.516C365.367 448.306 364.693 447.978 364.205 447.531C363.717 447.08 363.474 446.485 363.474 445.747C363.474 445.132 363.638 444.594 363.966 444.134C364.299 443.674 364.752 443.316 365.326 443.061C365.905 442.805 366.563 442.678 367.302 442.678C368.054 442.678 368.71 442.808 369.271 443.067C369.831 443.323 370.269 443.68 370.583 444.141C370.897 444.596 371.059 445.123 371.068 445.72H369.052C369.015 445.31 368.84 444.993 368.525 444.77C368.215 444.546 367.801 444.435 367.281 444.435C366.748 444.435 366.336 444.546 366.044 444.77C365.757 444.988 365.613 445.269 365.613 445.61C365.613 445.989 365.775 446.271 366.099 446.458C366.427 446.645 366.807 446.791 367.24 446.896L368.163 447.121C368.733 447.253 369.248 447.445 369.708 447.695C370.168 447.941 370.533 448.263 370.802 448.659C371.071 449.051 371.205 449.532 371.205 450.102C371.205 451.027 370.859 451.767 370.166 452.323C369.478 452.875 368.514 453.15 367.274 453.15ZM374.719 448.577V453H372.668V442.814H374.678V446.82C374.901 446.324 375.204 445.941 375.587 445.672C375.97 445.398 376.444 445.262 377.009 445.262C377.802 445.262 378.438 445.517 378.916 446.027C379.399 446.538 379.641 447.242 379.641 448.14V453H377.583V448.495C377.583 448.021 377.46 447.65 377.214 447.381C376.972 447.112 376.635 446.978 376.202 446.978C375.765 446.978 375.407 447.119 375.129 447.401C374.855 447.679 374.719 448.071 374.719 448.577ZM384.809 453.15C384.043 453.15 383.38 452.986 382.819 452.658C382.259 452.326 381.826 451.865 381.521 451.277C381.22 450.685 381.069 449.997 381.069 449.213C381.069 448.424 381.22 447.734 381.521 447.142C381.826 446.549 382.259 446.089 382.819 445.761C383.38 445.428 384.043 445.262 384.809 445.262C385.574 445.262 386.237 445.428 386.798 445.761C387.358 446.089 387.789 446.549 388.09 447.142C388.395 447.734 388.548 448.424 388.548 449.213C388.548 449.997 388.395 450.685 388.09 451.277C387.789 451.865 387.358 452.326 386.798 452.658C386.237 452.986 385.574 453.15 384.809 453.15ZM384.809 451.537C385.355 451.537 385.768 451.316 386.046 450.874C386.324 450.432 386.463 449.876 386.463 449.206C386.463 448.532 386.324 447.976 386.046 447.538C385.768 447.096 385.355 446.875 384.809 446.875C384.262 446.875 383.849 447.096 383.571 447.538C383.298 447.976 383.161 448.532 383.161 449.206C383.161 449.876 383.298 450.432 383.571 450.874C383.849 451.316 384.262 451.537 384.809 451.537ZM389.977 455.857V445.357H391.993V446.643H392.089C392.18 446.442 392.312 446.235 392.485 446.021C392.663 445.806 392.896 445.626 393.183 445.48C393.474 445.335 393.837 445.262 394.27 445.262C394.835 445.262 395.352 445.408 395.821 445.699C396.291 445.991 396.664 446.428 396.942 447.012C397.225 447.595 397.366 448.322 397.366 449.192C397.366 450.04 397.229 450.758 396.956 451.346C396.683 451.929 396.311 452.373 395.842 452.679C395.372 452.979 394.844 453.13 394.256 453.13C393.841 453.13 393.49 453.059 393.203 452.918C392.916 452.777 392.681 452.604 392.499 452.398C392.321 452.189 392.185 451.981 392.089 451.776H392.027V455.857H389.977ZM393.627 451.482C394.16 451.482 394.566 451.268 394.844 450.84C395.126 450.411 395.268 449.86 395.268 449.186C395.268 448.516 395.129 447.969 394.851 447.545C394.573 447.117 394.165 446.902 393.627 446.902C393.098 446.902 392.69 447.11 392.403 447.524C392.121 447.939 391.979 448.493 391.979 449.186C391.979 449.878 392.123 450.434 392.41 450.854C392.697 451.273 393.103 451.482 393.627 451.482ZM403.525 447.989V449.63H398.891V447.989H403.525ZM405.405 453V442.814H409.445C410.562 442.814 411.4 443.061 411.961 443.553C412.526 444.045 412.809 444.672 412.809 445.433C412.809 446.034 412.633 446.52 412.282 446.889C411.936 447.258 411.501 447.502 410.977 447.62V447.723C411.359 447.741 411.719 447.85 412.057 448.051C412.398 448.251 412.674 448.534 412.884 448.898C413.098 449.258 413.205 449.689 413.205 450.19C413.205 450.728 413.073 451.209 412.809 451.633C412.544 452.057 412.152 452.392 411.633 452.638C411.113 452.879 410.471 453 409.705 453H405.405ZM407.49 451.284H409.295C409.91 451.284 410.357 451.166 410.635 450.929C410.917 450.692 411.059 450.38 411.059 449.992C411.059 449.568 410.904 449.217 410.594 448.939C410.288 448.661 409.874 448.522 409.35 448.522H407.49V451.284ZM407.49 447.094H409.138C409.584 447.094 409.956 446.975 410.252 446.738C410.548 446.501 410.696 446.178 410.696 445.768C410.696 445.398 410.564 445.098 410.3 444.865C410.04 444.633 409.666 444.517 409.179 444.517H407.49V447.094ZM414.627 453V445.357H416.609V446.69H416.691C416.833 446.221 417.067 445.866 417.396 445.624C417.728 445.378 418.109 445.255 418.537 445.255C418.77 445.255 418.991 445.278 419.2 445.323V447.155C419.109 447.128 418.975 447.105 418.797 447.087C418.624 447.064 418.462 447.053 418.312 447.053C417.838 447.053 417.446 447.201 417.136 447.497C416.83 447.793 416.678 448.178 416.678 448.652V453H414.627ZM420.438 453V445.357H422.488V453H420.438ZM421.463 444.359C421.153 444.359 420.889 444.257 420.67 444.052C420.451 443.847 420.342 443.598 420.342 443.307C420.342 443.015 420.451 442.767 420.67 442.562C420.889 442.356 421.153 442.254 421.463 442.254C421.773 442.254 422.037 442.356 422.256 442.562C422.479 442.767 422.591 443.015 422.591 443.307C422.591 443.598 422.479 443.847 422.256 444.052C422.037 444.257 421.773 444.359 421.463 444.359ZM427.034 453.13C426.446 453.13 425.918 452.979 425.448 452.679C424.979 452.373 424.605 451.929 424.327 451.346C424.054 450.758 423.917 450.04 423.917 449.192C423.917 448.322 424.058 447.595 424.341 447.012C424.623 446.428 424.999 445.991 425.469 445.699C425.938 445.408 426.455 445.262 427.021 445.262C427.453 445.262 427.813 445.335 428.101 445.48C428.388 445.626 428.618 445.806 428.791 446.021C428.969 446.235 429.103 446.442 429.194 446.643H429.263V442.814H431.313V453H429.297V451.776H429.194C429.099 451.981 428.962 452.189 428.784 452.398C428.606 452.604 428.374 452.777 428.087 452.918C427.8 453.059 427.449 453.13 427.034 453.13ZM427.663 451.482C428.183 451.482 428.586 451.273 428.873 450.854C429.16 450.434 429.304 449.878 429.304 449.186C429.304 448.493 429.16 447.939 428.873 447.524C428.59 447.11 428.187 446.902 427.663 446.902C427.125 446.902 426.717 447.117 426.439 447.545C426.161 447.969 426.022 448.516 426.022 449.186C426.022 449.86 426.161 450.411 426.439 450.84C426.722 451.268 427.13 451.482 427.663 451.482ZM436.468 456.021C435.511 456.021 434.741 455.846 434.157 455.495C433.574 455.144 433.198 454.695 433.029 454.148L434.793 453.656C434.889 453.87 435.064 454.069 435.319 454.251C435.579 454.438 435.957 454.531 436.454 454.531C436.974 454.531 437.384 454.41 437.685 454.169C437.985 453.932 438.136 453.561 438.136 453.055V451.646H437.979C437.837 451.956 437.603 452.241 437.274 452.501C436.951 452.761 436.479 452.891 435.859 452.891C435.285 452.891 434.763 452.756 434.294 452.487C433.825 452.218 433.449 451.808 433.166 451.257C432.888 450.705 432.749 450.008 432.749 449.165C432.749 448.304 432.89 447.584 433.173 447.005C433.46 446.426 433.838 445.991 434.308 445.699C434.782 445.408 435.301 445.262 435.866 445.262C436.295 445.262 436.655 445.335 436.946 445.48C437.238 445.626 437.473 445.806 437.65 446.021C437.833 446.235 437.969 446.442 438.061 446.643H438.149V445.357H440.166V452.938C440.166 453.627 440.007 454.199 439.688 454.654C439.373 455.115 438.936 455.456 438.375 455.68C437.819 455.908 437.183 456.021 436.468 456.021ZM436.502 451.332C437.026 451.332 437.429 451.141 437.712 450.758C437.999 450.37 438.143 449.835 438.143 449.151C438.143 448.472 438.001 447.928 437.719 447.518C437.436 447.107 437.031 446.902 436.502 446.902C435.964 446.902 435.554 447.114 435.271 447.538C434.993 447.957 434.854 448.495 434.854 449.151C434.854 449.821 434.996 450.352 435.278 450.744C435.561 451.136 435.969 451.332 436.502 451.332ZM445.368 453.15C444.589 453.15 443.917 452.991 443.352 452.672C442.786 452.353 442.351 451.899 442.046 451.312C441.745 450.724 441.595 450.026 441.595 449.22C441.595 448.431 441.745 447.741 442.046 447.148C442.351 446.556 442.777 446.093 443.324 445.761C443.876 445.428 444.523 445.262 445.266 445.262C445.931 445.262 446.535 445.403 447.077 445.686C447.619 445.968 448.05 446.396 448.369 446.971C448.693 447.545 448.854 448.267 448.854 449.138V449.712H443.625C443.648 450.336 443.821 450.808 444.145 451.127C444.468 451.446 444.887 451.605 445.402 451.605C445.762 451.605 446.07 451.53 446.325 451.38C446.585 451.225 446.77 450.999 446.879 450.703L448.738 451.052C448.551 451.685 448.164 452.193 447.576 452.576C446.993 452.959 446.257 453.15 445.368 453.15ZM443.639 448.427H446.879C446.829 447.93 446.669 447.536 446.4 447.244C446.132 446.952 445.76 446.807 445.286 446.807C444.794 446.807 444.407 446.959 444.124 447.265C443.841 447.565 443.68 447.953 443.639 448.427Z" fill="#12141E"/>
<rect x="287" y="538" width="238" height="50" rx="3" fill="white"/>
<rect x="287" y="538" width="238" height="50" rx="3" stroke="#B6B9C9" stroke-width="2"/>
<path d="M376.243 568.15C375.017 568.15 374.037 567.87 373.304 567.31C372.575 566.744 372.196 565.922 372.169 564.842H374.199C374.236 565.357 374.441 565.744 374.814 566.004C375.193 566.259 375.662 566.387 376.223 566.387C376.779 566.387 377.225 566.268 377.562 566.031C377.904 565.79 378.075 565.475 378.075 565.088C378.075 564.737 377.92 564.468 377.61 564.281C377.305 564.094 376.874 563.933 376.318 563.796L375.197 563.516C374.336 563.306 373.661 562.978 373.174 562.531C372.686 562.08 372.442 561.485 372.442 560.747C372.442 560.132 372.606 559.594 372.935 559.134C373.267 558.674 373.721 558.316 374.295 558.061C374.874 557.805 375.532 557.678 376.271 557.678C377.022 557.678 377.679 557.808 378.239 558.067C378.8 558.323 379.237 558.68 379.552 559.141C379.866 559.596 380.028 560.123 380.037 560.72H378.021C377.984 560.31 377.809 559.993 377.494 559.77C377.184 559.546 376.77 559.435 376.25 559.435C375.717 559.435 375.304 559.546 375.013 559.77C374.726 559.988 374.582 560.269 374.582 560.61C374.582 560.989 374.744 561.271 375.067 561.458C375.396 561.645 375.776 561.791 376.209 561.896L377.132 562.121C377.701 562.253 378.216 562.445 378.677 562.695C379.137 562.941 379.502 563.263 379.771 563.659C380.039 564.051 380.174 564.532 380.174 565.102C380.174 566.027 379.827 566.767 379.135 567.323C378.447 567.875 377.483 568.15 376.243 568.15ZM383.688 563.577V568H381.637V557.814H383.646V561.82C383.87 561.324 384.173 560.941 384.556 560.672C384.938 560.398 385.412 560.262 385.978 560.262C386.771 560.262 387.406 560.517 387.885 561.027C388.368 561.538 388.609 562.242 388.609 563.14V568H386.552V563.495C386.552 563.021 386.429 562.65 386.183 562.381C385.941 562.112 385.604 561.978 385.171 561.978C384.733 561.978 384.376 562.119 384.098 562.401C383.824 562.679 383.688 563.071 383.688 563.577ZM393.777 568.15C393.012 568.15 392.349 567.986 391.788 567.658C391.228 567.326 390.795 566.865 390.489 566.277C390.188 565.685 390.038 564.997 390.038 564.213C390.038 563.424 390.188 562.734 390.489 562.142C390.795 561.549 391.228 561.089 391.788 560.761C392.349 560.428 393.012 560.262 393.777 560.262C394.543 560.262 395.206 560.428 395.767 560.761C396.327 561.089 396.758 561.549 397.059 562.142C397.364 562.734 397.517 563.424 397.517 564.213C397.517 564.997 397.364 565.685 397.059 566.277C396.758 566.865 396.327 567.326 395.767 567.658C395.206 567.986 394.543 568.15 393.777 568.15ZM393.777 566.537C394.324 566.537 394.737 566.316 395.015 565.874C395.293 565.432 395.432 564.876 395.432 564.206C395.432 563.532 395.293 562.976 395.015 562.538C394.737 562.096 394.324 561.875 393.777 561.875C393.23 561.875 392.818 562.096 392.54 562.538C392.267 562.976 392.13 563.532 392.13 564.206C392.13 564.876 392.267 565.432 392.54 565.874C392.818 566.316 393.23 566.537 393.777 566.537ZM398.945 570.857V560.357H400.962V561.643H401.058C401.149 561.442 401.281 561.235 401.454 561.021C401.632 560.806 401.864 560.626 402.151 560.48C402.443 560.335 402.805 560.262 403.238 560.262C403.803 560.262 404.321 560.408 404.79 560.699C405.259 560.991 405.633 561.428 405.911 562.012C406.194 562.595 406.335 563.322 406.335 564.192C406.335 565.04 406.198 565.758 405.925 566.346C405.651 566.929 405.28 567.373 404.811 567.679C404.341 567.979 403.812 568.13 403.225 568.13C402.81 568.13 402.459 568.059 402.172 567.918C401.885 567.777 401.65 567.604 401.468 567.398C401.29 567.189 401.153 566.981 401.058 566.776H400.996V570.857H398.945ZM402.596 566.482C403.129 566.482 403.535 566.268 403.812 565.84C404.095 565.411 404.236 564.86 404.236 564.186C404.236 563.516 404.097 562.969 403.819 562.545C403.541 562.117 403.133 561.902 402.596 561.902C402.067 561.902 401.659 562.11 401.372 562.524C401.09 562.939 400.948 563.493 400.948 564.186C400.948 564.878 401.092 565.434 401.379 565.854C401.666 566.273 402.072 566.482 402.596 566.482ZM409.179 568L406.923 560.357H409.076L409.739 563.181C409.83 563.604 409.931 564.06 410.04 564.548C410.149 565.035 410.257 565.564 410.361 566.134C410.466 565.578 410.576 565.056 410.689 564.568C410.808 564.076 410.92 563.614 411.024 563.181L411.722 560.357H413.608L414.292 563.181C414.388 563.614 414.493 564.074 414.606 564.562C414.725 565.049 414.839 565.576 414.948 566.141C415.044 565.576 415.144 565.049 415.249 564.562C415.354 564.074 415.456 563.614 415.557 563.181L416.22 560.357H418.4L416.131 568H414.046L413.198 565.054C413.103 564.726 413.009 564.356 412.918 563.946C412.831 563.536 412.743 563.131 412.651 562.729C412.565 563.131 412.476 563.538 412.385 563.953C412.294 564.363 412.202 564.73 412.111 565.054L411.264 568H409.179ZM421.586 568.15C420.857 568.15 420.251 567.959 419.768 567.576C419.285 567.189 419.043 566.617 419.043 565.86C419.043 565.291 419.18 564.844 419.453 564.521C419.727 564.197 420.082 563.96 420.52 563.81C420.957 563.659 421.426 563.561 421.928 563.516C422.584 563.452 423.056 563.386 423.343 563.317C423.634 563.244 423.78 563.083 423.78 562.832V562.798C423.78 562.474 423.675 562.224 423.466 562.046C423.261 561.868 422.967 561.779 422.584 561.779C422.188 561.779 421.868 561.866 421.627 562.039C421.385 562.208 421.224 562.415 421.142 562.661L419.262 562.347C419.458 561.686 419.847 561.173 420.431 560.809C421.019 560.444 421.739 560.262 422.591 560.262C423.138 560.262 423.657 560.348 424.149 560.521C424.646 560.695 425.049 560.973 425.359 561.355C425.674 561.734 425.831 562.233 425.831 562.853V568H423.89V566.94H423.821C423.634 567.296 423.356 567.588 422.987 567.815C422.618 568.039 422.151 568.15 421.586 568.15ZM422.167 566.708C422.646 566.708 423.035 566.569 423.336 566.291C423.641 566.013 423.794 565.671 423.794 565.266V564.438C423.712 564.498 423.577 564.55 423.391 564.596C423.208 564.637 423.015 564.675 422.81 564.712C422.604 564.744 422.427 564.769 422.276 564.787C421.898 564.842 421.593 564.949 421.36 565.108C421.128 565.268 421.012 565.5 421.012 565.806C421.012 566.102 421.119 566.327 421.333 566.482C421.552 566.633 421.83 566.708 422.167 566.708ZM427.588 568V560.357H429.57V561.69H429.652C429.794 561.221 430.028 560.866 430.356 560.624C430.689 560.378 431.07 560.255 431.498 560.255C431.73 560.255 431.951 560.278 432.161 560.323V562.155C432.07 562.128 431.936 562.105 431.758 562.087C431.585 562.064 431.423 562.053 431.272 562.053C430.799 562.053 430.407 562.201 430.097 562.497C429.791 562.793 429.639 563.178 429.639 563.652V568H427.588ZM436.399 568.15C435.62 568.15 434.948 567.991 434.383 567.672C433.818 567.353 433.382 566.899 433.077 566.312C432.776 565.724 432.626 565.026 432.626 564.22C432.626 563.431 432.776 562.741 433.077 562.148C433.382 561.556 433.809 561.093 434.355 560.761C434.907 560.428 435.554 560.262 436.297 560.262C436.962 560.262 437.566 560.403 438.108 560.686C438.651 560.968 439.081 561.396 439.4 561.971C439.724 562.545 439.886 563.267 439.886 564.138V564.712H434.656C434.679 565.336 434.852 565.808 435.176 566.127C435.499 566.446 435.919 566.605 436.434 566.605C436.794 566.605 437.101 566.53 437.356 566.38C437.616 566.225 437.801 565.999 437.91 565.703L439.77 566.052C439.583 566.685 439.195 567.193 438.607 567.576C438.024 567.959 437.288 568.15 436.399 568.15ZM434.67 563.427H437.91C437.86 562.93 437.701 562.536 437.432 562.244C437.163 561.952 436.791 561.807 436.317 561.807C435.825 561.807 435.438 561.959 435.155 562.265C434.873 562.565 434.711 562.953 434.67 563.427Z" fill="#12141E"/>
<rect x="677" y="354" width="238" height="50" rx="3" fill="white"/>
<rect x="677" y="354" width="238" height="50" rx="3" stroke="#B6B9C9" stroke-width="2"/>
<path d="M749.058 384V373.814H753.098C754.214 373.814 755.053 374.061 755.613 374.553C756.178 375.045 756.461 375.672 756.461 376.433C756.461 377.034 756.285 377.52 755.935 377.889C755.588 378.258 755.153 378.502 754.629 378.62V378.723C755.012 378.741 755.372 378.85 755.709 379.051C756.051 379.251 756.326 379.534 756.536 379.898C756.75 380.258 756.857 380.689 756.857 381.19C756.857 381.728 756.725 382.209 756.461 382.633C756.197 383.057 755.805 383.392 755.285 383.638C754.766 383.879 754.123 384 753.357 384H749.058ZM751.143 382.284H752.947C753.562 382.284 754.009 382.166 754.287 381.929C754.57 381.692 754.711 381.38 754.711 380.992C754.711 380.568 754.556 380.217 754.246 379.939C753.941 379.661 753.526 379.522 753.002 379.522H751.143V382.284ZM751.143 378.094H752.79C753.237 378.094 753.608 377.975 753.904 377.738C754.201 377.501 754.349 377.178 754.349 376.768C754.349 376.398 754.216 376.098 753.952 375.865C753.692 375.633 753.319 375.517 752.831 375.517H751.143V378.094ZM758.252 384V382.496L761.861 379.112C762.322 378.661 762.675 378.269 762.921 377.937C763.172 377.599 763.297 377.226 763.297 376.815C763.297 376.36 763.146 376.002 762.846 375.742C762.549 375.478 762.174 375.346 761.718 375.346C761.244 375.346 760.863 375.487 760.576 375.77C760.294 376.052 760.152 376.442 760.152 376.938H758.156C758.156 376.278 758.307 375.703 758.607 375.216C758.913 374.724 759.334 374.345 759.872 374.081C760.41 373.812 761.03 373.678 761.731 373.678C762.451 373.678 763.08 373.808 763.618 374.067C764.156 374.323 764.573 374.676 764.869 375.127C765.17 375.578 765.32 376.098 765.32 376.686C765.32 377.064 765.245 377.438 765.095 377.807C764.949 378.176 764.685 378.59 764.302 379.051C763.924 379.507 763.386 380.053 762.688 380.691L761.15 382.209V382.284H765.457V384H758.252ZM767.146 384V373.814H771.186C772.302 373.814 773.141 374.061 773.701 374.553C774.266 375.045 774.549 375.672 774.549 376.433C774.549 377.034 774.373 377.52 774.022 377.889C773.676 378.258 773.241 378.502 772.717 378.62V378.723C773.1 378.741 773.46 378.85 773.797 379.051C774.139 379.251 774.414 379.534 774.624 379.898C774.838 380.258 774.945 380.689 774.945 381.19C774.945 381.728 774.813 382.209 774.549 382.633C774.285 383.057 773.893 383.392 773.373 383.638C772.854 383.879 772.211 384 771.445 384H767.146ZM769.23 382.284H771.035C771.65 382.284 772.097 382.166 772.375 381.929C772.658 381.692 772.799 381.38 772.799 380.992C772.799 380.568 772.644 380.217 772.334 379.939C772.029 379.661 771.614 379.522 771.09 379.522H769.23V382.284ZM769.23 378.094H770.878C771.325 378.094 771.696 377.975 771.992 377.738C772.288 377.501 772.437 377.178 772.437 376.768C772.437 376.398 772.304 376.098 772.04 375.865C771.78 375.633 771.407 375.517 770.919 375.517H769.23V378.094ZM781.084 378.094V379.734H776.449V378.094H781.084ZM787.414 384.137C786.507 384.137 785.698 383.932 784.987 383.521C784.276 383.111 783.714 382.517 783.299 381.737C782.889 380.958 782.684 380.017 782.684 378.914C782.684 377.807 782.891 376.863 783.306 376.084C783.72 375.3 784.285 374.703 785.001 374.293C785.716 373.883 786.521 373.678 787.414 373.678C788.184 373.678 788.882 373.821 789.506 374.108C790.13 374.391 790.643 374.803 791.044 375.346C791.445 375.883 791.696 376.533 791.796 377.294H789.684C789.588 376.743 789.337 376.312 788.932 376.002C788.531 375.688 788.038 375.53 787.455 375.53C786.662 375.53 786.022 375.824 785.534 376.412C785.047 377 784.803 377.834 784.803 378.914C784.803 380.017 785.047 380.855 785.534 381.43C786.026 381.999 786.664 382.284 787.448 382.284C788.027 382.284 788.519 382.129 788.925 381.819C789.335 381.505 789.59 381.07 789.69 380.514H791.803C791.725 381.147 791.502 381.74 791.133 382.291C790.764 382.838 790.265 383.282 789.636 383.624C789.011 383.966 788.271 384.137 787.414 384.137ZM796.697 384.15C795.932 384.15 795.269 383.986 794.708 383.658C794.147 383.326 793.715 382.865 793.409 382.277C793.108 381.685 792.958 380.997 792.958 380.213C792.958 379.424 793.108 378.734 793.409 378.142C793.715 377.549 794.147 377.089 794.708 376.761C795.269 376.428 795.932 376.262 796.697 376.262C797.463 376.262 798.126 376.428 798.687 376.761C799.247 377.089 799.678 377.549 799.979 378.142C800.284 378.734 800.437 379.424 800.437 380.213C800.437 380.997 800.284 381.685 799.979 382.277C799.678 382.865 799.247 383.326 798.687 383.658C798.126 383.986 797.463 384.15 796.697 384.15ZM796.697 382.537C797.244 382.537 797.657 382.316 797.935 381.874C798.213 381.432 798.352 380.876 798.352 380.206C798.352 379.532 798.213 378.976 797.935 378.538C797.657 378.096 797.244 377.875 796.697 377.875C796.15 377.875 795.738 378.096 795.46 378.538C795.187 378.976 795.05 379.532 795.05 380.206C795.05 380.876 795.187 381.432 795.46 381.874C795.738 382.316 796.15 382.537 796.697 382.537ZM801.865 384V376.357H803.766L803.848 377.841C804.053 377.285 804.354 376.879 804.75 376.624C805.146 376.369 805.573 376.241 806.028 376.241C806.994 376.241 807.651 376.813 807.997 377.957C808.211 377.369 808.542 376.936 808.988 376.658C809.439 376.38 809.927 376.241 810.451 376.241C811.153 376.241 811.734 376.469 812.194 376.925C812.659 377.376 812.892 378.016 812.892 378.846V384H810.834V379.235C810.834 378.807 810.718 378.488 810.485 378.278C810.253 378.064 809.966 377.957 809.624 377.957C809.237 377.957 808.929 378.08 808.701 378.326C808.478 378.572 808.366 378.896 808.366 379.297V384H806.384V379.181C806.384 378.807 806.272 378.511 806.049 378.292C805.83 378.069 805.545 377.957 805.194 377.957C804.834 377.957 804.531 378.08 804.285 378.326C804.039 378.568 803.916 378.919 803.916 379.379V384H801.865ZM814.648 384V376.357H816.549L816.631 377.841C816.836 377.285 817.137 376.879 817.533 376.624C817.93 376.369 818.356 376.241 818.812 376.241C819.778 376.241 820.434 376.813 820.78 377.957C820.994 377.369 821.325 376.936 821.771 376.658C822.223 376.38 822.71 376.241 823.234 376.241C823.936 376.241 824.517 376.469 824.978 376.925C825.442 377.376 825.675 378.016 825.675 378.846V384H823.617V379.235C823.617 378.807 823.501 378.488 823.269 378.278C823.036 378.064 822.749 377.957 822.407 377.957C822.02 377.957 821.712 378.08 821.484 378.326C821.261 378.572 821.149 378.896 821.149 379.297V384H819.167V379.181C819.167 378.807 819.055 378.511 818.832 378.292C818.613 378.069 818.328 377.957 817.978 377.957C817.618 377.957 817.314 378.08 817.068 378.326C816.822 378.568 816.699 378.919 816.699 379.379V384H814.648ZM830.85 384.15C830.084 384.15 829.421 383.986 828.86 383.658C828.3 383.326 827.867 382.865 827.562 382.277C827.261 381.685 827.11 380.997 827.11 380.213C827.11 379.424 827.261 378.734 827.562 378.142C827.867 377.549 828.3 377.089 828.86 376.761C829.421 376.428 830.084 376.262 830.85 376.262C831.615 376.262 832.278 376.428 832.839 376.761C833.399 377.089 833.83 377.549 834.131 378.142C834.436 378.734 834.589 379.424 834.589 380.213C834.589 380.997 834.436 381.685 834.131 382.277C833.83 382.865 833.399 383.326 832.839 383.658C832.278 383.986 831.615 384.15 830.85 384.15ZM830.85 382.537C831.396 382.537 831.809 382.316 832.087 381.874C832.365 381.432 832.504 380.876 832.504 380.206C832.504 379.532 832.365 378.976 832.087 378.538C831.809 378.096 831.396 377.875 830.85 377.875C830.303 377.875 829.89 378.096 829.612 378.538C829.339 378.976 829.202 379.532 829.202 380.206C829.202 380.876 829.339 381.432 829.612 381.874C829.89 382.316 830.303 382.537 830.85 382.537ZM838.068 379.577V384H836.018V376.357H837.952L837.979 377.937C838.194 377.403 838.497 376.991 838.889 376.699C839.281 376.408 839.771 376.262 840.358 376.262C841.151 376.262 841.787 376.517 842.266 377.027C842.744 377.538 842.983 378.242 842.983 379.14V384H840.933V379.495C840.933 379.021 840.81 378.65 840.563 378.381C840.322 378.112 839.985 377.978 839.552 377.978C839.114 377.978 838.757 378.119 838.479 378.401C838.205 378.679 838.068 379.071 838.068 379.577Z" fill="#12141E"/>
<path d="M384.293 80.2929C384.683 79.9024 385.317 79.9024 385.707 80.2929L392.071 86.6569C392.462 87.0474 392.462 87.6806 392.071 88.0711C391.681 88.4616 391.047 88.4616 390.657 88.0711L385 82.4142L379.343 88.0711C378.953 88.4616 378.319 88.4616 377.929 88.0711C377.538 87.6806 377.538 87.0474 377.929 86.6569L384.293 80.2929ZM338 176H377V178H338V176ZM384 169V81H386V169H384ZM377 176C380.866 176 384 172.866 384 169H386C386 173.971 381.971 178 377 178V176Z" fill="#B6B9C9"/>
<path d="M427.707 80.2929C427.317 79.9024 426.683 79.9024 426.293 80.2929L419.929 86.6569C419.538 87.0474 419.538 87.6806 419.929 88.0711C420.319 88.4616 420.953 88.4616 421.343 88.0711L427 82.4142L432.657 88.0711C433.047 88.4616 433.681 88.4616 434.071 88.0711C434.462 87.6806 434.462 87.0474 434.071 86.6569L427.707 80.2929ZM474 176H435V178H474V176ZM428 169V81H426V169H428ZM435 176C431.134 176 428 172.866 428 169H426C426 173.971 430.029 178 435 178V176Z" fill="#B6B9C9"/>
<path d="M337.293 198.707C336.902 198.317 336.902 197.683 337.293 197.293L343.657 190.929C344.047 190.538 344.681 190.538 345.071 190.929C345.462 191.319 345.462 191.953 345.071 192.343L339.414 198L345.071 203.657C345.462 204.047 345.462 204.681 345.071 205.071C344.681 205.462 344.047 205.462 343.657 205.071L337.293 198.707ZM384 293V206H386V293H384ZM377 199H338V197H377V199ZM384 206C384 202.134 380.866 199 377 199V197C381.971 197 386 201.029 386 206H384Z" fill="#B6B9C9"/>
<path d="M474.707 198.707C475.098 198.317 475.098 197.683 474.707 197.293L468.343 190.929C467.953 190.538 467.319 190.538 466.929 190.929C466.538 191.319 466.538 191.953 466.929 192.343L472.586 198L466.929 203.657C466.538 204.047 466.538 204.681 466.929 205.071C467.319 205.462 467.953 205.462 468.343 205.071L474.707 198.707ZM428 293V206H426V293H428ZM435 199H474V197H435V199ZM428 206C428 202.134 431.134 199 435 199V197C430.029 197 426 201.029 426 206H428Z" fill="#B6B9C9"/>
<path d="M405.293 422.707C405.683 423.098 406.317 423.098 406.707 422.707L413.071 416.343C413.462 415.953 413.462 415.319 413.071 414.929C412.681 414.538 412.047 414.538 411.657 414.929L406 420.586L400.343 414.929C399.953 414.538 399.319 414.538 398.929 414.929C398.538 415.319 398.538 415.953 398.929 416.343L405.293 422.707ZM405 343L405 422L407 422L407 343L405 343Z" fill="#B6B9C9"/>
<path d="M406.707 473.293C406.317 472.902 405.683 472.902 405.293 473.293L398.929 479.657C398.538 480.047 398.538 480.681 398.929 481.071C399.319 481.462 399.953 481.462 400.343 481.071L406 475.414L411.657 481.071C412.047 481.462 412.681 481.462 413.071 481.071C413.462 480.681 413.462 480.047 413.071 479.657L406.707 473.293ZM407 537L407 474L405 474L405 537L407 537Z" fill="#B6B9C9"/>
<path d="M525.293 447.293C524.902 447.683 524.902 448.317 525.293 448.707L531.657 455.071C532.047 455.462 532.681 455.462 533.071 455.071C533.462 454.681 533.462 454.047 533.071 453.657L527.414 448L533.071 442.343C533.462 441.953 533.462 441.319 533.071 440.929C532.681 440.538 532.047 440.538 531.657 440.929L525.293 447.293ZM795 405V440H797V405H795ZM788 447L526 447V449L788 449V447ZM795 440C795 443.866 791.866 447 788 447V449C792.971 449 797 444.971 797 440H795Z" fill="#B6B9C9"/>
<path d="M525.293 319.707C524.902 319.317 524.902 318.683 525.293 318.293L531.657 311.929C532.047 311.538 532.681 311.538 533.071 311.929C533.462 312.319 533.462 312.953 533.071 313.343L527.414 319L533.071 324.657C533.462 325.047 533.462 325.681 533.071 326.071C532.681 326.462 532.047 326.462 531.657 326.071L525.293 319.707ZM774 355V327H776V355H774ZM767 320H526V318H767V320ZM774 327C774 323.134 770.866 320 767 320V318C771.971 318 776 322.029 776 327H774Z" fill="#B6B9C9"/>
<path d="M713.293 186.707C712.902 186.317 712.902 185.683 713.293 185.293L719.657 178.929C720.047 178.538 720.681 178.538 721.071 178.929C721.462 179.319 721.462 179.953 721.071 180.343L715.414 186L721.071 191.657C721.462 192.047 721.462 192.681 721.071 193.071C720.681 193.462 720.047 193.462 719.657 193.071L713.293 186.707ZM817 353V194H819V353H817ZM810 187H714V185H810V187ZM817 194C817 190.134 813.866 187 810 187V185C814.971 185 819 189.029 819 194H817Z" fill="#B6B9C9"/>
<path d="M286 563H55C50.5817 563 47 559.418 47 555V125" stroke="#B6B9C9" stroke-width="2"/>
<path d="M286.707 55.7071C287.098 55.3166 287.098 54.6834 286.707 54.2929L280.343 47.9289C279.953 47.5384 279.319 47.5384 278.929 47.9289C278.538 48.3195 278.538 48.9526 278.929 49.3431L284.586 55L278.929 60.6569C278.538 61.0474 278.538 61.6805 278.929 62.0711C279.319 62.4616 279.953 62.4616 280.343 62.0711L286.707 55.7071ZM48 125L48 63H46L46 125H48ZM55 56L286 56V54L55 54V56ZM48 63C48 59.134 51.134 56 55 56V54C50.0294 54 46 58.0294 46 63H48Z" fill="#B6B9C9"/>
</svg>
