<svg width="1277" height="350" viewBox="0 0 1277 350" fill="none" xmlns="http://www.w3.org/2000/svg">
<g clip-path="url(#clip0_398_1486)">
<rect x="1" y="1" width="238" height="50" rx="3" fill="white"/>
<rect x="1" y="1" width="238" height="50" rx="3" stroke="#B6B9C9" stroke-width="2"/>
<path d="M79.0596 31V20.8145H81.1445V29.2705H85.54V31H79.0596ZM86.9277 31V23.3574H88.9785V31H86.9277ZM87.9531 22.3594C87.6432 22.3594 87.3789 22.2568 87.1602 22.0518C86.9414 21.8467 86.832 21.5983 86.832 21.3066C86.832 21.015 86.9414 20.7666 87.1602 20.5615C87.3789 20.3564 87.6432 20.2539 87.9531 20.2539C88.263 20.2539 88.5273 20.3564 88.7461 20.5615C88.9694 20.7666 89.0811 21.015 89.0811 21.3066C89.0811 21.5983 88.9694 21.8467 88.7461 22.0518C88.5273 22.2568 88.263 22.3594 87.9531 22.3594ZM92.7793 26.5771V31H90.7285V23.3574H92.6631L92.6904 24.9365C92.9046 24.4033 93.2077 23.9909 93.5996 23.6992C93.9915 23.4076 94.4814 23.2617 95.0693 23.2617C95.8623 23.2617 96.498 23.5169 96.9766 24.0273C97.4551 24.5378 97.6943 25.2419 97.6943 26.1396V31H95.6436V26.4951C95.6436 26.0212 95.5205 25.6497 95.2744 25.3809C95.0329 25.112 94.6956 24.9775 94.2627 24.9775C93.8252 24.9775 93.4674 25.1188 93.1895 25.4014C92.916 25.6794 92.7793 26.0713 92.7793 26.5771ZM102.903 31.1504C102.124 31.1504 101.452 30.9909 100.887 30.6719C100.322 30.3529 99.8864 29.8994 99.5811 29.3115C99.2803 28.7236 99.1299 28.0264 99.1299 27.2197C99.1299 26.4313 99.2803 25.7409 99.5811 25.1484C99.8864 24.556 100.312 24.0934 100.859 23.7607C101.411 23.4281 102.058 23.2617 102.801 23.2617C103.466 23.2617 104.07 23.403 104.612 23.6855C105.155 23.9681 105.585 24.3965 105.904 24.9707C106.228 25.5449 106.39 26.2673 106.39 27.1377V27.7119H101.16C101.183 28.3363 101.356 28.8079 101.68 29.127C102.003 29.446 102.423 29.6055 102.938 29.6055C103.298 29.6055 103.605 29.5303 103.86 29.3799C104.12 29.2249 104.305 28.9993 104.414 28.7031L106.273 29.0518C106.087 29.6852 105.699 30.1934 105.111 30.5762C104.528 30.959 103.792 31.1504 102.903 31.1504ZM101.174 26.4268H104.414C104.364 25.93 104.204 25.5358 103.936 25.2441C103.667 24.9525 103.295 24.8066 102.821 24.8066C102.329 24.8066 101.942 24.9593 101.659 25.2646C101.377 25.5654 101.215 25.9528 101.174 26.4268ZM109.924 20.8145V31H107.839V20.8145H109.924ZM115.728 23.3574V24.9229H114.299V28.7646C114.299 29.2386 114.531 29.4756 114.996 29.4756C115.074 29.4756 115.181 29.4665 115.317 29.4482C115.459 29.4255 115.568 29.4049 115.646 29.3867L115.939 30.9248C115.712 30.9932 115.484 31.041 115.256 31.0684C115.033 31.0957 114.818 31.1094 114.613 31.1094C113.848 31.1094 113.262 30.9248 112.856 30.5557C112.451 30.182 112.248 29.6442 112.248 28.9424V24.9229H111.195V23.3574H112.248V21.5391H114.299V23.3574H115.728ZM120.376 31.1504C119.597 31.1504 118.924 30.9909 118.359 30.6719C117.794 30.3529 117.359 29.8994 117.054 29.3115C116.753 28.7236 116.603 28.0264 116.603 27.2197C116.603 26.4313 116.753 25.7409 117.054 25.1484C117.359 24.556 117.785 24.0934 118.332 23.7607C118.883 23.4281 119.531 23.2617 120.273 23.2617C120.939 23.2617 121.543 23.403 122.085 23.6855C122.627 23.9681 123.058 24.3965 123.377 24.9707C123.701 25.5449 123.862 26.2673 123.862 27.1377V27.7119H118.633C118.656 28.3363 118.829 28.8079 119.152 29.127C119.476 29.446 119.895 29.6055 120.41 29.6055C120.77 29.6055 121.078 29.5303 121.333 29.3799C121.593 29.2249 121.777 28.9993 121.887 28.7031L123.746 29.0518C123.559 29.6852 123.172 30.1934 122.584 30.5762C122.001 30.959 121.265 31.1504 120.376 31.1504ZM118.646 26.4268H121.887C121.837 25.93 121.677 25.5358 121.408 25.2441C121.139 24.9525 120.768 24.8066 120.294 24.8066C119.802 24.8066 119.414 24.9593 119.132 25.2646C118.849 25.5654 118.688 25.9528 118.646 26.4268ZM125.264 31V23.3574H127.164L127.246 24.8408C127.451 24.2848 127.752 23.8792 128.148 23.624C128.545 23.3688 128.971 23.2412 129.427 23.2412C130.393 23.2412 131.049 23.8132 131.396 24.957C131.61 24.3691 131.94 23.9362 132.387 23.6582C132.838 23.3802 133.326 23.2412 133.85 23.2412C134.551 23.2412 135.132 23.4691 135.593 23.9248C136.058 24.376 136.29 25.0163 136.29 25.8457V31H134.232V26.2354C134.232 25.807 134.116 25.488 133.884 25.2783C133.651 25.0641 133.364 24.957 133.022 24.957C132.635 24.957 132.327 25.0801 132.1 25.3262C131.876 25.5723 131.765 25.8958 131.765 26.2969V31H129.782V26.1807C129.782 25.807 129.671 25.5107 129.447 25.292C129.229 25.0687 128.944 24.957 128.593 24.957C128.233 24.957 127.93 25.0801 127.684 25.3262C127.438 25.5677 127.314 25.9186 127.314 26.3789V31H125.264ZM138.095 31V20.8145H140.18V29.2705H144.575V31H138.095ZM145.963 31V23.3574H148.014V31H145.963ZM146.988 22.3594C146.678 22.3594 146.414 22.2568 146.195 22.0518C145.977 21.8467 145.867 21.5983 145.867 21.3066C145.867 21.015 145.977 20.7666 146.195 20.5615C146.414 20.3564 146.678 20.2539 146.988 20.2539C147.298 20.2539 147.562 20.3564 147.781 20.5615C148.005 20.7666 148.116 21.015 148.116 21.3066C148.116 21.5983 148.005 21.8467 147.781 22.0518C147.562 22.2568 147.298 22.3594 146.988 22.3594ZM152.799 31.1504C151.878 31.1504 151.117 30.9544 150.516 30.5625C149.919 30.1706 149.554 29.6191 149.422 28.9082L151.329 28.5801C151.525 29.291 152.035 29.6465 152.86 29.6465C153.252 29.6465 153.56 29.5736 153.783 29.4277C154.011 29.2773 154.125 29.0882 154.125 28.8604C154.125 28.473 153.797 28.2109 153.141 28.0742L151.821 27.8008C150.354 27.5 149.62 26.7777 149.62 25.6338C149.62 24.9001 149.914 24.3213 150.502 23.8975C151.09 23.4736 151.867 23.2617 152.833 23.2617C153.74 23.2617 154.462 23.4463 155 23.8154C155.538 24.1846 155.877 24.679 156.019 25.2988L154.2 25.6201C154.118 25.3604 153.968 25.1484 153.749 24.9844C153.53 24.8158 153.234 24.7314 152.86 24.7314C152.523 24.7314 152.241 24.8044 152.013 24.9502C151.785 25.0915 151.671 25.276 151.671 25.5039C151.671 25.6953 151.744 25.8594 151.89 25.9961C152.04 26.1283 152.295 26.2308 152.655 26.3037L154.029 26.5771C155.488 26.8734 156.217 27.5615 156.217 28.6416C156.217 29.1429 156.071 29.5827 155.779 29.9609C155.488 30.3346 155.084 30.6263 154.569 30.8359C154.054 31.0456 153.464 31.1504 152.799 31.1504ZM161.405 23.3574V24.9229H159.977V28.7646C159.977 29.2386 160.209 29.4756 160.674 29.4756C160.751 29.4756 160.858 29.4665 160.995 29.4482C161.136 29.4255 161.246 29.4049 161.323 29.3867L161.617 30.9248C161.389 30.9932 161.161 31.041 160.934 31.0684C160.71 31.0957 160.496 31.1094 160.291 31.1094C159.525 31.1094 158.94 30.9248 158.534 30.5557C158.129 30.182 157.926 29.6442 157.926 28.9424V24.9229H156.873V23.3574H157.926V21.5391H159.977V23.3574H161.405Z" fill="#12141E"/>
<rect x="346" y="1" width="238" height="50" rx="3" fill="white"/>
<rect x="346" y="1" width="238" height="50" rx="3" stroke="#B6B9C9" stroke-width="2"/>
<path d="M450.884 31.1367C449.986 31.1367 449.177 30.9316 448.457 30.5215C447.742 30.1113 447.174 29.5166 446.755 28.7373C446.34 27.958 446.133 27.0169 446.133 25.9141C446.133 24.8066 446.34 23.8633 446.755 23.084C447.174 22.3001 447.742 21.7031 448.457 21.293C449.177 20.8828 449.986 20.6777 450.884 20.6777C451.786 20.6777 452.595 20.8828 453.311 21.293C454.026 21.7031 454.591 22.3001 455.006 23.084C455.425 23.8633 455.635 24.8066 455.635 25.9141C455.635 27.0215 455.425 27.9648 455.006 28.7441C454.591 29.5189 454.026 30.1113 453.311 30.5215C452.595 30.9316 451.786 31.1367 450.884 31.1367ZM450.884 29.2842C451.677 29.2842 452.312 28.9971 452.791 28.4229C453.274 27.8441 453.516 27.0078 453.516 25.9141C453.516 24.8158 453.274 23.9772 452.791 23.3984C452.312 22.8197 451.677 22.5303 450.884 22.5303C450.095 22.5303 449.46 22.8219 448.977 23.4053C448.493 23.984 448.252 24.8203 448.252 25.9141C448.252 27.0033 448.493 27.8372 448.977 28.416C449.46 28.9948 450.095 29.2842 450.884 29.2842ZM457.152 31V23.3574H459.135V24.6904H459.217C459.358 24.221 459.593 23.8656 459.921 23.624C460.254 23.3779 460.634 23.2549 461.062 23.2549C461.295 23.2549 461.516 23.2777 461.726 23.3232V25.1553C461.634 25.1279 461.5 25.1051 461.322 25.0869C461.149 25.0641 460.987 25.0527 460.837 25.0527C460.363 25.0527 459.971 25.2008 459.661 25.4971C459.356 25.7933 459.203 26.1784 459.203 26.6523V31H457.152ZM465.308 31.1299C464.72 31.1299 464.191 30.9795 463.722 30.6787C463.252 30.3734 462.879 29.929 462.601 29.3457C462.327 28.7578 462.19 28.04 462.19 27.1924C462.19 26.3219 462.332 25.5951 462.614 25.0117C462.897 24.4284 463.273 23.9909 463.742 23.6992C464.212 23.4076 464.729 23.2617 465.294 23.2617C465.727 23.2617 466.087 23.3346 466.374 23.4805C466.661 23.6263 466.891 23.8063 467.064 24.0205C467.242 24.2347 467.377 24.4421 467.468 24.6426H467.536V20.8145H469.587V31H467.57V29.7764H467.468C467.372 29.9814 467.235 30.1888 467.058 30.3984C466.88 30.6035 466.647 30.7767 466.36 30.918C466.073 31.0592 465.722 31.1299 465.308 31.1299ZM465.937 29.4824C466.456 29.4824 466.859 29.2728 467.146 28.8535C467.434 28.4342 467.577 27.8783 467.577 27.1855C467.577 26.4928 467.434 25.9391 467.146 25.5244C466.864 25.1097 466.461 24.9023 465.937 24.9023C465.399 24.9023 464.991 25.1165 464.713 25.5449C464.435 25.9688 464.296 26.5156 464.296 27.1855C464.296 27.86 464.435 28.4115 464.713 28.8398C464.995 29.2682 465.403 29.4824 465.937 29.4824ZM474.796 31.1504C474.017 31.1504 473.344 30.9909 472.779 30.6719C472.214 30.3529 471.779 29.8994 471.474 29.3115C471.173 28.7236 471.022 28.0264 471.022 27.2197C471.022 26.4313 471.173 25.7409 471.474 25.1484C471.779 24.556 472.205 24.0934 472.752 23.7607C473.303 23.4281 473.951 23.2617 474.693 23.2617C475.359 23.2617 475.963 23.403 476.505 23.6855C477.047 23.9681 477.478 24.3965 477.797 24.9707C478.12 25.5449 478.282 26.2673 478.282 27.1377V27.7119H473.053C473.076 28.3363 473.249 28.8079 473.572 29.127C473.896 29.446 474.315 29.6055 474.83 29.6055C475.19 29.6055 475.498 29.5303 475.753 29.3799C476.013 29.2249 476.197 28.9993 476.307 28.7031L478.166 29.0518C477.979 29.6852 477.592 30.1934 477.004 30.5762C476.421 30.959 475.685 31.1504 474.796 31.1504ZM473.066 26.4268H476.307C476.257 25.93 476.097 25.5358 475.828 25.2441C475.559 24.9525 475.188 24.8066 474.714 24.8066C474.222 24.8066 473.834 24.9593 473.552 25.2646C473.269 25.5654 473.107 25.9528 473.066 26.4268ZM479.684 31V23.3574H481.666V24.6904H481.748C481.889 24.221 482.124 23.8656 482.452 23.624C482.785 23.3779 483.165 23.2549 483.594 23.2549C483.826 23.2549 484.047 23.2777 484.257 23.3232V25.1553C484.166 25.1279 484.031 25.1051 483.854 25.0869C483.68 25.0641 483.519 25.0527 483.368 25.0527C482.894 25.0527 482.502 25.2008 482.192 25.4971C481.887 25.7933 481.734 26.1784 481.734 26.6523V31H479.684Z" fill="#12141E"/>
<rect x="691" y="1" width="238" height="50" rx="3" fill="white"/>
<rect x="691" y="1" width="238" height="50" rx="3" stroke="#B6B9C9" stroke-width="2"/>
<path d="M761.021 31.1367C760.123 31.1367 759.314 30.9316 758.594 30.5215C757.878 30.1113 757.311 29.5166 756.892 28.7373C756.477 27.958 756.27 27.0169 756.27 25.9141C756.27 24.8066 756.477 23.8633 756.892 23.084C757.311 22.3001 757.878 21.7031 758.594 21.293C759.314 20.8828 760.123 20.6777 761.021 20.6777C761.923 20.6777 762.732 20.8828 763.447 21.293C764.163 21.7031 764.728 22.3001 765.143 23.084C765.562 23.8633 765.771 24.8066 765.771 25.9141C765.771 27.0215 765.562 27.9648 765.143 28.7441C764.728 29.5189 764.163 30.1113 763.447 30.5215C762.732 30.9316 761.923 31.1367 761.021 31.1367ZM761.021 29.2842C761.813 29.2842 762.449 28.9971 762.928 28.4229C763.411 27.8441 763.652 27.0078 763.652 25.9141C763.652 24.8158 763.411 23.9772 762.928 23.3984C762.449 22.8197 761.813 22.5303 761.021 22.5303C760.232 22.5303 759.596 22.8219 759.113 23.4053C758.63 23.984 758.389 24.8203 758.389 25.9141C758.389 27.0033 758.63 27.8372 759.113 28.416C759.596 28.9948 760.232 29.2842 761.021 29.2842ZM767.289 31V23.3574H769.271V24.6904H769.354C769.495 24.221 769.729 23.8656 770.058 23.624C770.39 23.3779 770.771 23.2549 771.199 23.2549C771.432 23.2549 771.653 23.2777 771.862 23.3232V25.1553C771.771 25.1279 771.637 25.1051 771.459 25.0869C771.286 25.0641 771.124 25.0527 770.974 25.0527C770.5 25.0527 770.108 25.2008 769.798 25.4971C769.493 25.7933 769.34 26.1784 769.34 26.6523V31H767.289ZM775.444 31.1299C774.856 31.1299 774.328 30.9795 773.858 30.6787C773.389 30.3734 773.015 29.929 772.737 29.3457C772.464 28.7578 772.327 28.04 772.327 27.1924C772.327 26.3219 772.468 25.5951 772.751 25.0117C773.034 24.4284 773.41 23.9909 773.879 23.6992C774.348 23.4076 774.866 23.2617 775.431 23.2617C775.864 23.2617 776.224 23.3346 776.511 23.4805C776.798 23.6263 777.028 23.8063 777.201 24.0205C777.379 24.2347 777.513 24.4421 777.604 24.6426H777.673V20.8145H779.724V31H777.707V29.7764H777.604C777.509 29.9814 777.372 30.1888 777.194 30.3984C777.017 30.6035 776.784 30.7767 776.497 30.918C776.21 31.0592 775.859 31.1299 775.444 31.1299ZM776.073 29.4824C776.593 29.4824 776.996 29.2728 777.283 28.8535C777.57 28.4342 777.714 27.8783 777.714 27.1855C777.714 26.4928 777.57 25.9391 777.283 25.5244C777.001 25.1097 776.597 24.9023 776.073 24.9023C775.535 24.9023 775.128 25.1165 774.85 25.5449C774.572 25.9688 774.433 26.5156 774.433 27.1855C774.433 27.86 774.572 28.4115 774.85 28.8398C775.132 29.2682 775.54 29.4824 776.073 29.4824ZM784.933 31.1504C784.153 31.1504 783.481 30.9909 782.916 30.6719C782.351 30.3529 781.916 29.8994 781.61 29.3115C781.31 28.7236 781.159 28.0264 781.159 27.2197C781.159 26.4313 781.31 25.7409 781.61 25.1484C781.916 24.556 782.342 24.0934 782.889 23.7607C783.44 23.4281 784.087 23.2617 784.83 23.2617C785.495 23.2617 786.099 23.403 786.642 23.6855C787.184 23.9681 787.615 24.3965 787.934 24.9707C788.257 25.5449 788.419 26.2673 788.419 27.1377V27.7119H783.189C783.212 28.3363 783.385 28.8079 783.709 29.127C784.033 29.446 784.452 29.6055 784.967 29.6055C785.327 29.6055 785.634 29.5303 785.89 29.3799C786.149 29.2249 786.334 28.9993 786.443 28.7031L788.303 29.0518C788.116 29.6852 787.729 30.1934 787.141 30.5762C786.557 30.959 785.821 31.1504 784.933 31.1504ZM783.203 26.4268H786.443C786.393 25.93 786.234 25.5358 785.965 25.2441C785.696 24.9525 785.325 24.8066 784.851 24.8066C784.358 24.8066 783.971 24.9593 783.688 25.2646C783.406 25.5654 783.244 25.9528 783.203 26.4268ZM789.82 31V23.3574H791.803V24.6904H791.885C792.026 24.221 792.261 23.8656 792.589 23.624C792.922 23.3779 793.302 23.2549 793.73 23.2549C793.963 23.2549 794.184 23.2777 794.394 23.3232V25.1553C794.302 25.1279 794.168 25.1051 793.99 25.0869C793.817 25.0641 793.655 25.0527 793.505 25.0527C793.031 25.0527 792.639 25.2008 792.329 25.4971C792.024 25.7933 791.871 26.1784 791.871 26.6523V31H789.82ZM800.02 31.1367C799.113 31.1367 798.304 30.9316 797.593 30.5215C796.882 30.1113 796.319 29.5166 795.904 28.7373C795.494 27.958 795.289 27.0169 795.289 25.9141C795.289 24.8066 795.496 23.8633 795.911 23.084C796.326 22.3001 796.891 21.7031 797.606 21.293C798.322 20.8828 799.126 20.6777 800.02 20.6777C800.79 20.6777 801.487 20.8213 802.111 21.1084C802.736 21.391 803.248 21.8034 803.649 22.3457C804.05 22.8835 804.301 23.5329 804.401 24.2939H802.289C802.193 23.7425 801.943 23.3118 801.537 23.002C801.136 22.6875 800.644 22.5303 800.061 22.5303C799.268 22.5303 798.627 22.8242 798.14 23.4121C797.652 24 797.408 24.834 797.408 25.9141C797.408 27.0169 797.652 27.8555 798.14 28.4297C798.632 28.9993 799.27 29.2842 800.054 29.2842C800.632 29.2842 801.125 29.1292 801.53 28.8193C801.94 28.5049 802.196 28.0697 802.296 27.5137H804.408C804.331 28.1471 804.107 28.7396 803.738 29.291C803.369 29.8379 802.87 30.2822 802.241 30.624C801.617 30.9658 800.876 31.1367 800.02 31.1367ZM807.936 20.8145V31H805.885V20.8145H807.936ZM813.138 31.1504C812.358 31.1504 811.686 30.9909 811.121 30.6719C810.556 30.3529 810.121 29.8994 809.815 29.3115C809.515 28.7236 809.364 28.0264 809.364 27.2197C809.364 26.4313 809.515 25.7409 809.815 25.1484C810.121 24.556 810.547 24.0934 811.094 23.7607C811.645 23.4281 812.292 23.2617 813.035 23.2617C813.701 23.2617 814.304 23.403 814.847 23.6855C815.389 23.9681 815.82 24.3965 816.139 24.9707C816.462 25.5449 816.624 26.2673 816.624 27.1377V27.7119H811.395C811.417 28.3363 811.59 28.8079 811.914 29.127C812.238 29.446 812.657 29.6055 813.172 29.6055C813.532 29.6055 813.84 29.5303 814.095 29.3799C814.354 29.2249 814.539 28.9993 814.648 28.7031L816.508 29.0518C816.321 29.6852 815.934 30.1934 815.346 30.5762C814.762 30.959 814.026 31.1504 813.138 31.1504ZM811.408 26.4268H814.648C814.598 25.93 814.439 25.5358 814.17 25.2441C813.901 24.9525 813.53 24.8066 813.056 24.8066C812.563 24.8066 812.176 24.9593 811.894 25.2646C811.611 25.5654 811.449 25.9528 811.408 26.4268ZM820.295 31.1504C819.566 31.1504 818.96 30.959 818.477 30.5762C817.993 30.1888 817.752 29.6169 817.752 28.8604C817.752 28.2907 817.889 27.8441 818.162 27.5205C818.436 27.1969 818.791 26.96 819.229 26.8096C819.666 26.6592 820.135 26.5612 820.637 26.5156C821.293 26.4518 821.765 26.3857 822.052 26.3174C822.343 26.2445 822.489 26.0827 822.489 25.832V25.7979C822.489 25.4743 822.384 25.2236 822.175 25.0459C821.97 24.8682 821.676 24.7793 821.293 24.7793C820.896 24.7793 820.577 24.8659 820.336 25.0391C820.094 25.2077 819.933 25.415 819.851 25.6611L817.971 25.3467C818.167 24.6859 818.556 24.1732 819.14 23.8086C819.728 23.444 820.448 23.2617 821.3 23.2617C821.847 23.2617 822.366 23.3483 822.858 23.5215C823.355 23.6947 823.758 23.9727 824.068 24.3555C824.383 24.7337 824.54 25.2327 824.54 25.8525V31H822.599V29.9404H822.53C822.343 30.2959 822.065 30.5876 821.696 30.8154C821.327 31.0387 820.86 31.1504 820.295 31.1504ZM820.876 29.708C821.354 29.708 821.744 29.569 822.045 29.291C822.35 29.013 822.503 28.6712 822.503 28.2656V27.4385C822.421 27.4977 822.286 27.5501 822.1 27.5957C821.917 27.6367 821.724 27.6755 821.519 27.7119C821.313 27.7438 821.136 27.7689 820.985 27.7871C820.607 27.8418 820.302 27.9489 820.069 28.1084C819.837 28.2679 819.721 28.5003 819.721 28.8057C819.721 29.1019 819.828 29.3275 820.042 29.4824C820.261 29.6328 820.539 29.708 820.876 29.708ZM826.297 31V23.3574H828.279V24.6904H828.361C828.503 24.221 828.737 23.8656 829.065 23.624C829.398 23.3779 829.779 23.2549 830.207 23.2549C830.439 23.2549 830.66 23.2777 830.87 23.3232V25.1553C830.779 25.1279 830.645 25.1051 830.467 25.0869C830.294 25.0641 830.132 25.0527 829.981 25.0527C829.507 25.0527 829.116 25.2008 828.806 25.4971C828.5 25.7933 828.348 26.1784 828.348 26.6523V31H826.297ZM833.939 31.1504C833.21 31.1504 832.604 30.959 832.121 30.5762C831.638 30.1888 831.396 29.6169 831.396 28.8604C831.396 28.2907 831.533 27.8441 831.807 27.5205C832.08 27.1969 832.436 26.96 832.873 26.8096C833.311 26.6592 833.78 26.5612 834.281 26.5156C834.938 26.4518 835.409 26.3857 835.696 26.3174C835.988 26.2445 836.134 26.0827 836.134 25.832V25.7979C836.134 25.4743 836.029 25.2236 835.819 25.0459C835.614 24.8682 835.32 24.7793 834.938 24.7793C834.541 24.7793 834.222 24.8659 833.98 25.0391C833.739 25.2077 833.577 25.415 833.495 25.6611L831.615 25.3467C831.811 24.6859 832.201 24.1732 832.784 23.8086C833.372 23.444 834.092 23.2617 834.944 23.2617C835.491 23.2617 836.011 23.3483 836.503 23.5215C837 23.6947 837.403 23.9727 837.713 24.3555C838.027 24.7337 838.185 25.2327 838.185 25.8525V31H836.243V29.9404H836.175C835.988 30.2959 835.71 30.5876 835.341 30.8154C834.972 31.0387 834.505 31.1504 833.939 31.1504ZM834.521 29.708C834.999 29.708 835.389 29.569 835.689 29.291C835.995 29.013 836.147 28.6712 836.147 28.2656V27.4385C836.065 27.4977 835.931 27.5501 835.744 27.5957C835.562 27.6367 835.368 27.6755 835.163 27.7119C834.958 27.7438 834.78 27.7689 834.63 27.7871C834.252 27.8418 833.946 27.9489 833.714 28.1084C833.481 28.2679 833.365 28.5003 833.365 28.8057C833.365 29.1019 833.472 29.3275 833.687 29.4824C833.905 29.6328 834.183 29.708 834.521 29.708ZM841.992 26.5771V31H839.941V23.3574H841.876L841.903 24.9365C842.118 24.4033 842.421 23.9909 842.812 23.6992C843.204 23.4076 843.694 23.2617 844.282 23.2617C845.075 23.2617 845.711 23.5169 846.189 24.0273C846.668 24.5378 846.907 25.2419 846.907 26.1396V31H844.856V26.4951C844.856 26.0212 844.733 25.6497 844.487 25.3809C844.246 25.112 843.909 24.9775 843.476 24.9775C843.038 24.9775 842.68 25.1188 842.402 25.4014C842.129 25.6794 841.992 26.0713 841.992 26.5771ZM852.082 31.1504C851.312 31.1504 850.646 30.9863 850.086 30.6582C849.53 30.3255 849.099 29.8652 848.794 29.2773C848.493 28.6849 848.343 27.9967 848.343 27.2129C848.343 26.4245 848.493 25.734 848.794 25.1416C849.099 24.5492 849.53 24.0889 850.086 23.7607C850.646 23.4281 851.312 23.2617 852.082 23.2617C852.989 23.2617 853.745 23.4896 854.352 23.9453C854.958 24.3965 855.334 25.0163 855.479 25.8047L853.572 26.1602C853.486 25.7637 853.317 25.4515 853.066 25.2236C852.82 24.9912 852.499 24.875 852.103 24.875C851.556 24.875 851.141 25.0915 850.858 25.5244C850.576 25.9528 850.435 26.5133 850.435 27.2061C850.435 27.8896 850.576 28.4502 850.858 28.8877C851.141 29.3206 851.556 29.5371 852.103 29.5371C852.499 29.5371 852.825 29.4186 853.08 29.1816C853.335 28.9401 853.504 28.6143 853.586 28.2041L855.493 28.5527C855.347 29.3594 854.971 29.9951 854.365 30.46C853.759 30.9202 852.998 31.1504 852.082 31.1504ZM860.36 31.1504C859.581 31.1504 858.909 30.9909 858.344 30.6719C857.779 30.3529 857.343 29.8994 857.038 29.3115C856.737 28.7236 856.587 28.0264 856.587 27.2197C856.587 26.4313 856.737 25.7409 857.038 25.1484C857.343 24.556 857.77 24.0934 858.316 23.7607C858.868 23.4281 859.515 23.2617 860.258 23.2617C860.923 23.2617 861.527 23.403 862.069 23.6855C862.612 23.9681 863.042 24.3965 863.361 24.9707C863.685 25.5449 863.847 26.2673 863.847 27.1377V27.7119H858.617C858.64 28.3363 858.813 28.8079 859.137 29.127C859.46 29.446 859.88 29.6055 860.395 29.6055C860.755 29.6055 861.062 29.5303 861.317 29.3799C861.577 29.2249 861.762 28.9993 861.871 28.7031L863.73 29.0518C863.544 29.6852 863.156 30.1934 862.568 30.5762C861.985 30.959 861.249 31.1504 860.36 31.1504ZM858.631 26.4268H861.871C861.821 25.93 861.661 25.5358 861.393 25.2441C861.124 24.9525 860.752 24.8066 860.278 24.8066C859.786 24.8066 859.399 24.9593 859.116 25.2646C858.834 25.5654 858.672 25.9528 858.631 26.4268Z" fill="#12141E"/>
<rect x="1038" y="1" width="238" height="50" rx="3" fill="white"/>
<rect x="1038" y="1" width="238" height="50" rx="3" stroke="#B6B9C9" stroke-width="2"/>
<path d="M1147.57 31.1367C1146.67 31.1367 1145.86 30.9316 1145.15 30.5215C1144.44 30.1113 1143.87 29.5166 1143.46 28.7373C1143.05 27.958 1142.84 27.0169 1142.84 25.9141C1142.84 24.8066 1143.05 23.8633 1143.46 23.084C1143.88 22.3001 1144.44 21.7031 1145.16 21.293C1145.88 20.8828 1146.68 20.6777 1147.57 20.6777C1148.34 20.6777 1149.04 20.8213 1149.67 21.1084C1150.29 21.391 1150.8 21.8034 1151.2 22.3457C1151.6 22.8835 1151.85 23.5329 1151.96 24.2939H1149.84C1149.75 23.7425 1149.5 23.3118 1149.09 23.002C1148.69 22.6875 1148.2 22.5303 1147.61 22.5303C1146.82 22.5303 1146.18 22.8242 1145.69 23.4121C1145.21 24 1144.96 24.834 1144.96 25.9141C1144.96 27.0169 1145.21 27.8555 1145.69 28.4297C1146.19 28.9993 1146.82 29.2842 1147.61 29.2842C1148.19 29.2842 1148.68 29.1292 1149.08 28.8193C1149.49 28.5049 1149.75 28.0697 1149.85 27.5137H1151.96C1151.88 28.1471 1151.66 28.7396 1151.29 29.291C1150.92 29.8379 1150.42 30.2822 1149.79 30.624C1149.17 30.9658 1148.43 31.1367 1147.57 31.1367ZM1155.57 31.1504C1154.84 31.1504 1154.24 30.959 1153.75 30.5762C1153.27 30.1888 1153.03 29.6169 1153.03 28.8604C1153.03 28.2907 1153.17 27.8441 1153.44 27.5205C1153.71 27.1969 1154.07 26.96 1154.5 26.8096C1154.94 26.6592 1155.41 26.5612 1155.91 26.5156C1156.57 26.4518 1157.04 26.3857 1157.33 26.3174C1157.62 26.2445 1157.77 26.0827 1157.77 25.832V25.7979C1157.77 25.4743 1157.66 25.2236 1157.45 25.0459C1157.25 24.8682 1156.95 24.7793 1156.57 24.7793C1156.17 24.7793 1155.85 24.8659 1155.61 25.0391C1155.37 25.2077 1155.21 25.415 1155.13 25.6611L1153.25 25.3467C1153.44 24.6859 1153.83 24.1732 1154.42 23.8086C1155 23.444 1155.72 23.2617 1156.58 23.2617C1157.12 23.2617 1157.64 23.3483 1158.13 23.5215C1158.63 23.6947 1159.03 23.9727 1159.34 24.3555C1159.66 24.7337 1159.82 25.2327 1159.82 25.8525V31H1157.88V29.9404H1157.81C1157.62 30.2959 1157.34 30.5876 1156.97 30.8154C1156.6 31.0387 1156.14 31.1504 1155.57 31.1504ZM1156.15 29.708C1156.63 29.708 1157.02 29.569 1157.32 29.291C1157.63 29.013 1157.78 28.6712 1157.78 28.2656V27.4385C1157.7 27.4977 1157.56 27.5501 1157.38 27.5957C1157.19 27.6367 1157 27.6755 1156.79 27.7119C1156.59 27.7438 1156.41 27.7689 1156.26 27.7871C1155.88 27.8418 1155.58 27.9489 1155.35 28.1084C1155.11 28.2679 1155 28.5003 1155 28.8057C1155 29.1019 1155.1 29.3275 1155.32 29.4824C1155.54 29.6328 1155.82 29.708 1156.15 29.708ZM1161.57 31V23.3574H1163.56V24.6904H1163.64C1163.78 24.221 1164.01 23.8656 1164.34 23.624C1164.67 23.3779 1165.06 23.2549 1165.48 23.2549C1165.72 23.2549 1165.94 23.2777 1166.15 23.3232V25.1553C1166.06 25.1279 1165.92 25.1051 1165.74 25.0869C1165.57 25.0641 1165.41 25.0527 1165.26 25.0527C1164.78 25.0527 1164.39 25.2008 1164.08 25.4971C1163.78 25.7933 1163.62 26.1784 1163.62 26.6523V31H1161.57ZM1171.34 23.3574V24.9229H1169.91V28.7646C1169.91 29.2386 1170.15 29.4756 1170.61 29.4756C1170.69 29.4756 1170.79 29.4665 1170.93 29.4482C1171.07 29.4255 1171.18 29.4049 1171.26 29.3867L1171.55 30.9248C1171.33 30.9932 1171.1 31.041 1170.87 31.0684C1170.65 31.0957 1170.43 31.1094 1170.23 31.1094C1169.46 31.1094 1168.88 30.9248 1168.47 30.5557C1168.07 30.182 1167.86 29.6442 1167.86 28.9424V24.9229H1166.81V23.3574H1167.86V21.5391H1169.91V23.3574H1171.34Z" fill="#12141E"/>
<rect x="346" y="231" width="238" height="50" rx="3" fill="white"/>
<rect x="346" y="231" width="238" height="50" rx="3" stroke="#B6B9C9" stroke-width="2"/>
<path d="M411.188 261.137C410.281 261.137 409.472 260.932 408.761 260.521C408.05 260.111 407.487 259.517 407.072 258.737C406.662 257.958 406.457 257.017 406.457 255.914C406.457 254.807 406.664 253.863 407.079 253.084C407.494 252.3 408.059 251.703 408.774 251.293C409.49 250.883 410.294 250.678 411.188 250.678C411.958 250.678 412.655 250.821 413.279 251.108C413.904 251.391 414.416 251.803 414.817 252.346C415.218 252.883 415.469 253.533 415.569 254.294H413.457C413.361 253.743 413.111 253.312 412.705 253.002C412.304 252.688 411.812 252.53 411.229 252.53C410.436 252.53 409.795 252.824 409.308 253.412C408.82 254 408.576 254.834 408.576 255.914C408.576 257.017 408.82 257.855 409.308 258.43C409.8 258.999 410.438 259.284 411.222 259.284C411.8 259.284 412.293 259.129 412.698 258.819C413.108 258.505 413.364 258.07 413.464 257.514H415.576C415.499 258.147 415.275 258.74 414.906 259.291C414.537 259.838 414.038 260.282 413.409 260.624C412.785 260.966 412.044 261.137 411.188 261.137ZM420.471 261.15C419.705 261.15 419.042 260.986 418.481 260.658C417.921 260.326 417.488 259.865 417.183 259.277C416.882 258.685 416.731 257.997 416.731 257.213C416.731 256.424 416.882 255.734 417.183 255.142C417.488 254.549 417.921 254.089 418.481 253.761C419.042 253.428 419.705 253.262 420.471 253.262C421.236 253.262 421.899 253.428 422.46 253.761C423.021 254.089 423.451 254.549 423.752 255.142C424.057 255.734 424.21 256.424 424.21 257.213C424.21 257.997 424.057 258.685 423.752 259.277C423.451 259.865 423.021 260.326 422.46 260.658C421.899 260.986 421.236 261.15 420.471 261.15ZM420.471 259.537C421.018 259.537 421.43 259.316 421.708 258.874C421.986 258.432 422.125 257.876 422.125 257.206C422.125 256.532 421.986 255.976 421.708 255.538C421.43 255.096 421.018 254.875 420.471 254.875C419.924 254.875 419.511 255.096 419.233 255.538C418.96 255.976 418.823 256.532 418.823 257.206C418.823 257.876 418.96 258.432 419.233 258.874C419.511 259.316 419.924 259.537 420.471 259.537ZM427.689 256.577V261H425.639V253.357H427.573L427.601 254.937C427.815 254.403 428.118 253.991 428.51 253.699C428.902 253.408 429.392 253.262 429.979 253.262C430.772 253.262 431.408 253.517 431.887 254.027C432.365 254.538 432.604 255.242 432.604 256.14V261H430.554V256.495C430.554 256.021 430.431 255.65 430.185 255.381C429.943 255.112 429.606 254.978 429.173 254.978C428.735 254.978 428.378 255.119 428.1 255.401C427.826 255.679 427.689 256.071 427.689 256.577ZM438.155 253.357V254.923H436.727V258.765C436.727 259.239 436.959 259.476 437.424 259.476C437.501 259.476 437.608 259.466 437.745 259.448C437.886 259.425 437.996 259.405 438.073 259.387L438.367 260.925C438.139 260.993 437.911 261.041 437.684 261.068C437.46 261.096 437.246 261.109 437.041 261.109C436.275 261.109 435.69 260.925 435.284 260.556C434.879 260.182 434.676 259.644 434.676 258.942V254.923H433.623V253.357H434.676V251.539H436.727V253.357H438.155ZM439.488 261V253.357H441.539V261H439.488ZM440.514 252.359C440.204 252.359 439.939 252.257 439.721 252.052C439.502 251.847 439.393 251.598 439.393 251.307C439.393 251.015 439.502 250.767 439.721 250.562C439.939 250.356 440.204 250.254 440.514 250.254C440.824 250.254 441.088 250.356 441.307 250.562C441.53 250.767 441.642 251.015 441.642 251.307C441.642 251.598 441.53 251.847 441.307 252.052C441.088 252.257 440.824 252.359 440.514 252.359ZM445.34 256.577V261H443.289V253.357H445.224L445.251 254.937C445.465 254.403 445.768 253.991 446.16 253.699C446.552 253.408 447.042 253.262 447.63 253.262C448.423 253.262 449.059 253.517 449.537 254.027C450.016 254.538 450.255 255.242 450.255 256.14V261H448.204V256.495C448.204 256.021 448.081 255.65 447.835 255.381C447.593 255.112 447.256 254.978 446.823 254.978C446.386 254.978 446.028 255.119 445.75 255.401C445.477 255.679 445.34 256.071 445.34 256.577ZM455.409 264.021C454.452 264.021 453.682 263.846 453.099 263.495C452.515 263.144 452.139 262.695 451.971 262.148L453.734 261.656C453.83 261.87 454.006 262.069 454.261 262.251C454.521 262.438 454.899 262.531 455.396 262.531C455.915 262.531 456.325 262.41 456.626 262.169C456.927 261.932 457.077 261.561 457.077 261.055V259.646H456.92C456.779 259.956 456.544 260.241 456.216 260.501C455.892 260.761 455.421 260.891 454.801 260.891C454.227 260.891 453.705 260.756 453.235 260.487C452.766 260.218 452.39 259.808 452.107 259.257C451.829 258.705 451.69 258.008 451.69 257.165C451.69 256.304 451.832 255.584 452.114 255.005C452.401 254.426 452.78 253.991 453.249 253.699C453.723 253.408 454.243 253.262 454.808 253.262C455.236 253.262 455.596 253.335 455.888 253.48C456.179 253.626 456.414 253.806 456.592 254.021C456.774 254.235 456.911 254.442 457.002 254.643H457.091V253.357H459.107V260.938C459.107 261.627 458.948 262.199 458.629 262.654C458.314 263.115 457.877 263.456 457.316 263.68C456.76 263.908 456.125 264.021 455.409 264.021ZM455.443 259.332C455.967 259.332 456.371 259.141 456.653 258.758C456.94 258.37 457.084 257.835 457.084 257.151C457.084 256.472 456.943 255.928 456.66 255.518C456.378 255.107 455.972 254.902 455.443 254.902C454.906 254.902 454.495 255.114 454.213 255.538C453.935 255.957 453.796 256.495 453.796 257.151C453.796 257.821 453.937 258.352 454.22 258.744C454.502 259.136 454.91 259.332 455.443 259.332ZM464.31 261.15C463.53 261.15 462.858 260.991 462.293 260.672C461.728 260.353 461.293 259.899 460.987 259.312C460.687 258.724 460.536 258.026 460.536 257.22C460.536 256.431 460.687 255.741 460.987 255.148C461.293 254.556 461.719 254.093 462.266 253.761C462.817 253.428 463.464 253.262 464.207 253.262C464.872 253.262 465.476 253.403 466.019 253.686C466.561 253.968 466.992 254.396 467.311 254.971C467.634 255.545 467.796 256.267 467.796 257.138V257.712H462.566C462.589 258.336 462.762 258.808 463.086 259.127C463.41 259.446 463.829 259.605 464.344 259.605C464.704 259.605 465.011 259.53 465.267 259.38C465.526 259.225 465.711 258.999 465.82 258.703L467.68 259.052C467.493 259.685 467.105 260.193 466.518 260.576C465.934 260.959 465.198 261.15 464.31 261.15ZM462.58 256.427H465.82C465.77 255.93 465.611 255.536 465.342 255.244C465.073 254.952 464.701 254.807 464.228 254.807C463.735 254.807 463.348 254.959 463.065 255.265C462.783 255.565 462.621 255.953 462.58 256.427ZM471.248 256.577V261H469.197V253.357H471.132L471.159 254.937C471.373 254.403 471.676 253.991 472.068 253.699C472.46 253.408 472.95 253.262 473.538 253.262C474.331 253.262 474.967 253.517 475.445 254.027C475.924 254.538 476.163 255.242 476.163 256.14V261H474.112V256.495C474.112 256.021 473.989 255.65 473.743 255.381C473.502 255.112 473.164 254.978 472.731 254.978C472.294 254.978 471.936 255.119 471.658 255.401C471.385 255.679 471.248 256.071 471.248 256.577ZM481.714 253.357V254.923H480.285V258.765C480.285 259.239 480.518 259.476 480.982 259.476C481.06 259.476 481.167 259.466 481.304 259.448C481.445 259.425 481.554 259.405 481.632 259.387L481.926 260.925C481.698 260.993 481.47 261.041 481.242 261.068C481.019 261.096 480.805 261.109 480.6 261.109C479.834 261.109 479.248 260.925 478.843 260.556C478.437 260.182 478.234 259.644 478.234 258.942V254.923H477.182V253.357H478.234V251.539H480.285V253.357H481.714ZM487.606 261.137C486.654 261.137 485.818 260.927 485.098 260.508C484.378 260.084 483.817 259.482 483.416 258.703C483.015 257.924 482.814 256.996 482.814 255.921C482.814 254.823 483.022 253.882 483.437 253.098C483.856 252.314 484.423 251.715 485.139 251.3C485.859 250.885 486.665 250.678 487.559 250.678C488.324 250.678 489.017 250.824 489.637 251.115C490.257 251.407 490.765 251.81 491.161 252.325C491.558 252.836 491.804 253.426 491.899 254.096H489.78C489.634 253.608 489.375 253.225 489.001 252.947C488.627 252.669 488.158 252.53 487.593 252.53C486.809 252.53 486.169 252.822 485.672 253.405C485.18 253.989 484.934 254.82 484.934 255.9C484.934 256.98 485.177 257.814 485.665 258.402C486.153 258.99 486.804 259.284 487.62 259.284C488.345 259.284 488.914 259.093 489.329 258.71C489.744 258.327 489.96 257.81 489.979 257.158H487.764V255.572H492.002V256.844C492.002 257.737 491.813 258.505 491.435 259.147C491.056 259.785 490.537 260.278 489.876 260.624C489.215 260.966 488.459 261.137 487.606 261.137ZM493.561 261V253.357H495.543V254.69H495.625C495.766 254.221 496.001 253.866 496.329 253.624C496.662 253.378 497.042 253.255 497.471 253.255C497.703 253.255 497.924 253.278 498.134 253.323V255.155C498.043 255.128 497.908 255.105 497.73 255.087C497.557 255.064 497.396 255.053 497.245 255.053C496.771 255.053 496.379 255.201 496.069 255.497C495.764 255.793 495.611 256.178 495.611 256.652V261H493.561ZM502.338 261.15C501.572 261.15 500.909 260.986 500.349 260.658C499.788 260.326 499.355 259.865 499.05 259.277C498.749 258.685 498.599 257.997 498.599 257.213C498.599 256.424 498.749 255.734 499.05 255.142C499.355 254.549 499.788 254.089 500.349 253.761C500.909 253.428 501.572 253.262 502.338 253.262C503.104 253.262 503.767 253.428 504.327 253.761C504.888 254.089 505.318 254.549 505.619 255.142C505.924 255.734 506.077 256.424 506.077 257.213C506.077 257.997 505.924 258.685 505.619 259.277C505.318 259.865 504.888 260.326 504.327 260.658C503.767 260.986 503.104 261.15 502.338 261.15ZM502.338 259.537C502.885 259.537 503.297 259.316 503.575 258.874C503.853 258.432 503.992 257.876 503.992 257.206C503.992 256.532 503.853 255.976 503.575 255.538C503.297 255.096 502.885 254.875 502.338 254.875C501.791 254.875 501.379 255.096 501.101 255.538C500.827 255.976 500.69 256.532 500.69 257.206C500.69 257.876 500.827 258.432 501.101 258.874C501.379 259.316 501.791 259.537 502.338 259.537ZM510.138 261.096C509.345 261.096 508.707 260.84 508.224 260.33C507.745 259.82 507.506 259.116 507.506 258.218V253.357H509.557V257.862C509.557 258.336 509.68 258.708 509.926 258.977C510.172 259.245 510.509 259.38 510.938 259.38C511.375 259.38 511.73 259.241 512.004 258.963C512.282 258.68 512.421 258.286 512.421 257.78V253.357H514.479V261H512.537L512.51 259.414C512.296 259.956 511.99 260.373 511.594 260.665C511.202 260.952 510.716 261.096 510.138 261.096ZM516.229 263.857V253.357H518.245V254.643H518.341C518.432 254.442 518.564 254.235 518.737 254.021C518.915 253.806 519.147 253.626 519.435 253.48C519.726 253.335 520.089 253.262 520.521 253.262C521.087 253.262 521.604 253.408 522.073 253.699C522.543 253.991 522.916 254.428 523.194 255.012C523.477 255.595 523.618 256.322 523.618 257.192C523.618 258.04 523.481 258.758 523.208 259.346C522.935 259.929 522.563 260.373 522.094 260.679C521.624 260.979 521.096 261.13 520.508 261.13C520.093 261.13 519.742 261.059 519.455 260.918C519.168 260.777 518.933 260.604 518.751 260.398C518.573 260.189 518.437 259.981 518.341 259.776H518.279V263.857H516.229ZM519.879 259.482C520.412 259.482 520.818 259.268 521.096 258.84C521.378 258.411 521.52 257.86 521.52 257.186C521.52 256.516 521.381 255.969 521.103 255.545C520.825 255.117 520.417 254.902 519.879 254.902C519.35 254.902 518.942 255.11 518.655 255.524C518.373 255.939 518.231 256.493 518.231 257.186C518.231 257.878 518.375 258.434 518.662 258.854C518.949 259.273 519.355 259.482 519.879 259.482Z" fill="#12141E"/>
<rect x="691" y="231" width="238" height="50" rx="3" fill="white"/>
<rect x="691" y="231" width="238" height="50" rx="3" stroke="#B6B9C9" stroke-width="2"/>
<path d="M762.142 261.137C761.235 261.137 760.426 260.932 759.715 260.521C759.004 260.111 758.441 259.517 758.026 258.737C757.616 257.958 757.411 257.017 757.411 255.914C757.411 254.807 757.618 253.863 758.033 253.084C758.448 252.3 759.013 251.703 759.729 251.293C760.444 250.883 761.248 250.678 762.142 250.678C762.912 250.678 763.609 250.821 764.233 251.108C764.858 251.391 765.37 251.803 765.771 252.346C766.173 252.883 766.423 253.533 766.523 254.294H764.411C764.315 253.743 764.065 253.312 763.659 253.002C763.258 252.688 762.766 252.53 762.183 252.53C761.39 252.53 760.749 252.824 760.262 253.412C759.774 254 759.53 254.834 759.53 255.914C759.53 257.017 759.774 257.855 760.262 258.43C760.754 258.999 761.392 259.284 762.176 259.284C762.755 259.284 763.247 259.129 763.652 258.819C764.062 258.505 764.318 258.07 764.418 257.514H766.53C766.453 258.147 766.229 258.74 765.86 259.291C765.491 259.838 764.992 260.282 764.363 260.624C763.739 260.966 762.998 261.137 762.142 261.137ZM771.425 261.15C770.659 261.15 769.996 260.986 769.436 260.658C768.875 260.326 768.442 259.865 768.137 259.277C767.836 258.685 767.686 257.997 767.686 257.213C767.686 256.424 767.836 255.734 768.137 255.142C768.442 254.549 768.875 254.089 769.436 253.761C769.996 253.428 770.659 253.262 771.425 253.262C772.19 253.262 772.854 253.428 773.414 253.761C773.975 254.089 774.405 254.549 774.706 255.142C775.011 255.734 775.164 256.424 775.164 257.213C775.164 257.997 775.011 258.685 774.706 259.277C774.405 259.865 773.975 260.326 773.414 260.658C772.854 260.986 772.19 261.15 771.425 261.15ZM771.425 259.537C771.972 259.537 772.384 259.316 772.662 258.874C772.94 258.432 773.079 257.876 773.079 257.206C773.079 256.532 772.94 255.976 772.662 255.538C772.384 255.096 771.972 254.875 771.425 254.875C770.878 254.875 770.465 255.096 770.188 255.538C769.914 255.976 769.777 256.532 769.777 257.206C769.777 257.876 769.914 258.432 770.188 258.874C770.465 259.316 770.878 259.537 771.425 259.537ZM778.644 256.577V261H776.593V253.357H778.527L778.555 254.937C778.769 254.403 779.072 253.991 779.464 253.699C779.856 253.408 780.346 253.262 780.934 253.262C781.727 253.262 782.362 253.517 782.841 254.027C783.319 254.538 783.559 255.242 783.559 256.14V261H781.508V256.495C781.508 256.021 781.385 255.65 781.139 255.381C780.897 255.112 780.56 254.978 780.127 254.978C779.689 254.978 779.332 255.119 779.054 255.401C778.78 255.679 778.644 256.071 778.644 256.577ZM789.109 253.357V254.923H787.681V258.765C787.681 259.239 787.913 259.476 788.378 259.476C788.455 259.476 788.562 259.466 788.699 259.448C788.84 259.425 788.95 259.405 789.027 259.387L789.321 260.925C789.093 260.993 788.866 261.041 788.638 261.068C788.414 261.096 788.2 261.109 787.995 261.109C787.229 261.109 786.644 260.925 786.238 260.556C785.833 260.182 785.63 259.644 785.63 258.942V254.923H784.577V253.357H785.63V251.539H787.681V253.357H789.109ZM790.442 261V253.357H792.493V261H790.442ZM791.468 252.359C791.158 252.359 790.894 252.257 790.675 252.052C790.456 251.847 790.347 251.598 790.347 251.307C790.347 251.015 790.456 250.767 790.675 250.562C790.894 250.356 791.158 250.254 791.468 250.254C791.778 250.254 792.042 250.356 792.261 250.562C792.484 250.767 792.596 251.015 792.596 251.307C792.596 251.598 792.484 251.847 792.261 252.052C792.042 252.257 791.778 252.359 791.468 252.359ZM796.294 256.577V261H794.243V253.357H796.178L796.205 254.937C796.419 254.403 796.722 253.991 797.114 253.699C797.506 253.408 797.996 253.262 798.584 253.262C799.377 253.262 800.013 253.517 800.491 254.027C800.97 254.538 801.209 255.242 801.209 256.14V261H799.158V256.495C799.158 256.021 799.035 255.65 798.789 255.381C798.548 255.112 798.21 254.978 797.777 254.978C797.34 254.978 796.982 255.119 796.704 255.401C796.431 255.679 796.294 256.071 796.294 256.577ZM806.363 264.021C805.406 264.021 804.636 263.846 804.053 263.495C803.469 263.144 803.093 262.695 802.925 262.148L804.688 261.656C804.784 261.87 804.96 262.069 805.215 262.251C805.475 262.438 805.853 262.531 806.35 262.531C806.869 262.531 807.279 262.41 807.58 262.169C807.881 261.932 808.031 261.561 808.031 261.055V259.646H807.874C807.733 259.956 807.498 260.241 807.17 260.501C806.846 260.761 806.375 260.891 805.755 260.891C805.181 260.891 804.659 260.756 804.189 260.487C803.72 260.218 803.344 259.808 803.062 259.257C802.784 258.705 802.645 258.008 802.645 257.165C802.645 256.304 802.786 255.584 803.068 255.005C803.355 254.426 803.734 253.991 804.203 253.699C804.677 253.408 805.197 253.262 805.762 253.262C806.19 253.262 806.55 253.335 806.842 253.48C807.133 253.626 807.368 253.806 807.546 254.021C807.728 254.235 807.865 254.442 807.956 254.643H808.045V253.357H810.062V260.938C810.062 261.627 809.902 262.199 809.583 262.654C809.269 263.115 808.831 263.456 808.271 263.68C807.715 263.908 807.079 264.021 806.363 264.021ZM806.397 259.332C806.922 259.332 807.325 259.141 807.607 258.758C807.895 258.37 808.038 257.835 808.038 257.151C808.038 256.472 807.897 255.928 807.614 255.518C807.332 255.107 806.926 254.902 806.397 254.902C805.86 254.902 805.45 255.114 805.167 255.538C804.889 255.957 804.75 256.495 804.75 257.151C804.75 257.821 804.891 258.352 805.174 258.744C805.456 259.136 805.864 259.332 806.397 259.332ZM815.264 261.15C814.484 261.15 813.812 260.991 813.247 260.672C812.682 260.353 812.247 259.899 811.941 259.312C811.641 258.724 811.49 258.026 811.49 257.22C811.49 256.431 811.641 255.741 811.941 255.148C812.247 254.556 812.673 254.093 813.22 253.761C813.771 253.428 814.418 253.262 815.161 253.262C815.826 253.262 816.43 253.403 816.973 253.686C817.515 253.968 817.946 254.396 818.265 254.971C818.588 255.545 818.75 256.267 818.75 257.138V257.712H813.521C813.543 258.336 813.716 258.808 814.04 259.127C814.364 259.446 814.783 259.605 815.298 259.605C815.658 259.605 815.965 259.53 816.221 259.38C816.48 259.225 816.665 258.999 816.774 258.703L818.634 259.052C818.447 259.685 818.06 260.193 817.472 260.576C816.888 260.959 816.152 261.15 815.264 261.15ZM813.534 256.427H816.774C816.724 255.93 816.565 255.536 816.296 255.244C816.027 254.952 815.656 254.807 815.182 254.807C814.689 254.807 814.302 254.959 814.02 255.265C813.737 255.565 813.575 255.953 813.534 256.427ZM822.202 256.577V261H820.151V253.357H822.086L822.113 254.937C822.327 254.403 822.631 253.991 823.022 253.699C823.414 253.408 823.904 253.262 824.492 253.262C825.285 253.262 825.921 253.517 826.399 254.027C826.878 254.538 827.117 255.242 827.117 256.14V261H825.066V256.495C825.066 256.021 824.943 255.65 824.697 255.381C824.456 255.112 824.118 254.978 823.686 254.978C823.248 254.978 822.89 255.119 822.612 255.401C822.339 255.679 822.202 256.071 822.202 256.577ZM832.668 253.357V254.923H831.239V258.765C831.239 259.239 831.472 259.476 831.937 259.476C832.014 259.476 832.121 259.466 832.258 259.448C832.399 259.425 832.508 259.405 832.586 259.387L832.88 260.925C832.652 260.993 832.424 261.041 832.196 261.068C831.973 261.096 831.759 261.109 831.554 261.109C830.788 261.109 830.202 260.925 829.797 260.556C829.391 260.182 829.188 259.644 829.188 258.942V254.923H828.136V253.357H829.188V251.539H831.239V253.357H832.668ZM834.09 261V250.814H838.062C839.219 250.814 840.115 251.118 840.748 251.724C841.386 252.325 841.705 253.127 841.705 254.13C841.705 254.827 841.55 255.424 841.24 255.921C840.93 256.413 840.484 256.782 839.9 257.028L842.067 261H839.757L837.815 257.363H836.175V261H834.09ZM836.175 255.675H837.679C838.927 255.675 839.552 255.16 839.552 254.13C839.552 253.615 839.397 253.221 839.087 252.947C838.782 252.674 838.31 252.537 837.672 252.537H836.175V255.675ZM845.875 261.096C845.082 261.096 844.444 260.84 843.961 260.33C843.482 259.82 843.243 259.116 843.243 258.218V253.357H845.294V257.862C845.294 258.336 845.417 258.708 845.663 258.977C845.909 259.245 846.246 259.38 846.675 259.38C847.112 259.38 847.468 259.241 847.741 258.963C848.019 258.68 848.158 258.286 848.158 257.78V253.357H850.216V261H848.274L848.247 259.414C848.033 259.956 847.728 260.373 847.331 260.665C846.939 260.952 846.454 261.096 845.875 261.096ZM854.017 250.814V261H851.966V250.814H854.017ZM859.219 261.15C858.439 261.15 857.767 260.991 857.202 260.672C856.637 260.353 856.202 259.899 855.896 259.312C855.596 258.724 855.445 258.026 855.445 257.22C855.445 256.431 855.596 255.741 855.896 255.148C856.202 254.556 856.628 254.093 857.175 253.761C857.726 253.428 858.373 253.262 859.116 253.262C859.782 253.262 860.385 253.403 860.928 253.686C861.47 253.968 861.901 254.396 862.22 254.971C862.543 255.545 862.705 256.267 862.705 257.138V257.712H857.476C857.498 258.336 857.672 258.808 857.995 259.127C858.319 259.446 858.738 259.605 859.253 259.605C859.613 259.605 859.921 259.53 860.176 259.38C860.436 259.225 860.62 258.999 860.729 258.703L862.589 259.052C862.402 259.685 862.015 260.193 861.427 260.576C860.843 260.959 860.107 261.15 859.219 261.15ZM857.489 256.427H860.729C860.679 255.93 860.52 255.536 860.251 255.244C859.982 254.952 859.611 254.807 859.137 254.807C858.645 254.807 858.257 254.959 857.975 255.265C857.692 255.565 857.53 255.953 857.489 256.427Z" fill="#12141E"/>
<rect x="998" y="150" width="238" height="50" rx="3" fill="white"/>
<rect x="998" y="150" width="238" height="50" rx="3" stroke="#B6B9C9" stroke-width="2"/>
<path d="M1036 180.137C1035.09 180.137 1034.29 179.932 1033.57 179.521C1032.86 179.111 1032.3 178.517 1031.89 177.737C1031.48 176.958 1031.27 176.017 1031.27 174.914C1031.27 173.807 1031.48 172.863 1031.89 172.084C1032.31 171.3 1032.87 170.703 1033.59 170.293C1034.3 169.883 1035.11 169.678 1036 169.678C1036.77 169.678 1037.47 169.821 1038.09 170.108C1038.72 170.391 1039.23 170.803 1039.63 171.346C1040.03 171.883 1040.28 172.533 1040.38 173.294H1038.27C1038.17 172.743 1037.92 172.312 1037.52 172.002C1037.12 171.688 1036.63 171.53 1036.04 171.53C1035.25 171.53 1034.61 171.824 1034.12 172.412C1033.63 173 1033.39 173.834 1033.39 174.914C1033.39 176.017 1033.63 176.855 1034.12 177.43C1034.61 177.999 1035.25 178.284 1036.04 178.284C1036.61 178.284 1037.11 178.129 1037.51 177.819C1037.92 177.505 1038.18 177.07 1038.28 176.514H1040.39C1040.31 177.147 1040.09 177.74 1039.72 178.291C1039.35 178.838 1038.85 179.282 1038.22 179.624C1037.6 179.966 1036.86 180.137 1036 180.137ZM1045.28 180.15C1044.52 180.15 1043.86 179.986 1043.29 179.658C1042.73 179.326 1042.3 178.865 1042 178.277C1041.7 177.685 1041.54 176.997 1041.54 176.213C1041.54 175.424 1041.7 174.734 1042 174.142C1042.3 173.549 1042.73 173.089 1043.29 172.761C1043.86 172.428 1044.52 172.262 1045.28 172.262C1046.05 172.262 1046.71 172.428 1047.27 172.761C1047.83 173.089 1048.26 173.549 1048.57 174.142C1048.87 174.734 1049.02 175.424 1049.02 176.213C1049.02 176.997 1048.87 177.685 1048.57 178.277C1048.26 178.865 1047.83 179.326 1047.27 179.658C1046.71 179.986 1046.05 180.15 1045.28 180.15ZM1045.28 178.537C1045.83 178.537 1046.24 178.316 1046.52 177.874C1046.8 177.432 1046.94 176.876 1046.94 176.206C1046.94 175.532 1046.8 174.976 1046.52 174.538C1046.24 174.096 1045.83 173.875 1045.28 173.875C1044.74 173.875 1044.32 174.096 1044.05 174.538C1043.77 174.976 1043.64 175.532 1043.64 176.206C1043.64 176.876 1043.77 177.432 1044.05 177.874C1044.32 178.316 1044.74 178.537 1045.28 178.537ZM1052.5 175.577V180H1050.45V172.357H1052.39L1052.41 173.937C1052.63 173.403 1052.93 172.991 1053.32 172.699C1053.72 172.408 1054.21 172.262 1054.79 172.262C1055.59 172.262 1056.22 172.517 1056.7 173.027C1057.18 173.538 1057.42 174.242 1057.42 175.14V180H1055.37V175.495C1055.37 175.021 1055.24 174.65 1055 174.381C1054.76 174.112 1054.42 173.978 1053.99 173.978C1053.55 173.978 1053.19 174.119 1052.91 174.401C1052.64 174.679 1052.5 175.071 1052.5 175.577ZM1062.97 172.357V173.923H1061.54V177.765C1061.54 178.239 1061.77 178.476 1062.24 178.476C1062.31 178.476 1062.42 178.466 1062.56 178.448C1062.7 178.425 1062.81 178.405 1062.89 178.387L1063.18 179.925C1062.95 179.993 1062.72 180.041 1062.5 180.068C1062.27 180.096 1062.06 180.109 1061.85 180.109C1061.09 180.109 1060.5 179.925 1060.1 179.556C1059.69 179.182 1059.49 178.644 1059.49 177.942V173.923H1058.44V172.357H1059.49V170.539H1061.54V172.357H1062.97ZM1064.3 180V172.357H1066.35V180H1064.3ZM1065.33 171.359C1065.02 171.359 1064.75 171.257 1064.53 171.052C1064.32 170.847 1064.21 170.598 1064.21 170.307C1064.21 170.015 1064.32 169.767 1064.53 169.562C1064.75 169.356 1065.02 169.254 1065.33 169.254C1065.64 169.254 1065.9 169.356 1066.12 169.562C1066.34 169.767 1066.46 170.015 1066.46 170.307C1066.46 170.598 1066.34 170.847 1066.12 171.052C1065.9 171.257 1065.64 171.359 1065.33 171.359ZM1070.15 175.577V180H1068.1V172.357H1070.04L1070.06 173.937C1070.28 173.403 1070.58 172.991 1070.97 172.699C1071.37 172.408 1071.86 172.262 1072.44 172.262C1073.24 172.262 1073.87 172.517 1074.35 173.027C1074.83 173.538 1075.07 174.242 1075.07 175.14V180H1073.02V175.495C1073.02 175.021 1072.89 174.65 1072.65 174.381C1072.41 174.112 1072.07 173.978 1071.64 173.978C1071.2 173.978 1070.84 174.119 1070.56 174.401C1070.29 174.679 1070.15 175.071 1070.15 175.577ZM1080.22 183.021C1079.27 183.021 1078.5 182.846 1077.91 182.495C1077.33 182.144 1076.95 181.695 1076.78 181.148L1078.55 180.656C1078.64 180.87 1078.82 181.069 1079.07 181.251C1079.33 181.438 1079.71 181.531 1080.21 181.531C1080.73 181.531 1081.14 181.41 1081.44 181.169C1081.74 180.932 1081.89 180.561 1081.89 180.055V178.646H1081.73C1081.59 178.956 1081.36 179.241 1081.03 179.501C1080.71 179.761 1080.23 179.891 1079.61 179.891C1079.04 179.891 1078.52 179.756 1078.05 179.487C1077.58 179.218 1077.2 178.808 1076.92 178.257C1076.64 177.705 1076.5 177.008 1076.5 176.165C1076.5 175.304 1076.65 174.584 1076.93 174.005C1077.21 173.426 1077.59 172.991 1078.06 172.699C1078.54 172.408 1079.06 172.262 1079.62 172.262C1080.05 172.262 1080.41 172.335 1080.7 172.48C1080.99 172.626 1081.23 172.806 1081.41 173.021C1081.59 173.235 1081.72 173.442 1081.82 173.643H1081.9V172.357H1083.92V179.938C1083.92 180.627 1083.76 181.199 1083.44 181.654C1083.13 182.115 1082.69 182.456 1082.13 182.68C1081.57 182.908 1080.94 183.021 1080.22 183.021ZM1080.26 178.332C1080.78 178.332 1081.18 178.141 1081.47 177.758C1081.75 177.37 1081.9 176.835 1081.9 176.151C1081.9 175.472 1081.76 174.928 1081.47 174.518C1081.19 174.107 1080.79 173.902 1080.26 173.902C1079.72 173.902 1079.31 174.114 1079.03 174.538C1078.75 174.957 1078.61 175.495 1078.61 176.151C1078.61 176.821 1078.75 177.352 1079.03 177.744C1079.32 178.136 1079.72 178.332 1080.26 178.332ZM1089.12 180.15C1088.34 180.15 1087.67 179.991 1087.11 179.672C1086.54 179.353 1086.11 178.899 1085.8 178.312C1085.5 177.724 1085.35 177.026 1085.35 176.22C1085.35 175.431 1085.5 174.741 1085.8 174.148C1086.11 173.556 1086.53 173.093 1087.08 172.761C1087.63 172.428 1088.28 172.262 1089.02 172.262C1089.69 172.262 1090.29 172.403 1090.83 172.686C1091.37 172.968 1091.81 173.396 1092.12 173.971C1092.45 174.545 1092.61 175.267 1092.61 176.138V176.712H1087.38C1087.4 177.336 1087.58 177.808 1087.9 178.127C1088.22 178.446 1088.64 178.605 1089.16 178.605C1089.52 178.605 1089.82 178.53 1090.08 178.38C1090.34 178.225 1090.52 177.999 1090.63 177.703L1092.49 178.052C1092.31 178.685 1091.92 179.193 1091.33 179.576C1090.75 179.959 1090.01 180.15 1089.12 180.15ZM1087.39 175.427H1090.63C1090.58 174.93 1090.42 174.536 1090.16 174.244C1089.89 173.952 1089.51 173.807 1089.04 173.807C1088.55 173.807 1088.16 173.959 1087.88 174.265C1087.6 174.565 1087.43 174.953 1087.39 175.427ZM1096.06 175.577V180H1094.01V172.357H1095.95L1095.97 173.937C1096.19 173.403 1096.49 172.991 1096.88 172.699C1097.27 172.408 1097.76 172.262 1098.35 172.262C1099.14 172.262 1099.78 172.517 1100.26 173.027C1100.74 173.538 1100.98 174.242 1100.98 175.14V180H1098.93V175.495C1098.93 175.021 1098.8 174.65 1098.56 174.381C1098.32 174.112 1097.98 173.978 1097.54 173.978C1097.11 173.978 1096.75 174.119 1096.47 174.401C1096.2 174.679 1096.06 175.071 1096.06 175.577ZM1106.53 172.357V173.923H1105.1V177.765C1105.1 178.239 1105.33 178.476 1105.8 178.476C1105.87 178.476 1105.98 178.466 1106.12 178.448C1106.26 178.425 1106.37 178.405 1106.45 178.387L1106.74 179.925C1106.51 179.993 1106.28 180.041 1106.06 180.068C1105.83 180.096 1105.62 180.109 1105.41 180.109C1104.65 180.109 1104.06 179.925 1103.66 179.556C1103.25 179.182 1103.05 178.644 1103.05 177.942V173.923H1102V172.357H1103.05V170.539H1105.1V172.357H1106.53ZM1112.42 180.137C1111.47 180.137 1110.63 179.927 1109.91 179.508C1109.19 179.084 1108.63 178.482 1108.23 177.703C1107.83 176.924 1107.63 175.996 1107.63 174.921C1107.63 173.823 1107.84 172.882 1108.25 172.098C1108.67 171.314 1109.24 170.715 1109.95 170.3C1110.67 169.885 1111.48 169.678 1112.37 169.678C1113.14 169.678 1113.83 169.824 1114.45 170.115C1115.07 170.407 1115.58 170.81 1115.97 171.325C1116.37 171.836 1116.62 172.426 1116.71 173.096H1114.59C1114.45 172.608 1114.19 172.225 1113.81 171.947C1113.44 171.669 1112.97 171.53 1112.41 171.53C1111.62 171.53 1110.98 171.822 1110.49 172.405C1109.99 172.989 1109.75 173.82 1109.75 174.9C1109.75 175.98 1109.99 176.814 1110.48 177.402C1110.97 177.99 1111.62 178.284 1112.43 178.284C1113.16 178.284 1113.73 178.093 1114.14 177.71C1114.56 177.327 1114.77 176.81 1114.79 176.158H1112.58V174.572H1116.82V175.844C1116.82 176.737 1116.63 177.505 1116.25 178.147C1115.87 178.785 1115.35 179.278 1114.69 179.624C1114.03 179.966 1113.27 180.137 1112.42 180.137ZM1118.37 180V172.357H1120.36V173.69H1120.44C1120.58 173.221 1120.81 172.866 1121.14 172.624C1121.48 172.378 1121.86 172.255 1122.28 172.255C1122.52 172.255 1122.74 172.278 1122.95 172.323V174.155C1122.86 174.128 1122.72 174.105 1122.54 174.087C1122.37 174.064 1122.21 174.053 1122.06 174.053C1121.58 174.053 1121.19 174.201 1120.88 174.497C1120.58 174.793 1120.42 175.178 1120.42 175.652V180H1118.37ZM1127.15 180.15C1126.39 180.15 1125.72 179.986 1125.16 179.658C1124.6 179.326 1124.17 178.865 1123.86 178.277C1123.56 177.685 1123.41 176.997 1123.41 176.213C1123.41 175.424 1123.56 174.734 1123.86 174.142C1124.17 173.549 1124.6 173.089 1125.16 172.761C1125.72 172.428 1126.39 172.262 1127.15 172.262C1127.92 172.262 1128.58 172.428 1129.14 172.761C1129.7 173.089 1130.13 173.549 1130.43 174.142C1130.74 174.734 1130.89 175.424 1130.89 176.213C1130.89 176.997 1130.74 177.685 1130.43 178.277C1130.13 178.865 1129.7 179.326 1129.14 179.658C1128.58 179.986 1127.92 180.15 1127.15 180.15ZM1127.15 178.537C1127.7 178.537 1128.11 178.316 1128.39 177.874C1128.67 177.432 1128.81 176.876 1128.81 176.206C1128.81 175.532 1128.67 174.976 1128.39 174.538C1128.11 174.096 1127.7 173.875 1127.15 173.875C1126.6 173.875 1126.19 174.096 1125.91 174.538C1125.64 174.976 1125.5 175.532 1125.5 176.206C1125.5 176.876 1125.64 177.432 1125.91 177.874C1126.19 178.316 1126.6 178.537 1127.15 178.537ZM1134.95 180.096C1134.16 180.096 1133.52 179.84 1133.04 179.33C1132.56 178.82 1132.32 178.116 1132.32 177.218V172.357H1134.37V176.862C1134.37 177.336 1134.49 177.708 1134.74 177.977C1134.99 178.245 1135.32 178.38 1135.75 178.38C1136.19 178.38 1136.54 178.241 1136.82 177.963C1137.1 177.68 1137.23 177.286 1137.23 176.78V172.357H1139.29V180H1137.35L1137.32 178.414C1137.11 178.956 1136.8 179.373 1136.41 179.665C1136.02 179.952 1135.53 180.096 1134.95 180.096ZM1141.04 182.857V172.357H1143.06V173.643H1143.15C1143.25 173.442 1143.38 173.235 1143.55 173.021C1143.73 172.806 1143.96 172.626 1144.25 172.48C1144.54 172.335 1144.9 172.262 1145.33 172.262C1145.9 172.262 1146.42 172.408 1146.89 172.699C1147.36 172.991 1147.73 173.428 1148.01 174.012C1148.29 174.595 1148.43 175.322 1148.43 176.192C1148.43 177.04 1148.29 177.758 1148.02 178.346C1147.75 178.929 1147.38 179.373 1146.91 179.679C1146.44 179.979 1145.91 180.13 1145.32 180.13C1144.91 180.13 1144.56 180.059 1144.27 179.918C1143.98 179.777 1143.75 179.604 1143.56 179.398C1143.39 179.189 1143.25 178.981 1143.15 178.776H1143.09V182.857H1141.04ZM1144.69 178.482C1145.23 178.482 1145.63 178.268 1145.91 177.84C1146.19 177.411 1146.33 176.86 1146.33 176.186C1146.33 175.516 1146.19 174.969 1145.92 174.545C1145.64 174.117 1145.23 173.902 1144.69 173.902C1144.16 173.902 1143.76 174.11 1143.47 174.524C1143.19 174.939 1143.04 175.493 1143.04 176.186C1143.04 176.878 1143.19 177.434 1143.48 177.854C1143.76 178.273 1144.17 178.482 1144.69 178.482ZM1154.37 180.137C1153.47 180.137 1152.66 179.932 1151.95 179.521C1151.23 179.111 1150.67 178.517 1150.26 177.737C1149.85 176.958 1149.64 176.017 1149.64 174.914C1149.64 173.807 1149.85 172.863 1150.26 172.084C1150.68 171.3 1151.24 170.703 1151.96 170.293C1152.67 169.883 1153.48 169.678 1154.37 169.678C1155.14 169.678 1155.84 169.821 1156.46 170.108C1157.09 170.391 1157.6 170.803 1158 171.346C1158.4 171.883 1158.65 172.533 1158.75 173.294H1156.64C1156.55 172.743 1156.3 172.312 1155.89 172.002C1155.49 171.688 1155 171.53 1154.41 171.53C1153.62 171.53 1152.98 171.824 1152.49 172.412C1152 173 1151.76 173.834 1151.76 174.914C1151.76 176.017 1152 176.855 1152.49 177.43C1152.98 177.999 1153.62 178.284 1154.41 178.284C1154.99 178.284 1155.48 178.129 1155.88 177.819C1156.29 177.505 1156.55 177.07 1156.65 176.514H1158.76C1158.68 177.147 1158.46 177.74 1158.09 178.291C1157.72 178.838 1157.22 179.282 1156.59 179.624C1155.97 179.966 1155.23 180.137 1154.37 180.137ZM1163.66 180.15C1162.89 180.15 1162.23 179.986 1161.67 179.658C1161.11 179.326 1160.67 178.865 1160.37 178.277C1160.07 177.685 1159.92 176.997 1159.92 176.213C1159.92 175.424 1160.07 174.734 1160.37 174.142C1160.67 173.549 1161.11 173.089 1161.67 172.761C1162.23 172.428 1162.89 172.262 1163.66 172.262C1164.42 172.262 1165.08 172.428 1165.64 172.761C1166.21 173.089 1166.64 173.549 1166.94 174.142C1167.24 174.734 1167.39 175.424 1167.39 176.213C1167.39 176.997 1167.24 177.685 1166.94 178.277C1166.64 178.865 1166.21 179.326 1165.64 179.658C1165.08 179.986 1164.42 180.15 1163.66 180.15ZM1163.66 178.537C1164.2 178.537 1164.61 178.316 1164.89 177.874C1165.17 177.432 1165.31 176.876 1165.31 176.206C1165.31 175.532 1165.17 174.976 1164.89 174.538C1164.61 174.096 1164.2 173.875 1163.66 173.875C1163.11 173.875 1162.7 174.096 1162.42 174.538C1162.14 174.976 1162.01 175.532 1162.01 176.206C1162.01 176.876 1162.14 177.432 1162.42 177.874C1162.7 178.316 1163.11 178.537 1163.66 178.537ZM1170.87 175.577V180H1168.82V172.357H1170.76L1170.79 173.937C1171 173.403 1171.3 172.991 1171.69 172.699C1172.09 172.408 1172.58 172.262 1173.16 172.262C1173.96 172.262 1174.59 172.517 1175.07 173.027C1175.55 173.538 1175.79 174.242 1175.79 175.14V180H1173.74V175.495C1173.74 175.021 1173.62 174.65 1173.37 174.381C1173.13 174.112 1172.79 173.978 1172.36 173.978C1171.92 173.978 1171.56 174.119 1171.28 174.401C1171.01 174.679 1170.87 175.071 1170.87 175.577ZM1181.34 172.357V173.923H1179.91V177.765C1179.91 178.239 1180.14 178.476 1180.61 178.476C1180.69 178.476 1180.79 178.466 1180.93 178.448C1181.07 178.425 1181.18 178.405 1181.26 178.387L1181.55 179.925C1181.32 179.993 1181.1 180.041 1180.87 180.068C1180.64 180.096 1180.43 180.109 1180.23 180.109C1179.46 180.109 1178.87 179.925 1178.47 179.556C1178.06 179.182 1177.86 178.644 1177.86 177.942V173.923H1176.81V172.357H1177.86V170.539H1179.91V172.357H1181.34ZM1184.87 180.15C1184.14 180.15 1183.54 179.959 1183.06 179.576C1182.57 179.189 1182.33 178.617 1182.33 177.86C1182.33 177.291 1182.47 176.844 1182.74 176.521C1183.01 176.197 1183.37 175.96 1183.81 175.81C1184.25 175.659 1184.71 175.561 1185.22 175.516C1185.87 175.452 1186.34 175.386 1186.63 175.317C1186.92 175.244 1187.07 175.083 1187.07 174.832V174.798C1187.07 174.474 1186.96 174.224 1186.75 174.046C1186.55 173.868 1186.25 173.779 1185.87 173.779C1185.48 173.779 1185.16 173.866 1184.92 174.039C1184.67 174.208 1184.51 174.415 1184.43 174.661L1182.55 174.347C1182.75 173.686 1183.14 173.173 1183.72 172.809C1184.31 172.444 1185.03 172.262 1185.88 172.262C1186.43 172.262 1186.95 172.348 1187.44 172.521C1187.93 172.695 1188.34 172.973 1188.65 173.355C1188.96 173.734 1189.12 174.233 1189.12 174.853V180H1187.18V178.94H1187.11C1186.92 179.296 1186.64 179.588 1186.28 179.815C1185.91 180.039 1185.44 180.15 1184.87 180.15ZM1185.46 178.708C1185.93 178.708 1186.32 178.569 1186.62 178.291C1186.93 178.013 1187.08 177.671 1187.08 177.266V176.438C1187 176.498 1186.87 176.55 1186.68 176.596C1186.5 176.637 1186.3 176.675 1186.1 176.712C1185.89 176.744 1185.71 176.769 1185.56 176.787C1185.19 176.842 1184.88 176.949 1184.65 177.108C1184.42 177.268 1184.3 177.5 1184.3 177.806C1184.3 178.102 1184.41 178.327 1184.62 178.482C1184.84 178.633 1185.12 178.708 1185.46 178.708ZM1194.29 180.15C1193.52 180.15 1192.86 179.986 1192.3 179.658C1191.74 179.326 1191.31 178.865 1191.01 178.277C1190.71 177.685 1190.55 176.997 1190.55 176.213C1190.55 175.424 1190.71 174.734 1191.01 174.142C1191.31 173.549 1191.74 173.089 1192.3 172.761C1192.86 172.428 1193.52 172.262 1194.29 172.262C1195.2 172.262 1195.96 172.49 1196.56 172.945C1197.17 173.396 1197.55 174.016 1197.69 174.805L1195.78 175.16C1195.7 174.764 1195.53 174.451 1195.28 174.224C1195.03 173.991 1194.71 173.875 1194.31 173.875C1193.77 173.875 1193.35 174.091 1193.07 174.524C1192.79 174.953 1192.65 175.513 1192.65 176.206C1192.65 176.89 1192.79 177.45 1193.07 177.888C1193.35 178.321 1193.77 178.537 1194.31 178.537C1194.71 178.537 1195.04 178.419 1195.29 178.182C1195.55 177.94 1195.72 177.614 1195.8 177.204L1197.71 177.553C1197.56 178.359 1197.18 178.995 1196.58 179.46C1195.97 179.92 1195.21 180.15 1194.29 180.15ZM1202.91 172.357V173.923H1201.49V177.765C1201.49 178.239 1201.72 178.476 1202.18 178.476C1202.26 178.476 1202.37 178.466 1202.5 178.448C1202.65 178.425 1202.75 178.405 1202.83 178.387L1203.13 179.925C1202.9 179.993 1202.67 180.041 1202.44 180.068C1202.22 180.096 1202 180.109 1201.8 180.109C1201.03 180.109 1200.45 179.925 1200.04 179.556C1199.64 179.182 1199.43 178.644 1199.43 177.942V173.923H1198.38V172.357H1199.43V170.539H1201.49V172.357H1202.91Z" fill="#12141E"/>
<rect x="998" y="299" width="238" height="50" rx="3" fill="white"/>
<rect x="998" y="299" width="238" height="50" rx="3" stroke="#B6B9C9" stroke-width="2"/>
<path d="M1048.31 329.137C1047.41 329.137 1046.6 328.932 1045.89 328.521C1045.17 328.111 1044.61 327.517 1044.2 326.737C1043.79 325.958 1043.58 325.017 1043.58 323.914C1043.58 322.807 1043.79 321.863 1044.2 321.084C1044.62 320.3 1045.18 319.703 1045.9 319.293C1046.61 318.883 1047.42 318.678 1048.31 318.678C1049.08 318.678 1049.78 318.821 1050.4 319.108C1051.03 319.391 1051.54 319.803 1051.94 320.346C1052.34 320.883 1052.59 321.533 1052.69 322.294H1050.58C1050.49 321.743 1050.24 321.312 1049.83 321.002C1049.43 320.688 1048.94 320.53 1048.35 320.53C1047.56 320.53 1046.92 320.824 1046.43 321.412C1045.94 322 1045.7 322.834 1045.7 323.914C1045.7 325.017 1045.94 325.855 1046.43 326.43C1046.92 326.999 1047.56 327.284 1048.35 327.284C1048.93 327.284 1049.42 327.129 1049.82 326.819C1050.23 326.505 1050.49 326.07 1050.59 325.514H1052.7C1052.62 326.147 1052.4 326.74 1052.03 327.291C1051.66 327.838 1051.16 328.282 1050.53 328.624C1049.91 328.966 1049.17 329.137 1048.31 329.137ZM1057.6 329.15C1056.83 329.15 1056.17 328.986 1055.61 328.658C1055.05 328.326 1054.61 327.865 1054.31 327.277C1054.01 326.685 1053.86 325.997 1053.86 325.213C1053.86 324.424 1054.01 323.734 1054.31 323.142C1054.61 322.549 1055.05 322.089 1055.61 321.761C1056.17 321.428 1056.83 321.262 1057.6 321.262C1058.36 321.262 1059.02 321.428 1059.58 321.761C1060.15 322.089 1060.58 322.549 1060.88 323.142C1061.18 323.734 1061.33 324.424 1061.33 325.213C1061.33 325.997 1061.18 326.685 1060.88 327.277C1060.58 327.865 1060.15 328.326 1059.58 328.658C1059.02 328.986 1058.36 329.15 1057.6 329.15ZM1057.6 327.537C1058.14 327.537 1058.56 327.316 1058.83 326.874C1059.11 326.432 1059.25 325.876 1059.25 325.206C1059.25 324.532 1059.11 323.976 1058.83 323.538C1058.56 323.096 1058.14 322.875 1057.6 322.875C1057.05 322.875 1056.64 323.096 1056.36 323.538C1056.08 323.976 1055.95 324.532 1055.95 325.206C1055.95 325.876 1056.08 326.432 1056.36 326.874C1056.64 327.316 1057.05 327.537 1057.6 327.537ZM1064.81 324.577V329H1062.76V321.357H1064.7L1064.73 322.937C1064.94 322.403 1065.24 321.991 1065.63 321.699C1066.03 321.408 1066.52 321.262 1067.1 321.262C1067.9 321.262 1068.53 321.517 1069.01 322.027C1069.49 322.538 1069.73 323.242 1069.73 324.14V329H1067.68V324.495C1067.68 324.021 1067.56 323.65 1067.31 323.381C1067.07 323.112 1066.73 322.978 1066.3 322.978C1065.86 322.978 1065.5 323.119 1065.22 323.401C1064.95 323.679 1064.81 324.071 1064.81 324.577ZM1075.28 321.357V322.923H1073.85V326.765C1073.85 327.239 1074.08 327.476 1074.55 327.476C1074.63 327.476 1074.73 327.466 1074.87 327.448C1075.01 327.425 1075.12 327.405 1075.2 327.387L1075.49 328.925C1075.26 328.993 1075.04 329.041 1074.81 329.068C1074.59 329.096 1074.37 329.109 1074.17 329.109C1073.4 329.109 1072.81 328.925 1072.41 328.556C1072 328.182 1071.8 327.644 1071.8 326.942V322.923H1070.75V321.357H1071.8V319.539H1073.85V321.357H1075.28ZM1076.61 329V321.357H1078.66V329H1076.61ZM1077.64 320.359C1077.33 320.359 1077.06 320.257 1076.85 320.052C1076.63 319.847 1076.52 319.598 1076.52 319.307C1076.52 319.015 1076.63 318.767 1076.85 318.562C1077.06 318.356 1077.33 318.254 1077.64 318.254C1077.95 318.254 1078.21 318.356 1078.43 318.562C1078.65 318.767 1078.77 319.015 1078.77 319.307C1078.77 319.598 1078.65 319.847 1078.43 320.052C1078.21 320.257 1077.95 320.359 1077.64 320.359ZM1082.46 324.577V329H1080.41V321.357H1082.35L1082.38 322.937C1082.59 322.403 1082.89 321.991 1083.29 321.699C1083.68 321.408 1084.17 321.262 1084.75 321.262C1085.55 321.262 1086.18 321.517 1086.66 322.027C1087.14 322.538 1087.38 323.242 1087.38 324.14V329H1085.33V324.495C1085.33 324.021 1085.21 323.65 1084.96 323.381C1084.72 323.112 1084.38 322.978 1083.95 322.978C1083.51 322.978 1083.15 323.119 1082.88 323.401C1082.6 323.679 1082.46 324.071 1082.46 324.577ZM1092.53 332.021C1091.58 332.021 1090.81 331.846 1090.22 331.495C1089.64 331.144 1089.26 330.695 1089.1 330.148L1090.86 329.656C1090.96 329.87 1091.13 330.069 1091.39 330.251C1091.65 330.438 1092.02 330.531 1092.52 330.531C1093.04 330.531 1093.45 330.41 1093.75 330.169C1094.05 329.932 1094.2 329.561 1094.2 329.055V327.646H1094.04C1093.9 327.956 1093.67 328.241 1093.34 328.501C1093.02 328.761 1092.55 328.891 1091.93 328.891C1091.35 328.891 1090.83 328.756 1090.36 328.487C1089.89 328.218 1089.51 327.808 1089.23 327.257C1088.95 326.705 1088.82 326.008 1088.82 325.165C1088.82 324.304 1088.96 323.584 1089.24 323.005C1089.53 322.426 1089.9 321.991 1090.37 321.699C1090.85 321.408 1091.37 321.262 1091.93 321.262C1092.36 321.262 1092.72 321.335 1093.01 321.48C1093.3 321.626 1093.54 321.806 1093.72 322.021C1093.9 322.235 1094.04 322.442 1094.13 322.643H1094.22V321.357H1096.23V328.938C1096.23 329.627 1096.07 330.199 1095.75 330.654C1095.44 331.115 1095 331.456 1094.44 331.68C1093.89 331.908 1093.25 332.021 1092.53 332.021ZM1092.57 327.332C1093.09 327.332 1093.5 327.141 1093.78 326.758C1094.07 326.37 1094.21 325.835 1094.21 325.151C1094.21 324.472 1094.07 323.928 1093.79 323.518C1093.5 323.107 1093.1 322.902 1092.57 322.902C1092.03 322.902 1091.62 323.114 1091.34 323.538C1091.06 323.957 1090.92 324.495 1090.92 325.151C1090.92 325.821 1091.06 326.352 1091.34 326.744C1091.63 327.136 1092.04 327.332 1092.57 327.332ZM1101.43 329.15C1100.66 329.15 1099.98 328.991 1099.42 328.672C1098.85 328.353 1098.42 327.899 1098.11 327.312C1097.81 326.724 1097.66 326.026 1097.66 325.22C1097.66 324.431 1097.81 323.741 1098.11 323.148C1098.42 322.556 1098.84 322.093 1099.39 321.761C1099.94 321.428 1100.59 321.262 1101.33 321.262C1102 321.262 1102.6 321.403 1103.14 321.686C1103.69 321.968 1104.12 322.396 1104.44 322.971C1104.76 323.545 1104.92 324.267 1104.92 325.138V325.712H1099.69C1099.71 326.336 1099.89 326.808 1100.21 327.127C1100.53 327.446 1100.95 327.605 1101.47 327.605C1101.83 327.605 1102.14 327.53 1102.39 327.38C1102.65 327.225 1102.84 326.999 1102.95 326.703L1104.8 327.052C1104.62 327.685 1104.23 328.193 1103.64 328.576C1103.06 328.959 1102.32 329.15 1101.43 329.15ZM1099.71 324.427H1102.95C1102.9 323.93 1102.74 323.536 1102.47 323.244C1102.2 322.952 1101.83 322.807 1101.35 322.807C1100.86 322.807 1100.47 322.959 1100.19 323.265C1099.91 323.565 1099.75 323.953 1099.71 324.427ZM1108.37 324.577V329H1106.32V321.357H1108.26L1108.28 322.937C1108.5 322.403 1108.8 321.991 1109.19 321.699C1109.59 321.408 1110.08 321.262 1110.66 321.262C1111.46 321.262 1112.09 321.517 1112.57 322.027C1113.05 322.538 1113.29 323.242 1113.29 324.14V329H1111.24V324.495C1111.24 324.021 1111.11 323.65 1110.87 323.381C1110.63 323.112 1110.29 322.978 1109.86 322.978C1109.42 322.978 1109.06 323.119 1108.78 323.401C1108.51 323.679 1108.37 324.071 1108.37 324.577ZM1118.84 321.357V322.923H1117.41V326.765C1117.41 327.239 1117.64 327.476 1118.11 327.476C1118.18 327.476 1118.29 327.466 1118.43 327.448C1118.57 327.425 1118.68 327.405 1118.76 327.387L1119.05 328.925C1118.82 328.993 1118.6 329.041 1118.37 329.068C1118.14 329.096 1117.93 329.109 1117.72 329.109C1116.96 329.109 1116.37 328.925 1115.97 328.556C1115.56 328.182 1115.36 327.644 1115.36 326.942V322.923H1114.31V321.357H1115.36V319.539H1117.41V321.357H1118.84ZM1124.73 329.137C1123.78 329.137 1122.94 328.927 1122.22 328.508C1121.5 328.084 1120.94 327.482 1120.54 326.703C1120.14 325.924 1119.94 324.996 1119.94 323.921C1119.94 322.823 1120.15 321.882 1120.56 321.098C1120.98 320.314 1121.55 319.715 1122.26 319.3C1122.98 318.885 1123.79 318.678 1124.68 318.678C1125.45 318.678 1126.14 318.824 1126.76 319.115C1127.38 319.407 1127.89 319.81 1128.29 320.325C1128.68 320.836 1128.93 321.426 1129.02 322.096H1126.91C1126.76 321.608 1126.5 321.225 1126.13 320.947C1125.75 320.669 1125.28 320.53 1124.72 320.53C1123.93 320.53 1123.29 320.822 1122.8 321.405C1122.3 321.989 1122.06 322.82 1122.06 323.9C1122.06 324.98 1122.3 325.814 1122.79 326.402C1123.28 326.99 1123.93 327.284 1124.75 327.284C1125.47 327.284 1126.04 327.093 1126.45 326.71C1126.87 326.327 1127.09 325.81 1127.1 325.158H1124.89V323.572H1129.13V324.844C1129.13 325.737 1128.94 326.505 1128.56 327.147C1128.18 327.785 1127.66 328.278 1127 328.624C1126.34 328.966 1125.58 329.137 1124.73 329.137ZM1130.69 329V321.357H1132.67V322.69H1132.75C1132.89 322.221 1133.13 321.866 1133.45 321.624C1133.79 321.378 1134.17 321.255 1134.6 321.255C1134.83 321.255 1135.05 321.278 1135.26 321.323V323.155C1135.17 323.128 1135.03 323.105 1134.86 323.087C1134.68 323.064 1134.52 323.053 1134.37 323.053C1133.9 323.053 1133.5 323.201 1133.19 323.497C1132.89 323.793 1132.74 324.178 1132.74 324.652V329H1130.69ZM1139.46 329.15C1138.7 329.15 1138.03 328.986 1137.47 328.658C1136.91 328.326 1136.48 327.865 1136.17 327.277C1135.87 326.685 1135.72 325.997 1135.72 325.213C1135.72 324.424 1135.87 323.734 1136.17 323.142C1136.48 322.549 1136.91 322.089 1137.47 321.761C1138.03 321.428 1138.7 321.262 1139.46 321.262C1140.23 321.262 1140.89 321.428 1141.45 321.761C1142.01 322.089 1142.44 322.549 1142.74 323.142C1143.05 323.734 1143.2 324.424 1143.2 325.213C1143.2 325.997 1143.05 326.685 1142.74 327.277C1142.44 327.865 1142.01 328.326 1141.45 328.658C1140.89 328.986 1140.23 329.15 1139.46 329.15ZM1139.46 327.537C1140.01 327.537 1140.42 327.316 1140.7 326.874C1140.98 326.432 1141.12 325.876 1141.12 325.206C1141.12 324.532 1140.98 323.976 1140.7 323.538C1140.42 323.096 1140.01 322.875 1139.46 322.875C1138.92 322.875 1138.5 323.096 1138.23 323.538C1137.95 323.976 1137.82 324.532 1137.82 325.206C1137.82 325.876 1137.95 326.432 1138.23 326.874C1138.5 327.316 1138.92 327.537 1139.46 327.537ZM1147.26 329.096C1146.47 329.096 1145.83 328.84 1145.35 328.33C1144.87 327.82 1144.63 327.116 1144.63 326.218V321.357H1146.68V325.862C1146.68 326.336 1146.8 326.708 1147.05 326.977C1147.3 327.245 1147.63 327.38 1148.06 327.38C1148.5 327.38 1148.86 327.241 1149.13 326.963C1149.41 326.68 1149.55 326.286 1149.55 325.78V321.357H1151.6V329H1149.66L1149.63 327.414C1149.42 327.956 1149.12 328.373 1148.72 328.665C1148.33 328.952 1147.84 329.096 1147.26 329.096ZM1153.35 331.857V321.357H1155.37V322.643H1155.47C1155.56 322.442 1155.69 322.235 1155.86 322.021C1156.04 321.806 1156.27 321.626 1156.56 321.48C1156.85 321.335 1157.21 321.262 1157.65 321.262C1158.21 321.262 1158.73 321.408 1159.2 321.699C1159.67 321.991 1160.04 322.428 1160.32 323.012C1160.6 323.595 1160.74 324.322 1160.74 325.192C1160.74 326.04 1160.61 326.758 1160.33 327.346C1160.06 327.929 1159.69 328.373 1159.22 328.679C1158.75 328.979 1158.22 329.13 1157.63 329.13C1157.22 329.13 1156.87 329.059 1156.58 328.918C1156.29 328.777 1156.06 328.604 1155.88 328.398C1155.7 328.189 1155.56 327.981 1155.47 327.776H1155.4V331.857H1153.35ZM1157 327.482C1157.54 327.482 1157.94 327.268 1158.22 326.84C1158.5 326.411 1158.64 325.86 1158.64 325.186C1158.64 324.516 1158.51 323.969 1158.23 323.545C1157.95 323.117 1157.54 322.902 1157 322.902C1156.48 322.902 1156.07 323.11 1155.78 323.524C1155.5 323.939 1155.36 324.493 1155.36 325.186C1155.36 325.878 1155.5 326.434 1155.79 326.854C1156.07 327.273 1156.48 327.482 1157 327.482ZM1162.23 329V318.814H1166.21C1167.36 318.814 1168.26 319.118 1168.89 319.724C1169.53 320.325 1169.85 321.127 1169.85 322.13C1169.85 322.827 1169.69 323.424 1169.38 323.921C1169.07 324.413 1168.63 324.782 1168.04 325.028L1170.21 329H1167.9L1165.96 325.363H1164.32V329H1162.23ZM1164.32 323.675H1165.82C1167.07 323.675 1167.7 323.16 1167.7 322.13C1167.7 321.615 1167.54 321.221 1167.23 320.947C1166.93 320.674 1166.45 320.537 1165.82 320.537H1164.32V323.675ZM1174.63 329.15C1173.86 329.15 1173.2 328.986 1172.64 328.658C1172.08 328.326 1171.64 327.865 1171.34 327.277C1171.04 326.685 1170.89 325.997 1170.89 325.213C1170.89 324.424 1171.04 323.734 1171.34 323.142C1171.64 322.549 1172.08 322.089 1172.64 321.761C1173.2 321.428 1173.86 321.262 1174.63 321.262C1175.39 321.262 1176.06 321.428 1176.62 321.761C1177.18 322.089 1177.61 322.549 1177.91 323.142C1178.21 323.734 1178.37 324.424 1178.37 325.213C1178.37 325.997 1178.21 326.685 1177.91 327.277C1177.61 327.865 1177.18 328.326 1176.62 328.658C1176.06 328.986 1175.39 329.15 1174.63 329.15ZM1174.63 327.537C1175.17 327.537 1175.59 327.316 1175.86 326.874C1176.14 326.432 1176.28 325.876 1176.28 325.206C1176.28 324.532 1176.14 323.976 1175.86 323.538C1175.59 323.096 1175.17 322.875 1174.63 322.875C1174.08 322.875 1173.67 323.096 1173.39 323.538C1173.12 323.976 1172.98 324.532 1172.98 325.206C1172.98 325.876 1173.12 326.432 1173.39 326.874C1173.67 327.316 1174.08 327.537 1174.63 327.537ZM1181.85 318.814V329H1179.79V318.814H1181.85ZM1187.05 329.15C1186.27 329.15 1185.6 328.991 1185.03 328.672C1184.47 328.353 1184.03 327.899 1183.73 327.312C1183.42 326.724 1183.27 326.026 1183.27 325.22C1183.27 324.431 1183.42 323.741 1183.73 323.148C1184.03 322.556 1184.46 322.093 1185 321.761C1185.56 321.428 1186.2 321.262 1186.95 321.262C1187.61 321.262 1188.21 321.403 1188.76 321.686C1189.3 321.968 1189.73 322.396 1190.05 322.971C1190.37 323.545 1190.53 324.267 1190.53 325.138V325.712H1185.3C1185.33 326.336 1185.5 326.808 1185.82 327.127C1186.15 327.446 1186.57 327.605 1187.08 327.605C1187.44 327.605 1187.75 327.53 1188 327.38C1188.26 327.225 1188.45 326.999 1188.56 326.703L1190.42 327.052C1190.23 327.685 1189.84 328.193 1189.26 328.576C1188.67 328.959 1187.94 329.15 1187.05 329.15ZM1185.32 324.427H1188.56C1188.51 323.93 1188.35 323.536 1188.08 323.244C1187.81 322.952 1187.44 322.807 1186.97 322.807C1186.47 322.807 1186.09 322.959 1185.8 323.265C1185.52 323.565 1185.36 323.953 1185.32 324.427Z" fill="#12141E"/>
<rect x="1" y="231" width="238" height="50" rx="3" fill="white"/>
<rect x="1" y="231" width="238" height="50" rx="3" stroke="#B6B9C9" stroke-width="2"/>
<path d="M93.4287 261.137C92.5309 261.137 91.722 260.932 91.002 260.521C90.2865 260.111 89.7191 259.517 89.2998 258.737C88.8851 257.958 88.6777 257.017 88.6777 255.914C88.6777 254.807 88.8851 253.863 89.2998 253.084C89.7191 252.3 90.2865 251.703 91.002 251.293C91.722 250.883 92.5309 250.678 93.4287 250.678C94.3311 250.678 95.14 250.883 95.8555 251.293C96.571 251.703 97.1361 252.3 97.5508 253.084C97.9701 253.863 98.1797 254.807 98.1797 255.914C98.1797 257.021 97.9701 257.965 97.5508 258.744C97.1361 259.519 96.571 260.111 95.8555 260.521C95.14 260.932 94.3311 261.137 93.4287 261.137ZM93.4287 259.284C94.2217 259.284 94.8574 258.997 95.3359 258.423C95.819 257.844 96.0605 257.008 96.0605 255.914C96.0605 254.816 95.819 253.977 95.3359 253.398C94.8574 252.82 94.2217 252.53 93.4287 252.53C92.6403 252.53 92.0046 252.822 91.5215 253.405C91.0384 253.984 90.7969 254.82 90.7969 255.914C90.7969 257.003 91.0384 257.837 91.5215 258.416C92.0046 258.995 92.6403 259.284 93.4287 259.284ZM99.6973 261V253.357H101.68V254.69H101.762C101.903 254.221 102.138 253.866 102.466 253.624C102.799 253.378 103.179 253.255 103.607 253.255C103.84 253.255 104.061 253.278 104.271 253.323V255.155C104.179 255.128 104.045 255.105 103.867 255.087C103.694 255.064 103.532 255.053 103.382 255.053C102.908 255.053 102.516 255.201 102.206 255.497C101.901 255.793 101.748 256.178 101.748 256.652V261H99.6973ZM107.853 261.13C107.265 261.13 106.736 260.979 106.267 260.679C105.797 260.373 105.424 259.929 105.146 259.346C104.872 258.758 104.735 258.04 104.735 257.192C104.735 256.322 104.877 255.595 105.159 255.012C105.442 254.428 105.818 253.991 106.287 253.699C106.757 253.408 107.274 253.262 107.839 253.262C108.272 253.262 108.632 253.335 108.919 253.48C109.206 253.626 109.436 253.806 109.609 254.021C109.787 254.235 109.922 254.442 110.013 254.643H110.081V250.814H112.132V261H110.115V259.776H110.013C109.917 259.981 109.78 260.189 109.603 260.398C109.425 260.604 109.192 260.777 108.905 260.918C108.618 261.059 108.267 261.13 107.853 261.13ZM108.481 259.482C109.001 259.482 109.404 259.273 109.691 258.854C109.979 258.434 110.122 257.878 110.122 257.186C110.122 256.493 109.979 255.939 109.691 255.524C109.409 255.11 109.006 254.902 108.481 254.902C107.944 254.902 107.536 255.117 107.258 255.545C106.98 255.969 106.841 256.516 106.841 257.186C106.841 257.86 106.98 258.411 107.258 258.84C107.54 259.268 107.948 259.482 108.481 259.482ZM117.341 261.15C116.562 261.15 115.889 260.991 115.324 260.672C114.759 260.353 114.324 259.899 114.019 259.312C113.718 258.724 113.567 258.026 113.567 257.22C113.567 256.431 113.718 255.741 114.019 255.148C114.324 254.556 114.75 254.093 115.297 253.761C115.848 253.428 116.495 253.262 117.238 253.262C117.904 253.262 118.507 253.403 119.05 253.686C119.592 253.968 120.023 254.396 120.342 254.971C120.665 255.545 120.827 256.267 120.827 257.138V257.712H115.598C115.62 258.336 115.794 258.808 116.117 259.127C116.441 259.446 116.86 259.605 117.375 259.605C117.735 259.605 118.043 259.53 118.298 259.38C118.558 259.225 118.742 258.999 118.852 258.703L120.711 259.052C120.524 259.685 120.137 260.193 119.549 260.576C118.965 260.959 118.229 261.15 117.341 261.15ZM115.611 256.427H118.852C118.801 255.93 118.642 255.536 118.373 255.244C118.104 254.952 117.733 254.807 117.259 254.807C116.767 254.807 116.379 254.959 116.097 255.265C115.814 255.565 115.652 255.953 115.611 256.427ZM122.229 261V253.357H124.211V254.69H124.293C124.434 254.221 124.669 253.866 124.997 253.624C125.33 253.378 125.71 253.255 126.139 253.255C126.371 253.255 126.592 253.278 126.802 253.323V255.155C126.711 255.128 126.576 255.105 126.398 255.087C126.225 255.064 126.063 255.053 125.913 255.053C125.439 255.053 125.047 255.201 124.737 255.497C124.432 255.793 124.279 256.178 124.279 256.652V261H122.229ZM128.196 261V250.814H130.281V259.271H134.677V261H128.196ZM136.064 261V253.357H138.115V261H136.064ZM137.09 252.359C136.78 252.359 136.516 252.257 136.297 252.052C136.078 251.847 135.969 251.598 135.969 251.307C135.969 251.015 136.078 250.767 136.297 250.562C136.516 250.356 136.78 250.254 137.09 250.254C137.4 250.254 137.664 250.356 137.883 250.562C138.106 250.767 138.218 251.015 138.218 251.307C138.218 251.598 138.106 251.847 137.883 252.052C137.664 252.257 137.4 252.359 137.09 252.359ZM142.9 261.15C141.98 261.15 141.219 260.954 140.617 260.562C140.02 260.171 139.656 259.619 139.523 258.908L141.431 258.58C141.627 259.291 142.137 259.646 142.962 259.646C143.354 259.646 143.661 259.574 143.885 259.428C144.113 259.277 144.227 259.088 144.227 258.86C144.227 258.473 143.898 258.211 143.242 258.074L141.923 257.801C140.455 257.5 139.722 256.778 139.722 255.634C139.722 254.9 140.016 254.321 140.604 253.897C141.191 253.474 141.968 253.262 142.935 253.262C143.841 253.262 144.564 253.446 145.102 253.815C145.639 254.185 145.979 254.679 146.12 255.299L144.302 255.62C144.22 255.36 144.069 255.148 143.851 254.984C143.632 254.816 143.336 254.731 142.962 254.731C142.625 254.731 142.342 254.804 142.114 254.95C141.886 255.091 141.772 255.276 141.772 255.504C141.772 255.695 141.845 255.859 141.991 255.996C142.142 256.128 142.397 256.231 142.757 256.304L144.131 256.577C145.589 256.873 146.318 257.562 146.318 258.642C146.318 259.143 146.173 259.583 145.881 259.961C145.589 260.335 145.186 260.626 144.671 260.836C144.156 261.046 143.566 261.15 142.9 261.15ZM151.507 253.357V254.923H150.078V258.765C150.078 259.239 150.311 259.476 150.775 259.476C150.853 259.476 150.96 259.466 151.097 259.448C151.238 259.425 151.347 259.405 151.425 259.387L151.719 260.925C151.491 260.993 151.263 261.041 151.035 261.068C150.812 261.096 150.598 261.109 150.393 261.109C149.627 261.109 149.041 260.925 148.636 260.556C148.23 260.182 148.027 259.644 148.027 258.942V254.923H146.975V253.357H148.027V251.539H150.078V253.357H151.507Z" fill="#12141E"/>
<path d="M997.707 323.293C998.098 323.683 998.098 324.317 997.707 324.707L991.343 331.071C990.953 331.462 990.319 331.462 989.929 331.071C989.538 330.681 989.538 330.047 989.929 329.657L995.586 324L989.929 318.343C989.538 317.953 989.538 317.319 989.929 316.929C990.319 316.538 990.953 316.538 991.343 316.929L997.707 323.293ZM868 282V316H866V282H868ZM875 323H997V325H875V323ZM868 316C868 319.866 871.134 323 875 323V325C870.029 325 866 320.971 866 316H868Z" fill="#B6B9C9"/>
<path d="M997.707 175.707C998.098 175.317 998.098 174.683 997.707 174.293L991.343 167.929C990.953 167.538 990.319 167.538 989.929 167.929C989.538 168.319 989.538 168.953 989.929 169.343L995.586 175L989.929 180.657C989.538 181.047 989.538 181.681 989.929 182.071C990.319 182.462 990.953 182.462 991.343 182.071L997.707 175.707ZM868 230V183H866V230H868ZM875 176L997 176V174L875 174V176ZM868 183C868 179.134 871.134 176 875 176V174C870.029 174 866 178.029 866 183H868Z" fill="#B6B9C9"/>
<path d="M345.707 26.7071C346.098 26.3166 346.098 25.6834 345.707 25.2929L339.343 18.9289C338.953 18.5384 338.319 18.5384 337.929 18.9289C337.538 19.3195 337.538 19.9526 337.929 20.3432L343.586 26L337.929 31.6569C337.538 32.0474 337.538 32.6805 337.929 33.0711C338.319 33.4616 338.953 33.4616 339.343 33.0711L345.707 26.7071ZM240 27L345 27L345 25L240 25L240 27Z" fill="#B6B9C9"/>
<path d="M690.707 26.7071C691.098 26.3166 691.098 25.6834 690.707 25.2929L684.343 18.9289C683.953 18.5384 683.319 18.5384 682.929 18.9289C682.538 19.3195 682.538 19.9526 682.929 20.3432L688.586 26L682.929 31.6569C682.538 32.0474 682.538 32.6805 682.929 33.0711C683.319 33.4616 683.953 33.4616 684.343 33.0711L690.707 26.7071ZM585 27L690 27L690 25L585 25L585 27Z" fill="#B6B9C9"/>
<path d="M690.707 256.707C691.098 256.317 691.098 255.683 690.707 255.293L684.343 248.929C683.953 248.538 683.319 248.538 682.929 248.929C682.538 249.319 682.538 249.953 682.929 250.343L688.586 256L682.929 261.657C682.538 262.047 682.538 262.681 682.929 263.071C683.319 263.462 683.953 263.462 684.343 263.071L690.707 256.707ZM585 257L690 257L690 255L585 255L585 257Z" fill="#B6B9C9"/>
<path d="M1037.71 26.7071C1038.1 26.3166 1038.1 25.6834 1037.71 25.2929L1031.34 18.9289C1030.95 18.5384 1030.32 18.5384 1029.93 18.9289C1029.54 19.3195 1029.54 19.9526 1029.93 20.3432L1035.59 26L1029.93 31.6569C1029.54 32.0474 1029.54 32.6805 1029.93 33.0711C1030.32 33.4616 1030.95 33.4616 1031.34 33.0711L1037.71 26.7071ZM930 27L1037 27L1037 25L930 25L930 27Z" fill="#B6B9C9"/>
<path d="M119.293 230.707C119.683 231.098 120.317 231.098 120.707 230.707L127.071 224.343C127.462 223.953 127.462 223.319 127.071 222.929C126.681 222.538 126.047 222.538 125.657 222.929L120 228.586L114.343 222.929C113.953 222.538 113.319 222.538 112.929 222.929C112.538 223.319 112.538 223.953 112.929 224.343L119.293 230.707ZM119 52V230H121V52H119Z" fill="#B6B9C9"/>
<path d="M810.707 51.2929C810.317 50.9024 809.683 50.9024 809.293 51.2929L802.929 57.6569C802.538 58.0474 802.538 58.6805 802.929 59.0711C803.319 59.4616 803.953 59.4616 804.343 59.0711L810 53.4142L815.657 59.0711C816.047 59.4616 816.681 59.4616 817.071 59.0711C817.462 58.6805 817.462 58.0474 817.071 57.6569L810.707 51.2929ZM811 230L811 52L809 52L809 230L811 230Z" fill="#B6B9C9"/>
</g>
<defs>
<clipPath id="clip0_398_1486">
<rect width="1277" height="350" fill="white"/>
</clipPath>
</defs>
</svg>
