<svg width="640" height="52" viewBox="0 0 640 52" fill="none" xmlns="http://www.w3.org/2000/svg">
<g clip-path="url(#clip0_398_1483)">
<rect x="1" y="1" width="238" height="50" rx="3" fill="white"/>
<rect x="1" y="1" width="238" height="50" rx="3" stroke="#B6B9C9" stroke-width="2"/>
<path d="M106.26 31L109.739 20.8145H112.474L116.042 31H113.725L112.938 28.6348H109.322L108.563 31H106.26ZM109.842 27.001H112.398L112.091 26.085C111.927 25.5654 111.763 25.0026 111.599 24.3965C111.435 23.7904 111.264 23.141 111.086 22.4482C110.917 23.1501 110.756 23.804 110.601 24.4102C110.446 25.0163 110.291 25.5745 110.136 26.085L109.842 27.001ZM121.169 31.1367C120.262 31.1367 119.453 30.9316 118.742 30.5215C118.031 30.1113 117.468 29.5166 117.054 28.7373C116.644 27.958 116.438 27.0169 116.438 25.9141C116.438 24.8066 116.646 23.8633 117.061 23.084C117.475 22.3001 118.04 21.7031 118.756 21.293C119.471 20.8828 120.276 20.6777 121.169 20.6777C121.939 20.6777 122.636 20.8213 123.261 21.1084C123.885 21.391 124.398 21.8034 124.799 22.3457C125.2 22.8835 125.451 23.5329 125.551 24.2939H123.438C123.343 23.7425 123.092 23.3118 122.687 23.002C122.285 22.6875 121.793 22.5303 121.21 22.5303C120.417 22.5303 119.777 22.8242 119.289 23.4121C118.801 24 118.558 24.834 118.558 25.9141C118.558 27.0169 118.801 27.8555 119.289 28.4297C119.781 28.9993 120.419 29.2842 121.203 29.2842C121.782 29.2842 122.274 29.1292 122.68 28.8193C123.09 28.5049 123.345 28.0697 123.445 27.5137H125.558C125.48 28.1471 125.257 28.7396 124.888 29.291C124.519 29.8379 124.02 30.2822 123.391 30.624C122.766 30.9658 122.026 31.1367 121.169 31.1367ZM127.082 31V20.8145H129.167V29.2705H133.562V31H127.082Z" fill="#12141E"/>
<rect x="401" y="1" width="238" height="50" rx="3" fill="white"/>
<rect x="401" y="1" width="238" height="50" rx="3" stroke="#B6B9C9" stroke-width="2"/>
<path d="M486.429 31L489.908 20.8145H492.643L496.211 31H493.894L493.107 28.6348H489.491L488.732 31H486.429ZM490.011 27.001H492.567L492.26 26.085C492.096 25.5654 491.932 25.0026 491.768 24.3965C491.604 23.7904 491.433 23.141 491.255 22.4482C491.086 23.1501 490.924 23.804 490.77 24.4102C490.615 25.0163 490.46 25.5745 490.305 26.085L490.011 27.001ZM501.338 31.1367C500.431 31.1367 499.622 30.9316 498.911 30.5215C498.2 30.1113 497.637 29.5166 497.223 28.7373C496.812 27.958 496.607 27.0169 496.607 25.9141C496.607 24.8066 496.815 23.8633 497.229 23.084C497.644 22.3001 498.209 21.7031 498.925 21.293C499.64 20.8828 500.445 20.6777 501.338 20.6777C502.108 20.6777 502.805 20.8213 503.43 21.1084C504.054 21.391 504.567 21.8034 504.968 22.3457C505.369 22.8835 505.619 23.5329 505.72 24.2939H503.607C503.512 23.7425 503.261 23.3118 502.855 23.002C502.454 22.6875 501.962 22.5303 501.379 22.5303C500.586 22.5303 499.946 22.8242 499.458 23.4121C498.97 24 498.727 24.834 498.727 25.9141C498.727 27.0169 498.97 27.8555 499.458 28.4297C499.95 28.9993 500.588 29.2842 501.372 29.2842C501.951 29.2842 502.443 29.1292 502.849 28.8193C503.259 28.5049 503.514 28.0697 503.614 27.5137H505.727C505.649 28.1471 505.426 28.7396 505.057 29.291C504.688 29.8379 504.188 30.2822 503.56 30.624C502.935 30.9658 502.195 31.1367 501.338 31.1367ZM507.251 31V20.8145H509.336V29.2705H513.731V31H507.251ZM515.167 31V20.8145H519.139C520.296 20.8145 521.192 21.1175 521.825 21.7236C522.463 22.3252 522.782 23.1273 522.782 24.1299C522.782 24.8271 522.627 25.4242 522.317 25.9209C522.007 26.4131 521.561 26.7822 520.978 27.0283L523.145 31H520.834L518.893 27.3633H517.252V31H515.167ZM517.252 25.6748H518.756C520.005 25.6748 520.629 25.1598 520.629 24.1299C520.629 23.6149 520.474 23.2207 520.164 22.9473C519.859 22.6738 519.387 22.5371 518.749 22.5371H517.252V25.6748ZM527.561 31.1504C526.795 31.1504 526.132 30.9863 525.571 30.6582C525.011 30.3255 524.578 29.8652 524.272 29.2773C523.972 28.6849 523.821 27.9967 523.821 27.2129C523.821 26.4245 523.972 25.734 524.272 25.1416C524.578 24.5492 525.011 24.0889 525.571 23.7607C526.132 23.4281 526.795 23.2617 527.561 23.2617C528.326 23.2617 528.989 23.4281 529.55 23.7607C530.11 24.0889 530.541 24.5492 530.842 25.1416C531.147 25.734 531.3 26.4245 531.3 27.2129C531.3 27.9967 531.147 28.6849 530.842 29.2773C530.541 29.8652 530.11 30.3255 529.55 30.6582C528.989 30.9863 528.326 31.1504 527.561 31.1504ZM527.561 29.5371C528.107 29.5371 528.52 29.3161 528.798 28.874C529.076 28.432 529.215 27.876 529.215 27.2061C529.215 26.5316 529.076 25.9756 528.798 25.5381C528.52 25.096 528.107 24.875 527.561 24.875C527.014 24.875 526.601 25.096 526.323 25.5381C526.05 25.9756 525.913 26.5316 525.913 27.2061C525.913 27.876 526.05 28.432 526.323 28.874C526.601 29.3161 527.014 29.5371 527.561 29.5371ZM535.36 31.0957C534.567 31.0957 533.929 30.8405 533.446 30.3301C532.968 29.8197 532.729 29.1156 532.729 28.2178V23.3574H534.779V27.8623C534.779 28.3363 534.902 28.7077 535.148 28.9766C535.395 29.2454 535.732 29.3799 536.16 29.3799C536.598 29.3799 536.953 29.2409 537.227 28.9629C537.505 28.6803 537.644 28.2861 537.644 27.7803V23.3574H539.701V31H537.76L537.732 29.4141C537.518 29.9564 537.213 30.3734 536.816 30.665C536.424 30.9521 535.939 31.0957 535.36 31.0957ZM545.245 23.3574V24.9229H543.816V28.7646C543.816 29.2386 544.049 29.4756 544.514 29.4756C544.591 29.4756 544.698 29.4665 544.835 29.4482C544.976 29.4255 545.086 29.4049 545.163 29.3867L545.457 30.9248C545.229 30.9932 545.001 31.041 544.773 31.0684C544.55 31.0957 544.336 31.1094 544.131 31.1094C543.365 31.1094 542.78 30.9248 542.374 30.5557C541.968 30.182 541.766 29.6442 541.766 28.9424V24.9229H540.713V23.3574H541.766V21.5391H543.816V23.3574H545.245ZM549.894 31.1504C549.114 31.1504 548.442 30.9909 547.877 30.6719C547.312 30.3529 546.877 29.8994 546.571 29.3115C546.271 28.7236 546.12 28.0264 546.12 27.2197C546.12 26.4313 546.271 25.7409 546.571 25.1484C546.877 24.556 547.303 24.0934 547.85 23.7607C548.401 23.4281 549.048 23.2617 549.791 23.2617C550.456 23.2617 551.06 23.403 551.603 23.6855C552.145 23.9681 552.576 24.3965 552.895 24.9707C553.218 25.5449 553.38 26.2673 553.38 27.1377V27.7119H548.15C548.173 28.3363 548.346 28.8079 548.67 29.127C548.993 29.446 549.413 29.6055 549.928 29.6055C550.288 29.6055 550.595 29.5303 550.851 29.3799C551.11 29.2249 551.295 28.9993 551.404 28.7031L553.264 29.0518C553.077 29.6852 552.689 30.1934 552.102 30.5762C551.518 30.959 550.782 31.1504 549.894 31.1504ZM548.164 26.4268H551.404C551.354 25.93 551.195 25.5358 550.926 25.2441C550.657 24.9525 550.285 24.8066 549.812 24.8066C549.319 24.8066 548.932 24.9593 548.649 25.2646C548.367 25.5654 548.205 25.9528 548.164 26.4268Z" fill="#12141E"/>
<path d="M400.707 26.7071C401.098 26.3166 401.098 25.6834 400.707 25.2929L394.343 18.9289C393.953 18.5384 393.319 18.5384 392.929 18.9289C392.538 19.3195 392.538 19.9526 392.929 20.3432L398.586 26L392.929 31.6569C392.538 32.0474 392.538 32.6806 392.929 33.0711C393.319 33.4616 393.953 33.4616 394.343 33.0711L400.707 26.7071ZM240 27L400 27L400 25L240 25L240 27Z" fill="#B6B9C9"/>
</g>
<defs>
<clipPath id="clip0_398_1483">
<rect width="640" height="52" fill="white"/>
</clipPath>
</defs>
</svg>
