<svg width="640" height="493" viewBox="0 0 640 493" fill="none" xmlns="http://www.w3.org/2000/svg">
<g clip-path="url(#clip0_410_2453)">
<rect x="341" y="66" width="298" height="50" rx="3" fill="white"/>
<rect x="341" y="66" width="298" height="50" rx="3" stroke="#B6B9C9" stroke-width="2"/>
<path d="M400.244 96V85.8145H404.216C404.991 85.8145 405.649 85.9626 406.191 86.2588C406.734 86.5505 407.146 86.9561 407.429 87.4756C407.716 87.9906 407.859 88.583 407.859 89.2529C407.859 89.9274 407.714 90.5221 407.422 91.0371C407.135 91.5475 406.715 91.9486 406.164 92.2402C405.613 92.5273 404.947 92.6709 404.168 92.6709H402.329V96H400.244ZM402.329 90.9893H403.833C404.471 90.9893 404.943 90.8275 405.248 90.5039C405.553 90.1803 405.706 89.7633 405.706 89.2529C405.706 88.738 405.553 88.3232 405.248 88.0088C404.943 87.6943 404.469 87.5371 403.826 87.5371H402.329V90.9893ZM411.229 96.1504C410.5 96.1504 409.894 95.959 409.411 95.5762C408.928 95.1888 408.687 94.6169 408.687 93.8604C408.687 93.2907 408.823 92.8441 409.097 92.5205C409.37 92.1969 409.726 91.96 410.163 91.8096C410.601 91.6592 411.07 91.5612 411.571 91.5156C412.228 91.4518 412.699 91.3857 412.986 91.3174C413.278 91.2445 413.424 91.0827 413.424 90.832V90.7979C413.424 90.4743 413.319 90.2236 413.109 90.0459C412.904 89.8682 412.61 89.7793 412.228 89.7793C411.831 89.7793 411.512 89.8659 411.271 90.0391C411.029 90.2077 410.867 90.415 410.785 90.6611L408.905 90.3467C409.101 89.6859 409.491 89.1732 410.074 88.8086C410.662 88.444 411.382 88.2617 412.234 88.2617C412.781 88.2617 413.301 88.3483 413.793 88.5215C414.29 88.6947 414.693 88.9727 415.003 89.3555C415.317 89.7337 415.475 90.2327 415.475 90.8525V96H413.533V94.9404H413.465C413.278 95.2959 413 95.5876 412.631 95.8154C412.262 96.0387 411.795 96.1504 411.229 96.1504ZM411.811 94.708C412.289 94.708 412.679 94.569 412.979 94.291C413.285 94.013 413.438 93.6712 413.438 93.2656V92.4385C413.355 92.4977 413.221 92.5501 413.034 92.5957C412.852 92.6367 412.658 92.6755 412.453 92.7119C412.248 92.7438 412.07 92.7689 411.92 92.7871C411.542 92.8418 411.236 92.9489 411.004 93.1084C410.771 93.2679 410.655 93.5003 410.655 93.8057C410.655 94.1019 410.762 94.3275 410.977 94.4824C411.195 94.6328 411.473 94.708 411.811 94.708ZM420.629 99.0215C419.672 99.0215 418.902 98.846 418.318 98.4951C417.735 98.1442 417.359 97.6953 417.19 97.1484L418.954 96.6562C419.05 96.8704 419.225 97.0687 419.48 97.251C419.74 97.4378 420.118 97.5312 420.615 97.5312C421.135 97.5312 421.545 97.4105 421.846 97.1689C422.146 96.932 422.297 96.5605 422.297 96.0547V94.6465H422.14C421.998 94.9564 421.764 95.2412 421.436 95.501C421.112 95.7607 420.64 95.8906 420.021 95.8906C419.446 95.8906 418.924 95.7562 418.455 95.4873C417.986 95.2184 417.61 94.8083 417.327 94.2568C417.049 93.7054 416.91 93.0081 416.91 92.165C416.91 91.3037 417.051 90.5837 417.334 90.0049C417.621 89.4261 417.999 88.9909 418.469 88.6992C418.943 88.4076 419.462 88.2617 420.027 88.2617C420.456 88.2617 420.816 88.3346 421.107 88.4805C421.399 88.6263 421.634 88.8063 421.812 89.0205C421.994 89.2347 422.131 89.4421 422.222 89.6426H422.311V88.3574H424.327V95.9385C424.327 96.6266 424.168 97.1986 423.849 97.6543C423.534 98.1146 423.097 98.4564 422.536 98.6797C421.98 98.9076 421.344 99.0215 420.629 99.0215ZM420.663 94.332C421.187 94.332 421.59 94.1406 421.873 93.7578C422.16 93.3704 422.304 92.835 422.304 92.1514C422.304 91.4723 422.162 90.9277 421.88 90.5176C421.597 90.1074 421.192 89.9023 420.663 89.9023C420.125 89.9023 419.715 90.1143 419.433 90.5381C419.155 90.9574 419.016 91.4951 419.016 92.1514C419.016 92.8213 419.157 93.3522 419.439 93.7441C419.722 94.1361 420.13 94.332 420.663 94.332ZM429.529 96.1504C428.75 96.1504 428.078 95.9909 427.513 95.6719C426.948 95.3529 426.512 94.8994 426.207 94.3115C425.906 93.7236 425.756 93.0264 425.756 92.2197C425.756 91.4313 425.906 90.7409 426.207 90.1484C426.512 89.556 426.938 89.0934 427.485 88.7607C428.037 88.4281 428.684 88.2617 429.427 88.2617C430.092 88.2617 430.696 88.403 431.238 88.6855C431.781 88.9681 432.211 89.3965 432.53 89.9707C432.854 90.5449 433.016 91.2673 433.016 92.1377V92.7119H427.786C427.809 93.3363 427.982 93.8079 428.306 94.127C428.629 94.446 429.049 94.6055 429.563 94.6055C429.924 94.6055 430.231 94.5303 430.486 94.3799C430.746 94.2249 430.931 93.9993 431.04 93.7031L432.899 94.0518C432.713 94.6852 432.325 95.1934 431.737 95.5762C431.154 95.959 430.418 96.1504 429.529 96.1504ZM427.8 91.4268H431.04C430.99 90.93 430.83 90.5358 430.562 90.2441C430.293 89.9525 429.921 89.8066 429.447 89.8066C428.955 89.8066 428.568 89.9593 428.285 90.2646C428.003 90.5654 427.841 90.9528 427.8 91.4268ZM437.787 96V85.8145H439.872V94.2705H444.268V96H437.787ZM449.073 96.1504C448.308 96.1504 447.645 95.9863 447.084 95.6582C446.523 95.3255 446.09 94.8652 445.785 94.2773C445.484 93.6849 445.334 92.9967 445.334 92.2129C445.334 91.4245 445.484 90.734 445.785 90.1416C446.09 89.5492 446.523 89.0889 447.084 88.7607C447.645 88.4281 448.308 88.2617 449.073 88.2617C449.839 88.2617 450.502 88.4281 451.062 88.7607C451.623 89.0889 452.054 89.5492 452.354 90.1416C452.66 90.734 452.812 91.4245 452.812 92.2129C452.812 92.9967 452.66 93.6849 452.354 94.2773C452.054 94.8652 451.623 95.3255 451.062 95.6582C450.502 95.9863 449.839 96.1504 449.073 96.1504ZM449.073 94.5371C449.62 94.5371 450.033 94.3161 450.311 93.874C450.589 93.432 450.728 92.876 450.728 92.2061C450.728 91.5316 450.589 90.9756 450.311 90.5381C450.033 90.096 449.62 89.875 449.073 89.875C448.526 89.875 448.114 90.096 447.836 90.5381C447.562 90.9756 447.426 91.5316 447.426 92.2061C447.426 92.876 447.562 93.432 447.836 93.874C448.114 94.3161 448.526 94.5371 449.073 94.5371ZM456.511 96.1504C455.782 96.1504 455.175 95.959 454.692 95.5762C454.209 95.1888 453.968 94.6169 453.968 93.8604C453.968 93.2907 454.104 92.8441 454.378 92.5205C454.651 92.1969 455.007 91.96 455.444 91.8096C455.882 91.6592 456.351 91.5612 456.853 91.5156C457.509 91.4518 457.98 91.3857 458.268 91.3174C458.559 91.2445 458.705 91.0827 458.705 90.832V90.7979C458.705 90.4743 458.6 90.2236 458.391 90.0459C458.186 89.8682 457.892 89.7793 457.509 89.7793C457.112 89.7793 456.793 89.8659 456.552 90.0391C456.31 90.2077 456.148 90.415 456.066 90.6611L454.187 90.3467C454.382 89.6859 454.772 89.1732 455.355 88.8086C455.943 88.444 456.663 88.2617 457.516 88.2617C458.062 88.2617 458.582 88.3483 459.074 88.5215C459.571 88.6947 459.974 88.9727 460.284 89.3555C460.599 89.7337 460.756 90.2327 460.756 90.8525V96H458.814V94.9404H458.746C458.559 95.2959 458.281 95.5876 457.912 95.8154C457.543 96.0387 457.076 96.1504 456.511 96.1504ZM457.092 94.708C457.57 94.708 457.96 94.569 458.261 94.291C458.566 94.013 458.719 93.6712 458.719 93.2656V92.4385C458.637 92.4977 458.502 92.5501 458.315 92.5957C458.133 92.6367 457.939 92.6755 457.734 92.7119C457.529 92.7438 457.352 92.7689 457.201 92.7871C456.823 92.8418 456.518 92.9489 456.285 93.1084C456.053 93.2679 455.937 93.5003 455.937 93.8057C455.937 94.1019 456.044 94.3275 456.258 94.4824C456.477 94.6328 456.755 94.708 457.092 94.708ZM465.309 96.1299C464.721 96.1299 464.192 95.9795 463.723 95.6787C463.253 95.3734 462.88 94.929 462.602 94.3457C462.328 93.7578 462.191 93.04 462.191 92.1924C462.191 91.3219 462.333 90.5951 462.615 90.0117C462.898 89.4284 463.274 88.9909 463.743 88.6992C464.213 88.4076 464.73 88.2617 465.295 88.2617C465.728 88.2617 466.088 88.3346 466.375 88.4805C466.662 88.6263 466.892 88.8063 467.065 89.0205C467.243 89.2347 467.378 89.4421 467.469 89.6426H467.537V85.8145H469.588V96H467.571V94.7764H467.469C467.373 94.9814 467.236 95.1888 467.059 95.3984C466.881 95.6035 466.648 95.7767 466.361 95.918C466.074 96.0592 465.723 96.1299 465.309 96.1299ZM465.938 94.4824C466.457 94.4824 466.86 94.2728 467.147 93.8535C467.435 93.4342 467.578 92.8783 467.578 92.1855C467.578 91.4928 467.435 90.9391 467.147 90.5244C466.865 90.1097 466.462 89.9023 465.938 89.9023C465.4 89.9023 464.992 90.1165 464.714 90.5449C464.436 90.9688 464.297 91.5156 464.297 92.1855C464.297 92.86 464.436 93.4115 464.714 93.8398C464.996 94.2682 465.404 94.4824 465.938 94.4824ZM474.797 96.1504C474.018 96.1504 473.345 95.9909 472.78 95.6719C472.215 95.3529 471.78 94.8994 471.475 94.3115C471.174 93.7236 471.023 93.0264 471.023 92.2197C471.023 91.4313 471.174 90.7409 471.475 90.1484C471.78 89.556 472.206 89.0934 472.753 88.7607C473.304 88.4281 473.951 88.2617 474.694 88.2617C475.36 88.2617 475.964 88.403 476.506 88.6855C477.048 88.9681 477.479 89.3965 477.798 89.9707C478.121 90.5449 478.283 91.2673 478.283 92.1377V92.7119H473.054C473.076 93.3363 473.25 93.8079 473.573 94.127C473.897 94.446 474.316 94.6055 474.831 94.6055C475.191 94.6055 475.499 94.5303 475.754 94.3799C476.014 94.2249 476.198 93.9993 476.308 93.7031L478.167 94.0518C477.98 94.6852 477.593 95.1934 477.005 95.5762C476.422 95.959 475.686 96.1504 474.797 96.1504ZM473.067 91.4268H476.308C476.257 90.93 476.098 90.5358 475.829 90.2441C475.56 89.9525 475.189 89.8066 474.715 89.8066C474.223 89.8066 473.835 89.9593 473.553 90.2646C473.27 90.5654 473.108 90.9528 473.067 91.4268ZM479.685 96V88.3574H481.667V89.6904H481.749C481.89 89.221 482.125 88.8656 482.453 88.624C482.786 88.3779 483.166 88.2549 483.595 88.2549C483.827 88.2549 484.048 88.2777 484.258 88.3232V90.1553C484.167 90.1279 484.032 90.1051 483.854 90.0869C483.681 90.0641 483.52 90.0527 483.369 90.0527C482.895 90.0527 482.503 90.2008 482.193 90.4971C481.888 90.7933 481.735 91.1784 481.735 91.6523V96H479.685ZM488.421 96.1504C487.5 96.1504 486.739 95.9544 486.138 95.5625C485.541 95.1706 485.176 94.6191 485.044 93.9082L486.951 93.5801C487.147 94.291 487.658 94.6465 488.482 94.6465C488.874 94.6465 489.182 94.5736 489.405 94.4277C489.633 94.2773 489.747 94.0882 489.747 93.8604C489.747 93.473 489.419 93.2109 488.763 93.0742L487.443 92.8008C485.976 92.5 485.242 91.7777 485.242 90.6338C485.242 89.9001 485.536 89.3213 486.124 88.8975C486.712 88.4736 487.489 88.2617 488.455 88.2617C489.362 88.2617 490.084 88.4463 490.622 88.8154C491.16 89.1846 491.499 89.679 491.641 90.2988L489.822 90.6201C489.74 90.3604 489.59 90.1484 489.371 89.9844C489.152 89.8158 488.856 89.7314 488.482 89.7314C488.145 89.7314 487.863 89.8044 487.635 89.9502C487.407 90.0915 487.293 90.276 487.293 90.5039C487.293 90.6953 487.366 90.8594 487.512 90.9961C487.662 91.1283 487.917 91.2308 488.277 91.3037L489.651 91.5771C491.11 91.8734 491.839 92.5615 491.839 93.6416C491.839 94.1429 491.693 94.5827 491.401 94.9609C491.11 95.3346 490.706 95.6263 490.191 95.8359C489.676 96.0456 489.086 96.1504 488.421 96.1504ZM500.931 85.3359L497.649 97.5312H495.872L499.153 85.3359H500.931ZM509.817 96.1367C508.91 96.1367 508.102 95.9316 507.391 95.5215C506.68 95.1113 506.117 94.5166 505.702 93.7373C505.292 92.958 505.087 92.0169 505.087 90.9141C505.087 89.8066 505.294 88.8633 505.709 88.084C506.124 87.3001 506.689 86.7031 507.404 86.293C508.12 85.8828 508.924 85.6777 509.817 85.6777C510.588 85.6777 511.285 85.8213 511.909 86.1084C512.534 86.391 513.046 86.8034 513.447 87.3457C513.848 87.8835 514.099 88.5329 514.199 89.2939H512.087C511.991 88.7425 511.741 88.3118 511.335 88.002C510.934 87.6875 510.442 87.5303 509.858 87.5303C509.065 87.5303 508.425 87.8242 507.938 88.4121C507.45 89 507.206 89.834 507.206 90.9141C507.206 92.0169 507.45 92.8555 507.938 93.4297C508.43 93.9993 509.068 94.2842 509.852 94.2842C510.43 94.2842 510.923 94.1292 511.328 93.8193C511.738 93.5049 511.993 93.0697 512.094 92.5137H514.206C514.129 93.1471 513.905 93.7396 513.536 94.291C513.167 94.8379 512.668 95.2822 512.039 95.624C511.415 95.9658 510.674 96.1367 509.817 96.1367ZM519.101 96.1504C518.335 96.1504 517.672 95.9863 517.111 95.6582C516.551 95.3255 516.118 94.8652 515.812 94.2773C515.512 93.6849 515.361 92.9967 515.361 92.2129C515.361 91.4245 515.512 90.734 515.812 90.1416C516.118 89.5492 516.551 89.0889 517.111 88.7607C517.672 88.4281 518.335 88.2617 519.101 88.2617C519.866 88.2617 520.529 88.4281 521.09 88.7607C521.65 89.0889 522.081 89.5492 522.382 90.1416C522.687 90.734 522.84 91.4245 522.84 92.2129C522.84 92.9967 522.687 93.6849 522.382 94.2773C522.081 94.8652 521.65 95.3255 521.09 95.6582C520.529 95.9863 519.866 96.1504 519.101 96.1504ZM519.101 94.5371C519.647 94.5371 520.06 94.3161 520.338 93.874C520.616 93.432 520.755 92.876 520.755 92.2061C520.755 91.5316 520.616 90.9756 520.338 90.5381C520.06 90.096 519.647 89.875 519.101 89.875C518.554 89.875 518.141 90.096 517.863 90.5381C517.59 90.9756 517.453 91.5316 517.453 92.2061C517.453 92.876 517.59 93.432 517.863 93.874C518.141 94.3161 518.554 94.5371 519.101 94.5371ZM526.319 91.5771V96H524.269V88.3574H526.203L526.23 89.9365C526.445 89.4033 526.748 88.9909 527.14 88.6992C527.532 88.4076 528.021 88.2617 528.609 88.2617C529.402 88.2617 530.038 88.5169 530.517 89.0273C530.995 89.5378 531.234 90.2419 531.234 91.1396V96H529.184V91.4951C529.184 91.0212 529.061 90.6497 528.814 90.3809C528.573 90.112 528.236 89.9775 527.803 89.9775C527.365 89.9775 527.007 90.1188 526.729 90.4014C526.456 90.6794 526.319 91.0713 526.319 91.5771ZM536.785 88.3574V89.9229H535.356V93.7646C535.356 94.2386 535.589 94.4756 536.054 94.4756C536.131 94.4756 536.238 94.4665 536.375 94.4482C536.516 94.4255 536.626 94.4049 536.703 94.3867L536.997 95.9248C536.769 95.9932 536.541 96.041 536.313 96.0684C536.09 96.0957 535.876 96.1094 535.671 96.1094C534.905 96.1094 534.32 95.9248 533.914 95.5557C533.508 95.182 533.306 94.6442 533.306 93.9424V89.9229H532.253V88.3574H533.306V86.5391H535.356V88.3574H536.785ZM538.118 96V88.3574H540.101V89.6904H540.183C540.324 89.221 540.559 88.8656 540.887 88.624C541.219 88.3779 541.6 88.2549 542.028 88.2549C542.261 88.2549 542.482 88.2777 542.691 88.3232V90.1553C542.6 90.1279 542.466 90.1051 542.288 90.0869C542.115 90.0641 541.953 90.0527 541.803 90.0527C541.329 90.0527 540.937 90.2008 540.627 90.4971C540.322 90.7933 540.169 91.1784 540.169 91.6523V96H538.118ZM546.896 96.1504C546.13 96.1504 545.467 95.9863 544.906 95.6582C544.346 95.3255 543.913 94.8652 543.607 94.2773C543.307 93.6849 543.156 92.9967 543.156 92.2129C543.156 91.4245 543.307 90.734 543.607 90.1416C543.913 89.5492 544.346 89.0889 544.906 88.7607C545.467 88.4281 546.13 88.2617 546.896 88.2617C547.661 88.2617 548.324 88.4281 548.885 88.7607C549.445 89.0889 549.876 89.5492 550.177 90.1416C550.482 90.734 550.635 91.4245 550.635 92.2129C550.635 92.9967 550.482 93.6849 550.177 94.2773C549.876 94.8652 549.445 95.3255 548.885 95.6582C548.324 95.9863 547.661 96.1504 546.896 96.1504ZM546.896 94.5371C547.442 94.5371 547.855 94.3161 548.133 93.874C548.411 93.432 548.55 92.876 548.55 92.2061C548.55 91.5316 548.411 90.9756 548.133 90.5381C547.855 90.096 547.442 89.875 546.896 89.875C546.349 89.875 545.936 90.096 545.658 90.5381C545.385 90.9756 545.248 91.5316 545.248 92.2061C545.248 92.876 545.385 93.432 545.658 93.874C545.936 94.3161 546.349 94.5371 546.896 94.5371ZM554.114 85.8145V96H552.063V85.8145H554.114ZM557.915 85.8145V96H555.864V85.8145H557.915ZM563.117 96.1504C562.338 96.1504 561.666 95.9909 561.101 95.6719C560.535 95.3529 560.1 94.8994 559.795 94.3115C559.494 93.7236 559.344 93.0264 559.344 92.2197C559.344 91.4313 559.494 90.7409 559.795 90.1484C560.1 89.556 560.526 89.0934 561.073 88.7607C561.625 88.4281 562.272 88.2617 563.015 88.2617C563.68 88.2617 564.284 88.403 564.826 88.6855C565.368 88.9681 565.799 89.3965 566.118 89.9707C566.442 90.5449 566.604 91.2673 566.604 92.1377V92.7119H561.374C561.397 93.3363 561.57 93.8079 561.894 94.127C562.217 94.446 562.636 94.6055 563.151 94.6055C563.511 94.6055 563.819 94.5303 564.074 94.3799C564.334 94.2249 564.519 93.9993 564.628 93.7031L566.487 94.0518C566.3 94.6852 565.913 95.1934 565.325 95.5762C564.742 95.959 564.006 96.1504 563.117 96.1504ZM561.388 91.4268H564.628C564.578 90.93 564.418 90.5358 564.149 90.2441C563.881 89.9525 563.509 89.8066 563.035 89.8066C562.543 89.8066 562.156 89.9593 561.873 90.2646C561.59 90.5654 561.429 90.9528 561.388 91.4268ZM568.005 96V88.3574H569.987V89.6904H570.069C570.211 89.221 570.445 88.8656 570.773 88.624C571.106 88.3779 571.487 88.2549 571.915 88.2549C572.147 88.2549 572.368 88.2777 572.578 88.3232V90.1553C572.487 90.1279 572.353 90.1051 572.175 90.0869C572.002 90.0641 571.84 90.0527 571.689 90.0527C571.215 90.0527 570.824 90.2008 570.514 90.4971C570.208 90.7933 570.056 91.1784 570.056 91.6523V96H568.005ZM576.741 96.1504C575.821 96.1504 575.06 95.9544 574.458 95.5625C573.861 95.1706 573.496 94.6191 573.364 93.9082L575.271 93.5801C575.467 94.291 575.978 94.6465 576.803 94.6465C577.195 94.6465 577.502 94.5736 577.726 94.4277C577.953 94.2773 578.067 94.0882 578.067 93.8604C578.067 93.473 577.739 93.2109 577.083 93.0742L575.764 92.8008C574.296 92.5 573.562 91.7777 573.562 90.6338C573.562 89.9001 573.856 89.3213 574.444 88.8975C575.032 88.4736 575.809 88.2617 576.775 88.2617C577.682 88.2617 578.405 88.4463 578.942 88.8154C579.48 89.1846 579.82 89.679 579.961 90.2988L578.143 90.6201C578.061 90.3604 577.91 90.1484 577.691 89.9844C577.473 89.8158 577.176 89.7314 576.803 89.7314C576.465 89.7314 576.183 89.8044 575.955 89.9502C575.727 90.0915 575.613 90.276 575.613 90.5039C575.613 90.6953 575.686 90.8594 575.832 90.9961C575.982 91.1283 576.238 91.2308 576.598 91.3037L577.972 91.5771C579.43 91.8734 580.159 92.5615 580.159 93.6416C580.159 94.1429 580.013 94.5827 579.722 94.9609C579.43 95.3346 579.027 95.6263 578.512 95.8359C577.997 96.0456 577.407 96.1504 576.741 96.1504Z" fill="#12141E"/>
<rect x="1" y="160" width="638" height="50" rx="3" fill="white"/>
<rect x="1" y="160" width="638" height="50" rx="3" stroke="#B6B9C9" stroke-width="2"/>
<path d="M236.048 190H232.466V179.814H236.082C237.103 179.814 237.98 180.02 238.714 180.43C239.452 180.835 240.02 181.419 240.416 182.18C240.812 182.936 241.011 183.843 241.011 184.9C241.011 185.962 240.812 186.874 240.416 187.635C240.02 188.396 239.45 188.981 238.707 189.392C237.964 189.797 237.078 190 236.048 190ZM234.551 188.202H235.945C236.925 188.202 237.668 187.938 238.174 187.409C238.68 186.881 238.933 186.044 238.933 184.9C238.933 183.761 238.68 182.929 238.174 182.405C237.673 181.877 236.934 181.612 235.959 181.612H234.551V188.202ZM245.953 190.15C245.188 190.15 244.524 189.986 243.964 189.658C243.403 189.326 242.97 188.865 242.665 188.277C242.364 187.685 242.214 186.997 242.214 186.213C242.214 185.424 242.364 184.734 242.665 184.142C242.97 183.549 243.403 183.089 243.964 182.761C244.524 182.428 245.188 182.262 245.953 182.262C246.719 182.262 247.382 182.428 247.942 182.761C248.503 183.089 248.934 183.549 249.234 184.142C249.54 184.734 249.692 185.424 249.692 186.213C249.692 186.997 249.54 187.685 249.234 188.277C248.934 188.865 248.503 189.326 247.942 189.658C247.382 189.986 246.719 190.15 245.953 190.15ZM245.953 188.537C246.5 188.537 246.912 188.316 247.19 187.874C247.468 187.432 247.607 186.876 247.607 186.206C247.607 185.532 247.468 184.976 247.19 184.538C246.912 184.096 246.5 183.875 245.953 183.875C245.406 183.875 244.994 184.096 244.716 184.538C244.442 184.976 244.306 185.532 244.306 186.206C244.306 186.876 244.442 187.432 244.716 187.874C244.994 188.316 245.406 188.537 245.953 188.537ZM251.121 190V182.357H253.021L253.104 183.841C253.309 183.285 253.609 182.879 254.006 182.624C254.402 182.369 254.828 182.241 255.284 182.241C256.25 182.241 256.907 182.813 257.253 183.957C257.467 183.369 257.798 182.936 258.244 182.658C258.695 182.38 259.183 182.241 259.707 182.241C260.409 182.241 260.99 182.469 261.45 182.925C261.915 183.376 262.147 184.016 262.147 184.846V190H260.09V185.235C260.09 184.807 259.974 184.488 259.741 184.278C259.509 184.064 259.222 183.957 258.88 183.957C258.493 183.957 258.185 184.08 257.957 184.326C257.734 184.572 257.622 184.896 257.622 185.297V190H255.64V185.181C255.64 184.807 255.528 184.511 255.305 184.292C255.086 184.069 254.801 183.957 254.45 183.957C254.09 183.957 253.787 184.08 253.541 184.326C253.295 184.568 253.172 184.919 253.172 185.379V190H251.121ZM266.037 190.15C265.308 190.15 264.702 189.959 264.219 189.576C263.736 189.189 263.494 188.617 263.494 187.86C263.494 187.291 263.631 186.844 263.904 186.521C264.178 186.197 264.533 185.96 264.971 185.81C265.408 185.659 265.878 185.561 266.379 185.516C267.035 185.452 267.507 185.386 267.794 185.317C268.086 185.244 268.231 185.083 268.231 184.832V184.798C268.231 184.474 268.127 184.224 267.917 184.046C267.712 183.868 267.418 183.779 267.035 183.779C266.639 183.779 266.32 183.866 266.078 184.039C265.837 184.208 265.675 184.415 265.593 184.661L263.713 184.347C263.909 183.686 264.299 183.173 264.882 182.809C265.47 182.444 266.19 182.262 267.042 182.262C267.589 182.262 268.108 182.348 268.601 182.521C269.097 182.695 269.501 182.973 269.811 183.355C270.125 183.734 270.282 184.233 270.282 184.853V190H268.341V188.94H268.272C268.086 189.296 267.808 189.588 267.438 189.815C267.069 190.039 266.602 190.15 266.037 190.15ZM266.618 188.708C267.097 188.708 267.486 188.569 267.787 188.291C268.092 188.013 268.245 187.671 268.245 187.266V186.438C268.163 186.498 268.029 186.55 267.842 186.596C267.66 186.637 267.466 186.675 267.261 186.712C267.056 186.744 266.878 186.769 266.728 186.787C266.349 186.842 266.044 186.949 265.812 187.108C265.579 187.268 265.463 187.5 265.463 187.806C265.463 188.102 265.57 188.327 265.784 188.482C266.003 188.633 266.281 188.708 266.618 188.708ZM272.039 190V182.357H274.09V190H272.039ZM273.064 181.359C272.755 181.359 272.49 181.257 272.271 181.052C272.053 180.847 271.943 180.598 271.943 180.307C271.943 180.015 272.053 179.767 272.271 179.562C272.49 179.356 272.755 179.254 273.064 179.254C273.374 179.254 273.639 179.356 273.857 179.562C274.081 179.767 274.192 180.015 274.192 180.307C274.192 180.598 274.081 180.847 273.857 181.052C273.639 181.257 273.374 181.359 273.064 181.359ZM277.891 185.577V190H275.84V182.357H277.774L277.802 183.937C278.016 183.403 278.319 182.991 278.711 182.699C279.103 182.408 279.593 182.262 280.181 182.262C280.974 182.262 281.609 182.517 282.088 183.027C282.566 183.538 282.806 184.242 282.806 185.14V190H280.755V185.495C280.755 185.021 280.632 184.65 280.386 184.381C280.144 184.112 279.807 183.978 279.374 183.978C278.937 183.978 278.579 184.119 278.301 184.401C278.027 184.679 277.891 185.071 277.891 185.577ZM291.665 190.15C290.439 190.15 289.459 189.87 288.726 189.31C287.996 188.744 287.618 187.922 287.591 186.842H289.621C289.658 187.357 289.863 187.744 290.236 188.004C290.615 188.259 291.084 188.387 291.645 188.387C292.201 188.387 292.647 188.268 292.984 188.031C293.326 187.79 293.497 187.475 293.497 187.088C293.497 186.737 293.342 186.468 293.032 186.281C292.727 186.094 292.296 185.933 291.74 185.796L290.619 185.516C289.758 185.306 289.083 184.978 288.596 184.531C288.108 184.08 287.864 183.485 287.864 182.747C287.864 182.132 288.028 181.594 288.356 181.134C288.689 180.674 289.143 180.316 289.717 180.061C290.296 179.805 290.954 179.678 291.692 179.678C292.444 179.678 293.101 179.808 293.661 180.067C294.222 180.323 294.659 180.68 294.974 181.141C295.288 181.596 295.45 182.123 295.459 182.72H293.442C293.406 182.31 293.23 181.993 292.916 181.77C292.606 181.546 292.191 181.435 291.672 181.435C291.139 181.435 290.726 181.546 290.435 181.77C290.147 181.988 290.004 182.269 290.004 182.61C290.004 182.989 290.166 183.271 290.489 183.458C290.817 183.645 291.198 183.791 291.631 183.896L292.554 184.121C293.123 184.253 293.638 184.445 294.099 184.695C294.559 184.941 294.924 185.263 295.192 185.659C295.461 186.051 295.596 186.532 295.596 187.102C295.596 188.027 295.249 188.767 294.557 189.323C293.868 189.875 292.905 190.15 291.665 190.15ZM300.511 190.15C299.731 190.15 299.059 189.991 298.494 189.672C297.929 189.353 297.494 188.899 297.188 188.312C296.888 187.724 296.737 187.026 296.737 186.22C296.737 185.431 296.888 184.741 297.188 184.148C297.494 183.556 297.92 183.093 298.467 182.761C299.018 182.428 299.665 182.262 300.408 182.262C301.074 182.262 301.677 182.403 302.22 182.686C302.762 182.968 303.193 183.396 303.512 183.971C303.835 184.545 303.997 185.267 303.997 186.138V186.712H298.768C298.79 187.336 298.964 187.808 299.287 188.127C299.611 188.446 300.03 188.605 300.545 188.605C300.905 188.605 301.213 188.53 301.468 188.38C301.728 188.225 301.912 187.999 302.021 187.703L303.881 188.052C303.694 188.685 303.307 189.193 302.719 189.576C302.135 189.959 301.399 190.15 300.511 190.15ZM298.781 185.427H302.021C301.971 184.93 301.812 184.536 301.543 184.244C301.274 183.952 300.903 183.807 300.429 183.807C299.937 183.807 299.549 183.959 299.267 184.265C298.984 184.565 298.822 184.953 298.781 185.427ZM305.398 190V182.357H307.381V183.69H307.463C307.604 183.221 307.839 182.866 308.167 182.624C308.5 182.378 308.88 182.255 309.309 182.255C309.541 182.255 309.762 182.278 309.972 182.323V184.155C309.881 184.128 309.746 184.105 309.568 184.087C309.395 184.064 309.233 184.053 309.083 184.053C308.609 184.053 308.217 184.201 307.907 184.497C307.602 184.793 307.449 185.178 307.449 185.652V190H305.398ZM313.472 190L310.655 182.357H312.836L314.121 186.322C314.226 186.664 314.322 187.008 314.408 187.354C314.499 187.701 314.586 188.052 314.668 188.407C314.745 188.052 314.825 187.703 314.907 187.361C314.994 187.015 315.092 186.669 315.201 186.322L316.473 182.357H318.626L315.803 190H313.472ZM319.713 190V182.357H321.764V190H319.713ZM320.738 181.359C320.428 181.359 320.164 181.257 319.945 181.052C319.727 180.847 319.617 180.598 319.617 180.307C319.617 180.015 319.727 179.767 319.945 179.562C320.164 179.356 320.428 179.254 320.738 179.254C321.048 179.254 321.312 179.356 321.531 179.562C321.755 179.767 321.866 180.015 321.866 180.307C321.866 180.598 321.755 180.847 321.531 181.052C321.312 181.257 321.048 181.359 320.738 181.359ZM326.932 190.15C326.161 190.15 325.496 189.986 324.936 189.658C324.38 189.326 323.949 188.865 323.644 188.277C323.343 187.685 323.192 186.997 323.192 186.213C323.192 185.424 323.343 184.734 323.644 184.142C323.949 183.549 324.38 183.089 324.936 182.761C325.496 182.428 326.161 182.262 326.932 182.262C327.839 182.262 328.595 182.49 329.201 182.945C329.807 183.396 330.183 184.016 330.329 184.805L328.422 185.16C328.335 184.764 328.167 184.451 327.916 184.224C327.67 183.991 327.349 183.875 326.952 183.875C326.405 183.875 325.991 184.091 325.708 184.524C325.425 184.953 325.284 185.513 325.284 186.206C325.284 186.89 325.425 187.45 325.708 187.888C325.991 188.321 326.405 188.537 326.952 188.537C327.349 188.537 327.674 188.419 327.93 188.182C328.185 187.94 328.354 187.614 328.436 187.204L330.343 187.553C330.197 188.359 329.821 188.995 329.215 189.46C328.609 189.92 327.848 190.15 326.932 190.15ZM335.21 190.15C334.431 190.15 333.758 189.991 333.193 189.672C332.628 189.353 332.193 188.899 331.888 188.312C331.587 187.724 331.437 187.026 331.437 186.22C331.437 185.431 331.587 184.741 331.888 184.148C332.193 183.556 332.619 183.093 333.166 182.761C333.717 182.428 334.365 182.262 335.107 182.262C335.773 182.262 336.377 182.403 336.919 182.686C337.461 182.968 337.892 183.396 338.211 183.971C338.535 184.545 338.696 185.267 338.696 186.138V186.712H333.467C333.49 187.336 333.663 187.808 333.986 188.127C334.31 188.446 334.729 188.605 335.244 188.605C335.604 188.605 335.912 188.53 336.167 188.38C336.427 188.225 336.611 187.999 336.721 187.703L338.58 188.052C338.393 188.685 338.006 189.193 337.418 189.576C336.835 189.959 336.099 190.15 335.21 190.15ZM333.48 185.427H336.721C336.671 184.93 336.511 184.536 336.242 184.244C335.973 183.952 335.602 183.807 335.128 183.807C334.636 183.807 334.248 183.959 333.966 184.265C333.683 184.565 333.521 184.953 333.48 185.427ZM343.133 190.15C342.212 190.15 341.451 189.954 340.85 189.562C340.253 189.171 339.888 188.619 339.756 187.908L341.663 187.58C341.859 188.291 342.369 188.646 343.194 188.646C343.586 188.646 343.894 188.574 344.117 188.428C344.345 188.277 344.459 188.088 344.459 187.86C344.459 187.473 344.131 187.211 343.475 187.074L342.155 186.801C340.688 186.5 339.954 185.778 339.954 184.634C339.954 183.9 340.248 183.321 340.836 182.897C341.424 182.474 342.201 182.262 343.167 182.262C344.074 182.262 344.796 182.446 345.334 182.815C345.872 183.185 346.211 183.679 346.353 184.299L344.534 184.62C344.452 184.36 344.302 184.148 344.083 183.984C343.864 183.816 343.568 183.731 343.194 183.731C342.857 183.731 342.575 183.804 342.347 183.95C342.119 184.091 342.005 184.276 342.005 184.504C342.005 184.695 342.078 184.859 342.224 184.996C342.374 185.128 342.629 185.231 342.989 185.304L344.363 185.577C345.822 185.873 346.551 186.562 346.551 187.642C346.551 188.143 346.405 188.583 346.113 188.961C345.822 189.335 345.418 189.626 344.903 189.836C344.388 190.046 343.798 190.15 343.133 190.15ZM351.548 185.208C351.548 184.456 351.623 183.672 351.773 182.856C351.924 182.036 352.131 181.252 352.396 180.505C352.664 179.753 352.97 179.101 353.312 178.55H355.219C354.886 179.256 354.601 179.992 354.364 180.758C354.132 181.523 353.952 182.287 353.824 183.048C353.701 183.804 353.64 184.524 353.64 185.208C353.64 185.805 353.692 186.407 353.797 187.013C353.906 187.614 354.077 188.261 354.31 188.954C354.542 189.642 354.845 190.412 355.219 191.265H353.312C352.733 190.308 352.293 189.316 351.992 188.291C351.696 187.261 351.548 186.233 351.548 185.208ZM356.593 190V179.814H360.564C361.722 179.814 362.618 180.118 363.251 180.724C363.889 181.325 364.208 182.127 364.208 183.13C364.208 183.827 364.053 184.424 363.743 184.921C363.433 185.413 362.987 185.782 362.403 186.028L364.57 190H362.26L360.318 186.363H358.678V190H356.593ZM358.678 184.675H360.182C361.43 184.675 362.055 184.16 362.055 183.13C362.055 182.615 361.9 182.221 361.59 181.947C361.285 181.674 360.813 181.537 360.175 181.537H358.678V184.675ZM368.986 190.15C368.221 190.15 367.558 189.986 366.997 189.658C366.437 189.326 366.004 188.865 365.698 188.277C365.397 187.685 365.247 186.997 365.247 186.213C365.247 185.424 365.397 184.734 365.698 184.142C366.004 183.549 366.437 183.089 366.997 182.761C367.558 182.428 368.221 182.262 368.986 182.262C369.752 182.262 370.415 182.428 370.976 182.761C371.536 183.089 371.967 183.549 372.268 184.142C372.573 184.734 372.726 185.424 372.726 186.213C372.726 186.997 372.573 187.685 372.268 188.277C371.967 188.865 371.536 189.326 370.976 189.658C370.415 189.986 369.752 190.15 368.986 190.15ZM368.986 188.537C369.533 188.537 369.946 188.316 370.224 187.874C370.502 187.432 370.641 186.876 370.641 186.206C370.641 185.532 370.502 184.976 370.224 184.538C369.946 184.096 369.533 183.875 368.986 183.875C368.439 183.875 368.027 184.096 367.749 184.538C367.476 184.976 367.339 185.532 367.339 186.206C367.339 186.876 367.476 187.432 367.749 187.874C368.027 188.316 368.439 188.537 368.986 188.537ZM376.786 190.096C375.993 190.096 375.355 189.84 374.872 189.33C374.394 188.82 374.154 188.116 374.154 187.218V182.357H376.205V186.862C376.205 187.336 376.328 187.708 376.574 187.977C376.82 188.245 377.158 188.38 377.586 188.38C378.023 188.38 378.379 188.241 378.652 187.963C378.93 187.68 379.069 187.286 379.069 186.78V182.357H381.127V190H379.186L379.158 188.414C378.944 188.956 378.639 189.373 378.242 189.665C377.85 189.952 377.365 190.096 376.786 190.096ZM386.671 182.357V183.923H385.242V187.765C385.242 188.239 385.475 188.476 385.939 188.476C386.017 188.476 386.124 188.466 386.261 188.448C386.402 188.425 386.511 188.405 386.589 188.387L386.883 189.925C386.655 189.993 386.427 190.041 386.199 190.068C385.976 190.096 385.762 190.109 385.557 190.109C384.791 190.109 384.205 189.925 383.8 189.556C383.394 189.182 383.191 188.644 383.191 187.942V183.923H382.139V182.357H383.191V180.539H385.242V182.357H386.671ZM391.319 190.15C390.54 190.15 389.868 189.991 389.303 189.672C388.738 189.353 388.302 188.899 387.997 188.312C387.696 187.724 387.546 187.026 387.546 186.22C387.546 185.431 387.696 184.741 387.997 184.148C388.302 183.556 388.729 183.093 389.275 182.761C389.827 182.428 390.474 182.262 391.217 182.262C391.882 182.262 392.486 182.403 393.028 182.686C393.571 182.968 394.001 183.396 394.32 183.971C394.644 184.545 394.806 185.267 394.806 186.138V186.712H389.576C389.599 187.336 389.772 187.808 390.096 188.127C390.419 188.446 390.839 188.605 391.354 188.605C391.714 188.605 392.021 188.53 392.276 188.38C392.536 188.225 392.721 187.999 392.83 187.703L394.689 188.052C394.503 188.685 394.115 189.193 393.527 189.576C392.944 189.959 392.208 190.15 391.319 190.15ZM389.59 185.427H392.83C392.78 184.93 392.62 184.536 392.352 184.244C392.083 183.952 391.711 183.807 391.237 183.807C390.745 183.807 390.358 183.959 390.075 184.265C389.793 184.565 389.631 184.953 389.59 185.427ZM399.242 190.15C398.322 190.15 397.561 189.954 396.959 189.562C396.362 189.171 395.997 188.619 395.865 187.908L397.772 187.58C397.968 188.291 398.479 188.646 399.304 188.646C399.696 188.646 400.003 188.574 400.227 188.428C400.454 188.277 400.568 188.088 400.568 187.86C400.568 187.473 400.24 187.211 399.584 187.074L398.265 186.801C396.797 186.5 396.063 185.778 396.063 184.634C396.063 183.9 396.357 183.321 396.945 182.897C397.533 182.474 398.31 182.262 399.276 182.262C400.183 182.262 400.906 182.446 401.443 182.815C401.981 183.185 402.321 183.679 402.462 184.299L400.644 184.62C400.562 184.36 400.411 184.148 400.192 183.984C399.974 183.816 399.677 183.731 399.304 183.731C398.966 183.731 398.684 183.804 398.456 183.95C398.228 184.091 398.114 184.276 398.114 184.504C398.114 184.695 398.187 184.859 398.333 184.996C398.483 185.128 398.739 185.231 399.099 185.304L400.473 185.577C401.931 185.873 402.66 186.562 402.66 187.642C402.66 188.143 402.514 188.583 402.223 188.961C401.931 189.335 401.528 189.626 401.013 189.836C400.498 190.046 399.908 190.15 399.242 190.15ZM403.638 191.907C404.016 191.041 404.319 190.264 404.547 189.576C404.779 188.883 404.948 188.236 405.053 187.635C405.158 187.033 405.21 186.438 405.21 185.851C405.21 185.167 405.146 184.447 405.019 183.69C404.896 182.929 404.715 182.166 404.479 181.4C404.246 180.635 403.966 179.899 403.638 179.192H405.538C405.884 179.744 406.19 180.396 406.454 181.147C406.718 181.895 406.926 182.679 407.076 183.499C407.227 184.315 407.302 185.099 407.302 185.851C407.302 186.881 407.151 187.91 406.851 188.94C406.55 189.966 406.112 190.955 405.538 191.907H403.638Z" fill="#12141E"/>
<rect x="1" y="254" width="638" height="50" rx="3" fill="white"/>
<rect x="1" y="254" width="638" height="50" rx="3" stroke="#B6B9C9" stroke-width="2"/>
<path d="M278.021 284V273.814H281.992C283.15 273.814 284.045 274.118 284.679 274.724C285.317 275.325 285.636 276.127 285.636 277.13C285.636 277.827 285.481 278.424 285.171 278.921C284.861 279.413 284.414 279.782 283.831 280.028L285.998 284H283.688L281.746 280.363H280.105V284H278.021ZM280.105 278.675H281.609C282.858 278.675 283.482 278.16 283.482 277.13C283.482 276.615 283.327 276.221 283.018 275.947C282.712 275.674 282.241 275.537 281.603 275.537H280.105V278.675ZM290.448 284.15C289.669 284.15 288.997 283.991 288.432 283.672C287.867 283.353 287.431 282.899 287.126 282.312C286.825 281.724 286.675 281.026 286.675 280.22C286.675 279.431 286.825 278.741 287.126 278.148C287.431 277.556 287.857 277.093 288.404 276.761C288.956 276.428 289.603 276.262 290.346 276.262C291.011 276.262 291.615 276.403 292.157 276.686C292.7 276.968 293.13 277.396 293.449 277.971C293.773 278.545 293.935 279.267 293.935 280.138V280.712H288.705C288.728 281.336 288.901 281.808 289.225 282.127C289.548 282.446 289.967 282.605 290.482 282.605C290.842 282.605 291.15 282.53 291.405 282.38C291.665 282.225 291.85 281.999 291.959 281.703L293.818 282.052C293.632 282.685 293.244 283.193 292.656 283.576C292.073 283.959 291.337 284.15 290.448 284.15ZM288.719 279.427H291.959C291.909 278.93 291.749 278.536 291.48 278.244C291.212 277.952 290.84 277.807 290.366 277.807C289.874 277.807 289.487 277.959 289.204 278.265C288.922 278.565 288.76 278.953 288.719 279.427ZM295.336 286.857V276.357H297.353V277.643H297.448C297.539 277.442 297.672 277.235 297.845 277.021C298.022 276.806 298.255 276.626 298.542 276.48C298.834 276.335 299.196 276.262 299.629 276.262C300.194 276.262 300.711 276.408 301.181 276.699C301.65 276.991 302.024 277.428 302.302 278.012C302.584 278.595 302.726 279.322 302.726 280.192C302.726 281.04 302.589 281.758 302.315 282.346C302.042 282.929 301.671 283.373 301.201 283.679C300.732 283.979 300.203 284.13 299.615 284.13C299.201 284.13 298.85 284.059 298.562 283.918C298.275 283.777 298.041 283.604 297.858 283.398C297.681 283.189 297.544 282.981 297.448 282.776H297.387V286.857H295.336ZM298.986 282.482C299.52 282.482 299.925 282.268 300.203 281.84C300.486 281.411 300.627 280.86 300.627 280.186C300.627 279.516 300.488 278.969 300.21 278.545C299.932 278.117 299.524 277.902 298.986 277.902C298.458 277.902 298.05 278.11 297.763 278.524C297.48 278.939 297.339 279.493 297.339 280.186C297.339 280.878 297.482 281.434 297.77 281.854C298.057 282.273 298.462 282.482 298.986 282.482ZM307.586 284.15C306.82 284.15 306.157 283.986 305.597 283.658C305.036 283.326 304.603 282.865 304.298 282.277C303.997 281.685 303.847 280.997 303.847 280.213C303.847 279.424 303.997 278.734 304.298 278.142C304.603 277.549 305.036 277.089 305.597 276.761C306.157 276.428 306.82 276.262 307.586 276.262C308.352 276.262 309.015 276.428 309.575 276.761C310.136 277.089 310.566 277.549 310.867 278.142C311.173 278.734 311.325 279.424 311.325 280.213C311.325 280.997 311.173 281.685 310.867 282.277C310.566 282.865 310.136 283.326 309.575 283.658C309.015 283.986 308.352 284.15 307.586 284.15ZM307.586 282.537C308.133 282.537 308.545 282.316 308.823 281.874C309.101 281.432 309.24 280.876 309.24 280.206C309.24 279.532 309.101 278.976 308.823 278.538C308.545 278.096 308.133 277.875 307.586 277.875C307.039 277.875 306.627 278.096 306.349 278.538C306.075 278.976 305.938 279.532 305.938 280.206C305.938 280.876 306.075 281.432 306.349 281.874C306.627 282.316 307.039 282.537 307.586 282.537ZM315.789 284.15C314.868 284.15 314.107 283.954 313.506 283.562C312.909 283.171 312.544 282.619 312.412 281.908L314.319 281.58C314.515 282.291 315.026 282.646 315.851 282.646C316.243 282.646 316.55 282.574 316.773 282.428C317.001 282.277 317.115 282.088 317.115 281.86C317.115 281.473 316.787 281.211 316.131 281.074L314.812 280.801C313.344 280.5 312.61 279.778 312.61 278.634C312.61 277.9 312.904 277.321 313.492 276.897C314.08 276.474 314.857 276.262 315.823 276.262C316.73 276.262 317.452 276.446 317.99 276.815C318.528 277.185 318.868 277.679 319.009 278.299L317.19 278.62C317.108 278.36 316.958 278.148 316.739 277.984C316.521 277.816 316.224 277.731 315.851 277.731C315.513 277.731 315.231 277.804 315.003 277.95C314.775 278.091 314.661 278.276 314.661 278.504C314.661 278.695 314.734 278.859 314.88 278.996C315.03 279.128 315.285 279.231 315.646 279.304L317.02 279.577C318.478 279.873 319.207 280.562 319.207 281.642C319.207 282.143 319.061 282.583 318.77 282.961C318.478 283.335 318.075 283.626 317.56 283.836C317.045 284.046 316.454 284.15 315.789 284.15ZM320.602 284V276.357H322.652V284H320.602ZM321.627 275.359C321.317 275.359 321.053 275.257 320.834 275.052C320.615 274.847 320.506 274.598 320.506 274.307C320.506 274.015 320.615 273.767 320.834 273.562C321.053 273.356 321.317 273.254 321.627 273.254C321.937 273.254 322.201 273.356 322.42 273.562C322.643 273.767 322.755 274.015 322.755 274.307C322.755 274.598 322.643 274.847 322.42 275.052C322.201 275.257 321.937 275.359 321.627 275.359ZM328.196 276.357V277.923H326.768V281.765C326.768 282.239 327 282.476 327.465 282.476C327.542 282.476 327.649 282.466 327.786 282.448C327.927 282.425 328.037 282.405 328.114 282.387L328.408 283.925C328.18 283.993 327.952 284.041 327.725 284.068C327.501 284.096 327.287 284.109 327.082 284.109C326.316 284.109 325.731 283.925 325.325 283.556C324.92 283.182 324.717 282.644 324.717 281.942V277.923H323.664V276.357H324.717V274.539H326.768V276.357H328.196ZM332.811 284.15C332.045 284.15 331.382 283.986 330.821 283.658C330.261 283.326 329.828 282.865 329.522 282.277C329.222 281.685 329.071 280.997 329.071 280.213C329.071 279.424 329.222 278.734 329.522 278.142C329.828 277.549 330.261 277.089 330.821 276.761C331.382 276.428 332.045 276.262 332.811 276.262C333.576 276.262 334.239 276.428 334.8 276.761C335.36 277.089 335.791 277.549 336.092 278.142C336.397 278.734 336.55 279.424 336.55 280.213C336.55 280.997 336.397 281.685 336.092 282.277C335.791 282.865 335.36 283.326 334.8 283.658C334.239 283.986 333.576 284.15 332.811 284.15ZM332.811 282.537C333.357 282.537 333.77 282.316 334.048 281.874C334.326 281.432 334.465 280.876 334.465 280.206C334.465 279.532 334.326 278.976 334.048 278.538C333.77 278.096 333.357 277.875 332.811 277.875C332.264 277.875 331.851 278.096 331.573 278.538C331.3 278.976 331.163 279.532 331.163 280.206C331.163 280.876 331.3 281.432 331.573 281.874C331.851 282.316 332.264 282.537 332.811 282.537ZM337.979 284V276.357H339.961V277.69H340.043C340.184 277.221 340.419 276.866 340.747 276.624C341.08 276.378 341.46 276.255 341.889 276.255C342.121 276.255 342.342 276.278 342.552 276.323V278.155C342.461 278.128 342.326 278.105 342.148 278.087C341.975 278.064 341.813 278.053 341.663 278.053C341.189 278.053 340.797 278.201 340.487 278.497C340.182 278.793 340.029 279.178 340.029 279.652V284H337.979ZM343.789 284V276.357H345.84V284H343.789ZM344.814 275.359C344.505 275.359 344.24 275.257 344.021 275.052C343.803 274.847 343.693 274.598 343.693 274.307C343.693 274.015 343.803 273.767 344.021 273.562C344.24 273.356 344.505 273.254 344.814 273.254C345.124 273.254 345.389 273.356 345.607 273.562C345.831 273.767 345.942 274.015 345.942 274.307C345.942 274.598 345.831 274.847 345.607 275.052C345.389 275.257 345.124 275.359 344.814 275.359ZM351.042 284.15C350.263 284.15 349.59 283.991 349.025 283.672C348.46 283.353 348.025 282.899 347.72 282.312C347.419 281.724 347.269 281.026 347.269 280.22C347.269 279.431 347.419 278.741 347.72 278.148C348.025 277.556 348.451 277.093 348.998 276.761C349.549 276.428 350.197 276.262 350.939 276.262C351.605 276.262 352.209 276.403 352.751 276.686C353.293 276.968 353.724 277.396 354.043 277.971C354.367 278.545 354.528 279.267 354.528 280.138V280.712H349.299C349.322 281.336 349.495 281.808 349.818 282.127C350.142 282.446 350.561 282.605 351.076 282.605C351.436 282.605 351.744 282.53 351.999 282.38C352.259 282.225 352.443 281.999 352.553 281.703L354.412 282.052C354.225 282.685 353.838 283.193 353.25 283.576C352.667 283.959 351.931 284.15 351.042 284.15ZM349.312 279.427H352.553C352.503 278.93 352.343 278.536 352.074 278.244C351.805 277.952 351.434 277.807 350.96 277.807C350.468 277.807 350.08 277.959 349.798 278.265C349.515 278.565 349.354 278.953 349.312 279.427ZM358.965 284.15C358.044 284.15 357.283 283.954 356.682 283.562C356.085 283.171 355.72 282.619 355.588 281.908L357.495 281.58C357.691 282.291 358.201 282.646 359.026 282.646C359.418 282.646 359.726 282.574 359.949 282.428C360.177 282.277 360.291 282.088 360.291 281.86C360.291 281.473 359.963 281.211 359.307 281.074L357.987 280.801C356.52 280.5 355.786 279.778 355.786 278.634C355.786 277.9 356.08 277.321 356.668 276.897C357.256 276.474 358.033 276.262 358.999 276.262C359.906 276.262 360.628 276.446 361.166 276.815C361.704 277.185 362.043 277.679 362.185 278.299L360.366 278.62C360.284 278.36 360.134 278.148 359.915 277.984C359.696 277.816 359.4 277.731 359.026 277.731C358.689 277.731 358.407 277.804 358.179 277.95C357.951 278.091 357.837 278.276 357.837 278.504C357.837 278.695 357.91 278.859 358.056 278.996C358.206 279.128 358.461 279.231 358.821 279.304L360.195 279.577C361.654 279.873 362.383 280.562 362.383 281.642C362.383 282.143 362.237 282.583 361.945 282.961C361.654 283.335 361.25 283.626 360.735 283.836C360.22 284.046 359.63 284.15 358.965 284.15Z" fill="#12141E"/>
<rect x="1" y="442" width="638" height="50" rx="3" fill="white"/>
<rect x="1" y="442" width="638" height="50" rx="3" stroke="#B6B9C9" stroke-width="2"/>
<path d="M215.561 472.15C214.335 472.15 213.355 471.87 212.621 471.31C211.892 470.744 211.514 469.922 211.486 468.842H213.517C213.553 469.357 213.758 469.744 214.132 470.004C214.51 470.259 214.979 470.387 215.54 470.387C216.096 470.387 216.543 470.268 216.88 470.031C217.222 469.79 217.393 469.475 217.393 469.088C217.393 468.737 217.238 468.468 216.928 468.281C216.622 468.094 216.192 467.933 215.636 467.796L214.515 467.516C213.653 467.306 212.979 466.978 212.491 466.531C212.004 466.08 211.76 465.485 211.76 464.747C211.76 464.132 211.924 463.594 212.252 463.134C212.585 462.674 213.038 462.316 213.612 462.061C214.191 461.805 214.85 461.678 215.588 461.678C216.34 461.678 216.996 461.808 217.557 462.067C218.117 462.323 218.555 462.68 218.869 463.141C219.184 463.596 219.345 464.123 219.354 464.72H217.338C217.301 464.31 217.126 463.993 216.812 463.77C216.502 463.546 216.087 463.435 215.567 463.435C215.034 463.435 214.622 463.546 214.33 463.77C214.043 463.988 213.899 464.269 213.899 464.61C213.899 464.989 214.061 465.271 214.385 465.458C214.713 465.645 215.093 465.791 215.526 465.896L216.449 466.121C217.019 466.253 217.534 466.445 217.994 466.695C218.454 466.941 218.819 467.263 219.088 467.659C219.357 468.051 219.491 468.532 219.491 469.102C219.491 470.027 219.145 470.767 218.452 471.323C217.764 471.875 216.8 472.15 215.561 472.15ZM224.748 464.357V465.923H223.319V469.765C223.319 470.239 223.552 470.476 224.017 470.476C224.094 470.476 224.201 470.466 224.338 470.448C224.479 470.425 224.589 470.405 224.666 470.387L224.96 471.925C224.732 471.993 224.504 472.041 224.276 472.068C224.053 472.096 223.839 472.109 223.634 472.109C222.868 472.109 222.283 471.925 221.877 471.556C221.471 471.182 221.269 470.644 221.269 469.942V465.923H220.216V464.357H221.269V462.539H223.319V464.357H224.748ZM229.362 472.15C228.597 472.15 227.934 471.986 227.373 471.658C226.812 471.326 226.38 470.865 226.074 470.277C225.773 469.685 225.623 468.997 225.623 468.213C225.623 467.424 225.773 466.734 226.074 466.142C226.38 465.549 226.812 465.089 227.373 464.761C227.934 464.428 228.597 464.262 229.362 464.262C230.128 464.262 230.791 464.428 231.352 464.761C231.912 465.089 232.343 465.549 232.644 466.142C232.949 466.734 233.102 467.424 233.102 468.213C233.102 468.997 232.949 469.685 232.644 470.277C232.343 470.865 231.912 471.326 231.352 471.658C230.791 471.986 230.128 472.15 229.362 472.15ZM229.362 470.537C229.909 470.537 230.322 470.316 230.6 469.874C230.878 469.432 231.017 468.876 231.017 468.206C231.017 467.532 230.878 466.976 230.6 466.538C230.322 466.096 229.909 465.875 229.362 465.875C228.815 465.875 228.403 466.096 228.125 466.538C227.852 466.976 227.715 467.532 227.715 468.206C227.715 468.876 227.852 469.432 228.125 469.874C228.403 470.316 228.815 470.537 229.362 470.537ZM234.53 472V464.357H236.513V465.69H236.595C236.736 465.221 236.971 464.866 237.299 464.624C237.632 464.378 238.012 464.255 238.44 464.255C238.673 464.255 238.894 464.278 239.104 464.323V466.155C239.012 466.128 238.878 466.105 238.7 466.087C238.527 466.064 238.365 466.053 238.215 466.053C237.741 466.053 237.349 466.201 237.039 466.497C236.734 466.793 236.581 467.178 236.581 467.652V472H234.53ZM242.173 472.15C241.444 472.15 240.838 471.959 240.354 471.576C239.871 471.189 239.63 470.617 239.63 469.86C239.63 469.291 239.767 468.844 240.04 468.521C240.313 468.197 240.669 467.96 241.106 467.81C241.544 467.659 242.013 467.561 242.515 467.516C243.171 467.452 243.643 467.386 243.93 467.317C244.221 467.244 244.367 467.083 244.367 466.832V466.798C244.367 466.474 244.262 466.224 244.053 466.046C243.848 465.868 243.554 465.779 243.171 465.779C242.774 465.779 242.455 465.866 242.214 466.039C241.972 466.208 241.811 466.415 241.729 466.661L239.849 466.347C240.045 465.686 240.434 465.173 241.018 464.809C241.605 464.444 242.326 464.262 243.178 464.262C243.725 464.262 244.244 464.348 244.736 464.521C245.233 464.695 245.636 464.973 245.946 465.355C246.261 465.734 246.418 466.233 246.418 466.853V472H244.477V470.94H244.408C244.221 471.296 243.943 471.588 243.574 471.815C243.205 472.039 242.738 472.15 242.173 472.15ZM242.754 470.708C243.232 470.708 243.622 470.569 243.923 470.291C244.228 470.013 244.381 469.671 244.381 469.266V468.438C244.299 468.498 244.164 468.55 243.978 468.596C243.795 468.637 243.602 468.675 243.396 468.712C243.191 468.744 243.014 468.769 242.863 468.787C242.485 468.842 242.18 468.949 241.947 469.108C241.715 469.268 241.599 469.5 241.599 469.806C241.599 470.102 241.706 470.327 241.92 470.482C242.139 470.633 242.417 470.708 242.754 470.708ZM251.572 475.021C250.615 475.021 249.845 474.846 249.262 474.495C248.678 474.144 248.302 473.695 248.134 473.148L249.897 472.656C249.993 472.87 250.169 473.069 250.424 473.251C250.684 473.438 251.062 473.531 251.559 473.531C252.078 473.531 252.488 473.41 252.789 473.169C253.09 472.932 253.24 472.561 253.24 472.055V470.646H253.083C252.942 470.956 252.707 471.241 252.379 471.501C252.055 471.761 251.584 471.891 250.964 471.891C250.39 471.891 249.868 471.756 249.398 471.487C248.929 471.218 248.553 470.808 248.271 470.257C247.993 469.705 247.854 469.008 247.854 468.165C247.854 467.304 247.995 466.584 248.277 466.005C248.564 465.426 248.943 464.991 249.412 464.699C249.886 464.408 250.406 464.262 250.971 464.262C251.399 464.262 251.759 464.335 252.051 464.48C252.342 464.626 252.577 464.806 252.755 465.021C252.937 465.235 253.074 465.442 253.165 465.643H253.254V464.357H255.271V471.938C255.271 472.627 255.111 473.199 254.792 473.654C254.478 474.115 254.04 474.456 253.479 474.68C252.924 474.908 252.288 475.021 251.572 475.021ZM251.606 470.332C252.131 470.332 252.534 470.141 252.816 469.758C253.104 469.37 253.247 468.835 253.247 468.151C253.247 467.472 253.106 466.928 252.823 466.518C252.541 466.107 252.135 465.902 251.606 465.902C251.069 465.902 250.659 466.114 250.376 466.538C250.098 466.957 249.959 467.495 249.959 468.151C249.959 468.821 250.1 469.352 250.383 469.744C250.665 470.136 251.073 470.332 251.606 470.332ZM260.473 472.15C259.693 472.15 259.021 471.991 258.456 471.672C257.891 471.353 257.456 470.899 257.15 470.312C256.85 469.724 256.699 469.026 256.699 468.22C256.699 467.431 256.85 466.741 257.15 466.148C257.456 465.556 257.882 465.093 258.429 464.761C258.98 464.428 259.627 464.262 260.37 464.262C261.035 464.262 261.639 464.403 262.182 464.686C262.724 464.968 263.155 465.396 263.474 465.971C263.797 466.545 263.959 467.267 263.959 468.138V468.712H258.729C258.752 469.336 258.925 469.808 259.249 470.127C259.573 470.446 259.992 470.605 260.507 470.605C260.867 470.605 261.174 470.53 261.43 470.38C261.689 470.225 261.874 469.999 261.983 469.703L263.843 470.052C263.656 470.685 263.269 471.193 262.681 471.576C262.097 471.959 261.361 472.15 260.473 472.15ZM258.743 467.427H261.983C261.933 466.93 261.774 466.536 261.505 466.244C261.236 465.952 260.865 465.807 260.391 465.807C259.898 465.807 259.511 465.959 259.229 466.265C258.946 466.565 258.784 466.953 258.743 467.427ZM268.963 467.208C268.963 466.456 269.038 465.672 269.188 464.856C269.339 464.036 269.546 463.252 269.811 462.505C270.079 461.753 270.385 461.101 270.727 460.55H272.634C272.301 461.256 272.016 461.992 271.779 462.758C271.547 463.523 271.367 464.287 271.239 465.048C271.116 465.804 271.055 466.524 271.055 467.208C271.055 467.805 271.107 468.407 271.212 469.013C271.321 469.614 271.492 470.261 271.725 470.954C271.957 471.642 272.26 472.412 272.634 473.265H270.727C270.148 472.308 269.708 471.316 269.407 470.291C269.111 469.261 268.963 468.233 268.963 467.208ZM274.008 472V461.814H277.207L278.861 466.49C278.93 466.704 279.007 466.985 279.094 467.331C279.18 467.677 279.269 468.051 279.36 468.452C279.456 468.849 279.543 469.231 279.62 469.601C279.698 469.236 279.782 468.855 279.873 468.459C279.964 468.058 280.053 467.684 280.14 467.338C280.226 466.992 280.304 466.709 280.372 466.49L281.999 461.814H285.212V472H283.113V467.194C283.113 466.939 283.118 466.613 283.127 466.217C283.141 465.82 283.152 465.394 283.161 464.938C283.175 464.483 283.184 464.041 283.188 463.612C283.075 464.068 282.954 464.526 282.826 464.986C282.703 465.447 282.585 465.87 282.471 466.258C282.357 466.641 282.259 466.953 282.177 467.194L280.488 472H278.731L277.016 467.194C276.938 466.962 276.842 466.659 276.729 466.285C276.619 465.911 276.501 465.501 276.373 465.055C276.245 464.604 276.122 464.15 276.004 463.694C276.013 464.104 276.022 464.533 276.031 464.979C276.045 465.422 276.056 465.839 276.065 466.23C276.075 466.618 276.079 466.939 276.079 467.194V472H274.008ZM287.099 474.707L287.57 473.162L287.823 473.224C288.238 473.338 288.577 473.328 288.842 473.196C289.106 473.069 289.261 472.813 289.307 472.431L289.361 472.021L286.49 464.357H288.671L289.956 468.322C290.061 468.655 290.15 468.988 290.223 469.32C290.296 469.648 290.368 469.981 290.441 470.318C290.523 469.977 290.608 469.642 290.694 469.313C290.785 468.981 290.886 468.65 290.995 468.322L292.335 464.357H294.488L291.241 472.902C291.009 473.518 290.674 474.005 290.236 474.365C289.803 474.73 289.204 474.912 288.438 474.912C288.165 474.912 287.91 474.892 287.673 474.851C287.436 474.814 287.244 474.766 287.099 474.707ZM299.369 472.15C298.143 472.15 297.163 471.87 296.43 471.31C295.701 470.744 295.322 469.922 295.295 468.842H297.325C297.362 469.357 297.567 469.744 297.94 470.004C298.319 470.259 298.788 470.387 299.349 470.387C299.905 470.387 300.351 470.268 300.688 470.031C301.03 469.79 301.201 469.475 301.201 469.088C301.201 468.737 301.046 468.468 300.736 468.281C300.431 468.094 300 467.933 299.444 467.796L298.323 467.516C297.462 467.306 296.787 466.978 296.3 466.531C295.812 466.08 295.568 465.485 295.568 464.747C295.568 464.132 295.732 463.594 296.061 463.134C296.393 462.674 296.847 462.316 297.421 462.061C298 461.805 298.658 461.678 299.396 461.678C300.148 461.678 300.805 461.808 301.365 462.067C301.926 462.323 302.363 462.68 302.678 463.141C302.992 463.596 303.154 464.123 303.163 464.72H301.146C301.11 464.31 300.935 463.993 300.62 463.77C300.31 463.546 299.896 463.435 299.376 463.435C298.843 463.435 298.43 463.546 298.139 463.77C297.852 463.988 297.708 464.269 297.708 464.61C297.708 464.989 297.87 465.271 298.193 465.458C298.521 465.645 298.902 465.791 299.335 465.896L300.258 466.121C300.827 466.253 301.342 466.445 301.803 466.695C302.263 466.941 302.628 467.263 302.896 467.659C303.165 468.051 303.3 468.532 303.3 469.102C303.3 470.027 302.953 470.767 302.261 471.323C301.573 471.875 300.609 472.15 299.369 472.15ZM309.281 472.137C308.383 472.137 307.575 471.932 306.854 471.521C306.139 471.111 305.572 470.517 305.152 469.737C304.738 468.958 304.53 468.017 304.53 466.914C304.53 465.807 304.738 464.863 305.152 464.084C305.572 463.3 306.139 462.703 306.854 462.293C307.575 461.883 308.383 461.678 309.281 461.678C310.184 461.678 310.993 461.883 311.708 462.293C312.424 462.703 312.989 463.3 313.403 464.084C313.823 464.863 314.032 465.807 314.032 466.914C314.032 467.816 313.889 468.612 313.602 469.3C313.319 469.983 312.932 470.549 312.439 470.995L313.909 472.848H311.961L311.12 471.802C310.555 472.025 309.942 472.137 309.281 472.137ZM308.639 468.5H310.423L311.161 469.45C311.403 469.168 311.587 468.814 311.715 468.391C311.847 467.962 311.913 467.47 311.913 466.914C311.913 465.816 311.672 464.977 311.188 464.398C310.71 463.82 310.074 463.53 309.281 463.53C308.493 463.53 307.857 463.822 307.374 464.405C306.891 464.984 306.649 465.82 306.649 466.914C306.649 468.003 306.891 468.837 307.374 469.416C307.857 469.995 308.493 470.284 309.281 470.284C309.514 470.284 309.732 470.259 309.938 470.209L308.639 468.5ZM315.693 472V461.814H317.778V470.271H322.174V472H315.693ZM323.5 474.7L324.102 470.462H326.152L324.895 474.7H323.5ZM331.17 472V461.814H337.985V463.544H333.255V466.005H337.63V467.707H333.255V470.271H337.999V472H331.17ZM341.677 461.814V472H339.626V461.814H341.677ZM345.56 472.15C344.83 472.15 344.224 471.959 343.741 471.576C343.258 471.189 343.017 470.617 343.017 469.86C343.017 469.291 343.153 468.844 343.427 468.521C343.7 468.197 344.056 467.96 344.493 467.81C344.931 467.659 345.4 467.561 345.901 467.516C346.558 467.452 347.029 467.386 347.316 467.317C347.608 467.244 347.754 467.083 347.754 466.832V466.798C347.754 466.474 347.649 466.224 347.439 466.046C347.234 465.868 346.94 465.779 346.558 465.779C346.161 465.779 345.842 465.866 345.601 466.039C345.359 466.208 345.197 466.415 345.115 466.661L343.235 466.347C343.431 465.686 343.821 465.173 344.404 464.809C344.992 464.444 345.712 464.262 346.564 464.262C347.111 464.262 347.631 464.348 348.123 464.521C348.62 464.695 349.023 464.973 349.333 465.355C349.647 465.734 349.805 466.233 349.805 466.853V472H347.863V470.94H347.795C347.608 471.296 347.33 471.588 346.961 471.815C346.592 472.039 346.125 472.15 345.56 472.15ZM346.141 470.708C346.619 470.708 347.009 470.569 347.31 470.291C347.615 470.013 347.768 469.671 347.768 469.266V468.438C347.686 468.498 347.551 468.55 347.364 468.596C347.182 468.637 346.988 468.675 346.783 468.712C346.578 468.744 346.4 468.769 346.25 468.787C345.872 468.842 345.566 468.949 345.334 469.108C345.102 469.268 344.985 469.5 344.985 469.806C344.985 470.102 345.092 470.327 345.307 470.482C345.525 470.633 345.803 470.708 346.141 470.708ZM354.597 472.15C353.676 472.15 352.915 471.954 352.313 471.562C351.716 471.171 351.352 470.619 351.22 469.908L353.127 469.58C353.323 470.291 353.833 470.646 354.658 470.646C355.05 470.646 355.358 470.574 355.581 470.428C355.809 470.277 355.923 470.088 355.923 469.86C355.923 469.473 355.595 469.211 354.938 469.074L353.619 468.801C352.152 468.5 351.418 467.778 351.418 466.634C351.418 465.9 351.712 465.321 352.3 464.897C352.888 464.474 353.665 464.262 354.631 464.262C355.538 464.262 356.26 464.446 356.798 464.815C357.336 465.185 357.675 465.679 357.816 466.299L355.998 466.62C355.916 466.36 355.766 466.148 355.547 465.984C355.328 465.816 355.032 465.731 354.658 465.731C354.321 465.731 354.038 465.804 353.811 465.95C353.583 466.091 353.469 466.276 353.469 466.504C353.469 466.695 353.542 466.859 353.688 466.996C353.838 467.128 354.093 467.231 354.453 467.304L355.827 467.577C357.285 467.873 358.015 468.562 358.015 469.642C358.015 470.143 357.869 470.583 357.577 470.961C357.285 471.335 356.882 471.626 356.367 471.836C355.852 472.046 355.262 472.15 354.597 472.15ZM363.203 464.357V465.923H361.774V469.765C361.774 470.239 362.007 470.476 362.472 470.476C362.549 470.476 362.656 470.466 362.793 470.448C362.934 470.425 363.044 470.405 363.121 470.387L363.415 471.925C363.187 471.993 362.959 472.041 362.731 472.068C362.508 472.096 362.294 472.109 362.089 472.109C361.323 472.109 360.738 471.925 360.332 471.556C359.926 471.182 359.724 470.644 359.724 469.942V465.923H358.671V464.357H359.724V462.539H361.774V464.357H363.203ZM364.536 472V464.357H366.587V472H364.536ZM365.562 463.359C365.252 463.359 364.987 463.257 364.769 463.052C364.55 462.847 364.44 462.598 364.44 462.307C364.44 462.015 364.55 461.767 364.769 461.562C364.987 461.356 365.252 461.254 365.562 461.254C365.871 461.254 366.136 461.356 366.354 461.562C366.578 461.767 366.689 462.015 366.689 462.307C366.689 462.598 366.578 462.847 366.354 463.052C366.136 463.257 365.871 463.359 365.562 463.359ZM371.755 472.15C370.985 472.15 370.319 471.986 369.759 471.658C369.203 471.326 368.772 470.865 368.467 470.277C368.166 469.685 368.016 468.997 368.016 468.213C368.016 467.424 368.166 466.734 368.467 466.142C368.772 465.549 369.203 465.089 369.759 464.761C370.319 464.428 370.985 464.262 371.755 464.262C372.662 464.262 373.418 464.49 374.024 464.945C374.631 465.396 375.007 466.016 375.152 466.805L373.245 467.16C373.159 466.764 372.99 466.451 372.739 466.224C372.493 465.991 372.172 465.875 371.775 465.875C371.229 465.875 370.814 466.091 370.531 466.524C370.249 466.953 370.107 467.513 370.107 468.206C370.107 468.89 370.249 469.45 370.531 469.888C370.814 470.321 371.229 470.537 371.775 470.537C372.172 470.537 372.498 470.419 372.753 470.182C373.008 469.94 373.177 469.614 373.259 469.204L375.166 469.553C375.02 470.359 374.644 470.995 374.038 471.46C373.432 471.92 372.671 472.15 371.755 472.15ZM380.361 472.15C379.135 472.15 378.156 471.87 377.422 471.31C376.693 470.744 376.314 469.922 376.287 468.842H378.317C378.354 469.357 378.559 469.744 378.933 470.004C379.311 470.259 379.78 470.387 380.341 470.387C380.897 470.387 381.343 470.268 381.681 470.031C382.022 469.79 382.193 469.475 382.193 469.088C382.193 468.737 382.038 468.468 381.729 468.281C381.423 468.094 380.993 467.933 380.437 467.796L379.315 467.516C378.454 467.306 377.78 466.978 377.292 466.531C376.804 466.08 376.561 465.485 376.561 464.747C376.561 464.132 376.725 463.594 377.053 463.134C377.385 462.674 377.839 462.316 378.413 462.061C378.992 461.805 379.65 461.678 380.389 461.678C381.141 461.678 381.797 461.808 382.357 462.067C382.918 462.323 383.355 462.68 383.67 463.141C383.984 463.596 384.146 464.123 384.155 464.72H382.139C382.102 464.31 381.927 463.993 381.612 463.77C381.302 463.546 380.888 463.435 380.368 463.435C379.835 463.435 379.423 463.546 379.131 463.77C378.844 463.988 378.7 464.269 378.7 464.61C378.7 464.989 378.862 465.271 379.186 465.458C379.514 465.645 379.894 465.791 380.327 465.896L381.25 466.121C381.82 466.253 382.335 466.445 382.795 466.695C383.255 466.941 383.62 467.263 383.889 467.659C384.158 468.051 384.292 468.532 384.292 469.102C384.292 470.027 383.946 470.767 383.253 471.323C382.565 471.875 381.601 472.15 380.361 472.15ZM389.207 472.15C388.428 472.15 387.756 471.991 387.19 471.672C386.625 471.353 386.19 470.899 385.885 470.312C385.584 469.724 385.434 469.026 385.434 468.22C385.434 467.431 385.584 466.741 385.885 466.148C386.19 465.556 386.616 465.093 387.163 464.761C387.715 464.428 388.362 464.262 389.104 464.262C389.77 464.262 390.374 464.403 390.916 464.686C391.458 464.968 391.889 465.396 392.208 465.971C392.532 466.545 392.693 467.267 392.693 468.138V468.712H387.464C387.487 469.336 387.66 469.808 387.983 470.127C388.307 470.446 388.726 470.605 389.241 470.605C389.601 470.605 389.909 470.53 390.164 470.38C390.424 470.225 390.608 469.999 390.718 469.703L392.577 470.052C392.39 470.685 392.003 471.193 391.415 471.576C390.832 471.959 390.096 472.15 389.207 472.15ZM387.478 467.427H390.718C390.668 466.93 390.508 466.536 390.239 466.244C389.97 465.952 389.599 465.807 389.125 465.807C388.633 465.807 388.245 465.959 387.963 466.265C387.68 466.565 387.519 466.953 387.478 467.427ZM396.364 472.15C395.635 472.15 395.029 471.959 394.546 471.576C394.063 471.189 393.821 470.617 393.821 469.86C393.821 469.291 393.958 468.844 394.231 468.521C394.505 468.197 394.86 467.96 395.298 467.81C395.735 467.659 396.205 467.561 396.706 467.516C397.362 467.452 397.834 467.386 398.121 467.317C398.413 467.244 398.559 467.083 398.559 466.832V466.798C398.559 466.474 398.454 466.224 398.244 466.046C398.039 465.868 397.745 465.779 397.362 465.779C396.966 465.779 396.647 465.866 396.405 466.039C396.164 466.208 396.002 466.415 395.92 466.661L394.04 466.347C394.236 465.686 394.626 465.173 395.209 464.809C395.797 464.444 396.517 464.262 397.369 464.262C397.916 464.262 398.436 464.348 398.928 464.521C399.424 464.695 399.828 464.973 400.138 465.355C400.452 465.734 400.609 466.233 400.609 466.853V472H398.668V470.94H398.6C398.413 471.296 398.135 471.588 397.766 471.815C397.396 472.039 396.929 472.15 396.364 472.15ZM396.945 470.708C397.424 470.708 397.813 470.569 398.114 470.291C398.42 470.013 398.572 469.671 398.572 469.266V468.438C398.49 468.498 398.356 468.55 398.169 468.596C397.987 468.637 397.793 468.675 397.588 468.712C397.383 468.744 397.205 468.769 397.055 468.787C396.676 468.842 396.371 468.949 396.139 469.108C395.906 469.268 395.79 469.5 395.79 469.806C395.79 470.102 395.897 470.327 396.111 470.482C396.33 470.633 396.608 470.708 396.945 470.708ZM402.366 472V464.357H404.349V465.69H404.431C404.572 465.221 404.807 464.866 405.135 464.624C405.467 464.378 405.848 464.255 406.276 464.255C406.509 464.255 406.73 464.278 406.939 464.323V466.155C406.848 466.128 406.714 466.105 406.536 466.087C406.363 466.064 406.201 466.053 406.051 466.053C405.577 466.053 405.185 466.201 404.875 466.497C404.57 466.793 404.417 467.178 404.417 467.652V472H402.366ZM411.144 472.15C410.373 472.15 409.708 471.986 409.147 471.658C408.591 471.326 408.161 470.865 407.855 470.277C407.555 469.685 407.404 468.997 407.404 468.213C407.404 467.424 407.555 466.734 407.855 466.142C408.161 465.549 408.591 465.089 409.147 464.761C409.708 464.428 410.373 464.262 411.144 464.262C412.05 464.262 412.807 464.49 413.413 464.945C414.019 465.396 414.395 466.016 414.541 466.805L412.634 467.16C412.547 466.764 412.379 466.451 412.128 466.224C411.882 465.991 411.561 465.875 411.164 465.875C410.617 465.875 410.202 466.091 409.92 466.524C409.637 466.953 409.496 467.513 409.496 468.206C409.496 468.89 409.637 469.45 409.92 469.888C410.202 470.321 410.617 470.537 411.164 470.537C411.561 470.537 411.886 470.419 412.142 470.182C412.397 469.94 412.565 469.614 412.647 469.204L414.555 469.553C414.409 470.359 414.033 470.995 413.427 471.46C412.821 471.92 412.06 472.15 411.144 472.15ZM418.021 467.577V472H415.97V461.814H417.979V465.82C418.203 465.324 418.506 464.941 418.889 464.672C419.271 464.398 419.745 464.262 420.311 464.262C421.104 464.262 421.739 464.517 422.218 465.027C422.701 465.538 422.942 466.242 422.942 467.14V472H420.885V467.495C420.885 467.021 420.762 466.65 420.516 466.381C420.274 466.112 419.937 465.978 419.504 465.978C419.066 465.978 418.709 466.119 418.431 466.401C418.157 466.679 418.021 467.071 418.021 467.577ZM424.275 473.907C424.654 473.041 424.957 472.264 425.185 471.576C425.417 470.883 425.586 470.236 425.69 469.635C425.795 469.033 425.848 468.438 425.848 467.851C425.848 467.167 425.784 466.447 425.656 465.69C425.533 464.929 425.353 464.166 425.116 463.4C424.884 462.635 424.604 461.899 424.275 461.192H426.176C426.522 461.744 426.827 462.396 427.092 463.147C427.356 463.895 427.563 464.679 427.714 465.499C427.864 466.315 427.939 467.099 427.939 467.851C427.939 468.881 427.789 469.91 427.488 470.94C427.188 471.966 426.75 472.955 426.176 473.907H424.275Z" fill="#12141E"/>
<rect x="1" y="348" width="638" height="50" rx="3" fill="white"/>
<rect x="1" y="348" width="638" height="50" rx="3" stroke="#B6B9C9" stroke-width="2"/>
<path d="M246.186 378H242.604V367.814H246.22C247.241 367.814 248.118 368.02 248.852 368.43C249.59 368.835 250.157 369.419 250.554 370.18C250.95 370.936 251.148 371.843 251.148 372.9C251.148 373.962 250.95 374.874 250.554 375.635C250.157 376.396 249.588 376.981 248.845 377.392C248.102 377.797 247.215 378 246.186 378ZM244.688 376.202H246.083C247.063 376.202 247.806 375.938 248.312 375.409C248.817 374.881 249.07 374.044 249.07 372.9C249.07 371.761 248.817 370.929 248.312 370.405C247.81 369.877 247.072 369.612 246.097 369.612H244.688V376.202ZM254.806 378.15C254.076 378.15 253.47 377.959 252.987 377.576C252.504 377.189 252.263 376.617 252.263 375.86C252.263 375.291 252.399 374.844 252.673 374.521C252.946 374.197 253.302 373.96 253.739 373.81C254.177 373.659 254.646 373.561 255.147 373.516C255.804 373.452 256.275 373.386 256.562 373.317C256.854 373.244 257 373.083 257 372.832V372.798C257 372.474 256.895 372.224 256.686 372.046C256.48 371.868 256.187 371.779 255.804 371.779C255.407 371.779 255.088 371.866 254.847 372.039C254.605 372.208 254.443 372.415 254.361 372.661L252.481 372.347C252.677 371.686 253.067 371.173 253.65 370.809C254.238 370.444 254.958 370.262 255.811 370.262C256.357 370.262 256.877 370.348 257.369 370.521C257.866 370.695 258.269 370.973 258.579 371.355C258.894 371.734 259.051 372.233 259.051 372.853V378H257.109V376.94H257.041C256.854 377.296 256.576 377.588 256.207 377.815C255.838 378.039 255.371 378.15 254.806 378.15ZM255.387 376.708C255.865 376.708 256.255 376.569 256.556 376.291C256.861 376.013 257.014 375.671 257.014 375.266V374.438C256.932 374.498 256.797 374.55 256.61 374.596C256.428 374.637 256.234 374.675 256.029 374.712C255.824 374.744 255.646 374.769 255.496 374.787C255.118 374.842 254.812 374.949 254.58 375.108C254.348 375.268 254.231 375.5 254.231 375.806C254.231 376.102 254.339 376.327 254.553 376.482C254.771 376.633 255.049 376.708 255.387 376.708ZM264.602 370.357V371.923H263.173V375.765C263.173 376.239 263.405 376.476 263.87 376.476C263.948 376.476 264.055 376.466 264.191 376.448C264.333 376.425 264.442 376.405 264.52 376.387L264.813 377.925C264.586 377.993 264.358 378.041 264.13 378.068C263.907 378.096 263.692 378.109 263.487 378.109C262.722 378.109 262.136 377.925 261.73 377.556C261.325 377.182 261.122 376.644 261.122 375.942V371.923H260.069V370.357H261.122V368.539H263.173V370.357H264.602ZM268.136 378.15C267.407 378.15 266.8 377.959 266.317 377.576C265.834 377.189 265.593 376.617 265.593 375.86C265.593 375.291 265.729 374.844 266.003 374.521C266.276 374.197 266.632 373.96 267.069 373.81C267.507 373.659 267.976 373.561 268.478 373.516C269.134 373.452 269.605 373.386 269.893 373.317C270.184 373.244 270.33 373.083 270.33 372.832V372.798C270.33 372.474 270.225 372.224 270.016 372.046C269.811 371.868 269.517 371.779 269.134 371.779C268.737 371.779 268.418 371.866 268.177 372.039C267.935 372.208 267.773 372.415 267.691 372.661L265.812 372.347C266.007 371.686 266.397 371.173 266.98 370.809C267.568 370.444 268.288 370.262 269.141 370.262C269.688 370.262 270.207 370.348 270.699 370.521C271.196 370.695 271.599 370.973 271.909 371.355C272.224 371.734 272.381 372.233 272.381 372.853V378H270.439V376.94H270.371C270.184 377.296 269.906 377.588 269.537 377.815C269.168 378.039 268.701 378.15 268.136 378.15ZM268.717 376.708C269.195 376.708 269.585 376.569 269.886 376.291C270.191 376.013 270.344 375.671 270.344 375.266V374.438C270.262 374.498 270.127 374.55 269.94 374.596C269.758 374.637 269.564 374.675 269.359 374.712C269.154 374.744 268.977 374.769 268.826 374.787C268.448 374.842 268.143 374.949 267.91 375.108C267.678 375.268 267.562 375.5 267.562 375.806C267.562 376.102 267.669 376.327 267.883 376.482C268.102 376.633 268.38 376.708 268.717 376.708ZM276.92 378L280.399 367.814H283.134L286.702 378H284.385L283.599 375.635H279.982L279.224 378H276.92ZM280.502 374.001H283.059L282.751 373.085C282.587 372.565 282.423 372.003 282.259 371.396C282.095 370.79 281.924 370.141 281.746 369.448C281.577 370.15 281.416 370.804 281.261 371.41C281.106 372.016 280.951 372.575 280.796 373.085L280.502 374.001ZM292.198 378.13C291.784 378.13 291.433 378.059 291.146 377.918C290.858 377.777 290.624 377.604 290.441 377.398C290.264 377.189 290.127 376.981 290.031 376.776H289.936V378H287.919V367.814H289.97V371.643H290.031C290.122 371.442 290.255 371.235 290.428 371.021C290.605 370.806 290.838 370.626 291.125 370.48C291.417 370.335 291.779 370.262 292.212 370.262C292.777 370.262 293.294 370.408 293.764 370.699C294.233 370.991 294.607 371.428 294.885 372.012C295.167 372.595 295.309 373.322 295.309 374.192C295.309 375.04 295.172 375.758 294.898 376.346C294.625 376.929 294.254 377.373 293.784 377.679C293.315 377.979 292.786 378.13 292.198 378.13ZM291.569 376.482C292.103 376.482 292.508 376.268 292.786 375.84C293.069 375.411 293.21 374.86 293.21 374.186C293.21 373.516 293.071 372.969 292.793 372.545C292.515 372.117 292.107 371.902 291.569 371.902C291.041 371.902 290.633 372.11 290.346 372.524C290.063 372.939 289.922 373.493 289.922 374.186C289.922 374.878 290.065 375.434 290.353 375.854C290.64 376.273 291.045 376.482 291.569 376.482ZM299.786 378.15C298.866 378.15 298.104 377.954 297.503 377.562C296.906 377.171 296.541 376.619 296.409 375.908L298.316 375.58C298.512 376.291 299.023 376.646 299.848 376.646C300.24 376.646 300.547 376.574 300.771 376.428C300.998 376.277 301.112 376.088 301.112 375.86C301.112 375.473 300.784 375.211 300.128 375.074L298.809 374.801C297.341 374.5 296.607 373.778 296.607 372.634C296.607 371.9 296.901 371.321 297.489 370.897C298.077 370.474 298.854 370.262 299.82 370.262C300.727 370.262 301.45 370.446 301.987 370.815C302.525 371.185 302.865 371.679 303.006 372.299L301.188 372.62C301.105 372.36 300.955 372.148 300.736 371.984C300.518 371.816 300.221 371.731 299.848 371.731C299.51 371.731 299.228 371.804 299 371.95C298.772 372.091 298.658 372.276 298.658 372.504C298.658 372.695 298.731 372.859 298.877 372.996C299.027 373.128 299.283 373.231 299.643 373.304L301.017 373.577C302.475 373.873 303.204 374.562 303.204 375.642C303.204 376.143 303.058 376.583 302.767 376.961C302.475 377.335 302.072 377.626 301.557 377.836C301.042 378.046 300.451 378.15 299.786 378.15ZM308.393 370.357V371.923H306.964V375.765C306.964 376.239 307.196 376.476 307.661 376.476C307.739 376.476 307.846 376.466 307.982 376.448C308.124 376.425 308.233 376.405 308.311 376.387L308.604 377.925C308.377 377.993 308.149 378.041 307.921 378.068C307.698 378.096 307.483 378.109 307.278 378.109C306.513 378.109 305.927 377.925 305.521 377.556C305.116 377.182 304.913 376.644 304.913 375.942V371.923H303.86V370.357H304.913V368.539H306.964V370.357H308.393ZM309.726 378V370.357H311.708V371.69H311.79C311.931 371.221 312.166 370.866 312.494 370.624C312.827 370.378 313.207 370.255 313.636 370.255C313.868 370.255 314.089 370.278 314.299 370.323V372.155C314.208 372.128 314.073 372.105 313.896 372.087C313.722 372.064 313.561 372.053 313.41 372.053C312.936 372.053 312.544 372.201 312.234 372.497C311.929 372.793 311.776 373.178 311.776 373.652V378H309.726ZM317.368 378.15C316.639 378.15 316.033 377.959 315.55 377.576C315.067 377.189 314.825 376.617 314.825 375.86C314.825 375.291 314.962 374.844 315.235 374.521C315.509 374.197 315.864 373.96 316.302 373.81C316.739 373.659 317.209 373.561 317.71 373.516C318.366 373.452 318.838 373.386 319.125 373.317C319.417 373.244 319.562 373.083 319.562 372.832V372.798C319.562 372.474 319.458 372.224 319.248 372.046C319.043 371.868 318.749 371.779 318.366 371.779C317.97 371.779 317.651 371.866 317.409 372.039C317.168 372.208 317.006 372.415 316.924 372.661L315.044 372.347C315.24 371.686 315.63 371.173 316.213 370.809C316.801 370.444 317.521 370.262 318.373 370.262C318.92 370.262 319.439 370.348 319.932 370.521C320.428 370.695 320.832 370.973 321.142 371.355C321.456 371.734 321.613 372.233 321.613 372.853V378H319.672V376.94H319.604C319.417 377.296 319.139 377.588 318.77 377.815C318.4 378.039 317.933 378.15 317.368 378.15ZM317.949 376.708C318.428 376.708 318.817 376.569 319.118 376.291C319.424 376.013 319.576 375.671 319.576 375.266V374.438C319.494 374.498 319.36 374.55 319.173 374.596C318.991 374.637 318.797 374.675 318.592 374.712C318.387 374.744 318.209 374.769 318.059 374.787C317.68 374.842 317.375 374.949 317.143 375.108C316.91 375.268 316.794 375.5 316.794 375.806C316.794 376.102 316.901 376.327 317.115 376.482C317.334 376.633 317.612 376.708 317.949 376.708ZM326.788 378.15C326.018 378.15 325.353 377.986 324.792 377.658C324.236 377.326 323.805 376.865 323.5 376.277C323.199 375.685 323.049 374.997 323.049 374.213C323.049 373.424 323.199 372.734 323.5 372.142C323.805 371.549 324.236 371.089 324.792 370.761C325.353 370.428 326.018 370.262 326.788 370.262C327.695 370.262 328.451 370.49 329.058 370.945C329.664 371.396 330.04 372.016 330.186 372.805L328.278 373.16C328.192 372.764 328.023 372.451 327.772 372.224C327.526 371.991 327.205 371.875 326.809 371.875C326.262 371.875 325.847 372.091 325.564 372.524C325.282 372.953 325.141 373.513 325.141 374.206C325.141 374.89 325.282 375.45 325.564 375.888C325.847 376.321 326.262 376.537 326.809 376.537C327.205 376.537 327.531 376.419 327.786 376.182C328.041 375.94 328.21 375.614 328.292 375.204L330.199 375.553C330.053 376.359 329.677 376.995 329.071 377.46C328.465 377.92 327.704 378.15 326.788 378.15ZM335.408 370.357V371.923H333.979V375.765C333.979 376.239 334.212 376.476 334.677 376.476C334.754 376.476 334.861 376.466 334.998 376.448C335.139 376.425 335.249 376.405 335.326 376.387L335.62 377.925C335.392 377.993 335.164 378.041 334.937 378.068C334.713 378.096 334.499 378.109 334.294 378.109C333.528 378.109 332.943 377.925 332.537 377.556C332.132 377.182 331.929 376.644 331.929 375.942V371.923H330.876V370.357H331.929V368.539H333.979V370.357H335.408ZM336.741 378V370.357H338.792V378H336.741ZM337.767 369.359C337.457 369.359 337.192 369.257 336.974 369.052C336.755 368.847 336.646 368.598 336.646 368.307C336.646 368.015 336.755 367.767 336.974 367.562C337.192 367.356 337.457 367.254 337.767 367.254C338.076 367.254 338.341 367.356 338.56 367.562C338.783 367.767 338.895 368.015 338.895 368.307C338.895 368.598 338.783 368.847 338.56 369.052C338.341 369.257 338.076 369.359 337.767 369.359ZM343.96 378.15C343.194 378.15 342.531 377.986 341.971 377.658C341.41 377.326 340.977 376.865 340.672 376.277C340.371 375.685 340.221 374.997 340.221 374.213C340.221 373.424 340.371 372.734 340.672 372.142C340.977 371.549 341.41 371.089 341.971 370.761C342.531 370.428 343.194 370.262 343.96 370.262C344.726 370.262 345.389 370.428 345.949 370.761C346.51 371.089 346.94 371.549 347.241 372.142C347.547 372.734 347.699 373.424 347.699 374.213C347.699 374.997 347.547 375.685 347.241 376.277C346.94 376.865 346.51 377.326 345.949 377.658C345.389 377.986 344.726 378.15 343.96 378.15ZM343.96 376.537C344.507 376.537 344.919 376.316 345.197 375.874C345.475 375.432 345.614 374.876 345.614 374.206C345.614 373.532 345.475 372.976 345.197 372.538C344.919 372.096 344.507 371.875 343.96 371.875C343.413 371.875 343.001 372.096 342.723 372.538C342.449 372.976 342.312 373.532 342.312 374.206C342.312 374.876 342.449 375.432 342.723 375.874C343.001 376.316 343.413 376.537 343.96 376.537ZM351.179 373.577V378H349.128V370.357H351.062L351.09 371.937C351.304 371.403 351.607 370.991 351.999 370.699C352.391 370.408 352.881 370.262 353.469 370.262C354.262 370.262 354.897 370.517 355.376 371.027C355.854 371.538 356.094 372.242 356.094 373.14V378H354.043V373.495C354.043 373.021 353.92 372.65 353.674 372.381C353.432 372.112 353.095 371.978 352.662 371.978C352.225 371.978 351.867 372.119 351.589 372.401C351.315 372.679 351.179 373.071 351.179 373.577ZM361.221 378V367.814H363.306V376.271H367.701V378H361.221ZM371.222 378.15C370.493 378.15 369.886 377.959 369.403 377.576C368.92 377.189 368.679 376.617 368.679 375.86C368.679 375.291 368.815 374.844 369.089 374.521C369.362 374.197 369.718 373.96 370.155 373.81C370.593 373.659 371.062 373.561 371.563 373.516C372.22 373.452 372.691 373.386 372.979 373.317C373.27 373.244 373.416 373.083 373.416 372.832V372.798C373.416 372.474 373.311 372.224 373.102 372.046C372.896 371.868 372.603 371.779 372.22 371.779C371.823 371.779 371.504 371.866 371.263 372.039C371.021 372.208 370.859 372.415 370.777 372.661L368.897 372.347C369.093 371.686 369.483 371.173 370.066 370.809C370.654 370.444 371.374 370.262 372.227 370.262C372.773 370.262 373.293 370.348 373.785 370.521C374.282 370.695 374.685 370.973 374.995 371.355C375.31 371.734 375.467 372.233 375.467 372.853V378H373.525V376.94H373.457C373.27 377.296 372.992 377.588 372.623 377.815C372.254 378.039 371.787 378.15 371.222 378.15ZM371.803 376.708C372.281 376.708 372.671 376.569 372.972 376.291C373.277 376.013 373.43 375.671 373.43 375.266V374.438C373.348 374.498 373.213 374.55 373.026 374.596C372.844 374.637 372.65 374.675 372.445 374.712C372.24 374.744 372.062 374.769 371.912 374.787C371.534 374.842 371.229 374.949 370.996 375.108C370.764 375.268 370.647 375.5 370.647 375.806C370.647 376.102 370.755 376.327 370.969 376.482C371.188 376.633 371.465 376.708 371.803 376.708ZM376.923 380.707L377.395 379.162L377.647 379.224C378.062 379.338 378.402 379.328 378.666 379.196C378.93 379.069 379.085 378.813 379.131 378.431L379.186 378.021L376.314 370.357H378.495L379.78 374.322C379.885 374.655 379.974 374.988 380.047 375.32C380.12 375.648 380.193 375.981 380.266 376.318C380.348 375.977 380.432 375.642 380.519 375.313C380.61 374.981 380.71 374.65 380.819 374.322L382.159 370.357H384.312L381.065 378.902C380.833 379.518 380.498 380.005 380.061 380.365C379.628 380.73 379.028 380.912 378.263 380.912C377.989 380.912 377.734 380.892 377.497 380.851C377.26 380.814 377.069 380.766 376.923 380.707ZM388.605 378.15C387.826 378.15 387.154 377.991 386.589 377.672C386.024 377.353 385.589 376.899 385.283 376.312C384.982 375.724 384.832 375.026 384.832 374.22C384.832 373.431 384.982 372.741 385.283 372.148C385.589 371.556 386.015 371.093 386.562 370.761C387.113 370.428 387.76 370.262 388.503 370.262C389.168 370.262 389.772 370.403 390.314 370.686C390.857 370.968 391.287 371.396 391.606 371.971C391.93 372.545 392.092 373.267 392.092 374.138V374.712H386.862C386.885 375.336 387.058 375.808 387.382 376.127C387.705 376.446 388.125 376.605 388.64 376.605C389 376.605 389.307 376.53 389.562 376.38C389.822 376.225 390.007 375.999 390.116 375.703L391.976 376.052C391.789 376.685 391.401 377.193 390.813 377.576C390.23 377.959 389.494 378.15 388.605 378.15ZM386.876 373.427H390.116C390.066 372.93 389.907 372.536 389.638 372.244C389.369 371.952 388.997 371.807 388.523 371.807C388.031 371.807 387.644 371.959 387.361 372.265C387.079 372.565 386.917 372.953 386.876 373.427ZM393.493 378V370.357H395.476V371.69H395.558C395.699 371.221 395.934 370.866 396.262 370.624C396.594 370.378 396.975 370.255 397.403 370.255C397.636 370.255 397.857 370.278 398.066 370.323V372.155C397.975 372.128 397.841 372.105 397.663 372.087C397.49 372.064 397.328 372.053 397.178 372.053C396.704 372.053 396.312 372.201 396.002 372.497C395.697 372.793 395.544 373.178 395.544 373.652V378H393.493Z" fill="#12141E"/>
<rect x="110" width="80" height="30" rx="4" fill="#666977"/>
<path d="M122.655 20.1504C121.429 20.1504 120.45 19.8701 119.716 19.3096C118.987 18.7445 118.608 17.9219 118.581 16.8418H120.611C120.648 17.3568 120.853 17.7441 121.227 18.0039C121.605 18.2591 122.074 18.3867 122.635 18.3867C123.191 18.3867 123.637 18.2682 123.975 18.0312C124.316 17.7897 124.487 17.4753 124.487 17.0879C124.487 16.737 124.332 16.4681 124.022 16.2812C123.717 16.0944 123.286 15.9326 122.73 15.7959L121.609 15.5156C120.748 15.306 120.074 14.9779 119.586 14.5312C119.098 14.0801 118.854 13.4854 118.854 12.7471C118.854 12.1318 119.019 11.5941 119.347 11.1338C119.679 10.6735 120.133 10.3158 120.707 10.0605C121.286 9.80534 121.944 9.67773 122.683 9.67773C123.435 9.67773 124.091 9.80762 124.651 10.0674C125.212 10.3226 125.649 10.6803 125.964 11.1406C126.278 11.5964 126.44 12.1227 126.449 12.7197H124.433C124.396 12.3096 124.221 11.9928 123.906 11.7695C123.596 11.5462 123.182 11.4346 122.662 11.4346C122.129 11.4346 121.716 11.5462 121.425 11.7695C121.138 11.9883 120.994 12.2686 120.994 12.6104C120.994 12.9886 121.156 13.2712 121.479 13.458C121.808 13.6449 122.188 13.7907 122.621 13.8955L123.544 14.1211C124.114 14.2533 124.629 14.4447 125.089 14.6953C125.549 14.9414 125.914 15.2627 126.183 15.6592C126.451 16.0511 126.586 16.5319 126.586 17.1016C126.586 18.0267 126.24 18.7673 125.547 19.3232C124.859 19.8747 123.895 20.1504 122.655 20.1504ZM131.843 12.3574V13.9229H130.414V17.7646C130.414 18.2386 130.646 18.4756 131.111 18.4756C131.189 18.4756 131.296 18.4665 131.433 18.4482C131.574 18.4255 131.683 18.4049 131.761 18.3867L132.055 19.9248C131.827 19.9932 131.599 20.041 131.371 20.0684C131.148 20.0957 130.934 20.1094 130.729 20.1094C129.963 20.1094 129.377 19.9248 128.972 19.5557C128.566 19.182 128.363 18.6442 128.363 17.9424V13.9229H127.311V12.3574H128.363V10.5391H130.414V12.3574H131.843ZM136.457 20.1504C135.691 20.1504 135.028 19.9863 134.468 19.6582C133.907 19.3255 133.474 18.8652 133.169 18.2773C132.868 17.6849 132.718 16.9967 132.718 16.2129C132.718 15.4245 132.868 14.734 133.169 14.1416C133.474 13.5492 133.907 13.0889 134.468 12.7607C135.028 12.4281 135.691 12.2617 136.457 12.2617C137.223 12.2617 137.886 12.4281 138.446 12.7607C139.007 13.0889 139.438 13.5492 139.738 14.1416C140.044 14.734 140.196 15.4245 140.196 16.2129C140.196 16.9967 140.044 17.6849 139.738 18.2773C139.438 18.8652 139.007 19.3255 138.446 19.6582C137.886 19.9863 137.223 20.1504 136.457 20.1504ZM136.457 18.5371C137.004 18.5371 137.416 18.3161 137.694 17.874C137.972 17.432 138.111 16.876 138.111 16.2061C138.111 15.5316 137.972 14.9756 137.694 14.5381C137.416 14.096 137.004 13.875 136.457 13.875C135.91 13.875 135.498 14.096 135.22 14.5381C134.946 14.9756 134.81 15.5316 134.81 16.2061C134.81 16.876 134.946 17.432 135.22 17.874C135.498 18.3161 135.91 18.5371 136.457 18.5371ZM141.625 20V12.3574H143.607V13.6904H143.689C143.831 13.221 144.065 12.8656 144.394 12.624C144.726 12.3779 145.107 12.2549 145.535 12.2549C145.768 12.2549 145.989 12.2777 146.198 12.3232V14.1553C146.107 14.1279 145.973 14.1051 145.795 14.0869C145.622 14.0641 145.46 14.0527 145.31 14.0527C144.836 14.0527 144.444 14.2008 144.134 14.4971C143.828 14.7933 143.676 15.1784 143.676 15.6523V20H141.625ZM150.437 20.1504C149.657 20.1504 148.985 19.9909 148.42 19.6719C147.855 19.3529 147.42 18.8994 147.114 18.3115C146.813 17.7236 146.663 17.0264 146.663 16.2197C146.663 15.4313 146.813 14.7409 147.114 14.1484C147.42 13.556 147.846 13.0934 148.393 12.7607C148.944 12.4281 149.591 12.2617 150.334 12.2617C150.999 12.2617 151.603 12.403 152.146 12.6855C152.688 12.9681 153.118 13.3965 153.438 13.9707C153.761 14.5449 153.923 15.2673 153.923 16.1377V16.7119H148.693C148.716 17.3363 148.889 17.8079 149.213 18.127C149.536 18.446 149.956 18.6055 150.471 18.6055C150.831 18.6055 151.138 18.5303 151.394 18.3799C151.653 18.2249 151.838 17.9993 151.947 17.7031L153.807 18.0518C153.62 18.6852 153.232 19.1934 152.645 19.5762C152.061 19.959 151.325 20.1504 150.437 20.1504ZM148.707 15.4268H151.947C151.897 14.93 151.738 14.5358 151.469 14.2441C151.2 13.9525 150.828 13.8066 150.354 13.8066C149.862 13.8066 149.475 13.9593 149.192 14.2646C148.91 14.5654 148.748 14.9528 148.707 15.4268ZM158.106 20L161.586 9.81445H164.32L167.889 20H165.571L164.785 17.6348H161.169L160.41 20H158.106ZM161.688 16.001H164.245L163.938 15.085C163.773 14.5654 163.609 14.0026 163.445 13.3965C163.281 12.7904 163.11 12.141 162.933 11.4482C162.764 12.1501 162.602 12.804 162.447 13.4102C162.292 14.0163 162.137 14.5745 161.982 15.085L161.688 16.001ZM169.153 20V9.81445H173.125C173.9 9.81445 174.558 9.96257 175.101 10.2588C175.643 10.5505 176.055 10.9561 176.338 11.4756C176.625 11.9906 176.769 12.583 176.769 13.2529C176.769 13.9274 176.623 14.5221 176.331 15.0371C176.044 15.5475 175.625 15.9486 175.073 16.2402C174.522 16.5273 173.856 16.6709 173.077 16.6709H171.238V20H169.153ZM171.238 14.9893H172.742C173.38 14.9893 173.852 14.8275 174.157 14.5039C174.463 14.1803 174.615 13.7633 174.615 13.2529C174.615 12.738 174.463 12.3232 174.157 12.0088C173.852 11.6943 173.378 11.5371 172.735 11.5371H171.238V14.9893ZM180.316 9.81445V20H178.231V9.81445H180.316Z" fill="white"/>
<rect x="447" width="86" height="30" rx="4" fill="#666977"/>
<path d="M459.655 20.1504C458.429 20.1504 457.45 19.8701 456.716 19.3096C455.987 18.7445 455.608 17.9219 455.581 16.8418H457.611C457.648 17.3568 457.853 17.7441 458.227 18.0039C458.605 18.2591 459.074 18.3867 459.635 18.3867C460.191 18.3867 460.637 18.2682 460.975 18.0312C461.316 17.7897 461.487 17.4753 461.487 17.0879C461.487 16.737 461.332 16.4681 461.022 16.2812C460.717 16.0944 460.286 15.9326 459.73 15.7959L458.609 15.5156C457.748 15.306 457.074 14.9779 456.586 14.5312C456.098 14.0801 455.854 13.4854 455.854 12.7471C455.854 12.1318 456.019 11.5941 456.347 11.1338C456.679 10.6735 457.133 10.3158 457.707 10.0605C458.286 9.80534 458.944 9.67773 459.683 9.67773C460.435 9.67773 461.091 9.80762 461.651 10.0674C462.212 10.3226 462.649 10.6803 462.964 11.1406C463.278 11.5964 463.44 12.1227 463.449 12.7197H461.433C461.396 12.3096 461.221 11.9928 460.906 11.7695C460.596 11.5462 460.182 11.4346 459.662 11.4346C459.129 11.4346 458.716 11.5462 458.425 11.7695C458.138 11.9883 457.994 12.2686 457.994 12.6104C457.994 12.9886 458.156 13.2712 458.479 13.458C458.808 13.6449 459.188 13.7907 459.621 13.8955L460.544 14.1211C461.114 14.2533 461.629 14.4447 462.089 14.6953C462.549 14.9414 462.914 15.2627 463.183 15.6592C463.451 16.0511 463.586 16.5319 463.586 17.1016C463.586 18.0267 463.24 18.7673 462.547 19.3232C461.859 19.8747 460.895 20.1504 459.655 20.1504ZM468.843 12.3574V13.9229H467.414V17.7646C467.414 18.2386 467.646 18.4756 468.111 18.4756C468.189 18.4756 468.296 18.4665 468.433 18.4482C468.574 18.4255 468.683 18.4049 468.761 18.3867L469.055 19.9248C468.827 19.9932 468.599 20.041 468.371 20.0684C468.148 20.0957 467.934 20.1094 467.729 20.1094C466.963 20.1094 466.377 19.9248 465.972 19.5557C465.566 19.182 465.363 18.6442 465.363 17.9424V13.9229H464.311V12.3574H465.363V10.5391H467.414V12.3574H468.843ZM473.457 20.1504C472.691 20.1504 472.028 19.9863 471.468 19.6582C470.907 19.3255 470.474 18.8652 470.169 18.2773C469.868 17.6849 469.718 16.9967 469.718 16.2129C469.718 15.4245 469.868 14.734 470.169 14.1416C470.474 13.5492 470.907 13.0889 471.468 12.7607C472.028 12.4281 472.691 12.2617 473.457 12.2617C474.223 12.2617 474.886 12.4281 475.446 12.7607C476.007 13.0889 476.438 13.5492 476.738 14.1416C477.044 14.734 477.196 15.4245 477.196 16.2129C477.196 16.9967 477.044 17.6849 476.738 18.2773C476.438 18.8652 476.007 19.3255 475.446 19.6582C474.886 19.9863 474.223 20.1504 473.457 20.1504ZM473.457 18.5371C474.004 18.5371 474.416 18.3161 474.694 17.874C474.972 17.432 475.111 16.876 475.111 16.2061C475.111 15.5316 474.972 14.9756 474.694 14.5381C474.416 14.096 474.004 13.875 473.457 13.875C472.91 13.875 472.498 14.096 472.22 14.5381C471.946 14.9756 471.81 15.5316 471.81 16.2061C471.81 16.876 471.946 17.432 472.22 17.874C472.498 18.3161 472.91 18.5371 473.457 18.5371ZM478.625 20V12.3574H480.607V13.6904H480.689C480.831 13.221 481.065 12.8656 481.394 12.624C481.726 12.3779 482.107 12.2549 482.535 12.2549C482.768 12.2549 482.989 12.2777 483.198 12.3232V14.1553C483.107 14.1279 482.973 14.1051 482.795 14.0869C482.622 14.0641 482.46 14.0527 482.31 14.0527C481.836 14.0527 481.444 14.2008 481.134 14.4971C480.828 14.7933 480.676 15.1784 480.676 15.6523V20H478.625ZM487.437 20.1504C486.657 20.1504 485.985 19.9909 485.42 19.6719C484.855 19.3529 484.42 18.8994 484.114 18.3115C483.813 17.7236 483.663 17.0264 483.663 16.2197C483.663 15.4313 483.813 14.7409 484.114 14.1484C484.42 13.556 484.846 13.0934 485.393 12.7607C485.944 12.4281 486.591 12.2617 487.334 12.2617C487.999 12.2617 488.603 12.403 489.146 12.6855C489.688 12.9681 490.118 13.3965 490.438 13.9707C490.761 14.5449 490.923 15.2673 490.923 16.1377V16.7119H485.693C485.716 17.3363 485.889 17.8079 486.213 18.127C486.536 18.446 486.956 18.6055 487.471 18.6055C487.831 18.6055 488.138 18.5303 488.394 18.3799C488.653 18.2249 488.838 17.9993 488.947 17.7031L490.807 18.0518C490.62 18.6852 490.232 19.1934 489.645 19.5762C489.061 19.959 488.325 20.1504 487.437 20.1504ZM485.707 15.4268H488.947C488.897 14.93 488.738 14.5358 488.469 14.2441C488.2 13.9525 487.828 13.8066 487.354 13.8066C486.862 13.8066 486.475 13.9593 486.192 14.2646C485.91 14.5654 485.748 14.9528 485.707 15.4268ZM496.576 12.3574V13.9229H494.977V20H492.933V13.9229H491.586V12.3574H492.933V11.7695C492.933 10.9583 493.17 10.3499 493.644 9.94434C494.118 9.53874 494.708 9.33594 495.414 9.33594C495.738 9.33594 496.032 9.361 496.296 9.41113C496.56 9.46126 496.756 9.50684 496.884 9.54785L496.515 11.0928C496.433 11.07 496.33 11.0472 496.207 11.0244C496.089 11.0016 495.963 10.9902 495.831 10.9902C495.517 10.9902 495.296 11.0654 495.168 11.2158C495.04 11.3617 494.977 11.569 494.977 11.8379V12.3574H496.576ZM497.902 20V12.3574H499.885V13.6904H499.967C500.108 13.221 500.343 12.8656 500.671 12.624C501.004 12.3779 501.384 12.2549 501.812 12.2549C502.045 12.2549 502.266 12.2777 502.476 12.3232V14.1553C502.384 14.1279 502.25 14.1051 502.072 14.0869C501.899 14.0641 501.737 14.0527 501.587 14.0527C501.113 14.0527 500.721 14.2008 500.411 14.4971C500.106 14.7933 499.953 15.1784 499.953 15.6523V20H497.902ZM506.68 20.1504C505.914 20.1504 505.251 19.9863 504.69 19.6582C504.13 19.3255 503.697 18.8652 503.392 18.2773C503.091 17.6849 502.94 16.9967 502.94 16.2129C502.94 15.4245 503.091 14.734 503.392 14.1416C503.697 13.5492 504.13 13.0889 504.69 12.7607C505.251 12.4281 505.914 12.2617 506.68 12.2617C507.445 12.2617 508.108 12.4281 508.669 12.7607C509.229 13.0889 509.66 13.5492 509.961 14.1416C510.266 14.734 510.419 15.4245 510.419 16.2129C510.419 16.9967 510.266 17.6849 509.961 18.2773C509.66 18.8652 509.229 19.3255 508.669 19.6582C508.108 19.9863 507.445 20.1504 506.68 20.1504ZM506.68 18.5371C507.227 18.5371 507.639 18.3161 507.917 17.874C508.195 17.432 508.334 16.876 508.334 16.2061C508.334 15.5316 508.195 14.9756 507.917 14.5381C507.639 14.096 507.227 13.875 506.68 13.875C506.133 13.875 505.72 14.096 505.442 14.5381C505.169 14.9756 505.032 15.5316 505.032 16.2061C505.032 16.876 505.169 17.432 505.442 17.874C505.72 18.3161 506.133 18.5371 506.68 18.5371ZM513.898 15.5771V20H511.848V12.3574H513.782L513.81 13.9365C514.024 13.4033 514.327 12.9909 514.719 12.6992C515.111 12.4076 515.601 12.2617 516.188 12.2617C516.981 12.2617 517.617 12.5169 518.096 13.0273C518.574 13.5378 518.813 14.2419 518.813 15.1396V20H516.763V15.4951C516.763 15.0212 516.64 14.6497 516.394 14.3809C516.152 14.112 515.815 13.9775 515.382 13.9775C514.944 13.9775 514.587 14.1188 514.309 14.4014C514.035 14.6794 513.898 15.0713 513.898 15.5771ZM524.364 12.3574V13.9229H522.936V17.7646C522.936 18.2386 523.168 18.4756 523.633 18.4756C523.71 18.4756 523.817 18.4665 523.954 18.4482C524.095 18.4255 524.205 18.4049 524.282 18.3867L524.576 19.9248C524.348 19.9932 524.12 20.041 523.893 20.0684C523.669 20.0957 523.455 20.1094 523.25 20.1094C522.484 20.1094 521.899 19.9248 521.493 19.5557C521.088 19.182 520.885 18.6442 520.885 17.9424V13.9229H519.832V12.3574H520.885V10.5391H522.936V12.3574H524.364Z" fill="white"/>
<rect x="1" y="66" width="298" height="50" rx="3" fill="white"/>
<rect x="1" y="66" width="298" height="50" rx="3" stroke="#B6B9C9" stroke-width="2"/>
<path d="M106.387 96V85.8145H108.472V89.9297H112.908V85.8145H115V96H112.908V91.6592H108.472V96H106.387ZM116.436 87.5439V85.8145H124.755V87.5439H121.645V96H119.553V87.5439H116.436ZM125.787 87.5439V85.8145H134.106V87.5439H130.996V96H128.904V87.5439H125.787ZM135.549 96V85.8145H139.521C140.295 85.8145 140.954 85.9626 141.496 86.2588C142.038 86.5505 142.451 86.9561 142.733 87.4756C143.021 87.9906 143.164 88.583 143.164 89.2529C143.164 89.9274 143.018 90.5221 142.727 91.0371C142.439 91.5475 142.02 91.9486 141.469 92.2402C140.917 92.5273 140.252 92.6709 139.473 92.6709H137.634V96H135.549ZM137.634 90.9893H139.138C139.776 90.9893 140.247 90.8275 140.553 90.5039C140.858 90.1803 141.011 89.7633 141.011 89.2529C141.011 88.738 140.858 88.3232 140.553 88.0088C140.247 87.6943 139.773 87.5371 139.131 87.5371H137.634V90.9893ZM147.949 96V85.8145H151.921C153.078 85.8145 153.974 86.1175 154.607 86.7236C155.245 87.3252 155.564 88.1273 155.564 89.1299C155.564 89.8271 155.41 90.4242 155.1 90.9209C154.79 91.4131 154.343 91.7822 153.76 92.0283L155.927 96H153.616L151.675 92.3633H150.034V96H147.949ZM150.034 90.6748H151.538C152.787 90.6748 153.411 90.1598 153.411 89.1299C153.411 88.6149 153.256 88.2207 152.946 87.9473C152.641 87.6738 152.169 87.5371 151.531 87.5371H150.034V90.6748ZM160.343 96.1504C159.577 96.1504 158.914 95.9863 158.354 95.6582C157.793 95.3255 157.36 94.8652 157.055 94.2773C156.754 93.6849 156.604 92.9967 156.604 92.2129C156.604 91.4245 156.754 90.734 157.055 90.1416C157.36 89.5492 157.793 89.0889 158.354 88.7607C158.914 88.4281 159.577 88.2617 160.343 88.2617C161.108 88.2617 161.771 88.4281 162.332 88.7607C162.893 89.0889 163.323 89.5492 163.624 90.1416C163.929 90.734 164.082 91.4245 164.082 92.2129C164.082 92.9967 163.929 93.6849 163.624 94.2773C163.323 94.8652 162.893 95.3255 162.332 95.6582C161.771 95.9863 161.108 96.1504 160.343 96.1504ZM160.343 94.5371C160.89 94.5371 161.302 94.3161 161.58 93.874C161.858 93.432 161.997 92.876 161.997 92.2061C161.997 91.5316 161.858 90.9756 161.58 90.5381C161.302 90.096 160.89 89.875 160.343 89.875C159.796 89.875 159.383 90.096 159.105 90.5381C158.832 90.9756 158.695 91.5316 158.695 92.2061C158.695 92.876 158.832 93.432 159.105 93.874C159.383 94.3161 159.796 94.5371 160.343 94.5371ZM168.143 96.0957C167.35 96.0957 166.712 95.8405 166.229 95.3301C165.75 94.8197 165.511 94.1156 165.511 93.2178V88.3574H167.562V92.8623C167.562 93.3363 167.685 93.7077 167.931 93.9766C168.177 94.2454 168.514 94.3799 168.942 94.3799C169.38 94.3799 169.735 94.2409 170.009 93.9629C170.287 93.6803 170.426 93.2861 170.426 92.7803V88.3574H172.483V96H170.542L170.515 94.4141C170.3 94.9564 169.995 95.3734 169.599 95.665C169.207 95.9521 168.721 96.0957 168.143 96.0957ZM178.027 88.3574V89.9229H176.599V93.7646C176.599 94.2386 176.831 94.4756 177.296 94.4756C177.373 94.4756 177.48 94.4665 177.617 94.4482C177.758 94.4255 177.868 94.4049 177.945 94.3867L178.239 95.9248C178.011 95.9932 177.784 96.041 177.556 96.0684C177.332 96.0957 177.118 96.1094 176.913 96.1094C176.147 96.1094 175.562 95.9248 175.156 95.5557C174.751 95.182 174.548 94.6442 174.548 93.9424V89.9229H173.495V88.3574H174.548V86.5391H176.599V88.3574H178.027ZM182.676 96.1504C181.896 96.1504 181.224 95.9909 180.659 95.6719C180.094 95.3529 179.659 94.8994 179.354 94.3115C179.053 93.7236 178.902 93.0264 178.902 92.2197C178.902 91.4313 179.053 90.7409 179.354 90.1484C179.659 89.556 180.085 89.0934 180.632 88.7607C181.183 88.4281 181.83 88.2617 182.573 88.2617C183.239 88.2617 183.842 88.403 184.385 88.6855C184.927 88.9681 185.358 89.3965 185.677 89.9707C186 90.5449 186.162 91.2673 186.162 92.1377V92.7119H180.933C180.955 93.3363 181.129 93.8079 181.452 94.127C181.776 94.446 182.195 94.6055 182.71 94.6055C183.07 94.6055 183.378 94.5303 183.633 94.3799C183.893 94.2249 184.077 93.9993 184.187 93.7031L186.046 94.0518C185.859 94.6852 185.472 95.1934 184.884 95.5762C184.3 95.959 183.564 96.1504 182.676 96.1504ZM180.946 91.4268H184.187C184.136 90.93 183.977 90.5358 183.708 90.2441C183.439 89.9525 183.068 89.8066 182.594 89.8066C182.102 89.8066 181.714 89.9593 181.432 90.2646C181.149 90.5654 180.987 90.9528 180.946 91.4268ZM190.599 96.1504C189.678 96.1504 188.917 95.9544 188.315 95.5625C187.718 95.1706 187.354 94.6191 187.222 93.9082L189.129 93.5801C189.325 94.291 189.835 94.6465 190.66 94.6465C191.052 94.6465 191.36 94.5736 191.583 94.4277C191.811 94.2773 191.925 94.0882 191.925 93.8604C191.925 93.473 191.597 93.2109 190.94 93.0742L189.621 92.8008C188.154 92.5 187.42 91.7777 187.42 90.6338C187.42 89.9001 187.714 89.3213 188.302 88.8975C188.89 88.4736 189.667 88.2617 190.633 88.2617C191.54 88.2617 192.262 88.4463 192.8 88.8154C193.338 89.1846 193.677 89.679 193.818 90.2988L192 90.6201C191.918 90.3604 191.768 90.1484 191.549 89.9844C191.33 89.8158 191.034 89.7314 190.66 89.7314C190.323 89.7314 190.04 89.8044 189.812 89.9502C189.585 90.0915 189.471 90.276 189.471 90.5039C189.471 90.6953 189.544 90.8594 189.689 90.9961C189.84 91.1283 190.095 91.2308 190.455 91.3037L191.829 91.5771C193.287 91.8734 194.017 92.5615 194.017 93.6416C194.017 94.1429 193.871 94.5827 193.579 94.9609C193.287 95.3346 192.884 95.6263 192.369 95.8359C191.854 96.0456 191.264 96.1504 190.599 96.1504Z" fill="#12141E"/>
</g>
<defs>
<clipPath id="clip0_410_2453">
<rect width="640" height="493" fill="white"/>
</clipPath>
</defs>
</svg>
