<svg width="659" height="427" viewBox="0 0 659 427" fill="none" xmlns="http://www.w3.org/2000/svg">
<g clip-path="url(#clip0_527_3978)">
<rect width="659" height="427" fill="white"/>
<rect x="1" y="1" width="657" height="425" rx="3" fill="#FAFBFE"/>
<rect x="1" y="1" width="657" height="425" rx="3" stroke="#B6B9C9" stroke-width="2" stroke-linecap="round" stroke-linejoin="round"/>
<rect x="351" y="65" width="298" height="50" rx="3" fill="white"/>
<rect x="351" y="65" width="298" height="50" rx="3" stroke="#B6B9C9" stroke-width="2"/>
<path d="M410.244 95V84.8145H414.216C414.991 84.8145 415.649 84.9626 416.191 85.2588C416.734 85.5505 417.146 85.9561 417.429 86.4756C417.716 86.9906 417.859 87.583 417.859 88.2529C417.859 88.9274 417.714 89.5221 417.422 90.0371C417.135 90.5475 416.715 90.9486 416.164 91.2402C415.613 91.5273 414.947 91.6709 414.168 91.6709H412.329V95H410.244ZM412.329 89.9893H413.833C414.471 89.9893 414.943 89.8275 415.248 89.5039C415.553 89.1803 415.706 88.7633 415.706 88.2529C415.706 87.738 415.553 87.3232 415.248 87.0088C414.943 86.6943 414.469 86.5371 413.826 86.5371H412.329V89.9893ZM421.229 95.1504C420.5 95.1504 419.894 94.959 419.411 94.5762C418.928 94.1888 418.687 93.6169 418.687 92.8604C418.687 92.2907 418.823 91.8441 419.097 91.5205C419.37 91.1969 419.726 90.96 420.163 90.8096C420.601 90.6592 421.07 90.5612 421.571 90.5156C422.228 90.4518 422.699 90.3857 422.986 90.3174C423.278 90.2445 423.424 90.0827 423.424 89.832V89.7979C423.424 89.4743 423.319 89.2236 423.109 89.0459C422.904 88.8682 422.61 88.7793 422.228 88.7793C421.831 88.7793 421.512 88.8659 421.271 89.0391C421.029 89.2077 420.867 89.415 420.785 89.6611L418.905 89.3467C419.101 88.6859 419.491 88.1732 420.074 87.8086C420.662 87.444 421.382 87.2617 422.234 87.2617C422.781 87.2617 423.301 87.3483 423.793 87.5215C424.29 87.6947 424.693 87.9727 425.003 88.3555C425.317 88.7337 425.475 89.2327 425.475 89.8525V95H423.533V93.9404H423.465C423.278 94.2959 423 94.5876 422.631 94.8154C422.262 95.0387 421.795 95.1504 421.229 95.1504ZM421.811 93.708C422.289 93.708 422.679 93.569 422.979 93.291C423.285 93.013 423.438 92.6712 423.438 92.2656V91.4385C423.355 91.4977 423.221 91.5501 423.034 91.5957C422.852 91.6367 422.658 91.6755 422.453 91.7119C422.248 91.7438 422.07 91.7689 421.92 91.7871C421.542 91.8418 421.236 91.9489 421.004 92.1084C420.771 92.2679 420.655 92.5003 420.655 92.8057C420.655 93.1019 420.762 93.3275 420.977 93.4824C421.195 93.6328 421.473 93.708 421.811 93.708ZM430.629 98.0215C429.672 98.0215 428.902 97.846 428.318 97.4951C427.735 97.1442 427.359 96.6953 427.19 96.1484L428.954 95.6562C429.05 95.8704 429.225 96.0687 429.48 96.251C429.74 96.4378 430.118 96.5312 430.615 96.5312C431.135 96.5312 431.545 96.4105 431.846 96.1689C432.146 95.932 432.297 95.5605 432.297 95.0547V93.6465H432.14C431.998 93.9564 431.764 94.2412 431.436 94.501C431.112 94.7607 430.64 94.8906 430.021 94.8906C429.446 94.8906 428.924 94.7562 428.455 94.4873C427.986 94.2184 427.61 93.8083 427.327 93.2568C427.049 92.7054 426.91 92.0081 426.91 91.165C426.91 90.3037 427.051 89.5837 427.334 89.0049C427.621 88.4261 427.999 87.9909 428.469 87.6992C428.943 87.4076 429.462 87.2617 430.027 87.2617C430.456 87.2617 430.816 87.3346 431.107 87.4805C431.399 87.6263 431.634 87.8063 431.812 88.0205C431.994 88.2347 432.131 88.4421 432.222 88.6426H432.311V87.3574H434.327V94.9385C434.327 95.6266 434.168 96.1986 433.849 96.6543C433.534 97.1146 433.097 97.4564 432.536 97.6797C431.98 97.9076 431.344 98.0215 430.629 98.0215ZM430.663 93.332C431.187 93.332 431.59 93.1406 431.873 92.7578C432.16 92.3704 432.304 91.835 432.304 91.1514C432.304 90.4723 432.162 89.9277 431.88 89.5176C431.597 89.1074 431.192 88.9023 430.663 88.9023C430.125 88.9023 429.715 89.1143 429.433 89.5381C429.155 89.9574 429.016 90.4951 429.016 91.1514C429.016 91.8213 429.157 92.3522 429.439 92.7441C429.722 93.1361 430.13 93.332 430.663 93.332ZM439.529 95.1504C438.75 95.1504 438.078 94.9909 437.513 94.6719C436.948 94.3529 436.512 93.8994 436.207 93.3115C435.906 92.7236 435.756 92.0264 435.756 91.2197C435.756 90.4313 435.906 89.7409 436.207 89.1484C436.512 88.556 436.938 88.0934 437.485 87.7607C438.037 87.4281 438.684 87.2617 439.427 87.2617C440.092 87.2617 440.696 87.403 441.238 87.6855C441.781 87.9681 442.211 88.3965 442.53 88.9707C442.854 89.5449 443.016 90.2673 443.016 91.1377V91.7119H437.786C437.809 92.3363 437.982 92.8079 438.306 93.127C438.629 93.446 439.049 93.6055 439.563 93.6055C439.924 93.6055 440.231 93.5303 440.486 93.3799C440.746 93.2249 440.931 92.9993 441.04 92.7031L442.899 93.0518C442.713 93.6852 442.325 94.1934 441.737 94.5762C441.154 94.959 440.418 95.1504 439.529 95.1504ZM437.8 90.4268H441.04C440.99 89.93 440.83 89.5358 440.562 89.2441C440.293 88.9525 439.921 88.8066 439.447 88.8066C438.955 88.8066 438.568 88.9593 438.285 89.2646C438.003 89.5654 437.841 89.9528 437.8 90.4268ZM447.787 95V84.8145H449.872V93.2705H454.268V95H447.787ZM459.073 95.1504C458.308 95.1504 457.645 94.9863 457.084 94.6582C456.523 94.3255 456.09 93.8652 455.785 93.2773C455.484 92.6849 455.334 91.9967 455.334 91.2129C455.334 90.4245 455.484 89.734 455.785 89.1416C456.09 88.5492 456.523 88.0889 457.084 87.7607C457.645 87.4281 458.308 87.2617 459.073 87.2617C459.839 87.2617 460.502 87.4281 461.062 87.7607C461.623 88.0889 462.054 88.5492 462.354 89.1416C462.66 89.734 462.812 90.4245 462.812 91.2129C462.812 91.9967 462.66 92.6849 462.354 93.2773C462.054 93.8652 461.623 94.3255 461.062 94.6582C460.502 94.9863 459.839 95.1504 459.073 95.1504ZM459.073 93.5371C459.62 93.5371 460.033 93.3161 460.311 92.874C460.589 92.432 460.728 91.876 460.728 91.2061C460.728 90.5316 460.589 89.9756 460.311 89.5381C460.033 89.096 459.62 88.875 459.073 88.875C458.526 88.875 458.114 89.096 457.836 89.5381C457.562 89.9756 457.426 90.5316 457.426 91.2061C457.426 91.876 457.562 92.432 457.836 92.874C458.114 93.3161 458.526 93.5371 459.073 93.5371ZM466.511 95.1504C465.782 95.1504 465.175 94.959 464.692 94.5762C464.209 94.1888 463.968 93.6169 463.968 92.8604C463.968 92.2907 464.104 91.8441 464.378 91.5205C464.651 91.1969 465.007 90.96 465.444 90.8096C465.882 90.6592 466.351 90.5612 466.853 90.5156C467.509 90.4518 467.98 90.3857 468.268 90.3174C468.559 90.2445 468.705 90.0827 468.705 89.832V89.7979C468.705 89.4743 468.6 89.2236 468.391 89.0459C468.186 88.8682 467.892 88.7793 467.509 88.7793C467.112 88.7793 466.793 88.8659 466.552 89.0391C466.31 89.2077 466.148 89.415 466.066 89.6611L464.187 89.3467C464.382 88.6859 464.772 88.1732 465.355 87.8086C465.943 87.444 466.663 87.2617 467.516 87.2617C468.062 87.2617 468.582 87.3483 469.074 87.5215C469.571 87.6947 469.974 87.9727 470.284 88.3555C470.599 88.7337 470.756 89.2327 470.756 89.8525V95H468.814V93.9404H468.746C468.559 94.2959 468.281 94.5876 467.912 94.8154C467.543 95.0387 467.076 95.1504 466.511 95.1504ZM467.092 93.708C467.57 93.708 467.96 93.569 468.261 93.291C468.566 93.013 468.719 92.6712 468.719 92.2656V91.4385C468.637 91.4977 468.502 91.5501 468.315 91.5957C468.133 91.6367 467.939 91.6755 467.734 91.7119C467.529 91.7438 467.352 91.7689 467.201 91.7871C466.823 91.8418 466.518 91.9489 466.285 92.1084C466.053 92.2679 465.937 92.5003 465.937 92.8057C465.937 93.1019 466.044 93.3275 466.258 93.4824C466.477 93.6328 466.755 93.708 467.092 93.708ZM475.309 95.1299C474.721 95.1299 474.192 94.9795 473.723 94.6787C473.253 94.3734 472.88 93.929 472.602 93.3457C472.328 92.7578 472.191 92.04 472.191 91.1924C472.191 90.3219 472.333 89.5951 472.615 89.0117C472.898 88.4284 473.274 87.9909 473.743 87.6992C474.213 87.4076 474.73 87.2617 475.295 87.2617C475.728 87.2617 476.088 87.3346 476.375 87.4805C476.662 87.6263 476.892 87.8063 477.065 88.0205C477.243 88.2347 477.378 88.4421 477.469 88.6426H477.537V84.8145H479.588V95H477.571V93.7764H477.469C477.373 93.9814 477.236 94.1888 477.059 94.3984C476.881 94.6035 476.648 94.7767 476.361 94.918C476.074 95.0592 475.723 95.1299 475.309 95.1299ZM475.938 93.4824C476.457 93.4824 476.86 93.2728 477.147 92.8535C477.435 92.4342 477.578 91.8783 477.578 91.1855C477.578 90.4928 477.435 89.9391 477.147 89.5244C476.865 89.1097 476.462 88.9023 475.938 88.9023C475.4 88.9023 474.992 89.1165 474.714 89.5449C474.436 89.9688 474.297 90.5156 474.297 91.1855C474.297 91.86 474.436 92.4115 474.714 92.8398C474.996 93.2682 475.404 93.4824 475.938 93.4824ZM484.797 95.1504C484.018 95.1504 483.345 94.9909 482.78 94.6719C482.215 94.3529 481.78 93.8994 481.475 93.3115C481.174 92.7236 481.023 92.0264 481.023 91.2197C481.023 90.4313 481.174 89.7409 481.475 89.1484C481.78 88.556 482.206 88.0934 482.753 87.7607C483.304 87.4281 483.951 87.2617 484.694 87.2617C485.36 87.2617 485.964 87.403 486.506 87.6855C487.048 87.9681 487.479 88.3965 487.798 88.9707C488.121 89.5449 488.283 90.2673 488.283 91.1377V91.7119H483.054C483.076 92.3363 483.25 92.8079 483.573 93.127C483.897 93.446 484.316 93.6055 484.831 93.6055C485.191 93.6055 485.499 93.5303 485.754 93.3799C486.014 93.2249 486.198 92.9993 486.308 92.7031L488.167 93.0518C487.98 93.6852 487.593 94.1934 487.005 94.5762C486.422 94.959 485.686 95.1504 484.797 95.1504ZM483.067 90.4268H486.308C486.257 89.93 486.098 89.5358 485.829 89.2441C485.56 88.9525 485.189 88.8066 484.715 88.8066C484.223 88.8066 483.835 88.9593 483.553 89.2646C483.27 89.5654 483.108 89.9528 483.067 90.4268ZM489.685 95V87.3574H491.667V88.6904H491.749C491.89 88.221 492.125 87.8656 492.453 87.624C492.786 87.3779 493.166 87.2549 493.595 87.2549C493.827 87.2549 494.048 87.2777 494.258 87.3232V89.1553C494.167 89.1279 494.032 89.1051 493.854 89.0869C493.681 89.0641 493.52 89.0527 493.369 89.0527C492.895 89.0527 492.503 89.2008 492.193 89.4971C491.888 89.7933 491.735 90.1784 491.735 90.6523V95H489.685ZM498.421 95.1504C497.5 95.1504 496.739 94.9544 496.138 94.5625C495.541 94.1706 495.176 93.6191 495.044 92.9082L496.951 92.5801C497.147 93.291 497.658 93.6465 498.482 93.6465C498.874 93.6465 499.182 93.5736 499.405 93.4277C499.633 93.2773 499.747 93.0882 499.747 92.8604C499.747 92.473 499.419 92.2109 498.763 92.0742L497.443 91.8008C495.976 91.5 495.242 90.7777 495.242 89.6338C495.242 88.9001 495.536 88.3213 496.124 87.8975C496.712 87.4736 497.489 87.2617 498.455 87.2617C499.362 87.2617 500.084 87.4463 500.622 87.8154C501.16 88.1846 501.499 88.679 501.641 89.2988L499.822 89.6201C499.74 89.3604 499.59 89.1484 499.371 88.9844C499.152 88.8158 498.856 88.7314 498.482 88.7314C498.145 88.7314 497.863 88.8044 497.635 88.9502C497.407 89.0915 497.293 89.276 497.293 89.5039C497.293 89.6953 497.366 89.8594 497.512 89.9961C497.662 90.1283 497.917 90.2308 498.277 90.3037L499.651 90.5771C501.11 90.8734 501.839 91.5615 501.839 92.6416C501.839 93.1429 501.693 93.5827 501.401 93.9609C501.11 94.3346 500.706 94.6263 500.191 94.8359C499.676 95.0456 499.086 95.1504 498.421 95.1504ZM510.931 84.3359L507.649 96.5312H505.872L509.153 84.3359H510.931ZM519.817 95.1367C518.91 95.1367 518.102 94.9316 517.391 94.5215C516.68 94.1113 516.117 93.5166 515.702 92.7373C515.292 91.958 515.087 91.0169 515.087 89.9141C515.087 88.8066 515.294 87.8633 515.709 87.084C516.124 86.3001 516.689 85.7031 517.404 85.293C518.12 84.8828 518.924 84.6777 519.817 84.6777C520.588 84.6777 521.285 84.8213 521.909 85.1084C522.534 85.391 523.046 85.8034 523.447 86.3457C523.848 86.8835 524.099 87.5329 524.199 88.2939H522.087C521.991 87.7425 521.741 87.3118 521.335 87.002C520.934 86.6875 520.442 86.5303 519.858 86.5303C519.065 86.5303 518.425 86.8242 517.938 87.4121C517.45 88 517.206 88.834 517.206 89.9141C517.206 91.0169 517.45 91.8555 517.938 92.4297C518.43 92.9993 519.068 93.2842 519.852 93.2842C520.43 93.2842 520.923 93.1292 521.328 92.8193C521.738 92.5049 521.993 92.0697 522.094 91.5137H524.206C524.129 92.1471 523.905 92.7396 523.536 93.291C523.167 93.8379 522.668 94.2822 522.039 94.624C521.415 94.9658 520.674 95.1367 519.817 95.1367ZM529.101 95.1504C528.335 95.1504 527.672 94.9863 527.111 94.6582C526.551 94.3255 526.118 93.8652 525.812 93.2773C525.512 92.6849 525.361 91.9967 525.361 91.2129C525.361 90.4245 525.512 89.734 525.812 89.1416C526.118 88.5492 526.551 88.0889 527.111 87.7607C527.672 87.4281 528.335 87.2617 529.101 87.2617C529.866 87.2617 530.529 87.4281 531.09 87.7607C531.65 88.0889 532.081 88.5492 532.382 89.1416C532.687 89.734 532.84 90.4245 532.84 91.2129C532.84 91.9967 532.687 92.6849 532.382 93.2773C532.081 93.8652 531.65 94.3255 531.09 94.6582C530.529 94.9863 529.866 95.1504 529.101 95.1504ZM529.101 93.5371C529.647 93.5371 530.06 93.3161 530.338 92.874C530.616 92.432 530.755 91.876 530.755 91.2061C530.755 90.5316 530.616 89.9756 530.338 89.5381C530.06 89.096 529.647 88.875 529.101 88.875C528.554 88.875 528.141 89.096 527.863 89.5381C527.59 89.9756 527.453 90.5316 527.453 91.2061C527.453 91.876 527.59 92.432 527.863 92.874C528.141 93.3161 528.554 93.5371 529.101 93.5371ZM536.319 90.5771V95H534.269V87.3574H536.203L536.23 88.9365C536.445 88.4033 536.748 87.9909 537.14 87.6992C537.532 87.4076 538.021 87.2617 538.609 87.2617C539.402 87.2617 540.038 87.5169 540.517 88.0273C540.995 88.5378 541.234 89.2419 541.234 90.1396V95H539.184V90.4951C539.184 90.0212 539.061 89.6497 538.814 89.3809C538.573 89.112 538.236 88.9775 537.803 88.9775C537.365 88.9775 537.007 89.1188 536.729 89.4014C536.456 89.6794 536.319 90.0713 536.319 90.5771ZM546.785 87.3574V88.9229H545.356V92.7646C545.356 93.2386 545.589 93.4756 546.054 93.4756C546.131 93.4756 546.238 93.4665 546.375 93.4482C546.516 93.4255 546.626 93.4049 546.703 93.3867L546.997 94.9248C546.769 94.9932 546.541 95.041 546.313 95.0684C546.09 95.0957 545.876 95.1094 545.671 95.1094C544.905 95.1094 544.32 94.9248 543.914 94.5557C543.508 94.182 543.306 93.6442 543.306 92.9424V88.9229H542.253V87.3574H543.306V85.5391H545.356V87.3574H546.785ZM548.118 95V87.3574H550.101V88.6904H550.183C550.324 88.221 550.559 87.8656 550.887 87.624C551.219 87.3779 551.6 87.2549 552.028 87.2549C552.261 87.2549 552.482 87.2777 552.691 87.3232V89.1553C552.6 89.1279 552.466 89.1051 552.288 89.0869C552.115 89.0641 551.953 89.0527 551.803 89.0527C551.329 89.0527 550.937 89.2008 550.627 89.4971C550.322 89.7933 550.169 90.1784 550.169 90.6523V95H548.118ZM556.896 95.1504C556.13 95.1504 555.467 94.9863 554.906 94.6582C554.346 94.3255 553.913 93.8652 553.607 93.2773C553.307 92.6849 553.156 91.9967 553.156 91.2129C553.156 90.4245 553.307 89.734 553.607 89.1416C553.913 88.5492 554.346 88.0889 554.906 87.7607C555.467 87.4281 556.13 87.2617 556.896 87.2617C557.661 87.2617 558.324 87.4281 558.885 87.7607C559.445 88.0889 559.876 88.5492 560.177 89.1416C560.482 89.734 560.635 90.4245 560.635 91.2129C560.635 91.9967 560.482 92.6849 560.177 93.2773C559.876 93.8652 559.445 94.3255 558.885 94.6582C558.324 94.9863 557.661 95.1504 556.896 95.1504ZM556.896 93.5371C557.442 93.5371 557.855 93.3161 558.133 92.874C558.411 92.432 558.55 91.876 558.55 91.2061C558.55 90.5316 558.411 89.9756 558.133 89.5381C557.855 89.096 557.442 88.875 556.896 88.875C556.349 88.875 555.936 89.096 555.658 89.5381C555.385 89.9756 555.248 90.5316 555.248 91.2061C555.248 91.876 555.385 92.432 555.658 92.874C555.936 93.3161 556.349 93.5371 556.896 93.5371ZM564.114 84.8145V95H562.063V84.8145H564.114ZM567.915 84.8145V95H565.864V84.8145H567.915ZM573.117 95.1504C572.338 95.1504 571.666 94.9909 571.101 94.6719C570.535 94.3529 570.1 93.8994 569.795 93.3115C569.494 92.7236 569.344 92.0264 569.344 91.2197C569.344 90.4313 569.494 89.7409 569.795 89.1484C570.1 88.556 570.526 88.0934 571.073 87.7607C571.625 87.4281 572.272 87.2617 573.015 87.2617C573.68 87.2617 574.284 87.403 574.826 87.6855C575.368 87.9681 575.799 88.3965 576.118 88.9707C576.442 89.5449 576.604 90.2673 576.604 91.1377V91.7119H571.374C571.397 92.3363 571.57 92.8079 571.894 93.127C572.217 93.446 572.636 93.6055 573.151 93.6055C573.511 93.6055 573.819 93.5303 574.074 93.3799C574.334 93.2249 574.519 92.9993 574.628 92.7031L576.487 93.0518C576.3 93.6852 575.913 94.1934 575.325 94.5762C574.742 94.959 574.006 95.1504 573.117 95.1504ZM571.388 90.4268H574.628C574.578 89.93 574.418 89.5358 574.149 89.2441C573.881 88.9525 573.509 88.8066 573.035 88.8066C572.543 88.8066 572.156 88.9593 571.873 89.2646C571.59 89.5654 571.429 89.9528 571.388 90.4268ZM578.005 95V87.3574H579.987V88.6904H580.069C580.211 88.221 580.445 87.8656 580.773 87.624C581.106 87.3779 581.487 87.2549 581.915 87.2549C582.147 87.2549 582.368 87.2777 582.578 87.3232V89.1553C582.487 89.1279 582.353 89.1051 582.175 89.0869C582.002 89.0641 581.84 89.0527 581.689 89.0527C581.215 89.0527 580.824 89.2008 580.514 89.4971C580.208 89.7933 580.056 90.1784 580.056 90.6523V95H578.005ZM586.741 95.1504C585.821 95.1504 585.06 94.9544 584.458 94.5625C583.861 94.1706 583.496 93.6191 583.364 92.9082L585.271 92.5801C585.467 93.291 585.978 93.6465 586.803 93.6465C587.195 93.6465 587.502 93.5736 587.726 93.4277C587.953 93.2773 588.067 93.0882 588.067 92.8604C588.067 92.473 587.739 92.2109 587.083 92.0742L585.764 91.8008C584.296 91.5 583.562 90.7777 583.562 89.6338C583.562 88.9001 583.856 88.3213 584.444 87.8975C585.032 87.4736 585.809 87.2617 586.775 87.2617C587.682 87.2617 588.405 87.4463 588.942 87.8154C589.48 88.1846 589.82 88.679 589.961 89.2988L588.143 89.6201C588.061 89.3604 587.91 89.1484 587.691 88.9844C587.473 88.8158 587.176 88.7314 586.803 88.7314C586.465 88.7314 586.183 88.8044 585.955 88.9502C585.727 89.0915 585.613 89.276 585.613 89.5039C585.613 89.6953 585.686 89.8594 585.832 89.9961C585.982 90.1283 586.238 90.2308 586.598 90.3037L587.972 90.5771C589.43 90.8734 590.159 91.5615 590.159 92.6416C590.159 93.1429 590.013 93.5827 589.722 93.9609C589.43 94.3346 589.027 94.6263 588.512 94.8359C587.997 95.0456 587.407 95.1504 586.741 95.1504Z" fill="#12141E"/>
<rect x="11" y="139" width="638" height="50" rx="3" fill="white"/>
<rect x="11" y="139" width="638" height="50" rx="3" stroke="#B6B9C9" stroke-width="2"/>
<path d="M246.048 169H242.466V158.814H246.082C247.103 158.814 247.98 159.02 248.714 159.43C249.452 159.835 250.02 160.419 250.416 161.18C250.812 161.936 251.011 162.843 251.011 163.9C251.011 164.962 250.812 165.874 250.416 166.635C250.02 167.396 249.45 167.981 248.707 168.392C247.964 168.797 247.078 169 246.048 169ZM244.551 167.202H245.945C246.925 167.202 247.668 166.938 248.174 166.409C248.68 165.881 248.933 165.044 248.933 163.9C248.933 162.761 248.68 161.929 248.174 161.405C247.673 160.877 246.934 160.612 245.959 160.612H244.551V167.202ZM255.953 169.15C255.188 169.15 254.524 168.986 253.964 168.658C253.403 168.326 252.97 167.865 252.665 167.277C252.364 166.685 252.214 165.997 252.214 165.213C252.214 164.424 252.364 163.734 252.665 163.142C252.97 162.549 253.403 162.089 253.964 161.761C254.524 161.428 255.188 161.262 255.953 161.262C256.719 161.262 257.382 161.428 257.942 161.761C258.503 162.089 258.934 162.549 259.234 163.142C259.54 163.734 259.692 164.424 259.692 165.213C259.692 165.997 259.54 166.685 259.234 167.277C258.934 167.865 258.503 168.326 257.942 168.658C257.382 168.986 256.719 169.15 255.953 169.15ZM255.953 167.537C256.5 167.537 256.912 167.316 257.19 166.874C257.468 166.432 257.607 165.876 257.607 165.206C257.607 164.532 257.468 163.976 257.19 163.538C256.912 163.096 256.5 162.875 255.953 162.875C255.406 162.875 254.994 163.096 254.716 163.538C254.442 163.976 254.306 164.532 254.306 165.206C254.306 165.876 254.442 166.432 254.716 166.874C254.994 167.316 255.406 167.537 255.953 167.537ZM261.121 169V161.357H263.021L263.104 162.841C263.309 162.285 263.609 161.879 264.006 161.624C264.402 161.369 264.828 161.241 265.284 161.241C266.25 161.241 266.907 161.813 267.253 162.957C267.467 162.369 267.798 161.936 268.244 161.658C268.695 161.38 269.183 161.241 269.707 161.241C270.409 161.241 270.99 161.469 271.45 161.925C271.915 162.376 272.147 163.016 272.147 163.846V169H270.09V164.235C270.09 163.807 269.974 163.488 269.741 163.278C269.509 163.064 269.222 162.957 268.88 162.957C268.493 162.957 268.185 163.08 267.957 163.326C267.734 163.572 267.622 163.896 267.622 164.297V169H265.64V164.181C265.64 163.807 265.528 163.511 265.305 163.292C265.086 163.069 264.801 162.957 264.45 162.957C264.09 162.957 263.787 163.08 263.541 163.326C263.295 163.568 263.172 163.919 263.172 164.379V169H261.121ZM276.037 169.15C275.308 169.15 274.702 168.959 274.219 168.576C273.736 168.189 273.494 167.617 273.494 166.86C273.494 166.291 273.631 165.844 273.904 165.521C274.178 165.197 274.533 164.96 274.971 164.81C275.408 164.659 275.878 164.561 276.379 164.516C277.035 164.452 277.507 164.386 277.794 164.317C278.086 164.244 278.231 164.083 278.231 163.832V163.798C278.231 163.474 278.127 163.224 277.917 163.046C277.712 162.868 277.418 162.779 277.035 162.779C276.639 162.779 276.32 162.866 276.078 163.039C275.837 163.208 275.675 163.415 275.593 163.661L273.713 163.347C273.909 162.686 274.299 162.173 274.882 161.809C275.47 161.444 276.19 161.262 277.042 161.262C277.589 161.262 278.108 161.348 278.601 161.521C279.097 161.695 279.501 161.973 279.811 162.355C280.125 162.734 280.282 163.233 280.282 163.853V169H278.341V167.94H278.272C278.086 168.296 277.808 168.588 277.438 168.815C277.069 169.039 276.602 169.15 276.037 169.15ZM276.618 167.708C277.097 167.708 277.486 167.569 277.787 167.291C278.092 167.013 278.245 166.671 278.245 166.266V165.438C278.163 165.498 278.029 165.55 277.842 165.596C277.66 165.637 277.466 165.675 277.261 165.712C277.056 165.744 276.878 165.769 276.728 165.787C276.349 165.842 276.044 165.949 275.812 166.108C275.579 166.268 275.463 166.5 275.463 166.806C275.463 167.102 275.57 167.327 275.784 167.482C276.003 167.633 276.281 167.708 276.618 167.708ZM282.039 169V161.357H284.09V169H282.039ZM283.064 160.359C282.755 160.359 282.49 160.257 282.271 160.052C282.053 159.847 281.943 159.598 281.943 159.307C281.943 159.015 282.053 158.767 282.271 158.562C282.49 158.356 282.755 158.254 283.064 158.254C283.374 158.254 283.639 158.356 283.857 158.562C284.081 158.767 284.192 159.015 284.192 159.307C284.192 159.598 284.081 159.847 283.857 160.052C283.639 160.257 283.374 160.359 283.064 160.359ZM287.891 164.577V169H285.84V161.357H287.774L287.802 162.937C288.016 162.403 288.319 161.991 288.711 161.699C289.103 161.408 289.593 161.262 290.181 161.262C290.974 161.262 291.609 161.517 292.088 162.027C292.566 162.538 292.806 163.242 292.806 164.14V169H290.755V164.495C290.755 164.021 290.632 163.65 290.386 163.381C290.144 163.112 289.807 162.978 289.374 162.978C288.937 162.978 288.579 163.119 288.301 163.401C288.027 163.679 287.891 164.071 287.891 164.577ZM301.665 169.15C300.439 169.15 299.459 168.87 298.726 168.31C297.996 167.744 297.618 166.922 297.591 165.842H299.621C299.658 166.357 299.863 166.744 300.236 167.004C300.615 167.259 301.084 167.387 301.645 167.387C302.201 167.387 302.647 167.268 302.984 167.031C303.326 166.79 303.497 166.475 303.497 166.088C303.497 165.737 303.342 165.468 303.032 165.281C302.727 165.094 302.296 164.933 301.74 164.796L300.619 164.516C299.758 164.306 299.083 163.978 298.596 163.531C298.108 163.08 297.864 162.485 297.864 161.747C297.864 161.132 298.028 160.594 298.356 160.134C298.689 159.674 299.143 159.316 299.717 159.061C300.296 158.805 300.954 158.678 301.692 158.678C302.444 158.678 303.101 158.808 303.661 159.067C304.222 159.323 304.659 159.68 304.974 160.141C305.288 160.596 305.45 161.123 305.459 161.72H303.442C303.406 161.31 303.23 160.993 302.916 160.77C302.606 160.546 302.191 160.435 301.672 160.435C301.139 160.435 300.726 160.546 300.435 160.77C300.147 160.988 300.004 161.269 300.004 161.61C300.004 161.989 300.166 162.271 300.489 162.458C300.817 162.645 301.198 162.791 301.631 162.896L302.554 163.121C303.123 163.253 303.638 163.445 304.099 163.695C304.559 163.941 304.924 164.263 305.192 164.659C305.461 165.051 305.596 165.532 305.596 166.102C305.596 167.027 305.249 167.767 304.557 168.323C303.868 168.875 302.905 169.15 301.665 169.15ZM310.511 169.15C309.731 169.15 309.059 168.991 308.494 168.672C307.929 168.353 307.494 167.899 307.188 167.312C306.888 166.724 306.737 166.026 306.737 165.22C306.737 164.431 306.888 163.741 307.188 163.148C307.494 162.556 307.92 162.093 308.467 161.761C309.018 161.428 309.665 161.262 310.408 161.262C311.074 161.262 311.677 161.403 312.22 161.686C312.762 161.968 313.193 162.396 313.512 162.971C313.835 163.545 313.997 164.267 313.997 165.138V165.712H308.768C308.79 166.336 308.964 166.808 309.287 167.127C309.611 167.446 310.03 167.605 310.545 167.605C310.905 167.605 311.213 167.53 311.468 167.38C311.728 167.225 311.912 166.999 312.021 166.703L313.881 167.052C313.694 167.685 313.307 168.193 312.719 168.576C312.135 168.959 311.399 169.15 310.511 169.15ZM308.781 164.427H312.021C311.971 163.93 311.812 163.536 311.543 163.244C311.274 162.952 310.903 162.807 310.429 162.807C309.937 162.807 309.549 162.959 309.267 163.265C308.984 163.565 308.822 163.953 308.781 164.427ZM315.398 169V161.357H317.381V162.69H317.463C317.604 162.221 317.839 161.866 318.167 161.624C318.5 161.378 318.88 161.255 319.309 161.255C319.541 161.255 319.762 161.278 319.972 161.323V163.155C319.881 163.128 319.746 163.105 319.568 163.087C319.395 163.064 319.233 163.053 319.083 163.053C318.609 163.053 318.217 163.201 317.907 163.497C317.602 163.793 317.449 164.178 317.449 164.652V169H315.398ZM323.472 169L320.655 161.357H322.836L324.121 165.322C324.226 165.664 324.322 166.008 324.408 166.354C324.499 166.701 324.586 167.052 324.668 167.407C324.745 167.052 324.825 166.703 324.907 166.361C324.994 166.015 325.092 165.669 325.201 165.322L326.473 161.357H328.626L325.803 169H323.472ZM329.713 169V161.357H331.764V169H329.713ZM330.738 160.359C330.428 160.359 330.164 160.257 329.945 160.052C329.727 159.847 329.617 159.598 329.617 159.307C329.617 159.015 329.727 158.767 329.945 158.562C330.164 158.356 330.428 158.254 330.738 158.254C331.048 158.254 331.312 158.356 331.531 158.562C331.755 158.767 331.866 159.015 331.866 159.307C331.866 159.598 331.755 159.847 331.531 160.052C331.312 160.257 331.048 160.359 330.738 160.359ZM336.932 169.15C336.161 169.15 335.496 168.986 334.936 168.658C334.38 168.326 333.949 167.865 333.644 167.277C333.343 166.685 333.192 165.997 333.192 165.213C333.192 164.424 333.343 163.734 333.644 163.142C333.949 162.549 334.38 162.089 334.936 161.761C335.496 161.428 336.161 161.262 336.932 161.262C337.839 161.262 338.595 161.49 339.201 161.945C339.807 162.396 340.183 163.016 340.329 163.805L338.422 164.16C338.335 163.764 338.167 163.451 337.916 163.224C337.67 162.991 337.349 162.875 336.952 162.875C336.405 162.875 335.991 163.091 335.708 163.524C335.425 163.953 335.284 164.513 335.284 165.206C335.284 165.89 335.425 166.45 335.708 166.888C335.991 167.321 336.405 167.537 336.952 167.537C337.349 167.537 337.674 167.419 337.93 167.182C338.185 166.94 338.354 166.614 338.436 166.204L340.343 166.553C340.197 167.359 339.821 167.995 339.215 168.46C338.609 168.92 337.848 169.15 336.932 169.15ZM345.21 169.15C344.431 169.15 343.758 168.991 343.193 168.672C342.628 168.353 342.193 167.899 341.888 167.312C341.587 166.724 341.437 166.026 341.437 165.22C341.437 164.431 341.587 163.741 341.888 163.148C342.193 162.556 342.619 162.093 343.166 161.761C343.717 161.428 344.365 161.262 345.107 161.262C345.773 161.262 346.377 161.403 346.919 161.686C347.461 161.968 347.892 162.396 348.211 162.971C348.535 163.545 348.696 164.267 348.696 165.138V165.712H343.467C343.49 166.336 343.663 166.808 343.986 167.127C344.31 167.446 344.729 167.605 345.244 167.605C345.604 167.605 345.912 167.53 346.167 167.38C346.427 167.225 346.611 166.999 346.721 166.703L348.58 167.052C348.393 167.685 348.006 168.193 347.418 168.576C346.835 168.959 346.099 169.15 345.21 169.15ZM343.48 164.427H346.721C346.671 163.93 346.511 163.536 346.242 163.244C345.973 162.952 345.602 162.807 345.128 162.807C344.636 162.807 344.248 162.959 343.966 163.265C343.683 163.565 343.521 163.953 343.48 164.427ZM353.133 169.15C352.212 169.15 351.451 168.954 350.85 168.562C350.253 168.171 349.888 167.619 349.756 166.908L351.663 166.58C351.859 167.291 352.369 167.646 353.194 167.646C353.586 167.646 353.894 167.574 354.117 167.428C354.345 167.277 354.459 167.088 354.459 166.86C354.459 166.473 354.131 166.211 353.475 166.074L352.155 165.801C350.688 165.5 349.954 164.778 349.954 163.634C349.954 162.9 350.248 162.321 350.836 161.897C351.424 161.474 352.201 161.262 353.167 161.262C354.074 161.262 354.796 161.446 355.334 161.815C355.872 162.185 356.211 162.679 356.353 163.299L354.534 163.62C354.452 163.36 354.302 163.148 354.083 162.984C353.864 162.816 353.568 162.731 353.194 162.731C352.857 162.731 352.575 162.804 352.347 162.95C352.119 163.091 352.005 163.276 352.005 163.504C352.005 163.695 352.078 163.859 352.224 163.996C352.374 164.128 352.629 164.231 352.989 164.304L354.363 164.577C355.822 164.873 356.551 165.562 356.551 166.642C356.551 167.143 356.405 167.583 356.113 167.961C355.822 168.335 355.418 168.626 354.903 168.836C354.388 169.046 353.798 169.15 353.133 169.15ZM361.548 164.208C361.548 163.456 361.623 162.672 361.773 161.856C361.924 161.036 362.131 160.252 362.396 159.505C362.664 158.753 362.97 158.101 363.312 157.55H365.219C364.886 158.256 364.601 158.992 364.364 159.758C364.132 160.523 363.952 161.287 363.824 162.048C363.701 162.804 363.64 163.524 363.64 164.208C363.64 164.805 363.692 165.407 363.797 166.013C363.906 166.614 364.077 167.261 364.31 167.954C364.542 168.642 364.845 169.412 365.219 170.265H363.312C362.733 169.308 362.293 168.316 361.992 167.291C361.696 166.261 361.548 165.233 361.548 164.208ZM366.593 169V158.814H370.564C371.722 158.814 372.618 159.118 373.251 159.724C373.889 160.325 374.208 161.127 374.208 162.13C374.208 162.827 374.053 163.424 373.743 163.921C373.433 164.413 372.987 164.782 372.403 165.028L374.57 169H372.26L370.318 165.363H368.678V169H366.593ZM368.678 163.675H370.182C371.43 163.675 372.055 163.16 372.055 162.13C372.055 161.615 371.9 161.221 371.59 160.947C371.285 160.674 370.813 160.537 370.175 160.537H368.678V163.675ZM378.986 169.15C378.221 169.15 377.558 168.986 376.997 168.658C376.437 168.326 376.004 167.865 375.698 167.277C375.397 166.685 375.247 165.997 375.247 165.213C375.247 164.424 375.397 163.734 375.698 163.142C376.004 162.549 376.437 162.089 376.997 161.761C377.558 161.428 378.221 161.262 378.986 161.262C379.752 161.262 380.415 161.428 380.976 161.761C381.536 162.089 381.967 162.549 382.268 163.142C382.573 163.734 382.726 164.424 382.726 165.213C382.726 165.997 382.573 166.685 382.268 167.277C381.967 167.865 381.536 168.326 380.976 168.658C380.415 168.986 379.752 169.15 378.986 169.15ZM378.986 167.537C379.533 167.537 379.946 167.316 380.224 166.874C380.502 166.432 380.641 165.876 380.641 165.206C380.641 164.532 380.502 163.976 380.224 163.538C379.946 163.096 379.533 162.875 378.986 162.875C378.439 162.875 378.027 163.096 377.749 163.538C377.476 163.976 377.339 164.532 377.339 165.206C377.339 165.876 377.476 166.432 377.749 166.874C378.027 167.316 378.439 167.537 378.986 167.537ZM386.786 169.096C385.993 169.096 385.355 168.84 384.872 168.33C384.394 167.82 384.154 167.116 384.154 166.218V161.357H386.205V165.862C386.205 166.336 386.328 166.708 386.574 166.977C386.82 167.245 387.158 167.38 387.586 167.38C388.023 167.38 388.379 167.241 388.652 166.963C388.93 166.68 389.069 166.286 389.069 165.78V161.357H391.127V169H389.186L389.158 167.414C388.944 167.956 388.639 168.373 388.242 168.665C387.85 168.952 387.365 169.096 386.786 169.096ZM396.671 161.357V162.923H395.242V166.765C395.242 167.239 395.475 167.476 395.939 167.476C396.017 167.476 396.124 167.466 396.261 167.448C396.402 167.425 396.511 167.405 396.589 167.387L396.883 168.925C396.655 168.993 396.427 169.041 396.199 169.068C395.976 169.096 395.762 169.109 395.557 169.109C394.791 169.109 394.205 168.925 393.8 168.556C393.394 168.182 393.191 167.644 393.191 166.942V162.923H392.139V161.357H393.191V159.539H395.242V161.357H396.671ZM401.319 169.15C400.54 169.15 399.868 168.991 399.303 168.672C398.738 168.353 398.302 167.899 397.997 167.312C397.696 166.724 397.546 166.026 397.546 165.22C397.546 164.431 397.696 163.741 397.997 163.148C398.302 162.556 398.729 162.093 399.275 161.761C399.827 161.428 400.474 161.262 401.217 161.262C401.882 161.262 402.486 161.403 403.028 161.686C403.571 161.968 404.001 162.396 404.32 162.971C404.644 163.545 404.806 164.267 404.806 165.138V165.712H399.576C399.599 166.336 399.772 166.808 400.096 167.127C400.419 167.446 400.839 167.605 401.354 167.605C401.714 167.605 402.021 167.53 402.276 167.38C402.536 167.225 402.721 166.999 402.83 166.703L404.689 167.052C404.503 167.685 404.115 168.193 403.527 168.576C402.944 168.959 402.208 169.15 401.319 169.15ZM399.59 164.427H402.83C402.78 163.93 402.62 163.536 402.352 163.244C402.083 162.952 401.711 162.807 401.237 162.807C400.745 162.807 400.358 162.959 400.075 163.265C399.793 163.565 399.631 163.953 399.59 164.427ZM409.242 169.15C408.322 169.15 407.561 168.954 406.959 168.562C406.362 168.171 405.997 167.619 405.865 166.908L407.772 166.58C407.968 167.291 408.479 167.646 409.304 167.646C409.696 167.646 410.003 167.574 410.227 167.428C410.454 167.277 410.568 167.088 410.568 166.86C410.568 166.473 410.24 166.211 409.584 166.074L408.265 165.801C406.797 165.5 406.063 164.778 406.063 163.634C406.063 162.9 406.357 162.321 406.945 161.897C407.533 161.474 408.31 161.262 409.276 161.262C410.183 161.262 410.906 161.446 411.443 161.815C411.981 162.185 412.321 162.679 412.462 163.299L410.644 163.62C410.562 163.36 410.411 163.148 410.192 162.984C409.974 162.816 409.677 162.731 409.304 162.731C408.966 162.731 408.684 162.804 408.456 162.95C408.228 163.091 408.114 163.276 408.114 163.504C408.114 163.695 408.187 163.859 408.333 163.996C408.483 164.128 408.739 164.231 409.099 164.304L410.473 164.577C411.931 164.873 412.66 165.562 412.66 166.642C412.66 167.143 412.514 167.583 412.223 167.961C411.931 168.335 411.528 168.626 411.013 168.836C410.498 169.046 409.908 169.15 409.242 169.15ZM413.638 170.907C414.016 170.041 414.319 169.264 414.547 168.576C414.779 167.883 414.948 167.236 415.053 166.635C415.158 166.033 415.21 165.438 415.21 164.851C415.21 164.167 415.146 163.447 415.019 162.69C414.896 161.929 414.715 161.166 414.479 160.4C414.246 159.635 413.966 158.899 413.638 158.192H415.538C415.884 158.744 416.19 159.396 416.454 160.147C416.718 160.895 416.926 161.679 417.076 162.499C417.227 163.315 417.302 164.099 417.302 164.851C417.302 165.881 417.151 166.91 416.851 167.94C416.55 168.966 416.112 169.955 415.538 170.907H413.638Z" fill="#12141E"/>
<rect x="11" y="213" width="638" height="50" rx="3" fill="white"/>
<rect x="11" y="213" width="638" height="50" rx="3" stroke="#B6B9C9" stroke-width="2"/>
<path d="M288.021 243V232.814H291.992C293.15 232.814 294.045 233.118 294.679 233.724C295.317 234.325 295.636 235.127 295.636 236.13C295.636 236.827 295.481 237.424 295.171 237.921C294.861 238.413 294.414 238.782 293.831 239.028L295.998 243H293.688L291.746 239.363H290.105V243H288.021ZM290.105 237.675H291.609C292.858 237.675 293.482 237.16 293.482 236.13C293.482 235.615 293.327 235.221 293.018 234.947C292.712 234.674 292.241 234.537 291.603 234.537H290.105V237.675ZM300.448 243.15C299.669 243.15 298.997 242.991 298.432 242.672C297.867 242.353 297.431 241.899 297.126 241.312C296.825 240.724 296.675 240.026 296.675 239.22C296.675 238.431 296.825 237.741 297.126 237.148C297.431 236.556 297.857 236.093 298.404 235.761C298.956 235.428 299.603 235.262 300.346 235.262C301.011 235.262 301.615 235.403 302.157 235.686C302.7 235.968 303.13 236.396 303.449 236.971C303.773 237.545 303.935 238.267 303.935 239.138V239.712H298.705C298.728 240.336 298.901 240.808 299.225 241.127C299.548 241.446 299.967 241.605 300.482 241.605C300.842 241.605 301.15 241.53 301.405 241.38C301.665 241.225 301.85 240.999 301.959 240.703L303.818 241.052C303.632 241.685 303.244 242.193 302.656 242.576C302.073 242.959 301.337 243.15 300.448 243.15ZM298.719 238.427H301.959C301.909 237.93 301.749 237.536 301.48 237.244C301.212 236.952 300.84 236.807 300.366 236.807C299.874 236.807 299.487 236.959 299.204 237.265C298.922 237.565 298.76 237.953 298.719 238.427ZM305.336 245.857V235.357H307.353V236.643H307.448C307.539 236.442 307.672 236.235 307.845 236.021C308.022 235.806 308.255 235.626 308.542 235.48C308.834 235.335 309.196 235.262 309.629 235.262C310.194 235.262 310.711 235.408 311.181 235.699C311.65 235.991 312.024 236.428 312.302 237.012C312.584 237.595 312.726 238.322 312.726 239.192C312.726 240.04 312.589 240.758 312.315 241.346C312.042 241.929 311.671 242.373 311.201 242.679C310.732 242.979 310.203 243.13 309.615 243.13C309.201 243.13 308.85 243.059 308.562 242.918C308.275 242.777 308.041 242.604 307.858 242.398C307.681 242.189 307.544 241.981 307.448 241.776H307.387V245.857H305.336ZM308.986 241.482C309.52 241.482 309.925 241.268 310.203 240.84C310.486 240.411 310.627 239.86 310.627 239.186C310.627 238.516 310.488 237.969 310.21 237.545C309.932 237.117 309.524 236.902 308.986 236.902C308.458 236.902 308.05 237.11 307.763 237.524C307.48 237.939 307.339 238.493 307.339 239.186C307.339 239.878 307.482 240.434 307.77 240.854C308.057 241.273 308.462 241.482 308.986 241.482ZM317.586 243.15C316.82 243.15 316.157 242.986 315.597 242.658C315.036 242.326 314.603 241.865 314.298 241.277C313.997 240.685 313.847 239.997 313.847 239.213C313.847 238.424 313.997 237.734 314.298 237.142C314.603 236.549 315.036 236.089 315.597 235.761C316.157 235.428 316.82 235.262 317.586 235.262C318.352 235.262 319.015 235.428 319.575 235.761C320.136 236.089 320.566 236.549 320.867 237.142C321.173 237.734 321.325 238.424 321.325 239.213C321.325 239.997 321.173 240.685 320.867 241.277C320.566 241.865 320.136 242.326 319.575 242.658C319.015 242.986 318.352 243.15 317.586 243.15ZM317.586 241.537C318.133 241.537 318.545 241.316 318.823 240.874C319.101 240.432 319.24 239.876 319.24 239.206C319.24 238.532 319.101 237.976 318.823 237.538C318.545 237.096 318.133 236.875 317.586 236.875C317.039 236.875 316.627 237.096 316.349 237.538C316.075 237.976 315.938 238.532 315.938 239.206C315.938 239.876 316.075 240.432 316.349 240.874C316.627 241.316 317.039 241.537 317.586 241.537ZM325.789 243.15C324.868 243.15 324.107 242.954 323.506 242.562C322.909 242.171 322.544 241.619 322.412 240.908L324.319 240.58C324.515 241.291 325.026 241.646 325.851 241.646C326.243 241.646 326.55 241.574 326.773 241.428C327.001 241.277 327.115 241.088 327.115 240.86C327.115 240.473 326.787 240.211 326.131 240.074L324.812 239.801C323.344 239.5 322.61 238.778 322.61 237.634C322.61 236.9 322.904 236.321 323.492 235.897C324.08 235.474 324.857 235.262 325.823 235.262C326.73 235.262 327.452 235.446 327.99 235.815C328.528 236.185 328.868 236.679 329.009 237.299L327.19 237.62C327.108 237.36 326.958 237.148 326.739 236.984C326.521 236.816 326.224 236.731 325.851 236.731C325.513 236.731 325.231 236.804 325.003 236.95C324.775 237.091 324.661 237.276 324.661 237.504C324.661 237.695 324.734 237.859 324.88 237.996C325.03 238.128 325.285 238.231 325.646 238.304L327.02 238.577C328.478 238.873 329.207 239.562 329.207 240.642C329.207 241.143 329.061 241.583 328.77 241.961C328.478 242.335 328.075 242.626 327.56 242.836C327.045 243.046 326.454 243.15 325.789 243.15ZM330.602 243V235.357H332.652V243H330.602ZM331.627 234.359C331.317 234.359 331.053 234.257 330.834 234.052C330.615 233.847 330.506 233.598 330.506 233.307C330.506 233.015 330.615 232.767 330.834 232.562C331.053 232.356 331.317 232.254 331.627 232.254C331.937 232.254 332.201 232.356 332.42 232.562C332.643 232.767 332.755 233.015 332.755 233.307C332.755 233.598 332.643 233.847 332.42 234.052C332.201 234.257 331.937 234.359 331.627 234.359ZM338.196 235.357V236.923H336.768V240.765C336.768 241.239 337 241.476 337.465 241.476C337.542 241.476 337.649 241.466 337.786 241.448C337.927 241.425 338.037 241.405 338.114 241.387L338.408 242.925C338.18 242.993 337.952 243.041 337.725 243.068C337.501 243.096 337.287 243.109 337.082 243.109C336.316 243.109 335.731 242.925 335.325 242.556C334.92 242.182 334.717 241.644 334.717 240.942V236.923H333.664V235.357H334.717V233.539H336.768V235.357H338.196ZM342.811 243.15C342.045 243.15 341.382 242.986 340.821 242.658C340.261 242.326 339.828 241.865 339.522 241.277C339.222 240.685 339.071 239.997 339.071 239.213C339.071 238.424 339.222 237.734 339.522 237.142C339.828 236.549 340.261 236.089 340.821 235.761C341.382 235.428 342.045 235.262 342.811 235.262C343.576 235.262 344.239 235.428 344.8 235.761C345.36 236.089 345.791 236.549 346.092 237.142C346.397 237.734 346.55 238.424 346.55 239.213C346.55 239.997 346.397 240.685 346.092 241.277C345.791 241.865 345.36 242.326 344.8 242.658C344.239 242.986 343.576 243.15 342.811 243.15ZM342.811 241.537C343.357 241.537 343.77 241.316 344.048 240.874C344.326 240.432 344.465 239.876 344.465 239.206C344.465 238.532 344.326 237.976 344.048 237.538C343.77 237.096 343.357 236.875 342.811 236.875C342.264 236.875 341.851 237.096 341.573 237.538C341.3 237.976 341.163 238.532 341.163 239.206C341.163 239.876 341.3 240.432 341.573 240.874C341.851 241.316 342.264 241.537 342.811 241.537ZM347.979 243V235.357H349.961V236.69H350.043C350.184 236.221 350.419 235.866 350.747 235.624C351.08 235.378 351.46 235.255 351.889 235.255C352.121 235.255 352.342 235.278 352.552 235.323V237.155C352.461 237.128 352.326 237.105 352.148 237.087C351.975 237.064 351.813 237.053 351.663 237.053C351.189 237.053 350.797 237.201 350.487 237.497C350.182 237.793 350.029 238.178 350.029 238.652V243H347.979ZM353.789 243V235.357H355.84V243H353.789ZM354.814 234.359C354.505 234.359 354.24 234.257 354.021 234.052C353.803 233.847 353.693 233.598 353.693 233.307C353.693 233.015 353.803 232.767 354.021 232.562C354.24 232.356 354.505 232.254 354.814 232.254C355.124 232.254 355.389 232.356 355.607 232.562C355.831 232.767 355.942 233.015 355.942 233.307C355.942 233.598 355.831 233.847 355.607 234.052C355.389 234.257 355.124 234.359 354.814 234.359ZM361.042 243.15C360.263 243.15 359.59 242.991 359.025 242.672C358.46 242.353 358.025 241.899 357.72 241.312C357.419 240.724 357.269 240.026 357.269 239.22C357.269 238.431 357.419 237.741 357.72 237.148C358.025 236.556 358.451 236.093 358.998 235.761C359.549 235.428 360.197 235.262 360.939 235.262C361.605 235.262 362.209 235.403 362.751 235.686C363.293 235.968 363.724 236.396 364.043 236.971C364.367 237.545 364.528 238.267 364.528 239.138V239.712H359.299C359.322 240.336 359.495 240.808 359.818 241.127C360.142 241.446 360.561 241.605 361.076 241.605C361.436 241.605 361.744 241.53 361.999 241.38C362.259 241.225 362.443 240.999 362.553 240.703L364.412 241.052C364.225 241.685 363.838 242.193 363.25 242.576C362.667 242.959 361.931 243.15 361.042 243.15ZM359.312 238.427H362.553C362.503 237.93 362.343 237.536 362.074 237.244C361.805 236.952 361.434 236.807 360.96 236.807C360.468 236.807 360.08 236.959 359.798 237.265C359.515 237.565 359.354 237.953 359.312 238.427ZM368.965 243.15C368.044 243.15 367.283 242.954 366.682 242.562C366.085 242.171 365.72 241.619 365.588 240.908L367.495 240.58C367.691 241.291 368.201 241.646 369.026 241.646C369.418 241.646 369.726 241.574 369.949 241.428C370.177 241.277 370.291 241.088 370.291 240.86C370.291 240.473 369.963 240.211 369.307 240.074L367.987 239.801C366.52 239.5 365.786 238.778 365.786 237.634C365.786 236.9 366.08 236.321 366.668 235.897C367.256 235.474 368.033 235.262 368.999 235.262C369.906 235.262 370.628 235.446 371.166 235.815C371.704 236.185 372.043 236.679 372.185 237.299L370.366 237.62C370.284 237.36 370.134 237.148 369.915 236.984C369.696 236.816 369.4 236.731 369.026 236.731C368.689 236.731 368.407 236.804 368.179 236.95C367.951 237.091 367.837 237.276 367.837 237.504C367.837 237.695 367.91 237.859 368.056 237.996C368.206 238.128 368.461 238.231 368.821 238.304L370.195 238.577C371.654 238.873 372.383 239.562 372.383 240.642C372.383 241.143 372.237 241.583 371.945 241.961C371.654 242.335 371.25 242.626 370.735 242.836C370.22 243.046 369.63 243.15 368.965 243.15Z" fill="#12141E"/>
<rect x="11" y="361" width="638" height="50" rx="3" fill="white"/>
<rect x="11" y="361" width="638" height="50" rx="3" stroke="#B6B9C9" stroke-width="2"/>
<path d="M225.561 391.15C224.335 391.15 223.355 390.87 222.621 390.31C221.892 389.744 221.514 388.922 221.486 387.842H223.517C223.553 388.357 223.758 388.744 224.132 389.004C224.51 389.259 224.979 389.387 225.54 389.387C226.096 389.387 226.543 389.268 226.88 389.031C227.222 388.79 227.393 388.475 227.393 388.088C227.393 387.737 227.238 387.468 226.928 387.281C226.622 387.094 226.192 386.933 225.636 386.796L224.515 386.516C223.653 386.306 222.979 385.978 222.491 385.531C222.004 385.08 221.76 384.485 221.76 383.747C221.76 383.132 221.924 382.594 222.252 382.134C222.585 381.674 223.038 381.316 223.612 381.061C224.191 380.805 224.85 380.678 225.588 380.678C226.34 380.678 226.996 380.808 227.557 381.067C228.117 381.323 228.555 381.68 228.869 382.141C229.184 382.596 229.345 383.123 229.354 383.72H227.338C227.301 383.31 227.126 382.993 226.812 382.77C226.502 382.546 226.087 382.435 225.567 382.435C225.034 382.435 224.622 382.546 224.33 382.77C224.043 382.988 223.899 383.269 223.899 383.61C223.899 383.989 224.061 384.271 224.385 384.458C224.713 384.645 225.093 384.791 225.526 384.896L226.449 385.121C227.019 385.253 227.534 385.445 227.994 385.695C228.454 385.941 228.819 386.263 229.088 386.659C229.357 387.051 229.491 387.532 229.491 388.102C229.491 389.027 229.145 389.767 228.452 390.323C227.764 390.875 226.8 391.15 225.561 391.15ZM234.748 383.357V384.923H233.319V388.765C233.319 389.239 233.552 389.476 234.017 389.476C234.094 389.476 234.201 389.466 234.338 389.448C234.479 389.425 234.589 389.405 234.666 389.387L234.96 390.925C234.732 390.993 234.504 391.041 234.276 391.068C234.053 391.096 233.839 391.109 233.634 391.109C232.868 391.109 232.283 390.925 231.877 390.556C231.471 390.182 231.269 389.644 231.269 388.942V384.923H230.216V383.357H231.269V381.539H233.319V383.357H234.748ZM239.362 391.15C238.597 391.15 237.934 390.986 237.373 390.658C236.812 390.326 236.38 389.865 236.074 389.277C235.773 388.685 235.623 387.997 235.623 387.213C235.623 386.424 235.773 385.734 236.074 385.142C236.38 384.549 236.812 384.089 237.373 383.761C237.934 383.428 238.597 383.262 239.362 383.262C240.128 383.262 240.791 383.428 241.352 383.761C241.912 384.089 242.343 384.549 242.644 385.142C242.949 385.734 243.102 386.424 243.102 387.213C243.102 387.997 242.949 388.685 242.644 389.277C242.343 389.865 241.912 390.326 241.352 390.658C240.791 390.986 240.128 391.15 239.362 391.15ZM239.362 389.537C239.909 389.537 240.322 389.316 240.6 388.874C240.878 388.432 241.017 387.876 241.017 387.206C241.017 386.532 240.878 385.976 240.6 385.538C240.322 385.096 239.909 384.875 239.362 384.875C238.815 384.875 238.403 385.096 238.125 385.538C237.852 385.976 237.715 386.532 237.715 387.206C237.715 387.876 237.852 388.432 238.125 388.874C238.403 389.316 238.815 389.537 239.362 389.537ZM244.53 391V383.357H246.513V384.69H246.595C246.736 384.221 246.971 383.866 247.299 383.624C247.632 383.378 248.012 383.255 248.44 383.255C248.673 383.255 248.894 383.278 249.104 383.323V385.155C249.012 385.128 248.878 385.105 248.7 385.087C248.527 385.064 248.365 385.053 248.215 385.053C247.741 385.053 247.349 385.201 247.039 385.497C246.734 385.793 246.581 386.178 246.581 386.652V391H244.53ZM252.173 391.15C251.444 391.15 250.838 390.959 250.354 390.576C249.871 390.189 249.63 389.617 249.63 388.86C249.63 388.291 249.767 387.844 250.04 387.521C250.313 387.197 250.669 386.96 251.106 386.81C251.544 386.659 252.013 386.561 252.515 386.516C253.171 386.452 253.643 386.386 253.93 386.317C254.221 386.244 254.367 386.083 254.367 385.832V385.798C254.367 385.474 254.262 385.224 254.053 385.046C253.848 384.868 253.554 384.779 253.171 384.779C252.774 384.779 252.455 384.866 252.214 385.039C251.972 385.208 251.811 385.415 251.729 385.661L249.849 385.347C250.045 384.686 250.434 384.173 251.018 383.809C251.605 383.444 252.326 383.262 253.178 383.262C253.725 383.262 254.244 383.348 254.736 383.521C255.233 383.695 255.636 383.973 255.946 384.355C256.261 384.734 256.418 385.233 256.418 385.853V391H254.477V389.94H254.408C254.221 390.296 253.943 390.588 253.574 390.815C253.205 391.039 252.738 391.15 252.173 391.15ZM252.754 389.708C253.232 389.708 253.622 389.569 253.923 389.291C254.228 389.013 254.381 388.671 254.381 388.266V387.438C254.299 387.498 254.164 387.55 253.978 387.596C253.795 387.637 253.602 387.675 253.396 387.712C253.191 387.744 253.014 387.769 252.863 387.787C252.485 387.842 252.18 387.949 251.947 388.108C251.715 388.268 251.599 388.5 251.599 388.806C251.599 389.102 251.706 389.327 251.92 389.482C252.139 389.633 252.417 389.708 252.754 389.708ZM261.572 394.021C260.615 394.021 259.845 393.846 259.262 393.495C258.678 393.144 258.302 392.695 258.134 392.148L259.897 391.656C259.993 391.87 260.169 392.069 260.424 392.251C260.684 392.438 261.062 392.531 261.559 392.531C262.078 392.531 262.488 392.41 262.789 392.169C263.09 391.932 263.24 391.561 263.24 391.055V389.646H263.083C262.942 389.956 262.707 390.241 262.379 390.501C262.055 390.761 261.584 390.891 260.964 390.891C260.39 390.891 259.868 390.756 259.398 390.487C258.929 390.218 258.553 389.808 258.271 389.257C257.993 388.705 257.854 388.008 257.854 387.165C257.854 386.304 257.995 385.584 258.277 385.005C258.564 384.426 258.943 383.991 259.412 383.699C259.886 383.408 260.406 383.262 260.971 383.262C261.399 383.262 261.759 383.335 262.051 383.48C262.342 383.626 262.577 383.806 262.755 384.021C262.937 384.235 263.074 384.442 263.165 384.643H263.254V383.357H265.271V390.938C265.271 391.627 265.111 392.199 264.792 392.654C264.478 393.115 264.04 393.456 263.479 393.68C262.924 393.908 262.288 394.021 261.572 394.021ZM261.606 389.332C262.131 389.332 262.534 389.141 262.816 388.758C263.104 388.37 263.247 387.835 263.247 387.151C263.247 386.472 263.106 385.928 262.823 385.518C262.541 385.107 262.135 384.902 261.606 384.902C261.069 384.902 260.659 385.114 260.376 385.538C260.098 385.957 259.959 386.495 259.959 387.151C259.959 387.821 260.1 388.352 260.383 388.744C260.665 389.136 261.073 389.332 261.606 389.332ZM270.473 391.15C269.693 391.15 269.021 390.991 268.456 390.672C267.891 390.353 267.456 389.899 267.15 389.312C266.85 388.724 266.699 388.026 266.699 387.22C266.699 386.431 266.85 385.741 267.15 385.148C267.456 384.556 267.882 384.093 268.429 383.761C268.98 383.428 269.627 383.262 270.37 383.262C271.035 383.262 271.639 383.403 272.182 383.686C272.724 383.968 273.155 384.396 273.474 384.971C273.797 385.545 273.959 386.267 273.959 387.138V387.712H268.729C268.752 388.336 268.925 388.808 269.249 389.127C269.573 389.446 269.992 389.605 270.507 389.605C270.867 389.605 271.174 389.53 271.43 389.38C271.689 389.225 271.874 388.999 271.983 388.703L273.843 389.052C273.656 389.685 273.269 390.193 272.681 390.576C272.097 390.959 271.361 391.15 270.473 391.15ZM268.743 386.427H271.983C271.933 385.93 271.774 385.536 271.505 385.244C271.236 384.952 270.865 384.807 270.391 384.807C269.898 384.807 269.511 384.959 269.229 385.265C268.946 385.565 268.784 385.953 268.743 386.427ZM278.963 386.208C278.963 385.456 279.038 384.672 279.188 383.856C279.339 383.036 279.546 382.252 279.811 381.505C280.079 380.753 280.385 380.101 280.727 379.55H282.634C282.301 380.256 282.016 380.992 281.779 381.758C281.547 382.523 281.367 383.287 281.239 384.048C281.116 384.804 281.055 385.524 281.055 386.208C281.055 386.805 281.107 387.407 281.212 388.013C281.321 388.614 281.492 389.261 281.725 389.954C281.957 390.642 282.26 391.412 282.634 392.265H280.727C280.148 391.308 279.708 390.316 279.407 389.291C279.111 388.261 278.963 387.233 278.963 386.208ZM284.008 391V380.814H287.207L288.861 385.49C288.93 385.704 289.007 385.985 289.094 386.331C289.18 386.677 289.269 387.051 289.36 387.452C289.456 387.849 289.543 388.231 289.62 388.601C289.698 388.236 289.782 387.855 289.873 387.459C289.964 387.058 290.053 386.684 290.14 386.338C290.226 385.992 290.304 385.709 290.372 385.49L291.999 380.814H295.212V391H293.113V386.194C293.113 385.939 293.118 385.613 293.127 385.217C293.141 384.82 293.152 384.394 293.161 383.938C293.175 383.483 293.184 383.041 293.188 382.612C293.075 383.068 292.954 383.526 292.826 383.986C292.703 384.447 292.585 384.87 292.471 385.258C292.357 385.641 292.259 385.953 292.177 386.194L290.488 391H288.731L287.016 386.194C286.938 385.962 286.842 385.659 286.729 385.285C286.619 384.911 286.501 384.501 286.373 384.055C286.245 383.604 286.122 383.15 286.004 382.694C286.013 383.104 286.022 383.533 286.031 383.979C286.045 384.422 286.056 384.839 286.065 385.23C286.075 385.618 286.079 385.939 286.079 386.194V391H284.008ZM297.099 393.707L297.57 392.162L297.823 392.224C298.238 392.338 298.577 392.328 298.842 392.196C299.106 392.069 299.261 391.813 299.307 391.431L299.361 391.021L296.49 383.357H298.671L299.956 387.322C300.061 387.655 300.15 387.988 300.223 388.32C300.296 388.648 300.368 388.981 300.441 389.318C300.523 388.977 300.608 388.642 300.694 388.313C300.785 387.981 300.886 387.65 300.995 387.322L302.335 383.357H304.488L301.241 391.902C301.009 392.518 300.674 393.005 300.236 393.365C299.803 393.73 299.204 393.912 298.438 393.912C298.165 393.912 297.91 393.892 297.673 393.851C297.436 393.814 297.244 393.766 297.099 393.707ZM309.369 391.15C308.143 391.15 307.163 390.87 306.43 390.31C305.701 389.744 305.322 388.922 305.295 387.842H307.325C307.362 388.357 307.567 388.744 307.94 389.004C308.319 389.259 308.788 389.387 309.349 389.387C309.905 389.387 310.351 389.268 310.688 389.031C311.03 388.79 311.201 388.475 311.201 388.088C311.201 387.737 311.046 387.468 310.736 387.281C310.431 387.094 310 386.933 309.444 386.796L308.323 386.516C307.462 386.306 306.787 385.978 306.3 385.531C305.812 385.08 305.568 384.485 305.568 383.747C305.568 383.132 305.732 382.594 306.061 382.134C306.393 381.674 306.847 381.316 307.421 381.061C308 380.805 308.658 380.678 309.396 380.678C310.148 380.678 310.805 380.808 311.365 381.067C311.926 381.323 312.363 381.68 312.678 382.141C312.992 382.596 313.154 383.123 313.163 383.72H311.146C311.11 383.31 310.935 382.993 310.62 382.77C310.31 382.546 309.896 382.435 309.376 382.435C308.843 382.435 308.43 382.546 308.139 382.77C307.852 382.988 307.708 383.269 307.708 383.61C307.708 383.989 307.87 384.271 308.193 384.458C308.521 384.645 308.902 384.791 309.335 384.896L310.258 385.121C310.827 385.253 311.342 385.445 311.803 385.695C312.263 385.941 312.628 386.263 312.896 386.659C313.165 387.051 313.3 387.532 313.3 388.102C313.3 389.027 312.953 389.767 312.261 390.323C311.573 390.875 310.609 391.15 309.369 391.15ZM319.281 391.137C318.383 391.137 317.575 390.932 316.854 390.521C316.139 390.111 315.572 389.517 315.152 388.737C314.738 387.958 314.53 387.017 314.53 385.914C314.53 384.807 314.738 383.863 315.152 383.084C315.572 382.3 316.139 381.703 316.854 381.293C317.575 380.883 318.383 380.678 319.281 380.678C320.184 380.678 320.993 380.883 321.708 381.293C322.424 381.703 322.989 382.3 323.403 383.084C323.823 383.863 324.032 384.807 324.032 385.914C324.032 386.816 323.889 387.612 323.602 388.3C323.319 388.983 322.932 389.549 322.439 389.995L323.909 391.848H321.961L321.12 390.802C320.555 391.025 319.942 391.137 319.281 391.137ZM318.639 387.5H320.423L321.161 388.45C321.403 388.168 321.587 387.814 321.715 387.391C321.847 386.962 321.913 386.47 321.913 385.914C321.913 384.816 321.672 383.977 321.188 383.398C320.71 382.82 320.074 382.53 319.281 382.53C318.493 382.53 317.857 382.822 317.374 383.405C316.891 383.984 316.649 384.82 316.649 385.914C316.649 387.003 316.891 387.837 317.374 388.416C317.857 388.995 318.493 389.284 319.281 389.284C319.514 389.284 319.732 389.259 319.938 389.209L318.639 387.5ZM325.693 391V380.814H327.778V389.271H332.174V391H325.693ZM333.5 393.7L334.102 389.462H336.152L334.895 393.7H333.5ZM341.17 391V380.814H347.985V382.544H343.255V385.005H347.63V386.707H343.255V389.271H347.999V391H341.17ZM351.677 380.814V391H349.626V380.814H351.677ZM355.56 391.15C354.83 391.15 354.224 390.959 353.741 390.576C353.258 390.189 353.017 389.617 353.017 388.86C353.017 388.291 353.153 387.844 353.427 387.521C353.7 387.197 354.056 386.96 354.493 386.81C354.931 386.659 355.4 386.561 355.901 386.516C356.558 386.452 357.029 386.386 357.316 386.317C357.608 386.244 357.754 386.083 357.754 385.832V385.798C357.754 385.474 357.649 385.224 357.439 385.046C357.234 384.868 356.94 384.779 356.558 384.779C356.161 384.779 355.842 384.866 355.601 385.039C355.359 385.208 355.197 385.415 355.115 385.661L353.235 385.347C353.431 384.686 353.821 384.173 354.404 383.809C354.992 383.444 355.712 383.262 356.564 383.262C357.111 383.262 357.631 383.348 358.123 383.521C358.62 383.695 359.023 383.973 359.333 384.355C359.647 384.734 359.805 385.233 359.805 385.853V391H357.863V389.94H357.795C357.608 390.296 357.33 390.588 356.961 390.815C356.592 391.039 356.125 391.15 355.56 391.15ZM356.141 389.708C356.619 389.708 357.009 389.569 357.31 389.291C357.615 389.013 357.768 388.671 357.768 388.266V387.438C357.686 387.498 357.551 387.55 357.364 387.596C357.182 387.637 356.988 387.675 356.783 387.712C356.578 387.744 356.4 387.769 356.25 387.787C355.872 387.842 355.566 387.949 355.334 388.108C355.102 388.268 354.985 388.5 354.985 388.806C354.985 389.102 355.092 389.327 355.307 389.482C355.525 389.633 355.803 389.708 356.141 389.708ZM364.597 391.15C363.676 391.15 362.915 390.954 362.313 390.562C361.716 390.171 361.352 389.619 361.22 388.908L363.127 388.58C363.323 389.291 363.833 389.646 364.658 389.646C365.05 389.646 365.358 389.574 365.581 389.428C365.809 389.277 365.923 389.088 365.923 388.86C365.923 388.473 365.595 388.211 364.938 388.074L363.619 387.801C362.152 387.5 361.418 386.778 361.418 385.634C361.418 384.9 361.712 384.321 362.3 383.897C362.888 383.474 363.665 383.262 364.631 383.262C365.538 383.262 366.26 383.446 366.798 383.815C367.336 384.185 367.675 384.679 367.816 385.299L365.998 385.62C365.916 385.36 365.766 385.148 365.547 384.984C365.328 384.816 365.032 384.731 364.658 384.731C364.321 384.731 364.038 384.804 363.811 384.95C363.583 385.091 363.469 385.276 363.469 385.504C363.469 385.695 363.542 385.859 363.688 385.996C363.838 386.128 364.093 386.231 364.453 386.304L365.827 386.577C367.285 386.873 368.015 387.562 368.015 388.642C368.015 389.143 367.869 389.583 367.577 389.961C367.285 390.335 366.882 390.626 366.367 390.836C365.852 391.046 365.262 391.15 364.597 391.15ZM373.203 383.357V384.923H371.774V388.765C371.774 389.239 372.007 389.476 372.472 389.476C372.549 389.476 372.656 389.466 372.793 389.448C372.934 389.425 373.044 389.405 373.121 389.387L373.415 390.925C373.187 390.993 372.959 391.041 372.731 391.068C372.508 391.096 372.294 391.109 372.089 391.109C371.323 391.109 370.738 390.925 370.332 390.556C369.926 390.182 369.724 389.644 369.724 388.942V384.923H368.671V383.357H369.724V381.539H371.774V383.357H373.203ZM374.536 391V383.357H376.587V391H374.536ZM375.562 382.359C375.252 382.359 374.987 382.257 374.769 382.052C374.55 381.847 374.44 381.598 374.44 381.307C374.44 381.015 374.55 380.767 374.769 380.562C374.987 380.356 375.252 380.254 375.562 380.254C375.871 380.254 376.136 380.356 376.354 380.562C376.578 380.767 376.689 381.015 376.689 381.307C376.689 381.598 376.578 381.847 376.354 382.052C376.136 382.257 375.871 382.359 375.562 382.359ZM381.755 391.15C380.985 391.15 380.319 390.986 379.759 390.658C379.203 390.326 378.772 389.865 378.467 389.277C378.166 388.685 378.016 387.997 378.016 387.213C378.016 386.424 378.166 385.734 378.467 385.142C378.772 384.549 379.203 384.089 379.759 383.761C380.319 383.428 380.985 383.262 381.755 383.262C382.662 383.262 383.418 383.49 384.024 383.945C384.631 384.396 385.007 385.016 385.152 385.805L383.245 386.16C383.159 385.764 382.99 385.451 382.739 385.224C382.493 384.991 382.172 384.875 381.775 384.875C381.229 384.875 380.814 385.091 380.531 385.524C380.249 385.953 380.107 386.513 380.107 387.206C380.107 387.89 380.249 388.45 380.531 388.888C380.814 389.321 381.229 389.537 381.775 389.537C382.172 389.537 382.498 389.419 382.753 389.182C383.008 388.94 383.177 388.614 383.259 388.204L385.166 388.553C385.02 389.359 384.644 389.995 384.038 390.46C383.432 390.92 382.671 391.15 381.755 391.15ZM390.361 391.15C389.135 391.15 388.156 390.87 387.422 390.31C386.693 389.744 386.314 388.922 386.287 387.842H388.317C388.354 388.357 388.559 388.744 388.933 389.004C389.311 389.259 389.78 389.387 390.341 389.387C390.897 389.387 391.343 389.268 391.681 389.031C392.022 388.79 392.193 388.475 392.193 388.088C392.193 387.737 392.038 387.468 391.729 387.281C391.423 387.094 390.993 386.933 390.437 386.796L389.315 386.516C388.454 386.306 387.78 385.978 387.292 385.531C386.804 385.08 386.561 384.485 386.561 383.747C386.561 383.132 386.725 382.594 387.053 382.134C387.385 381.674 387.839 381.316 388.413 381.061C388.992 380.805 389.65 380.678 390.389 380.678C391.141 380.678 391.797 380.808 392.357 381.067C392.918 381.323 393.355 381.68 393.67 382.141C393.984 382.596 394.146 383.123 394.155 383.72H392.139C392.102 383.31 391.927 382.993 391.612 382.77C391.302 382.546 390.888 382.435 390.368 382.435C389.835 382.435 389.423 382.546 389.131 382.77C388.844 382.988 388.7 383.269 388.7 383.61C388.7 383.989 388.862 384.271 389.186 384.458C389.514 384.645 389.894 384.791 390.327 384.896L391.25 385.121C391.82 385.253 392.335 385.445 392.795 385.695C393.255 385.941 393.62 386.263 393.889 386.659C394.158 387.051 394.292 387.532 394.292 388.102C394.292 389.027 393.946 389.767 393.253 390.323C392.565 390.875 391.601 391.15 390.361 391.15ZM399.207 391.15C398.428 391.15 397.756 390.991 397.19 390.672C396.625 390.353 396.19 389.899 395.885 389.312C395.584 388.724 395.434 388.026 395.434 387.22C395.434 386.431 395.584 385.741 395.885 385.148C396.19 384.556 396.616 384.093 397.163 383.761C397.715 383.428 398.362 383.262 399.104 383.262C399.77 383.262 400.374 383.403 400.916 383.686C401.458 383.968 401.889 384.396 402.208 384.971C402.532 385.545 402.693 386.267 402.693 387.138V387.712H397.464C397.487 388.336 397.66 388.808 397.983 389.127C398.307 389.446 398.726 389.605 399.241 389.605C399.601 389.605 399.909 389.53 400.164 389.38C400.424 389.225 400.608 388.999 400.718 388.703L402.577 389.052C402.39 389.685 402.003 390.193 401.415 390.576C400.832 390.959 400.096 391.15 399.207 391.15ZM397.478 386.427H400.718C400.668 385.93 400.508 385.536 400.239 385.244C399.97 384.952 399.599 384.807 399.125 384.807C398.633 384.807 398.245 384.959 397.963 385.265C397.68 385.565 397.519 385.953 397.478 386.427ZM406.364 391.15C405.635 391.15 405.029 390.959 404.546 390.576C404.063 390.189 403.821 389.617 403.821 388.86C403.821 388.291 403.958 387.844 404.231 387.521C404.505 387.197 404.86 386.96 405.298 386.81C405.735 386.659 406.205 386.561 406.706 386.516C407.362 386.452 407.834 386.386 408.121 386.317C408.413 386.244 408.559 386.083 408.559 385.832V385.798C408.559 385.474 408.454 385.224 408.244 385.046C408.039 384.868 407.745 384.779 407.362 384.779C406.966 384.779 406.647 384.866 406.405 385.039C406.164 385.208 406.002 385.415 405.92 385.661L404.04 385.347C404.236 384.686 404.626 384.173 405.209 383.809C405.797 383.444 406.517 383.262 407.369 383.262C407.916 383.262 408.436 383.348 408.928 383.521C409.424 383.695 409.828 383.973 410.138 384.355C410.452 384.734 410.609 385.233 410.609 385.853V391H408.668V389.94H408.6C408.413 390.296 408.135 390.588 407.766 390.815C407.396 391.039 406.929 391.15 406.364 391.15ZM406.945 389.708C407.424 389.708 407.813 389.569 408.114 389.291C408.42 389.013 408.572 388.671 408.572 388.266V387.438C408.49 387.498 408.356 387.55 408.169 387.596C407.987 387.637 407.793 387.675 407.588 387.712C407.383 387.744 407.205 387.769 407.055 387.787C406.676 387.842 406.371 387.949 406.139 388.108C405.906 388.268 405.79 388.5 405.79 388.806C405.79 389.102 405.897 389.327 406.111 389.482C406.33 389.633 406.608 389.708 406.945 389.708ZM412.366 391V383.357H414.349V384.69H414.431C414.572 384.221 414.807 383.866 415.135 383.624C415.467 383.378 415.848 383.255 416.276 383.255C416.509 383.255 416.73 383.278 416.939 383.323V385.155C416.848 385.128 416.714 385.105 416.536 385.087C416.363 385.064 416.201 385.053 416.051 385.053C415.577 385.053 415.185 385.201 414.875 385.497C414.57 385.793 414.417 386.178 414.417 386.652V391H412.366ZM421.144 391.15C420.373 391.15 419.708 390.986 419.147 390.658C418.591 390.326 418.161 389.865 417.855 389.277C417.555 388.685 417.404 387.997 417.404 387.213C417.404 386.424 417.555 385.734 417.855 385.142C418.161 384.549 418.591 384.089 419.147 383.761C419.708 383.428 420.373 383.262 421.144 383.262C422.05 383.262 422.807 383.49 423.413 383.945C424.019 384.396 424.395 385.016 424.541 385.805L422.634 386.16C422.547 385.764 422.379 385.451 422.128 385.224C421.882 384.991 421.561 384.875 421.164 384.875C420.617 384.875 420.202 385.091 419.92 385.524C419.637 385.953 419.496 386.513 419.496 387.206C419.496 387.89 419.637 388.45 419.92 388.888C420.202 389.321 420.617 389.537 421.164 389.537C421.561 389.537 421.886 389.419 422.142 389.182C422.397 388.94 422.565 388.614 422.647 388.204L424.555 388.553C424.409 389.359 424.033 389.995 423.427 390.46C422.821 390.92 422.06 391.15 421.144 391.15ZM428.021 386.577V391H425.97V380.814H427.979V384.82C428.203 384.324 428.506 383.941 428.889 383.672C429.271 383.398 429.745 383.262 430.311 383.262C431.104 383.262 431.739 383.517 432.218 384.027C432.701 384.538 432.942 385.242 432.942 386.14V391H430.885V386.495C430.885 386.021 430.762 385.65 430.516 385.381C430.274 385.112 429.937 384.978 429.504 384.978C429.066 384.978 428.709 385.119 428.431 385.401C428.157 385.679 428.021 386.071 428.021 386.577ZM434.275 392.907C434.654 392.041 434.957 391.264 435.185 390.576C435.417 389.883 435.586 389.236 435.69 388.635C435.795 388.033 435.848 387.438 435.848 386.851C435.848 386.167 435.784 385.447 435.656 384.69C435.533 383.929 435.353 383.166 435.116 382.4C434.884 381.635 434.604 380.899 434.275 380.192H436.176C436.522 380.744 436.827 381.396 437.092 382.147C437.356 382.895 437.563 383.679 437.714 384.499C437.864 385.315 437.939 386.099 437.939 386.851C437.939 387.881 437.789 388.91 437.488 389.94C437.188 390.966 436.75 391.955 436.176 392.907H434.275Z" fill="#12141E"/>
<rect x="11" y="287" width="638" height="50" rx="3" fill="white"/>
<rect x="11" y="287" width="638" height="50" rx="3" stroke="#B6B9C9" stroke-width="2"/>
<path d="M256.186 317H252.604V306.814H256.22C257.241 306.814 258.118 307.02 258.852 307.43C259.59 307.835 260.157 308.419 260.554 309.18C260.95 309.936 261.148 310.843 261.148 311.9C261.148 312.962 260.95 313.874 260.554 314.635C260.157 315.396 259.588 315.981 258.845 316.392C258.102 316.797 257.215 317 256.186 317ZM254.688 315.202H256.083C257.063 315.202 257.806 314.938 258.312 314.409C258.817 313.881 259.07 313.044 259.07 311.9C259.07 310.761 258.817 309.929 258.312 309.405C257.81 308.877 257.072 308.612 256.097 308.612H254.688V315.202ZM264.806 317.15C264.076 317.15 263.47 316.959 262.987 316.576C262.504 316.189 262.263 315.617 262.263 314.86C262.263 314.291 262.399 313.844 262.673 313.521C262.946 313.197 263.302 312.96 263.739 312.81C264.177 312.659 264.646 312.561 265.147 312.516C265.804 312.452 266.275 312.386 266.562 312.317C266.854 312.244 267 312.083 267 311.832V311.798C267 311.474 266.895 311.224 266.686 311.046C266.48 310.868 266.187 310.779 265.804 310.779C265.407 310.779 265.088 310.866 264.847 311.039C264.605 311.208 264.443 311.415 264.361 311.661L262.481 311.347C262.677 310.686 263.067 310.173 263.65 309.809C264.238 309.444 264.958 309.262 265.811 309.262C266.357 309.262 266.877 309.348 267.369 309.521C267.866 309.695 268.269 309.973 268.579 310.355C268.894 310.734 269.051 311.233 269.051 311.853V317H267.109V315.94H267.041C266.854 316.296 266.576 316.588 266.207 316.815C265.838 317.039 265.371 317.15 264.806 317.15ZM265.387 315.708C265.865 315.708 266.255 315.569 266.556 315.291C266.861 315.013 267.014 314.671 267.014 314.266V313.438C266.932 313.498 266.797 313.55 266.61 313.596C266.428 313.637 266.234 313.675 266.029 313.712C265.824 313.744 265.646 313.769 265.496 313.787C265.118 313.842 264.812 313.949 264.58 314.108C264.348 314.268 264.231 314.5 264.231 314.806C264.231 315.102 264.339 315.327 264.553 315.482C264.771 315.633 265.049 315.708 265.387 315.708ZM274.602 309.357V310.923H273.173V314.765C273.173 315.239 273.405 315.476 273.87 315.476C273.948 315.476 274.055 315.466 274.191 315.448C274.333 315.425 274.442 315.405 274.52 315.387L274.813 316.925C274.586 316.993 274.358 317.041 274.13 317.068C273.907 317.096 273.692 317.109 273.487 317.109C272.722 317.109 272.136 316.925 271.73 316.556C271.325 316.182 271.122 315.644 271.122 314.942V310.923H270.069V309.357H271.122V307.539H273.173V309.357H274.602ZM278.136 317.15C277.407 317.15 276.8 316.959 276.317 316.576C275.834 316.189 275.593 315.617 275.593 314.86C275.593 314.291 275.729 313.844 276.003 313.521C276.276 313.197 276.632 312.96 277.069 312.81C277.507 312.659 277.976 312.561 278.478 312.516C279.134 312.452 279.605 312.386 279.893 312.317C280.184 312.244 280.33 312.083 280.33 311.832V311.798C280.33 311.474 280.225 311.224 280.016 311.046C279.811 310.868 279.517 310.779 279.134 310.779C278.737 310.779 278.418 310.866 278.177 311.039C277.935 311.208 277.773 311.415 277.691 311.661L275.812 311.347C276.007 310.686 276.397 310.173 276.98 309.809C277.568 309.444 278.288 309.262 279.141 309.262C279.688 309.262 280.207 309.348 280.699 309.521C281.196 309.695 281.599 309.973 281.909 310.355C282.224 310.734 282.381 311.233 282.381 311.853V317H280.439V315.94H280.371C280.184 316.296 279.906 316.588 279.537 316.815C279.168 317.039 278.701 317.15 278.136 317.15ZM278.717 315.708C279.195 315.708 279.585 315.569 279.886 315.291C280.191 315.013 280.344 314.671 280.344 314.266V313.438C280.262 313.498 280.127 313.55 279.94 313.596C279.758 313.637 279.564 313.675 279.359 313.712C279.154 313.744 278.977 313.769 278.826 313.787C278.448 313.842 278.143 313.949 277.91 314.108C277.678 314.268 277.562 314.5 277.562 314.806C277.562 315.102 277.669 315.327 277.883 315.482C278.102 315.633 278.38 315.708 278.717 315.708ZM286.92 317L290.399 306.814H293.134L296.702 317H294.385L293.599 314.635H289.982L289.224 317H286.92ZM290.502 313.001H293.059L292.751 312.085C292.587 311.565 292.423 311.003 292.259 310.396C292.095 309.79 291.924 309.141 291.746 308.448C291.577 309.15 291.416 309.804 291.261 310.41C291.106 311.016 290.951 311.575 290.796 312.085L290.502 313.001ZM302.198 317.13C301.784 317.13 301.433 317.059 301.146 316.918C300.858 316.777 300.624 316.604 300.441 316.398C300.264 316.189 300.127 315.981 300.031 315.776H299.936V317H297.919V306.814H299.97V310.643H300.031C300.122 310.442 300.255 310.235 300.428 310.021C300.605 309.806 300.838 309.626 301.125 309.48C301.417 309.335 301.779 309.262 302.212 309.262C302.777 309.262 303.294 309.408 303.764 309.699C304.233 309.991 304.607 310.428 304.885 311.012C305.167 311.595 305.309 312.322 305.309 313.192C305.309 314.04 305.172 314.758 304.898 315.346C304.625 315.929 304.254 316.373 303.784 316.679C303.315 316.979 302.786 317.13 302.198 317.13ZM301.569 315.482C302.103 315.482 302.508 315.268 302.786 314.84C303.069 314.411 303.21 313.86 303.21 313.186C303.21 312.516 303.071 311.969 302.793 311.545C302.515 311.117 302.107 310.902 301.569 310.902C301.041 310.902 300.633 311.11 300.346 311.524C300.063 311.939 299.922 312.493 299.922 313.186C299.922 313.878 300.065 314.434 300.353 314.854C300.64 315.273 301.045 315.482 301.569 315.482ZM309.786 317.15C308.866 317.15 308.104 316.954 307.503 316.562C306.906 316.171 306.541 315.619 306.409 314.908L308.316 314.58C308.512 315.291 309.023 315.646 309.848 315.646C310.24 315.646 310.547 315.574 310.771 315.428C310.998 315.277 311.112 315.088 311.112 314.86C311.112 314.473 310.784 314.211 310.128 314.074L308.809 313.801C307.341 313.5 306.607 312.778 306.607 311.634C306.607 310.9 306.901 310.321 307.489 309.897C308.077 309.474 308.854 309.262 309.82 309.262C310.727 309.262 311.45 309.446 311.987 309.815C312.525 310.185 312.865 310.679 313.006 311.299L311.188 311.62C311.105 311.36 310.955 311.148 310.736 310.984C310.518 310.816 310.221 310.731 309.848 310.731C309.51 310.731 309.228 310.804 309 310.95C308.772 311.091 308.658 311.276 308.658 311.504C308.658 311.695 308.731 311.859 308.877 311.996C309.027 312.128 309.283 312.231 309.643 312.304L311.017 312.577C312.475 312.873 313.204 313.562 313.204 314.642C313.204 315.143 313.058 315.583 312.767 315.961C312.475 316.335 312.072 316.626 311.557 316.836C311.042 317.046 310.451 317.15 309.786 317.15ZM318.393 309.357V310.923H316.964V314.765C316.964 315.239 317.196 315.476 317.661 315.476C317.739 315.476 317.846 315.466 317.982 315.448C318.124 315.425 318.233 315.405 318.311 315.387L318.604 316.925C318.377 316.993 318.149 317.041 317.921 317.068C317.698 317.096 317.483 317.109 317.278 317.109C316.513 317.109 315.927 316.925 315.521 316.556C315.116 316.182 314.913 315.644 314.913 314.942V310.923H313.86V309.357H314.913V307.539H316.964V309.357H318.393ZM319.726 317V309.357H321.708V310.69H321.79C321.931 310.221 322.166 309.866 322.494 309.624C322.827 309.378 323.207 309.255 323.636 309.255C323.868 309.255 324.089 309.278 324.299 309.323V311.155C324.208 311.128 324.073 311.105 323.896 311.087C323.722 311.064 323.561 311.053 323.41 311.053C322.936 311.053 322.544 311.201 322.234 311.497C321.929 311.793 321.776 312.178 321.776 312.652V317H319.726ZM327.368 317.15C326.639 317.15 326.033 316.959 325.55 316.576C325.067 316.189 324.825 315.617 324.825 314.86C324.825 314.291 324.962 313.844 325.235 313.521C325.509 313.197 325.864 312.96 326.302 312.81C326.739 312.659 327.209 312.561 327.71 312.516C328.366 312.452 328.838 312.386 329.125 312.317C329.417 312.244 329.562 312.083 329.562 311.832V311.798C329.562 311.474 329.458 311.224 329.248 311.046C329.043 310.868 328.749 310.779 328.366 310.779C327.97 310.779 327.651 310.866 327.409 311.039C327.168 311.208 327.006 311.415 326.924 311.661L325.044 311.347C325.24 310.686 325.63 310.173 326.213 309.809C326.801 309.444 327.521 309.262 328.373 309.262C328.92 309.262 329.439 309.348 329.932 309.521C330.428 309.695 330.832 309.973 331.142 310.355C331.456 310.734 331.613 311.233 331.613 311.853V317H329.672V315.94H329.604C329.417 316.296 329.139 316.588 328.77 316.815C328.4 317.039 327.933 317.15 327.368 317.15ZM327.949 315.708C328.428 315.708 328.817 315.569 329.118 315.291C329.424 315.013 329.576 314.671 329.576 314.266V313.438C329.494 313.498 329.36 313.55 329.173 313.596C328.991 313.637 328.797 313.675 328.592 313.712C328.387 313.744 328.209 313.769 328.059 313.787C327.68 313.842 327.375 313.949 327.143 314.108C326.91 314.268 326.794 314.5 326.794 314.806C326.794 315.102 326.901 315.327 327.115 315.482C327.334 315.633 327.612 315.708 327.949 315.708ZM336.788 317.15C336.018 317.15 335.353 316.986 334.792 316.658C334.236 316.326 333.805 315.865 333.5 315.277C333.199 314.685 333.049 313.997 333.049 313.213C333.049 312.424 333.199 311.734 333.5 311.142C333.805 310.549 334.236 310.089 334.792 309.761C335.353 309.428 336.018 309.262 336.788 309.262C337.695 309.262 338.451 309.49 339.058 309.945C339.664 310.396 340.04 311.016 340.186 311.805L338.278 312.16C338.192 311.764 338.023 311.451 337.772 311.224C337.526 310.991 337.205 310.875 336.809 310.875C336.262 310.875 335.847 311.091 335.564 311.524C335.282 311.953 335.141 312.513 335.141 313.206C335.141 313.89 335.282 314.45 335.564 314.888C335.847 315.321 336.262 315.537 336.809 315.537C337.205 315.537 337.531 315.419 337.786 315.182C338.041 314.94 338.21 314.614 338.292 314.204L340.199 314.553C340.053 315.359 339.677 315.995 339.071 316.46C338.465 316.92 337.704 317.15 336.788 317.15ZM345.408 309.357V310.923H343.979V314.765C343.979 315.239 344.212 315.476 344.677 315.476C344.754 315.476 344.861 315.466 344.998 315.448C345.139 315.425 345.249 315.405 345.326 315.387L345.62 316.925C345.392 316.993 345.164 317.041 344.937 317.068C344.713 317.096 344.499 317.109 344.294 317.109C343.528 317.109 342.943 316.925 342.537 316.556C342.132 316.182 341.929 315.644 341.929 314.942V310.923H340.876V309.357H341.929V307.539H343.979V309.357H345.408ZM346.741 317V309.357H348.792V317H346.741ZM347.767 308.359C347.457 308.359 347.192 308.257 346.974 308.052C346.755 307.847 346.646 307.598 346.646 307.307C346.646 307.015 346.755 306.767 346.974 306.562C347.192 306.356 347.457 306.254 347.767 306.254C348.076 306.254 348.341 306.356 348.56 306.562C348.783 306.767 348.895 307.015 348.895 307.307C348.895 307.598 348.783 307.847 348.56 308.052C348.341 308.257 348.076 308.359 347.767 308.359ZM353.96 317.15C353.194 317.15 352.531 316.986 351.971 316.658C351.41 316.326 350.977 315.865 350.672 315.277C350.371 314.685 350.221 313.997 350.221 313.213C350.221 312.424 350.371 311.734 350.672 311.142C350.977 310.549 351.41 310.089 351.971 309.761C352.531 309.428 353.194 309.262 353.96 309.262C354.726 309.262 355.389 309.428 355.949 309.761C356.51 310.089 356.94 310.549 357.241 311.142C357.547 311.734 357.699 312.424 357.699 313.213C357.699 313.997 357.547 314.685 357.241 315.277C356.94 315.865 356.51 316.326 355.949 316.658C355.389 316.986 354.726 317.15 353.96 317.15ZM353.96 315.537C354.507 315.537 354.919 315.316 355.197 314.874C355.475 314.432 355.614 313.876 355.614 313.206C355.614 312.532 355.475 311.976 355.197 311.538C354.919 311.096 354.507 310.875 353.96 310.875C353.413 310.875 353.001 311.096 352.723 311.538C352.449 311.976 352.312 312.532 352.312 313.206C352.312 313.876 352.449 314.432 352.723 314.874C353.001 315.316 353.413 315.537 353.96 315.537ZM361.179 312.577V317H359.128V309.357H361.062L361.09 310.937C361.304 310.403 361.607 309.991 361.999 309.699C362.391 309.408 362.881 309.262 363.469 309.262C364.262 309.262 364.897 309.517 365.376 310.027C365.854 310.538 366.094 311.242 366.094 312.14V317H364.043V312.495C364.043 312.021 363.92 311.65 363.674 311.381C363.432 311.112 363.095 310.978 362.662 310.978C362.225 310.978 361.867 311.119 361.589 311.401C361.315 311.679 361.179 312.071 361.179 312.577ZM371.221 317V306.814H373.306V315.271H377.701V317H371.221ZM381.222 317.15C380.493 317.15 379.886 316.959 379.403 316.576C378.92 316.189 378.679 315.617 378.679 314.86C378.679 314.291 378.815 313.844 379.089 313.521C379.362 313.197 379.718 312.96 380.155 312.81C380.593 312.659 381.062 312.561 381.563 312.516C382.22 312.452 382.691 312.386 382.979 312.317C383.27 312.244 383.416 312.083 383.416 311.832V311.798C383.416 311.474 383.311 311.224 383.102 311.046C382.896 310.868 382.603 310.779 382.22 310.779C381.823 310.779 381.504 310.866 381.263 311.039C381.021 311.208 380.859 311.415 380.777 311.661L378.897 311.347C379.093 310.686 379.483 310.173 380.066 309.809C380.654 309.444 381.374 309.262 382.227 309.262C382.773 309.262 383.293 309.348 383.785 309.521C384.282 309.695 384.685 309.973 384.995 310.355C385.31 310.734 385.467 311.233 385.467 311.853V317H383.525V315.94H383.457C383.27 316.296 382.992 316.588 382.623 316.815C382.254 317.039 381.787 317.15 381.222 317.15ZM381.803 315.708C382.281 315.708 382.671 315.569 382.972 315.291C383.277 315.013 383.43 314.671 383.43 314.266V313.438C383.348 313.498 383.213 313.55 383.026 313.596C382.844 313.637 382.65 313.675 382.445 313.712C382.24 313.744 382.062 313.769 381.912 313.787C381.534 313.842 381.229 313.949 380.996 314.108C380.764 314.268 380.647 314.5 380.647 314.806C380.647 315.102 380.755 315.327 380.969 315.482C381.188 315.633 381.465 315.708 381.803 315.708ZM386.923 319.707L387.395 318.162L387.647 318.224C388.062 318.338 388.402 318.328 388.666 318.196C388.93 318.069 389.085 317.813 389.131 317.431L389.186 317.021L386.314 309.357H388.495L389.78 313.322C389.885 313.655 389.974 313.988 390.047 314.32C390.12 314.648 390.193 314.981 390.266 315.318C390.348 314.977 390.432 314.642 390.519 314.313C390.61 313.981 390.71 313.65 390.819 313.322L392.159 309.357H394.312L391.065 317.902C390.833 318.518 390.498 319.005 390.061 319.365C389.628 319.73 389.028 319.912 388.263 319.912C387.989 319.912 387.734 319.892 387.497 319.851C387.26 319.814 387.069 319.766 386.923 319.707ZM398.605 317.15C397.826 317.15 397.154 316.991 396.589 316.672C396.024 316.353 395.589 315.899 395.283 315.312C394.982 314.724 394.832 314.026 394.832 313.22C394.832 312.431 394.982 311.741 395.283 311.148C395.589 310.556 396.015 310.093 396.562 309.761C397.113 309.428 397.76 309.262 398.503 309.262C399.168 309.262 399.772 309.403 400.314 309.686C400.857 309.968 401.287 310.396 401.606 310.971C401.93 311.545 402.092 312.267 402.092 313.138V313.712H396.862C396.885 314.336 397.058 314.808 397.382 315.127C397.705 315.446 398.125 315.605 398.64 315.605C399 315.605 399.307 315.53 399.562 315.38C399.822 315.225 400.007 314.999 400.116 314.703L401.976 315.052C401.789 315.685 401.401 316.193 400.813 316.576C400.23 316.959 399.494 317.15 398.605 317.15ZM396.876 312.427H400.116C400.066 311.93 399.907 311.536 399.638 311.244C399.369 310.952 398.997 310.807 398.523 310.807C398.031 310.807 397.644 310.959 397.361 311.265C397.079 311.565 396.917 311.953 396.876 312.427ZM403.493 317V309.357H405.476V310.69H405.558C405.699 310.221 405.934 309.866 406.262 309.624C406.594 309.378 406.975 309.255 407.403 309.255C407.636 309.255 407.857 309.278 408.066 309.323V311.155C407.975 311.128 407.841 311.105 407.663 311.087C407.49 311.064 407.328 311.053 407.178 311.053C406.704 311.053 406.312 311.201 406.002 311.497C405.697 311.793 405.544 312.178 405.544 312.652V317H403.493Z" fill="#12141E"/>
<rect x="120" y="12" width="80" height="30" rx="4" fill="#666977"/>
<path d="M132.655 32.1504C131.429 32.1504 130.45 31.8701 129.716 31.3096C128.987 30.7445 128.608 29.9219 128.581 28.8418H130.611C130.648 29.3568 130.853 29.7441 131.227 30.0039C131.605 30.2591 132.074 30.3867 132.635 30.3867C133.191 30.3867 133.637 30.2682 133.975 30.0312C134.316 29.7897 134.487 29.4753 134.487 29.0879C134.487 28.737 134.332 28.4681 134.022 28.2812C133.717 28.0944 133.286 27.9326 132.73 27.7959L131.609 27.5156C130.748 27.306 130.074 26.9779 129.586 26.5312C129.098 26.0801 128.854 25.4854 128.854 24.7471C128.854 24.1318 129.019 23.5941 129.347 23.1338C129.679 22.6735 130.133 22.3158 130.707 22.0605C131.286 21.8053 131.944 21.6777 132.683 21.6777C133.435 21.6777 134.091 21.8076 134.651 22.0674C135.212 22.3226 135.649 22.6803 135.964 23.1406C136.278 23.5964 136.44 24.1227 136.449 24.7197H134.433C134.396 24.3096 134.221 23.9928 133.906 23.7695C133.596 23.5462 133.182 23.4346 132.662 23.4346C132.129 23.4346 131.716 23.5462 131.425 23.7695C131.138 23.9883 130.994 24.2686 130.994 24.6104C130.994 24.9886 131.156 25.2712 131.479 25.458C131.808 25.6449 132.188 25.7907 132.621 25.8955L133.544 26.1211C134.114 26.2533 134.629 26.4447 135.089 26.6953C135.549 26.9414 135.914 27.2627 136.183 27.6592C136.451 28.0511 136.586 28.5319 136.586 29.1016C136.586 30.0267 136.24 30.7673 135.547 31.3232C134.859 31.8747 133.895 32.1504 132.655 32.1504ZM141.843 24.3574V25.9229H140.414V29.7646C140.414 30.2386 140.646 30.4756 141.111 30.4756C141.189 30.4756 141.296 30.4665 141.433 30.4482C141.574 30.4255 141.683 30.4049 141.761 30.3867L142.055 31.9248C141.827 31.9932 141.599 32.041 141.371 32.0684C141.148 32.0957 140.934 32.1094 140.729 32.1094C139.963 32.1094 139.377 31.9248 138.972 31.5557C138.566 31.182 138.363 30.6442 138.363 29.9424V25.9229H137.311V24.3574H138.363V22.5391H140.414V24.3574H141.843ZM146.457 32.1504C145.691 32.1504 145.028 31.9863 144.468 31.6582C143.907 31.3255 143.474 30.8652 143.169 30.2773C142.868 29.6849 142.718 28.9967 142.718 28.2129C142.718 27.4245 142.868 26.734 143.169 26.1416C143.474 25.5492 143.907 25.0889 144.468 24.7607C145.028 24.4281 145.691 24.2617 146.457 24.2617C147.223 24.2617 147.886 24.4281 148.446 24.7607C149.007 25.0889 149.438 25.5492 149.738 26.1416C150.044 26.734 150.196 27.4245 150.196 28.2129C150.196 28.9967 150.044 29.6849 149.738 30.2773C149.438 30.8652 149.007 31.3255 148.446 31.6582C147.886 31.9863 147.223 32.1504 146.457 32.1504ZM146.457 30.5371C147.004 30.5371 147.416 30.3161 147.694 29.874C147.972 29.432 148.111 28.876 148.111 28.2061C148.111 27.5316 147.972 26.9756 147.694 26.5381C147.416 26.096 147.004 25.875 146.457 25.875C145.91 25.875 145.498 26.096 145.22 26.5381C144.946 26.9756 144.81 27.5316 144.81 28.2061C144.81 28.876 144.946 29.432 145.22 29.874C145.498 30.3161 145.91 30.5371 146.457 30.5371ZM151.625 32V24.3574H153.607V25.6904H153.689C153.831 25.221 154.065 24.8656 154.394 24.624C154.726 24.3779 155.107 24.2549 155.535 24.2549C155.768 24.2549 155.989 24.2777 156.198 24.3232V26.1553C156.107 26.1279 155.973 26.1051 155.795 26.0869C155.622 26.0641 155.46 26.0527 155.31 26.0527C154.836 26.0527 154.444 26.2008 154.134 26.4971C153.828 26.7933 153.676 27.1784 153.676 27.6523V32H151.625ZM160.437 32.1504C159.657 32.1504 158.985 31.9909 158.42 31.6719C157.855 31.3529 157.42 30.8994 157.114 30.3115C156.813 29.7236 156.663 29.0264 156.663 28.2197C156.663 27.4313 156.813 26.7409 157.114 26.1484C157.42 25.556 157.846 25.0934 158.393 24.7607C158.944 24.4281 159.591 24.2617 160.334 24.2617C160.999 24.2617 161.603 24.403 162.146 24.6855C162.688 24.9681 163.118 25.3965 163.438 25.9707C163.761 26.5449 163.923 27.2673 163.923 28.1377V28.7119H158.693C158.716 29.3363 158.889 29.8079 159.213 30.127C159.536 30.446 159.956 30.6055 160.471 30.6055C160.831 30.6055 161.138 30.5303 161.394 30.3799C161.653 30.2249 161.838 29.9993 161.947 29.7031L163.807 30.0518C163.62 30.6852 163.232 31.1934 162.645 31.5762C162.061 31.959 161.325 32.1504 160.437 32.1504ZM158.707 27.4268H161.947C161.897 26.93 161.738 26.5358 161.469 26.2441C161.2 25.9525 160.828 25.8066 160.354 25.8066C159.862 25.8066 159.475 25.9593 159.192 26.2646C158.91 26.5654 158.748 26.9528 158.707 27.4268ZM168.106 32L171.586 21.8145H174.32L177.889 32H175.571L174.785 29.6348H171.169L170.41 32H168.106ZM171.688 28.001H174.245L173.938 27.085C173.773 26.5654 173.609 26.0026 173.445 25.3965C173.281 24.7904 173.11 24.141 172.933 23.4482C172.764 24.1501 172.602 24.804 172.447 25.4102C172.292 26.0163 172.137 26.5745 171.982 27.085L171.688 28.001ZM179.153 32V21.8145H183.125C183.9 21.8145 184.558 21.9626 185.101 22.2588C185.643 22.5505 186.055 22.9561 186.338 23.4756C186.625 23.9906 186.769 24.583 186.769 25.2529C186.769 25.9274 186.623 26.5221 186.331 27.0371C186.044 27.5475 185.625 27.9486 185.073 28.2402C184.522 28.5273 183.856 28.6709 183.077 28.6709H181.238V32H179.153ZM181.238 26.9893H182.742C183.38 26.9893 183.852 26.8275 184.157 26.5039C184.463 26.1803 184.615 25.7633 184.615 25.2529C184.615 24.738 184.463 24.3232 184.157 24.0088C183.852 23.6943 183.378 23.5371 182.735 23.5371H181.238V26.9893ZM190.316 21.8145V32H188.231V21.8145H190.316Z" fill="white"/>
<rect x="457" y="12" width="86" height="30" rx="4" fill="#666977"/>
<path d="M469.655 32.1504C468.429 32.1504 467.45 31.8701 466.716 31.3096C465.987 30.7445 465.608 29.9219 465.581 28.8418H467.611C467.648 29.3568 467.853 29.7441 468.227 30.0039C468.605 30.2591 469.074 30.3867 469.635 30.3867C470.191 30.3867 470.637 30.2682 470.975 30.0312C471.316 29.7897 471.487 29.4753 471.487 29.0879C471.487 28.737 471.332 28.4681 471.022 28.2812C470.717 28.0944 470.286 27.9326 469.73 27.7959L468.609 27.5156C467.748 27.306 467.074 26.9779 466.586 26.5312C466.098 26.0801 465.854 25.4854 465.854 24.7471C465.854 24.1318 466.019 23.5941 466.347 23.1338C466.679 22.6735 467.133 22.3158 467.707 22.0605C468.286 21.8053 468.944 21.6777 469.683 21.6777C470.435 21.6777 471.091 21.8076 471.651 22.0674C472.212 22.3226 472.649 22.6803 472.964 23.1406C473.278 23.5964 473.44 24.1227 473.449 24.7197H471.433C471.396 24.3096 471.221 23.9928 470.906 23.7695C470.596 23.5462 470.182 23.4346 469.662 23.4346C469.129 23.4346 468.716 23.5462 468.425 23.7695C468.138 23.9883 467.994 24.2686 467.994 24.6104C467.994 24.9886 468.156 25.2712 468.479 25.458C468.808 25.6449 469.188 25.7907 469.621 25.8955L470.544 26.1211C471.114 26.2533 471.629 26.4447 472.089 26.6953C472.549 26.9414 472.914 27.2627 473.183 27.6592C473.451 28.0511 473.586 28.5319 473.586 29.1016C473.586 30.0267 473.24 30.7673 472.547 31.3232C471.859 31.8747 470.895 32.1504 469.655 32.1504ZM478.843 24.3574V25.9229H477.414V29.7646C477.414 30.2386 477.646 30.4756 478.111 30.4756C478.189 30.4756 478.296 30.4665 478.433 30.4482C478.574 30.4255 478.683 30.4049 478.761 30.3867L479.055 31.9248C478.827 31.9932 478.599 32.041 478.371 32.0684C478.148 32.0957 477.934 32.1094 477.729 32.1094C476.963 32.1094 476.377 31.9248 475.972 31.5557C475.566 31.182 475.363 30.6442 475.363 29.9424V25.9229H474.311V24.3574H475.363V22.5391H477.414V24.3574H478.843ZM483.457 32.1504C482.691 32.1504 482.028 31.9863 481.468 31.6582C480.907 31.3255 480.474 30.8652 480.169 30.2773C479.868 29.6849 479.718 28.9967 479.718 28.2129C479.718 27.4245 479.868 26.734 480.169 26.1416C480.474 25.5492 480.907 25.0889 481.468 24.7607C482.028 24.4281 482.691 24.2617 483.457 24.2617C484.223 24.2617 484.886 24.4281 485.446 24.7607C486.007 25.0889 486.438 25.5492 486.738 26.1416C487.044 26.734 487.196 27.4245 487.196 28.2129C487.196 28.9967 487.044 29.6849 486.738 30.2773C486.438 30.8652 486.007 31.3255 485.446 31.6582C484.886 31.9863 484.223 32.1504 483.457 32.1504ZM483.457 30.5371C484.004 30.5371 484.416 30.3161 484.694 29.874C484.972 29.432 485.111 28.876 485.111 28.2061C485.111 27.5316 484.972 26.9756 484.694 26.5381C484.416 26.096 484.004 25.875 483.457 25.875C482.91 25.875 482.498 26.096 482.22 26.5381C481.946 26.9756 481.81 27.5316 481.81 28.2061C481.81 28.876 481.946 29.432 482.22 29.874C482.498 30.3161 482.91 30.5371 483.457 30.5371ZM488.625 32V24.3574H490.607V25.6904H490.689C490.831 25.221 491.065 24.8656 491.394 24.624C491.726 24.3779 492.107 24.2549 492.535 24.2549C492.768 24.2549 492.989 24.2777 493.198 24.3232V26.1553C493.107 26.1279 492.973 26.1051 492.795 26.0869C492.622 26.0641 492.46 26.0527 492.31 26.0527C491.836 26.0527 491.444 26.2008 491.134 26.4971C490.828 26.7933 490.676 27.1784 490.676 27.6523V32H488.625ZM497.437 32.1504C496.657 32.1504 495.985 31.9909 495.42 31.6719C494.855 31.3529 494.42 30.8994 494.114 30.3115C493.813 29.7236 493.663 29.0264 493.663 28.2197C493.663 27.4313 493.813 26.7409 494.114 26.1484C494.42 25.556 494.846 25.0934 495.393 24.7607C495.944 24.4281 496.591 24.2617 497.334 24.2617C497.999 24.2617 498.603 24.403 499.146 24.6855C499.688 24.9681 500.118 25.3965 500.438 25.9707C500.761 26.5449 500.923 27.2673 500.923 28.1377V28.7119H495.693C495.716 29.3363 495.889 29.8079 496.213 30.127C496.536 30.446 496.956 30.6055 497.471 30.6055C497.831 30.6055 498.138 30.5303 498.394 30.3799C498.653 30.2249 498.838 29.9993 498.947 29.7031L500.807 30.0518C500.62 30.6852 500.232 31.1934 499.645 31.5762C499.061 31.959 498.325 32.1504 497.437 32.1504ZM495.707 27.4268H498.947C498.897 26.93 498.738 26.5358 498.469 26.2441C498.2 25.9525 497.828 25.8066 497.354 25.8066C496.862 25.8066 496.475 25.9593 496.192 26.2646C495.91 26.5654 495.748 26.9528 495.707 27.4268ZM506.576 24.3574V25.9229H504.977V32H502.933V25.9229H501.586V24.3574H502.933V23.7695C502.933 22.9583 503.17 22.3499 503.644 21.9443C504.118 21.5387 504.708 21.3359 505.414 21.3359C505.738 21.3359 506.032 21.361 506.296 21.4111C506.56 21.4613 506.756 21.5068 506.884 21.5479L506.515 23.0928C506.433 23.07 506.33 23.0472 506.207 23.0244C506.089 23.0016 505.963 22.9902 505.831 22.9902C505.517 22.9902 505.296 23.0654 505.168 23.2158C505.04 23.3617 504.977 23.569 504.977 23.8379V24.3574H506.576ZM507.902 32V24.3574H509.885V25.6904H509.967C510.108 25.221 510.343 24.8656 510.671 24.624C511.004 24.3779 511.384 24.2549 511.812 24.2549C512.045 24.2549 512.266 24.2777 512.476 24.3232V26.1553C512.384 26.1279 512.25 26.1051 512.072 26.0869C511.899 26.0641 511.737 26.0527 511.587 26.0527C511.113 26.0527 510.721 26.2008 510.411 26.4971C510.106 26.7933 509.953 27.1784 509.953 27.6523V32H507.902ZM516.68 32.1504C515.914 32.1504 515.251 31.9863 514.69 31.6582C514.13 31.3255 513.697 30.8652 513.392 30.2773C513.091 29.6849 512.94 28.9967 512.94 28.2129C512.94 27.4245 513.091 26.734 513.392 26.1416C513.697 25.5492 514.13 25.0889 514.69 24.7607C515.251 24.4281 515.914 24.2617 516.68 24.2617C517.445 24.2617 518.108 24.4281 518.669 24.7607C519.229 25.0889 519.66 25.5492 519.961 26.1416C520.266 26.734 520.419 27.4245 520.419 28.2129C520.419 28.9967 520.266 29.6849 519.961 30.2773C519.66 30.8652 519.229 31.3255 518.669 31.6582C518.108 31.9863 517.445 32.1504 516.68 32.1504ZM516.68 30.5371C517.227 30.5371 517.639 30.3161 517.917 29.874C518.195 29.432 518.334 28.876 518.334 28.2061C518.334 27.5316 518.195 26.9756 517.917 26.5381C517.639 26.096 517.227 25.875 516.68 25.875C516.133 25.875 515.72 26.096 515.442 26.5381C515.169 26.9756 515.032 27.5316 515.032 28.2061C515.032 28.876 515.169 29.432 515.442 29.874C515.72 30.3161 516.133 30.5371 516.68 30.5371ZM523.898 27.5771V32H521.848V24.3574H523.782L523.81 25.9365C524.024 25.4033 524.327 24.9909 524.719 24.6992C525.111 24.4076 525.601 24.2617 526.188 24.2617C526.981 24.2617 527.617 24.5169 528.096 25.0273C528.574 25.5378 528.813 26.2419 528.813 27.1396V32H526.763V27.4951C526.763 27.0212 526.64 26.6497 526.394 26.3809C526.152 26.112 525.815 25.9775 525.382 25.9775C524.944 25.9775 524.587 26.1188 524.309 26.4014C524.035 26.6794 523.898 27.0713 523.898 27.5771ZM534.364 24.3574V25.9229H532.936V29.7646C532.936 30.2386 533.168 30.4756 533.633 30.4756C533.71 30.4756 533.817 30.4665 533.954 30.4482C534.095 30.4255 534.205 30.4049 534.282 30.3867L534.576 31.9248C534.348 31.9932 534.12 32.041 533.893 32.0684C533.669 32.0957 533.455 32.1094 533.25 32.1094C532.484 32.1094 531.899 31.9248 531.493 31.5557C531.088 31.182 530.885 30.6442 530.885 29.9424V25.9229H529.832V24.3574H530.885V22.5391H532.936V24.3574H534.364Z" fill="white"/>
<rect x="11" y="65" width="298" height="50" rx="3" fill="white"/>
<rect x="11" y="65" width="298" height="50" rx="3" stroke="#B6B9C9" stroke-width="2"/>
<path d="M116.387 95V84.8145H118.472V88.9297H122.908V84.8145H125V95H122.908V90.6592H118.472V95H116.387ZM126.436 86.5439V84.8145H134.755V86.5439H131.645V95H129.553V86.5439H126.436ZM135.787 86.5439V84.8145H144.106V86.5439H140.996V95H138.904V86.5439H135.787ZM145.549 95V84.8145H149.521C150.295 84.8145 150.954 84.9626 151.496 85.2588C152.038 85.5505 152.451 85.9561 152.733 86.4756C153.021 86.9906 153.164 87.583 153.164 88.2529C153.164 88.9274 153.018 89.5221 152.727 90.0371C152.439 90.5475 152.02 90.9486 151.469 91.2402C150.917 91.5273 150.252 91.6709 149.473 91.6709H147.634V95H145.549ZM147.634 89.9893H149.138C149.776 89.9893 150.247 89.8275 150.553 89.5039C150.858 89.1803 151.011 88.7633 151.011 88.2529C151.011 87.738 150.858 87.3232 150.553 87.0088C150.247 86.6943 149.773 86.5371 149.131 86.5371H147.634V89.9893ZM157.949 95V84.8145H161.921C163.078 84.8145 163.974 85.1175 164.607 85.7236C165.245 86.3252 165.564 87.1273 165.564 88.1299C165.564 88.8271 165.41 89.4242 165.1 89.9209C164.79 90.4131 164.343 90.7822 163.76 91.0283L165.927 95H163.616L161.675 91.3633H160.034V95H157.949ZM160.034 89.6748H161.538C162.787 89.6748 163.411 89.1598 163.411 88.1299C163.411 87.6149 163.256 87.2207 162.946 86.9473C162.641 86.6738 162.169 86.5371 161.531 86.5371H160.034V89.6748ZM170.343 95.1504C169.577 95.1504 168.914 94.9863 168.354 94.6582C167.793 94.3255 167.36 93.8652 167.055 93.2773C166.754 92.6849 166.604 91.9967 166.604 91.2129C166.604 90.4245 166.754 89.734 167.055 89.1416C167.36 88.5492 167.793 88.0889 168.354 87.7607C168.914 87.4281 169.577 87.2617 170.343 87.2617C171.108 87.2617 171.771 87.4281 172.332 87.7607C172.893 88.0889 173.323 88.5492 173.624 89.1416C173.929 89.734 174.082 90.4245 174.082 91.2129C174.082 91.9967 173.929 92.6849 173.624 93.2773C173.323 93.8652 172.893 94.3255 172.332 94.6582C171.771 94.9863 171.108 95.1504 170.343 95.1504ZM170.343 93.5371C170.89 93.5371 171.302 93.3161 171.58 92.874C171.858 92.432 171.997 91.876 171.997 91.2061C171.997 90.5316 171.858 89.9756 171.58 89.5381C171.302 89.096 170.89 88.875 170.343 88.875C169.796 88.875 169.383 89.096 169.105 89.5381C168.832 89.9756 168.695 90.5316 168.695 91.2061C168.695 91.876 168.832 92.432 169.105 92.874C169.383 93.3161 169.796 93.5371 170.343 93.5371ZM178.143 95.0957C177.35 95.0957 176.712 94.8405 176.229 94.3301C175.75 93.8197 175.511 93.1156 175.511 92.2178V87.3574H177.562V91.8623C177.562 92.3363 177.685 92.7077 177.931 92.9766C178.177 93.2454 178.514 93.3799 178.942 93.3799C179.38 93.3799 179.735 93.2409 180.009 92.9629C180.287 92.6803 180.426 92.2861 180.426 91.7803V87.3574H182.483V95H180.542L180.515 93.4141C180.3 93.9564 179.995 94.3734 179.599 94.665C179.207 94.9521 178.721 95.0957 178.143 95.0957ZM188.027 87.3574V88.9229H186.599V92.7646C186.599 93.2386 186.831 93.4756 187.296 93.4756C187.373 93.4756 187.48 93.4665 187.617 93.4482C187.758 93.4255 187.868 93.4049 187.945 93.3867L188.239 94.9248C188.011 94.9932 187.784 95.041 187.556 95.0684C187.332 95.0957 187.118 95.1094 186.913 95.1094C186.147 95.1094 185.562 94.9248 185.156 94.5557C184.751 94.182 184.548 93.6442 184.548 92.9424V88.9229H183.495V87.3574H184.548V85.5391H186.599V87.3574H188.027ZM192.676 95.1504C191.896 95.1504 191.224 94.9909 190.659 94.6719C190.094 94.3529 189.659 93.8994 189.354 93.3115C189.053 92.7236 188.902 92.0264 188.902 91.2197C188.902 90.4313 189.053 89.7409 189.354 89.1484C189.659 88.556 190.085 88.0934 190.632 87.7607C191.183 87.4281 191.83 87.2617 192.573 87.2617C193.239 87.2617 193.842 87.403 194.385 87.6855C194.927 87.9681 195.358 88.3965 195.677 88.9707C196 89.5449 196.162 90.2673 196.162 91.1377V91.7119H190.933C190.955 92.3363 191.129 92.8079 191.452 93.127C191.776 93.446 192.195 93.6055 192.71 93.6055C193.07 93.6055 193.378 93.5303 193.633 93.3799C193.893 93.2249 194.077 92.9993 194.187 92.7031L196.046 93.0518C195.859 93.6852 195.472 94.1934 194.884 94.5762C194.3 94.959 193.564 95.1504 192.676 95.1504ZM190.946 90.4268H194.187C194.136 89.93 193.977 89.5358 193.708 89.2441C193.439 88.9525 193.068 88.8066 192.594 88.8066C192.102 88.8066 191.714 88.9593 191.432 89.2646C191.149 89.5654 190.987 89.9528 190.946 90.4268ZM200.599 95.1504C199.678 95.1504 198.917 94.9544 198.315 94.5625C197.718 94.1706 197.354 93.6191 197.222 92.9082L199.129 92.5801C199.325 93.291 199.835 93.6465 200.66 93.6465C201.052 93.6465 201.36 93.5736 201.583 93.4277C201.811 93.2773 201.925 93.0882 201.925 92.8604C201.925 92.473 201.597 92.2109 200.94 92.0742L199.621 91.8008C198.154 91.5 197.42 90.7777 197.42 89.6338C197.42 88.9001 197.714 88.3213 198.302 87.8975C198.89 87.4736 199.667 87.2617 200.633 87.2617C201.54 87.2617 202.262 87.4463 202.8 87.8154C203.338 88.1846 203.677 88.679 203.818 89.2988L202 89.6201C201.918 89.3604 201.768 89.1484 201.549 88.9844C201.33 88.8158 201.034 88.7314 200.66 88.7314C200.323 88.7314 200.04 88.8044 199.812 88.9502C199.585 89.0915 199.471 89.276 199.471 89.5039C199.471 89.6953 199.544 89.8594 199.689 89.9961C199.84 90.1283 200.095 90.2308 200.455 90.3037L201.829 90.5771C203.287 90.8734 204.017 91.5615 204.017 92.6416C204.017 93.1429 203.871 93.5827 203.579 93.9609C203.287 94.3346 202.884 94.6263 202.369 94.8359C201.854 95.0456 201.264 95.1504 200.599 95.1504Z" fill="#12141E"/>
</g>
<defs>
<clipPath id="clip0_527_3978">
<rect width="659" height="427" fill="white"/>
</clipPath>
</defs>
</svg>
