<svg width="761" height="94" viewBox="0 0 761 94" fill="none" xmlns="http://www.w3.org/2000/svg">
<g clip-path="url(#clip0_385_738)">
<rect x="321" y="1" width="118" height="92" rx="3" fill="white"/>
<rect x="321" y="1" width="118" height="92" rx="3" stroke="#B6B9C9" stroke-width="2"/>
<path d="M353.189 42V31.8145H357.161C358.319 31.8145 359.214 32.1175 359.848 32.7236C360.486 33.3252 360.805 34.1273 360.805 35.1299C360.805 35.8271 360.65 36.4242 360.34 36.9209C360.03 37.4131 359.583 37.7822 359 38.0283L361.167 42H358.856L356.915 38.3633H355.274V42H353.189ZM355.274 36.6748H356.778C358.027 36.6748 358.651 36.1598 358.651 35.1299C358.651 34.6149 358.496 34.2207 358.187 33.9473C357.881 33.6738 357.41 33.5371 356.771 33.5371H355.274V36.6748ZM365.617 42.1504C364.838 42.1504 364.166 41.9909 363.601 41.6719C363.035 41.3529 362.6 40.8994 362.295 40.3115C361.994 39.7236 361.844 39.0264 361.844 38.2197C361.844 37.4313 361.994 36.7409 362.295 36.1484C362.6 35.556 363.026 35.0934 363.573 34.7607C364.125 34.4281 364.772 34.2617 365.515 34.2617C366.18 34.2617 366.784 34.403 367.326 34.6855C367.868 34.9681 368.299 35.3965 368.618 35.9707C368.942 36.5449 369.104 37.2673 369.104 38.1377V38.7119H363.874C363.897 39.3363 364.07 39.8079 364.394 40.127C364.717 40.446 365.136 40.6055 365.651 40.6055C366.011 40.6055 366.319 40.5303 366.574 40.3799C366.834 40.2249 367.019 39.9993 367.128 39.7031L368.987 40.0518C368.8 40.6852 368.413 41.1934 367.825 41.5762C367.242 41.959 366.506 42.1504 365.617 42.1504ZM363.888 37.4268H367.128C367.078 36.93 366.918 36.5358 366.649 36.2441C366.381 35.9525 366.009 35.8066 365.535 35.8066C365.043 35.8066 364.656 35.9593 364.373 36.2646C364.09 36.5654 363.929 36.9528 363.888 37.4268ZM372.398 42L369.582 34.3574H371.763L373.048 38.3223C373.153 38.6641 373.248 39.0081 373.335 39.3545C373.426 39.7008 373.513 40.0518 373.595 40.4072C373.672 40.0518 373.752 39.7031 373.834 39.3613C373.921 39.015 374.019 38.6686 374.128 38.3223L375.399 34.3574H377.553L374.729 42H372.398ZM381.832 42.1504C381.053 42.1504 380.381 41.9909 379.815 41.6719C379.25 41.3529 378.815 40.8994 378.51 40.3115C378.209 39.7236 378.059 39.0264 378.059 38.2197C378.059 37.4313 378.209 36.7409 378.51 36.1484C378.815 35.556 379.241 35.0934 379.788 34.7607C380.34 34.4281 380.987 34.2617 381.729 34.2617C382.395 34.2617 382.999 34.403 383.541 34.6855C384.083 34.9681 384.514 35.3965 384.833 35.9707C385.157 36.5449 385.318 37.2673 385.318 38.1377V38.7119H380.089C380.112 39.3363 380.285 39.8079 380.608 40.127C380.932 40.446 381.351 40.6055 381.866 40.6055C382.226 40.6055 382.534 40.5303 382.789 40.3799C383.049 40.2249 383.233 39.9993 383.343 39.7031L385.202 40.0518C385.015 40.6852 384.628 41.1934 384.04 41.5762C383.457 41.959 382.721 42.1504 381.832 42.1504ZM380.103 37.4268H383.343C383.293 36.93 383.133 36.5358 382.864 36.2441C382.595 35.9525 382.224 35.8066 381.75 35.8066C381.258 35.8066 380.87 35.9593 380.588 36.2646C380.305 36.5654 380.144 36.9528 380.103 37.4268ZM386.72 42V34.3574H388.702V35.6904H388.784C388.925 35.221 389.16 34.8656 389.488 34.624C389.821 34.3779 390.201 34.2549 390.63 34.2549C390.862 34.2549 391.083 34.2777 391.293 34.3232V36.1553C391.202 36.1279 391.067 36.1051 390.89 36.0869C390.716 36.0641 390.555 36.0527 390.404 36.0527C389.93 36.0527 389.538 36.2008 389.229 36.4971C388.923 36.7933 388.771 37.1784 388.771 37.6523V42H386.72ZM395.456 42.1504C394.535 42.1504 393.774 41.9544 393.173 41.5625C392.576 41.1706 392.211 40.6191 392.079 39.9082L393.986 39.5801C394.182 40.291 394.693 40.6465 395.518 40.6465C395.91 40.6465 396.217 40.5736 396.44 40.4277C396.668 40.2773 396.782 40.0882 396.782 39.8604C396.782 39.473 396.454 39.2109 395.798 39.0742L394.479 38.8008C393.011 38.5 392.277 37.7777 392.277 36.6338C392.277 35.9001 392.571 35.3213 393.159 34.8975C393.747 34.4736 394.524 34.2617 395.49 34.2617C396.397 34.2617 397.119 34.4463 397.657 34.8154C398.195 35.1846 398.535 35.679 398.676 36.2988L396.857 36.6201C396.775 36.3604 396.625 36.1484 396.406 35.9844C396.188 35.8158 395.891 35.7314 395.518 35.7314C395.18 35.7314 394.898 35.8044 394.67 35.9502C394.442 36.0915 394.328 36.276 394.328 36.5039C394.328 36.6953 394.401 36.8594 394.547 36.9961C394.697 37.1283 394.952 37.2308 395.312 37.3037L396.687 37.5771C398.145 37.8734 398.874 38.5615 398.874 39.6416C398.874 40.1429 398.728 40.5827 398.437 40.9609C398.145 41.3346 397.742 41.6263 397.227 41.8359C396.712 42.0456 396.121 42.1504 395.456 42.1504ZM403.721 42.1504C402.941 42.1504 402.269 41.9909 401.704 41.6719C401.139 41.3529 400.704 40.8994 400.398 40.3115C400.098 39.7236 399.947 39.0264 399.947 38.2197C399.947 37.4313 400.098 36.7409 400.398 36.1484C400.704 35.556 401.13 35.0934 401.677 34.7607C402.228 34.4281 402.875 34.2617 403.618 34.2617C404.284 34.2617 404.887 34.403 405.43 34.6855C405.972 34.9681 406.403 35.3965 406.722 35.9707C407.045 36.5449 407.207 37.2673 407.207 38.1377V38.7119H401.978C402 39.3363 402.174 39.8079 402.497 40.127C402.821 40.446 403.24 40.6055 403.755 40.6055C404.115 40.6055 404.423 40.5303 404.678 40.3799C404.938 40.2249 405.122 39.9993 405.231 39.7031L407.091 40.0518C406.904 40.6852 406.517 41.1934 405.929 41.5762C405.345 41.959 404.609 42.1504 403.721 42.1504ZM401.991 37.4268H405.231C405.181 36.93 405.022 36.5358 404.753 36.2441C404.484 35.9525 404.113 35.8066 403.639 35.8066C403.146 35.8066 402.759 35.9593 402.477 36.2646C402.194 36.5654 402.032 36.9528 401.991 37.4268ZM361.276 62V51.8145H365.248C366.023 51.8145 366.681 51.9626 367.224 52.2588C367.766 52.5505 368.178 52.9561 368.461 53.4756C368.748 53.9906 368.892 54.583 368.892 55.2529C368.892 55.9274 368.746 56.5221 368.454 57.0371C368.167 57.5475 367.748 57.9486 367.196 58.2402C366.645 58.5273 365.979 58.6709 365.2 58.6709H363.361V62H361.276ZM363.361 56.9893H364.865C365.503 56.9893 365.975 56.8275 366.28 56.5039C366.586 56.1803 366.738 55.7633 366.738 55.2529C366.738 54.738 366.586 54.3232 366.28 54.0088C365.975 53.6943 365.501 53.5371 364.858 53.5371H363.361V56.9893ZM370.307 62V54.3574H372.289V55.6904H372.371C372.512 55.221 372.747 54.8656 373.075 54.624C373.408 54.3779 373.788 54.2549 374.217 54.2549C374.449 54.2549 374.67 54.2777 374.88 54.3232V56.1553C374.789 56.1279 374.654 56.1051 374.477 56.0869C374.303 56.0641 374.142 56.0527 373.991 56.0527C373.517 56.0527 373.125 56.2008 372.815 56.4971C372.51 56.7933 372.357 57.1784 372.357 57.6523V62H370.307ZM379.084 62.1504C378.318 62.1504 377.655 61.9863 377.095 61.6582C376.534 61.3255 376.101 60.8652 375.796 60.2773C375.495 59.6849 375.345 58.9967 375.345 58.2129C375.345 57.4245 375.495 56.734 375.796 56.1416C376.101 55.5492 376.534 55.0889 377.095 54.7607C377.655 54.4281 378.318 54.2617 379.084 54.2617C379.85 54.2617 380.513 54.4281 381.073 54.7607C381.634 55.0889 382.064 55.5492 382.365 56.1416C382.671 56.734 382.823 57.4245 382.823 58.2129C382.823 58.9967 382.671 59.6849 382.365 60.2773C382.064 60.8652 381.634 61.3255 381.073 61.6582C380.513 61.9863 379.85 62.1504 379.084 62.1504ZM379.084 60.5371C379.631 60.5371 380.043 60.3161 380.321 59.874C380.599 59.432 380.738 58.876 380.738 58.2061C380.738 57.5316 380.599 56.9756 380.321 56.5381C380.043 56.096 379.631 55.875 379.084 55.875C378.537 55.875 378.125 56.096 377.847 56.5381C377.573 56.9756 377.437 57.5316 377.437 58.2061C377.437 58.876 377.573 59.432 377.847 59.874C378.125 60.3161 378.537 60.5371 379.084 60.5371ZM383.377 62L385.838 58.0762L383.527 54.3574H385.742L386.433 55.5605C386.569 55.8158 386.697 56.0687 386.815 56.3193C386.938 56.5654 387.057 56.8092 387.171 57.0508C387.285 56.8092 387.401 56.5632 387.52 56.3125C387.643 56.0618 387.777 55.8112 387.923 55.5605L388.641 54.3574H390.814L388.456 58.1035L390.924 62H388.723L387.875 60.5576C387.734 60.3115 387.602 60.0654 387.479 59.8193C387.355 59.5732 387.237 59.3317 387.123 59.0947C387.014 59.3317 386.9 59.5732 386.781 59.8193C386.667 60.0654 386.54 60.3115 386.398 60.5576L385.551 62H383.377ZM392.031 64.707L392.503 63.1621L392.756 63.2236C393.171 63.3376 393.51 63.3285 393.774 63.1963C394.039 63.0687 394.194 62.8135 394.239 62.4307L394.294 62.0205L391.423 54.3574H393.604L394.889 58.3223C394.993 58.6549 395.082 58.9876 395.155 59.3203C395.228 59.6484 395.301 59.9811 395.374 60.3184C395.456 59.9766 395.54 59.6416 395.627 59.3135C395.718 58.9808 395.818 58.6504 395.928 58.3223L397.268 54.3574H399.421L396.174 62.9023C395.941 63.5176 395.606 64.0052 395.169 64.3652C394.736 64.7298 394.137 64.9121 393.371 64.9121C393.098 64.9121 392.842 64.8916 392.605 64.8506C392.368 64.8141 392.177 64.7663 392.031 64.707Z" fill="#12141E"/>
<rect x="642" y="1" width="118" height="92" rx="3" fill="white"/>
<rect x="642" y="1" width="118" height="92" rx="3" stroke="#B6B9C9" stroke-width="2"/>
<path d="M671.243 52.1504C670.017 52.1504 669.037 51.8701 668.304 51.3096C667.575 50.7445 667.196 49.9219 667.169 48.8418H669.199C669.236 49.3568 669.441 49.7441 669.814 50.0039C670.193 50.2591 670.662 50.3867 671.223 50.3867C671.779 50.3867 672.225 50.2682 672.562 50.0312C672.904 49.7897 673.075 49.4753 673.075 49.0879C673.075 48.737 672.92 48.4681 672.61 48.2812C672.305 48.0944 671.874 47.9326 671.318 47.7959L670.197 47.5156C669.336 47.306 668.661 46.9779 668.174 46.5312C667.686 46.0801 667.442 45.4854 667.442 44.7471C667.442 44.1318 667.606 43.5941 667.935 43.1338C668.267 42.6735 668.721 42.3158 669.295 42.0605C669.874 41.8053 670.532 41.6777 671.271 41.6777C672.022 41.6777 672.679 41.8076 673.239 42.0674C673.8 42.3226 674.237 42.6803 674.552 43.1406C674.866 43.5964 675.028 44.1227 675.037 44.7197H673.021C672.984 44.3096 672.809 43.9928 672.494 43.7695C672.184 43.5462 671.77 43.4346 671.25 43.4346C670.717 43.4346 670.304 43.5462 670.013 43.7695C669.726 43.9883 669.582 44.2686 669.582 44.6104C669.582 44.9886 669.744 45.2712 670.067 45.458C670.396 45.6449 670.776 45.7907 671.209 45.8955L672.132 46.1211C672.701 46.2533 673.216 46.4447 673.677 46.6953C674.137 46.9414 674.502 47.2627 674.771 47.6592C675.039 48.0511 675.174 48.5319 675.174 49.1016C675.174 50.0267 674.827 50.7673 674.135 51.3232C673.447 51.8747 672.483 52.1504 671.243 52.1504ZM678.688 47.5771V52H676.637V41.8145H678.646V45.8203C678.87 45.3236 679.173 44.9408 679.556 44.6719C679.938 44.3984 680.412 44.2617 680.978 44.2617C681.771 44.2617 682.406 44.5169 682.885 45.0273C683.368 45.5378 683.609 46.2419 683.609 47.1396V52H681.552V47.4951C681.552 47.0212 681.429 46.6497 681.183 46.3809C680.941 46.112 680.604 45.9775 680.171 45.9775C679.733 45.9775 679.376 46.1188 679.098 46.4014C678.824 46.6794 678.688 47.0713 678.688 47.5771ZM688.777 52.1504C688.012 52.1504 687.349 51.9863 686.788 51.6582C686.228 51.3255 685.795 50.8652 685.489 50.2773C685.188 49.6849 685.038 48.9967 685.038 48.2129C685.038 47.4245 685.188 46.734 685.489 46.1416C685.795 45.5492 686.228 45.0889 686.788 44.7607C687.349 44.4281 688.012 44.2617 688.777 44.2617C689.543 44.2617 690.206 44.4281 690.767 44.7607C691.327 45.0889 691.758 45.5492 692.059 46.1416C692.364 46.734 692.517 47.4245 692.517 48.2129C692.517 48.9967 692.364 49.6849 692.059 50.2773C691.758 50.8652 691.327 51.3255 690.767 51.6582C690.206 51.9863 689.543 52.1504 688.777 52.1504ZM688.777 50.5371C689.324 50.5371 689.737 50.3161 690.015 49.874C690.293 49.432 690.432 48.876 690.432 48.2061C690.432 47.5316 690.293 46.9756 690.015 46.5381C689.737 46.096 689.324 45.875 688.777 45.875C688.23 45.875 687.818 46.096 687.54 46.5381C687.267 46.9756 687.13 47.5316 687.13 48.2061C687.13 48.876 687.267 49.432 687.54 49.874C687.818 50.3161 688.23 50.5371 688.777 50.5371ZM693.945 54.8574V44.3574H695.962V45.6426H696.058C696.149 45.4421 696.281 45.2347 696.454 45.0205C696.632 44.8063 696.864 44.6263 697.151 44.4805C697.443 44.3346 697.805 44.2617 698.238 44.2617C698.803 44.2617 699.321 44.4076 699.79 44.6992C700.259 44.9909 700.633 45.4284 700.911 46.0117C701.194 46.5951 701.335 47.3219 701.335 48.1924C701.335 49.04 701.198 49.7578 700.925 50.3457C700.651 50.929 700.28 51.3734 699.811 51.6787C699.341 51.9795 698.812 52.1299 698.225 52.1299C697.81 52.1299 697.459 52.0592 697.172 51.918C696.885 51.7767 696.65 51.6035 696.468 51.3984C696.29 51.1888 696.153 50.9814 696.058 50.7764H695.996V54.8574H693.945ZM697.596 50.4824C698.129 50.4824 698.535 50.2682 698.812 49.8398C699.095 49.4115 699.236 48.86 699.236 48.1855C699.236 47.5156 699.097 46.9688 698.819 46.5449C698.541 46.1165 698.133 45.9023 697.596 45.9023C697.067 45.9023 696.659 46.1097 696.372 46.5244C696.09 46.9391 695.948 47.4928 695.948 48.1855C695.948 48.8783 696.092 49.4342 696.379 49.8535C696.666 50.2728 697.072 50.4824 697.596 50.4824ZM704.179 52L701.923 44.3574H704.076L704.739 47.1807C704.83 47.6045 704.931 48.0602 705.04 48.5479C705.149 49.0355 705.257 49.5641 705.361 50.1338C705.466 49.5778 705.576 49.056 705.689 48.5684C705.808 48.0762 705.92 47.6136 706.024 47.1807L706.722 44.3574H708.608L709.292 47.1807C709.388 47.6136 709.493 48.0739 709.606 48.5615C709.725 49.0492 709.839 49.5755 709.948 50.1406C710.044 49.5755 710.144 49.0492 710.249 48.5615C710.354 48.0739 710.456 47.6136 710.557 47.1807L711.22 44.3574H713.4L711.131 52H709.046L708.198 49.0537C708.103 48.7256 708.009 48.3564 707.918 47.9463C707.831 47.5361 707.743 47.1305 707.651 46.7295C707.565 47.1305 707.476 47.5384 707.385 47.9531C707.294 48.3633 707.202 48.7301 707.111 49.0537L706.264 52H704.179ZM716.586 52.1504C715.857 52.1504 715.251 51.959 714.768 51.5762C714.285 51.1888 714.043 50.6169 714.043 49.8604C714.043 49.2907 714.18 48.8441 714.453 48.5205C714.727 48.1969 715.082 47.96 715.52 47.8096C715.957 47.6592 716.426 47.5612 716.928 47.5156C717.584 47.4518 718.056 47.3857 718.343 47.3174C718.634 47.2445 718.78 47.0827 718.78 46.832V46.7979C718.78 46.4743 718.675 46.2236 718.466 46.0459C718.261 45.8682 717.967 45.7793 717.584 45.7793C717.188 45.7793 716.868 45.8659 716.627 46.0391C716.385 46.2077 716.224 46.415 716.142 46.6611L714.262 46.3467C714.458 45.6859 714.847 45.1732 715.431 44.8086C716.019 44.444 716.739 44.2617 717.591 44.2617C718.138 44.2617 718.657 44.3483 719.149 44.5215C719.646 44.6947 720.049 44.9727 720.359 45.3555C720.674 45.7337 720.831 46.2327 720.831 46.8525V52H718.89V50.9404H718.821C718.634 51.2959 718.356 51.5876 717.987 51.8154C717.618 52.0387 717.151 52.1504 716.586 52.1504ZM717.167 50.708C717.646 50.708 718.035 50.569 718.336 50.291C718.641 50.013 718.794 49.6712 718.794 49.2656V48.4385C718.712 48.4977 718.577 48.5501 718.391 48.5957C718.208 48.6367 718.015 48.6755 717.81 48.7119C717.604 48.7438 717.427 48.7689 717.276 48.7871C716.898 48.8418 716.593 48.9489 716.36 49.1084C716.128 49.2679 716.012 49.5003 716.012 49.8057C716.012 50.1019 716.119 50.3275 716.333 50.4824C716.552 50.6328 716.83 50.708 717.167 50.708ZM722.588 52V44.3574H724.57V45.6904H724.652C724.794 45.221 725.028 44.8656 725.356 44.624C725.689 44.3779 726.07 44.2549 726.498 44.2549C726.73 44.2549 726.951 44.2777 727.161 44.3232V46.1553C727.07 46.1279 726.936 46.1051 726.758 46.0869C726.585 46.0641 726.423 46.0527 726.272 46.0527C725.799 46.0527 725.407 46.2008 725.097 46.4971C724.791 46.7933 724.639 47.1784 724.639 47.6523V52H722.588ZM731.399 52.1504C730.62 52.1504 729.948 51.9909 729.383 51.6719C728.818 51.3529 728.382 50.8994 728.077 50.3115C727.776 49.7236 727.626 49.0264 727.626 48.2197C727.626 47.4313 727.776 46.7409 728.077 46.1484C728.382 45.556 728.809 45.0934 729.355 44.7607C729.907 44.4281 730.554 44.2617 731.297 44.2617C731.962 44.2617 732.566 44.403 733.108 44.6855C733.651 44.9681 734.081 45.3965 734.4 45.9707C734.724 46.5449 734.886 47.2673 734.886 48.1377V48.7119H729.656C729.679 49.3363 729.852 49.8079 730.176 50.127C730.499 50.446 730.919 50.6055 731.434 50.6055C731.794 50.6055 732.101 50.5303 732.356 50.3799C732.616 50.2249 732.801 49.9993 732.91 49.7031L734.77 50.0518C734.583 50.6852 734.195 51.1934 733.607 51.5762C733.024 51.959 732.288 52.1504 731.399 52.1504ZM729.67 47.4268H732.91C732.86 46.93 732.701 46.5358 732.432 46.2441C732.163 45.9525 731.791 45.8066 731.317 45.8066C730.825 45.8066 730.438 45.9593 730.155 46.2646C729.873 46.5654 729.711 46.9528 729.67 47.4268Z" fill="#12141E"/>
<path d="M320.707 33.7071C321.098 33.3166 321.098 32.6834 320.707 32.2929L314.343 25.9289C313.953 25.5384 313.319 25.5384 312.929 25.9289C312.538 26.3195 312.538 26.9526 312.929 27.3432L318.586 33L312.929 38.6569C312.538 39.0474 312.538 39.6806 312.929 40.0711C313.319 40.4616 313.953 40.4616 314.343 40.0711L320.707 33.7071ZM120 34L320 34L320 32L120 32L120 34Z" fill="#B6B9C9"/>
<path d="M640.707 32.7071C641.098 32.3166 641.098 31.6834 640.707 31.2929L634.343 24.9289C633.953 24.5384 633.319 24.5384 632.929 24.9289C632.538 25.3195 632.538 25.9526 632.929 26.3432L638.586 32L632.929 37.6569C632.538 38.0474 632.538 38.6806 632.929 39.0711C633.319 39.4616 633.953 39.4616 634.343 39.0711L640.707 32.7071ZM440 33L640 33L640 31L440 31L440 33Z" fill="#B6B9C9"/>
<path d="M119.293 67.2929C118.902 67.6834 118.902 68.3166 119.293 68.7071L125.657 75.0711C126.047 75.4616 126.681 75.4616 127.071 75.0711C127.462 74.6805 127.462 74.0474 127.071 73.6568L121.414 68L127.071 62.3431C127.462 61.9526 127.462 61.3194 127.071 60.9289C126.681 60.5384 126.047 60.5384 125.657 60.9289L119.293 67.2929ZM320 67L120 67L120 69L320 69L320 67Z" fill="#B6B9C9"/>
<path d="M440.293 67.2929C439.902 67.6834 439.902 68.3166 440.293 68.7071L446.657 75.0711C447.047 75.4616 447.681 75.4616 448.071 75.0711C448.462 74.6805 448.462 74.0474 448.071 73.6568L442.414 68L448.071 62.3431C448.462 61.9526 448.462 61.3194 448.071 60.9289C447.681 60.5384 447.047 60.5384 446.657 60.9289L440.293 67.2929ZM641 67L441 67L441 69L641 69L641 67Z" fill="#B6B9C9"/>
<rect x="193" y="17" width="45" height="30" rx="4" fill="#666977"/>
<path d="M206.435 37.1367C205.482 37.1367 204.646 36.9271 203.926 36.5078C203.206 36.084 202.645 35.4824 202.244 34.7031C201.843 33.9238 201.643 32.9964 201.643 31.9209C201.643 30.8226 201.85 29.8815 202.265 29.0977C202.684 28.3138 203.251 27.7145 203.967 27.2998C204.687 26.8851 205.493 26.6777 206.387 26.6777C207.152 26.6777 207.845 26.8236 208.465 27.1152C209.085 27.4069 209.593 27.8102 209.989 28.3252C210.386 28.8356 210.632 29.4258 210.728 30.0957H208.608C208.463 29.6081 208.203 29.2253 207.829 28.9473C207.455 28.6693 206.986 28.5303 206.421 28.5303C205.637 28.5303 204.997 28.8219 204.5 29.4053C204.008 29.9886 203.762 30.8203 203.762 31.9004C203.762 32.9805 204.006 33.8145 204.493 34.4023C204.981 34.9902 205.632 35.2842 206.448 35.2842C207.173 35.2842 207.743 35.0928 208.157 34.71C208.572 34.3271 208.788 33.8099 208.807 33.1582H206.592V31.5723H210.83V32.8438C210.83 33.737 210.641 34.5049 210.263 35.1475C209.884 35.7855 209.365 36.2777 208.704 36.624C208.043 36.9658 207.287 37.1367 206.435 37.1367ZM212.437 37V26.8145H219.252V28.5439H214.521V31.0049H218.896V32.707H214.521V35.2705H219.266V37H212.437ZM220.53 28.5439V26.8145H228.85V28.5439H225.739V37H223.647V28.5439H220.53Z" fill="white"/>
<rect x="174" y="53" width="84" height="30" rx="4" fill="#666977"/>
<path d="M182.923 73V62.8145H186.895C188.052 62.8145 188.948 63.1175 189.581 63.7236C190.219 64.3252 190.538 65.1273 190.538 66.1299C190.538 66.8271 190.383 67.4242 190.073 67.9209C189.763 68.4131 189.317 68.7822 188.733 69.0283L190.9 73H188.59L186.648 69.3633H185.008V73H182.923ZM185.008 67.6748H186.512C187.76 67.6748 188.385 67.1598 188.385 66.1299C188.385 65.6149 188.23 65.2207 187.92 64.9473C187.615 64.6738 187.143 64.5371 186.505 64.5371H185.008V67.6748ZM195.351 73.1504C194.571 73.1504 193.899 72.9909 193.334 72.6719C192.769 72.3529 192.334 71.8994 192.028 71.3115C191.728 70.7236 191.577 70.0264 191.577 69.2197C191.577 68.4313 191.728 67.7409 192.028 67.1484C192.334 66.556 192.76 66.0934 193.307 65.7607C193.858 65.4281 194.505 65.2617 195.248 65.2617C195.913 65.2617 196.517 65.403 197.06 65.6855C197.602 65.9681 198.033 66.3965 198.352 66.9707C198.675 67.5449 198.837 68.2673 198.837 69.1377V69.7119H193.607C193.63 70.3363 193.803 70.8079 194.127 71.127C194.451 71.446 194.87 71.6055 195.385 71.6055C195.745 71.6055 196.052 71.5303 196.308 71.3799C196.567 71.2249 196.752 70.9993 196.861 70.7031L198.721 71.0518C198.534 71.6852 198.146 72.1934 197.559 72.5762C196.975 72.959 196.239 73.1504 195.351 73.1504ZM193.621 68.4268H196.861C196.811 67.93 196.652 67.5358 196.383 67.2441C196.114 66.9525 195.743 66.8066 195.269 66.8066C194.776 66.8066 194.389 66.9593 194.106 67.2646C193.824 67.5654 193.662 67.9528 193.621 68.4268ZM203.273 73.1504C202.353 73.1504 201.592 72.9544 200.99 72.5625C200.393 72.1706 200.029 71.6191 199.896 70.9082L201.804 70.5801C202 71.291 202.51 71.6465 203.335 71.6465C203.727 71.6465 204.035 71.5736 204.258 71.4277C204.486 71.2773 204.6 71.0882 204.6 70.8604C204.6 70.473 204.271 70.2109 203.615 70.0742L202.296 69.8008C200.828 69.5 200.095 68.7777 200.095 67.6338C200.095 66.9001 200.389 66.3213 200.977 65.8975C201.564 65.4736 202.341 65.2617 203.308 65.2617C204.215 65.2617 204.937 65.4463 205.475 65.8154C206.012 66.1846 206.352 66.679 206.493 67.2988L204.675 67.6201C204.593 67.3604 204.442 67.1484 204.224 66.9844C204.005 66.8158 203.709 66.7314 203.335 66.7314C202.998 66.7314 202.715 66.8044 202.487 66.9502C202.259 67.0915 202.146 67.276 202.146 67.5039C202.146 67.6953 202.218 67.8594 202.364 67.9961C202.515 68.1283 202.77 68.2308 203.13 68.3037L204.504 68.5771C205.962 68.8734 206.691 69.5615 206.691 70.6416C206.691 71.1429 206.546 71.5827 206.254 71.9609C205.962 72.3346 205.559 72.6263 205.044 72.8359C204.529 73.0456 203.939 73.1504 203.273 73.1504ZM208.086 75.8574V65.3574H210.103V66.6426H210.198C210.289 66.4421 210.422 66.2347 210.595 66.0205C210.772 65.8063 211.005 65.6263 211.292 65.4805C211.584 65.3346 211.946 65.2617 212.379 65.2617C212.944 65.2617 213.461 65.4076 213.931 65.6992C214.4 65.9909 214.774 66.4284 215.052 67.0117C215.334 67.5951 215.476 68.3219 215.476 69.1924C215.476 70.04 215.339 70.7578 215.065 71.3457C214.792 71.929 214.421 72.3734 213.951 72.6787C213.482 72.9795 212.953 73.1299 212.365 73.1299C211.951 73.1299 211.6 73.0592 211.312 72.918C211.025 72.7767 210.791 72.6035 210.608 72.3984C210.431 72.1888 210.294 71.9814 210.198 71.7764H210.137V75.8574H208.086ZM211.736 71.4824C212.27 71.4824 212.675 71.2682 212.953 70.8398C213.236 70.4115 213.377 69.86 213.377 69.1855C213.377 68.5156 213.238 67.9688 212.96 67.5449C212.682 67.1165 212.274 66.9023 211.736 66.9023C211.208 66.9023 210.8 67.1097 210.513 67.5244C210.23 67.9391 210.089 68.4928 210.089 69.1855C210.089 69.8783 210.232 70.4342 210.52 70.8535C210.807 71.2728 211.212 71.4824 211.736 71.4824ZM220.336 73.1504C219.57 73.1504 218.907 72.9863 218.347 72.6582C217.786 72.3255 217.353 71.8652 217.048 71.2773C216.747 70.6849 216.597 69.9967 216.597 69.2129C216.597 68.4245 216.747 67.734 217.048 67.1416C217.353 66.5492 217.786 66.0889 218.347 65.7607C218.907 65.4281 219.57 65.2617 220.336 65.2617C221.102 65.2617 221.765 65.4281 222.325 65.7607C222.886 66.0889 223.316 66.5492 223.617 67.1416C223.923 67.734 224.075 68.4245 224.075 69.2129C224.075 69.9967 223.923 70.6849 223.617 71.2773C223.316 71.8652 222.886 72.3255 222.325 72.6582C221.765 72.9863 221.102 73.1504 220.336 73.1504ZM220.336 71.5371C220.883 71.5371 221.295 71.3161 221.573 70.874C221.851 70.432 221.99 69.876 221.99 69.2061C221.99 68.5316 221.851 67.9756 221.573 67.5381C221.295 67.096 220.883 66.875 220.336 66.875C219.789 66.875 219.377 67.096 219.099 67.5381C218.825 67.9756 218.688 68.5316 218.688 69.2061C218.688 69.876 218.825 70.432 219.099 70.874C219.377 71.3161 219.789 71.5371 220.336 71.5371ZM227.555 68.5771V73H225.504V65.3574H227.438L227.466 66.9365C227.68 66.4033 227.983 65.9909 228.375 65.6992C228.767 65.4076 229.257 65.2617 229.845 65.2617C230.638 65.2617 231.273 65.5169 231.752 66.0273C232.23 66.5378 232.47 67.2419 232.47 68.1396V73H230.419V68.4951C230.419 68.0212 230.296 67.6497 230.05 67.3809C229.808 67.112 229.471 66.9775 229.038 66.9775C228.601 66.9775 228.243 67.1188 227.965 67.4014C227.691 67.6794 227.555 68.0713 227.555 68.5771ZM237.262 73.1504C236.341 73.1504 235.58 72.9544 234.979 72.5625C234.382 72.1706 234.017 71.6191 233.885 70.9082L235.792 70.5801C235.988 71.291 236.498 71.6465 237.323 71.6465C237.715 71.6465 238.023 71.5736 238.246 71.4277C238.474 71.2773 238.588 71.0882 238.588 70.8604C238.588 70.473 238.26 70.2109 237.604 70.0742L236.284 69.8008C234.817 69.5 234.083 68.7777 234.083 67.6338C234.083 66.9001 234.377 66.3213 234.965 65.8975C235.553 65.4736 236.33 65.2617 237.296 65.2617C238.203 65.2617 238.925 65.4463 239.463 65.8154C240.001 66.1846 240.34 66.679 240.481 67.2988L238.663 67.6201C238.581 67.3604 238.431 67.1484 238.212 66.9844C237.993 66.8158 237.697 66.7314 237.323 66.7314C236.986 66.7314 236.703 66.8044 236.476 66.9502C236.248 67.0915 236.134 67.276 236.134 67.5039C236.134 67.6953 236.207 67.8594 236.353 67.9961C236.503 68.1283 236.758 68.2308 237.118 68.3037L238.492 68.5771C239.951 68.8734 240.68 69.5615 240.68 70.6416C240.68 71.1429 240.534 71.5827 240.242 71.9609C239.951 72.3346 239.547 72.6263 239.032 72.8359C238.517 73.0456 237.927 73.1504 237.262 73.1504ZM245.526 73.1504C244.747 73.1504 244.075 72.9909 243.51 72.6719C242.945 72.3529 242.509 71.8994 242.204 71.3115C241.903 70.7236 241.753 70.0264 241.753 69.2197C241.753 68.4313 241.903 67.7409 242.204 67.1484C242.509 66.556 242.936 66.0934 243.482 65.7607C244.034 65.4281 244.681 65.2617 245.424 65.2617C246.089 65.2617 246.693 65.403 247.235 65.6855C247.778 65.9681 248.208 66.3965 248.527 66.9707C248.851 67.5449 249.013 68.2673 249.013 69.1377V69.7119H243.783C243.806 70.3363 243.979 70.8079 244.303 71.127C244.626 71.446 245.046 71.6055 245.561 71.6055C245.921 71.6055 246.228 71.5303 246.483 71.3799C246.743 71.2249 246.928 70.9993 247.037 70.7031L248.896 71.0518C248.71 71.6852 248.322 72.1934 247.734 72.5762C247.151 72.959 246.415 73.1504 245.526 73.1504ZM243.797 68.4268H247.037C246.987 67.93 246.827 67.5358 246.559 67.2441C246.29 66.9525 245.918 66.8066 245.444 66.8066C244.952 66.8066 244.565 66.9593 244.282 67.2646C244 67.5654 243.838 67.9528 243.797 68.4268Z" fill="white"/>
<rect x="513" y="17" width="45" height="30" rx="4" fill="#666977"/>
<path d="M526.435 37.1367C525.482 37.1367 524.646 36.9271 523.926 36.5078C523.206 36.084 522.645 35.4824 522.244 34.7031C521.843 33.9238 521.643 32.9964 521.643 31.9209C521.643 30.8226 521.85 29.8815 522.265 29.0977C522.684 28.3138 523.251 27.7145 523.967 27.2998C524.687 26.8851 525.493 26.6777 526.387 26.6777C527.152 26.6777 527.845 26.8236 528.465 27.1152C529.085 27.4069 529.593 27.8102 529.989 28.3252C530.386 28.8356 530.632 29.4258 530.728 30.0957H528.608C528.463 29.6081 528.203 29.2253 527.829 28.9473C527.455 28.6693 526.986 28.5303 526.421 28.5303C525.637 28.5303 524.997 28.8219 524.5 29.4053C524.008 29.9886 523.762 30.8203 523.762 31.9004C523.762 32.9805 524.006 33.8145 524.493 34.4023C524.981 34.9902 525.632 35.2842 526.448 35.2842C527.173 35.2842 527.743 35.0928 528.157 34.71C528.572 34.3271 528.788 33.8099 528.807 33.1582H526.592V31.5723H530.83V32.8438C530.83 33.737 530.641 34.5049 530.263 35.1475C529.884 35.7855 529.365 36.2777 528.704 36.624C528.043 36.9658 527.287 37.1367 526.435 37.1367ZM532.437 37V26.8145H539.252V28.5439H534.521V31.0049H538.896V32.707H534.521V35.2705H539.266V37H532.437ZM540.53 28.5439V26.8145H548.85V28.5439H545.739V37H543.647V28.5439H540.53Z" fill="white"/>
<rect x="494" y="53" width="84" height="30" rx="4" fill="#666977"/>
<path d="M502.923 73V62.8145H506.895C508.052 62.8145 508.948 63.1175 509.581 63.7236C510.219 64.3252 510.538 65.1273 510.538 66.1299C510.538 66.8271 510.383 67.4242 510.073 67.9209C509.763 68.4131 509.317 68.7822 508.733 69.0283L510.9 73H508.59L506.648 69.3633H505.008V73H502.923ZM505.008 67.6748H506.512C507.76 67.6748 508.385 67.1598 508.385 66.1299C508.385 65.6149 508.23 65.2207 507.92 64.9473C507.615 64.6738 507.143 64.5371 506.505 64.5371H505.008V67.6748ZM515.351 73.1504C514.571 73.1504 513.899 72.9909 513.334 72.6719C512.769 72.3529 512.334 71.8994 512.028 71.3115C511.728 70.7236 511.577 70.0264 511.577 69.2197C511.577 68.4313 511.728 67.7409 512.028 67.1484C512.334 66.556 512.76 66.0934 513.307 65.7607C513.858 65.4281 514.505 65.2617 515.248 65.2617C515.913 65.2617 516.517 65.403 517.06 65.6855C517.602 65.9681 518.033 66.3965 518.352 66.9707C518.675 67.5449 518.837 68.2673 518.837 69.1377V69.7119H513.607C513.63 70.3363 513.803 70.8079 514.127 71.127C514.451 71.446 514.87 71.6055 515.385 71.6055C515.745 71.6055 516.052 71.5303 516.308 71.3799C516.567 71.2249 516.752 70.9993 516.861 70.7031L518.721 71.0518C518.534 71.6852 518.146 72.1934 517.559 72.5762C516.975 72.959 516.239 73.1504 515.351 73.1504ZM513.621 68.4268H516.861C516.811 67.93 516.652 67.5358 516.383 67.2441C516.114 66.9525 515.743 66.8066 515.269 66.8066C514.776 66.8066 514.389 66.9593 514.106 67.2646C513.824 67.5654 513.662 67.9528 513.621 68.4268ZM523.273 73.1504C522.353 73.1504 521.592 72.9544 520.99 72.5625C520.393 72.1706 520.029 71.6191 519.896 70.9082L521.804 70.5801C522 71.291 522.51 71.6465 523.335 71.6465C523.727 71.6465 524.035 71.5736 524.258 71.4277C524.486 71.2773 524.6 71.0882 524.6 70.8604C524.6 70.473 524.271 70.2109 523.615 70.0742L522.296 69.8008C520.828 69.5 520.095 68.7777 520.095 67.6338C520.095 66.9001 520.389 66.3213 520.977 65.8975C521.564 65.4736 522.341 65.2617 523.308 65.2617C524.215 65.2617 524.937 65.4463 525.475 65.8154C526.012 66.1846 526.352 66.679 526.493 67.2988L524.675 67.6201C524.593 67.3604 524.442 67.1484 524.224 66.9844C524.005 66.8158 523.709 66.7314 523.335 66.7314C522.998 66.7314 522.715 66.8044 522.487 66.9502C522.259 67.0915 522.146 67.276 522.146 67.5039C522.146 67.6953 522.218 67.8594 522.364 67.9961C522.515 68.1283 522.77 68.2308 523.13 68.3037L524.504 68.5771C525.962 68.8734 526.691 69.5615 526.691 70.6416C526.691 71.1429 526.546 71.5827 526.254 71.9609C525.962 72.3346 525.559 72.6263 525.044 72.8359C524.529 73.0456 523.939 73.1504 523.273 73.1504ZM528.086 75.8574V65.3574H530.103V66.6426H530.198C530.289 66.4421 530.422 66.2347 530.595 66.0205C530.772 65.8063 531.005 65.6263 531.292 65.4805C531.584 65.3346 531.946 65.2617 532.379 65.2617C532.944 65.2617 533.461 65.4076 533.931 65.6992C534.4 65.9909 534.774 66.4284 535.052 67.0117C535.334 67.5951 535.476 68.3219 535.476 69.1924C535.476 70.04 535.339 70.7578 535.065 71.3457C534.792 71.929 534.421 72.3734 533.951 72.6787C533.482 72.9795 532.953 73.1299 532.365 73.1299C531.951 73.1299 531.6 73.0592 531.312 72.918C531.025 72.7767 530.791 72.6035 530.608 72.3984C530.431 72.1888 530.294 71.9814 530.198 71.7764H530.137V75.8574H528.086ZM531.736 71.4824C532.27 71.4824 532.675 71.2682 532.953 70.8398C533.236 70.4115 533.377 69.86 533.377 69.1855C533.377 68.5156 533.238 67.9688 532.96 67.5449C532.682 67.1165 532.274 66.9023 531.736 66.9023C531.208 66.9023 530.8 67.1097 530.513 67.5244C530.23 67.9391 530.089 68.4928 530.089 69.1855C530.089 69.8783 530.232 70.4342 530.52 70.8535C530.807 71.2728 531.212 71.4824 531.736 71.4824ZM540.336 73.1504C539.57 73.1504 538.907 72.9863 538.347 72.6582C537.786 72.3255 537.353 71.8652 537.048 71.2773C536.747 70.6849 536.597 69.9967 536.597 69.2129C536.597 68.4245 536.747 67.734 537.048 67.1416C537.353 66.5492 537.786 66.0889 538.347 65.7607C538.907 65.4281 539.57 65.2617 540.336 65.2617C541.102 65.2617 541.765 65.4281 542.325 65.7607C542.886 66.0889 543.316 66.5492 543.617 67.1416C543.923 67.734 544.075 68.4245 544.075 69.2129C544.075 69.9967 543.923 70.6849 543.617 71.2773C543.316 71.8652 542.886 72.3255 542.325 72.6582C541.765 72.9863 541.102 73.1504 540.336 73.1504ZM540.336 71.5371C540.883 71.5371 541.295 71.3161 541.573 70.874C541.851 70.432 541.99 69.876 541.99 69.2061C541.99 68.5316 541.851 67.9756 541.573 67.5381C541.295 67.096 540.883 66.875 540.336 66.875C539.789 66.875 539.377 67.096 539.099 67.5381C538.825 67.9756 538.688 68.5316 538.688 69.2061C538.688 69.876 538.825 70.432 539.099 70.874C539.377 71.3161 539.789 71.5371 540.336 71.5371ZM547.555 68.5771V73H545.504V65.3574H547.438L547.466 66.9365C547.68 66.4033 547.983 65.9909 548.375 65.6992C548.767 65.4076 549.257 65.2617 549.845 65.2617C550.638 65.2617 551.273 65.5169 551.752 66.0273C552.23 66.5378 552.47 67.2419 552.47 68.1396V73H550.419V68.4951C550.419 68.0212 550.296 67.6497 550.05 67.3809C549.808 67.112 549.471 66.9775 549.038 66.9775C548.601 66.9775 548.243 67.1188 547.965 67.4014C547.691 67.6794 547.555 68.0713 547.555 68.5771ZM557.262 73.1504C556.341 73.1504 555.58 72.9544 554.979 72.5625C554.382 72.1706 554.017 71.6191 553.885 70.9082L555.792 70.5801C555.988 71.291 556.498 71.6465 557.323 71.6465C557.715 71.6465 558.023 71.5736 558.246 71.4277C558.474 71.2773 558.588 71.0882 558.588 70.8604C558.588 70.473 558.26 70.2109 557.604 70.0742L556.284 69.8008C554.817 69.5 554.083 68.7777 554.083 67.6338C554.083 66.9001 554.377 66.3213 554.965 65.8975C555.553 65.4736 556.33 65.2617 557.296 65.2617C558.203 65.2617 558.925 65.4463 559.463 65.8154C560.001 66.1846 560.34 66.679 560.481 67.2988L558.663 67.6201C558.581 67.3604 558.431 67.1484 558.212 66.9844C557.993 66.8158 557.697 66.7314 557.323 66.7314C556.986 66.7314 556.703 66.8044 556.476 66.9502C556.248 67.0915 556.134 67.276 556.134 67.5039C556.134 67.6953 556.207 67.8594 556.353 67.9961C556.503 68.1283 556.758 68.2308 557.118 68.3037L558.492 68.5771C559.951 68.8734 560.68 69.5615 560.68 70.6416C560.68 71.1429 560.534 71.5827 560.242 71.9609C559.951 72.3346 559.547 72.6263 559.032 72.8359C558.517 73.0456 557.927 73.1504 557.262 73.1504ZM565.526 73.1504C564.747 73.1504 564.075 72.9909 563.51 72.6719C562.945 72.3529 562.509 71.8994 562.204 71.3115C561.903 70.7236 561.753 70.0264 561.753 69.2197C561.753 68.4313 561.903 67.7409 562.204 67.1484C562.509 66.556 562.936 66.0934 563.482 65.7607C564.034 65.4281 564.681 65.2617 565.424 65.2617C566.089 65.2617 566.693 65.403 567.235 65.6855C567.778 65.9681 568.208 66.3965 568.527 66.9707C568.851 67.5449 569.013 68.2673 569.013 69.1377V69.7119H563.783C563.806 70.3363 563.979 70.8079 564.303 71.127C564.626 71.446 565.046 71.6055 565.561 71.6055C565.921 71.6055 566.228 71.5303 566.483 71.3799C566.743 71.2249 566.928 70.9993 567.037 70.7031L568.896 71.0518C568.71 71.6852 568.322 72.1934 567.734 72.5762C567.151 72.959 566.415 73.1504 565.526 73.1504ZM563.797 68.4268H567.037C566.987 67.93 566.827 67.5358 566.559 67.2441C566.29 66.9525 565.918 66.8066 565.444 66.8066C564.952 66.8066 564.565 66.9593 564.282 67.2646C564 67.5654 563.838 67.9528 563.797 68.4268Z" fill="white"/>
<rect x="1" y="1" width="118" height="92" rx="3" fill="white"/>
<rect x="1" y="1" width="118" height="92" rx="3" stroke="#B6B9C9" stroke-width="2"/>
<path d="M49.0557 52.1436C48.208 52.1436 47.4697 51.9886 46.8408 51.6787C46.2119 51.3688 45.722 50.9359 45.3711 50.3799C45.0247 49.8193 44.8516 49.1676 44.8516 48.4248V41.8145H46.9365V48.2539C46.9365 48.8464 47.1279 49.3363 47.5107 49.7236C47.8981 50.1064 48.4131 50.2979 49.0557 50.2979C49.6937 50.2979 50.2041 50.1064 50.5869 49.7236C50.9743 49.3363 51.168 48.8464 51.168 48.2539V41.8145H53.2598V48.4248C53.2598 49.1676 53.082 49.8193 52.7266 50.3799C52.3757 50.9359 51.8857 51.3688 51.2568 51.6787C50.6279 51.9886 49.8942 52.1436 49.0557 52.1436ZM58.0928 52.1504C57.1722 52.1504 56.4111 51.9544 55.8096 51.5625C55.2126 51.1706 54.848 50.6191 54.7158 49.9082L56.623 49.5801C56.819 50.291 57.3294 50.6465 58.1543 50.6465C58.5462 50.6465 58.8538 50.5736 59.0771 50.4277C59.305 50.2773 59.4189 50.0882 59.4189 49.8604C59.4189 49.473 59.0908 49.2109 58.4346 49.0742L57.1152 48.8008C55.6478 48.5 54.9141 47.7777 54.9141 46.6338C54.9141 45.9001 55.208 45.3213 55.7959 44.8975C56.3838 44.4736 57.1608 44.2617 58.127 44.2617C59.0339 44.2617 59.7562 44.4463 60.2939 44.8154C60.8317 45.1846 61.1712 45.679 61.3125 46.2988L59.4941 46.6201C59.4121 46.3604 59.2617 46.1484 59.043 45.9844C58.8242 45.8158 58.528 45.7314 58.1543 45.7314C57.8171 45.7314 57.5345 45.8044 57.3066 45.9502C57.0788 46.0915 56.9648 46.276 56.9648 46.5039C56.9648 46.6953 57.0378 46.8594 57.1836 46.9961C57.334 47.1283 57.5892 47.2308 57.9492 47.3037L59.3232 47.5771C60.7816 47.8734 61.5107 48.5615 61.5107 49.6416C61.5107 50.1429 61.3649 50.5827 61.0732 50.9609C60.7816 51.3346 60.3783 51.6263 59.8633 51.8359C59.3483 52.0456 58.7581 52.1504 58.0928 52.1504ZM66.3574 52.1504C65.5781 52.1504 64.9059 51.9909 64.3408 51.6719C63.7757 51.3529 63.3405 50.8994 63.0352 50.3115C62.7344 49.7236 62.584 49.0264 62.584 48.2197C62.584 47.4313 62.7344 46.7409 63.0352 46.1484C63.3405 45.556 63.7666 45.0934 64.3135 44.7607C64.8649 44.4281 65.512 44.2617 66.2549 44.2617C66.9202 44.2617 67.5241 44.403 68.0664 44.6855C68.6087 44.9681 69.0394 45.3965 69.3584 45.9707C69.682 46.5449 69.8438 47.2673 69.8438 48.1377V48.7119H64.6143C64.637 49.3363 64.8102 49.8079 65.1338 50.127C65.4574 50.446 65.8766 50.6055 66.3916 50.6055C66.7516 50.6055 67.0592 50.5303 67.3145 50.3799C67.5742 50.2249 67.7588 49.9993 67.8682 49.7031L69.7275 50.0518C69.5407 50.6852 69.1533 51.1934 68.5654 51.5762C67.9821 51.959 67.2461 52.1504 66.3574 52.1504ZM64.6279 47.4268H67.8682C67.818 46.93 67.6585 46.5358 67.3896 46.2441C67.1208 45.9525 66.7493 45.8066 66.2754 45.8066C65.7832 45.8066 65.3958 45.9593 65.1133 46.2646C64.8307 46.5654 64.6689 46.9528 64.6279 47.4268ZM71.2451 52V44.3574H73.2275V45.6904H73.3096C73.4508 45.221 73.6855 44.8656 74.0137 44.624C74.3464 44.3779 74.7269 44.2549 75.1553 44.2549C75.3877 44.2549 75.6087 44.2777 75.8184 44.3232V46.1553C75.7272 46.1279 75.5928 46.1051 75.415 46.0869C75.2419 46.0641 75.0801 46.0527 74.9297 46.0527C74.4557 46.0527 74.0638 46.2008 73.7539 46.4971C73.4486 46.7933 73.2959 47.1784 73.2959 47.6523V52H71.2451Z" fill="#12141E"/>
</g>
<defs>
<clipPath id="clip0_385_738">
<rect width="761" height="94" fill="white"/>
</clipPath>
</defs>
</svg>
