<svg width="670" height="250" viewBox="0 0 670 250" fill="none" xmlns="http://www.w3.org/2000/svg">
<g clip-path="url(#clip0_398_1498)">
<rect x="1" y="1" width="203" height="37" rx="3" fill="#FAFBFE"/>
<rect x="1" y="1" width="203" height="37" rx="3" stroke="#B6B9C9" stroke-width="2" stroke-linecap="round" stroke-linejoin="round"/>
<path d="M17.2578 25.1797C15.9036 25.1797 14.8229 24.8672 14.0156 24.2422C13.2135 23.6172 12.7891 22.7292 12.7422 21.5781H14.7969C14.8438 22.1927 15.099 22.651 15.5625 22.9531C16.026 23.25 16.5859 23.3984 17.2422 23.3984C17.9297 23.3984 18.4896 23.2448 18.9219 22.9375C19.3594 22.625 19.5781 22.2188 19.5781 21.7188C19.5781 21.2656 19.3854 20.9245 19 20.6953C18.6146 20.4609 18.1068 20.263 17.4766 20.1016L16.1562 19.7578C15.1823 19.5078 14.4219 19.1302 13.875 18.625C13.3333 18.1198 13.0625 17.4557 13.0625 16.6328C13.0625 15.9453 13.2474 15.3464 13.6172 14.8359C13.987 14.3203 14.4922 13.9193 15.1328 13.6328C15.7734 13.3464 16.5 13.2031 17.3125 13.2031C18.1406 13.2031 18.8646 13.3464 19.4844 13.6328C20.1094 13.9193 20.599 14.3151 20.9531 14.8203C21.3073 15.3255 21.4922 15.901 21.5078 16.5469H19.4844C19.4323 16.0521 19.2083 15.6667 18.8125 15.3906C18.4219 15.1146 17.9115 14.9766 17.2812 14.9766C16.625 14.9766 16.1094 15.1224 15.7344 15.4141C15.3594 15.7005 15.1719 16.0651 15.1719 16.5078C15.1719 16.8359 15.2708 17.1042 15.4688 17.3125C15.6719 17.5156 15.9245 17.6797 16.2266 17.8047C16.5339 17.9297 16.8438 18.0312 17.1562 18.1094L18.2422 18.3906C18.8151 18.5312 19.362 18.7344 19.8828 19C20.4089 19.2604 20.8359 19.612 21.1641 20.0547C21.4974 20.4974 21.6641 21.0573 21.6641 21.7344C21.6641 22.4167 21.4896 23.0182 21.1406 23.5391C20.7917 24.0547 20.2891 24.4583 19.6328 24.75C18.9766 25.0365 18.1849 25.1797 17.2578 25.1797ZM25.5156 19.8828V25H23.4844V13.3594H25.4844V17.8828C26.0156 16.7318 26.8984 16.1562 28.1328 16.1562C29.0339 16.1562 29.7578 16.4427 30.3047 17.0156C30.8516 17.5885 31.125 18.3984 31.125 19.4453V25H29.0859V19.7578C29.0859 19.1745 28.9349 18.7161 28.6328 18.3828C28.3307 18.0495 27.9141 17.8828 27.3828 17.8828C26.8411 17.8828 26.3932 18.0573 26.0391 18.4062C25.6901 18.7552 25.5156 19.2474 25.5156 19.8828ZM37.0703 25.1797C36.2214 25.1797 35.4844 24.9922 34.8594 24.6172C34.2344 24.237 33.75 23.7109 33.4062 23.0391C33.0677 22.362 32.8984 21.5755 32.8984 20.6797C32.8984 19.7734 33.0677 18.9818 33.4062 18.3047C33.75 17.6224 34.2344 17.0938 34.8594 16.7188C35.4844 16.3438 36.2214 16.1562 37.0703 16.1562C37.9193 16.1562 38.6562 16.3438 39.2812 16.7188C39.9062 17.0938 40.3906 17.6224 40.7344 18.3047C41.0781 18.9818 41.25 19.7734 41.25 20.6797C41.25 21.5755 41.0781 22.362 40.7344 23.0391C40.3906 23.7109 39.9062 24.237 39.2812 24.6172C38.6562 24.9922 37.9193 25.1797 37.0703 25.1797ZM37.0703 23.5312C37.5443 23.5312 37.9375 23.4036 38.25 23.1484C38.5625 22.8932 38.7969 22.5495 38.9531 22.1172C39.1094 21.6849 39.1875 21.2031 39.1875 20.6719C39.1875 20.1354 39.1094 19.651 38.9531 19.2188C38.7969 18.7865 38.5625 18.4427 38.25 18.1875C37.9375 17.9323 37.5443 17.8047 37.0703 17.8047C36.6016 17.8047 36.2109 17.9323 35.8984 18.1875C35.5859 18.4427 35.3516 18.7865 35.1953 19.2188C35.0443 19.651 34.9688 20.1354 34.9688 20.6719C34.9688 21.2031 35.0443 21.6849 35.1953 22.1172C35.3516 22.5495 35.5859 22.8932 35.8984 23.1484C36.2109 23.4036 36.6016 23.5312 37.0703 23.5312ZM43.0312 28.2656V16.2656H45.0156V17.7109H45.1484C45.2474 17.5078 45.3932 17.2865 45.5859 17.0469C45.7786 16.8021 46.0417 16.5938 46.375 16.4219C46.7083 16.2448 47.1328 16.1562 47.6484 16.1562C48.3203 16.1562 48.9271 16.3281 49.4688 16.6719C50.0156 17.0156 50.4479 17.5234 50.7656 18.1953C51.0885 18.862 51.25 19.6797 51.25 20.6484C51.25 21.6068 51.0911 22.4219 50.7734 23.0938C50.4609 23.7656 50.0339 24.2786 49.4922 24.6328C48.9505 24.9818 48.3333 25.1562 47.6406 25.1562C47.1406 25.1562 46.724 25.0729 46.3906 24.9062C46.0625 24.7344 45.7995 24.5286 45.6016 24.2891C45.4036 24.0495 45.2526 23.8255 45.1484 23.6172H45.0625V28.2656H43.0312ZM47.0938 23.4844C47.7708 23.4844 48.2839 23.2161 48.6328 22.6797C48.987 22.138 49.1641 21.4583 49.1641 20.6406C49.1641 19.8281 48.9896 19.1562 48.6406 18.625C48.2969 18.0938 47.7812 17.8281 47.0938 17.8281C46.4219 17.8281 45.9089 18.0859 45.5547 18.6016C45.2005 19.112 45.0234 19.7917 45.0234 20.6406C45.0234 21.4896 45.2031 22.1771 45.5625 22.7031C45.9219 23.224 46.4323 23.4844 47.0938 23.4844ZM54.6328 25L52.0312 16.2656H54.1719L55.0312 19.6875C55.1406 20.1667 55.2604 20.6875 55.3906 21.25C55.526 21.8073 55.6562 22.4167 55.7812 23.0781C55.9062 22.4323 56.0365 21.8307 56.1719 21.2734C56.3073 20.7109 56.4375 20.1823 56.5625 19.6875L57.4453 16.2656H59.3828L60.2422 19.6875C60.3568 20.1719 60.4818 20.6953 60.6172 21.2578C60.7526 21.8151 60.8854 22.4219 61.0156 23.0781C61.1354 22.4271 61.2578 21.8229 61.3828 21.2656C61.513 20.7031 61.638 20.1771 61.7578 19.6875L62.6172 16.2656H64.7734L62.1641 25H60.1094L59.0859 21.4375C58.9661 21.0208 58.849 20.5677 58.7344 20.0781C58.6198 19.5833 58.5078 19.0911 58.3984 18.6016C58.2891 19.0911 58.1745 19.5833 58.0547 20.0781C57.9401 20.5729 57.8255 21.026 57.7109 21.4375L56.6875 25H54.6328ZM68.6094 25.1797C68.0573 25.1797 67.5599 25.0807 67.1172 24.8828C66.6745 24.6797 66.3255 24.3828 66.0703 23.9922C65.8151 23.6016 65.6875 23.1198 65.6875 22.5469C65.6875 21.8906 65.8464 21.3828 66.1641 21.0234C66.487 20.6589 66.901 20.3958 67.4062 20.2344C67.9167 20.0677 68.4531 19.9557 69.0156 19.8984C69.776 19.8151 70.3255 19.7396 70.6641 19.6719C71.0026 19.599 71.1719 19.4115 71.1719 19.1094V19.0703C71.1719 18.6432 71.0417 18.3125 70.7812 18.0781C70.5208 17.8385 70.1432 17.7188 69.6484 17.7188C69.138 17.7188 68.7318 17.8307 68.4297 18.0547C68.1276 18.2786 67.9245 18.5339 67.8203 18.8203L65.9375 18.4375C66.1927 17.6667 66.6536 17.0938 67.3203 16.7188C67.9922 16.3438 68.7656 16.1562 69.6406 16.1562C70.0521 16.1562 70.4661 16.2057 70.8828 16.3047C71.3047 16.3984 71.6901 16.5599 72.0391 16.7891C72.388 17.013 72.6693 17.3203 72.8828 17.7109C73.0964 18.0964 73.2031 18.5807 73.2031 19.1641V25H71.2578V23.7969H71.1797C70.987 24.1719 70.6797 24.4974 70.2578 24.7734C69.8359 25.0443 69.2865 25.1797 68.6094 25.1797ZM69.1328 23.6719C69.7578 23.6719 70.2552 23.4922 70.625 23.1328C71 22.7734 71.1875 22.3516 71.1875 21.8672V20.8359C71.0938 20.9089 70.9271 20.974 70.6875 21.0312C70.4479 21.0833 70.1927 21.1302 69.9219 21.1719C69.6562 21.2083 69.4349 21.2396 69.2578 21.2656C68.7995 21.3281 68.4167 21.4531 68.1094 21.6406C67.8073 21.8281 67.6562 22.1224 67.6562 22.5234C67.6562 22.8984 67.7943 23.1849 68.0703 23.3828C68.3464 23.5755 68.7005 23.6719 69.1328 23.6719ZM75.3594 25V16.2656H77.3281V17.7266H77.4219C77.5781 17.2214 77.8516 16.8333 78.2422 16.5625C78.6328 16.2865 79.0781 16.1484 79.5781 16.1484C79.8385 16.1484 80.0859 16.1667 80.3203 16.2031V18.0703C80.237 18.0495 80.1016 18.0286 79.9141 18.0078C79.7266 17.9818 79.5417 17.9688 79.3594 17.9688C78.7917 17.9688 78.3203 18.1458 77.9453 18.5C77.5755 18.849 77.3906 19.3021 77.3906 19.8594V25H75.3594ZM85.2188 25.1797C84.3385 25.1797 83.5807 24.9948 82.9453 24.625C82.3151 24.2552 81.8281 23.7344 81.4844 23.0625C81.1458 22.3906 80.9766 21.599 80.9766 20.6875C80.9766 19.7917 81.1432 19.0052 81.4766 18.3281C81.8151 17.6458 82.2917 17.1146 82.9062 16.7344C83.526 16.349 84.2526 16.1562 85.0859 16.1562C85.7943 16.1562 86.4505 16.3125 87.0547 16.625C87.6641 16.9323 88.1536 17.4115 88.5234 18.0625C88.8932 18.7083 89.0781 19.5417 89.0781 20.5625V21.2031H83C83.026 21.9792 83.2422 22.5703 83.6484 22.9766C84.0599 23.3828 84.5911 23.5859 85.2422 23.5859C85.6901 23.5859 86.0729 23.4896 86.3906 23.2969C86.7135 23.1042 86.9427 22.8229 87.0781 22.4531L88.9453 22.8359C88.737 23.5391 88.3047 24.1068 87.6484 24.5391C86.9974 24.9661 86.1875 25.1797 85.2188 25.1797ZM83.0078 19.8203H87.1016C87.0391 19.1953 86.8385 18.6953 86.5 18.3203C86.1667 17.9401 85.6979 17.75 85.0938 17.75C84.474 17.75 83.9818 17.9505 83.6172 18.3516C83.2578 18.7474 83.0547 19.237 83.0078 19.8203ZM94.9531 25V13.3594H99.3047C100.195 13.3594 100.945 13.526 101.555 13.8594C102.164 14.1927 102.625 14.651 102.938 15.2344C103.25 15.8125 103.406 16.4714 103.406 17.2109C103.406 17.9557 103.247 18.6198 102.93 19.2031C102.617 19.7812 102.154 20.237 101.539 20.5703C100.924 20.8984 100.169 21.0625 99.2734 21.0625H97.0391V25H94.9531ZM97.0391 19.3438H99C99.7865 19.3438 100.362 19.1432 100.727 18.7422C101.091 18.3411 101.273 17.8307 101.273 17.2109C101.273 16.5911 101.091 16.0859 100.727 15.6953C100.362 15.3047 99.7812 15.1094 98.9844 15.1094H97.0391V19.3438ZM105.281 25V13.3594H107.367V18.1719H112.781V13.3594H114.867V25H112.781V19.9297H107.367V25H105.281ZM117.219 25V13.3594H121.57C122.461 13.3594 123.211 13.526 123.82 13.8594C124.43 14.1927 124.891 14.651 125.203 15.2344C125.516 15.8125 125.672 16.4714 125.672 17.2109C125.672 17.9557 125.513 18.6198 125.195 19.2031C124.883 19.7812 124.419 20.237 123.805 20.5703C123.19 20.8984 122.435 21.0625 121.539 21.0625H119.305V25H117.219ZM119.305 19.3438H121.266C122.052 19.3438 122.628 19.1432 122.992 18.7422C123.357 18.3411 123.539 17.8307 123.539 17.2109C123.539 16.5911 123.357 16.0859 122.992 15.6953C122.628 15.3047 122.047 15.1094 121.25 15.1094H119.305V19.3438ZM131.578 25V13.3594H135.93C136.82 13.3594 137.57 13.526 138.18 13.8594C138.789 14.1927 139.25 14.651 139.562 15.2344C139.875 15.8125 140.031 16.4714 140.031 17.2109C140.031 17.9557 139.872 18.6198 139.555 19.2031C139.242 19.7812 138.779 20.237 138.164 20.5703C137.549 20.8984 136.794 21.0625 135.898 21.0625H133.664V25H131.578ZM133.664 19.3438H135.625C136.411 19.3438 136.987 19.1432 137.352 18.7422C137.716 18.3411 137.898 17.8307 137.898 17.2109C137.898 16.5911 137.716 16.0859 137.352 15.6953C136.987 15.3047 136.406 15.1094 135.609 15.1094H133.664V19.3438ZM141.812 25V16.2656H143.781V17.7266H143.875C144.031 17.2214 144.305 16.8333 144.695 16.5625C145.086 16.2865 145.531 16.1484 146.031 16.1484C146.292 16.1484 146.539 16.1667 146.773 16.2031V18.0703C146.69 18.0495 146.555 18.0286 146.367 18.0078C146.18 17.9818 145.995 17.9688 145.812 17.9688C145.245 17.9688 144.773 18.1458 144.398 18.5C144.029 18.849 143.844 19.3021 143.844 19.8594V25H141.812ZM151.602 25.1797C150.753 25.1797 150.016 24.9922 149.391 24.6172C148.766 24.237 148.281 23.7109 147.938 23.0391C147.599 22.362 147.43 21.5755 147.43 20.6797C147.43 19.7734 147.599 18.9818 147.938 18.3047C148.281 17.6224 148.766 17.0938 149.391 16.7188C150.016 16.3438 150.753 16.1562 151.602 16.1562C152.451 16.1562 153.188 16.3438 153.812 16.7188C154.438 17.0938 154.922 17.6224 155.266 18.3047C155.609 18.9818 155.781 19.7734 155.781 20.6797C155.781 21.5755 155.609 22.362 155.266 23.0391C154.922 23.7109 154.438 24.237 153.812 24.6172C153.188 24.9922 152.451 25.1797 151.602 25.1797ZM151.602 23.5312C152.076 23.5312 152.469 23.4036 152.781 23.1484C153.094 22.8932 153.328 22.5495 153.484 22.1172C153.641 21.6849 153.719 21.2031 153.719 20.6719C153.719 20.1354 153.641 19.651 153.484 19.2188C153.328 18.7865 153.094 18.4427 152.781 18.1875C152.469 17.9323 152.076 17.8047 151.602 17.8047C151.133 17.8047 150.742 17.9323 150.43 18.1875C150.117 18.4427 149.883 18.7865 149.727 19.2188C149.576 19.651 149.5 20.1354 149.5 20.6719C149.5 21.2031 149.576 21.6849 149.727 22.1172C149.883 22.5495 150.117 22.8932 150.43 23.1484C150.742 23.4036 151.133 23.5312 151.602 23.5312ZM161.352 25.1797C160.503 25.1797 159.766 24.9922 159.141 24.6172C158.516 24.237 158.031 23.7109 157.688 23.0391C157.349 22.362 157.18 21.5755 157.18 20.6797C157.18 19.7734 157.349 18.9818 157.688 18.3047C158.031 17.6224 158.516 17.0938 159.141 16.7188C159.766 16.3438 160.503 16.1562 161.352 16.1562C162.326 16.1562 163.148 16.401 163.82 16.8906C164.497 17.375 164.93 18.0443 165.117 18.8984L163.219 19.2969C163.109 18.8438 162.896 18.4818 162.578 18.2109C162.26 17.9401 161.857 17.8047 161.367 17.8047C160.659 17.8047 160.128 18.0781 159.773 18.625C159.424 19.1719 159.25 19.8542 159.25 20.6719C159.25 21.2083 159.328 21.6927 159.484 22.125C159.641 22.5573 159.875 22.901 160.188 23.1562C160.5 23.4062 160.893 23.5312 161.367 23.5312C161.867 23.5312 162.276 23.3906 162.594 23.1094C162.917 22.8229 163.133 22.4453 163.242 21.9766L165.141 22.375C164.953 23.2448 164.521 23.9297 163.844 24.4297C163.167 24.9297 162.336 25.1797 161.352 25.1797ZM170.75 25.1797C169.87 25.1797 169.112 24.9948 168.477 24.625C167.846 24.2552 167.359 23.7344 167.016 23.0625C166.677 22.3906 166.508 21.599 166.508 20.6875C166.508 19.7917 166.674 19.0052 167.008 18.3281C167.346 17.6458 167.823 17.1146 168.438 16.7344C169.057 16.349 169.784 16.1562 170.617 16.1562C171.326 16.1562 171.982 16.3125 172.586 16.625C173.195 16.9323 173.685 17.4115 174.055 18.0625C174.424 18.7083 174.609 19.5417 174.609 20.5625V21.2031H168.531C168.557 21.9792 168.773 22.5703 169.18 22.9766C169.591 23.3828 170.122 23.5859 170.773 23.5859C171.221 23.5859 171.604 23.4896 171.922 23.2969C172.245 23.1042 172.474 22.8229 172.609 22.4531L174.477 22.8359C174.268 23.5391 173.836 24.1068 173.18 24.5391C172.529 24.9661 171.719 25.1797 170.75 25.1797ZM168.539 19.8203H172.633C172.57 19.1953 172.37 18.6953 172.031 18.3203C171.698 17.9401 171.229 17.75 170.625 17.75C170.005 17.75 169.513 17.9505 169.148 18.3516C168.789 18.7474 168.586 19.237 168.539 19.8203ZM179.664 25.1797C178.659 25.1797 177.828 24.9661 177.172 24.5391C176.521 24.1068 176.12 23.4948 175.969 22.7031L177.867 22.3438C178.096 23.1979 178.708 23.625 179.703 23.625C180.203 23.625 180.599 23.526 180.891 23.3281C181.188 23.125 181.336 22.875 181.336 22.5781C181.336 22.0833 180.943 21.75 180.156 21.5781L178.664 21.2578C177.029 20.9036 176.211 20.0885 176.211 18.8125C176.211 18.2708 176.359 17.8021 176.656 17.4062C176.953 17.0104 177.365 16.7031 177.891 16.4844C178.422 16.2656 179.036 16.1562 179.734 16.1562C180.724 16.1562 181.505 16.362 182.078 16.7734C182.656 17.1849 183.034 17.7292 183.211 18.4062L181.398 18.7656C181.294 18.4635 181.112 18.2057 180.852 17.9922C180.591 17.7786 180.227 17.6719 179.758 17.6719C179.331 17.6719 178.971 17.7682 178.68 17.9609C178.388 18.1484 178.242 18.3906 178.242 18.6875C178.242 18.9427 178.336 19.1536 178.523 19.3203C178.716 19.4818 179.036 19.612 179.484 19.7109L180.969 20.0234C182.599 20.3724 183.414 21.1589 183.414 22.3828C183.414 22.9349 183.255 23.4219 182.938 23.8438C182.62 24.2604 182.177 24.5885 181.609 24.8281C181.047 25.0625 180.398 25.1797 179.664 25.1797ZM188.461 25.1797C187.456 25.1797 186.625 24.9661 185.969 24.5391C185.318 24.1068 184.917 23.4948 184.766 22.7031L186.664 22.3438C186.893 23.1979 187.505 23.625 188.5 23.625C189 23.625 189.396 23.526 189.688 23.3281C189.984 23.125 190.133 22.875 190.133 22.5781C190.133 22.0833 189.74 21.75 188.953 21.5781L187.461 21.2578C185.826 20.9036 185.008 20.0885 185.008 18.8125C185.008 18.2708 185.156 17.8021 185.453 17.4062C185.75 17.0104 186.161 16.7031 186.688 16.4844C187.219 16.2656 187.833 16.1562 188.531 16.1562C189.521 16.1562 190.302 16.362 190.875 16.7734C191.453 17.1849 191.831 17.7292 192.008 18.4062L190.195 18.7656C190.091 18.4635 189.909 18.2057 189.648 17.9922C189.388 17.7786 189.023 17.6719 188.555 17.6719C188.128 17.6719 187.768 17.7682 187.477 17.9609C187.185 18.1484 187.039 18.3906 187.039 18.6875C187.039 18.9427 187.133 19.1536 187.32 19.3203C187.513 19.4818 187.833 19.612 188.281 19.7109L189.766 20.0234C191.396 20.3724 192.211 21.1589 192.211 22.3828C192.211 22.9349 192.052 23.4219 191.734 23.8438C191.417 24.2604 190.974 24.5885 190.406 24.8281C189.844 25.0625 189.195 25.1797 188.461 25.1797Z" fill="#12141E"/>
<rect x="1" y="48" width="203" height="201" rx="3" fill="#FAFBFE"/>
<rect x="1" y="48" width="203" height="201" rx="3" stroke="#B6B9C9" stroke-width="2" stroke-linecap="round" stroke-linejoin="round"/>
<path d="M520.707 125.707C521.098 125.317 521.098 124.683 520.707 124.293L514.343 117.929C513.953 117.538 513.319 117.538 512.929 117.929C512.538 118.319 512.538 118.953 512.929 119.343L518.586 125L512.929 130.657C512.538 131.047 512.538 131.681 512.929 132.071C513.319 132.462 513.953 132.462 514.343 132.071L520.707 125.707ZM171 126L520 126L520 124L171 124L171 126Z" fill="#B6B9C9"/>
<path d="M172.293 174.293C171.902 174.683 171.902 175.317 172.293 175.707L178.657 182.071C179.047 182.462 179.681 182.462 180.071 182.071C180.462 181.68 180.462 181.047 180.071 180.657L174.414 175L180.071 169.343C180.462 168.953 180.462 168.319 180.071 167.929C179.681 167.538 179.047 167.538 178.657 167.929L172.293 174.293ZM521 174L173 174L173 176L521 176L521 174Z" fill="#B6B9C9"/>
<rect x="264" y="110" width="165" height="30" rx="4" fill="#666977"/>
<path d="M272.923 130V119.814H275.247L278.467 124.969C278.667 125.301 278.875 125.668 279.089 126.069C279.303 126.466 279.522 126.931 279.745 127.464C279.709 126.963 279.677 126.461 279.649 125.96C279.627 125.454 279.615 125.035 279.615 124.702V119.814H281.748V130H279.417L276.491 125.324C276.304 125.019 276.131 124.723 275.972 124.436C275.812 124.148 275.648 123.843 275.479 123.52C275.315 123.191 275.129 122.815 274.919 122.392C274.955 123.007 274.987 123.574 275.015 124.094C275.042 124.609 275.056 125.017 275.056 125.317V130H272.923ZM286.971 130.15C286.205 130.15 285.542 129.986 284.981 129.658C284.421 129.326 283.988 128.865 283.683 128.277C283.382 127.685 283.231 126.997 283.231 126.213C283.231 125.424 283.382 124.734 283.683 124.142C283.988 123.549 284.421 123.089 284.981 122.761C285.542 122.428 286.205 122.262 286.971 122.262C287.736 122.262 288.399 122.428 288.96 122.761C289.521 123.089 289.951 123.549 290.252 124.142C290.557 124.734 290.71 125.424 290.71 126.213C290.71 126.997 290.557 127.685 290.252 128.277C289.951 128.865 289.521 129.326 288.96 129.658C288.399 129.986 287.736 130.15 286.971 130.15ZM286.971 128.537C287.518 128.537 287.93 128.316 288.208 127.874C288.486 127.432 288.625 126.876 288.625 126.206C288.625 125.532 288.486 124.976 288.208 124.538C287.93 124.096 287.518 123.875 286.971 123.875C286.424 123.875 286.011 124.096 285.733 124.538C285.46 124.976 285.323 125.532 285.323 126.206C285.323 126.876 285.46 127.432 285.733 127.874C286.011 128.316 286.424 128.537 286.971 128.537ZM295.933 122.357V123.923H294.504V127.765C294.504 128.239 294.736 128.476 295.201 128.476C295.279 128.476 295.386 128.466 295.522 128.448C295.664 128.425 295.773 128.405 295.851 128.387L296.145 129.925C295.917 129.993 295.689 130.041 295.461 130.068C295.238 130.096 295.023 130.109 294.818 130.109C294.053 130.109 293.467 129.925 293.062 129.556C292.656 129.182 292.453 128.644 292.453 127.942V123.923H291.4V122.357H292.453V120.539H294.504V122.357H295.933ZM297.266 130V122.357H299.316V130H297.266ZM298.291 121.359C297.981 121.359 297.717 121.257 297.498 121.052C297.279 120.847 297.17 120.598 297.17 120.307C297.17 120.015 297.279 119.767 297.498 119.562C297.717 119.356 297.981 119.254 298.291 119.254C298.601 119.254 298.865 119.356 299.084 119.562C299.307 119.767 299.419 120.015 299.419 120.307C299.419 120.598 299.307 120.847 299.084 121.052C298.865 121.257 298.601 121.359 298.291 121.359ZM305.318 122.357V123.923H303.719V130H301.675V123.923H300.328V122.357H301.675V121.77C301.675 120.958 301.912 120.35 302.386 119.944C302.86 119.539 303.45 119.336 304.156 119.336C304.48 119.336 304.774 119.361 305.038 119.411C305.302 119.461 305.498 119.507 305.626 119.548L305.257 121.093C305.175 121.07 305.072 121.047 304.949 121.024C304.831 121.002 304.705 120.99 304.573 120.99C304.259 120.99 304.038 121.065 303.91 121.216C303.783 121.362 303.719 121.569 303.719 121.838V122.357H305.318ZM306.768 130V122.357H308.818V130H306.768ZM307.793 121.359C307.483 121.359 307.219 121.257 307 121.052C306.781 120.847 306.672 120.598 306.672 120.307C306.672 120.015 306.781 119.767 307 119.562C307.219 119.356 307.483 119.254 307.793 119.254C308.103 119.254 308.367 119.356 308.586 119.562C308.809 119.767 308.921 120.015 308.921 120.307C308.921 120.598 308.809 120.847 308.586 121.052C308.367 121.257 308.103 121.359 307.793 121.359ZM313.986 130.15C313.216 130.15 312.551 129.986 311.99 129.658C311.434 129.326 311.004 128.865 310.698 128.277C310.397 127.685 310.247 126.997 310.247 126.213C310.247 125.424 310.397 124.734 310.698 124.142C311.004 123.549 311.434 123.089 311.99 122.761C312.551 122.428 313.216 122.262 313.986 122.262C314.893 122.262 315.65 122.49 316.256 122.945C316.862 123.396 317.238 124.016 317.384 124.805L315.477 125.16C315.39 124.764 315.221 124.451 314.971 124.224C314.725 123.991 314.403 123.875 314.007 123.875C313.46 123.875 313.045 124.091 312.763 124.524C312.48 124.953 312.339 125.513 312.339 126.206C312.339 126.89 312.48 127.45 312.763 127.888C313.045 128.321 313.46 128.537 314.007 128.537C314.403 128.537 314.729 128.419 314.984 128.182C315.24 127.94 315.408 127.614 315.49 127.204L317.397 127.553C317.252 128.359 316.876 128.995 316.27 129.46C315.663 129.92 314.902 130.15 313.986 130.15ZM321.082 130.15C320.353 130.15 319.747 129.959 319.264 129.576C318.781 129.189 318.539 128.617 318.539 127.86C318.539 127.291 318.676 126.844 318.949 126.521C319.223 126.197 319.578 125.96 320.016 125.81C320.453 125.659 320.923 125.561 321.424 125.516C322.08 125.452 322.552 125.386 322.839 125.317C323.131 125.244 323.276 125.083 323.276 124.832V124.798C323.276 124.474 323.172 124.224 322.962 124.046C322.757 123.868 322.463 123.779 322.08 123.779C321.684 123.779 321.365 123.866 321.123 124.039C320.882 124.208 320.72 124.415 320.638 124.661L318.758 124.347C318.954 123.686 319.343 123.173 319.927 122.809C320.515 122.444 321.235 122.262 322.087 122.262C322.634 122.262 323.153 122.348 323.646 122.521C324.142 122.695 324.546 122.973 324.855 123.355C325.17 123.734 325.327 124.233 325.327 124.853V130H323.386V128.94H323.317C323.131 129.296 322.853 129.588 322.483 129.815C322.114 130.039 321.647 130.15 321.082 130.15ZM321.663 128.708C322.142 128.708 322.531 128.569 322.832 128.291C323.137 128.013 323.29 127.671 323.29 127.266V126.438C323.208 126.498 323.074 126.55 322.887 126.596C322.704 126.637 322.511 126.675 322.306 126.712C322.101 126.744 321.923 126.769 321.772 126.787C321.394 126.842 321.089 126.949 320.856 127.108C320.624 127.268 320.508 127.5 320.508 127.806C320.508 128.102 320.615 128.327 320.829 128.482C321.048 128.633 321.326 128.708 321.663 128.708ZM330.878 122.357V123.923H329.449V127.765C329.449 128.239 329.682 128.476 330.146 128.476C330.224 128.476 330.331 128.466 330.468 128.448C330.609 128.425 330.718 128.405 330.796 128.387L331.09 129.925C330.862 129.993 330.634 130.041 330.406 130.068C330.183 130.096 329.969 130.109 329.764 130.109C328.998 130.109 328.412 129.925 328.007 129.556C327.601 129.182 327.398 128.644 327.398 127.942V123.923H326.346V122.357H327.398V120.539H329.449V122.357H330.878ZM332.211 130V122.357H334.262V130H332.211ZM333.236 121.359C332.926 121.359 332.662 121.257 332.443 121.052C332.225 120.847 332.115 120.598 332.115 120.307C332.115 120.015 332.225 119.767 332.443 119.562C332.662 119.356 332.926 119.254 333.236 119.254C333.546 119.254 333.811 119.356 334.029 119.562C334.253 119.767 334.364 120.015 334.364 120.307C334.364 120.598 334.253 120.847 334.029 121.052C333.811 121.257 333.546 121.359 333.236 121.359ZM339.43 130.15C338.664 130.15 338.001 129.986 337.44 129.658C336.88 129.326 336.447 128.865 336.142 128.277C335.841 127.685 335.69 126.997 335.69 126.213C335.69 125.424 335.841 124.734 336.142 124.142C336.447 123.549 336.88 123.089 337.44 122.761C338.001 122.428 338.664 122.262 339.43 122.262C340.195 122.262 340.858 122.428 341.419 122.761C341.979 123.089 342.41 123.549 342.711 124.142C343.016 124.734 343.169 125.424 343.169 126.213C343.169 126.997 343.016 127.685 342.711 128.277C342.41 128.865 341.979 129.326 341.419 129.658C340.858 129.986 340.195 130.15 339.43 130.15ZM339.43 128.537C339.977 128.537 340.389 128.316 340.667 127.874C340.945 127.432 341.084 126.876 341.084 126.206C341.084 125.532 340.945 124.976 340.667 124.538C340.389 124.096 339.977 123.875 339.43 123.875C338.883 123.875 338.47 124.096 338.192 124.538C337.919 124.976 337.782 125.532 337.782 126.206C337.782 126.876 337.919 127.432 338.192 127.874C338.47 128.316 338.883 128.537 339.43 128.537ZM346.648 125.577V130H344.598V122.357H346.532L346.56 123.937C346.774 123.403 347.077 122.991 347.469 122.699C347.861 122.408 348.351 122.262 348.938 122.262C349.731 122.262 350.367 122.517 350.846 123.027C351.324 123.538 351.563 124.242 351.563 125.14V130H349.513V125.495C349.513 125.021 349.39 124.65 349.144 124.381C348.902 124.112 348.565 123.978 348.132 123.978C347.694 123.978 347.337 124.119 347.059 124.401C346.785 124.679 346.648 125.071 346.648 125.577ZM358.837 130L356.103 119.814H358.379L359.562 124.825C359.666 125.295 359.762 125.796 359.849 126.329C359.94 126.862 360.026 127.391 360.108 127.915C360.2 127.391 360.293 126.862 360.389 126.329C360.484 125.796 360.589 125.295 360.703 124.825L361.947 119.814H364.114L365.352 124.825C365.465 125.29 365.57 125.787 365.666 126.315C365.762 126.844 365.855 127.368 365.946 127.888C366.028 127.368 366.113 126.844 366.199 126.315C366.29 125.787 366.388 125.29 366.493 124.825L367.676 119.814H369.959L367.218 130H364.839L363.485 124.791C363.394 124.422 363.312 124.035 363.239 123.629C363.166 123.219 363.093 122.795 363.021 122.357C362.957 122.781 362.891 123.198 362.822 123.608C362.754 124.014 362.67 124.408 362.569 124.791L361.223 130H358.837ZM373.931 130.15C373.151 130.15 372.479 129.991 371.914 129.672C371.349 129.353 370.914 128.899 370.608 128.312C370.308 127.724 370.157 127.026 370.157 126.22C370.157 125.431 370.308 124.741 370.608 124.148C370.914 123.556 371.34 123.093 371.887 122.761C372.438 122.428 373.085 122.262 373.828 122.262C374.493 122.262 375.097 122.403 375.64 122.686C376.182 122.968 376.613 123.396 376.932 123.971C377.255 124.545 377.417 125.267 377.417 126.138V126.712H372.188C372.21 127.336 372.383 127.808 372.707 128.127C373.031 128.446 373.45 128.605 373.965 128.605C374.325 128.605 374.632 128.53 374.888 128.38C375.147 128.225 375.332 127.999 375.441 127.703L377.301 128.052C377.114 128.685 376.727 129.193 376.139 129.576C375.555 129.959 374.819 130.15 373.931 130.15ZM372.201 125.427H375.441C375.391 124.93 375.232 124.536 374.963 124.244C374.694 123.952 374.323 123.807 373.849 123.807C373.356 123.807 372.969 123.959 372.687 124.265C372.404 124.565 372.242 124.953 372.201 125.427ZM383.098 130.13C382.683 130.13 382.332 130.059 382.045 129.918C381.758 129.777 381.523 129.604 381.341 129.398C381.163 129.189 381.026 128.981 380.931 128.776H380.835V130H378.818V119.814H380.869V123.643H380.931C381.022 123.442 381.154 123.235 381.327 123.021C381.505 122.806 381.737 122.626 382.024 122.48C382.316 122.335 382.678 122.262 383.111 122.262C383.676 122.262 384.194 122.408 384.663 122.699C385.132 122.991 385.506 123.428 385.784 124.012C386.067 124.595 386.208 125.322 386.208 126.192C386.208 127.04 386.071 127.758 385.798 128.346C385.524 128.929 385.153 129.373 384.684 129.679C384.214 129.979 383.686 130.13 383.098 130.13ZM382.469 128.482C383.002 128.482 383.408 128.268 383.686 127.84C383.968 127.411 384.109 126.86 384.109 126.186C384.109 125.516 383.97 124.969 383.692 124.545C383.414 124.117 383.007 123.902 382.469 123.902C381.94 123.902 381.532 124.11 381.245 124.524C380.963 124.939 380.821 125.493 380.821 126.186C380.821 126.878 380.965 127.434 381.252 127.854C381.539 128.273 381.945 128.482 382.469 128.482ZM389.701 125.577V130H387.65V119.814H389.66V123.82C389.883 123.324 390.187 122.941 390.569 122.672C390.952 122.398 391.426 122.262 391.991 122.262C392.784 122.262 393.42 122.517 393.898 123.027C394.382 123.538 394.623 124.242 394.623 125.14V130H392.565V125.495C392.565 125.021 392.442 124.65 392.196 124.381C391.955 124.112 391.618 123.978 391.185 123.978C390.747 123.978 390.389 124.119 390.111 124.401C389.838 124.679 389.701 125.071 389.701 125.577ZM399.791 130.15C399.025 130.15 398.362 129.986 397.802 129.658C397.241 129.326 396.808 128.865 396.503 128.277C396.202 127.685 396.052 126.997 396.052 126.213C396.052 125.424 396.202 124.734 396.503 124.142C396.808 123.549 397.241 123.089 397.802 122.761C398.362 122.428 399.025 122.262 399.791 122.262C400.557 122.262 401.22 122.428 401.78 122.761C402.341 123.089 402.771 123.549 403.072 124.142C403.378 124.734 403.53 125.424 403.53 126.213C403.53 126.997 403.378 127.685 403.072 128.277C402.771 128.865 402.341 129.326 401.78 129.658C401.22 129.986 400.557 130.15 399.791 130.15ZM399.791 128.537C400.338 128.537 400.75 128.316 401.028 127.874C401.306 127.432 401.445 126.876 401.445 126.206C401.445 125.532 401.306 124.976 401.028 124.538C400.75 124.096 400.338 123.875 399.791 123.875C399.244 123.875 398.832 124.096 398.554 124.538C398.28 124.976 398.144 125.532 398.144 126.206C398.144 126.876 398.28 127.432 398.554 127.874C398.832 128.316 399.244 128.537 399.791 128.537ZM408.377 130.15C407.611 130.15 406.948 129.986 406.388 129.658C405.827 129.326 405.394 128.865 405.089 128.277C404.788 127.685 404.638 126.997 404.638 126.213C404.638 125.424 404.788 124.734 405.089 124.142C405.394 123.549 405.827 123.089 406.388 122.761C406.948 122.428 407.611 122.262 408.377 122.262C409.143 122.262 409.806 122.428 410.366 122.761C410.927 123.089 411.357 123.549 411.658 124.142C411.964 124.734 412.116 125.424 412.116 126.213C412.116 126.997 411.964 127.685 411.658 128.277C411.357 128.865 410.927 129.326 410.366 129.658C409.806 129.986 409.143 130.15 408.377 130.15ZM408.377 128.537C408.924 128.537 409.336 128.316 409.614 127.874C409.892 127.432 410.031 126.876 410.031 126.206C410.031 125.532 409.892 124.976 409.614 124.538C409.336 124.096 408.924 123.875 408.377 123.875C407.83 123.875 407.418 124.096 407.14 124.538C406.866 124.976 406.729 125.532 406.729 126.206C406.729 126.876 406.866 127.432 407.14 127.874C407.418 128.316 407.83 128.537 408.377 128.537ZM413.545 130V119.814H415.596V125.297H415.712L418.214 122.357H420.586L417.729 125.673L420.729 130H418.316L416.184 126.883L415.596 127.546V130H413.545Z" fill="white"/>
<rect x="307" y="160" width="80" height="30" rx="4" fill="#666977"/>
<path d="M315.923 180V169.814H319.895C321.052 169.814 321.948 170.118 322.581 170.724C323.219 171.325 323.538 172.127 323.538 173.13C323.538 173.827 323.383 174.424 323.073 174.921C322.763 175.413 322.317 175.782 321.733 176.028L323.9 180H321.59L319.648 176.363H318.008V180H315.923ZM318.008 174.675H319.512C320.76 174.675 321.385 174.16 321.385 173.13C321.385 172.615 321.23 172.221 320.92 171.947C320.615 171.674 320.143 171.537 319.505 171.537H318.008V174.675ZM325.124 180V169.814H331.939V171.544H327.209V174.005H331.584V175.707H327.209V178.271H331.953V180H325.124ZM337.36 180.15C336.134 180.15 335.155 179.87 334.421 179.31C333.692 178.744 333.313 177.922 333.286 176.842H335.316C335.353 177.357 335.558 177.744 335.932 178.004C336.31 178.259 336.779 178.387 337.34 178.387C337.896 178.387 338.342 178.268 338.68 178.031C339.021 177.79 339.192 177.475 339.192 177.088C339.192 176.737 339.037 176.468 338.728 176.281C338.422 176.094 337.992 175.933 337.436 175.796L336.314 175.516C335.453 175.306 334.779 174.978 334.291 174.531C333.803 174.08 333.56 173.485 333.56 172.747C333.56 172.132 333.724 171.594 334.052 171.134C334.384 170.674 334.838 170.316 335.412 170.061C335.991 169.805 336.649 169.678 337.388 169.678C338.14 169.678 338.796 169.808 339.356 170.067C339.917 170.323 340.354 170.68 340.669 171.141C340.983 171.596 341.145 172.123 341.154 172.72H339.138C339.101 172.31 338.926 171.993 338.611 171.77C338.301 171.546 337.887 171.435 337.367 171.435C336.834 171.435 336.422 171.546 336.13 171.77C335.843 171.988 335.699 172.269 335.699 172.61C335.699 172.989 335.861 173.271 336.185 173.458C336.513 173.645 336.893 173.791 337.326 173.896L338.249 174.121C338.819 174.253 339.334 174.445 339.794 174.695C340.254 174.941 340.619 175.263 340.888 175.659C341.157 176.051 341.291 176.532 341.291 177.102C341.291 178.027 340.945 178.767 340.252 179.323C339.564 179.875 338.6 180.15 337.36 180.15ZM342.392 171.544V169.814H350.711V171.544H347.601V180H345.509V171.544H342.392ZM354.888 180L358.367 169.814H361.102L364.67 180H362.353L361.566 177.635H357.95L357.191 180H354.888ZM358.47 176.001H361.026L360.719 175.085C360.555 174.565 360.391 174.003 360.227 173.396C360.062 172.79 359.892 172.141 359.714 171.448C359.545 172.15 359.383 172.804 359.229 173.41C359.074 174.016 358.919 174.575 358.764 175.085L358.47 176.001ZM365.935 180V169.814H369.906C370.681 169.814 371.34 169.963 371.882 170.259C372.424 170.55 372.837 170.956 373.119 171.476C373.406 171.991 373.55 172.583 373.55 173.253C373.55 173.927 373.404 174.522 373.112 175.037C372.825 175.548 372.406 175.949 371.854 176.24C371.303 176.527 370.638 176.671 369.858 176.671H368.02V180H365.935ZM368.02 174.989H369.523C370.161 174.989 370.633 174.827 370.938 174.504C371.244 174.18 371.396 173.763 371.396 173.253C371.396 172.738 371.244 172.323 370.938 172.009C370.633 171.694 370.159 171.537 369.517 171.537H368.02V174.989ZM377.098 169.814V180H375.013V169.814H377.098Z" fill="white"/>
<rect x="24" y="75" width="148" height="148" rx="3" fill="white"/>
<rect x="24" y="75" width="148" height="148" rx="3" stroke="#B6B9C9" stroke-width="2"/>
<path d="M87.0488 154.137C86.1419 154.137 85.333 153.932 84.6221 153.521C83.9111 153.111 83.3483 152.517 82.9336 151.737C82.5234 150.958 82.3184 150.017 82.3184 148.914C82.3184 147.807 82.5257 146.863 82.9404 146.084C83.3551 145.3 83.9202 144.703 84.6357 144.293C85.3512 143.883 86.1556 143.678 87.0488 143.678C87.819 143.678 88.5163 143.821 89.1406 144.108C89.765 144.391 90.2777 144.803 90.6787 145.346C91.0798 145.883 91.3304 146.533 91.4307 147.294H89.3184C89.2227 146.743 88.972 146.312 88.5664 146.002C88.1654 145.688 87.6732 145.53 87.0898 145.53C86.2969 145.53 85.6566 145.824 85.1689 146.412C84.6813 147 84.4375 147.834 84.4375 148.914C84.4375 150.017 84.6813 150.855 85.1689 151.43C85.6611 151.999 86.2992 152.284 87.083 152.284C87.6618 152.284 88.154 152.129 88.5596 151.819C88.9697 151.505 89.2249 151.07 89.3252 150.514H91.4375C91.36 151.147 91.1367 151.74 90.7676 152.291C90.3984 152.838 89.8994 153.282 89.2705 153.624C88.6462 153.966 87.9056 154.137 87.0488 154.137ZM96.332 154.15C95.5664 154.15 94.9033 153.986 94.3428 153.658C93.7822 153.326 93.3493 152.865 93.0439 152.277C92.7432 151.685 92.5928 150.997 92.5928 150.213C92.5928 149.424 92.7432 148.734 93.0439 148.142C93.3493 147.549 93.7822 147.089 94.3428 146.761C94.9033 146.428 95.5664 146.262 96.332 146.262C97.0977 146.262 97.7607 146.428 98.3213 146.761C98.8818 147.089 99.3125 147.549 99.6133 148.142C99.9186 148.734 100.071 149.424 100.071 150.213C100.071 150.997 99.9186 151.685 99.6133 152.277C99.3125 152.865 98.8818 153.326 98.3213 153.658C97.7607 153.986 97.0977 154.15 96.332 154.15ZM96.332 152.537C96.8789 152.537 97.2913 152.316 97.5693 151.874C97.8473 151.432 97.9863 150.876 97.9863 150.206C97.9863 149.532 97.8473 148.976 97.5693 148.538C97.2913 148.096 96.8789 147.875 96.332 147.875C95.7852 147.875 95.3727 148.096 95.0947 148.538C94.8213 148.976 94.6846 149.532 94.6846 150.206C94.6846 150.876 94.8213 151.432 95.0947 151.874C95.3727 152.316 95.7852 152.537 96.332 152.537ZM101.5 154V146.357H103.482V147.69H103.564C103.706 147.221 103.94 146.866 104.269 146.624C104.601 146.378 104.982 146.255 105.41 146.255C105.643 146.255 105.864 146.278 106.073 146.323V148.155C105.982 148.128 105.848 148.105 105.67 148.087C105.497 148.064 105.335 148.053 105.185 148.053C104.711 148.053 104.319 148.201 104.009 148.497C103.703 148.793 103.551 149.178 103.551 149.652V154H101.5ZM110.312 154.15C109.532 154.15 108.86 153.991 108.295 153.672C107.73 153.353 107.295 152.899 106.989 152.312C106.688 151.724 106.538 151.026 106.538 150.22C106.538 149.431 106.688 148.741 106.989 148.148C107.295 147.556 107.721 147.093 108.268 146.761C108.819 146.428 109.466 146.262 110.209 146.262C110.874 146.262 111.478 146.403 112.021 146.686C112.563 146.968 112.993 147.396 113.312 147.971C113.636 148.545 113.798 149.267 113.798 150.138V150.712H108.568C108.591 151.336 108.764 151.808 109.088 152.127C109.411 152.446 109.831 152.605 110.346 152.605C110.706 152.605 111.013 152.53 111.269 152.38C111.528 152.225 111.713 151.999 111.822 151.703L113.682 152.052C113.495 152.685 113.107 153.193 112.52 153.576C111.936 153.959 111.2 154.15 110.312 154.15ZM108.582 149.427H111.822C111.772 148.93 111.613 148.536 111.344 148.244C111.075 147.952 110.703 147.807 110.229 147.807C109.737 147.807 109.35 147.959 109.067 148.265C108.785 148.565 108.623 148.953 108.582 149.427Z" fill="#12141E"/>
<rect x="521" y="75" width="148" height="148" rx="3" fill="white"/>
<rect x="521" y="75" width="148" height="148" rx="3" stroke="#B6B9C9" stroke-width="2"/>
<path d="M581.273 154L584.753 143.814H587.487L591.056 154H588.738L587.952 151.635H584.336L583.577 154H581.273ZM584.855 150.001H587.412L587.104 149.085C586.94 148.565 586.776 148.003 586.612 147.396C586.448 146.79 586.277 146.141 586.1 145.448C585.931 146.15 585.769 146.804 585.614 147.41C585.459 148.016 585.304 148.575 585.149 149.085L584.855 150.001ZM592.272 156.857V146.357H594.289V147.643H594.385C594.476 147.442 594.608 147.235 594.781 147.021C594.959 146.806 595.191 146.626 595.479 146.48C595.77 146.335 596.132 146.262 596.565 146.262C597.131 146.262 597.648 146.408 598.117 146.699C598.587 146.991 598.96 147.428 599.238 148.012C599.521 148.595 599.662 149.322 599.662 150.192C599.662 151.04 599.525 151.758 599.252 152.346C598.979 152.929 598.607 153.373 598.138 153.679C597.668 153.979 597.14 154.13 596.552 154.13C596.137 154.13 595.786 154.059 595.499 153.918C595.212 153.777 594.977 153.604 594.795 153.398C594.617 153.189 594.48 152.981 594.385 152.776H594.323V156.857H592.272ZM595.923 152.482C596.456 152.482 596.862 152.268 597.14 151.84C597.422 151.411 597.563 150.86 597.563 150.186C597.563 149.516 597.424 148.969 597.146 148.545C596.868 148.117 596.461 147.902 595.923 147.902C595.394 147.902 594.986 148.11 594.699 148.524C594.417 148.939 594.275 149.493 594.275 150.186C594.275 150.878 594.419 151.434 594.706 151.854C594.993 152.273 595.399 152.482 595.923 152.482ZM601.104 156.857V146.357H603.121V147.643H603.217C603.308 147.442 603.44 147.235 603.613 147.021C603.791 146.806 604.023 146.626 604.311 146.48C604.602 146.335 604.965 146.262 605.397 146.262C605.963 146.262 606.48 146.408 606.949 146.699C607.419 146.991 607.792 147.428 608.07 148.012C608.353 148.595 608.494 149.322 608.494 150.192C608.494 151.04 608.357 151.758 608.084 152.346C607.811 152.929 607.439 153.373 606.97 153.679C606.5 153.979 605.972 154.13 605.384 154.13C604.969 154.13 604.618 154.059 604.331 153.918C604.044 153.777 603.809 153.604 603.627 153.398C603.449 153.189 603.312 152.981 603.217 152.776H603.155V156.857H601.104ZM604.755 152.482C605.288 152.482 605.694 152.268 605.972 151.84C606.254 151.411 606.396 150.86 606.396 150.186C606.396 149.516 606.257 148.969 605.979 148.545C605.701 148.117 605.293 147.902 604.755 147.902C604.226 147.902 603.818 148.11 603.531 148.524C603.249 148.939 603.107 149.493 603.107 150.186C603.107 150.878 603.251 151.434 603.538 151.854C603.825 152.273 604.231 152.482 604.755 152.482Z" fill="#12141E"/>
</g>
<defs>
<clipPath id="clip0_398_1498">
<rect width="670" height="250" fill="white"/>
</clipPath>
</defs>
</svg>
