<svg width="371" height="304" viewBox="0 0 371 304" fill="none" xmlns="http://www.w3.org/2000/svg">
<g clip-path="url(#clip0_398_1502)">
<rect x="1" y="1" width="203" height="37" rx="3" fill="#FAFBFE"/>
<rect x="1" y="1" width="203" height="37" rx="3" stroke="#B6B9C9" stroke-width="2" stroke-linecap="round" stroke-linejoin="round"/>
<path d="M17.2578 25.1797C15.9036 25.1797 14.8229 24.8672 14.0156 24.2422C13.2135 23.6172 12.7891 22.7292 12.7422 21.5781H14.7969C14.8438 22.1927 15.099 22.651 15.5625 22.9531C16.026 23.25 16.5859 23.3984 17.2422 23.3984C17.9297 23.3984 18.4896 23.2448 18.9219 22.9375C19.3594 22.625 19.5781 22.2188 19.5781 21.7188C19.5781 21.2656 19.3854 20.9245 19 20.6953C18.6146 20.4609 18.1068 20.263 17.4766 20.1016L16.1562 19.7578C15.1823 19.5078 14.4219 19.1302 13.875 18.625C13.3333 18.1198 13.0625 17.4557 13.0625 16.6328C13.0625 15.9453 13.2474 15.3464 13.6172 14.8359C13.987 14.3203 14.4922 13.9193 15.1328 13.6328C15.7734 13.3464 16.5 13.2031 17.3125 13.2031C18.1406 13.2031 18.8646 13.3464 19.4844 13.6328C20.1094 13.9193 20.599 14.3151 20.9531 14.8203C21.3073 15.3255 21.4922 15.901 21.5078 16.5469H19.4844C19.4323 16.0521 19.2083 15.6667 18.8125 15.3906C18.4219 15.1146 17.9115 14.9766 17.2812 14.9766C16.625 14.9766 16.1094 15.1224 15.7344 15.4141C15.3594 15.7005 15.1719 16.0651 15.1719 16.5078C15.1719 16.8359 15.2708 17.1042 15.4688 17.3125C15.6719 17.5156 15.9245 17.6797 16.2266 17.8047C16.5339 17.9297 16.8438 18.0312 17.1562 18.1094L18.2422 18.3906C18.8151 18.5312 19.362 18.7344 19.8828 19C20.4089 19.2604 20.8359 19.612 21.1641 20.0547C21.4974 20.4974 21.6641 21.0573 21.6641 21.7344C21.6641 22.4167 21.4896 23.0182 21.1406 23.5391C20.7917 24.0547 20.2891 24.4583 19.6328 24.75C18.9766 25.0365 18.1849 25.1797 17.2578 25.1797ZM25.5156 19.8828V25H23.4844V13.3594H25.4844V17.8828C26.0156 16.7318 26.8984 16.1562 28.1328 16.1562C29.0339 16.1562 29.7578 16.4427 30.3047 17.0156C30.8516 17.5885 31.125 18.3984 31.125 19.4453V25H29.0859V19.7578C29.0859 19.1745 28.9349 18.7161 28.6328 18.3828C28.3307 18.0495 27.9141 17.8828 27.3828 17.8828C26.8411 17.8828 26.3932 18.0573 26.0391 18.4062C25.6901 18.7552 25.5156 19.2474 25.5156 19.8828ZM37.0703 25.1797C36.2214 25.1797 35.4844 24.9922 34.8594 24.6172C34.2344 24.237 33.75 23.7109 33.4062 23.0391C33.0677 22.362 32.8984 21.5755 32.8984 20.6797C32.8984 19.7734 33.0677 18.9818 33.4062 18.3047C33.75 17.6224 34.2344 17.0938 34.8594 16.7188C35.4844 16.3438 36.2214 16.1562 37.0703 16.1562C37.9193 16.1562 38.6562 16.3438 39.2812 16.7188C39.9062 17.0938 40.3906 17.6224 40.7344 18.3047C41.0781 18.9818 41.25 19.7734 41.25 20.6797C41.25 21.5755 41.0781 22.362 40.7344 23.0391C40.3906 23.7109 39.9062 24.237 39.2812 24.6172C38.6562 24.9922 37.9193 25.1797 37.0703 25.1797ZM37.0703 23.5312C37.5443 23.5312 37.9375 23.4036 38.25 23.1484C38.5625 22.8932 38.7969 22.5495 38.9531 22.1172C39.1094 21.6849 39.1875 21.2031 39.1875 20.6719C39.1875 20.1354 39.1094 19.651 38.9531 19.2188C38.7969 18.7865 38.5625 18.4427 38.25 18.1875C37.9375 17.9323 37.5443 17.8047 37.0703 17.8047C36.6016 17.8047 36.2109 17.9323 35.8984 18.1875C35.5859 18.4427 35.3516 18.7865 35.1953 19.2188C35.0443 19.651 34.9688 20.1354 34.9688 20.6719C34.9688 21.2031 35.0443 21.6849 35.1953 22.1172C35.3516 22.5495 35.5859 22.8932 35.8984 23.1484C36.2109 23.4036 36.6016 23.5312 37.0703 23.5312ZM43.0312 28.2656V16.2656H45.0156V17.7109H45.1484C45.2474 17.5078 45.3932 17.2865 45.5859 17.0469C45.7786 16.8021 46.0417 16.5938 46.375 16.4219C46.7083 16.2448 47.1328 16.1562 47.6484 16.1562C48.3203 16.1562 48.9271 16.3281 49.4688 16.6719C50.0156 17.0156 50.4479 17.5234 50.7656 18.1953C51.0885 18.862 51.25 19.6797 51.25 20.6484C51.25 21.6068 51.0911 22.4219 50.7734 23.0938C50.4609 23.7656 50.0339 24.2786 49.4922 24.6328C48.9505 24.9818 48.3333 25.1562 47.6406 25.1562C47.1406 25.1562 46.724 25.0729 46.3906 24.9062C46.0625 24.7344 45.7995 24.5286 45.6016 24.2891C45.4036 24.0495 45.2526 23.8255 45.1484 23.6172H45.0625V28.2656H43.0312ZM47.0938 23.4844C47.7708 23.4844 48.2839 23.2161 48.6328 22.6797C48.987 22.138 49.1641 21.4583 49.1641 20.6406C49.1641 19.8281 48.9896 19.1562 48.6406 18.625C48.2969 18.0938 47.7812 17.8281 47.0938 17.8281C46.4219 17.8281 45.9089 18.0859 45.5547 18.6016C45.2005 19.112 45.0234 19.7917 45.0234 20.6406C45.0234 21.4896 45.2031 22.1771 45.5625 22.7031C45.9219 23.224 46.4323 23.4844 47.0938 23.4844ZM54.6328 25L52.0312 16.2656H54.1719L55.0312 19.6875C55.1406 20.1667 55.2604 20.6875 55.3906 21.25C55.526 21.8073 55.6562 22.4167 55.7812 23.0781C55.9062 22.4323 56.0365 21.8307 56.1719 21.2734C56.3073 20.7109 56.4375 20.1823 56.5625 19.6875L57.4453 16.2656H59.3828L60.2422 19.6875C60.3568 20.1719 60.4818 20.6953 60.6172 21.2578C60.7526 21.8151 60.8854 22.4219 61.0156 23.0781C61.1354 22.4271 61.2578 21.8229 61.3828 21.2656C61.513 20.7031 61.638 20.1771 61.7578 19.6875L62.6172 16.2656H64.7734L62.1641 25H60.1094L59.0859 21.4375C58.9661 21.0208 58.849 20.5677 58.7344 20.0781C58.6198 19.5833 58.5078 19.0911 58.3984 18.6016C58.2891 19.0911 58.1745 19.5833 58.0547 20.0781C57.9401 20.5729 57.8255 21.026 57.7109 21.4375L56.6875 25H54.6328ZM68.6094 25.1797C68.0573 25.1797 67.5599 25.0807 67.1172 24.8828C66.6745 24.6797 66.3255 24.3828 66.0703 23.9922C65.8151 23.6016 65.6875 23.1198 65.6875 22.5469C65.6875 21.8906 65.8464 21.3828 66.1641 21.0234C66.487 20.6589 66.901 20.3958 67.4062 20.2344C67.9167 20.0677 68.4531 19.9557 69.0156 19.8984C69.776 19.8151 70.3255 19.7396 70.6641 19.6719C71.0026 19.599 71.1719 19.4115 71.1719 19.1094V19.0703C71.1719 18.6432 71.0417 18.3125 70.7812 18.0781C70.5208 17.8385 70.1432 17.7188 69.6484 17.7188C69.138 17.7188 68.7318 17.8307 68.4297 18.0547C68.1276 18.2786 67.9245 18.5339 67.8203 18.8203L65.9375 18.4375C66.1927 17.6667 66.6536 17.0938 67.3203 16.7188C67.9922 16.3438 68.7656 16.1562 69.6406 16.1562C70.0521 16.1562 70.4661 16.2057 70.8828 16.3047C71.3047 16.3984 71.6901 16.5599 72.0391 16.7891C72.388 17.013 72.6693 17.3203 72.8828 17.7109C73.0964 18.0964 73.2031 18.5807 73.2031 19.1641V25H71.2578V23.7969H71.1797C70.987 24.1719 70.6797 24.4974 70.2578 24.7734C69.8359 25.0443 69.2865 25.1797 68.6094 25.1797ZM69.1328 23.6719C69.7578 23.6719 70.2552 23.4922 70.625 23.1328C71 22.7734 71.1875 22.3516 71.1875 21.8672V20.8359C71.0938 20.9089 70.9271 20.974 70.6875 21.0312C70.4479 21.0833 70.1927 21.1302 69.9219 21.1719C69.6562 21.2083 69.4349 21.2396 69.2578 21.2656C68.7995 21.3281 68.4167 21.4531 68.1094 21.6406C67.8073 21.8281 67.6562 22.1224 67.6562 22.5234C67.6562 22.8984 67.7943 23.1849 68.0703 23.3828C68.3464 23.5755 68.7005 23.6719 69.1328 23.6719ZM75.3594 25V16.2656H77.3281V17.7266H77.4219C77.5781 17.2214 77.8516 16.8333 78.2422 16.5625C78.6328 16.2865 79.0781 16.1484 79.5781 16.1484C79.8385 16.1484 80.0859 16.1667 80.3203 16.2031V18.0703C80.237 18.0495 80.1016 18.0286 79.9141 18.0078C79.7266 17.9818 79.5417 17.9688 79.3594 17.9688C78.7917 17.9688 78.3203 18.1458 77.9453 18.5C77.5755 18.849 77.3906 19.3021 77.3906 19.8594V25H75.3594ZM85.2188 25.1797C84.3385 25.1797 83.5807 24.9948 82.9453 24.625C82.3151 24.2552 81.8281 23.7344 81.4844 23.0625C81.1458 22.3906 80.9766 21.599 80.9766 20.6875C80.9766 19.7917 81.1432 19.0052 81.4766 18.3281C81.8151 17.6458 82.2917 17.1146 82.9062 16.7344C83.526 16.349 84.2526 16.1562 85.0859 16.1562C85.7943 16.1562 86.4505 16.3125 87.0547 16.625C87.6641 16.9323 88.1536 17.4115 88.5234 18.0625C88.8932 18.7083 89.0781 19.5417 89.0781 20.5625V21.2031H83C83.026 21.9792 83.2422 22.5703 83.6484 22.9766C84.0599 23.3828 84.5911 23.5859 85.2422 23.5859C85.6901 23.5859 86.0729 23.4896 86.3906 23.2969C86.7135 23.1042 86.9427 22.8229 87.0781 22.4531L88.9453 22.8359C88.737 23.5391 88.3047 24.1068 87.6484 24.5391C86.9974 24.9661 86.1875 25.1797 85.2188 25.1797ZM83.0078 19.8203H87.1016C87.0391 19.1953 86.8385 18.6953 86.5 18.3203C86.1667 17.9401 85.6979 17.75 85.0938 17.75C84.474 17.75 83.9818 17.9505 83.6172 18.3516C83.2578 18.7474 83.0547 19.237 83.0078 19.8203ZM94.9531 25V13.3594H99.3047C100.195 13.3594 100.945 13.526 101.555 13.8594C102.164 14.1927 102.625 14.651 102.938 15.2344C103.25 15.8125 103.406 16.4714 103.406 17.2109C103.406 17.9557 103.247 18.6198 102.93 19.2031C102.617 19.7812 102.154 20.237 101.539 20.5703C100.924 20.8984 100.169 21.0625 99.2734 21.0625H97.0391V25H94.9531ZM97.0391 19.3438H99C99.7865 19.3438 100.362 19.1432 100.727 18.7422C101.091 18.3411 101.273 17.8307 101.273 17.2109C101.273 16.5911 101.091 16.0859 100.727 15.6953C100.362 15.3047 99.7812 15.1094 98.9844 15.1094H97.0391V19.3438ZM105.281 25V13.3594H107.367V18.1719H112.781V13.3594H114.867V25H112.781V19.9297H107.367V25H105.281ZM117.219 25V13.3594H121.57C122.461 13.3594 123.211 13.526 123.82 13.8594C124.43 14.1927 124.891 14.651 125.203 15.2344C125.516 15.8125 125.672 16.4714 125.672 17.2109C125.672 17.9557 125.513 18.6198 125.195 19.2031C124.883 19.7812 124.419 20.237 123.805 20.5703C123.19 20.8984 122.435 21.0625 121.539 21.0625H119.305V25H117.219ZM119.305 19.3438H121.266C122.052 19.3438 122.628 19.1432 122.992 18.7422C123.357 18.3411 123.539 17.8307 123.539 17.2109C123.539 16.5911 123.357 16.0859 122.992 15.6953C122.628 15.3047 122.047 15.1094 121.25 15.1094H119.305V19.3438ZM131.578 25V13.3594H135.93C136.82 13.3594 137.57 13.526 138.18 13.8594C138.789 14.1927 139.25 14.651 139.562 15.2344C139.875 15.8125 140.031 16.4714 140.031 17.2109C140.031 17.9557 139.872 18.6198 139.555 19.2031C139.242 19.7812 138.779 20.237 138.164 20.5703C137.549 20.8984 136.794 21.0625 135.898 21.0625H133.664V25H131.578ZM133.664 19.3438H135.625C136.411 19.3438 136.987 19.1432 137.352 18.7422C137.716 18.3411 137.898 17.8307 137.898 17.2109C137.898 16.5911 137.716 16.0859 137.352 15.6953C136.987 15.3047 136.406 15.1094 135.609 15.1094H133.664V19.3438ZM141.812 25V16.2656H143.781V17.7266H143.875C144.031 17.2214 144.305 16.8333 144.695 16.5625C145.086 16.2865 145.531 16.1484 146.031 16.1484C146.292 16.1484 146.539 16.1667 146.773 16.2031V18.0703C146.69 18.0495 146.555 18.0286 146.367 18.0078C146.18 17.9818 145.995 17.9688 145.812 17.9688C145.245 17.9688 144.773 18.1458 144.398 18.5C144.029 18.849 143.844 19.3021 143.844 19.8594V25H141.812ZM151.602 25.1797C150.753 25.1797 150.016 24.9922 149.391 24.6172C148.766 24.237 148.281 23.7109 147.938 23.0391C147.599 22.362 147.43 21.5755 147.43 20.6797C147.43 19.7734 147.599 18.9818 147.938 18.3047C148.281 17.6224 148.766 17.0938 149.391 16.7188C150.016 16.3438 150.753 16.1562 151.602 16.1562C152.451 16.1562 153.188 16.3438 153.812 16.7188C154.438 17.0938 154.922 17.6224 155.266 18.3047C155.609 18.9818 155.781 19.7734 155.781 20.6797C155.781 21.5755 155.609 22.362 155.266 23.0391C154.922 23.7109 154.438 24.237 153.812 24.6172C153.188 24.9922 152.451 25.1797 151.602 25.1797ZM151.602 23.5312C152.076 23.5312 152.469 23.4036 152.781 23.1484C153.094 22.8932 153.328 22.5495 153.484 22.1172C153.641 21.6849 153.719 21.2031 153.719 20.6719C153.719 20.1354 153.641 19.651 153.484 19.2188C153.328 18.7865 153.094 18.4427 152.781 18.1875C152.469 17.9323 152.076 17.8047 151.602 17.8047C151.133 17.8047 150.742 17.9323 150.43 18.1875C150.117 18.4427 149.883 18.7865 149.727 19.2188C149.576 19.651 149.5 20.1354 149.5 20.6719C149.5 21.2031 149.576 21.6849 149.727 22.1172C149.883 22.5495 150.117 22.8932 150.43 23.1484C150.742 23.4036 151.133 23.5312 151.602 23.5312ZM161.352 25.1797C160.503 25.1797 159.766 24.9922 159.141 24.6172C158.516 24.237 158.031 23.7109 157.688 23.0391C157.349 22.362 157.18 21.5755 157.18 20.6797C157.18 19.7734 157.349 18.9818 157.688 18.3047C158.031 17.6224 158.516 17.0938 159.141 16.7188C159.766 16.3438 160.503 16.1562 161.352 16.1562C162.326 16.1562 163.148 16.401 163.82 16.8906C164.497 17.375 164.93 18.0443 165.117 18.8984L163.219 19.2969C163.109 18.8438 162.896 18.4818 162.578 18.2109C162.26 17.9401 161.857 17.8047 161.367 17.8047C160.659 17.8047 160.128 18.0781 159.773 18.625C159.424 19.1719 159.25 19.8542 159.25 20.6719C159.25 21.2083 159.328 21.6927 159.484 22.125C159.641 22.5573 159.875 22.901 160.188 23.1562C160.5 23.4062 160.893 23.5312 161.367 23.5312C161.867 23.5312 162.276 23.3906 162.594 23.1094C162.917 22.8229 163.133 22.4453 163.242 21.9766L165.141 22.375C164.953 23.2448 164.521 23.9297 163.844 24.4297C163.167 24.9297 162.336 25.1797 161.352 25.1797ZM170.75 25.1797C169.87 25.1797 169.112 24.9948 168.477 24.625C167.846 24.2552 167.359 23.7344 167.016 23.0625C166.677 22.3906 166.508 21.599 166.508 20.6875C166.508 19.7917 166.674 19.0052 167.008 18.3281C167.346 17.6458 167.823 17.1146 168.438 16.7344C169.057 16.349 169.784 16.1562 170.617 16.1562C171.326 16.1562 171.982 16.3125 172.586 16.625C173.195 16.9323 173.685 17.4115 174.055 18.0625C174.424 18.7083 174.609 19.5417 174.609 20.5625V21.2031H168.531C168.557 21.9792 168.773 22.5703 169.18 22.9766C169.591 23.3828 170.122 23.5859 170.773 23.5859C171.221 23.5859 171.604 23.4896 171.922 23.2969C172.245 23.1042 172.474 22.8229 172.609 22.4531L174.477 22.8359C174.268 23.5391 173.836 24.1068 173.18 24.5391C172.529 24.9661 171.719 25.1797 170.75 25.1797ZM168.539 19.8203H172.633C172.57 19.1953 172.37 18.6953 172.031 18.3203C171.698 17.9401 171.229 17.75 170.625 17.75C170.005 17.75 169.513 17.9505 169.148 18.3516C168.789 18.7474 168.586 19.237 168.539 19.8203ZM179.664 25.1797C178.659 25.1797 177.828 24.9661 177.172 24.5391C176.521 24.1068 176.12 23.4948 175.969 22.7031L177.867 22.3438C178.096 23.1979 178.708 23.625 179.703 23.625C180.203 23.625 180.599 23.526 180.891 23.3281C181.188 23.125 181.336 22.875 181.336 22.5781C181.336 22.0833 180.943 21.75 180.156 21.5781L178.664 21.2578C177.029 20.9036 176.211 20.0885 176.211 18.8125C176.211 18.2708 176.359 17.8021 176.656 17.4062C176.953 17.0104 177.365 16.7031 177.891 16.4844C178.422 16.2656 179.036 16.1562 179.734 16.1562C180.724 16.1562 181.505 16.362 182.078 16.7734C182.656 17.1849 183.034 17.7292 183.211 18.4062L181.398 18.7656C181.294 18.4635 181.112 18.2057 180.852 17.9922C180.591 17.7786 180.227 17.6719 179.758 17.6719C179.331 17.6719 178.971 17.7682 178.68 17.9609C178.388 18.1484 178.242 18.3906 178.242 18.6875C178.242 18.9427 178.336 19.1536 178.523 19.3203C178.716 19.4818 179.036 19.612 179.484 19.7109L180.969 20.0234C182.599 20.3724 183.414 21.1589 183.414 22.3828C183.414 22.9349 183.255 23.4219 182.938 23.8438C182.62 24.2604 182.177 24.5885 181.609 24.8281C181.047 25.0625 180.398 25.1797 179.664 25.1797ZM188.461 25.1797C187.456 25.1797 186.625 24.9661 185.969 24.5391C185.318 24.1068 184.917 23.4948 184.766 22.7031L186.664 22.3438C186.893 23.1979 187.505 23.625 188.5 23.625C189 23.625 189.396 23.526 189.688 23.3281C189.984 23.125 190.133 22.875 190.133 22.5781C190.133 22.0833 189.74 21.75 188.953 21.5781L187.461 21.2578C185.826 20.9036 185.008 20.0885 185.008 18.8125C185.008 18.2708 185.156 17.8021 185.453 17.4062C185.75 17.0104 186.161 16.7031 186.688 16.4844C187.219 16.2656 187.833 16.1562 188.531 16.1562C189.521 16.1562 190.302 16.362 190.875 16.7734C191.453 17.1849 191.831 17.7292 192.008 18.4062L190.195 18.7656C190.091 18.4635 189.909 18.2057 189.648 17.9922C189.388 17.7786 189.023 17.6719 188.555 17.6719C188.128 17.6719 187.768 17.7682 187.477 17.9609C187.185 18.1484 187.039 18.3906 187.039 18.6875C187.039 18.9427 187.133 19.1536 187.32 19.3203C187.513 19.4818 187.833 19.612 188.281 19.7109L189.766 20.0234C191.396 20.3724 192.211 21.1589 192.211 22.3828C192.211 22.9349 192.052 23.4219 191.734 23.8438C191.417 24.2604 190.974 24.5885 190.406 24.8281C189.844 25.0625 189.195 25.1797 188.461 25.1797Z" fill="#12141E"/>
<rect x="1" y="48" width="202" height="255" rx="3" fill="#FAFBFE"/>
<rect x="1" y="48" width="202" height="255" rx="3" stroke="#B6B9C9" stroke-width="2" stroke-linecap="round" stroke-linejoin="round"/>
<path d="M246.707 115.707C247.098 115.317 247.098 114.683 246.707 114.293L240.343 107.929C239.953 107.538 239.319 107.538 238.929 107.929C238.538 108.319 238.538 108.953 238.929 109.343L244.586 115L238.929 120.657C238.538 121.047 238.538 121.681 238.929 122.071C239.319 122.462 239.953 122.462 240.343 122.071L246.707 115.707ZM162 116L246 116L246 114L162 114L162 116Z" fill="#B6B9C9"/>
<path d="M161.293 235.293C160.902 235.683 160.902 236.317 161.293 236.707L167.657 243.071C168.047 243.462 168.681 243.462 169.071 243.071C169.462 242.681 169.462 242.047 169.071 241.657L163.414 236L169.071 230.343C169.462 229.953 169.462 229.319 169.071 228.929C168.681 228.538 168.047 228.538 167.657 228.929L161.293 235.293ZM162 237L246 237L246 235L162 235L162 237Z" fill="#B6B9C9"/>
<rect x="43" y="90" width="118" height="50" rx="3" fill="white"/>
<rect x="43" y="90" width="118" height="50" rx="3" stroke="#B6B9C9" stroke-width="2"/>
<path d="M91.0488 120.137C90.1419 120.137 89.333 119.932 88.6221 119.521C87.9111 119.111 87.3483 118.517 86.9336 117.737C86.5234 116.958 86.3184 116.017 86.3184 114.914C86.3184 113.807 86.5257 112.863 86.9404 112.084C87.3551 111.3 87.9202 110.703 88.6357 110.293C89.3512 109.883 90.1556 109.678 91.0488 109.678C91.819 109.678 92.5163 109.821 93.1406 110.108C93.765 110.391 94.2777 110.803 94.6787 111.346C95.0798 111.883 95.3304 112.533 95.4307 113.294H93.3184C93.2227 112.743 92.972 112.312 92.5664 112.002C92.1654 111.688 91.6732 111.53 91.0898 111.53C90.2969 111.53 89.6566 111.824 89.1689 112.412C88.6813 113 88.4375 113.834 88.4375 114.914C88.4375 116.017 88.6813 116.855 89.1689 117.43C89.6611 117.999 90.2992 118.284 91.083 118.284C91.6618 118.284 92.154 118.129 92.5596 117.819C92.9697 117.505 93.2249 117.07 93.3252 116.514H95.4375C95.36 117.147 95.1367 117.74 94.7676 118.291C94.3984 118.838 93.8994 119.282 93.2705 119.624C92.6462 119.966 91.9056 120.137 91.0488 120.137ZM100.332 120.15C99.5664 120.15 98.9033 119.986 98.3428 119.658C97.7822 119.326 97.3493 118.865 97.0439 118.277C96.7432 117.685 96.5928 116.997 96.5928 116.213C96.5928 115.424 96.7432 114.734 97.0439 114.142C97.3493 113.549 97.7822 113.089 98.3428 112.761C98.9033 112.428 99.5664 112.262 100.332 112.262C101.098 112.262 101.761 112.428 102.321 112.761C102.882 113.089 103.312 113.549 103.613 114.142C103.919 114.734 104.071 115.424 104.071 116.213C104.071 116.997 103.919 117.685 103.613 118.277C103.312 118.865 102.882 119.326 102.321 119.658C101.761 119.986 101.098 120.15 100.332 120.15ZM100.332 118.537C100.879 118.537 101.291 118.316 101.569 117.874C101.847 117.432 101.986 116.876 101.986 116.206C101.986 115.532 101.847 114.976 101.569 114.538C101.291 114.096 100.879 113.875 100.332 113.875C99.7852 113.875 99.3727 114.096 99.0947 114.538C98.8213 114.976 98.6846 115.532 98.6846 116.206C98.6846 116.876 98.8213 117.432 99.0947 117.874C99.3727 118.316 99.7852 118.537 100.332 118.537ZM105.5 120V112.357H107.482V113.69H107.564C107.706 113.221 107.94 112.866 108.269 112.624C108.601 112.378 108.982 112.255 109.41 112.255C109.643 112.255 109.864 112.278 110.073 112.323V114.155C109.982 114.128 109.848 114.105 109.67 114.087C109.497 114.064 109.335 114.053 109.185 114.053C108.711 114.053 108.319 114.201 108.009 114.497C107.703 114.793 107.551 115.178 107.551 115.652V120H105.5ZM114.312 120.15C113.532 120.15 112.86 119.991 112.295 119.672C111.73 119.353 111.295 118.899 110.989 118.312C110.688 117.724 110.538 117.026 110.538 116.22C110.538 115.431 110.688 114.741 110.989 114.148C111.295 113.556 111.721 113.093 112.268 112.761C112.819 112.428 113.466 112.262 114.209 112.262C114.874 112.262 115.478 112.403 116.021 112.686C116.563 112.968 116.993 113.396 117.312 113.971C117.636 114.545 117.798 115.267 117.798 116.138V116.712H112.568C112.591 117.336 112.764 117.808 113.088 118.127C113.411 118.446 113.831 118.605 114.346 118.605C114.706 118.605 115.013 118.53 115.269 118.38C115.528 118.225 115.713 117.999 115.822 117.703L117.682 118.052C117.495 118.685 117.107 119.193 116.52 119.576C115.936 119.959 115.2 120.15 114.312 120.15ZM112.582 115.427H115.822C115.772 114.93 115.613 114.536 115.344 114.244C115.075 113.952 114.703 113.807 114.229 113.807C113.737 113.807 113.35 113.959 113.067 114.265C112.785 114.565 112.623 114.953 112.582 115.427Z" fill="#12141E"/>
<rect x="43" y="211" width="118" height="50" rx="3" fill="white"/>
<rect x="43" y="211" width="118" height="50" rx="3" stroke="#B6B9C9" stroke-width="2"/>
<path d="M77.5137 241V230.814H81.4854C82.2601 230.814 82.9186 230.963 83.4609 231.259C84.0033 231.55 84.4157 231.956 84.6982 232.476C84.9854 232.991 85.1289 233.583 85.1289 234.253C85.1289 234.927 84.9831 235.522 84.6914 236.037C84.4043 236.548 83.985 236.949 83.4336 237.24C82.8822 237.527 82.2168 237.671 81.4375 237.671H79.5986V241H77.5137ZM79.5986 235.989H81.1025C81.7406 235.989 82.2122 235.827 82.5176 235.504C82.8229 235.18 82.9756 234.763 82.9756 234.253C82.9756 233.738 82.8229 233.323 82.5176 233.009C82.2122 232.694 81.7383 232.537 81.0957 232.537H79.5986V235.989ZM88.5947 230.814V241H86.5439V230.814H88.5947ZM92.9766 241.096C92.1836 241.096 91.5456 240.84 91.0625 240.33C90.584 239.82 90.3447 239.116 90.3447 238.218V233.357H92.3955V237.862C92.3955 238.336 92.5186 238.708 92.7646 238.977C93.0107 239.245 93.348 239.38 93.7764 239.38C94.2139 239.38 94.5693 239.241 94.8428 238.963C95.1208 238.68 95.2598 238.286 95.2598 237.78V233.357H97.3174V241H95.376L95.3486 239.414C95.1344 239.956 94.8291 240.373 94.4326 240.665C94.0407 240.952 93.5553 241.096 92.9766 241.096ZM102.465 244.021C101.508 244.021 100.738 243.846 100.154 243.495C99.571 243.144 99.195 242.695 99.0264 242.148L100.79 241.656C100.886 241.87 101.061 242.069 101.316 242.251C101.576 242.438 101.954 242.531 102.451 242.531C102.971 242.531 103.381 242.41 103.682 242.169C103.982 241.932 104.133 241.561 104.133 241.055V239.646H103.976C103.834 239.956 103.6 240.241 103.271 240.501C102.948 240.761 102.476 240.891 101.856 240.891C101.282 240.891 100.76 240.756 100.291 240.487C99.8216 240.218 99.4456 239.808 99.1631 239.257C98.8851 238.705 98.7461 238.008 98.7461 237.165C98.7461 236.304 98.8874 235.584 99.1699 235.005C99.457 234.426 99.8353 233.991 100.305 233.699C100.779 233.408 101.298 233.262 101.863 233.262C102.292 233.262 102.652 233.335 102.943 233.48C103.235 233.626 103.47 233.806 103.647 234.021C103.83 234.235 103.966 234.442 104.058 234.643H104.146V233.357H106.163V240.938C106.163 241.627 106.004 242.199 105.685 242.654C105.37 243.115 104.933 243.456 104.372 243.68C103.816 243.908 103.18 244.021 102.465 244.021ZM102.499 239.332C103.023 239.332 103.426 239.141 103.709 238.758C103.996 238.37 104.14 237.835 104.14 237.151C104.14 236.472 103.998 235.928 103.716 235.518C103.433 235.107 103.028 234.902 102.499 234.902C101.961 234.902 101.551 235.114 101.269 235.538C100.991 235.957 100.852 236.495 100.852 237.151C100.852 237.821 100.993 238.352 101.275 238.744C101.558 239.136 101.966 239.332 102.499 239.332ZM107.913 241V233.357H109.964V241H107.913ZM108.938 232.359C108.629 232.359 108.364 232.257 108.146 232.052C107.927 231.847 107.817 231.598 107.817 231.307C107.817 231.015 107.927 230.767 108.146 230.562C108.364 230.356 108.629 230.254 108.938 230.254C109.248 230.254 109.513 230.356 109.731 230.562C109.955 230.767 110.066 231.015 110.066 231.307C110.066 231.598 109.955 231.847 109.731 232.052C109.513 232.257 109.248 232.359 108.938 232.359ZM113.765 236.577V241H111.714V233.357H113.648L113.676 234.937C113.89 234.403 114.193 233.991 114.585 233.699C114.977 233.408 115.467 233.262 116.055 233.262C116.848 233.262 117.483 233.517 117.962 234.027C118.44 234.538 118.68 235.242 118.68 236.14V241H116.629V236.495C116.629 236.021 116.506 235.65 116.26 235.381C116.018 235.112 115.681 234.978 115.248 234.978C114.811 234.978 114.453 235.119 114.175 235.401C113.901 235.679 113.765 236.071 113.765 236.577ZM123.472 241.15C122.551 241.15 121.79 240.954 121.188 240.562C120.591 240.171 120.227 239.619 120.095 238.908L122.002 238.58C122.198 239.291 122.708 239.646 123.533 239.646C123.925 239.646 124.233 239.574 124.456 239.428C124.684 239.277 124.798 239.088 124.798 238.86C124.798 238.473 124.47 238.211 123.813 238.074L122.494 237.801C121.027 237.5 120.293 236.778 120.293 235.634C120.293 234.9 120.587 234.321 121.175 233.897C121.763 233.474 122.54 233.262 123.506 233.262C124.413 233.262 125.135 233.446 125.673 233.815C126.211 234.185 126.55 234.679 126.691 235.299L124.873 235.62C124.791 235.36 124.641 235.148 124.422 234.984C124.203 234.816 123.907 234.731 123.533 234.731C123.196 234.731 122.913 234.804 122.686 234.95C122.458 235.091 122.344 235.276 122.344 235.504C122.344 235.695 122.417 235.859 122.562 235.996C122.713 236.128 122.968 236.231 123.328 236.304L124.702 236.577C126.16 236.873 126.89 237.562 126.89 238.642C126.89 239.143 126.744 239.583 126.452 239.961C126.16 240.335 125.757 240.626 125.242 240.836C124.727 241.046 124.137 241.15 123.472 241.15Z" fill="#12141E"/>
<path d="M101.293 210.707C101.683 211.098 102.317 211.098 102.707 210.707L109.071 204.343C109.462 203.953 109.462 203.319 109.071 202.929C108.681 202.538 108.047 202.538 107.657 202.929L102 208.586L96.3431 202.929C95.9526 202.538 95.3195 202.538 94.9289 202.929C94.5384 203.319 94.5384 203.953 94.9289 204.343L101.293 210.707ZM101 141L101 210L103 210L103 141L101 141Z" fill="#B6B9C9"/>
<rect x="66" y="157" width="72" height="30" rx="4" fill="#666977"/>
<path d="M74.9229 177V166.814H78.8945C79.6693 166.814 80.3278 166.963 80.8701 167.259C81.4124 167.55 81.8249 167.956 82.1074 168.476C82.3945 168.991 82.5381 169.583 82.5381 170.253C82.5381 170.927 82.3923 171.522 82.1006 172.037C81.8135 172.548 81.3942 172.949 80.8428 173.24C80.2913 173.527 79.626 173.671 78.8467 173.671H77.0078V177H74.9229ZM77.0078 171.989H78.5117C79.1497 171.989 79.6214 171.827 79.9268 171.504C80.2321 171.18 80.3848 170.763 80.3848 170.253C80.3848 169.738 80.2321 169.323 79.9268 169.009C79.6214 168.694 79.1475 168.537 78.5049 168.537H77.0078V171.989ZM84.001 177V166.814H86.0859V170.93H90.5225V166.814H92.6143V177H90.5225V172.659H86.0859V177H84.001ZM94.46 177V166.814H98.4316C99.2064 166.814 99.8649 166.963 100.407 167.259C100.95 167.55 101.362 167.956 101.645 168.476C101.932 168.991 102.075 169.583 102.075 170.253C102.075 170.927 101.929 171.522 101.638 172.037C101.351 172.548 100.931 172.949 100.38 173.24C99.8285 173.527 99.1631 173.671 98.3838 173.671H96.5449V177H94.46ZM96.5449 171.989H98.0488C98.6868 171.989 99.1585 171.827 99.4639 171.504C99.7692 171.18 99.9219 170.763 99.9219 170.253C99.9219 169.738 99.7692 169.323 99.4639 169.009C99.1585 168.694 98.6846 168.537 98.042 168.537H96.5449V171.989ZM106.272 177L109.752 166.814H112.486L116.055 177H113.737L112.951 174.635H109.335L108.576 177H106.272ZM109.854 173.001H112.411L112.104 172.085C111.939 171.565 111.775 171.003 111.611 170.396C111.447 169.79 111.276 169.141 111.099 168.448C110.93 169.15 110.768 169.804 110.613 170.41C110.458 171.016 110.303 171.575 110.148 172.085L109.854 173.001ZM117.319 177V166.814H121.291C122.066 166.814 122.724 166.963 123.267 167.259C123.809 167.55 124.221 167.956 124.504 168.476C124.791 168.991 124.935 169.583 124.935 170.253C124.935 170.927 124.789 171.522 124.497 172.037C124.21 172.548 123.791 172.949 123.239 173.24C122.688 173.527 122.022 173.671 121.243 173.671H119.404V177H117.319ZM119.404 171.989H120.908C121.546 171.989 122.018 171.827 122.323 171.504C122.629 171.18 122.781 170.763 122.781 170.253C122.781 169.738 122.629 169.323 122.323 169.009C122.018 168.694 121.544 168.537 120.901 168.537H119.404V171.989ZM128.482 166.814V177H126.397V166.814H128.482Z" fill="white"/>
<rect x="247" y="90" width="123" height="171" rx="3" fill="white"/>
<rect x="247" y="90" width="123" height="171" rx="3" stroke="#B6B9C9" stroke-width="2"/>
<path d="M280.568 180.5H276.986V170.314H280.603C281.623 170.314 282.501 170.52 283.234 170.93C283.973 171.335 284.54 171.919 284.937 172.68C285.333 173.436 285.531 174.343 285.531 175.4C285.531 176.462 285.333 177.374 284.937 178.135C284.54 178.896 283.97 179.481 283.228 179.892C282.485 180.297 281.598 180.5 280.568 180.5ZM279.071 178.702H280.466C281.446 178.702 282.188 178.438 282.694 177.909C283.2 177.381 283.453 176.544 283.453 175.4C283.453 174.261 283.2 173.429 282.694 172.905C282.193 172.377 281.455 172.112 280.479 172.112H279.071V178.702ZM289.188 180.65C288.459 180.65 287.853 180.459 287.37 180.076C286.887 179.689 286.646 179.117 286.646 178.36C286.646 177.791 286.782 177.344 287.056 177.021C287.329 176.697 287.685 176.46 288.122 176.31C288.56 176.159 289.029 176.061 289.53 176.016C290.187 175.952 290.658 175.886 290.945 175.817C291.237 175.744 291.383 175.583 291.383 175.332V175.298C291.383 174.974 291.278 174.724 291.068 174.546C290.863 174.368 290.569 174.279 290.187 174.279C289.79 174.279 289.471 174.366 289.229 174.539C288.988 174.708 288.826 174.915 288.744 175.161L286.864 174.847C287.06 174.186 287.45 173.673 288.033 173.309C288.621 172.944 289.341 172.762 290.193 172.762C290.74 172.762 291.26 172.848 291.752 173.021C292.249 173.195 292.652 173.473 292.962 173.855C293.276 174.234 293.434 174.733 293.434 175.353V180.5H291.492V179.44H291.424C291.237 179.796 290.959 180.088 290.59 180.315C290.221 180.539 289.754 180.65 289.188 180.65ZM289.77 179.208C290.248 179.208 290.638 179.069 290.938 178.791C291.244 178.513 291.396 178.171 291.396 177.766V176.938C291.314 176.998 291.18 177.05 290.993 177.096C290.811 177.137 290.617 177.175 290.412 177.212C290.207 177.244 290.029 177.269 289.879 177.287C289.501 177.342 289.195 177.449 288.963 177.608C288.73 177.768 288.614 178 288.614 178.306C288.614 178.602 288.721 178.827 288.936 178.982C289.154 179.133 289.432 179.208 289.77 179.208ZM298.984 172.857V174.423H297.556V178.265C297.556 178.739 297.788 178.976 298.253 178.976C298.33 178.976 298.438 178.966 298.574 178.948C298.715 178.925 298.825 178.905 298.902 178.887L299.196 180.425C298.968 180.493 298.741 180.541 298.513 180.568C298.289 180.596 298.075 180.609 297.87 180.609C297.104 180.609 296.519 180.425 296.113 180.056C295.708 179.682 295.505 179.144 295.505 178.442V174.423H294.452V172.857H295.505V171.039H297.556V172.857H298.984ZM302.519 180.65C301.789 180.65 301.183 180.459 300.7 180.076C300.217 179.689 299.976 179.117 299.976 178.36C299.976 177.791 300.112 177.344 300.386 177.021C300.659 176.697 301.015 176.46 301.452 176.31C301.89 176.159 302.359 176.061 302.86 176.016C303.517 175.952 303.988 175.886 304.275 175.817C304.567 175.744 304.713 175.583 304.713 175.332V175.298C304.713 174.974 304.608 174.724 304.398 174.546C304.193 174.368 303.899 174.279 303.517 174.279C303.12 174.279 302.801 174.366 302.56 174.539C302.318 174.708 302.156 174.915 302.074 175.161L300.194 174.847C300.39 174.186 300.78 173.673 301.363 173.309C301.951 172.944 302.671 172.762 303.523 172.762C304.07 172.762 304.59 172.848 305.082 173.021C305.579 173.195 305.982 173.473 306.292 173.855C306.606 174.234 306.764 174.733 306.764 175.353V180.5H304.822V179.44H304.754C304.567 179.796 304.289 180.088 303.92 180.315C303.551 180.539 303.084 180.65 302.519 180.65ZM303.1 179.208C303.578 179.208 303.968 179.069 304.269 178.791C304.574 178.513 304.727 178.171 304.727 177.766V176.938C304.645 176.998 304.51 177.05 304.323 177.096C304.141 177.137 303.947 177.175 303.742 177.212C303.537 177.244 303.359 177.269 303.209 177.287C302.831 177.342 302.525 177.449 302.293 177.608C302.061 177.768 301.944 178 301.944 178.306C301.944 178.602 302.051 178.827 302.266 178.982C302.484 179.133 302.762 179.208 303.1 179.208ZM312.8 180.63C312.385 180.63 312.034 180.559 311.747 180.418C311.46 180.277 311.225 180.104 311.043 179.898C310.865 179.689 310.729 179.481 310.633 179.276H310.537V180.5H308.521V170.314H310.571V174.143H310.633C310.724 173.942 310.856 173.735 311.029 173.521C311.207 173.306 311.439 173.126 311.727 172.98C312.018 172.835 312.381 172.762 312.813 172.762C313.379 172.762 313.896 172.908 314.365 173.199C314.835 173.491 315.208 173.928 315.486 174.512C315.769 175.095 315.91 175.822 315.91 176.692C315.91 177.54 315.773 178.258 315.5 178.846C315.227 179.429 314.855 179.873 314.386 180.179C313.916 180.479 313.388 180.63 312.8 180.63ZM312.171 178.982C312.704 178.982 313.11 178.768 313.388 178.34C313.67 177.911 313.812 177.36 313.812 176.686C313.812 176.016 313.673 175.469 313.395 175.045C313.117 174.617 312.709 174.402 312.171 174.402C311.642 174.402 311.234 174.61 310.947 175.024C310.665 175.439 310.523 175.993 310.523 176.686C310.523 177.378 310.667 177.934 310.954 178.354C311.241 178.773 311.647 178.982 312.171 178.982ZM319.622 180.65C318.893 180.65 318.287 180.459 317.804 180.076C317.321 179.689 317.079 179.117 317.079 178.36C317.079 177.791 317.216 177.344 317.489 177.021C317.763 176.697 318.118 176.46 318.556 176.31C318.993 176.159 319.463 176.061 319.964 176.016C320.62 175.952 321.092 175.886 321.379 175.817C321.671 175.744 321.816 175.583 321.816 175.332V175.298C321.816 174.974 321.712 174.724 321.502 174.546C321.297 174.368 321.003 174.279 320.62 174.279C320.224 174.279 319.905 174.366 319.663 174.539C319.422 174.708 319.26 174.915 319.178 175.161L317.298 174.847C317.494 174.186 317.883 173.673 318.467 173.309C319.055 172.944 319.775 172.762 320.627 172.762C321.174 172.762 321.693 172.848 322.186 173.021C322.682 173.195 323.086 173.473 323.396 173.855C323.71 174.234 323.867 174.733 323.867 175.353V180.5H321.926V179.44H321.857C321.671 179.796 321.393 180.088 321.023 180.315C320.654 180.539 320.187 180.65 319.622 180.65ZM320.203 179.208C320.682 179.208 321.071 179.069 321.372 178.791C321.677 178.513 321.83 178.171 321.83 177.766V176.938C321.748 176.998 321.614 177.05 321.427 177.096C321.244 177.137 321.051 177.175 320.846 177.212C320.641 177.244 320.463 177.269 320.312 177.287C319.934 177.342 319.629 177.449 319.396 177.608C319.164 177.768 319.048 178 319.048 178.306C319.048 178.602 319.155 178.827 319.369 178.982C319.588 179.133 319.866 179.208 320.203 179.208ZM328.659 180.65C327.739 180.65 326.978 180.454 326.376 180.062C325.779 179.671 325.414 179.119 325.282 178.408L327.189 178.08C327.385 178.791 327.896 179.146 328.721 179.146C329.113 179.146 329.42 179.074 329.644 178.928C329.871 178.777 329.985 178.588 329.985 178.36C329.985 177.973 329.657 177.711 329.001 177.574L327.682 177.301C326.214 177 325.48 176.278 325.48 175.134C325.48 174.4 325.774 173.821 326.362 173.397C326.95 172.974 327.727 172.762 328.693 172.762C329.6 172.762 330.323 172.946 330.86 173.315C331.398 173.685 331.738 174.179 331.879 174.799L330.061 175.12C329.979 174.86 329.828 174.648 329.609 174.484C329.391 174.316 329.094 174.231 328.721 174.231C328.383 174.231 328.101 174.304 327.873 174.45C327.645 174.591 327.531 174.776 327.531 175.004C327.531 175.195 327.604 175.359 327.75 175.496C327.9 175.628 328.156 175.731 328.516 175.804L329.89 176.077C331.348 176.373 332.077 177.062 332.077 178.142C332.077 178.643 331.931 179.083 331.64 179.461C331.348 179.835 330.945 180.126 330.43 180.336C329.915 180.546 329.325 180.65 328.659 180.65ZM336.924 180.65C336.145 180.65 335.472 180.491 334.907 180.172C334.342 179.853 333.907 179.399 333.602 178.812C333.301 178.224 333.15 177.526 333.15 176.72C333.15 175.931 333.301 175.241 333.602 174.648C333.907 174.056 334.333 173.593 334.88 173.261C335.431 172.928 336.078 172.762 336.821 172.762C337.487 172.762 338.09 172.903 338.633 173.186C339.175 173.468 339.606 173.896 339.925 174.471C340.248 175.045 340.41 175.767 340.41 176.638V177.212H335.181C335.203 177.836 335.377 178.308 335.7 178.627C336.024 178.946 336.443 179.105 336.958 179.105C337.318 179.105 337.626 179.03 337.881 178.88C338.141 178.725 338.325 178.499 338.435 178.203L340.294 178.552C340.107 179.185 339.72 179.693 339.132 180.076C338.549 180.459 337.812 180.65 336.924 180.65ZM335.194 175.927H338.435C338.384 175.43 338.225 175.036 337.956 174.744C337.687 174.452 337.316 174.307 336.842 174.307C336.35 174.307 335.962 174.459 335.68 174.765C335.397 175.065 335.235 175.453 335.194 175.927Z" fill="#12141E"/>
</g>
<defs>
<clipPath id="clip0_398_1502">
<rect width="371" height="304" fill="white"/>
</clipPath>
</defs>
</svg>
