<svg width="712" height="179" viewBox="0 0 712 179" fill="none" xmlns="http://www.w3.org/2000/svg">
<g clip-path="url(#clip0_383_483)">
<rect x="1" y="24" width="138" height="138" fill="white"/>
<rect x="1" y="24" width="138" height="138" stroke="#B6B9C9" stroke-width="2"/>
<path d="M139 163C139 163.788 138.655 164.639 137.833 165.558C137.005 166.482 135.738 167.422 134.024 168.348C130.596 170.2 125.57 171.9 119.275 173.339C106.7 176.213 89.2779 178 70 178C50.7221 178 33.3003 176.213 20.7253 173.339C14.4298 171.9 9.40397 170.2 5.97637 168.348C4.26193 167.422 2.99484 166.482 2.1672 165.558C1.34496 164.639 1 163.788 1 163C1 162.212 1.34496 161.361 2.1672 160.442C2.99484 159.518 4.26193 158.578 5.97637 157.652C9.40397 155.8 14.4298 154.1 20.7253 152.661C33.3003 149.787 50.7221 148 70 148C89.2779 148 106.7 149.787 119.275 152.661C125.57 154.1 130.596 155.8 134.024 157.652C135.738 158.578 137.005 159.518 137.833 160.442C138.655 161.361 139 162.212 139 163Z" fill="white" stroke="#B6B9C9" stroke-width="2"/>
<rect x="2" y="147" width="136" height="16" fill="white"/>
<path d="M40.2432 110.15C39.0173 110.15 38.0374 109.87 37.3037 109.31C36.5745 108.744 36.1963 107.922 36.1689 106.842H38.1992C38.2357 107.357 38.4408 107.744 38.8145 108.004C39.1927 108.259 39.6621 108.387 40.2227 108.387C40.7786 108.387 41.2253 108.268 41.5625 108.031C41.9043 107.79 42.0752 107.475 42.0752 107.088C42.0752 106.737 41.9202 106.468 41.6104 106.281C41.305 106.094 40.8743 105.933 40.3184 105.796L39.1973 105.516C38.3359 105.306 37.6615 104.978 37.1738 104.531C36.6862 104.08 36.4424 103.485 36.4424 102.747C36.4424 102.132 36.6064 101.594 36.9346 101.134C37.2673 100.674 37.7207 100.316 38.2949 100.061C38.8737 99.8053 39.5322 99.6777 40.2705 99.6777C41.0225 99.6777 41.6787 99.8076 42.2393 100.067C42.7998 100.323 43.2373 100.68 43.5518 101.141C43.8662 101.596 44.028 102.123 44.0371 102.72H42.0205C41.984 102.31 41.8086 101.993 41.4941 101.77C41.1842 101.546 40.7695 101.435 40.25 101.435C39.7168 101.435 39.3044 101.546 39.0127 101.77C38.7256 101.988 38.582 102.269 38.582 102.61C38.582 102.989 38.7438 103.271 39.0674 103.458C39.3955 103.645 39.776 103.791 40.209 103.896L41.1318 104.121C41.7015 104.253 42.2165 104.445 42.6768 104.695C43.137 104.941 43.5016 105.263 43.7705 105.659C44.0394 106.051 44.1738 106.532 44.1738 107.102C44.1738 108.027 43.8275 108.767 43.1348 109.323C42.4466 109.875 41.4827 110.15 40.2432 110.15ZM47.6875 105.577V110H45.6367V99.8145H47.6465V103.82C47.8698 103.324 48.1729 102.941 48.5557 102.672C48.9385 102.398 49.4124 102.262 49.9775 102.262C50.7705 102.262 51.4062 102.517 51.8848 103.027C52.3678 103.538 52.6094 104.242 52.6094 105.14V110H50.5518V105.495C50.5518 105.021 50.4287 104.65 50.1826 104.381C49.9411 104.112 49.6038 103.978 49.1709 103.978C48.7334 103.978 48.3757 104.119 48.0977 104.401C47.8242 104.679 47.6875 105.071 47.6875 105.577ZM57.7773 110.15C57.0117 110.15 56.3486 109.986 55.7881 109.658C55.2275 109.326 54.7946 108.865 54.4893 108.277C54.1885 107.685 54.0381 106.997 54.0381 106.213C54.0381 105.424 54.1885 104.734 54.4893 104.142C54.7946 103.549 55.2275 103.089 55.7881 102.761C56.3486 102.428 57.0117 102.262 57.7773 102.262C58.543 102.262 59.2061 102.428 59.7666 102.761C60.3271 103.089 60.7578 103.549 61.0586 104.142C61.3639 104.734 61.5166 105.424 61.5166 106.213C61.5166 106.997 61.3639 107.685 61.0586 108.277C60.7578 108.865 60.3271 109.326 59.7666 109.658C59.2061 109.986 58.543 110.15 57.7773 110.15ZM57.7773 108.537C58.3242 108.537 58.7367 108.316 59.0146 107.874C59.2926 107.432 59.4316 106.876 59.4316 106.206C59.4316 105.532 59.2926 104.976 59.0146 104.538C58.7367 104.096 58.3242 103.875 57.7773 103.875C57.2305 103.875 56.818 104.096 56.54 104.538C56.2666 104.976 56.1299 105.532 56.1299 106.206C56.1299 106.876 56.2666 107.432 56.54 107.874C56.818 108.316 57.2305 108.537 57.7773 108.537ZM62.9453 112.857V102.357H64.9619V103.643H65.0576C65.1488 103.442 65.2809 103.235 65.4541 103.021C65.6318 102.806 65.8643 102.626 66.1514 102.48C66.443 102.335 66.8053 102.262 67.2383 102.262C67.8034 102.262 68.3206 102.408 68.79 102.699C69.2594 102.991 69.6331 103.428 69.9111 104.012C70.1937 104.595 70.335 105.322 70.335 106.192C70.335 107.04 70.1982 107.758 69.9248 108.346C69.6514 108.929 69.2799 109.373 68.8105 109.679C68.3411 109.979 67.8125 110.13 67.2246 110.13C66.8099 110.13 66.459 110.059 66.1719 109.918C65.8848 109.777 65.6501 109.604 65.4678 109.398C65.29 109.189 65.1533 108.981 65.0576 108.776H64.9961V112.857H62.9453ZM66.5957 108.482C67.1289 108.482 67.5345 108.268 67.8125 107.84C68.0951 107.411 68.2363 106.86 68.2363 106.186C68.2363 105.516 68.0973 104.969 67.8193 104.545C67.5413 104.117 67.1335 103.902 66.5957 103.902C66.0671 103.902 65.6592 104.11 65.3721 104.524C65.0895 104.939 64.9482 105.493 64.9482 106.186C64.9482 106.878 65.0918 107.434 65.3789 107.854C65.666 108.273 66.0716 108.482 66.5957 108.482ZM73.1787 110L70.9229 102.357H73.0762L73.7393 105.181C73.8304 105.604 73.9307 106.06 74.04 106.548C74.1494 107.035 74.2565 107.564 74.3613 108.134C74.4661 107.578 74.5755 107.056 74.6895 106.568C74.8079 106.076 74.9196 105.614 75.0244 105.181L75.7217 102.357H77.6084L78.292 105.181C78.3877 105.614 78.4925 106.074 78.6064 106.562C78.7249 107.049 78.8389 107.576 78.9482 108.141C79.0439 107.576 79.1442 107.049 79.249 106.562C79.3538 106.074 79.4564 105.614 79.5566 105.181L80.2197 102.357H82.4004L80.1309 110H78.0459L77.1982 107.054C77.1025 106.726 77.0091 106.356 76.918 105.946C76.8314 105.536 76.7425 105.131 76.6514 104.729C76.5648 105.131 76.4759 105.538 76.3848 105.953C76.2936 106.363 76.2025 106.73 76.1113 107.054L75.2637 110H73.1787ZM85.5859 110.15C84.8568 110.15 84.2507 109.959 83.7676 109.576C83.2845 109.189 83.043 108.617 83.043 107.86C83.043 107.291 83.1797 106.844 83.4531 106.521C83.7266 106.197 84.082 105.96 84.5195 105.81C84.957 105.659 85.4264 105.561 85.9277 105.516C86.584 105.452 87.0557 105.386 87.3428 105.317C87.6344 105.244 87.7803 105.083 87.7803 104.832V104.798C87.7803 104.474 87.6755 104.224 87.4658 104.046C87.2607 103.868 86.9668 103.779 86.584 103.779C86.1875 103.779 85.8685 103.866 85.627 104.039C85.3854 104.208 85.2236 104.415 85.1416 104.661L83.2617 104.347C83.4577 103.686 83.8473 103.173 84.4307 102.809C85.0186 102.444 85.7386 102.262 86.5908 102.262C87.1377 102.262 87.6572 102.348 88.1494 102.521C88.6462 102.695 89.0495 102.973 89.3594 103.355C89.6738 103.734 89.8311 104.233 89.8311 104.853V110H87.8896V108.94H87.8213C87.6344 109.296 87.3564 109.588 86.9873 109.815C86.6182 110.039 86.151 110.15 85.5859 110.15ZM86.167 108.708C86.6455 108.708 87.0352 108.569 87.3359 108.291C87.6413 108.013 87.7939 107.671 87.7939 107.266V106.438C87.7119 106.498 87.5775 106.55 87.3906 106.596C87.2083 106.637 87.0146 106.675 86.8096 106.712C86.6045 106.744 86.4268 106.769 86.2764 106.787C85.8981 106.842 85.5928 106.949 85.3604 107.108C85.1279 107.268 85.0117 107.5 85.0117 107.806C85.0117 108.102 85.1188 108.327 85.333 108.482C85.5518 108.633 85.8298 108.708 86.167 108.708ZM91.5879 110V102.357H93.5703V103.69H93.6523C93.7936 103.221 94.0283 102.866 94.3564 102.624C94.6891 102.378 95.0697 102.255 95.498 102.255C95.7305 102.255 95.9515 102.278 96.1611 102.323V104.155C96.07 104.128 95.9355 104.105 95.7578 104.087C95.5846 104.064 95.4229 104.053 95.2725 104.053C94.7985 104.053 94.4066 104.201 94.0967 104.497C93.7913 104.793 93.6387 105.178 93.6387 105.652V110H91.5879ZM100.399 110.15C99.6201 110.15 98.9479 109.991 98.3828 109.672C97.8177 109.353 97.3825 108.899 97.0771 108.312C96.7764 107.724 96.626 107.026 96.626 106.22C96.626 105.431 96.7764 104.741 97.0771 104.148C97.3825 103.556 97.8086 103.093 98.3555 102.761C98.9069 102.428 99.554 102.262 100.297 102.262C100.962 102.262 101.566 102.403 102.108 102.686C102.651 102.968 103.081 103.396 103.4 103.971C103.724 104.545 103.886 105.267 103.886 106.138V106.712H98.6562C98.679 107.336 98.8522 107.808 99.1758 108.127C99.4993 108.446 99.9186 108.605 100.434 108.605C100.794 108.605 101.101 108.53 101.356 108.38C101.616 108.225 101.801 107.999 101.91 107.703L103.77 108.052C103.583 108.685 103.195 109.193 102.607 109.576C102.024 109.959 101.288 110.15 100.399 110.15ZM98.6699 105.427H101.91C101.86 104.93 101.701 104.536 101.432 104.244C101.163 103.952 100.791 103.807 100.317 103.807C99.8252 103.807 99.4378 103.959 99.1553 104.265C98.8727 104.565 98.7109 104.953 98.6699 105.427Z" fill="#12141E"/>
<path d="M139 23C139 23.788 138.655 24.6391 137.833 25.5575C137.005 26.482 135.738 27.4217 134.024 28.3482C130.596 30.2005 125.57 31.8999 119.275 33.3389C106.7 36.2131 89.2779 38 70 38C50.7221 38 33.3003 36.2131 20.7253 33.3389C14.4298 31.8999 9.40397 30.2005 5.97637 28.3482C4.26193 27.4217 2.99484 26.482 2.1672 25.5575C1.34496 24.6391 1 23.788 1 23C1 22.212 1.34496 21.3609 2.1672 20.4425C2.99484 19.518 4.26193 18.5783 5.97637 17.6518C9.40397 15.7995 14.4298 14.1001 20.7253 12.6611C33.3003 9.78687 50.7221 8 70 8C89.2779 8 106.7 9.78687 119.275 12.6611C125.57 14.1001 130.596 15.7995 134.024 17.6518C135.738 18.5783 137.005 19.518 137.833 20.4425C138.655 21.3609 139 22.212 139 23Z" fill="white" stroke="#B6B9C9" stroke-width="2"/>
<path d="M458.408 69.5811C477.689 77.8806 491 95.9621 491 116.875C491 145.593 465.87 169 434.708 169H285.75C248.26 169 218 140.836 218 106.25C218 71.6639 248.26 43.5 285.75 43.5C288.039 43.5 290.303 43.6058 292.537 43.8123C294.547 43.9982 296.493 43.0191 297.539 41.2901C312.061 17.2672 339.796 1 371.688 1C413.504 1 448.185 28.9756 455.291 65.719C455.625 67.4448 456.8 68.8891 458.408 69.5811Z" fill="white" stroke="#B6B9C9" stroke-width="2"/>
<rect x="573" y="24" width="138" height="138" fill="white"/>
<rect x="573" y="24" width="138" height="138" stroke="#B6B9C9" stroke-width="2"/>
<path d="M711 163C711 163.788 710.655 164.639 709.833 165.558C709.005 166.482 707.738 167.422 706.024 168.348C702.596 170.2 697.57 171.9 691.275 173.339C678.7 176.213 661.278 178 642 178C622.722 178 605.3 176.213 592.725 173.339C586.43 171.9 581.404 170.2 577.976 168.348C576.262 167.422 574.995 166.482 574.167 165.558C573.345 164.639 573 163.788 573 163C573 162.212 573.345 161.361 574.167 160.442C574.995 159.518 576.262 158.578 577.976 157.652C581.404 155.8 586.43 154.1 592.725 152.661C605.3 149.787 622.722 148 642 148C661.278 148 678.7 149.787 691.275 152.661C697.57 154.1 702.596 155.8 706.024 157.652C707.738 158.578 709.005 159.518 709.833 160.442C710.655 161.361 711 162.212 711 163Z" fill="white" stroke="#B6B9C9" stroke-width="2"/>
<rect x="574" y="147" width="136" height="16" fill="white"/>
<path d="M590.84 100L594.319 89.8145H597.054L600.622 100H598.305L597.519 97.6348H593.902L593.144 100H590.84ZM594.422 96.001H596.979L596.671 95.085C596.507 94.5654 596.343 94.0026 596.179 93.3965C596.015 92.7904 595.844 92.141 595.666 91.4482C595.497 92.1501 595.336 92.804 595.181 93.4102C595.026 94.0163 594.871 94.5745 594.716 95.085L594.422 96.001ZM601.839 102.857V92.3574H603.855V93.6426H603.951C604.042 93.4421 604.174 93.2347 604.348 93.0205C604.525 92.8063 604.758 92.6263 605.045 92.4805C605.337 92.3346 605.699 92.2617 606.132 92.2617C606.697 92.2617 607.214 92.4076 607.684 92.6992C608.153 92.9909 608.527 93.4284 608.805 94.0117C609.087 94.5951 609.229 95.3219 609.229 96.1924C609.229 97.04 609.092 97.7578 608.818 98.3457C608.545 98.929 608.174 99.3734 607.704 99.6787C607.235 99.9795 606.706 100.13 606.118 100.13C605.703 100.13 605.353 100.059 605.065 99.918C604.778 99.7767 604.544 99.6035 604.361 99.3984C604.184 99.1888 604.047 98.9814 603.951 98.7764H603.89V102.857H601.839ZM605.489 98.4824C606.022 98.4824 606.428 98.2682 606.706 97.8398C606.989 97.4115 607.13 96.86 607.13 96.1855C607.13 95.5156 606.991 94.9688 606.713 94.5449C606.435 94.1165 606.027 93.9023 605.489 93.9023C604.961 93.9023 604.553 94.1097 604.266 94.5244C603.983 94.9391 603.842 95.4928 603.842 96.1855C603.842 96.8783 603.985 97.4342 604.272 97.8535C604.56 98.2728 604.965 98.4824 605.489 98.4824ZM610.671 102.857V92.3574H612.688V93.6426H612.783C612.874 93.4421 613.007 93.2347 613.18 93.0205C613.357 92.8063 613.59 92.6263 613.877 92.4805C614.169 92.3346 614.531 92.2617 614.964 92.2617C615.529 92.2617 616.046 92.4076 616.516 92.6992C616.985 92.9909 617.359 93.4284 617.637 94.0117C617.919 94.5951 618.061 95.3219 618.061 96.1924C618.061 97.04 617.924 97.7578 617.65 98.3457C617.377 98.929 617.006 99.3734 616.536 99.6787C616.067 99.9795 615.538 100.13 614.95 100.13C614.535 100.13 614.185 100.059 613.897 99.918C613.61 99.7767 613.376 99.6035 613.193 99.3984C613.016 99.1888 612.879 98.9814 612.783 98.7764H612.722V102.857H610.671ZM614.321 98.4824C614.854 98.4824 615.26 98.2682 615.538 97.8398C615.821 97.4115 615.962 96.86 615.962 96.1855C615.962 95.5156 615.823 94.9688 615.545 94.5449C615.267 94.1165 614.859 93.9023 614.321 93.9023C613.793 93.9023 613.385 94.1097 613.098 94.5244C612.815 94.9391 612.674 95.4928 612.674 96.1855C612.674 96.8783 612.817 97.4342 613.104 97.8535C613.392 98.2728 613.797 98.4824 614.321 98.4824ZM619.934 94.0527L619.722 89.8145H621.697L621.492 94.0527H619.934ZM626.886 100.15C625.965 100.15 625.204 99.9544 624.603 99.5625C624.006 99.1706 623.641 98.6191 623.509 97.9082L625.416 97.5801C625.612 98.291 626.122 98.6465 626.947 98.6465C627.339 98.6465 627.647 98.5736 627.87 98.4277C628.098 98.2773 628.212 98.0882 628.212 97.8604C628.212 97.473 627.884 97.2109 627.228 97.0742L625.908 96.8008C624.441 96.5 623.707 95.7777 623.707 94.6338C623.707 93.9001 624.001 93.3213 624.589 92.8975C625.177 92.4736 625.954 92.2617 626.92 92.2617C627.827 92.2617 628.549 92.4463 629.087 92.8154C629.625 93.1846 629.964 93.679 630.105 94.2988L628.287 94.6201C628.205 94.3604 628.055 94.1484 627.836 93.9844C627.617 93.8158 627.321 93.7314 626.947 93.7314C626.61 93.7314 626.327 93.8044 626.1 93.9502C625.872 94.0915 625.758 94.276 625.758 94.5039C625.758 94.6953 625.831 94.8594 625.977 94.9961C626.127 95.1283 626.382 95.2308 626.742 95.3037L628.116 95.5771C629.575 95.8734 630.304 96.5615 630.304 97.6416C630.304 98.1429 630.158 98.5827 629.866 98.9609C629.575 99.3346 629.171 99.6263 628.656 99.8359C628.141 100.046 627.551 100.15 626.886 100.15ZM635.068 100V89.8145H639.108C640.225 89.8145 641.063 90.0605 641.624 90.5527C642.189 91.0449 642.472 91.6715 642.472 92.4326C642.472 93.0342 642.296 93.5195 641.945 93.8887C641.599 94.2578 641.164 94.5016 640.64 94.6201V94.7227C641.022 94.7409 641.382 94.8503 641.72 95.0508C642.062 95.2513 642.337 95.5339 642.547 95.8984C642.761 96.2585 642.868 96.6891 642.868 97.1904C642.868 97.7282 642.736 98.209 642.472 98.6328C642.207 99.0566 641.815 99.3916 641.296 99.6377C640.776 99.8792 640.134 100 639.368 100H635.068ZM637.153 98.2842H638.958C639.573 98.2842 640.02 98.1657 640.298 97.9287C640.58 97.6917 640.722 97.3796 640.722 96.9922C640.722 96.5684 640.567 96.2174 640.257 95.9395C639.951 95.6615 639.537 95.5225 639.013 95.5225H637.153V98.2842ZM637.153 94.0938H638.801C639.247 94.0938 639.619 93.9753 639.915 93.7383C640.211 93.5013 640.359 93.1777 640.359 92.7676C640.359 92.3984 640.227 92.0977 639.963 91.8652C639.703 91.6328 639.329 91.5166 638.842 91.5166H637.153V94.0938ZM646.423 100.15C645.694 100.15 645.088 99.959 644.604 99.5762C644.121 99.1888 643.88 98.6169 643.88 97.8604C643.88 97.2907 644.017 96.8441 644.29 96.5205C644.563 96.1969 644.919 95.96 645.356 95.8096C645.794 95.6592 646.263 95.5612 646.765 95.5156C647.421 95.4518 647.893 95.3857 648.18 95.3174C648.471 95.2445 648.617 95.0827 648.617 94.832V94.7979C648.617 94.4743 648.512 94.2236 648.303 94.0459C648.098 93.8682 647.804 93.7793 647.421 93.7793C647.024 93.7793 646.705 93.8659 646.464 94.0391C646.222 94.2077 646.061 94.415 645.979 94.6611L644.099 94.3467C644.295 93.6859 644.684 93.1732 645.268 92.8086C645.855 92.444 646.576 92.2617 647.428 92.2617C647.975 92.2617 648.494 92.3483 648.986 92.5215C649.483 92.6947 649.886 92.9727 650.196 93.3555C650.511 93.7337 650.668 94.2327 650.668 94.8525V100H648.727V98.9404H648.658C648.471 99.2959 648.193 99.5876 647.824 99.8154C647.455 100.039 646.988 100.15 646.423 100.15ZM647.004 98.708C647.482 98.708 647.872 98.569 648.173 98.291C648.478 98.013 648.631 97.6712 648.631 97.2656V96.4385C648.549 96.4977 648.414 96.5501 648.228 96.5957C648.045 96.6367 647.852 96.6755 647.646 96.7119C647.441 96.7438 647.264 96.7689 647.113 96.7871C646.735 96.8418 646.43 96.9489 646.197 97.1084C645.965 97.2679 645.849 97.5003 645.849 97.8057C645.849 98.1019 645.956 98.3275 646.17 98.4824C646.389 98.6328 646.667 98.708 647.004 98.708ZM655.843 100.15C655.073 100.15 654.407 99.9863 653.847 99.6582C653.291 99.3255 652.86 98.8652 652.555 98.2773C652.254 97.6849 652.104 96.9967 652.104 96.2129C652.104 95.4245 652.254 94.734 652.555 94.1416C652.86 93.5492 653.291 93.0889 653.847 92.7607C654.407 92.4281 655.073 92.2617 655.843 92.2617C656.75 92.2617 657.506 92.4896 658.112 92.9453C658.718 93.3965 659.094 94.0163 659.24 94.8047L657.333 95.1602C657.246 94.7637 657.078 94.4515 656.827 94.2236C656.581 93.9912 656.26 93.875 655.863 93.875C655.316 93.875 654.902 94.0915 654.619 94.5244C654.337 94.9528 654.195 95.5133 654.195 96.2061C654.195 96.8896 654.337 97.4502 654.619 97.8877C654.902 98.3206 655.316 98.5371 655.863 98.5371C656.26 98.5371 656.586 98.4186 656.841 98.1816C657.096 97.9401 657.265 97.6143 657.347 97.2041L659.254 97.5527C659.108 98.3594 658.732 98.9951 658.126 99.46C657.52 99.9202 656.759 100.15 655.843 100.15ZM660.669 100V89.8145H662.72V95.2969H662.836L665.338 92.3574H667.71L664.853 95.6729L667.854 100H665.44L663.308 96.8828L662.72 97.5459V100H660.669ZM671.928 100.15C671.148 100.15 670.476 99.9909 669.911 99.6719C669.346 99.3529 668.911 98.8994 668.605 98.3115C668.305 97.7236 668.154 97.0264 668.154 96.2197C668.154 95.4313 668.305 94.7409 668.605 94.1484C668.911 93.556 669.337 93.0934 669.884 92.7607C670.435 92.4281 671.082 92.2617 671.825 92.2617C672.491 92.2617 673.094 92.403 673.637 92.6855C674.179 92.9681 674.61 93.3965 674.929 93.9707C675.252 94.5449 675.414 95.2673 675.414 96.1377V96.7119H670.185C670.207 97.3363 670.381 97.8079 670.704 98.127C671.028 98.446 671.447 98.6055 671.962 98.6055C672.322 98.6055 672.63 98.5303 672.885 98.3799C673.145 98.2249 673.329 97.9993 673.438 97.7031L675.298 98.0518C675.111 98.6852 674.724 99.1934 674.136 99.5762C673.552 99.959 672.816 100.15 671.928 100.15ZM670.198 95.4268H673.438C673.388 94.93 673.229 94.5358 672.96 94.2441C672.691 93.9525 672.32 93.8066 671.846 93.8066C671.354 93.8066 670.966 93.9593 670.684 94.2646C670.401 94.5654 670.239 94.9528 670.198 95.4268ZM678.866 95.5771V100H676.815V92.3574H678.75L678.777 93.9365C678.992 93.4033 679.295 92.9909 679.687 92.6992C680.078 92.4076 680.568 92.2617 681.156 92.2617C681.949 92.2617 682.585 92.5169 683.063 93.0273C683.542 93.5378 683.781 94.2419 683.781 95.1396V100H681.73V95.4951C681.73 95.0212 681.607 94.6497 681.361 94.3809C681.12 94.112 680.783 93.9775 680.35 93.9775C679.912 93.9775 679.554 94.1188 679.276 94.4014C679.003 94.6794 678.866 95.0713 678.866 95.5771ZM688.334 100.13C687.746 100.13 687.217 99.9795 686.748 99.6787C686.279 99.3734 685.905 98.929 685.627 98.3457C685.354 97.7578 685.217 97.04 685.217 96.1924C685.217 95.3219 685.358 94.5951 685.641 94.0117C685.923 93.4284 686.299 92.9909 686.769 92.6992C687.238 92.4076 687.755 92.2617 688.32 92.2617C688.753 92.2617 689.113 92.3346 689.4 92.4805C689.688 92.6263 689.918 92.8063 690.091 93.0205C690.269 93.2347 690.403 93.4421 690.494 93.6426H690.562V89.8145H692.613V100H690.597V98.7764H690.494C690.398 98.9814 690.262 99.1888 690.084 99.3984C689.906 99.6035 689.674 99.7767 689.387 99.918C689.1 100.059 688.749 100.13 688.334 100.13ZM688.963 98.4824C689.482 98.4824 689.886 98.2728 690.173 97.8535C690.46 97.4342 690.604 96.8783 690.604 96.1855C690.604 95.4928 690.46 94.9391 690.173 94.5244C689.89 94.1097 689.487 93.9023 688.963 93.9023C688.425 93.9023 688.017 94.1165 687.739 94.5449C687.461 94.9688 687.322 95.5156 687.322 96.1855C687.322 96.86 687.461 97.4115 687.739 97.8398C688.022 98.2682 688.43 98.4824 688.963 98.4824ZM623.851 120.15C622.625 120.15 621.645 119.87 620.911 119.31C620.182 118.744 619.804 117.922 619.776 116.842H621.807C621.843 117.357 622.048 117.744 622.422 118.004C622.8 118.259 623.27 118.387 623.83 118.387C624.386 118.387 624.833 118.268 625.17 118.031C625.512 117.79 625.683 117.475 625.683 117.088C625.683 116.737 625.528 116.468 625.218 116.281C624.912 116.094 624.482 115.933 623.926 115.796L622.805 115.516C621.943 115.306 621.269 114.978 620.781 114.531C620.294 114.08 620.05 113.485 620.05 112.747C620.05 112.132 620.214 111.594 620.542 111.134C620.875 110.674 621.328 110.316 621.902 110.061C622.481 109.805 623.14 109.678 623.878 109.678C624.63 109.678 625.286 109.808 625.847 110.067C626.407 110.323 626.845 110.68 627.159 111.141C627.474 111.596 627.635 112.123 627.645 112.72H625.628C625.591 112.31 625.416 111.993 625.102 111.77C624.792 111.546 624.377 111.435 623.857 111.435C623.324 111.435 622.912 111.546 622.62 111.77C622.333 111.988 622.189 112.269 622.189 112.61C622.189 112.989 622.351 113.271 622.675 113.458C623.003 113.645 623.383 113.791 623.816 113.896L624.739 114.121C625.309 114.253 625.824 114.445 626.284 114.695C626.744 114.941 627.109 115.263 627.378 115.659C627.647 116.051 627.781 116.532 627.781 117.102C627.781 118.027 627.435 118.767 626.742 119.323C626.054 119.875 625.09 120.15 623.851 120.15ZM632.696 120.15C631.917 120.15 631.245 119.991 630.68 119.672C630.115 119.353 629.679 118.899 629.374 118.312C629.073 117.724 628.923 117.026 628.923 116.22C628.923 115.431 629.073 114.741 629.374 114.148C629.679 113.556 630.105 113.093 630.652 112.761C631.204 112.428 631.851 112.262 632.594 112.262C633.259 112.262 633.863 112.403 634.405 112.686C634.948 112.968 635.378 113.396 635.697 113.971C636.021 114.545 636.183 115.267 636.183 116.138V116.712H630.953C630.976 117.336 631.149 117.808 631.473 118.127C631.796 118.446 632.215 118.605 632.73 118.605C633.09 118.605 633.398 118.53 633.653 118.38C633.913 118.225 634.098 117.999 634.207 117.703L636.066 118.052C635.88 118.685 635.492 119.193 634.904 119.576C634.321 119.959 633.585 120.15 632.696 120.15ZM630.967 115.427H634.207C634.157 114.93 633.997 114.536 633.729 114.244C633.46 113.952 633.088 113.807 632.614 113.807C632.122 113.807 631.735 113.959 631.452 114.265C631.17 114.565 631.008 114.953 630.967 115.427ZM637.584 120V112.357H639.566V113.69H639.648C639.79 113.221 640.024 112.866 640.353 112.624C640.685 112.378 641.066 112.255 641.494 112.255C641.727 112.255 641.948 112.278 642.157 112.323V114.155C642.066 114.128 641.932 114.105 641.754 114.087C641.581 114.064 641.419 114.053 641.269 114.053C640.795 114.053 640.403 114.201 640.093 114.497C639.787 114.793 639.635 115.178 639.635 115.652V120H637.584ZM645.657 120L642.841 112.357H645.021L646.307 116.322C646.411 116.664 646.507 117.008 646.594 117.354C646.685 117.701 646.771 118.052 646.854 118.407C646.931 118.052 647.011 117.703 647.093 117.361C647.179 117.015 647.277 116.669 647.387 116.322L648.658 112.357H650.812L647.988 120H645.657ZM655.091 120.15C654.312 120.15 653.639 119.991 653.074 119.672C652.509 119.353 652.074 118.899 651.769 118.312C651.468 117.724 651.317 117.026 651.317 116.22C651.317 115.431 651.468 114.741 651.769 114.148C652.074 113.556 652.5 113.093 653.047 112.761C653.598 112.428 654.245 112.262 654.988 112.262C655.654 112.262 656.257 112.403 656.8 112.686C657.342 112.968 657.773 113.396 658.092 113.971C658.415 114.545 658.577 115.267 658.577 116.138V116.712H653.348C653.37 117.336 653.544 117.808 653.867 118.127C654.191 118.446 654.61 118.605 655.125 118.605C655.485 118.605 655.793 118.53 656.048 118.38C656.308 118.225 656.492 117.999 656.602 117.703L658.461 118.052C658.274 118.685 657.887 119.193 657.299 119.576C656.715 119.959 655.979 120.15 655.091 120.15ZM653.361 115.427H656.602C656.551 114.93 656.392 114.536 656.123 114.244C655.854 113.952 655.483 113.807 655.009 113.807C654.517 113.807 654.129 113.959 653.847 114.265C653.564 114.565 653.402 114.953 653.361 115.427ZM659.979 120V112.357H661.961V113.69H662.043C662.184 113.221 662.419 112.866 662.747 112.624C663.08 112.378 663.46 112.255 663.889 112.255C664.121 112.255 664.342 112.278 664.552 112.323V114.155C664.461 114.128 664.326 114.105 664.148 114.087C663.975 114.064 663.813 114.053 663.663 114.053C663.189 114.053 662.797 114.201 662.487 114.497C662.182 114.793 662.029 115.178 662.029 115.652V120H659.979Z" fill="#12141E"/>
<path d="M711 23C711 23.788 710.655 24.6391 709.833 25.5575C709.005 26.482 707.738 27.4217 706.024 28.3482C702.596 30.2005 697.57 31.8999 691.275 33.3389C678.7 36.2131 661.278 38 642 38C622.722 38 605.3 36.2131 592.725 33.3389C586.43 31.8999 581.404 30.2005 577.976 28.3482C576.262 27.4217 574.995 26.482 574.167 25.5575C573.345 24.6391 573 23.788 573 23C573 22.212 573.345 21.3609 574.167 20.4425C574.995 19.518 576.262 18.5783 577.976 17.6518C581.404 15.7995 586.43 14.1001 592.725 12.6611C605.3 9.78687 622.722 8 642 8C661.278 8 678.7 9.78687 691.275 12.6611C697.57 14.1001 702.596 15.7995 706.024 17.6518C707.738 18.5783 709.005 19.518 709.833 20.4425C710.655 21.3609 711 22.212 711 23Z" fill="white" stroke="#B6B9C9" stroke-width="2"/>
<path d="M572.707 71.7071C573.098 71.3166 573.098 70.6834 572.707 70.2929L566.343 63.9289C565.953 63.5384 565.319 63.5384 564.929 63.9289C564.538 64.3195 564.538 64.9526 564.929 65.3431L570.586 71L564.929 76.6569C564.538 77.0474 564.538 77.6805 564.929 78.0711C565.319 78.4616 565.953 78.4616 566.343 78.0711L572.707 71.7071ZM140 72H572V70H140V72Z" fill="#B6B9C9"/>
<rect x="314" y="56" width="82" height="30" rx="4" fill="#666977"/>
<path d="M325.069 76L322.335 65.8145H324.611L325.794 70.8252C325.899 71.2946 325.994 71.7959 326.081 72.3291C326.172 72.8623 326.259 73.391 326.341 73.915C326.432 73.391 326.525 72.8623 326.621 72.3291C326.717 71.7959 326.822 71.2946 326.936 70.8252L328.18 65.8145H330.347L331.584 70.8252C331.698 71.29 331.803 71.7868 331.898 72.3154C331.994 72.8441 332.088 73.3682 332.179 73.8877C332.261 73.3682 332.345 72.8441 332.432 72.3154C332.523 71.7868 332.621 71.29 332.726 70.8252L333.908 65.8145H336.191L333.45 76H331.071L329.718 70.791C329.627 70.4219 329.545 70.0345 329.472 69.6289C329.399 69.2188 329.326 68.7949 329.253 68.3574C329.189 68.7812 329.123 69.1982 329.055 69.6084C328.986 70.014 328.902 70.4082 328.802 70.791L327.455 76H325.069ZM340.163 76.1504C339.384 76.1504 338.712 75.9909 338.146 75.6719C337.581 75.3529 337.146 74.8994 336.841 74.3115C336.54 73.7236 336.39 73.0264 336.39 72.2197C336.39 71.4313 336.54 70.7409 336.841 70.1484C337.146 69.556 337.572 69.0934 338.119 68.7607C338.671 68.4281 339.318 68.2617 340.061 68.2617C340.726 68.2617 341.33 68.403 341.872 68.6855C342.414 68.9681 342.845 69.3965 343.164 69.9707C343.488 70.5449 343.649 71.2673 343.649 72.1377V72.7119H338.42C338.443 73.3363 338.616 73.8079 338.939 74.127C339.263 74.446 339.682 74.6055 340.197 74.6055C340.557 74.6055 340.865 74.5303 341.12 74.3799C341.38 74.2249 341.564 73.9993 341.674 73.7031L343.533 74.0518C343.346 74.6852 342.959 75.1934 342.371 75.5762C341.788 75.959 341.052 76.1504 340.163 76.1504ZM338.434 71.4268H341.674C341.624 70.93 341.464 70.5358 341.195 70.2441C340.926 69.9525 340.555 69.8066 340.081 69.8066C339.589 69.8066 339.201 69.9593 338.919 70.2646C338.636 70.5654 338.475 70.9528 338.434 71.4268ZM349.33 76.1299C348.915 76.1299 348.564 76.0592 348.277 75.918C347.99 75.7767 347.756 75.6035 347.573 75.3984C347.396 75.1888 347.259 74.9814 347.163 74.7764H347.067V76H345.051V65.8145H347.102V69.6426H347.163C347.254 69.4421 347.386 69.2347 347.56 69.0205C347.737 68.8063 347.97 68.6263 348.257 68.4805C348.549 68.3346 348.911 68.2617 349.344 68.2617C349.909 68.2617 350.426 68.4076 350.896 68.6992C351.365 68.9909 351.739 69.4284 352.017 70.0117C352.299 70.5951 352.44 71.3219 352.44 72.1924C352.44 73.04 352.304 73.7578 352.03 74.3457C351.757 74.929 351.385 75.3734 350.916 75.6787C350.447 75.9795 349.918 76.1299 349.33 76.1299ZM348.701 74.4824C349.234 74.4824 349.64 74.2682 349.918 73.8398C350.201 73.4115 350.342 72.86 350.342 72.1855C350.342 71.5156 350.203 70.9688 349.925 70.5449C349.647 70.1165 349.239 69.9023 348.701 69.9023C348.173 69.9023 347.765 70.1097 347.478 70.5244C347.195 70.9391 347.054 71.4928 347.054 72.1855C347.054 72.8783 347.197 73.4342 347.484 73.8535C347.771 74.2728 348.177 74.4824 348.701 74.4824ZM355.934 71.5771V76H353.883V65.8145H355.893V69.8203C356.116 69.3236 356.419 68.9408 356.802 68.6719C357.185 68.3984 357.659 68.2617 358.224 68.2617C359.017 68.2617 359.652 68.5169 360.131 69.0273C360.614 69.5378 360.855 70.2419 360.855 71.1396V76H358.798V71.4951C358.798 71.0212 358.675 70.6497 358.429 70.3809C358.187 70.112 357.85 69.9775 357.417 69.9775C356.979 69.9775 356.622 70.1188 356.344 70.4014C356.07 70.6794 355.934 71.0713 355.934 71.5771ZM366.023 76.1504C365.258 76.1504 364.595 75.9863 364.034 75.6582C363.474 75.3255 363.041 74.8652 362.735 74.2773C362.435 73.6849 362.284 72.9967 362.284 72.2129C362.284 71.4245 362.435 70.734 362.735 70.1416C363.041 69.5492 363.474 69.0889 364.034 68.7607C364.595 68.4281 365.258 68.2617 366.023 68.2617C366.789 68.2617 367.452 68.4281 368.013 68.7607C368.573 69.0889 369.004 69.5492 369.305 70.1416C369.61 70.734 369.763 71.4245 369.763 72.2129C369.763 72.9967 369.61 73.6849 369.305 74.2773C369.004 74.8652 368.573 75.3255 368.013 75.6582C367.452 75.9863 366.789 76.1504 366.023 76.1504ZM366.023 74.5371C366.57 74.5371 366.983 74.3161 367.261 73.874C367.539 73.432 367.678 72.876 367.678 72.2061C367.678 71.5316 367.539 70.9756 367.261 70.5381C366.983 70.096 366.57 69.875 366.023 69.875C365.477 69.875 365.064 70.096 364.786 70.5381C364.513 70.9756 364.376 71.5316 364.376 72.2061C364.376 72.876 364.513 73.432 364.786 73.874C365.064 74.3161 365.477 74.5371 366.023 74.5371ZM374.609 76.1504C373.844 76.1504 373.181 75.9863 372.62 75.6582C372.06 75.3255 371.627 74.8652 371.321 74.2773C371.021 73.6849 370.87 72.9967 370.87 72.2129C370.87 71.4245 371.021 70.734 371.321 70.1416C371.627 69.5492 372.06 69.0889 372.62 68.7607C373.181 68.4281 373.844 68.2617 374.609 68.2617C375.375 68.2617 376.038 68.4281 376.599 68.7607C377.159 69.0889 377.59 69.5492 377.891 70.1416C378.196 70.734 378.349 71.4245 378.349 72.2129C378.349 72.9967 378.196 73.6849 377.891 74.2773C377.59 74.8652 377.159 75.3255 376.599 75.6582C376.038 75.9863 375.375 76.1504 374.609 76.1504ZM374.609 74.5371C375.156 74.5371 375.569 74.3161 375.847 73.874C376.125 73.432 376.264 72.876 376.264 72.2061C376.264 71.5316 376.125 70.9756 375.847 70.5381C375.569 70.096 375.156 69.875 374.609 69.875C374.062 69.875 373.65 70.096 373.372 70.5381C373.099 70.9756 372.962 71.5316 372.962 72.2061C372.962 72.876 373.099 73.432 373.372 73.874C373.65 74.3161 374.062 74.5371 374.609 74.5371ZM379.777 76V65.8145H381.828V71.2969H381.944L384.446 68.3574H386.818L383.961 71.6729L386.962 76H384.549L382.416 72.8828L381.828 73.5459V76H379.777Z" fill="white"/>
<path d="M139.293 123.293C138.902 123.683 138.902 124.317 139.293 124.707L145.657 131.071C146.047 131.462 146.681 131.462 147.071 131.071C147.462 130.681 147.462 130.047 147.071 129.657L141.414 124L147.071 118.343C147.462 117.953 147.462 117.319 147.071 116.929C146.681 116.538 146.047 116.538 145.657 116.929L139.293 123.293ZM140 125H572V123H140V125Z" fill="#B6B9C9"/>
<rect x="276" y="109" width="158" height="30" rx="4" fill="#666977"/>
<path d="M284.335 129L287.814 118.814H290.549L294.117 129H291.8L291.014 126.635H287.397L286.639 129H284.335ZM287.917 125.001H290.474L290.166 124.085C290.002 123.565 289.838 123.003 289.674 122.396C289.51 121.79 289.339 121.141 289.161 120.448C288.993 121.15 288.831 121.804 288.676 122.41C288.521 123.016 288.366 123.575 288.211 124.085L287.917 125.001ZM297.802 129.13C297.214 129.13 296.685 128.979 296.216 128.679C295.746 128.373 295.373 127.929 295.095 127.346C294.821 126.758 294.685 126.04 294.685 125.192C294.685 124.322 294.826 123.595 295.108 123.012C295.391 122.428 295.767 121.991 296.236 121.699C296.706 121.408 297.223 121.262 297.788 121.262C298.221 121.262 298.581 121.335 298.868 121.48C299.155 121.626 299.385 121.806 299.559 122.021C299.736 122.235 299.871 122.442 299.962 122.643H300.03V118.814H302.081V129H300.064V127.776H299.962C299.866 127.981 299.729 128.189 299.552 128.398C299.374 128.604 299.142 128.777 298.854 128.918C298.567 129.059 298.216 129.13 297.802 129.13ZM298.431 127.482C298.95 127.482 299.354 127.273 299.641 126.854C299.928 126.434 300.071 125.878 300.071 125.186C300.071 124.493 299.928 123.939 299.641 123.524C299.358 123.11 298.955 122.902 298.431 122.902C297.893 122.902 297.485 123.117 297.207 123.545C296.929 123.969 296.79 124.516 296.79 125.186C296.79 125.86 296.929 126.411 297.207 126.84C297.49 127.268 297.897 127.482 298.431 127.482ZM303.838 129V121.357H305.738L305.82 122.841C306.025 122.285 306.326 121.879 306.723 121.624C307.119 121.369 307.545 121.241 308.001 121.241C308.967 121.241 309.623 121.813 309.97 122.957C310.184 122.369 310.514 121.936 310.961 121.658C311.412 121.38 311.9 121.241 312.424 121.241C313.126 121.241 313.707 121.469 314.167 121.925C314.632 122.376 314.864 123.016 314.864 123.846V129H312.807V124.235C312.807 123.807 312.69 123.488 312.458 123.278C312.226 123.064 311.938 122.957 311.597 122.957C311.209 122.957 310.902 123.08 310.674 123.326C310.451 123.572 310.339 123.896 310.339 124.297V129H308.356V124.181C308.356 123.807 308.245 123.511 308.021 123.292C307.803 123.069 307.518 122.957 307.167 122.957C306.807 122.957 306.504 123.08 306.258 123.326C306.012 123.568 305.889 123.919 305.889 124.379V129H303.838ZM316.621 129V121.357H318.672V129H316.621ZM317.646 120.359C317.337 120.359 317.072 120.257 316.854 120.052C316.635 119.847 316.525 119.598 316.525 119.307C316.525 119.015 316.635 118.767 316.854 118.562C317.072 118.356 317.337 118.254 317.646 118.254C317.956 118.254 318.221 118.356 318.439 118.562C318.663 118.767 318.774 119.015 318.774 119.307C318.774 119.598 318.663 119.847 318.439 120.052C318.221 120.257 317.956 120.359 317.646 120.359ZM322.473 124.577V129H320.422V121.357H322.356L322.384 122.937C322.598 122.403 322.901 121.991 323.293 121.699C323.685 121.408 324.175 121.262 324.763 121.262C325.556 121.262 326.191 121.517 326.67 122.027C327.148 122.538 327.388 123.242 327.388 124.14V129H325.337V124.495C325.337 124.021 325.214 123.65 324.968 123.381C324.726 123.112 324.389 122.978 323.956 122.978C323.519 122.978 323.161 123.119 322.883 123.401C322.609 123.679 322.473 124.071 322.473 124.577ZM331.927 129L335.406 118.814H338.141L341.709 129H339.392L338.605 126.635H334.989L334.23 129H331.927ZM335.509 125.001H338.065L337.758 124.085C337.594 123.565 337.43 123.003 337.266 122.396C337.102 121.79 336.931 121.141 336.753 120.448C336.584 121.15 336.423 121.804 336.268 122.41C336.113 123.016 335.958 123.575 335.803 124.085L335.509 125.001ZM342.974 129V118.814H346.945C347.72 118.814 348.379 118.963 348.921 119.259C349.463 119.55 349.876 119.956 350.158 120.476C350.445 120.991 350.589 121.583 350.589 122.253C350.589 122.927 350.443 123.522 350.151 124.037C349.864 124.548 349.445 124.949 348.894 125.24C348.342 125.527 347.677 125.671 346.897 125.671H345.059V129H342.974ZM345.059 123.989H346.562C347.201 123.989 347.672 123.827 347.978 123.504C348.283 123.18 348.436 122.763 348.436 122.253C348.436 121.738 348.283 121.323 347.978 121.009C347.672 120.694 347.198 120.537 346.556 120.537H345.059V123.989ZM354.137 118.814V129H352.052V118.814H354.137ZM355.88 131.7L356.481 127.462H358.532L357.274 131.7H355.88ZM367.282 129.15C366.056 129.15 365.076 128.87 364.343 128.31C363.614 127.744 363.235 126.922 363.208 125.842H365.238C365.275 126.357 365.48 126.744 365.854 127.004C366.232 127.259 366.701 127.387 367.262 127.387C367.818 127.387 368.264 127.268 368.602 127.031C368.943 126.79 369.114 126.475 369.114 126.088C369.114 125.737 368.959 125.468 368.649 125.281C368.344 125.094 367.913 124.933 367.357 124.796L366.236 124.516C365.375 124.306 364.701 123.978 364.213 123.531C363.725 123.08 363.481 122.485 363.481 121.747C363.481 121.132 363.646 120.594 363.974 120.134C364.306 119.674 364.76 119.316 365.334 119.061C365.913 118.805 366.571 118.678 367.31 118.678C368.062 118.678 368.718 118.808 369.278 119.067C369.839 119.323 370.276 119.68 370.591 120.141C370.905 120.596 371.067 121.123 371.076 121.72H369.06C369.023 121.31 368.848 120.993 368.533 120.77C368.223 120.546 367.809 120.435 367.289 120.435C366.756 120.435 366.343 120.546 366.052 120.77C365.765 120.988 365.621 121.269 365.621 121.61C365.621 121.989 365.783 122.271 366.106 122.458C366.435 122.645 366.815 122.791 367.248 122.896L368.171 123.121C368.741 123.253 369.256 123.445 369.716 123.695C370.176 123.941 370.541 124.263 370.81 124.659C371.078 125.051 371.213 125.532 371.213 126.102C371.213 127.027 370.867 127.767 370.174 128.323C369.486 128.875 368.522 129.15 367.282 129.15ZM376.47 121.357V122.923H375.041V126.765C375.041 127.239 375.273 127.476 375.738 127.476C375.816 127.476 375.923 127.466 376.06 127.448C376.201 127.425 376.31 127.405 376.388 127.387L376.682 128.925C376.454 128.993 376.226 129.041 375.998 129.068C375.775 129.096 375.561 129.109 375.355 129.109C374.59 129.109 374.004 128.925 373.599 128.556C373.193 128.182 372.99 127.644 372.99 126.942V122.923H371.938V121.357H372.99V119.539H375.041V121.357H376.47ZM381.084 129.15C380.318 129.15 379.655 128.986 379.095 128.658C378.534 128.326 378.101 127.865 377.796 127.277C377.495 126.685 377.345 125.997 377.345 125.213C377.345 124.424 377.495 123.734 377.796 123.142C378.101 122.549 378.534 122.089 379.095 121.761C379.655 121.428 380.318 121.262 381.084 121.262C381.85 121.262 382.513 121.428 383.073 121.761C383.634 122.089 384.064 122.549 384.365 123.142C384.671 123.734 384.823 124.424 384.823 125.213C384.823 125.997 384.671 126.685 384.365 127.277C384.064 127.865 383.634 128.326 383.073 128.658C382.513 128.986 381.85 129.15 381.084 129.15ZM381.084 127.537C381.631 127.537 382.043 127.316 382.321 126.874C382.599 126.432 382.738 125.876 382.738 125.206C382.738 124.532 382.599 123.976 382.321 123.538C382.043 123.096 381.631 122.875 381.084 122.875C380.537 122.875 380.125 123.096 379.847 123.538C379.573 123.976 379.437 124.532 379.437 125.206C379.437 125.876 379.573 126.432 379.847 126.874C380.125 127.316 380.537 127.537 381.084 127.537ZM386.252 129V121.357H388.234V122.69H388.316C388.458 122.221 388.692 121.866 389.021 121.624C389.353 121.378 389.734 121.255 390.162 121.255C390.395 121.255 390.616 121.278 390.825 121.323V123.155C390.734 123.128 390.6 123.105 390.422 123.087C390.249 123.064 390.087 123.053 389.937 123.053C389.463 123.053 389.071 123.201 388.761 123.497C388.455 123.793 388.303 124.178 388.303 124.652V129H386.252ZM395.063 129.15C394.284 129.15 393.612 128.991 393.047 128.672C392.482 128.353 392.047 127.899 391.741 127.312C391.44 126.724 391.29 126.026 391.29 125.22C391.29 124.431 391.44 123.741 391.741 123.148C392.047 122.556 392.473 122.093 393.02 121.761C393.571 121.428 394.218 121.262 394.961 121.262C395.626 121.262 396.23 121.403 396.772 121.686C397.315 121.968 397.745 122.396 398.064 122.971C398.388 123.545 398.55 124.267 398.55 125.138V125.712H393.32C393.343 126.336 393.516 126.808 393.84 127.127C394.163 127.446 394.583 127.605 395.098 127.605C395.458 127.605 395.765 127.53 396.021 127.38C396.28 127.225 396.465 126.999 396.574 126.703L398.434 127.052C398.247 127.685 397.859 128.193 397.271 128.576C396.688 128.959 395.952 129.15 395.063 129.15ZM393.334 124.427H396.574C396.524 123.93 396.365 123.536 396.096 123.244C395.827 122.952 395.455 122.807 394.981 122.807C394.489 122.807 394.102 122.959 393.819 123.265C393.537 123.565 393.375 123.953 393.334 124.427ZM402.733 129L406.213 118.814H408.947L412.516 129H410.198L409.412 126.635H405.796L405.037 129H402.733ZM406.315 125.001H408.872L408.564 124.085C408.4 123.565 408.236 123.003 408.072 122.396C407.908 121.79 407.737 121.141 407.56 120.448C407.391 121.15 407.229 121.804 407.074 122.41C406.919 123.016 406.764 123.575 406.609 124.085L406.315 125.001ZM413.78 129V118.814H417.752C418.527 118.814 419.185 118.963 419.728 119.259C420.27 119.55 420.682 119.956 420.965 120.476C421.252 120.991 421.396 121.583 421.396 122.253C421.396 122.927 421.25 123.522 420.958 124.037C420.671 124.548 420.252 124.949 419.7 125.24C419.149 125.527 418.483 125.671 417.704 125.671H415.865V129H413.78ZM415.865 123.989H417.369C418.007 123.989 418.479 123.827 418.784 123.504C419.09 123.18 419.242 122.763 419.242 122.253C419.242 121.738 419.09 121.323 418.784 121.009C418.479 120.694 418.005 120.537 417.362 120.537H415.865V123.989ZM424.943 118.814V129H422.858V118.814H424.943Z" fill="white"/>
</g>
<defs>
<clipPath id="clip0_383_483">
<rect width="712" height="179" fill="white"/>
</clipPath>
</defs>
</svg>
