<svg width="795" height="94" viewBox="0 0 795 94" fill="none" xmlns="http://www.w3.org/2000/svg">
<g clip-path="url(#clip0_385_645)">
<rect x="1" y="1" width="118" height="92" rx="3" fill="white"/>
<rect x="1" y="1" width="118" height="92" rx="3" stroke="#B6B9C9" stroke-width="2"/>
<path d="M32.5127 52V41.8145H36.5527C37.6693 41.8145 38.5078 42.0605 39.0684 42.5527C39.6335 43.0449 39.916 43.6715 39.916 44.4326C39.916 45.0342 39.7406 45.5195 39.3896 45.8887C39.0433 46.2578 38.6081 46.5016 38.084 46.6201V46.7227C38.4668 46.7409 38.8268 46.8503 39.1641 47.0508C39.5059 47.2513 39.7816 47.5339 39.9912 47.8984C40.2054 48.2585 40.3125 48.6891 40.3125 49.1904C40.3125 49.7282 40.1803 50.209 39.916 50.6328C39.6517 51.0566 39.2598 51.3916 38.7402 51.6377C38.2207 51.8792 37.5781 52 36.8125 52H32.5127ZM34.5977 50.2842H36.4023C37.0176 50.2842 37.4642 50.1657 37.7422 49.9287C38.0247 49.6917 38.166 49.3796 38.166 48.9922C38.166 48.5684 38.0111 48.2174 37.7012 47.9395C37.3958 47.6615 36.9811 47.5225 36.457 47.5225H34.5977V50.2842ZM34.5977 46.0938H36.2451C36.6917 46.0938 37.0632 45.9753 37.3594 45.7383C37.6556 45.5013 37.8037 45.1777 37.8037 44.7676C37.8037 44.3984 37.6715 44.0977 37.4072 43.8652C37.1475 43.6328 36.7738 43.5166 36.2861 43.5166H34.5977V46.0938ZM41.7344 52V44.3574H43.7168V45.6904H43.7988C43.9401 45.221 44.1748 44.8656 44.5029 44.624C44.8356 44.3779 45.2161 44.2549 45.6445 44.2549C45.877 44.2549 46.098 44.2777 46.3076 44.3232V46.1553C46.2165 46.1279 46.082 46.1051 45.9043 46.0869C45.7311 46.0641 45.5693 46.0527 45.4189 46.0527C44.945 46.0527 44.5531 46.2008 44.2432 46.4971C43.9378 46.7933 43.7852 47.1784 43.7852 47.6523V52H41.7344ZM50.5117 52.1504C49.7461 52.1504 49.083 51.9863 48.5225 51.6582C47.9619 51.3255 47.529 50.8652 47.2236 50.2773C46.9229 49.6849 46.7725 48.9967 46.7725 48.2129C46.7725 47.4245 46.9229 46.734 47.2236 46.1416C47.529 45.5492 47.9619 45.0889 48.5225 44.7607C49.083 44.4281 49.7461 44.2617 50.5117 44.2617C51.2773 44.2617 51.9404 44.4281 52.501 44.7607C53.0615 45.0889 53.4922 45.5492 53.793 46.1416C54.0983 46.734 54.251 47.4245 54.251 48.2129C54.251 48.9967 54.0983 49.6849 53.793 50.2773C53.4922 50.8652 53.0615 51.3255 52.501 51.6582C51.9404 51.9863 51.2773 52.1504 50.5117 52.1504ZM50.5117 50.5371C51.0586 50.5371 51.471 50.3161 51.749 49.874C52.027 49.432 52.166 48.876 52.166 48.2061C52.166 47.5316 52.027 46.9756 51.749 46.5381C51.471 46.096 51.0586 45.875 50.5117 45.875C49.9648 45.875 49.5524 46.096 49.2744 46.5381C49.001 46.9756 48.8643 47.5316 48.8643 48.2061C48.8643 48.876 49.001 49.432 49.2744 49.874C49.5524 50.3161 49.9648 50.5371 50.5117 50.5371ZM57.0811 52L54.8252 44.3574H56.9785L57.6416 47.1807C57.7327 47.6045 57.833 48.0602 57.9424 48.5479C58.0518 49.0355 58.1589 49.5641 58.2637 50.1338C58.3685 49.5778 58.4779 49.056 58.5918 48.5684C58.7103 48.0762 58.8219 47.6136 58.9268 47.1807L59.624 44.3574H61.5107L62.1943 47.1807C62.29 47.6136 62.3949 48.0739 62.5088 48.5615C62.6273 49.0492 62.7412 49.5755 62.8506 50.1406C62.9463 49.5755 63.0465 49.0492 63.1514 48.5615C63.2562 48.0739 63.3587 47.6136 63.459 47.1807L64.1221 44.3574H66.3027L64.0332 52H61.9482L61.1006 49.0537C61.0049 48.7256 60.9115 48.3564 60.8203 47.9463C60.7337 47.5361 60.6449 47.1305 60.5537 46.7295C60.4671 47.1305 60.3783 47.5384 60.2871 47.9531C60.196 48.3633 60.1048 48.7301 60.0137 49.0537L59.166 52H57.0811ZM70.4316 52.1504C69.5111 52.1504 68.75 51.9544 68.1484 51.5625C67.5514 51.1706 67.1868 50.6191 67.0547 49.9082L68.9619 49.5801C69.1579 50.291 69.6683 50.6465 70.4932 50.6465C70.8851 50.6465 71.1927 50.5736 71.416 50.4277C71.6439 50.2773 71.7578 50.0882 71.7578 49.8604C71.7578 49.473 71.4297 49.2109 70.7734 49.0742L69.4541 48.8008C67.9867 48.5 67.2529 47.7777 67.2529 46.6338C67.2529 45.9001 67.5469 45.3213 68.1348 44.8975C68.7227 44.4736 69.4997 44.2617 70.4658 44.2617C71.3727 44.2617 72.0951 44.4463 72.6328 44.8154C73.1706 45.1846 73.5101 45.679 73.6514 46.2988L71.833 46.6201C71.751 46.3604 71.6006 46.1484 71.3818 45.9844C71.1631 45.8158 70.8669 45.7314 70.4932 45.7314C70.1559 45.7314 69.8734 45.8044 69.6455 45.9502C69.4176 46.0915 69.3037 46.276 69.3037 46.5039C69.3037 46.6953 69.3766 46.8594 69.5225 46.9961C69.6729 47.1283 69.9281 47.2308 70.2881 47.3037L71.6621 47.5771C73.1204 47.8734 73.8496 48.5615 73.8496 49.6416C73.8496 50.1429 73.7038 50.5827 73.4121 50.9609C73.1204 51.3346 72.7171 51.6263 72.2021 51.8359C71.6872 52.0456 71.097 52.1504 70.4316 52.1504ZM78.6963 52.1504C77.917 52.1504 77.2448 51.9909 76.6797 51.6719C76.1146 51.3529 75.6794 50.8994 75.374 50.3115C75.0732 49.7236 74.9229 49.0264 74.9229 48.2197C74.9229 47.4313 75.0732 46.7409 75.374 46.1484C75.6794 45.556 76.1055 45.0934 76.6523 44.7607C77.2038 44.4281 77.8509 44.2617 78.5938 44.2617C79.2591 44.2617 79.863 44.403 80.4053 44.6855C80.9476 44.9681 81.3783 45.3965 81.6973 45.9707C82.0208 46.5449 82.1826 47.2673 82.1826 48.1377V48.7119H76.9531C76.9759 49.3363 77.1491 49.8079 77.4727 50.127C77.7962 50.446 78.2155 50.6055 78.7305 50.6055C79.0905 50.6055 79.3981 50.5303 79.6533 50.3799C79.9131 50.2249 80.0977 49.9993 80.207 49.7031L82.0664 50.0518C81.8796 50.6852 81.4922 51.1934 80.9043 51.5762C80.321 51.959 79.585 52.1504 78.6963 52.1504ZM76.9668 47.4268H80.207C80.1569 46.93 79.9974 46.5358 79.7285 46.2441C79.4596 45.9525 79.0882 45.8066 78.6143 45.8066C78.1221 45.8066 77.7347 45.9593 77.4521 46.2646C77.1696 46.5654 77.0078 46.9528 76.9668 47.4268ZM83.584 52V44.3574H85.5664V45.6904H85.6484C85.7897 45.221 86.0244 44.8656 86.3525 44.624C86.6852 44.3779 87.0658 44.2549 87.4941 44.2549C87.7266 44.2549 87.9476 44.2777 88.1572 44.3232V46.1553C88.0661 46.1279 87.9316 46.1051 87.7539 46.0869C87.5807 46.0641 87.4189 46.0527 87.2686 46.0527C86.7946 46.0527 86.4027 46.2008 86.0928 46.4971C85.7874 46.7933 85.6348 47.1784 85.6348 47.6523V52H83.584Z" fill="#12141E"/>
<rect x="226" y="1" width="118" height="92" rx="3" fill="white"/>
<rect x="226" y="1" width="118" height="92" rx="3" stroke="#B6B9C9" stroke-width="2"/>
<path d="M272.292 22.5439V20.8145H280.611V22.5439H277.501V31H275.409V22.5439H272.292ZM282.054 31V20.8145H284.139V29.2705H288.534V31H282.054ZM293.702 31.1504C292.476 31.1504 291.496 30.8701 290.763 30.3096C290.034 29.7445 289.655 28.9219 289.628 27.8418H291.658C291.695 28.3568 291.9 28.7441 292.273 29.0039C292.652 29.2591 293.121 29.3867 293.682 29.3867C294.238 29.3867 294.684 29.2682 295.021 29.0312C295.363 28.7897 295.534 28.4753 295.534 28.0879C295.534 27.737 295.379 27.4681 295.069 27.2812C294.764 27.0944 294.333 26.9326 293.777 26.7959L292.656 26.5156C291.795 26.306 291.12 25.9779 290.633 25.5312C290.145 25.0801 289.901 24.4854 289.901 23.7471C289.901 23.1318 290.065 22.5941 290.394 22.1338C290.726 21.6735 291.18 21.3158 291.754 21.0605C292.333 20.8053 292.991 20.6777 293.729 20.6777C294.481 20.6777 295.138 20.8076 295.698 21.0674C296.259 21.3226 296.696 21.6803 297.011 22.1406C297.325 22.5964 297.487 23.1227 297.496 23.7197H295.479C295.443 23.3096 295.268 22.9928 294.953 22.7695C294.643 22.5462 294.229 22.4346 293.709 22.4346C293.176 22.4346 292.763 22.5462 292.472 22.7695C292.185 22.9883 292.041 23.2686 292.041 23.6104C292.041 23.9886 292.203 24.2712 292.526 24.458C292.854 24.6449 293.235 24.7907 293.668 24.8955L294.591 25.1211C295.16 25.2533 295.675 25.4447 296.136 25.6953C296.596 25.9414 296.961 26.2627 297.229 26.6592C297.498 27.0511 297.633 27.5319 297.633 28.1016C297.633 29.0267 297.286 29.7673 296.594 30.3232C295.906 30.8747 294.942 31.1504 293.702 31.1504ZM244.47 42.5439V40.8145H252.789V42.5439H249.679V51H247.587V42.5439H244.47ZM256.542 51.1504C255.763 51.1504 255.09 50.9909 254.525 50.6719C253.96 50.3529 253.525 49.8994 253.22 49.3115C252.919 48.7236 252.769 48.0264 252.769 47.2197C252.769 46.4313 252.919 45.7409 253.22 45.1484C253.525 44.556 253.951 44.0934 254.498 43.7607C255.049 43.4281 255.697 43.2617 256.439 43.2617C257.105 43.2617 257.709 43.403 258.251 43.6855C258.793 43.9681 259.224 44.3965 259.543 44.9707C259.867 45.5449 260.028 46.2673 260.028 47.1377V47.7119H254.799C254.822 48.3363 254.995 48.8079 255.318 49.127C255.642 49.446 256.061 49.6055 256.576 49.6055C256.936 49.6055 257.244 49.5303 257.499 49.3799C257.759 49.2249 257.943 48.9993 258.053 48.7031L259.912 49.0518C259.725 49.6852 259.338 50.1934 258.75 50.5762C258.167 50.959 257.431 51.1504 256.542 51.1504ZM254.812 46.4268H258.053C258.003 45.93 257.843 45.5358 257.574 45.2441C257.305 44.9525 256.934 44.8066 256.46 44.8066C255.968 44.8066 255.58 44.9593 255.298 45.2646C255.015 45.5654 254.854 45.9528 254.812 46.4268ZM261.43 51V43.3574H263.412V44.6904H263.494C263.635 44.221 263.87 43.8656 264.198 43.624C264.531 43.3779 264.911 43.2549 265.34 43.2549C265.572 43.2549 265.793 43.2777 266.003 43.3232V45.1553C265.912 45.1279 265.777 45.1051 265.6 45.0869C265.426 45.0641 265.265 45.0527 265.114 45.0527C264.64 45.0527 264.248 45.2008 263.938 45.4971C263.633 45.7933 263.48 46.1784 263.48 46.6523V51H261.43ZM267.24 51V43.3574H269.141L269.223 44.8408C269.428 44.2848 269.729 43.8792 270.125 43.624C270.521 43.3688 270.948 43.2412 271.403 43.2412C272.369 43.2412 273.026 43.8132 273.372 44.957C273.586 44.3691 273.917 43.9362 274.363 43.6582C274.814 43.3802 275.302 43.2412 275.826 43.2412C276.528 43.2412 277.109 43.4691 277.569 43.9248C278.034 44.376 278.267 45.0163 278.267 45.8457V51H276.209V46.2354C276.209 45.807 276.093 45.488 275.86 45.2783C275.628 45.0641 275.341 44.957 274.999 44.957C274.612 44.957 274.304 45.0801 274.076 45.3262C273.853 45.5723 273.741 45.8958 273.741 46.2969V51H271.759V46.1807C271.759 45.807 271.647 45.5107 271.424 45.292C271.205 45.0687 270.92 44.957 270.569 44.957C270.209 44.957 269.906 45.0801 269.66 45.3262C269.414 45.5677 269.291 45.9186 269.291 46.3789V51H267.24ZM280.023 51V43.3574H282.074V51H280.023ZM281.049 42.3594C280.739 42.3594 280.475 42.2568 280.256 42.0518C280.037 41.8467 279.928 41.5983 279.928 41.3066C279.928 41.015 280.037 40.7666 280.256 40.5615C280.475 40.3564 280.739 40.2539 281.049 40.2539C281.359 40.2539 281.623 40.3564 281.842 40.5615C282.065 40.7666 282.177 41.015 282.177 41.3066C282.177 41.5983 282.065 41.8467 281.842 42.0518C281.623 42.2568 281.359 42.3594 281.049 42.3594ZM285.875 46.5771V51H283.824V43.3574H285.759L285.786 44.9365C286 44.4033 286.303 43.9909 286.695 43.6992C287.087 43.4076 287.577 43.2617 288.165 43.2617C288.958 43.2617 289.594 43.5169 290.072 44.0273C290.551 44.5378 290.79 45.2419 290.79 46.1396V51H288.739V46.4951C288.739 46.0212 288.616 45.6497 288.37 45.3809C288.129 45.112 287.791 44.9775 287.358 44.9775C286.921 44.9775 286.563 45.1188 286.285 45.4014C286.012 45.6794 285.875 46.0713 285.875 46.5771ZM294.68 51.1504C293.951 51.1504 293.344 50.959 292.861 50.5762C292.378 50.1888 292.137 49.6169 292.137 48.8604C292.137 48.2907 292.273 47.8441 292.547 47.5205C292.82 47.1969 293.176 46.96 293.613 46.8096C294.051 46.6592 294.52 46.5612 295.021 46.5156C295.678 46.4518 296.149 46.3857 296.437 46.3174C296.728 46.2445 296.874 46.0827 296.874 45.832V45.7979C296.874 45.4743 296.769 45.2236 296.56 45.0459C296.354 44.8682 296.061 44.7793 295.678 44.7793C295.281 44.7793 294.962 44.8659 294.721 45.0391C294.479 45.2077 294.317 45.415 294.235 45.6611L292.355 45.3467C292.551 44.6859 292.941 44.1732 293.524 43.8086C294.112 43.444 294.832 43.2617 295.685 43.2617C296.231 43.2617 296.751 43.3483 297.243 43.5215C297.74 43.6947 298.143 43.9727 298.453 44.3555C298.768 44.7337 298.925 45.2327 298.925 45.8525V51H296.983V49.9404H296.915C296.728 50.2959 296.45 50.5876 296.081 50.8154C295.712 51.0387 295.245 51.1504 294.68 51.1504ZM295.261 49.708C295.739 49.708 296.129 49.569 296.43 49.291C296.735 49.013 296.888 48.6712 296.888 48.2656V47.4385C296.806 47.4977 296.671 47.5501 296.484 47.5957C296.302 47.6367 296.108 47.6755 295.903 47.7119C295.698 47.7438 295.521 47.7689 295.37 47.7871C294.992 47.8418 294.687 47.9489 294.454 48.1084C294.222 48.2679 294.105 48.5003 294.105 48.8057C294.105 49.1019 294.213 49.3275 294.427 49.4824C294.646 49.6328 294.924 49.708 295.261 49.708ZM304.476 43.3574V44.9229H303.047V48.7646C303.047 49.2386 303.279 49.4756 303.744 49.4756C303.822 49.4756 303.929 49.4665 304.065 49.4482C304.207 49.4255 304.316 49.4049 304.394 49.3867L304.688 50.9248C304.46 50.9932 304.232 51.041 304.004 51.0684C303.781 51.0957 303.566 51.1094 303.361 51.1094C302.596 51.1094 302.01 50.9248 301.604 50.5557C301.199 50.182 300.996 49.6442 300.996 48.9424V44.9229H299.943V43.3574H300.996V41.5391H303.047V43.3574H304.476ZM305.809 51V43.3574H307.859V51H305.809ZM306.834 42.3594C306.524 42.3594 306.26 42.2568 306.041 42.0518C305.822 41.8467 305.713 41.5983 305.713 41.3066C305.713 41.015 305.822 40.7666 306.041 40.5615C306.26 40.3564 306.524 40.2539 306.834 40.2539C307.144 40.2539 307.408 40.3564 307.627 40.5615C307.85 40.7666 307.962 41.015 307.962 41.3066C307.962 41.5983 307.85 41.8467 307.627 42.0518C307.408 42.2568 307.144 42.3594 306.834 42.3594ZM313.027 51.1504C312.262 51.1504 311.599 50.9863 311.038 50.6582C310.478 50.3255 310.045 49.8652 309.739 49.2773C309.438 48.6849 309.288 47.9967 309.288 47.2129C309.288 46.4245 309.438 45.734 309.739 45.1416C310.045 44.5492 310.478 44.0889 311.038 43.7607C311.599 43.4281 312.262 43.2617 313.027 43.2617C313.793 43.2617 314.456 43.4281 315.017 43.7607C315.577 44.0889 316.008 44.5492 316.309 45.1416C316.614 45.734 316.767 46.4245 316.767 47.2129C316.767 47.9967 316.614 48.6849 316.309 49.2773C316.008 49.8652 315.577 50.3255 315.017 50.6582C314.456 50.9863 313.793 51.1504 313.027 51.1504ZM313.027 49.5371C313.574 49.5371 313.987 49.3161 314.265 48.874C314.543 48.432 314.682 47.876 314.682 47.2061C314.682 46.5316 314.543 45.9756 314.265 45.5381C313.987 45.096 313.574 44.875 313.027 44.875C312.48 44.875 312.068 45.096 311.79 45.5381C311.517 45.9756 311.38 46.5316 311.38 47.2061C311.38 47.876 311.517 48.432 311.79 48.874C312.068 49.3161 312.48 49.5371 313.027 49.5371ZM320.246 46.5771V51H318.195V43.3574H320.13L320.157 44.9365C320.371 44.4033 320.674 43.9909 321.066 43.6992C321.458 43.4076 321.948 43.2617 322.536 43.2617C323.329 43.2617 323.965 43.5169 324.443 44.0273C324.922 44.5378 325.161 45.2419 325.161 46.1396V51H323.11V46.4951C323.11 46.0212 322.987 45.6497 322.741 45.3809C322.5 45.112 322.162 44.9775 321.729 44.9775C321.292 44.9775 320.934 45.1188 320.656 45.4014C320.383 45.6794 320.246 46.0713 320.246 46.5771Z" fill="#12141E"/>
<path d="M262.154 68.208C262.154 67.4652 262.229 66.6882 262.38 65.877C262.535 65.0612 262.744 64.2773 263.009 63.5254C263.273 62.7689 263.576 62.1104 263.918 61.5498H265.114C264.763 62.2653 264.458 63.0104 264.198 63.7852C263.943 64.5599 263.747 65.3255 263.61 66.082C263.474 66.834 263.405 67.5426 263.405 68.208C263.405 69.1149 263.542 70.0492 263.815 71.0107C264.093 71.9678 264.526 73.0524 265.114 74.2646H263.918C263.339 73.2757 262.899 72.2686 262.599 71.2432C262.302 70.2178 262.154 69.2061 262.154 68.208ZM267.008 73V62.8145H268.539L272.682 69.3291C272.818 69.5479 272.994 69.8441 273.208 70.2178C273.427 70.5869 273.652 71.0016 273.885 71.4619C273.844 70.9697 273.819 70.5163 273.81 70.1016C273.8 69.6823 273.796 69.3359 273.796 69.0625V62.8145H275.095V73H273.55L269.858 67.2031C269.703 66.9616 269.549 66.7132 269.394 66.458C269.243 66.2028 269.075 65.9089 268.888 65.5762C268.701 65.2435 268.475 64.8424 268.211 64.373C268.238 65.0247 268.261 65.5967 268.279 66.0889C268.302 66.5765 268.313 66.9434 268.313 67.1895V73H267.008ZM280.509 76.0215C279.661 76.0215 278.984 75.8665 278.479 75.5566C277.973 75.2467 277.601 74.8822 277.364 74.4629L278.362 73.8203C278.472 73.9661 278.606 74.1279 278.766 74.3057C278.93 74.4834 279.148 74.6338 279.422 74.7568C279.7 74.8844 280.062 74.9482 280.509 74.9482C281.119 74.9482 281.621 74.8024 282.013 74.5107C282.409 74.2191 282.607 73.7588 282.607 73.1299V71.5986H282.491C282.405 71.7445 282.282 71.9176 282.122 72.1182C281.967 72.3187 281.742 72.4964 281.445 72.6514C281.154 72.8018 280.762 72.877 280.27 72.877C279.659 72.877 279.11 72.7334 278.622 72.4463C278.134 72.1546 277.749 71.7308 277.467 71.1748C277.184 70.6188 277.043 69.9421 277.043 69.1445C277.043 68.3561 277.182 67.6725 277.46 67.0938C277.738 66.5104 278.121 66.0592 278.608 65.7402C279.101 65.4212 279.663 65.2617 280.297 65.2617C280.789 65.2617 281.181 65.3438 281.473 65.5078C281.769 65.6673 281.997 65.8519 282.156 66.0615C282.316 66.2712 282.439 66.4443 282.525 66.5811H282.642V65.3574H283.838V73.1982C283.838 73.8545 283.69 74.39 283.394 74.8047C283.097 75.224 282.696 75.5316 282.19 75.7275C281.689 75.9235 281.129 76.0215 280.509 76.0215ZM280.475 71.7832C281.167 71.7832 281.698 71.5485 282.067 71.0791C282.437 70.6051 282.621 69.9512 282.621 69.1172C282.621 68.306 282.439 67.6452 282.074 67.1348C281.714 66.6198 281.181 66.3623 280.475 66.3623C279.992 66.3623 279.588 66.4876 279.265 66.7383C278.941 66.9844 278.697 67.3148 278.533 67.7295C278.374 68.1442 278.294 68.6068 278.294 69.1172C278.294 69.901 278.479 70.5413 278.848 71.0381C279.217 71.5348 279.759 71.7832 280.475 71.7832ZM285.998 73V65.3574H287.229V73H285.998ZM286.62 64.1064C286.388 64.1064 286.187 64.0267 286.019 63.8672C285.85 63.7077 285.766 63.5163 285.766 63.293C285.766 63.0651 285.85 62.8737 286.019 62.7188C286.187 62.5592 286.388 62.4795 286.62 62.4795C286.857 62.4795 287.06 62.5592 287.229 62.7188C287.397 62.8737 287.481 63.0651 287.481 63.293C287.481 63.5163 287.397 63.7077 287.229 63.8672C287.06 64.0267 286.857 64.1064 286.62 64.1064ZM290.619 68.4199V73H289.389V65.3574H290.571L290.578 66.7725C290.824 66.2301 291.146 65.8428 291.542 65.6104C291.943 65.3779 292.401 65.2617 292.916 65.2617C293.691 65.2617 294.315 65.501 294.789 65.9795C295.263 66.458 295.5 67.1803 295.5 68.1465V73H294.27V68.249C294.27 67.6611 294.115 67.2008 293.805 66.8682C293.499 66.5355 293.08 66.3691 292.547 66.3691C291.995 66.3691 291.535 66.5492 291.166 66.9092C290.801 67.2646 290.619 67.7682 290.619 68.4199ZM297.024 73L299.711 69.0762L297.182 65.3574H298.617L299.567 66.8408C299.741 67.1143 299.896 67.374 300.032 67.6201C300.174 67.8617 300.31 68.0986 300.442 68.3311C300.565 68.0986 300.691 67.8617 300.818 67.6201C300.946 67.374 301.099 67.1143 301.276 66.8408L302.247 65.3574H303.655L301.099 69.1445L303.778 73H302.35L301.229 71.2842C301.06 71.0244 300.91 70.7783 300.777 70.5459C300.645 70.3089 300.515 70.0833 300.388 69.8691C300.269 70.0833 300.148 70.3089 300.025 70.5459C299.902 70.7783 299.754 71.0244 299.581 71.2842L298.446 73H297.024ZM304.879 74.9072C305.485 73.6585 305.92 72.5579 306.185 71.6055C306.453 70.6484 306.588 69.7301 306.588 68.8506C306.588 68.1852 306.52 67.4766 306.383 66.7246C306.246 65.9681 306.05 65.2025 305.795 64.4277C305.54 63.653 305.234 62.9079 304.879 62.1924H306.075C306.417 62.7529 306.72 63.4115 306.984 64.168C307.253 64.9199 307.463 65.7038 307.613 66.5195C307.764 67.3353 307.839 68.1123 307.839 68.8506C307.839 69.8669 307.686 70.8877 307.381 71.9131C307.08 72.9385 306.645 73.9365 306.075 74.9072H304.879Z" fill="#12141E"/>
<rect x="451" y="1" width="118" height="92" rx="3" fill="white"/>
<rect x="451" y="1" width="118" height="92" rx="3" stroke="#B6B9C9" stroke-width="2"/>
<path d="M487.571 52L484.003 41.8145H486.32L487.947 46.7295C488.111 47.2399 488.275 47.7936 488.439 48.3906C488.604 48.9876 488.772 49.6302 488.945 50.3184C489.118 49.6257 489.283 48.9831 489.438 48.3906C489.597 47.7982 489.754 47.2445 489.909 46.7295L491.481 41.8145H493.785L490.299 52H487.571ZM496.301 52.1504C495.572 52.1504 494.965 51.959 494.482 51.5762C493.999 51.1888 493.758 50.6169 493.758 49.8604C493.758 49.2907 493.895 48.8441 494.168 48.5205C494.441 48.1969 494.797 47.96 495.234 47.8096C495.672 47.6592 496.141 47.5612 496.643 47.5156C497.299 47.4518 497.771 47.3857 498.058 47.3174C498.349 47.2445 498.495 47.0827 498.495 46.832V46.7979C498.495 46.4743 498.39 46.2236 498.181 46.0459C497.976 45.8682 497.682 45.7793 497.299 45.7793C496.902 45.7793 496.583 45.8659 496.342 46.0391C496.1 46.2077 495.938 46.415 495.856 46.6611L493.977 46.3467C494.173 45.6859 494.562 45.1732 495.146 44.8086C495.733 44.444 496.453 44.2617 497.306 44.2617C497.853 44.2617 498.372 44.3483 498.864 44.5215C499.361 44.6947 499.764 44.9727 500.074 45.3555C500.389 45.7337 500.546 46.2327 500.546 46.8525V52H498.604V50.9404H498.536C498.349 51.2959 498.071 51.5876 497.702 51.8154C497.333 52.0387 496.866 52.1504 496.301 52.1504ZM496.882 50.708C497.36 50.708 497.75 50.569 498.051 50.291C498.356 50.013 498.509 49.6712 498.509 49.2656V48.4385C498.427 48.4977 498.292 48.5501 498.105 48.5957C497.923 48.6367 497.729 48.6755 497.524 48.7119C497.319 48.7438 497.142 48.7689 496.991 48.7871C496.613 48.8418 496.308 48.9489 496.075 49.1084C495.843 49.2679 495.727 49.5003 495.727 49.8057C495.727 50.1019 495.834 50.3275 496.048 50.4824C496.267 50.6328 496.545 50.708 496.882 50.708ZM502.303 52V44.3574H504.285V45.6904H504.367C504.508 45.221 504.743 44.8656 505.071 44.624C505.404 44.3779 505.785 44.2549 506.213 44.2549C506.445 44.2549 506.666 44.2777 506.876 44.3232V46.1553C506.785 46.1279 506.65 46.1051 506.473 46.0869C506.299 46.0641 506.138 46.0527 505.987 46.0527C505.513 46.0527 505.121 46.2008 504.812 46.4971C504.506 46.7933 504.354 47.1784 504.354 47.6523V52H502.303ZM510.164 47.5771V52H508.113V44.3574H510.048L510.075 45.9365C510.289 45.4033 510.592 44.9909 510.984 44.6992C511.376 44.4076 511.866 44.2617 512.454 44.2617C513.247 44.2617 513.883 44.5169 514.361 45.0273C514.84 45.5378 515.079 46.2419 515.079 47.1396V52H513.028V47.4951C513.028 47.0212 512.905 46.6497 512.659 46.3809C512.418 46.112 512.08 45.9775 511.647 45.9775C511.21 45.9775 510.852 46.1188 510.574 46.4014C510.301 46.6794 510.164 47.0713 510.164 47.5771ZM516.836 52V44.3574H518.887V52H516.836ZM517.861 43.3594C517.551 43.3594 517.287 43.2568 517.068 43.0518C516.85 42.8467 516.74 42.5983 516.74 42.3066C516.74 42.015 516.85 41.7666 517.068 41.5615C517.287 41.3564 517.551 41.2539 517.861 41.2539C518.171 41.2539 518.436 41.3564 518.654 41.5615C518.878 41.7666 518.989 42.015 518.989 42.3066C518.989 42.5983 518.878 42.8467 518.654 43.0518C518.436 43.2568 518.171 43.3594 517.861 43.3594ZM523.672 52.1504C522.751 52.1504 521.99 51.9544 521.389 51.5625C520.792 51.1706 520.427 50.6191 520.295 49.9082L522.202 49.5801C522.398 50.291 522.909 50.6465 523.733 50.6465C524.125 50.6465 524.433 50.5736 524.656 50.4277C524.884 50.2773 524.998 50.0882 524.998 49.8604C524.998 49.473 524.67 49.2109 524.014 49.0742L522.694 48.8008C521.227 48.5 520.493 47.7777 520.493 46.6338C520.493 45.9001 520.787 45.3213 521.375 44.8975C521.963 44.4736 522.74 44.2617 523.706 44.2617C524.613 44.2617 525.335 44.4463 525.873 44.8154C526.411 45.1846 526.75 45.679 526.892 46.2988L525.073 46.6201C524.991 46.3604 524.841 46.1484 524.622 45.9844C524.403 45.8158 524.107 45.7314 523.733 45.7314C523.396 45.7314 523.114 45.8044 522.886 45.9502C522.658 46.0915 522.544 46.276 522.544 46.5039C522.544 46.6953 522.617 46.8594 522.763 46.9961C522.913 47.1283 523.168 47.2308 523.528 47.3037L524.902 47.5771C526.361 47.8734 527.09 48.5615 527.09 49.6416C527.09 50.1429 526.944 50.5827 526.652 50.9609C526.361 51.3346 525.957 51.6263 525.442 51.8359C524.927 52.0456 524.337 52.1504 523.672 52.1504ZM530.535 47.5771V52H528.484V41.8145H530.494V45.8203C530.717 45.3236 531.021 44.9408 531.403 44.6719C531.786 44.3984 532.26 44.2617 532.825 44.2617C533.618 44.2617 534.254 44.5169 534.732 45.0273C535.215 45.5378 535.457 46.2419 535.457 47.1396V52H533.399V47.4951C533.399 47.0212 533.276 46.6497 533.03 46.3809C532.789 46.112 532.451 45.9775 532.019 45.9775C531.581 45.9775 531.223 46.1188 530.945 46.4014C530.672 46.6794 530.535 47.0713 530.535 47.5771Z" fill="#12141E"/>
<rect x="676" y="1" width="118" height="92" rx="3" fill="white"/>
<rect x="676" y="1" width="118" height="92" rx="3" stroke="#B6B9C9" stroke-width="2"/>
<path d="M696.808 41L700.287 30.8145H703.021L706.59 41H704.272L703.486 38.6348H699.87L699.111 41H696.808ZM700.39 37.001H702.946L702.639 36.085C702.475 35.5654 702.311 35.0026 702.146 34.3965C701.982 33.7904 701.812 33.141 701.634 32.4482C701.465 33.1501 701.303 33.804 701.148 34.4102C700.993 35.0163 700.839 35.5745 700.684 36.085L700.39 37.001ZM707.807 43.8574V33.3574H709.823V34.6426H709.919C710.01 34.4421 710.142 34.2347 710.315 34.0205C710.493 33.8063 710.726 33.6263 711.013 33.4805C711.304 33.3346 711.667 33.2617 712.1 33.2617C712.665 33.2617 713.182 33.4076 713.651 33.6992C714.121 33.9909 714.494 34.4284 714.772 35.0117C715.055 35.5951 715.196 36.3219 715.196 37.1924C715.196 38.04 715.06 38.7578 714.786 39.3457C714.513 39.929 714.141 40.3734 713.672 40.6787C713.202 40.9795 712.674 41.1299 712.086 41.1299C711.671 41.1299 711.32 41.0592 711.033 40.918C710.746 40.7767 710.511 40.6035 710.329 40.3984C710.151 40.1888 710.015 39.9814 709.919 39.7764H709.857V43.8574H707.807ZM711.457 39.4824C711.99 39.4824 712.396 39.2682 712.674 38.8398C712.956 38.4115 713.098 37.86 713.098 37.1855C713.098 36.5156 712.959 35.9688 712.681 35.5449C712.403 35.1165 711.995 34.9023 711.457 34.9023C710.928 34.9023 710.521 35.1097 710.233 35.5244C709.951 35.9391 709.81 36.4928 709.81 37.1855C709.81 37.8783 709.953 38.4342 710.24 38.8535C710.527 39.2728 710.933 39.4824 711.457 39.4824ZM716.639 43.8574V33.3574H718.655V34.6426H718.751C718.842 34.4421 718.974 34.2347 719.147 34.0205C719.325 33.8063 719.558 33.6263 719.845 33.4805C720.136 33.3346 720.499 33.2617 720.932 33.2617C721.497 33.2617 722.014 33.4076 722.483 33.6992C722.953 33.9909 723.326 34.4284 723.604 35.0117C723.887 35.5951 724.028 36.3219 724.028 37.1924C724.028 38.04 723.892 38.7578 723.618 39.3457C723.345 39.929 722.973 40.3734 722.504 40.6787C722.035 40.9795 721.506 41.1299 720.918 41.1299C720.503 41.1299 720.152 41.0592 719.865 40.918C719.578 40.7767 719.343 40.6035 719.161 40.3984C718.983 40.1888 718.847 39.9814 718.751 39.7764H718.689V43.8574H716.639ZM720.289 39.4824C720.822 39.4824 721.228 39.2682 721.506 38.8398C721.788 38.4115 721.93 37.86 721.93 37.1855C721.93 36.5156 721.791 35.9688 721.513 35.5449C721.235 35.1165 720.827 34.9023 720.289 34.9023C719.76 34.9023 719.353 35.1097 719.065 35.5244C718.783 35.9391 718.642 36.4928 718.642 37.1855C718.642 37.8783 718.785 38.4342 719.072 38.8535C719.359 39.2728 719.765 39.4824 720.289 39.4824ZM732.573 41.1504C731.347 41.1504 730.368 40.8701 729.634 40.3096C728.905 39.7445 728.526 38.9219 728.499 37.8418H730.529C730.566 38.3568 730.771 38.7441 731.145 39.0039C731.523 39.2591 731.992 39.3867 732.553 39.3867C733.109 39.3867 733.555 39.2682 733.893 39.0312C734.234 38.7897 734.405 38.4753 734.405 38.0879C734.405 37.737 734.25 37.4681 733.94 37.2812C733.635 37.0944 733.204 36.9326 732.648 36.7959L731.527 36.5156C730.666 36.306 729.992 35.9779 729.504 35.5312C729.016 35.0801 728.772 34.4854 728.772 33.7471C728.772 33.1318 728.937 32.5941 729.265 32.1338C729.597 31.6735 730.051 31.3158 730.625 31.0605C731.204 30.8053 731.862 30.6777 732.601 30.6777C733.353 30.6777 734.009 30.8076 734.569 31.0674C735.13 31.3226 735.567 31.6803 735.882 32.1406C736.196 32.5964 736.358 33.1227 736.367 33.7197H734.351C734.314 33.3096 734.139 32.9928 733.824 32.7695C733.514 32.5462 733.1 32.4346 732.58 32.4346C732.047 32.4346 731.634 32.5462 731.343 32.7695C731.056 32.9883 730.912 33.2686 730.912 33.6104C730.912 33.9886 731.074 34.2712 731.397 34.458C731.726 34.6449 732.106 34.7907 732.539 34.8955L733.462 35.1211C734.032 35.2533 734.547 35.4447 735.007 35.6953C735.467 35.9414 735.832 36.2627 736.101 36.6592C736.369 37.0511 736.504 37.5319 736.504 38.1016C736.504 39.0267 736.158 39.7673 735.465 40.3232C734.777 40.8747 733.813 41.1504 732.573 41.1504ZM741.419 41.1504C740.64 41.1504 739.967 40.9909 739.402 40.6719C738.837 40.3529 738.402 39.8994 738.097 39.3115C737.796 38.7236 737.646 38.0264 737.646 37.2197C737.646 36.4313 737.796 35.7409 738.097 35.1484C738.402 34.556 738.828 34.0934 739.375 33.7607C739.926 33.4281 740.574 33.2617 741.316 33.2617C741.982 33.2617 742.586 33.403 743.128 33.6855C743.67 33.9681 744.101 34.3965 744.42 34.9707C744.743 35.5449 744.905 36.2673 744.905 37.1377V37.7119H739.676C739.699 38.3363 739.872 38.8079 740.195 39.127C740.519 39.446 740.938 39.6055 741.453 39.6055C741.813 39.6055 742.121 39.5303 742.376 39.3799C742.636 39.2249 742.82 38.9993 742.93 38.7031L744.789 39.0518C744.602 39.6852 744.215 40.1934 743.627 40.5762C743.044 40.959 742.308 41.1504 741.419 41.1504ZM739.689 36.4268H742.93C742.88 35.93 742.72 35.5358 742.451 35.2441C742.182 34.9525 741.811 34.8066 741.337 34.8066C740.845 34.8066 740.457 34.9593 740.175 35.2646C739.892 35.5654 739.73 35.9528 739.689 36.4268ZM746.307 41V33.3574H748.289V34.6904H748.371C748.512 34.221 748.747 33.8656 749.075 33.624C749.408 33.3779 749.788 33.2549 750.217 33.2549C750.449 33.2549 750.67 33.2777 750.88 33.3232V35.1553C750.789 35.1279 750.654 35.1051 750.477 35.0869C750.303 35.0641 750.142 35.0527 749.991 35.0527C749.517 35.0527 749.125 35.2008 748.815 35.4971C748.51 35.7933 748.357 36.1784 748.357 36.6523V41H746.307ZM754.38 41L751.563 33.3574H753.744L755.029 37.3223C755.134 37.6641 755.23 38.0081 755.316 38.3545C755.408 38.7008 755.494 39.0518 755.576 39.4072C755.654 39.0518 755.733 38.7031 755.815 38.3613C755.902 38.015 756 37.6686 756.109 37.3223L757.381 33.3574H759.534L756.711 41H754.38ZM763.813 41.1504C763.034 41.1504 762.362 40.9909 761.797 40.6719C761.232 40.3529 760.797 39.8994 760.491 39.3115C760.19 38.7236 760.04 38.0264 760.04 37.2197C760.04 36.4313 760.19 35.7409 760.491 35.1484C760.797 34.556 761.223 34.0934 761.77 33.7607C762.321 33.4281 762.968 33.2617 763.711 33.2617C764.376 33.2617 764.98 33.403 765.522 33.6855C766.065 33.9681 766.495 34.3965 766.814 34.9707C767.138 35.5449 767.3 36.2673 767.3 37.1377V37.7119H762.07C762.093 38.3363 762.266 38.8079 762.59 39.127C762.913 39.446 763.333 39.6055 763.848 39.6055C764.208 39.6055 764.515 39.5303 764.771 39.3799C765.03 39.2249 765.215 38.9993 765.324 38.7031L767.184 39.0518C766.997 39.6852 766.609 40.1934 766.021 40.5762C765.438 40.959 764.702 41.1504 763.813 41.1504ZM762.084 36.4268H765.324C765.274 35.93 765.115 35.5358 764.846 35.2441C764.577 34.9525 764.205 34.8066 763.731 34.8066C763.239 34.8066 762.852 34.9593 762.569 35.2646C762.287 35.5654 762.125 35.9528 762.084 36.4268ZM768.701 41V33.3574H770.684V34.6904H770.766C770.907 34.221 771.142 33.8656 771.47 33.624C771.802 33.3779 772.183 33.2549 772.611 33.2549C772.844 33.2549 773.065 33.2777 773.274 33.3232V35.1553C773.183 35.1279 773.049 35.1051 772.871 35.0869C772.698 35.0641 772.536 35.0527 772.386 35.0527C771.912 35.0527 771.52 35.2008 771.21 35.4971C770.905 35.7933 770.752 36.1784 770.752 36.6523V41H768.701Z" fill="#12141E"/>
<path d="M698.209 58.208C698.209 57.4652 698.284 56.6882 698.435 55.877C698.59 55.0612 698.799 54.2773 699.063 53.5254C699.328 52.7689 699.631 52.1104 699.973 51.5498H701.169C700.818 52.2653 700.513 53.0104 700.253 53.7852C699.998 54.5599 699.802 55.3255 699.665 56.082C699.528 56.834 699.46 57.5426 699.46 58.208C699.46 59.1149 699.597 60.0492 699.87 61.0107C700.148 61.9678 700.581 63.0524 701.169 64.2646H699.973C699.394 63.2757 698.954 62.2686 698.653 61.2432C698.357 60.2178 698.209 59.2061 698.209 58.208ZM706.323 63.1777C705.22 63.1777 704.343 62.918 703.691 62.3984C703.04 61.8743 702.684 61.1862 702.625 60.334H703.958C703.994 60.7168 704.124 61.0335 704.348 61.2842C704.571 61.5303 704.856 61.7148 705.202 61.8379C705.553 61.9564 705.927 62.0156 706.323 62.0156C706.784 62.0156 707.196 61.9404 707.561 61.79C707.93 61.6396 708.221 61.4277 708.436 61.1543C708.65 60.8809 708.757 60.5641 708.757 60.2041C708.757 59.876 708.663 59.6094 708.477 59.4043C708.294 59.1992 708.05 59.0306 707.745 58.8984C707.44 58.7663 707.105 58.6501 706.74 58.5498L705.51 58.2012C704.689 57.9688 704.051 57.6361 703.596 57.2031C703.14 56.7702 702.912 56.2165 702.912 55.542C702.912 54.9678 703.067 54.4665 703.377 54.0381C703.687 53.6051 704.106 53.2702 704.635 53.0332C705.163 52.7962 705.756 52.6777 706.412 52.6777C707.082 52.6777 707.674 52.7962 708.189 53.0332C708.704 53.2702 709.11 53.5938 709.406 54.0039C709.707 54.4095 709.867 54.8698 709.885 55.3848H708.613C708.554 54.888 708.317 54.5052 707.902 54.2363C707.488 53.9629 706.977 53.8262 706.371 53.8262C705.71 53.8262 705.179 53.9834 704.778 54.2979C704.377 54.6077 704.177 55.002 704.177 55.4805C704.177 55.8359 704.286 56.123 704.505 56.3418C704.728 56.556 704.99 56.7246 705.291 56.8477C705.596 56.9661 705.872 57.0596 706.118 57.1279L707.137 57.4082C707.41 57.4811 707.711 57.5814 708.039 57.709C708.372 57.8366 708.688 58.0075 708.989 58.2217C709.29 58.4313 709.536 58.7002 709.728 59.0283C709.924 59.3519 710.021 59.7507 710.021 60.2246C710.021 60.7806 709.876 61.2819 709.584 61.7285C709.297 62.1751 708.878 62.5283 708.326 62.7881C707.775 63.0479 707.107 63.1777 706.323 63.1777ZM713.125 58.4199V63H711.895V52.8145H713.125V56.6836C713.376 56.1732 713.695 55.8086 714.082 55.5898C714.474 55.3711 714.921 55.2617 715.422 55.2617C716.197 55.2617 716.821 55.501 717.295 55.9795C717.773 56.458 718.013 57.1803 718.013 58.1465V63H716.775V58.249C716.775 57.6611 716.62 57.2008 716.311 56.8682C716.005 56.5355 715.586 56.3691 715.053 56.3691C714.501 56.3691 714.041 56.5492 713.672 56.9092C713.307 57.2646 713.125 57.7682 713.125 58.4199ZM723.29 63.1641C722.597 63.1641 721.989 63 721.465 62.6719C720.945 62.3438 720.54 61.8835 720.248 61.291C719.956 60.6986 719.811 60.0104 719.811 59.2266C719.811 58.429 719.956 57.734 720.248 57.1416C720.54 56.5446 720.945 56.082 721.465 55.7539C721.989 55.4258 722.597 55.2617 723.29 55.2617C723.987 55.2617 724.598 55.4258 725.122 55.7539C725.646 56.082 726.054 56.5446 726.346 57.1416C726.637 57.734 726.783 58.429 726.783 59.2266C726.783 60.0104 726.637 60.6986 726.346 61.291C726.054 61.8835 725.646 62.3438 725.122 62.6719C724.598 63 723.987 63.1641 723.29 63.1641ZM723.29 62.0635C723.805 62.0635 724.229 61.9313 724.562 61.667C724.894 61.4027 725.14 61.0563 725.3 60.6279C725.459 60.195 725.539 59.7279 725.539 59.2266C725.539 58.7207 725.459 58.2513 725.3 57.8184C725.14 57.3809 724.894 57.0299 724.562 56.7656C724.229 56.4967 723.805 56.3623 723.29 56.3623C722.78 56.3623 722.36 56.4967 722.032 56.7656C721.704 57.0299 721.46 57.3786 721.301 57.8115C721.141 58.2445 721.062 58.7161 721.062 59.2266C721.062 59.7279 721.141 60.195 721.301 60.6279C721.46 61.0563 721.704 61.4027 722.032 61.667C722.36 61.9313 722.78 62.0635 723.29 62.0635ZM728.574 65.8574V55.3574H729.764V56.5811H729.9C729.987 56.4443 730.108 56.2734 730.263 56.0684C730.418 55.8587 730.641 55.6719 730.933 55.5078C731.224 55.3438 731.618 55.2617 732.115 55.2617C732.753 55.2617 733.314 55.4212 733.797 55.7402C734.285 56.0592 734.665 56.515 734.938 57.1074C735.216 57.6953 735.355 58.3926 735.355 59.1992C735.355 60.0104 735.219 60.7122 734.945 61.3047C734.672 61.8971 734.291 62.3551 733.804 62.6787C733.321 63.0023 732.76 63.1641 732.122 63.1641C731.639 63.1641 731.249 63.082 730.953 62.918C730.657 62.7493 730.429 62.5602 730.27 62.3506C730.11 62.1364 729.987 61.9587 729.9 61.8174H729.805V65.8574H728.574ZM731.938 62.0635C732.416 62.0635 732.815 61.9359 733.134 61.6807C733.457 61.4209 733.699 61.0745 733.858 60.6416C734.022 60.2041 734.104 59.7188 734.104 59.1855C734.104 58.6569 734.025 58.1807 733.865 57.7568C733.706 57.3285 733.464 56.9889 733.141 56.7383C732.822 56.4876 732.421 56.3623 731.938 56.3623C731.236 56.3623 730.702 56.6221 730.338 57.1416C729.973 57.6611 729.791 58.3424 729.791 59.1855C729.791 60.0378 729.976 60.7305 730.345 61.2637C730.714 61.7969 731.245 62.0635 731.938 62.0635ZM738.603 63L736.285 55.3574H737.591L738.521 58.6934C738.63 59.0898 738.748 59.5365 738.876 60.0332C739.004 60.5254 739.129 61.0745 739.252 61.6807C739.375 61.0973 739.496 60.5596 739.614 60.0674C739.737 59.5752 739.858 59.1172 739.977 58.6934L740.893 55.3574H742.205L743.107 58.6934C743.217 59.1035 743.331 59.5547 743.449 60.0469C743.572 60.5345 743.693 61.0723 743.812 61.6602C743.939 61.0768 744.064 60.5413 744.188 60.0537C744.315 59.5615 744.436 59.1081 744.55 58.6934L745.479 55.3574H746.785L744.468 63H743.244L742.253 59.541C742.125 59.1035 742.002 58.6523 741.884 58.1875C741.77 57.7227 741.654 57.2464 741.535 56.7588C741.421 57.2464 741.303 57.7249 741.18 58.1943C741.061 58.6637 740.94 59.1126 740.817 59.541L739.826 63H738.603ZM750.483 63.1777C750 63.1777 749.561 63.0866 749.164 62.9043C748.772 62.722 748.46 62.4554 748.228 62.1045C747.995 61.7536 747.879 61.3275 747.879 60.8262C747.879 60.3887 747.965 60.0332 748.139 59.7598C748.312 59.4863 748.542 59.2721 748.829 59.1172C749.121 58.9577 749.442 58.8392 749.793 58.7617C750.144 58.6842 750.497 58.6227 750.853 58.5771C751.308 58.5179 751.68 58.4723 751.967 58.4404C752.254 58.4085 752.466 58.3538 752.603 58.2764C752.744 58.1989 752.814 58.0667 752.814 57.8799V57.8389C752.814 57.3649 752.68 56.998 752.411 56.7383C752.142 56.474 751.743 56.3418 751.215 56.3418C750.663 56.3418 750.233 56.4626 749.923 56.7041C749.613 56.9411 749.399 57.194 749.28 57.4629L748.098 57.0732C748.294 56.6084 748.558 56.2461 748.891 55.9863C749.223 55.722 749.59 55.5352 749.991 55.4258C750.392 55.3164 750.789 55.2617 751.181 55.2617C751.436 55.2617 751.725 55.2936 752.049 55.3574C752.377 55.4167 752.691 55.5374 752.992 55.7197C753.298 55.902 753.548 56.1732 753.744 56.5332C753.945 56.8887 754.045 57.3649 754.045 57.9619V63H752.835V61.9609H752.753C752.666 62.1387 752.527 62.3232 752.336 62.5146C752.145 62.7015 751.896 62.8587 751.591 62.9863C751.285 63.1139 750.916 63.1777 750.483 63.1777ZM750.695 62.0908C751.151 62.0908 751.536 62.002 751.851 61.8242C752.165 61.6465 752.404 61.4163 752.568 61.1338C752.732 60.8467 752.814 60.5482 752.814 60.2383V59.1787C752.764 59.238 752.655 59.2926 752.486 59.3428C752.318 59.3883 752.124 59.4294 751.905 59.4658C751.691 59.5023 751.481 59.5342 751.276 59.5615C751.076 59.5843 750.916 59.6025 750.798 59.6162C750.502 59.6527 750.224 59.7165 749.964 59.8076C749.709 59.8942 749.504 60.0241 749.349 60.1973C749.194 60.3659 749.116 60.596 749.116 60.8877C749.116 61.2842 749.264 61.585 749.561 61.79C749.861 61.9906 750.24 62.0908 750.695 62.0908ZM756.205 63V55.3574H757.395V56.5332H757.477C757.618 56.1458 757.868 55.8359 758.229 55.6035C758.593 55.3665 759.003 55.248 759.459 55.248C759.55 55.248 759.657 55.2503 759.78 55.2549C759.908 55.2594 760.008 55.264 760.081 55.2686V56.5059C760.045 56.4967 759.953 56.4831 759.808 56.4648C759.662 56.4466 759.507 56.4375 759.343 56.4375C758.791 56.4375 758.336 56.6061 757.976 56.9434C757.616 57.276 757.436 57.6999 757.436 58.2148V63H756.205ZM764.463 63.1641C763.725 63.1641 763.087 63 762.549 62.6719C762.016 62.3438 761.603 61.8857 761.312 61.2979C761.024 60.71 760.881 60.0241 760.881 59.2402C760.881 58.4564 761.022 57.766 761.305 57.1689C761.587 56.5719 761.986 56.1048 762.501 55.7676C763.021 55.4303 763.627 55.2617 764.319 55.2617C764.725 55.2617 765.124 55.3301 765.516 55.4668C765.912 55.599 766.27 55.8154 766.589 56.1162C766.912 56.4124 767.17 56.8044 767.361 57.292C767.553 57.7796 767.648 58.3766 767.648 59.083V59.5957H762.125C762.157 60.3932 762.385 61.0062 762.809 61.4346C763.237 61.8584 763.791 62.0703 764.47 62.0703C764.921 62.0703 765.308 61.9723 765.632 61.7764C765.96 61.5758 766.195 61.2819 766.336 60.8945L767.525 61.2227C767.348 61.8014 766.988 62.2708 766.445 62.6309C765.908 62.9863 765.247 63.1641 764.463 63.1641ZM762.132 58.5566H766.397C766.338 57.9049 766.133 57.3763 765.782 56.9707C765.436 56.5605 764.948 56.3555 764.319 56.3555C763.882 56.3555 763.504 56.458 763.185 56.6631C762.87 56.8682 762.622 57.137 762.439 57.4697C762.257 57.8024 762.155 58.1647 762.132 58.5566ZM768.824 64.9072C769.43 63.6585 769.866 62.5579 770.13 61.6055C770.399 60.6484 770.533 59.7301 770.533 58.8506C770.533 58.1852 770.465 57.4766 770.328 56.7246C770.191 55.9681 769.995 55.2025 769.74 54.4277C769.485 53.653 769.18 52.9079 768.824 52.1924H770.021C770.362 52.7529 770.665 53.4115 770.93 54.168C771.199 54.9199 771.408 55.7038 771.559 56.5195C771.709 57.3353 771.784 58.1123 771.784 58.8506C771.784 59.8669 771.632 60.8877 771.326 61.9131C771.025 62.9385 770.59 63.9365 770.021 64.9072H768.824Z" fill="#12141E"/>
<path d="M225.707 47.7071C226.098 47.3166 226.098 46.6834 225.707 46.2929L219.343 39.9289C218.953 39.5384 218.319 39.5384 217.929 39.9289C217.538 40.3195 217.538 40.9526 217.929 41.3432L223.586 47L217.929 52.6569C217.538 53.0474 217.538 53.6805 217.929 54.0711C218.319 54.4616 218.953 54.4616 219.343 54.0711L225.707 47.7071ZM120 48L225 48L225 46L120 46L120 48Z" fill="#B6B9C9"/>
<path d="M450.707 47.7071C451.098 47.3166 451.098 46.6834 450.707 46.2929L444.343 39.9289C443.953 39.5384 443.319 39.5384 442.929 39.9289C442.538 40.3195 442.538 40.9526 442.929 41.3432L448.586 47L442.929 52.6569C442.538 53.0474 442.538 53.6805 442.929 54.0711C443.319 54.4616 443.953 54.4616 444.343 54.0711L450.707 47.7071ZM345 48L450 48L450 46L345 46L345 48Z" fill="#B6B9C9"/>
<path d="M675.707 47.7071C676.098 47.3166 676.098 46.6834 675.707 46.2929L669.343 39.9289C668.953 39.5384 668.319 39.5384 667.929 39.9289C667.538 40.3195 667.538 40.9526 667.929 41.3432L673.586 47L667.929 52.6569C667.538 53.0474 667.538 53.6805 667.929 54.0711C668.319 54.4616 668.953 54.4616 669.343 54.0711L675.707 47.7071ZM570 48L675 48L675 46L570 46L570 48Z" fill="#B6B9C9"/>
</g>
<defs>
<clipPath id="clip0_385_645">
<rect width="795" height="94" fill="white"/>
</clipPath>
</defs>
</svg>
