<svg width="695" height="172" viewBox="0 0 695 172" fill="none" xmlns="http://www.w3.org/2000/svg">
<g clip-path="url(#clip0_385_559)">
<path d="M556.707 46.7071C557.098 46.3166 557.098 45.6834 556.707 45.2929L550.343 38.9289C549.953 38.5384 549.319 38.5384 548.929 38.9289C548.538 39.3195 548.538 39.9526 548.929 40.3432L554.586 46L548.929 51.6569C548.538 52.0474 548.538 52.6806 548.929 53.0711C549.319 53.4616 549.953 53.4616 550.343 53.0711L556.707 46.7071ZM140 47L556 47L556 45L140 45L140 47Z" fill="#B6B9C9"/>
<path d="M556.707 132.707C557.098 132.317 557.098 131.683 556.707 131.293L550.343 124.929C549.953 124.538 549.319 124.538 548.929 124.929C548.538 125.319 548.538 125.953 548.929 126.343L554.586 132L548.929 137.657C548.538 138.047 548.538 138.681 548.929 139.071C549.319 139.462 549.953 139.462 550.343 139.071L556.707 132.707ZM140 133L556 133L556 131L140 131L140 133Z" fill="#B6B9C9"/>
<rect x="250" y="31" width="170" height="30" rx="4" fill="#666977"/>
<path d="M264.423 51V40.8145H268.395C269.552 40.8145 270.448 41.1175 271.081 41.7236C271.719 42.3252 272.038 43.1273 272.038 44.1299C272.038 44.8271 271.883 45.4242 271.573 45.9209C271.263 46.4131 270.817 46.7822 270.233 47.0283L272.4 51H270.09L268.148 47.3633H266.508V51H264.423ZM266.508 45.6748H268.012C269.26 45.6748 269.885 45.1598 269.885 44.1299C269.885 43.6149 269.73 43.2207 269.42 42.9473C269.115 42.6738 268.643 42.5371 268.005 42.5371H266.508V45.6748ZM276.851 51.1504C276.071 51.1504 275.399 50.9909 274.834 50.6719C274.269 50.3529 273.834 49.8994 273.528 49.3115C273.228 48.7236 273.077 48.0264 273.077 47.2197C273.077 46.4313 273.228 45.7409 273.528 45.1484C273.834 44.556 274.26 44.0934 274.807 43.7607C275.358 43.4281 276.005 43.2617 276.748 43.2617C277.413 43.2617 278.017 43.403 278.56 43.6855C279.102 43.9681 279.533 44.3965 279.852 44.9707C280.175 45.5449 280.337 46.2673 280.337 47.1377V47.7119H275.107C275.13 48.3363 275.303 48.8079 275.627 49.127C275.951 49.446 276.37 49.6055 276.885 49.6055C277.245 49.6055 277.552 49.5303 277.808 49.3799C278.067 49.2249 278.252 48.9993 278.361 48.7031L280.221 49.0518C280.034 49.6852 279.646 50.1934 279.059 50.5762C278.475 50.959 277.739 51.1504 276.851 51.1504ZM275.121 46.4268H278.361C278.311 45.93 278.152 45.5358 277.883 45.2441C277.614 44.9525 277.243 44.8066 276.769 44.8066C276.276 44.8066 275.889 44.9593 275.606 45.2646C275.324 45.5654 275.162 45.9528 275.121 46.4268ZM285.136 54.0215C284.179 54.0215 283.409 53.846 282.825 53.4951C282.242 53.1442 281.866 52.6953 281.697 52.1484L283.461 51.6562C283.557 51.8704 283.732 52.0687 283.987 52.251C284.247 52.4378 284.625 52.5312 285.122 52.5312C285.642 52.5312 286.052 52.4105 286.353 52.1689C286.653 51.932 286.804 51.5605 286.804 51.0547V49.6465H286.646C286.505 49.9564 286.271 50.2412 285.942 50.501C285.619 50.7607 285.147 50.8906 284.527 50.8906C283.953 50.8906 283.431 50.7562 282.962 50.4873C282.493 50.2184 282.117 49.8083 281.834 49.2568C281.556 48.7054 281.417 48.0081 281.417 47.165C281.417 46.3037 281.558 45.5837 281.841 45.0049C282.128 44.4261 282.506 43.9909 282.976 43.6992C283.45 43.4076 283.969 43.2617 284.534 43.2617C284.963 43.2617 285.323 43.3346 285.614 43.4805C285.906 43.6263 286.141 43.8063 286.318 44.0205C286.501 44.2347 286.637 44.4421 286.729 44.6426H286.817V43.3574H288.834V50.9385C288.834 51.6266 288.674 52.1986 288.355 52.6543C288.041 53.1146 287.604 53.4564 287.043 53.6797C286.487 53.9076 285.851 54.0215 285.136 54.0215ZM285.17 49.332C285.694 49.332 286.097 49.1406 286.38 48.7578C286.667 48.3704 286.811 47.835 286.811 47.1514C286.811 46.4723 286.669 45.9277 286.387 45.5176C286.104 45.1074 285.699 44.9023 285.17 44.9023C284.632 44.9023 284.222 45.1143 283.939 45.5381C283.661 45.9574 283.522 46.4951 283.522 47.1514C283.522 47.8213 283.664 48.3522 283.946 48.7441C284.229 49.1361 284.637 49.332 285.17 49.332ZM290.584 51V43.3574H292.635V51H290.584ZM291.609 42.3594C291.299 42.3594 291.035 42.2568 290.816 42.0518C290.598 41.8467 290.488 41.5983 290.488 41.3066C290.488 41.015 290.598 40.7666 290.816 40.5615C291.035 40.3564 291.299 40.2539 291.609 40.2539C291.919 40.2539 292.184 40.3564 292.402 40.5615C292.626 40.7666 292.737 41.015 292.737 41.3066C292.737 41.5983 292.626 41.8467 292.402 42.0518C292.184 42.2568 291.919 42.3594 291.609 42.3594ZM297.42 51.1504C296.499 51.1504 295.738 50.9544 295.137 50.5625C294.54 50.1706 294.175 49.6191 294.043 48.9082L295.95 48.5801C296.146 49.291 296.657 49.6465 297.481 49.6465C297.873 49.6465 298.181 49.5736 298.404 49.4277C298.632 49.2773 298.746 49.0882 298.746 48.8604C298.746 48.473 298.418 48.2109 297.762 48.0742L296.442 47.8008C294.975 47.5 294.241 46.7777 294.241 45.6338C294.241 44.9001 294.535 44.3213 295.123 43.8975C295.711 43.4736 296.488 43.2617 297.454 43.2617C298.361 43.2617 299.083 43.4463 299.621 43.8154C300.159 44.1846 300.498 44.679 300.64 45.2988L298.821 45.6201C298.739 45.3604 298.589 45.1484 298.37 44.9844C298.151 44.8158 297.855 44.7314 297.481 44.7314C297.144 44.7314 296.862 44.8044 296.634 44.9502C296.406 45.0915 296.292 45.276 296.292 45.5039C296.292 45.6953 296.365 45.8594 296.511 45.9961C296.661 46.1283 296.916 46.2308 297.276 46.3037L298.65 46.5771C300.109 46.8734 300.838 47.5615 300.838 48.6416C300.838 49.1429 300.692 49.5827 300.4 49.9609C300.109 50.3346 299.705 50.6263 299.19 50.8359C298.675 51.0456 298.085 51.1504 297.42 51.1504ZM306.026 43.3574V44.9229H304.598V48.7646C304.598 49.2386 304.83 49.4756 305.295 49.4756C305.372 49.4756 305.479 49.4665 305.616 49.4482C305.757 49.4255 305.867 49.4049 305.944 49.3867L306.238 50.9248C306.01 50.9932 305.783 51.041 305.555 51.0684C305.331 51.0957 305.117 51.1094 304.912 51.1094C304.146 51.1094 303.561 50.9248 303.155 50.5557C302.75 50.182 302.547 49.6442 302.547 48.9424V44.9229H301.494V43.3574H302.547V41.5391H304.598V43.3574H306.026ZM307.359 51V43.3574H309.342V44.6904H309.424C309.565 44.221 309.8 43.8656 310.128 43.624C310.461 43.3779 310.841 43.2549 311.27 43.2549C311.502 43.2549 311.723 43.2777 311.933 43.3232V45.1553C311.841 45.1279 311.707 45.1051 311.529 45.0869C311.356 45.0641 311.194 45.0527 311.044 45.0527C310.57 45.0527 310.178 45.2008 309.868 45.4971C309.563 45.7933 309.41 46.1784 309.41 46.6523V51H307.359ZM315.002 51.1504C314.273 51.1504 313.667 50.959 313.184 50.5762C312.701 50.1888 312.459 49.6169 312.459 48.8604C312.459 48.2907 312.596 47.8441 312.869 47.5205C313.143 47.1969 313.498 46.96 313.936 46.8096C314.373 46.6592 314.842 46.5612 315.344 46.5156C316 46.4518 316.472 46.3857 316.759 46.3174C317.05 46.2445 317.196 46.0827 317.196 45.832V45.7979C317.196 45.4743 317.091 45.2236 316.882 45.0459C316.677 44.8682 316.383 44.7793 316 44.7793C315.604 44.7793 315.285 44.8659 315.043 45.0391C314.801 45.2077 314.64 45.415 314.558 45.6611L312.678 45.3467C312.874 44.6859 313.263 44.1732 313.847 43.8086C314.435 43.444 315.155 43.2617 316.007 43.2617C316.554 43.2617 317.073 43.3483 317.565 43.5215C318.062 43.6947 318.465 43.9727 318.775 44.3555C319.09 44.7337 319.247 45.2327 319.247 45.8525V51H317.306V49.9404H317.237C317.05 50.2959 316.772 50.5876 316.403 50.8154C316.034 51.0387 315.567 51.1504 315.002 51.1504ZM315.583 49.708C316.062 49.708 316.451 49.569 316.752 49.291C317.057 49.013 317.21 48.6712 317.21 48.2656V47.4385C317.128 47.4977 316.993 47.5501 316.807 47.5957C316.624 47.6367 316.431 47.6755 316.226 47.7119C316.021 47.7438 315.843 47.7689 315.692 47.7871C315.314 47.8418 315.009 47.9489 314.776 48.1084C314.544 48.2679 314.428 48.5003 314.428 48.8057C314.428 49.1019 314.535 49.3275 314.749 49.4824C314.968 49.6328 315.246 49.708 315.583 49.708ZM324.798 43.3574V44.9229H323.369V48.7646C323.369 49.2386 323.602 49.4756 324.066 49.4756C324.144 49.4756 324.251 49.4665 324.388 49.4482C324.529 49.4255 324.638 49.4049 324.716 49.3867L325.01 50.9248C324.782 50.9932 324.554 51.041 324.326 51.0684C324.103 51.0957 323.889 51.1094 323.684 51.1094C322.918 51.1094 322.332 50.9248 321.927 50.5557C321.521 50.182 321.318 49.6442 321.318 48.9424V44.9229H320.266V43.3574H321.318V41.5391H323.369V43.3574H324.798ZM326.131 51V43.3574H328.182V51H326.131ZM327.156 42.3594C326.846 42.3594 326.582 42.2568 326.363 42.0518C326.145 41.8467 326.035 41.5983 326.035 41.3066C326.035 41.015 326.145 40.7666 326.363 40.5615C326.582 40.3564 326.846 40.2539 327.156 40.2539C327.466 40.2539 327.73 40.3564 327.949 40.5615C328.173 40.7666 328.284 41.015 328.284 41.3066C328.284 41.5983 328.173 41.8467 327.949 42.0518C327.73 42.2568 327.466 42.3594 327.156 42.3594ZM333.35 51.1504C332.584 51.1504 331.921 50.9863 331.36 50.6582C330.8 50.3255 330.367 49.8652 330.062 49.2773C329.761 48.6849 329.61 47.9967 329.61 47.2129C329.61 46.4245 329.761 45.734 330.062 45.1416C330.367 44.5492 330.8 44.0889 331.36 43.7607C331.921 43.4281 332.584 43.2617 333.35 43.2617C334.115 43.2617 334.778 43.4281 335.339 43.7607C335.899 44.0889 336.33 44.5492 336.631 45.1416C336.936 45.734 337.089 46.4245 337.089 47.2129C337.089 47.9967 336.936 48.6849 336.631 49.2773C336.33 49.8652 335.899 50.3255 335.339 50.6582C334.778 50.9863 334.115 51.1504 333.35 51.1504ZM333.35 49.5371C333.896 49.5371 334.309 49.3161 334.587 48.874C334.865 48.432 335.004 47.876 335.004 47.2061C335.004 46.5316 334.865 45.9756 334.587 45.5381C334.309 45.096 333.896 44.875 333.35 44.875C332.803 44.875 332.39 45.096 332.112 45.5381C331.839 45.9756 331.702 46.5316 331.702 47.2061C331.702 47.876 331.839 48.432 332.112 48.874C332.39 49.3161 332.803 49.5371 333.35 49.5371ZM340.568 46.5771V51H338.518V43.3574H340.452L340.479 44.9365C340.694 44.4033 340.997 43.9909 341.389 43.6992C341.781 43.4076 342.271 43.2617 342.858 43.2617C343.651 43.2617 344.287 43.5169 344.766 44.0273C345.244 44.5378 345.483 45.2419 345.483 46.1396V51H343.433V46.4951C343.433 46.0212 343.31 45.6497 343.063 45.3809C342.822 45.112 342.485 44.9775 342.052 44.9775C341.614 44.9775 341.257 45.1188 340.979 45.4014C340.705 45.6794 340.568 46.0713 340.568 46.5771ZM350.61 51V40.8145H354.582C355.74 40.8145 356.635 41.1175 357.269 41.7236C357.907 42.3252 358.226 43.1273 358.226 44.1299C358.226 44.8271 358.071 45.4242 357.761 45.9209C357.451 46.4131 357.004 46.7822 356.421 47.0283L358.588 51H356.277L354.336 47.3633H352.695V51H350.61ZM352.695 45.6748H354.199C355.448 45.6748 356.072 45.1598 356.072 44.1299C356.072 43.6149 355.917 43.2207 355.607 42.9473C355.302 42.6738 354.83 42.5371 354.192 42.5371H352.695V45.6748ZM363.038 51.1504C362.259 51.1504 361.587 50.9909 361.021 50.6719C360.456 50.3529 360.021 49.8994 359.716 49.3115C359.415 48.7236 359.265 48.0264 359.265 47.2197C359.265 46.4313 359.415 45.7409 359.716 45.1484C360.021 44.556 360.447 44.0934 360.994 43.7607C361.546 43.4281 362.193 43.2617 362.936 43.2617C363.601 43.2617 364.205 43.403 364.747 43.6855C365.289 43.9681 365.72 44.3965 366.039 44.9707C366.363 45.5449 366.524 46.2673 366.524 47.1377V47.7119H361.295C361.318 48.3363 361.491 48.8079 361.814 49.127C362.138 49.446 362.557 49.6055 363.072 49.6055C363.432 49.6055 363.74 49.5303 363.995 49.3799C364.255 49.2249 364.439 48.9993 364.549 48.7031L366.408 49.0518C366.221 49.6852 365.834 50.1934 365.246 50.5762C364.663 50.959 363.927 51.1504 363.038 51.1504ZM361.309 46.4268H364.549C364.499 45.93 364.339 45.5358 364.07 45.2441C363.801 44.9525 363.43 44.8066 362.956 44.8066C362.464 44.8066 362.076 44.9593 361.794 45.2646C361.511 45.5654 361.35 45.9528 361.309 46.4268ZM375.001 53.8574H372.95V49.7764H372.882C372.786 49.9814 372.649 50.1888 372.472 50.3984C372.294 50.6035 372.062 50.7767 371.774 50.918C371.487 51.0592 371.136 51.1299 370.722 51.1299C370.134 51.1299 369.605 50.9795 369.136 50.6787C368.666 50.3734 368.293 49.929 368.015 49.3457C367.741 48.7578 367.604 48.04 367.604 47.1924C367.604 46.3219 367.746 45.5951 368.028 45.0117C368.311 44.4284 368.687 43.9909 369.156 43.6992C369.626 43.4076 370.143 43.2617 370.708 43.2617C371.141 43.2617 371.501 43.3346 371.788 43.4805C372.075 43.6263 372.305 43.8063 372.479 44.0205C372.656 44.2347 372.791 44.4421 372.882 44.6426H372.984V43.3574H375.001V53.8574ZM371.351 49.4824C371.87 49.4824 372.273 49.2728 372.561 48.8535C372.848 48.4342 372.991 47.8783 372.991 47.1855C372.991 46.4928 372.848 45.9391 372.561 45.5244C372.278 45.1097 371.875 44.9023 371.351 44.9023C370.813 44.9023 370.405 45.1165 370.127 45.5449C369.849 45.9688 369.71 46.5156 369.71 47.1855C369.71 47.86 369.849 48.4115 370.127 48.8398C370.41 49.2682 370.817 49.4824 371.351 49.4824ZM379.39 51.0957C378.597 51.0957 377.959 50.8405 377.476 50.3301C376.997 49.8197 376.758 49.1156 376.758 48.2178V43.3574H378.809V47.8623C378.809 48.3363 378.932 48.7077 379.178 48.9766C379.424 49.2454 379.761 49.3799 380.189 49.3799C380.627 49.3799 380.982 49.2409 381.256 48.9629C381.534 48.6803 381.673 48.2861 381.673 47.7803V43.3574H383.73V51H381.789L381.762 49.4141C381.548 49.9564 381.242 50.3734 380.846 50.665C380.454 50.9521 379.968 51.0957 379.39 51.0957ZM388.933 51.1504C388.153 51.1504 387.481 50.9909 386.916 50.6719C386.351 50.3529 385.916 49.8994 385.61 49.3115C385.31 48.7236 385.159 48.0264 385.159 47.2197C385.159 46.4313 385.31 45.7409 385.61 45.1484C385.916 44.556 386.342 44.0934 386.889 43.7607C387.44 43.4281 388.087 43.2617 388.83 43.2617C389.495 43.2617 390.099 43.403 390.642 43.6855C391.184 43.9681 391.615 44.3965 391.934 44.9707C392.257 45.5449 392.419 46.2673 392.419 47.1377V47.7119H387.189C387.212 48.3363 387.385 48.8079 387.709 49.127C388.033 49.446 388.452 49.6055 388.967 49.6055C389.327 49.6055 389.634 49.5303 389.89 49.3799C390.149 49.2249 390.334 48.9993 390.443 48.7031L392.303 49.0518C392.116 49.6852 391.729 50.1934 391.141 50.5762C390.557 50.959 389.821 51.1504 388.933 51.1504ZM387.203 46.4268H390.443C390.393 45.93 390.234 45.5358 389.965 45.2441C389.696 44.9525 389.325 44.8066 388.851 44.8066C388.358 44.8066 387.971 44.9593 387.688 45.2646C387.406 45.5654 387.244 45.9528 387.203 46.4268ZM396.855 51.1504C395.935 51.1504 395.174 50.9544 394.572 50.5625C393.975 50.1706 393.611 49.6191 393.479 48.9082L395.386 48.5801C395.582 49.291 396.092 49.6465 396.917 49.6465C397.309 49.6465 397.617 49.5736 397.84 49.4277C398.068 49.2773 398.182 49.0882 398.182 48.8604C398.182 48.473 397.854 48.2109 397.197 48.0742L395.878 47.8008C394.41 47.5 393.677 46.7777 393.677 45.6338C393.677 44.9001 393.971 44.3213 394.559 43.8975C395.146 43.4736 395.924 43.2617 396.89 43.2617C397.797 43.2617 398.519 43.4463 399.057 43.8154C399.594 44.1846 399.934 44.679 400.075 45.2988L398.257 45.6201C398.175 45.3604 398.024 45.1484 397.806 44.9844C397.587 44.8158 397.291 44.7314 396.917 44.7314C396.58 44.7314 396.297 44.8044 396.069 44.9502C395.841 45.0915 395.728 45.276 395.728 45.5039C395.728 45.6953 395.8 45.8594 395.946 45.9961C396.097 46.1283 396.352 46.2308 396.712 46.3037L398.086 46.5771C399.544 46.8734 400.273 47.5615 400.273 48.6416C400.273 49.1429 400.128 49.5827 399.836 49.9609C399.544 50.3346 399.141 50.6263 398.626 50.8359C398.111 51.0456 397.521 51.1504 396.855 51.1504ZM405.462 43.3574V44.9229H404.033V48.7646C404.033 49.2386 404.266 49.4756 404.73 49.4756C404.808 49.4756 404.915 49.4665 405.052 49.4482C405.193 49.4255 405.302 49.4049 405.38 49.3867L405.674 50.9248C405.446 50.9932 405.218 51.041 404.99 51.0684C404.767 51.0957 404.553 51.1094 404.348 51.1094C403.582 51.1094 402.996 50.9248 402.591 50.5557C402.185 50.182 401.982 49.6442 401.982 48.9424V44.9229H400.93V43.3574H401.982V41.5391H404.033V43.3574H405.462Z" fill="white"/>
<rect x="250" y="117" width="170" height="30" rx="4" fill="#666977"/>
<path d="M265.373 137.137C264.466 137.137 263.657 136.932 262.946 136.521C262.235 136.111 261.673 135.517 261.258 134.737C260.848 133.958 260.643 133.017 260.643 131.914C260.643 130.807 260.85 129.863 261.265 129.084C261.679 128.3 262.244 127.703 262.96 127.293C263.675 126.883 264.48 126.678 265.373 126.678C266.143 126.678 266.84 126.821 267.465 127.108C268.089 127.391 268.602 127.803 269.003 128.346C269.404 128.883 269.655 129.533 269.755 130.294H267.643C267.547 129.743 267.296 129.312 266.891 129.002C266.49 128.688 265.997 128.53 265.414 128.53C264.621 128.53 263.981 128.824 263.493 129.412C263.006 130 262.762 130.834 262.762 131.914C262.762 133.017 263.006 133.855 263.493 134.43C263.985 134.999 264.623 135.284 265.407 135.284C265.986 135.284 266.478 135.129 266.884 134.819C267.294 134.505 267.549 134.07 267.649 133.514H269.762C269.684 134.147 269.461 134.74 269.092 135.291C268.723 135.838 268.224 136.282 267.595 136.624C266.97 136.966 266.23 137.137 265.373 137.137ZM274.656 137.15C273.891 137.15 273.228 136.986 272.667 136.658C272.106 136.326 271.674 135.865 271.368 135.277C271.067 134.685 270.917 133.997 270.917 133.213C270.917 132.424 271.067 131.734 271.368 131.142C271.674 130.549 272.106 130.089 272.667 129.761C273.228 129.428 273.891 129.262 274.656 129.262C275.422 129.262 276.085 129.428 276.646 129.761C277.206 130.089 277.637 130.549 277.938 131.142C278.243 131.734 278.396 132.424 278.396 133.213C278.396 133.997 278.243 134.685 277.938 135.277C277.637 135.865 277.206 136.326 276.646 136.658C276.085 136.986 275.422 137.15 274.656 137.15ZM274.656 135.537C275.203 135.537 275.616 135.316 275.894 134.874C276.172 134.432 276.311 133.876 276.311 133.206C276.311 132.532 276.172 131.976 275.894 131.538C275.616 131.096 275.203 130.875 274.656 130.875C274.109 130.875 273.697 131.096 273.419 131.538C273.146 131.976 273.009 132.532 273.009 133.206C273.009 133.876 273.146 134.432 273.419 134.874C273.697 135.316 274.109 135.537 274.656 135.537ZM281.875 132.577V137H279.824V129.357H281.759L281.786 130.937C282 130.403 282.303 129.991 282.695 129.699C283.087 129.408 283.577 129.262 284.165 129.262C284.958 129.262 285.594 129.517 286.072 130.027C286.551 130.538 286.79 131.242 286.79 132.14V137H284.739V132.495C284.739 132.021 284.616 131.65 284.37 131.381C284.129 131.112 283.791 130.978 283.358 130.978C282.921 130.978 282.563 131.119 282.285 131.401C282.012 131.679 281.875 132.071 281.875 132.577ZM292.799 129.357V130.923H291.199V137H289.155V130.923H287.809V129.357H289.155V128.77C289.155 127.958 289.392 127.35 289.866 126.944C290.34 126.539 290.93 126.336 291.637 126.336C291.96 126.336 292.254 126.361 292.519 126.411C292.783 126.461 292.979 126.507 293.106 126.548L292.737 128.093C292.655 128.07 292.553 128.047 292.43 128.024C292.311 128.002 292.186 127.99 292.054 127.99C291.739 127.99 291.518 128.065 291.391 128.216C291.263 128.362 291.199 128.569 291.199 128.838V129.357H292.799ZM294.248 137V129.357H296.299V137H294.248ZM295.273 128.359C294.964 128.359 294.699 128.257 294.48 128.052C294.262 127.847 294.152 127.598 294.152 127.307C294.152 127.015 294.262 126.767 294.48 126.562C294.699 126.356 294.964 126.254 295.273 126.254C295.583 126.254 295.848 126.356 296.066 126.562C296.29 126.767 296.401 127.015 296.401 127.307C296.401 127.598 296.29 127.847 296.066 128.052C295.848 128.257 295.583 128.359 295.273 128.359ZM298.049 137V129.357H300.031V130.69H300.113C300.255 130.221 300.489 129.866 300.817 129.624C301.15 129.378 301.531 129.255 301.959 129.255C302.191 129.255 302.412 129.278 302.622 129.323V131.155C302.531 131.128 302.396 131.105 302.219 131.087C302.046 131.064 301.884 131.053 301.733 131.053C301.259 131.053 300.868 131.201 300.558 131.497C300.252 131.793 300.1 132.178 300.1 132.652V137H298.049ZM303.859 137V129.357H305.76L305.842 130.841C306.047 130.285 306.348 129.879 306.744 129.624C307.141 129.369 307.567 129.241 308.022 129.241C308.989 129.241 309.645 129.813 309.991 130.957C310.205 130.369 310.536 129.936 310.982 129.658C311.434 129.38 311.921 129.241 312.445 129.241C313.147 129.241 313.728 129.469 314.188 129.925C314.653 130.376 314.886 131.016 314.886 131.846V137H312.828V132.235C312.828 131.807 312.712 131.488 312.479 131.278C312.247 131.064 311.96 130.957 311.618 130.957C311.231 130.957 310.923 131.08 310.695 131.326C310.472 131.572 310.36 131.896 310.36 132.297V137H308.378V132.181C308.378 131.807 308.266 131.511 308.043 131.292C307.824 131.069 307.539 130.957 307.188 130.957C306.828 130.957 306.525 131.08 306.279 131.326C306.033 131.568 305.91 131.919 305.91 132.379V137H303.859ZM318.775 137.15C318.046 137.15 317.44 136.959 316.957 136.576C316.474 136.189 316.232 135.617 316.232 134.86C316.232 134.291 316.369 133.844 316.643 133.521C316.916 133.197 317.271 132.96 317.709 132.81C318.146 132.659 318.616 132.561 319.117 132.516C319.773 132.452 320.245 132.386 320.532 132.317C320.824 132.244 320.97 132.083 320.97 131.832V131.798C320.97 131.474 320.865 131.224 320.655 131.046C320.45 130.868 320.156 130.779 319.773 130.779C319.377 130.779 319.058 130.866 318.816 131.039C318.575 131.208 318.413 131.415 318.331 131.661L316.451 131.347C316.647 130.686 317.037 130.173 317.62 129.809C318.208 129.444 318.928 129.262 319.78 129.262C320.327 129.262 320.847 129.348 321.339 129.521C321.836 129.695 322.239 129.973 322.549 130.355C322.863 130.734 323.021 131.233 323.021 131.853V137H321.079V135.94H321.011C320.824 136.296 320.546 136.588 320.177 136.815C319.808 137.039 319.34 137.15 318.775 137.15ZM319.356 135.708C319.835 135.708 320.225 135.569 320.525 135.291C320.831 135.013 320.983 134.671 320.983 134.266V133.438C320.901 133.498 320.767 133.55 320.58 133.596C320.398 133.637 320.204 133.675 319.999 133.712C319.794 133.744 319.616 133.769 319.466 133.787C319.088 133.842 318.782 133.949 318.55 134.108C318.317 134.268 318.201 134.5 318.201 134.806C318.201 135.102 318.308 135.327 318.522 135.482C318.741 135.633 319.019 135.708 319.356 135.708ZM328.571 129.357V130.923H327.143V134.765C327.143 135.239 327.375 135.476 327.84 135.476C327.917 135.476 328.024 135.466 328.161 135.448C328.302 135.425 328.412 135.405 328.489 135.387L328.783 136.925C328.555 136.993 328.327 137.041 328.1 137.068C327.876 137.096 327.662 137.109 327.457 137.109C326.691 137.109 326.106 136.925 325.7 136.556C325.295 136.182 325.092 135.644 325.092 134.942V130.923H324.039V129.357H325.092V127.539H327.143V129.357H328.571ZM329.904 137V129.357H331.955V137H329.904ZM330.93 128.359C330.62 128.359 330.355 128.257 330.137 128.052C329.918 127.847 329.809 127.598 329.809 127.307C329.809 127.015 329.918 126.767 330.137 126.562C330.355 126.356 330.62 126.254 330.93 126.254C331.24 126.254 331.504 126.356 331.723 126.562C331.946 126.767 332.058 127.015 332.058 127.307C332.058 127.598 331.946 127.847 331.723 128.052C331.504 128.257 331.24 128.359 330.93 128.359ZM337.123 137.15C336.357 137.15 335.694 136.986 335.134 136.658C334.573 136.326 334.14 135.865 333.835 135.277C333.534 134.685 333.384 133.997 333.384 133.213C333.384 132.424 333.534 131.734 333.835 131.142C334.14 130.549 334.573 130.089 335.134 129.761C335.694 129.428 336.357 129.262 337.123 129.262C337.889 129.262 338.552 129.428 339.112 129.761C339.673 130.089 340.104 130.549 340.404 131.142C340.71 131.734 340.862 132.424 340.862 133.213C340.862 133.997 340.71 134.685 340.404 135.277C340.104 135.865 339.673 136.326 339.112 136.658C338.552 136.986 337.889 137.15 337.123 137.15ZM337.123 135.537C337.67 135.537 338.082 135.316 338.36 134.874C338.638 134.432 338.777 133.876 338.777 133.206C338.777 132.532 338.638 131.976 338.36 131.538C338.082 131.096 337.67 130.875 337.123 130.875C336.576 130.875 336.164 131.096 335.886 131.538C335.612 131.976 335.476 132.532 335.476 133.206C335.476 133.876 335.612 134.432 335.886 134.874C336.164 135.316 336.576 135.537 337.123 135.537ZM344.342 132.577V137H342.291V129.357H344.226L344.253 130.937C344.467 130.403 344.77 129.991 345.162 129.699C345.554 129.408 346.044 129.262 346.632 129.262C347.425 129.262 348.061 129.517 348.539 130.027C349.018 130.538 349.257 131.242 349.257 132.14V137H347.206V132.495C347.206 132.021 347.083 131.65 346.837 131.381C346.595 131.112 346.258 130.978 345.825 130.978C345.388 130.978 345.03 131.119 344.752 131.401C344.479 131.679 344.342 132.071 344.342 132.577ZM354.384 137V126.814H358.355C359.513 126.814 360.409 127.118 361.042 127.724C361.68 128.325 361.999 129.127 361.999 130.13C361.999 130.827 361.844 131.424 361.534 131.921C361.224 132.413 360.778 132.782 360.194 133.028L362.361 137H360.051L358.109 133.363H356.469V137H354.384ZM356.469 131.675H357.973C359.221 131.675 359.846 131.16 359.846 130.13C359.846 129.615 359.691 129.221 359.381 128.947C359.076 128.674 358.604 128.537 357.966 128.537H356.469V131.675ZM366.812 137.15C366.032 137.15 365.36 136.991 364.795 136.672C364.23 136.353 363.795 135.899 363.489 135.312C363.188 134.724 363.038 134.026 363.038 133.22C363.038 132.431 363.188 131.741 363.489 131.148C363.795 130.556 364.221 130.093 364.768 129.761C365.319 129.428 365.966 129.262 366.709 129.262C367.374 129.262 367.978 129.403 368.521 129.686C369.063 129.968 369.493 130.396 369.812 130.971C370.136 131.545 370.298 132.267 370.298 133.138V133.712H365.068C365.091 134.336 365.264 134.808 365.588 135.127C365.911 135.446 366.331 135.605 366.846 135.605C367.206 135.605 367.513 135.53 367.769 135.38C368.028 135.225 368.213 134.999 368.322 134.703L370.182 135.052C369.995 135.685 369.607 136.193 369.02 136.576C368.436 136.959 367.7 137.15 366.812 137.15ZM365.082 132.427H368.322C368.272 131.93 368.113 131.536 367.844 131.244C367.575 130.952 367.203 130.807 366.729 130.807C366.237 130.807 365.85 130.959 365.567 131.265C365.285 131.565 365.123 131.953 365.082 132.427ZM378.774 139.857H376.724V135.776H376.655C376.56 135.981 376.423 136.189 376.245 136.398C376.067 136.604 375.835 136.777 375.548 136.918C375.261 137.059 374.91 137.13 374.495 137.13C373.907 137.13 373.379 136.979 372.909 136.679C372.44 136.373 372.066 135.929 371.788 135.346C371.515 134.758 371.378 134.04 371.378 133.192C371.378 132.322 371.519 131.595 371.802 131.012C372.084 130.428 372.46 129.991 372.93 129.699C373.399 129.408 373.916 129.262 374.481 129.262C374.914 129.262 375.274 129.335 375.562 129.48C375.849 129.626 376.079 129.806 376.252 130.021C376.43 130.235 376.564 130.442 376.655 130.643H376.758V129.357H378.774V139.857ZM375.124 135.482C375.644 135.482 376.047 135.273 376.334 134.854C376.621 134.434 376.765 133.878 376.765 133.186C376.765 132.493 376.621 131.939 376.334 131.524C376.051 131.11 375.648 130.902 375.124 130.902C374.586 130.902 374.178 131.117 373.9 131.545C373.622 131.969 373.483 132.516 373.483 133.186C373.483 133.86 373.622 134.411 373.9 134.84C374.183 135.268 374.591 135.482 375.124 135.482ZM383.163 137.096C382.37 137.096 381.732 136.84 381.249 136.33C380.771 135.82 380.531 135.116 380.531 134.218V129.357H382.582V133.862C382.582 134.336 382.705 134.708 382.951 134.977C383.197 135.245 383.535 135.38 383.963 135.38C384.4 135.38 384.756 135.241 385.029 134.963C385.307 134.68 385.446 134.286 385.446 133.78V129.357H387.504V137H385.562L385.535 135.414C385.321 135.956 385.016 136.373 384.619 136.665C384.227 136.952 383.742 137.096 383.163 137.096ZM392.706 137.15C391.927 137.15 391.255 136.991 390.689 136.672C390.124 136.353 389.689 135.899 389.384 135.312C389.083 134.724 388.933 134.026 388.933 133.22C388.933 132.431 389.083 131.741 389.384 131.148C389.689 130.556 390.115 130.093 390.662 129.761C391.214 129.428 391.861 129.262 392.604 129.262C393.269 129.262 393.873 129.403 394.415 129.686C394.957 129.968 395.388 130.396 395.707 130.971C396.031 131.545 396.192 132.267 396.192 133.138V133.712H390.963C390.986 134.336 391.159 134.808 391.482 135.127C391.806 135.446 392.225 135.605 392.74 135.605C393.1 135.605 393.408 135.53 393.663 135.38C393.923 135.225 394.107 134.999 394.217 134.703L396.076 135.052C395.889 135.685 395.502 136.193 394.914 136.576C394.331 136.959 393.595 137.15 392.706 137.15ZM390.977 132.427H394.217C394.167 131.93 394.007 131.536 393.738 131.244C393.469 130.952 393.098 130.807 392.624 130.807C392.132 130.807 391.744 130.959 391.462 131.265C391.179 131.565 391.018 131.953 390.977 132.427ZM400.629 137.15C399.708 137.15 398.947 136.954 398.346 136.562C397.749 136.171 397.384 135.619 397.252 134.908L399.159 134.58C399.355 135.291 399.866 135.646 400.69 135.646C401.082 135.646 401.39 135.574 401.613 135.428C401.841 135.277 401.955 135.088 401.955 134.86C401.955 134.473 401.627 134.211 400.971 134.074L399.651 133.801C398.184 133.5 397.45 132.778 397.45 131.634C397.45 130.9 397.744 130.321 398.332 129.897C398.92 129.474 399.697 129.262 400.663 129.262C401.57 129.262 402.292 129.446 402.83 129.815C403.368 130.185 403.707 130.679 403.849 131.299L402.03 131.62C401.948 131.36 401.798 131.148 401.579 130.984C401.36 130.816 401.064 130.731 400.69 130.731C400.353 130.731 400.071 130.804 399.843 130.95C399.615 131.091 399.501 131.276 399.501 131.504C399.501 131.695 399.574 131.859 399.72 131.996C399.87 132.128 400.125 132.231 400.485 132.304L401.859 132.577C403.318 132.873 404.047 133.562 404.047 134.642C404.047 135.143 403.901 135.583 403.609 135.961C403.318 136.335 402.914 136.626 402.399 136.836C401.884 137.046 401.294 137.15 400.629 137.15ZM409.235 129.357V130.923H407.807V134.765C407.807 135.239 408.039 135.476 408.504 135.476C408.581 135.476 408.688 135.466 408.825 135.448C408.966 135.425 409.076 135.405 409.153 135.387L409.447 136.925C409.219 136.993 408.992 137.041 408.764 137.068C408.54 137.096 408.326 137.109 408.121 137.109C407.355 137.109 406.77 136.925 406.364 136.556C405.959 136.182 405.756 135.644 405.756 134.942V130.923H404.703V129.357H405.756V127.539H407.807V129.357H409.235Z" fill="white"/>
<rect x="1" y="17" width="138" height="138" fill="white"/>
<rect x="1" y="17" width="138" height="138" stroke="#B6B9C9" stroke-width="2"/>
<path d="M139 156C139 156.788 138.655 157.639 137.833 158.558C137.005 159.482 135.738 160.422 134.024 161.348C130.596 163.2 125.57 164.9 119.275 166.339C106.7 169.213 89.2779 171 70 171C50.7221 171 33.3003 169.213 20.7253 166.339C14.4298 164.9 9.40397 163.2 5.97637 161.348C4.26193 160.422 2.99484 159.482 2.1672 158.558C1.34496 157.639 1 156.788 1 156C1 155.212 1.34496 154.361 2.1672 153.442C2.99484 152.518 4.26193 151.578 5.97637 150.652C9.40397 148.8 14.4298 147.1 20.7253 145.661C33.3003 142.787 50.7221 141 70 141C89.2779 141 106.7 142.787 119.275 145.661C125.57 147.1 130.596 148.8 134.024 150.652C135.738 151.578 137.005 152.518 137.833 153.442C138.655 154.361 139 155.212 139 156Z" fill="white" stroke="#B6B9C9" stroke-width="2"/>
<rect x="2" y="140" width="136" height="16" fill="white"/>
<path d="M40.2432 103.15C39.0173 103.15 38.0374 102.87 37.3037 102.31C36.5745 101.744 36.1963 100.922 36.1689 99.8418H38.1992C38.2357 100.357 38.4408 100.744 38.8145 101.004C39.1927 101.259 39.6621 101.387 40.2227 101.387C40.7786 101.387 41.2253 101.268 41.5625 101.031C41.9043 100.79 42.0752 100.475 42.0752 100.088C42.0752 99.737 41.9202 99.4681 41.6104 99.2812C41.305 99.0944 40.8743 98.9326 40.3184 98.7959L39.1973 98.5156C38.3359 98.306 37.6615 97.9779 37.1738 97.5312C36.6862 97.0801 36.4424 96.4854 36.4424 95.7471C36.4424 95.1318 36.6064 94.5941 36.9346 94.1338C37.2673 93.6735 37.7207 93.3158 38.2949 93.0605C38.8737 92.8053 39.5322 92.6777 40.2705 92.6777C41.0225 92.6777 41.6787 92.8076 42.2393 93.0674C42.7998 93.3226 43.2373 93.6803 43.5518 94.1406C43.8662 94.5964 44.028 95.1227 44.0371 95.7197H42.0205C41.984 95.3096 41.8086 94.9928 41.4941 94.7695C41.1842 94.5462 40.7695 94.4346 40.25 94.4346C39.7168 94.4346 39.3044 94.5462 39.0127 94.7695C38.7256 94.9883 38.582 95.2686 38.582 95.6104C38.582 95.9886 38.7438 96.2712 39.0674 96.458C39.3955 96.6449 39.776 96.7907 40.209 96.8955L41.1318 97.1211C41.7015 97.2533 42.2165 97.4447 42.6768 97.6953C43.137 97.9414 43.5016 98.2627 43.7705 98.6592C44.0394 99.0511 44.1738 99.5319 44.1738 100.102C44.1738 101.027 43.8275 101.767 43.1348 102.323C42.4466 102.875 41.4827 103.15 40.2432 103.15ZM47.6875 98.5771V103H45.6367V92.8145H47.6465V96.8203C47.8698 96.3236 48.1729 95.9408 48.5557 95.6719C48.9385 95.3984 49.4124 95.2617 49.9775 95.2617C50.7705 95.2617 51.4062 95.5169 51.8848 96.0273C52.3678 96.5378 52.6094 97.2419 52.6094 98.1396V103H50.5518V98.4951C50.5518 98.0212 50.4287 97.6497 50.1826 97.3809C49.9411 97.112 49.6038 96.9775 49.1709 96.9775C48.7334 96.9775 48.3757 97.1188 48.0977 97.4014C47.8242 97.6794 47.6875 98.0713 47.6875 98.5771ZM57.7773 103.15C57.0117 103.15 56.3486 102.986 55.7881 102.658C55.2275 102.326 54.7946 101.865 54.4893 101.277C54.1885 100.685 54.0381 99.9967 54.0381 99.2129C54.0381 98.4245 54.1885 97.734 54.4893 97.1416C54.7946 96.5492 55.2275 96.0889 55.7881 95.7607C56.3486 95.4281 57.0117 95.2617 57.7773 95.2617C58.543 95.2617 59.2061 95.4281 59.7666 95.7607C60.3271 96.0889 60.7578 96.5492 61.0586 97.1416C61.3639 97.734 61.5166 98.4245 61.5166 99.2129C61.5166 99.9967 61.3639 100.685 61.0586 101.277C60.7578 101.865 60.3271 102.326 59.7666 102.658C59.2061 102.986 58.543 103.15 57.7773 103.15ZM57.7773 101.537C58.3242 101.537 58.7367 101.316 59.0146 100.874C59.2926 100.432 59.4316 99.876 59.4316 99.2061C59.4316 98.5316 59.2926 97.9756 59.0146 97.5381C58.7367 97.096 58.3242 96.875 57.7773 96.875C57.2305 96.875 56.818 97.096 56.54 97.5381C56.2666 97.9756 56.1299 98.5316 56.1299 99.2061C56.1299 99.876 56.2666 100.432 56.54 100.874C56.818 101.316 57.2305 101.537 57.7773 101.537ZM62.9453 105.857V95.3574H64.9619V96.6426H65.0576C65.1488 96.4421 65.2809 96.2347 65.4541 96.0205C65.6318 95.8063 65.8643 95.6263 66.1514 95.4805C66.443 95.3346 66.8053 95.2617 67.2383 95.2617C67.8034 95.2617 68.3206 95.4076 68.79 95.6992C69.2594 95.9909 69.6331 96.4284 69.9111 97.0117C70.1937 97.5951 70.335 98.3219 70.335 99.1924C70.335 100.04 70.1982 100.758 69.9248 101.346C69.6514 101.929 69.2799 102.373 68.8105 102.679C68.3411 102.979 67.8125 103.13 67.2246 103.13C66.8099 103.13 66.459 103.059 66.1719 102.918C65.8848 102.777 65.6501 102.604 65.4678 102.398C65.29 102.189 65.1533 101.981 65.0576 101.776H64.9961V105.857H62.9453ZM66.5957 101.482C67.1289 101.482 67.5345 101.268 67.8125 100.84C68.0951 100.411 68.2363 99.86 68.2363 99.1855C68.2363 98.5156 68.0973 97.9688 67.8193 97.5449C67.5413 97.1165 67.1335 96.9023 66.5957 96.9023C66.0671 96.9023 65.6592 97.1097 65.3721 97.5244C65.0895 97.9391 64.9482 98.4928 64.9482 99.1855C64.9482 99.8783 65.0918 100.434 65.3789 100.854C65.666 101.273 66.0716 101.482 66.5957 101.482ZM73.1787 103L70.9229 95.3574H73.0762L73.7393 98.1807C73.8304 98.6045 73.9307 99.0602 74.04 99.5479C74.1494 100.035 74.2565 100.564 74.3613 101.134C74.4661 100.578 74.5755 100.056 74.6895 99.5684C74.8079 99.0762 74.9196 98.6136 75.0244 98.1807L75.7217 95.3574H77.6084L78.292 98.1807C78.3877 98.6136 78.4925 99.0739 78.6064 99.5615C78.7249 100.049 78.8389 100.576 78.9482 101.141C79.0439 100.576 79.1442 100.049 79.249 99.5615C79.3538 99.0739 79.4564 98.6136 79.5566 98.1807L80.2197 95.3574H82.4004L80.1309 103H78.0459L77.1982 100.054C77.1025 99.7256 77.0091 99.3564 76.918 98.9463C76.8314 98.5361 76.7425 98.1305 76.6514 97.7295C76.5648 98.1305 76.4759 98.5384 76.3848 98.9531C76.2936 99.3633 76.2025 99.7301 76.1113 100.054L75.2637 103H73.1787ZM85.5859 103.15C84.8568 103.15 84.2507 102.959 83.7676 102.576C83.2845 102.189 83.043 101.617 83.043 100.86C83.043 100.291 83.1797 99.8441 83.4531 99.5205C83.7266 99.1969 84.082 98.96 84.5195 98.8096C84.957 98.6592 85.4264 98.5612 85.9277 98.5156C86.584 98.4518 87.0557 98.3857 87.3428 98.3174C87.6344 98.2445 87.7803 98.0827 87.7803 97.832V97.7979C87.7803 97.4743 87.6755 97.2236 87.4658 97.0459C87.2607 96.8682 86.9668 96.7793 86.584 96.7793C86.1875 96.7793 85.8685 96.8659 85.627 97.0391C85.3854 97.2077 85.2236 97.415 85.1416 97.6611L83.2617 97.3467C83.4577 96.6859 83.8473 96.1732 84.4307 95.8086C85.0186 95.444 85.7386 95.2617 86.5908 95.2617C87.1377 95.2617 87.6572 95.3483 88.1494 95.5215C88.6462 95.6947 89.0495 95.9727 89.3594 96.3555C89.6738 96.7337 89.8311 97.2327 89.8311 97.8525V103H87.8896V101.94H87.8213C87.6344 102.296 87.3564 102.588 86.9873 102.815C86.6182 103.039 86.151 103.15 85.5859 103.15ZM86.167 101.708C86.6455 101.708 87.0352 101.569 87.3359 101.291C87.6413 101.013 87.7939 100.671 87.7939 100.266V99.4385C87.7119 99.4977 87.5775 99.5501 87.3906 99.5957C87.2083 99.6367 87.0146 99.6755 86.8096 99.7119C86.6045 99.7438 86.4268 99.7689 86.2764 99.7871C85.8981 99.8418 85.5928 99.9489 85.3604 100.108C85.1279 100.268 85.0117 100.5 85.0117 100.806C85.0117 101.102 85.1188 101.327 85.333 101.482C85.5518 101.633 85.8298 101.708 86.167 101.708ZM91.5879 103V95.3574H93.5703V96.6904H93.6523C93.7936 96.221 94.0283 95.8656 94.3564 95.624C94.6891 95.3779 95.0697 95.2549 95.498 95.2549C95.7305 95.2549 95.9515 95.2777 96.1611 95.3232V97.1553C96.07 97.1279 95.9355 97.1051 95.7578 97.0869C95.5846 97.0641 95.4229 97.0527 95.2725 97.0527C94.7985 97.0527 94.4066 97.2008 94.0967 97.4971C93.7913 97.7933 93.6387 98.1784 93.6387 98.6523V103H91.5879ZM100.399 103.15C99.6201 103.15 98.9479 102.991 98.3828 102.672C97.8177 102.353 97.3825 101.899 97.0771 101.312C96.7764 100.724 96.626 100.026 96.626 99.2197C96.626 98.4313 96.7764 97.7409 97.0771 97.1484C97.3825 96.556 97.8086 96.0934 98.3555 95.7607C98.9069 95.4281 99.554 95.2617 100.297 95.2617C100.962 95.2617 101.566 95.403 102.108 95.6855C102.651 95.9681 103.081 96.3965 103.4 96.9707C103.724 97.5449 103.886 98.2673 103.886 99.1377V99.7119H98.6562C98.679 100.336 98.8522 100.808 99.1758 101.127C99.4993 101.446 99.9186 101.605 100.434 101.605C100.794 101.605 101.101 101.53 101.356 101.38C101.616 101.225 101.801 100.999 101.91 100.703L103.77 101.052C103.583 101.685 103.195 102.193 102.607 102.576C102.024 102.959 101.288 103.15 100.399 103.15ZM98.6699 98.4268H101.91C101.86 97.93 101.701 97.5358 101.432 97.2441C101.163 96.9525 100.791 96.8066 100.317 96.8066C99.8252 96.8066 99.4378 96.9593 99.1553 97.2646C98.8727 97.5654 98.7109 97.9528 98.6699 98.4268Z" fill="#12141E"/>
<path d="M139 16C139 16.788 138.655 17.6391 137.833 18.5575C137.005 19.482 135.738 20.4217 134.024 21.3482C130.596 23.2005 125.57 24.8999 119.275 26.3389C106.7 29.2131 89.2779 31 70 31C50.7221 31 33.3003 29.2131 20.7253 26.3389C14.4298 24.8999 9.40397 23.2005 5.97637 21.3482C4.26193 20.4217 2.99484 19.482 2.1672 18.5575C1.34496 17.6391 1 16.788 1 16C1 15.212 1.34496 14.3609 2.1672 13.4425C2.99484 12.518 4.26193 11.5783 5.97637 10.6518C9.40397 8.79955 14.4298 7.10013 20.7253 5.66115C33.3003 2.78687 50.7221 1 70 1C89.2779 1 106.7 2.78687 119.275 5.66115C125.57 7.10013 130.596 8.79955 134.024 10.6518C135.738 11.5783 137.005 12.518 137.833 13.4425C138.655 14.3609 139 15.212 139 16Z" fill="white" stroke="#B6B9C9" stroke-width="2"/>
<rect x="556" y="17" width="138" height="138" fill="white"/>
<rect x="556" y="17" width="138" height="138" stroke="#B6B9C9" stroke-width="2"/>
<path d="M694 156C694 156.788 693.655 157.639 692.833 158.558C692.005 159.482 690.738 160.422 689.024 161.348C685.596 163.2 680.57 164.9 674.275 166.339C661.7 169.213 644.278 171 625 171C605.722 171 588.3 169.213 575.725 166.339C569.43 164.9 564.404 163.2 560.976 161.348C559.262 160.422 557.995 159.482 557.167 158.558C556.345 157.639 556 156.788 556 156C556 155.212 556.345 154.361 557.167 153.442C557.995 152.518 559.262 151.578 560.976 150.652C564.404 148.8 569.43 147.1 575.725 145.661C588.3 142.787 605.722 141 625 141C644.278 141 661.7 142.787 674.275 145.661C680.57 147.1 685.596 148.8 689.024 150.652C690.738 151.578 692.005 152.518 692.833 153.442C693.655 154.361 694 155.212 694 156Z" fill="white" stroke="#B6B9C9" stroke-width="2"/>
<rect x="557" y="140" width="136" height="16" fill="white"/>
<path d="M573.84 93L577.319 82.8145H580.054L583.622 93H581.305L580.519 90.6348H576.902L576.144 93H573.84ZM577.422 89.001H579.979L579.671 88.085C579.507 87.5654 579.343 87.0026 579.179 86.3965C579.015 85.7904 578.844 85.141 578.666 84.4482C578.497 85.1501 578.336 85.804 578.181 86.4102C578.026 87.0163 577.871 87.5745 577.716 88.085L577.422 89.001ZM584.839 95.8574V85.3574H586.855V86.6426H586.951C587.042 86.4421 587.174 86.2347 587.348 86.0205C587.525 85.8063 587.758 85.6263 588.045 85.4805C588.337 85.3346 588.699 85.2617 589.132 85.2617C589.697 85.2617 590.214 85.4076 590.684 85.6992C591.153 85.9909 591.527 86.4284 591.805 87.0117C592.087 87.5951 592.229 88.3219 592.229 89.1924C592.229 90.04 592.092 90.7578 591.818 91.3457C591.545 91.929 591.174 92.3734 590.704 92.6787C590.235 92.9795 589.706 93.1299 589.118 93.1299C588.703 93.1299 588.353 93.0592 588.065 92.918C587.778 92.7767 587.544 92.6035 587.361 92.3984C587.184 92.1888 587.047 91.9814 586.951 91.7764H586.89V95.8574H584.839ZM588.489 91.4824C589.022 91.4824 589.428 91.2682 589.706 90.8398C589.989 90.4115 590.13 89.86 590.13 89.1855C590.13 88.5156 589.991 87.9688 589.713 87.5449C589.435 87.1165 589.027 86.9023 588.489 86.9023C587.961 86.9023 587.553 87.1097 587.266 87.5244C586.983 87.9391 586.842 88.4928 586.842 89.1855C586.842 89.8783 586.985 90.4342 587.272 90.8535C587.56 91.2728 587.965 91.4824 588.489 91.4824ZM593.671 95.8574V85.3574H595.688V86.6426H595.783C595.874 86.4421 596.007 86.2347 596.18 86.0205C596.357 85.8063 596.59 85.6263 596.877 85.4805C597.169 85.3346 597.531 85.2617 597.964 85.2617C598.529 85.2617 599.046 85.4076 599.516 85.6992C599.985 85.9909 600.359 86.4284 600.637 87.0117C600.919 87.5951 601.061 88.3219 601.061 89.1924C601.061 90.04 600.924 90.7578 600.65 91.3457C600.377 91.929 600.006 92.3734 599.536 92.6787C599.067 92.9795 598.538 93.1299 597.95 93.1299C597.535 93.1299 597.185 93.0592 596.897 92.918C596.61 92.7767 596.376 92.6035 596.193 92.3984C596.016 92.1888 595.879 91.9814 595.783 91.7764H595.722V95.8574H593.671ZM597.321 91.4824C597.854 91.4824 598.26 91.2682 598.538 90.8398C598.821 90.4115 598.962 89.86 598.962 89.1855C598.962 88.5156 598.823 87.9688 598.545 87.5449C598.267 87.1165 597.859 86.9023 597.321 86.9023C596.793 86.9023 596.385 87.1097 596.098 87.5244C595.815 87.9391 595.674 88.4928 595.674 89.1855C595.674 89.8783 595.817 90.4342 596.104 90.8535C596.392 91.2728 596.797 91.4824 597.321 91.4824ZM602.934 87.0527L602.722 82.8145H604.697L604.492 87.0527H602.934ZM609.886 93.1504C608.965 93.1504 608.204 92.9544 607.603 92.5625C607.006 92.1706 606.641 91.6191 606.509 90.9082L608.416 90.5801C608.612 91.291 609.122 91.6465 609.947 91.6465C610.339 91.6465 610.647 91.5736 610.87 91.4277C611.098 91.2773 611.212 91.0882 611.212 90.8604C611.212 90.473 610.884 90.2109 610.228 90.0742L608.908 89.8008C607.441 89.5 606.707 88.7777 606.707 87.6338C606.707 86.9001 607.001 86.3213 607.589 85.8975C608.177 85.4736 608.954 85.2617 609.92 85.2617C610.827 85.2617 611.549 85.4463 612.087 85.8154C612.625 86.1846 612.964 86.679 613.105 87.2988L611.287 87.6201C611.205 87.3604 611.055 87.1484 610.836 86.9844C610.617 86.8158 610.321 86.7314 609.947 86.7314C609.61 86.7314 609.327 86.8044 609.1 86.9502C608.872 87.0915 608.758 87.276 608.758 87.5039C608.758 87.6953 608.831 87.8594 608.977 87.9961C609.127 88.1283 609.382 88.2308 609.742 88.3037L611.116 88.5771C612.575 88.8734 613.304 89.5615 613.304 90.6416C613.304 91.1429 613.158 91.5827 612.866 91.9609C612.575 92.3346 612.171 92.6263 611.656 92.8359C611.141 93.0456 610.551 93.1504 609.886 93.1504ZM618.068 93V82.8145H622.108C623.225 82.8145 624.063 83.0605 624.624 83.5527C625.189 84.0449 625.472 84.6715 625.472 85.4326C625.472 86.0342 625.296 86.5195 624.945 86.8887C624.599 87.2578 624.164 87.5016 623.64 87.6201V87.7227C624.022 87.7409 624.382 87.8503 624.72 88.0508C625.062 88.2513 625.337 88.5339 625.547 88.8984C625.761 89.2585 625.868 89.6891 625.868 90.1904C625.868 90.7282 625.736 91.209 625.472 91.6328C625.207 92.0566 624.815 92.3916 624.296 92.6377C623.776 92.8792 623.134 93 622.368 93H618.068ZM620.153 91.2842H621.958C622.573 91.2842 623.02 91.1657 623.298 90.9287C623.58 90.6917 623.722 90.3796 623.722 89.9922C623.722 89.5684 623.567 89.2174 623.257 88.9395C622.951 88.6615 622.537 88.5225 622.013 88.5225H620.153V91.2842ZM620.153 87.0938H621.801C622.247 87.0938 622.619 86.9753 622.915 86.7383C623.211 86.5013 623.359 86.1777 623.359 85.7676C623.359 85.3984 623.227 85.0977 622.963 84.8652C622.703 84.6328 622.329 84.5166 621.842 84.5166H620.153V87.0938ZM629.423 93.1504C628.694 93.1504 628.088 92.959 627.604 92.5762C627.121 92.1888 626.88 91.6169 626.88 90.8604C626.88 90.2907 627.017 89.8441 627.29 89.5205C627.563 89.1969 627.919 88.96 628.356 88.8096C628.794 88.6592 629.263 88.5612 629.765 88.5156C630.421 88.4518 630.893 88.3857 631.18 88.3174C631.471 88.2445 631.617 88.0827 631.617 87.832V87.7979C631.617 87.4743 631.512 87.2236 631.303 87.0459C631.098 86.8682 630.804 86.7793 630.421 86.7793C630.024 86.7793 629.705 86.8659 629.464 87.0391C629.222 87.2077 629.061 87.415 628.979 87.6611L627.099 87.3467C627.295 86.6859 627.684 86.1732 628.268 85.8086C628.855 85.444 629.576 85.2617 630.428 85.2617C630.975 85.2617 631.494 85.3483 631.986 85.5215C632.483 85.6947 632.886 85.9727 633.196 86.3555C633.511 86.7337 633.668 87.2327 633.668 87.8525V93H631.727V91.9404H631.658C631.471 92.2959 631.193 92.5876 630.824 92.8154C630.455 93.0387 629.988 93.1504 629.423 93.1504ZM630.004 91.708C630.482 91.708 630.872 91.569 631.173 91.291C631.478 91.013 631.631 90.6712 631.631 90.2656V89.4385C631.549 89.4977 631.414 89.5501 631.228 89.5957C631.045 89.6367 630.852 89.6755 630.646 89.7119C630.441 89.7438 630.264 89.7689 630.113 89.7871C629.735 89.8418 629.43 89.9489 629.197 90.1084C628.965 90.2679 628.849 90.5003 628.849 90.8057C628.849 91.1019 628.956 91.3275 629.17 91.4824C629.389 91.6328 629.667 91.708 630.004 91.708ZM638.843 93.1504C638.073 93.1504 637.407 92.9863 636.847 92.6582C636.291 92.3255 635.86 91.8652 635.555 91.2773C635.254 90.6849 635.104 89.9967 635.104 89.2129C635.104 88.4245 635.254 87.734 635.555 87.1416C635.86 86.5492 636.291 86.0889 636.847 85.7607C637.407 85.4281 638.073 85.2617 638.843 85.2617C639.75 85.2617 640.506 85.4896 641.112 85.9453C641.718 86.3965 642.094 87.0163 642.24 87.8047L640.333 88.1602C640.246 87.7637 640.078 87.4515 639.827 87.2236C639.581 86.9912 639.26 86.875 638.863 86.875C638.316 86.875 637.902 87.0915 637.619 87.5244C637.337 87.9528 637.195 88.5133 637.195 89.2061C637.195 89.8896 637.337 90.4502 637.619 90.8877C637.902 91.3206 638.316 91.5371 638.863 91.5371C639.26 91.5371 639.586 91.4186 639.841 91.1816C640.096 90.9401 640.265 90.6143 640.347 90.2041L642.254 90.5527C642.108 91.3594 641.732 91.9951 641.126 92.46C640.52 92.9202 639.759 93.1504 638.843 93.1504ZM643.669 93V82.8145H645.72V88.2969H645.836L648.338 85.3574H650.71L647.853 88.6729L650.854 93H648.44L646.308 89.8828L645.72 90.5459V93H643.669ZM654.928 93.1504C654.148 93.1504 653.476 92.9909 652.911 92.6719C652.346 92.3529 651.911 91.8994 651.605 91.3115C651.305 90.7236 651.154 90.0264 651.154 89.2197C651.154 88.4313 651.305 87.7409 651.605 87.1484C651.911 86.556 652.337 86.0934 652.884 85.7607C653.435 85.4281 654.082 85.2617 654.825 85.2617C655.491 85.2617 656.094 85.403 656.637 85.6855C657.179 85.9681 657.61 86.3965 657.929 86.9707C658.252 87.5449 658.414 88.2673 658.414 89.1377V89.7119H653.185C653.207 90.3363 653.381 90.8079 653.704 91.127C654.028 91.446 654.447 91.6055 654.962 91.6055C655.322 91.6055 655.63 91.5303 655.885 91.3799C656.145 91.2249 656.329 90.9993 656.438 90.7031L658.298 91.0518C658.111 91.6852 657.724 92.1934 657.136 92.5762C656.552 92.959 655.816 93.1504 654.928 93.1504ZM653.198 88.4268H656.438C656.388 87.93 656.229 87.5358 655.96 87.2441C655.691 86.9525 655.32 86.8066 654.846 86.8066C654.354 86.8066 653.966 86.9593 653.684 87.2646C653.401 87.5654 653.239 87.9528 653.198 88.4268ZM661.866 88.5771V93H659.815V85.3574H661.75L661.777 86.9365C661.992 86.4033 662.295 85.9909 662.687 85.6992C663.078 85.4076 663.568 85.2617 664.156 85.2617C664.949 85.2617 665.585 85.5169 666.063 86.0273C666.542 86.5378 666.781 87.2419 666.781 88.1396V93H664.73V88.4951C664.73 88.0212 664.607 87.6497 664.361 87.3809C664.12 87.112 663.783 86.9775 663.35 86.9775C662.912 86.9775 662.554 87.1188 662.276 87.4014C662.003 87.6794 661.866 88.0713 661.866 88.5771ZM671.334 93.1299C670.746 93.1299 670.217 92.9795 669.748 92.6787C669.279 92.3734 668.905 91.929 668.627 91.3457C668.354 90.7578 668.217 90.04 668.217 89.1924C668.217 88.3219 668.358 87.5951 668.641 87.0117C668.923 86.4284 669.299 85.9909 669.769 85.6992C670.238 85.4076 670.755 85.2617 671.32 85.2617C671.753 85.2617 672.113 85.3346 672.4 85.4805C672.688 85.6263 672.918 85.8063 673.091 86.0205C673.269 86.2347 673.403 86.4421 673.494 86.6426H673.562V82.8145H675.613V93H673.597V91.7764H673.494C673.398 91.9814 673.262 92.1888 673.084 92.3984C672.906 92.6035 672.674 92.7767 672.387 92.918C672.1 93.0592 671.749 93.1299 671.334 93.1299ZM671.963 91.4824C672.482 91.4824 672.886 91.2728 673.173 90.8535C673.46 90.4342 673.604 89.8783 673.604 89.1855C673.604 88.4928 673.46 87.9391 673.173 87.5244C672.89 87.1097 672.487 86.9023 671.963 86.9023C671.425 86.9023 671.017 87.1165 670.739 87.5449C670.461 87.9688 670.322 88.5156 670.322 89.1855C670.322 89.86 670.461 90.4115 670.739 90.8398C671.022 91.2682 671.43 91.4824 671.963 91.4824ZM606.851 113.15C605.625 113.15 604.645 112.87 603.911 112.31C603.182 111.744 602.804 110.922 602.776 109.842H604.807C604.843 110.357 605.048 110.744 605.422 111.004C605.8 111.259 606.27 111.387 606.83 111.387C607.386 111.387 607.833 111.268 608.17 111.031C608.512 110.79 608.683 110.475 608.683 110.088C608.683 109.737 608.528 109.468 608.218 109.281C607.912 109.094 607.482 108.933 606.926 108.796L605.805 108.516C604.943 108.306 604.269 107.978 603.781 107.531C603.294 107.08 603.05 106.485 603.05 105.747C603.05 105.132 603.214 104.594 603.542 104.134C603.875 103.674 604.328 103.316 604.902 103.061C605.481 102.805 606.14 102.678 606.878 102.678C607.63 102.678 608.286 102.808 608.847 103.067C609.407 103.323 609.845 103.68 610.159 104.141C610.474 104.596 610.635 105.123 610.645 105.72H608.628C608.591 105.31 608.416 104.993 608.102 104.77C607.792 104.546 607.377 104.435 606.857 104.435C606.324 104.435 605.912 104.546 605.62 104.77C605.333 104.988 605.189 105.269 605.189 105.61C605.189 105.989 605.351 106.271 605.675 106.458C606.003 106.645 606.383 106.791 606.816 106.896L607.739 107.121C608.309 107.253 608.824 107.445 609.284 107.695C609.744 107.941 610.109 108.263 610.378 108.659C610.647 109.051 610.781 109.532 610.781 110.102C610.781 111.027 610.435 111.767 609.742 112.323C609.054 112.875 608.09 113.15 606.851 113.15ZM615.696 113.15C614.917 113.15 614.245 112.991 613.68 112.672C613.115 112.353 612.679 111.899 612.374 111.312C612.073 110.724 611.923 110.026 611.923 109.22C611.923 108.431 612.073 107.741 612.374 107.148C612.679 106.556 613.105 106.093 613.652 105.761C614.204 105.428 614.851 105.262 615.594 105.262C616.259 105.262 616.863 105.403 617.405 105.686C617.948 105.968 618.378 106.396 618.697 106.971C619.021 107.545 619.183 108.267 619.183 109.138V109.712H613.953C613.976 110.336 614.149 110.808 614.473 111.127C614.796 111.446 615.215 111.605 615.73 111.605C616.09 111.605 616.398 111.53 616.653 111.38C616.913 111.225 617.098 110.999 617.207 110.703L619.066 111.052C618.88 111.685 618.492 112.193 617.904 112.576C617.321 112.959 616.585 113.15 615.696 113.15ZM613.967 108.427H617.207C617.157 107.93 616.997 107.536 616.729 107.244C616.46 106.952 616.088 106.807 615.614 106.807C615.122 106.807 614.735 106.959 614.452 107.265C614.17 107.565 614.008 107.953 613.967 108.427ZM620.584 113V105.357H622.566V106.69H622.648C622.79 106.221 623.024 105.866 623.353 105.624C623.685 105.378 624.066 105.255 624.494 105.255C624.727 105.255 624.948 105.278 625.157 105.323V107.155C625.066 107.128 624.932 107.105 624.754 107.087C624.581 107.064 624.419 107.053 624.269 107.053C623.795 107.053 623.403 107.201 623.093 107.497C622.787 107.793 622.635 108.178 622.635 108.652V113H620.584ZM628.657 113L625.841 105.357H628.021L629.307 109.322C629.411 109.664 629.507 110.008 629.594 110.354C629.685 110.701 629.771 111.052 629.854 111.407C629.931 111.052 630.011 110.703 630.093 110.361C630.179 110.015 630.277 109.669 630.387 109.322L631.658 105.357H633.812L630.988 113H628.657ZM638.091 113.15C637.312 113.15 636.639 112.991 636.074 112.672C635.509 112.353 635.074 111.899 634.769 111.312C634.468 110.724 634.317 110.026 634.317 109.22C634.317 108.431 634.468 107.741 634.769 107.148C635.074 106.556 635.5 106.093 636.047 105.761C636.598 105.428 637.245 105.262 637.988 105.262C638.654 105.262 639.257 105.403 639.8 105.686C640.342 105.968 640.773 106.396 641.092 106.971C641.415 107.545 641.577 108.267 641.577 109.138V109.712H636.348C636.37 110.336 636.544 110.808 636.867 111.127C637.191 111.446 637.61 111.605 638.125 111.605C638.485 111.605 638.793 111.53 639.048 111.38C639.308 111.225 639.492 110.999 639.602 110.703L641.461 111.052C641.274 111.685 640.887 112.193 640.299 112.576C639.715 112.959 638.979 113.15 638.091 113.15ZM636.361 108.427H639.602C639.551 107.93 639.392 107.536 639.123 107.244C638.854 106.952 638.483 106.807 638.009 106.807C637.517 106.807 637.129 106.959 636.847 107.265C636.564 107.565 636.402 107.953 636.361 108.427ZM642.979 113V105.357H644.961V106.69H645.043C645.184 106.221 645.419 105.866 645.747 105.624C646.08 105.378 646.46 105.255 646.889 105.255C647.121 105.255 647.342 105.278 647.552 105.323V107.155C647.461 107.128 647.326 107.105 647.148 107.087C646.975 107.064 646.813 107.053 646.663 107.053C646.189 107.053 645.797 107.201 645.487 107.497C645.182 107.793 645.029 108.178 645.029 108.652V113H642.979Z" fill="#12141E"/>
<path d="M694 16C694 16.788 693.655 17.6391 692.833 18.5575C692.005 19.482 690.738 20.4217 689.024 21.3482C685.596 23.2005 680.57 24.8999 674.275 26.3389C661.7 29.2131 644.278 31 625 31C605.722 31 588.3 29.2131 575.725 26.3389C569.43 24.8999 564.404 23.2005 560.976 21.3482C559.262 20.4217 557.995 19.482 557.167 18.5575C556.345 17.6391 556 16.788 556 16C556 15.212 556.345 14.3609 557.167 13.4425C557.995 12.518 559.262 11.5783 560.976 10.6518C564.404 8.79955 569.43 7.10013 575.725 5.66115C588.3 2.78687 605.722 1 625 1C644.278 1 661.7 2.78687 674.275 5.66115C680.57 7.10013 685.596 8.79955 689.024 10.6518C690.738 11.5783 692.005 12.518 692.833 13.4425C693.655 14.3609 694 15.212 694 16Z" fill="white" stroke="#B6B9C9" stroke-width="2"/>
<path d="M139.293 88.2929C138.902 88.6834 138.902 89.3166 139.293 89.7071L145.657 96.071C146.047 96.4616 146.681 96.4616 147.071 96.071C147.462 95.6805 147.462 95.0474 147.071 94.6568L141.414 89L147.071 83.3431C147.462 82.9526 147.462 82.3194 147.071 81.9289C146.681 81.5384 146.047 81.5384 145.657 81.9289L139.293 88.2929ZM556 88L140 88L140 90L556 90L556 88Z" fill="#B6B9C9"/>
<rect x="250" y="74" width="170" height="30" rx="4" fill="#666977"/>
<path d="M258.923 94V83.8145H262.895C264.052 83.8145 264.948 84.1175 265.581 84.7236C266.219 85.3252 266.538 86.1273 266.538 87.1299C266.538 87.8271 266.383 88.4242 266.073 88.9209C265.763 89.4131 265.317 89.7822 264.733 90.0283L266.9 94H264.59L262.648 90.3633H261.008V94H258.923ZM261.008 88.6748H262.512C263.76 88.6748 264.385 88.1598 264.385 87.1299C264.385 86.6149 264.23 86.2207 263.92 85.9473C263.615 85.6738 263.143 85.5371 262.505 85.5371H261.008V88.6748ZM271.351 94.1504C270.571 94.1504 269.899 93.9909 269.334 93.6719C268.769 93.3529 268.334 92.8994 268.028 92.3115C267.728 91.7236 267.577 91.0264 267.577 90.2197C267.577 89.4313 267.728 88.7409 268.028 88.1484C268.334 87.556 268.76 87.0934 269.307 86.7607C269.858 86.4281 270.505 86.2617 271.248 86.2617C271.913 86.2617 272.517 86.403 273.06 86.6855C273.602 86.9681 274.033 87.3965 274.352 87.9707C274.675 88.5449 274.837 89.2673 274.837 90.1377V90.7119H269.607C269.63 91.3363 269.803 91.8079 270.127 92.127C270.451 92.446 270.87 92.6055 271.385 92.6055C271.745 92.6055 272.052 92.5303 272.308 92.3799C272.567 92.2249 272.752 91.9993 272.861 91.7031L274.721 92.0518C274.534 92.6852 274.146 93.1934 273.559 93.5762C272.975 93.959 272.239 94.1504 271.351 94.1504ZM269.621 89.4268H272.861C272.811 88.93 272.652 88.5358 272.383 88.2441C272.114 87.9525 271.743 87.8066 271.269 87.8066C270.776 87.8066 270.389 87.9593 270.106 88.2646C269.824 88.5654 269.662 88.9528 269.621 89.4268ZM279.636 97.0215C278.679 97.0215 277.909 96.846 277.325 96.4951C276.742 96.1442 276.366 95.6953 276.197 95.1484L277.961 94.6562C278.057 94.8704 278.232 95.0687 278.487 95.251C278.747 95.4378 279.125 95.5312 279.622 95.5312C280.142 95.5312 280.552 95.4105 280.853 95.1689C281.153 94.932 281.304 94.5605 281.304 94.0547V92.6465H281.146C281.005 92.9564 280.771 93.2412 280.442 93.501C280.119 93.7607 279.647 93.8906 279.027 93.8906C278.453 93.8906 277.931 93.7562 277.462 93.4873C276.993 93.2184 276.617 92.8083 276.334 92.2568C276.056 91.7054 275.917 91.0081 275.917 90.165C275.917 89.3037 276.058 88.5837 276.341 88.0049C276.628 87.4261 277.006 86.9909 277.476 86.6992C277.95 86.4076 278.469 86.2617 279.034 86.2617C279.463 86.2617 279.823 86.3346 280.114 86.4805C280.406 86.6263 280.641 86.8063 280.818 87.0205C281.001 87.2347 281.137 87.4421 281.229 87.6426H281.317V86.3574H283.334V93.9385C283.334 94.6266 283.174 95.1986 282.855 95.6543C282.541 96.1146 282.104 96.4564 281.543 96.6797C280.987 96.9076 280.351 97.0215 279.636 97.0215ZM279.67 92.332C280.194 92.332 280.597 92.1406 280.88 91.7578C281.167 91.3704 281.311 90.835 281.311 90.1514C281.311 89.4723 281.169 88.9277 280.887 88.5176C280.604 88.1074 280.199 87.9023 279.67 87.9023C279.132 87.9023 278.722 88.1143 278.439 88.5381C278.161 88.9574 278.022 89.4951 278.022 90.1514C278.022 90.8213 278.164 91.3522 278.446 91.7441C278.729 92.1361 279.137 92.332 279.67 92.332ZM285.084 94V86.3574H287.135V94H285.084ZM286.109 85.3594C285.799 85.3594 285.535 85.2568 285.316 85.0518C285.098 84.8467 284.988 84.5983 284.988 84.3066C284.988 84.015 285.098 83.7666 285.316 83.5615C285.535 83.3564 285.799 83.2539 286.109 83.2539C286.419 83.2539 286.684 83.3564 286.902 83.5615C287.126 83.7666 287.237 84.015 287.237 84.3066C287.237 84.5983 287.126 84.8467 286.902 85.0518C286.684 85.2568 286.419 85.3594 286.109 85.3594ZM291.92 94.1504C290.999 94.1504 290.238 93.9544 289.637 93.5625C289.04 93.1706 288.675 92.6191 288.543 91.9082L290.45 91.5801C290.646 92.291 291.157 92.6465 291.981 92.6465C292.373 92.6465 292.681 92.5736 292.904 92.4277C293.132 92.2773 293.246 92.0882 293.246 91.8604C293.246 91.473 292.918 91.2109 292.262 91.0742L290.942 90.8008C289.475 90.5 288.741 89.7777 288.741 88.6338C288.741 87.9001 289.035 87.3213 289.623 86.8975C290.211 86.4736 290.988 86.2617 291.954 86.2617C292.861 86.2617 293.583 86.4463 294.121 86.8154C294.659 87.1846 294.998 87.679 295.14 88.2988L293.321 88.6201C293.239 88.3604 293.089 88.1484 292.87 87.9844C292.651 87.8158 292.355 87.7314 291.981 87.7314C291.644 87.7314 291.362 87.8044 291.134 87.9502C290.906 88.0915 290.792 88.276 290.792 88.5039C290.792 88.6953 290.865 88.8594 291.011 88.9961C291.161 89.1283 291.416 89.2308 291.776 89.3037L293.15 89.5771C294.609 89.8734 295.338 90.5615 295.338 91.6416C295.338 92.1429 295.192 92.5827 294.9 92.9609C294.609 93.3346 294.205 93.6263 293.69 93.8359C293.175 94.0456 292.585 94.1504 291.92 94.1504ZM300.526 86.3574V87.9229H299.098V91.7646C299.098 92.2386 299.33 92.4756 299.795 92.4756C299.872 92.4756 299.979 92.4665 300.116 92.4482C300.257 92.4255 300.367 92.4049 300.444 92.3867L300.738 93.9248C300.51 93.9932 300.283 94.041 300.055 94.0684C299.831 94.0957 299.617 94.1094 299.412 94.1094C298.646 94.1094 298.061 93.9248 297.655 93.5557C297.25 93.182 297.047 92.6442 297.047 91.9424V87.9229H295.994V86.3574H297.047V84.5391H299.098V86.3574H300.526ZM301.859 94V86.3574H303.842V87.6904H303.924C304.065 87.221 304.3 86.8656 304.628 86.624C304.961 86.3779 305.341 86.2549 305.77 86.2549C306.002 86.2549 306.223 86.2777 306.433 86.3232V88.1553C306.341 88.1279 306.207 88.1051 306.029 88.0869C305.856 88.0641 305.694 88.0527 305.544 88.0527C305.07 88.0527 304.678 88.2008 304.368 88.4971C304.063 88.7933 303.91 89.1784 303.91 89.6523V94H301.859ZM309.502 94.1504C308.773 94.1504 308.167 93.959 307.684 93.5762C307.201 93.1888 306.959 92.6169 306.959 91.8604C306.959 91.2907 307.096 90.8441 307.369 90.5205C307.643 90.1969 307.998 89.96 308.436 89.8096C308.873 89.6592 309.342 89.5612 309.844 89.5156C310.5 89.4518 310.972 89.3857 311.259 89.3174C311.55 89.2445 311.696 89.0827 311.696 88.832V88.7979C311.696 88.4743 311.591 88.2236 311.382 88.0459C311.177 87.8682 310.883 87.7793 310.5 87.7793C310.104 87.7793 309.785 87.8659 309.543 88.0391C309.301 88.2077 309.14 88.415 309.058 88.6611L307.178 88.3467C307.374 87.6859 307.763 87.1732 308.347 86.8086C308.935 86.444 309.655 86.2617 310.507 86.2617C311.054 86.2617 311.573 86.3483 312.065 86.5215C312.562 86.6947 312.965 86.9727 313.275 87.3555C313.59 87.7337 313.747 88.2327 313.747 88.8525V94H311.806V92.9404H311.737C311.55 93.2959 311.272 93.5876 310.903 93.8154C310.534 94.0387 310.067 94.1504 309.502 94.1504ZM310.083 92.708C310.562 92.708 310.951 92.569 311.252 92.291C311.557 92.013 311.71 91.6712 311.71 91.2656V90.4385C311.628 90.4977 311.493 90.5501 311.307 90.5957C311.124 90.6367 310.931 90.6755 310.726 90.7119C310.521 90.7438 310.343 90.7689 310.192 90.7871C309.814 90.8418 309.509 90.9489 309.276 91.1084C309.044 91.2679 308.928 91.5003 308.928 91.8057C308.928 92.1019 309.035 92.3275 309.249 92.4824C309.468 92.6328 309.746 92.708 310.083 92.708ZM319.298 86.3574V87.9229H317.869V91.7646C317.869 92.2386 318.102 92.4756 318.566 92.4756C318.644 92.4756 318.751 92.4665 318.888 92.4482C319.029 92.4255 319.138 92.4049 319.216 92.3867L319.51 93.9248C319.282 93.9932 319.054 94.041 318.826 94.0684C318.603 94.0957 318.389 94.1094 318.184 94.1094C317.418 94.1094 316.832 93.9248 316.427 93.5557C316.021 93.182 315.818 92.6442 315.818 91.9424V87.9229H314.766V86.3574H315.818V84.5391H317.869V86.3574H319.298ZM320.631 94V86.3574H322.682V94H320.631ZM321.656 85.3594C321.346 85.3594 321.082 85.2568 320.863 85.0518C320.645 84.8467 320.535 84.5983 320.535 84.3066C320.535 84.015 320.645 83.7666 320.863 83.5615C321.082 83.3564 321.346 83.2539 321.656 83.2539C321.966 83.2539 322.23 83.3564 322.449 83.5615C322.673 83.7666 322.784 84.015 322.784 84.3066C322.784 84.5983 322.673 84.8467 322.449 85.0518C322.23 85.2568 321.966 85.3594 321.656 85.3594ZM327.85 94.1504C327.084 94.1504 326.421 93.9863 325.86 93.6582C325.3 93.3255 324.867 92.8652 324.562 92.2773C324.261 91.6849 324.11 90.9967 324.11 90.2129C324.11 89.4245 324.261 88.734 324.562 88.1416C324.867 87.5492 325.3 87.0889 325.86 86.7607C326.421 86.4281 327.084 86.2617 327.85 86.2617C328.615 86.2617 329.278 86.4281 329.839 86.7607C330.399 87.0889 330.83 87.5492 331.131 88.1416C331.436 88.734 331.589 89.4245 331.589 90.2129C331.589 90.9967 331.436 91.6849 331.131 92.2773C330.83 92.8652 330.399 93.3255 329.839 93.6582C329.278 93.9863 328.615 94.1504 327.85 94.1504ZM327.85 92.5371C328.396 92.5371 328.809 92.3161 329.087 91.874C329.365 91.432 329.504 90.876 329.504 90.2061C329.504 89.5316 329.365 88.9756 329.087 88.5381C328.809 88.096 328.396 87.875 327.85 87.875C327.303 87.875 326.89 88.096 326.612 88.5381C326.339 88.9756 326.202 89.5316 326.202 90.2061C326.202 90.876 326.339 91.432 326.612 91.874C326.89 92.3161 327.303 92.5371 327.85 92.5371ZM335.068 89.5771V94H333.018V86.3574H334.952L334.979 87.9365C335.194 87.4033 335.497 86.9909 335.889 86.6992C336.281 86.4076 336.771 86.2617 337.358 86.2617C338.151 86.2617 338.787 86.5169 339.266 87.0273C339.744 87.5378 339.983 88.2419 339.983 89.1396V94H337.933V89.4951C337.933 89.0212 337.81 88.6497 337.563 88.3809C337.322 88.112 336.985 87.9775 336.552 87.9775C336.114 87.9775 335.757 88.1188 335.479 88.4014C335.205 88.6794 335.068 89.0713 335.068 89.5771ZM345.11 94V83.8145H349.082C350.24 83.8145 351.135 84.1175 351.769 84.7236C352.407 85.3252 352.726 86.1273 352.726 87.1299C352.726 87.8271 352.571 88.4242 352.261 88.9209C351.951 89.4131 351.504 89.7822 350.921 90.0283L353.088 94H350.777L348.836 90.3633H347.195V94H345.11ZM347.195 88.6748H348.699C349.948 88.6748 350.572 88.1598 350.572 87.1299C350.572 86.6149 350.417 86.2207 350.107 85.9473C349.802 85.6738 349.33 85.5371 348.692 85.5371H347.195V88.6748ZM357.538 94.1504C356.759 94.1504 356.087 93.9909 355.521 93.6719C354.956 93.3529 354.521 92.8994 354.216 92.3115C353.915 91.7236 353.765 91.0264 353.765 90.2197C353.765 89.4313 353.915 88.7409 354.216 88.1484C354.521 87.556 354.947 87.0934 355.494 86.7607C356.046 86.4281 356.693 86.2617 357.436 86.2617C358.101 86.2617 358.705 86.403 359.247 86.6855C359.789 86.9681 360.22 87.3965 360.539 87.9707C360.863 88.5449 361.024 89.2673 361.024 90.1377V90.7119H355.795C355.818 91.3363 355.991 91.8079 356.314 92.127C356.638 92.446 357.057 92.6055 357.572 92.6055C357.932 92.6055 358.24 92.5303 358.495 92.3799C358.755 92.2249 358.939 91.9993 359.049 91.7031L360.908 92.0518C360.721 92.6852 360.334 93.1934 359.746 93.5762C359.163 93.959 358.427 94.1504 357.538 94.1504ZM355.809 89.4268H359.049C358.999 88.93 358.839 88.5358 358.57 88.2441C358.301 87.9525 357.93 87.8066 357.456 87.8066C356.964 87.8066 356.576 87.9593 356.294 88.2646C356.011 88.5654 355.85 88.9528 355.809 89.4268ZM365.461 94.1504C364.54 94.1504 363.779 93.9544 363.178 93.5625C362.581 93.1706 362.216 92.6191 362.084 91.9082L363.991 91.5801C364.187 92.291 364.698 92.6465 365.522 92.6465C365.914 92.6465 366.222 92.5736 366.445 92.4277C366.673 92.2773 366.787 92.0882 366.787 91.8604C366.787 91.473 366.459 91.2109 365.803 91.0742L364.483 90.8008C363.016 90.5 362.282 89.7777 362.282 88.6338C362.282 87.9001 362.576 87.3213 363.164 86.8975C363.752 86.4736 364.529 86.2617 365.495 86.2617C366.402 86.2617 367.124 86.4463 367.662 86.8154C368.2 87.1846 368.539 87.679 368.681 88.2988L366.862 88.6201C366.78 88.3604 366.63 88.1484 366.411 87.9844C366.192 87.8158 365.896 87.7314 365.522 87.7314C365.185 87.7314 364.903 87.8044 364.675 87.9502C364.447 88.0915 364.333 88.276 364.333 88.5039C364.333 88.6953 364.406 88.8594 364.552 88.9961C364.702 89.1283 364.957 89.2308 365.317 89.3037L366.691 89.5771C368.15 89.8734 368.879 90.5615 368.879 91.6416C368.879 92.1429 368.733 92.5827 368.441 92.9609C368.15 93.3346 367.746 93.6263 367.231 93.8359C366.716 94.0456 366.126 94.1504 365.461 94.1504ZM370.273 96.8574V86.3574H372.29V87.6426H372.386C372.477 87.4421 372.609 87.2347 372.782 87.0205C372.96 86.8063 373.192 86.6263 373.479 86.4805C373.771 86.3346 374.133 86.2617 374.566 86.2617C375.132 86.2617 375.649 86.4076 376.118 86.6992C376.588 86.9909 376.961 87.4284 377.239 88.0117C377.522 88.5951 377.663 89.3219 377.663 90.1924C377.663 91.04 377.526 91.7578 377.253 92.3457C376.979 92.929 376.608 93.3734 376.139 93.6787C375.669 93.9795 375.141 94.1299 374.553 94.1299C374.138 94.1299 373.787 94.0592 373.5 93.918C373.213 93.7767 372.978 93.6035 372.796 93.3984C372.618 93.1888 372.481 92.9814 372.386 92.7764H372.324V96.8574H370.273ZM373.924 92.4824C374.457 92.4824 374.863 92.2682 375.141 91.8398C375.423 91.4115 375.564 90.86 375.564 90.1855C375.564 89.5156 375.425 88.9688 375.147 88.5449C374.869 88.1165 374.462 87.9023 373.924 87.9023C373.395 87.9023 372.987 88.1097 372.7 88.5244C372.418 88.9391 372.276 89.4928 372.276 90.1855C372.276 90.8783 372.42 91.4342 372.707 91.8535C372.994 92.2728 373.4 92.4824 373.924 92.4824ZM382.523 94.1504C381.758 94.1504 381.095 93.9863 380.534 93.6582C379.974 93.3255 379.541 92.8652 379.235 92.2773C378.935 91.6849 378.784 90.9967 378.784 90.2129C378.784 89.4245 378.935 88.734 379.235 88.1416C379.541 87.5492 379.974 87.0889 380.534 86.7607C381.095 86.4281 381.758 86.2617 382.523 86.2617C383.289 86.2617 383.952 86.4281 384.513 86.7607C385.073 87.0889 385.504 87.5492 385.805 88.1416C386.11 88.734 386.263 89.4245 386.263 90.2129C386.263 90.9967 386.11 91.6849 385.805 92.2773C385.504 92.8652 385.073 93.3255 384.513 93.6582C383.952 93.9863 383.289 94.1504 382.523 94.1504ZM382.523 92.5371C383.07 92.5371 383.483 92.3161 383.761 91.874C384.039 91.432 384.178 90.876 384.178 90.2061C384.178 89.5316 384.039 88.9756 383.761 88.5381C383.483 88.096 383.07 87.875 382.523 87.875C381.977 87.875 381.564 88.096 381.286 88.5381C381.013 88.9756 380.876 89.5316 380.876 90.2061C380.876 90.876 381.013 91.432 381.286 91.874C381.564 92.3161 381.977 92.5371 382.523 92.5371ZM389.742 89.5771V94H387.691V86.3574H389.626L389.653 87.9365C389.868 87.4033 390.171 86.9909 390.562 86.6992C390.954 86.4076 391.444 86.2617 392.032 86.2617C392.825 86.2617 393.461 86.5169 393.939 87.0273C394.418 87.5378 394.657 88.2419 394.657 89.1396V94H392.606V89.4951C392.606 89.0212 392.483 88.6497 392.237 88.3809C391.996 88.112 391.659 87.9775 391.226 87.9775C390.788 87.9775 390.43 88.1188 390.152 88.4014C389.879 88.6794 389.742 89.0713 389.742 89.5771ZM399.449 94.1504C398.529 94.1504 397.768 93.9544 397.166 93.5625C396.569 93.1706 396.204 92.6191 396.072 91.9082L397.979 91.5801C398.175 92.291 398.686 92.6465 399.511 92.6465C399.903 92.6465 400.21 92.5736 400.434 92.4277C400.661 92.2773 400.775 92.0882 400.775 91.8604C400.775 91.473 400.447 91.2109 399.791 91.0742L398.472 90.8008C397.004 90.5 396.271 89.7777 396.271 88.6338C396.271 87.9001 396.564 87.3213 397.152 86.8975C397.74 86.4736 398.517 86.2617 399.483 86.2617C400.39 86.2617 401.113 86.4463 401.65 86.8154C402.188 87.1846 402.528 87.679 402.669 88.2988L400.851 88.6201C400.769 88.3604 400.618 88.1484 400.399 87.9844C400.181 87.8158 399.884 87.7314 399.511 87.7314C399.174 87.7314 398.891 87.8044 398.663 87.9502C398.435 88.0915 398.321 88.276 398.321 88.5039C398.321 88.6953 398.394 88.8594 398.54 88.9961C398.69 89.1283 398.946 89.2308 399.306 89.3037L400.68 89.5771C402.138 89.8734 402.867 90.5615 402.867 91.6416C402.867 92.1429 402.721 92.5827 402.43 92.9609C402.138 93.3346 401.735 93.6263 401.22 93.8359C400.705 94.0456 400.115 94.1504 399.449 94.1504ZM407.714 94.1504C406.935 94.1504 406.262 93.9909 405.697 93.6719C405.132 93.3529 404.697 92.8994 404.392 92.3115C404.091 91.7236 403.94 91.0264 403.94 90.2197C403.94 89.4313 404.091 88.7409 404.392 88.1484C404.697 87.556 405.123 87.0934 405.67 86.7607C406.221 86.4281 406.868 86.2617 407.611 86.2617C408.277 86.2617 408.881 86.403 409.423 86.6855C409.965 86.9681 410.396 87.3965 410.715 87.9707C411.038 88.5449 411.2 89.2673 411.2 90.1377V90.7119H405.971C405.993 91.3363 406.167 91.8079 406.49 92.127C406.814 92.446 407.233 92.6055 407.748 92.6055C408.108 92.6055 408.416 92.5303 408.671 92.3799C408.931 92.2249 409.115 91.9993 409.225 91.7031L411.084 92.0518C410.897 92.6852 410.51 93.1934 409.922 93.5762C409.339 93.959 408.603 94.1504 407.714 94.1504ZM405.984 89.4268H409.225C409.174 88.93 409.015 88.5358 408.746 88.2441C408.477 87.9525 408.106 87.8066 407.632 87.8066C407.14 87.8066 406.752 87.9593 406.47 88.2646C406.187 88.5654 406.025 88.9528 405.984 89.4268Z" fill="white"/>
</g>
<defs>
<clipPath id="clip0_385_559">
<rect width="695" height="172" fill="white"/>
</clipPath>
</defs>
</svg>
